P2
159 129
255
0 0 0 0 0 0 0 0 0 0 0 0 0 0 0 0 0 0 0 0 0 0 0 0 0 0 0 0 0 0 0 0 0 0 0 0 0 0 0 0 0 0 0 0 0 0 0 0 0 0 0 0 0 0 0 0 0 0 0 0 0 0 0 0 0 0 0 0 0 0 0 0 0 0 0 0 0 0 0 0 0 0 0 0 0 0 0 0 0 0 0 0 0 0 0 0 0 0 0 0 0 0 0 0 0 0 0 0 0 0 0 0 0 0 0 0 0 0 0 0 0 0 0 0 0 0 0 0 0 0 0 0 0 0 0 0 0 0 0 0 0 0 0 0 0 0 0 0 0 0 0 0 0 0 0 0 0 0 0 0 0 0 0 0 0 0 0 0 0 0 0 0 0 0 0 0 0 0 0 0 0 0 0 0 0 0 0 0 0 0 0 0 0 0 0 0 0 0 0 0 0 0 0 0 0 0 0 0 0 0 0 0 0 0 0 0 0 0 0 0 0 0 0 0 0 0 0 0 0 0 0 0 0 0 0 0 0 0 0 0 0 0 0 0 0 0 0 0 0 0 0 0 0 0 0 0 0 0 0 0 0 0 0 0 0 0 0 0 0 0 0 0 0 0 0 0 0 0 0 0 0 0 0 0 0 0 0 0 0 0 0 0 0 0 0 0 0 0 0 0 0 0 0 0 0 0 0 0 0 0 0 0 0 0 0 0 0 0 56 44 112 86 104 97 90 129 92 15 69 91 93 88 91 113 57 106 67 101 103 108 151 179 164 185 192 132 192 173 140 193 165 186 189 119 204 185 173 202 165 211 189 175 221 184 217 223 183 235 235 180 237 221 216 231 226 235 229 234 231 229 230 223 223 216 215 211 207 216 235 235 245 231 225 218 225 231 233 234 229 235 233 239 239 246 242 248 243 246 245 249 247 250 247 250 250 253 253 255 251 253 248 250 243 248 229 235 194 195 217 234 245 248 253 243 224 216 210 243 230 190 221 159 234 231 196 240 229 181 222 223 174 208 212 144 179 198 160 197 142 184 180 207 219 191 154 197 173 193 191 198 145 165 156 159 154 121 131 90 97 118 99 81 102 104 120 140 136 106 62 117 108 101 95 80 114 103 111 95 101 116 192 157 193 159 137 207 182 113 198 168 184 171 133 218 205 165 218 208 220 211 199 233 209 212 203 194 220 214 211 217 195 182 195 182 200 182 194 193 191 176 186 171 175 168 167 177 206 210 177 211 210 186 199 204 208 214 213 210 213 214 216 216 220 220 222 223 221 223 222 228 224 228 224 228 225 230 223 226 217 218 210 212 214 204 210 188 187 183 222 209 197 215 219 205 191 210 198 212 191 178 169 216 198 176 220 197 154 210 184 167 190 164 169 152 137 166 178 108 152 134 195 202 174 162 170 165 180 171 173 137 148 149 146 109 97 95 94 117 61 93 103 101 128 44 152 150 120 122 124 134 104 82 92 135 128 140 121 144 162 221 165 198 224 162 226 204 156 234 167 174 236 148 224 232 99 243 227 207 232 210 229 209 187 186 120 118 131 189 160 151 137 129 148 117 70 125 110 99 148 120 135 150 120 118 107 169 134 186 157 193 163 177 153 170 163 170 172 173 182 173 188 165 198 159 205 162 186 148 191 172 162 159 158 161 162 163 161 163 163 173 171 172 176 170 164 174 164 187 169 189 179 174 172 167 171 165 168 157 138 148 170 153 154 173 158 149 170 156 130 161 155 129 160 156 131 141 136 131 97 153 159 124 138 124 124 109 110 143 99 95 106 94 55 33 43 80 72 104 106 107 136 137 66 114 132 149 169 133 137 139 146 108 164 69 156 165 140 139 236 192 219 239 169 239 222 176 246 205 212 244 206 221 224 182 233 209 196 196 185 201 134 197 113 160 154 138 164 105 160 55 99 123 68 128 93 126 79 129 68 67 117 91 97 88 152 97 169 85 108 112 99 166 125 164 163 193 184 183 189 201 188 209 196 210 191 191 140 187 174 148 148 138 137 130 119 142 117 128 127 135 123 143 112 128 120 109 142 111 107 125 87 107 118 90 110 97 78 86 110 111 103 70 106 95 87 101 94 102 111 97 94 118 111 54 94 77 96 61 120 116 99 99 99 105 75 94 113 22 65 80 37 43 41 52 101 91 62 126 130 148 146 109 150 178 180 187 165 176 163 146 118 179 147 173 170 102 155 231 191 222 226 138 235 210 182 235 185 215 209 193 220 158 172 193 153 194 134 143 164 147 154 149 74 117 112 141 93 142 68 98 116 92 120 58 133 105 124 42 98 65 65 123 93 164 129 184 159 145 177 163 193 178 128 168 190 172 165 165 173 153 180 165 172 163 160 130 148 137 112 116 101 71 70 40 99 0 70 34 50 6 46 57 67 78 79 50 65 26 42 76 71 48 60 46 11 66 57 51 40 45 59 47 45 83 59 49 46 42 67 55 63 56 41 17 31 63 60 71 57 63 30 59 31 19 54 32 63 25 28 5 47 14 81 84 70 87 119 90 145 143 109 149 162 150 179 154 172 138 128 124 173 76 146 99 142 144 205 169 183 185 176 221 140 180 209 152 159 154 159 199 129 177 148 147 175 108 156 140 123 158 115 112 135 72 131 79 100 114 104 98 36 137 99 136 122 119 126 84 128 103 139 123 179 160 189 185 149 180 170 170 163 104 149 155 131 122 58 103 111 109 76 73 62 81 26 86 64 90 54 84 62 60 35 64 46 13 50 26 39 58 37 23 48 56 41 55 65 56 74 68 31 57 45 65 51 56 69 41 39 21 4 38 57 48 29 53 15 22 49 50 57 39 18 32 46 22 39 34 67 42 59 11 41 48 54 17 55 54 42 44 51 64 79 60 103 100 105 132 104 142 125 148 131 166 136 167 129 157 150 134 128 80 122 146 126 183 112 182 177 154 210 149 164 201 133 199 185 168 200 162 150 191 153 172 161 99 175 147 172 168 150 165 141 156 141 137 155 125 130 119 136 120 141 143 137 137 96 139 79 126 121 171 148 167 144 166 119 104 98 103 87 55 96 71 53 50 72 57 38 61 53 9 42 58 54 44 38 59 19 16 52 48 29 27 22 35 27 20 56 29 38 2 11 35 28 54 50 74 49 13 33 32 6 61 59 52 30 1 5 8 0 28 55 42 42 19 8 29 17 28 48 23 25 50 13 42 44 63 62 57 11 10 16 28 35 70 45 54 24 20 28 54 69 90 81 96 96 103 116 136 126 90 155 134 151 113 148 116 106 104 64 120 91 126 161 112 174 139 137 187 128 159 189 107 188 188 137 201 169 165 200 150 176 182 95 185 148 164 173 109 160 134 149 135 146 146 137 132 114 114 89 114 117 112 108 94 115 65 93 33 145 92 128 107 118 100 108 93 59 27 34 64 46 69 31 52 9 50 7 7 0 44 10 17 24 19 31 33 44 17 38 38 39 16 19 46 24 10 15 27 4 1 0 35 19 12 32 25 11 15 16 26 32 13 26 19 11 20 15 2 2 25 2 25 7 15 31 6 24 9 35 7 45 13 24 40 22 21 20 16 21 4 7 11 46 10 31 8 4 10 48 48 67 58 56 95 105 107 106 76 58 128 34 98 84 108 102 88 84 56 29 82 78 120 44 134 104 102 157 110 117 155 98 149 154 81 174 138 120 172 138 168 159 121 171 135 143 138 63 124 68 109 60 108 79 97 103 74 102 44 95 57 67 48 38 68 34 88 85 132 82 126 48 73 42 57 56 40 37 68 46 41 58 24 33 0 33 24 14 26 21 29 12 8 16 6 0 2 36 24 20 9 22 17 24 18 21 7 18 13 9 4 21 6 14 17 7 1 2 6 29 16 16 2 17 6 13 7 5 25 5 7 19 21 14 15 18 28 30 29 3 21 11 23 27 12 8 1 19 25 12 18 9 39 16 20 1 7 0 32 16 35 56 31 89 68 71 60 71 57 72 22 52 36 50 64 51 53 26 70 18 70 83 44 100 15 15 146 78 97 115 70 117 87 73 128 72 109 119 106 144 38 56 131 96 114 44 89 49 54 69 4 50 57 42 49 40 79 3 79 38 67 41 53 59 52 74 84 128 93 118 58 74 76 29 7 22 67 45 64 18 49 32 19 26 34 28 25 25 30 18 12 4 14 27 26 9 16 12 10 15 7 3 13 10 23 24 6 27 27 10 7 16 23 30 2 3 6 15 20 0 6 1 9 0 11 18 10 14 6 5 10 18 7 16 19 23 17 6 5 2 20 16 6 21 30 10 9 12 12 17 1 25 21 15 4 1 9 12 4 2 35 16 68 37 30 31 0 41 25 53 23 19 41 14 42 7 43 38 3 51 59 6 88 51 33 137 48 80 84 59 78 64 51 101 46 102 92 69 107 82 21 66 64 86 71 46 59 52 53 12 27 24 27 30 15 52 11 49 10 31 49 35 46 10 41 72 105 51 100 35 65 71 23 30 60 31 55 63 31 10 23 20 8 16 6 37 24 25 12 19 21 0 41 20 4 7 3 12 11 1 4 6 12 4 39 7 17 29 6 8 8 1 5 9 14 17 6 21 3 19 3 11 0 10 12 11 1 12 1 2 3 4 23 11 30 23 3 4 17 26 14 15 2 33 16 7 9 15 16 12 7 5 3 6 7 18 10 10 14 32 31 49 8 0 14 56 30 33 10 14 39 13 66 26 16 9 34 32 38 44 52 81 70 47 125 65 76 81 32 77 42 61 90 81 61 68 64 59 48 112 20 62 81 72 70 22 33 11 15 48 38 49 70 56 42 58 87 55 87 59 78 69 66 80 34 94 43 104 59 56 89 61 46 20 65 73 49 34 41 53 37 50 5 1 35 32 6 36 2 13 22 36 35 19 9 9 23 2 3 26 13 19 15 31 16 19 25 15 2 11 7 0 11 1 2 4 15 3 19 2 6 3 13 18 13 9 11 3 4 3 9 25 16 23 5 6 4 20 14 2 18 2 21 0 8 25 16 5 14 16 14 8 17 20 11 17 12 14 28 32 21 17 15 61 75 65 52 64 28 61 70 96 42 50 38 40 44 37 74 68 72 87 61 97 97 105 59 66 74 59 94 103 107 108 109 116 100 117 117 107 107 124 115 91 85 74 98 98 91 125 100 121 134 120 127 117 117 112 122 114 122 114 115 102 123 96 113 92 100 45 76 15 47 58 76 71 37 51 63 52 43 8 13 34 32 29 30 39 44 39 36 54 38 17 17 27 8 16 46 11 17 28 29 14 1 4 11 19 15 36 23 17 24 6 10 13 15 6 4 4 20 2 11 1 0 10 0 9 21 8 14 22 23 18 17 17 19 2 4 35 5 2 3 0 32 16 3 17 6 4 16 7 15 2 41 16 40 44 43 42 12 47 73 40 48 13 62 49 64 77 97 42 69 81 74 20 66 90 35 104 88 73 83 71 86 97 41 38 66 81 123 88 116 139 105 137 127 107 128 65 137 132 95 109 119 129 131 127 155 137 151 156 141 134 67 121 34 132 95 132 110 110 99 126 90 99 83 112 100 71 44 31 73 1 74 20 35 41 43 14 3 15 26 34 43 11 43 50 16 20 53 30 17 28 20 32 6 45 28 6 35 17 10 23 21 40 34 33 55 27 39 13 25 22 10 12 18 18 11 33 9 2 5 3 21 4 15 36 10 21 42 39 40 22 31 11 7 2 50 32 29 18 17 35 17 23 21 27 16 1 19 3 0 43 7 52 3 31 60 10 57 13 61 24 19 37 71 66 67 62 81 52 67 50 44 66 77 22 98 89 43 64 36 20 86 72 90 46 54 121 28 82 127 29 138 106 90 132 86 121 129 92 113 108 115 112 92 142 130 147 133 116 90 114 75 99 94 79 104 70 93 42 115 67 93 90 87 73 2 51 13 60 55 31 32 4 8 10 32 20 26 33 32 38 2 15 24 10 10 42 14 14 20 3 26 34 17 35 14 28 0 39 37 31 35 13 45 52 13 21 12 19 27 13 3 21 20 11 28 22 13 10 13 16 9 9 35 28 8 36 24 34 0 25 1 2 21 34 26 49 16 26 14 3 14 0 25 28 0 22 9 4 23 22 35 20 24 57 11 38 61 64 48 48 64 67 76 44 33 85 30 21 48 43 58 39 52 47 48 18 48 28 6 80 59 85 58 30 107 41 89 100 21 129 52 13 122 56 110 100 58 101 53 119 55 106 87 61 100 38 95 34 111 28 94 43 41 81 45 103 63 106 77 101 105 62 58 39 7 30 49 1 57 3 57 47 74 55 66 60 58 67 3 15 12 5 43 6 32 12 44 34 9 4 32 2 23 15 5 21 32 17 3 41 29 32 42 35 11 26 25 16 6 1 38 8 12 21 19 1 10 12 25 25 12 38 11 11 33 21 3 25 27 8 8 6 24 7 47 0 19 9 8 2 7 10 27 6 14 8 18 22 11 28 41 14 37 51 29 55 3 30 64 41 69 72 26 26 76 44 28 60 59 53 59 48 71 63 28 70 7 36 69 26 84 74 23 96 35 70 95 39 115 52 67 108 5 88 41 19 80 26 112 52 106 57 58 104 8 107 62 108 80 97 105 10 111 68 109 47 86 54 81 71 27 33 13 54 35 79 21 78 16 56 65 87 57 77 62 72 68 40 23 8 19 54 22 10 16 37 38 28 5 29 10 5 22 1 30 0 9 6 20 31 15 41 43 13 37 31 1 3 21 23 13 5 7 10 16 3 26 34 16 3 43 12 25 41 37 6 27 9 4 7 26 29 28 36 3 2 15 13 9 28 23 14 2 11 23 19 16 17 35 51 23 68 74 26 53 40 45 58 8 60 60 27 19 51 27 71 3 52 33 53 34 82 76 40 46 30 42 62 37 58 13 12 90 38 70 102 33 100 77 49 82 36 87 39 44 72 40 107 49 91 87 62 119 25 112 98 87 110 102 117 85 102 34 95 17 72 21 57 29 30 38 50 85 69 74 49 70 49 37 48 61 12 60 12 51 13 28 36 4 24 34 32 3 6 7 13 20 6 7 5 14 20 17 21 18 1 6 8 9 21 33 35 22 8 21 1 1 30 4 8 22 34 15 24 12 30 30 5 12 24 35 36 22 17 12 9 2 6 11 26 15 29 32 2 0 4 24 12 33 24 9 2 11 34 33 1 34 44 18 44 54 57 21 31 25 14 52 17 44 29 6 36 36 18 72 40 20 19 25 2 70 32 14 55 14 18 45 25 44 46 16 84 34 61 91 44 86 69 12 54 26 90 72 21 83 14 110 30 79 102 39 119 39 110 98 89 84 39 82 45 69 25 72 21 62 28 19 21 10 54 43 74 58 45 13 31 45 20 12 8 3 26 32 12 12 9 26 2 20 4 11 5 9 5 2 3 6 1 10 15 10 34 20 19 14 1 16 14 7 4 9 17 20 10 0 2 16 9 0 18 19 1 9 6 14 21 0 12 10 23 15 9 17 16 5 5 12 16 8 20 24 20 16 5 7 38 18 25 15 13 7 17 23 4 3 37 45 43 12 4 2 30 16 27 50 42 38 40 16 6 51 34 24 59 44 21 10 1 1 60 62 31 67 27 21 28 8 9 33 8 65 38 38 75 47 74 46 43 91 54 74 86 18 87 39 103 71 75 94 13 103 47 98 54 67 58 47 12 40 45 16 42 12 41 28 3 2 5 23 19 17 32 20 12 11 33 4 0 11 9 1 33 26 1 14 5 5 15 4 2 2 10 3 0 2 7 7 7 0 1 28 26 5 24 6 5 2 5 16 15 12 8 3 12 1 1 5 7 0 9 2 11 3 13 18 5 11 2 5 32 13 9 16 0 5 29 18 16 17 16 2 18 13 20 36 15 11 19 11 5 10 22 2 0 25 10 13 28 17 0 15 4 32 38 23 23 21 20 12 44 24 10 41 47 17 27 23 17 50 19 22 69 7 13 19 13 1 11 12 31 39 0 53 18 45 35 39 83 52 33 54 45 73 37 77 52 62 59 14 72 53 62 13 57 49 0 0 3 3 5 10 9 9 18 7 4 5 3 23 11 0 7 1 3 26 10 2 18 22 9 6 15 0 10 1 3 7 1 8 1 2 12 0 3 0 3 2 2 4 4 19 8 26 2 0 6 15 17 9 3 4 5 16 5 12 4 20 15 5 11 7 4 9 7 1 3 5 1 23 3 2 8 1 16 33 0 10 6 9 8 9 16 6 22 0 1 9 12 1 18 24 20 2 8 0 17 20 0 12 19 36 35 1 22 8 25 29 29 31 24 12 25 41 15 30 5 35 55 16 24 65 17 28 21 2 12 3 10 20 26 8 40 9 11 19 29 55 13 16 22 23 43 6 38 7 4 15 11 19 13 12 4 29 3 2 0 10 7 2 6 0 9 0 4 4 6 0 8 14 7 6 4 9 20 13 1 1 4 5 6 4 0 5 3 3 1 3 11 3 4 12 12 1 8 0 9 12 5 2 15 1 23 3 4 14 7 2 0 3 0 9 5 3 12 5 6 3 12 17 2 7 5 2 2 2 16 19 4 2 12 0 3 19 19 10 10 6 0 15 0 4 8 27 16 6 2 9 12 14 4 8 4 21 3 18 1 0 22 14 44 40 24 34 9 18 6 24 6 22 6 4 43 24 0 14 18 29 21 46 48 11 4 3 9 22 10 3 9 22 11 29 3 8 17 19 17 1 4 12 19 15 9 6 8 15 9 9 1 5 1 4 12 4 2 4 14 0 10 5 0 7 5 5 8 10 6 3 16 5 21 10 15 16 7 1 8 10 5 7 4 1 2 15 9 6 1 0 7 16 4 29 4 26 23 30 15 4 11 4 1 4 21 5 17 21 0 0 8 1 6 2 6 2 3 2 14 13 5 2 8 8 3 7 10 20 11 7 1 5 0 7 12 9 4 13 12 3 13 19 4 1 17 13 3 8 11 12 1 1 6 20 38 16 15 11 17 14 5 32 35 29 37 11 27 33 7 36 7 24 22 25 3 13 17 6 10 20 23 38 11 1 2 6 10 11 7 12 7 7 6 1 2 1 6 11 0 1 12 1 9 8 0 2 0 6 9 1 0 12 8 11 7 2 24 16 3 4 7 1 7 8 12 5 20 9 8 0 1 19 15 16 30 4 15 6 14 1 1 2 14 2 21 4 13 13 6 7 17 3 29 7 26 22 17 4 2 15 13 1 0 23 1 5 8 5 2 4 1 1 13 6 0 2 6 12 11 9 6 18 5 5 11 15 10 3 6 2 3 2 3 13 1 26 5 18 1 3 16 0 6 6 8 2 15 15 8 6 15 3 24 44 27 5 1 8 8 8 20 35 27 32 16 5 20 21 35 15 30 23 11 15 21 23 20 39 11 6 45 4 0 13 3 2 2 14 11 23 5 6 8 0 1 0 12 5 9 6 4 3 2 0 5 0 3 6 27 5 28 16 23 12 8 28 16 1 0 5 1 3 4 5 9 21 28 11 33 17 17 11 15 30 4 25 0 4 3 12 6 25 9 14 6 4 21 6 6 14 1 21 1 6 0 9 16 5 16 21 4 9 10 1 4 1 1 6 0 0 0 16 5 2 4 6 7 19 24 6 18 1 5 1 20 28 12 5 3 8 0 8 7 1 25 14 9 12 1 8 5 6 2 9 1 12 23 1 13 28 12 21 31 18 13 19 5 5 2 3 26 17 13 12 5 15 19 13 4 21 14 6 35 1 24 31 30 29 5 40 16 23 8 17 9 5 12 9 22 22 15 6 1 6 2 13 22 15 0 1 3 5 4 11 13 12 17 39 11 30 0 28 16 22 6 13 3 0 6 0 7 0 15 2 37 37 24 38 28 25 5 0 5 5 2 9 3 10 13 6 17 20 8 14 4 18 4 0 15 15 12 0 0 1 5 5 20 14 13 10 19 16 5 15 8 3 8 2 5 4 1 5 3 4 0 6 12 20 3 20 7 15 6 21 24 7 6 1 5 3 10 0 4 5 12 7 4 5 10 0 22 4 7 5 8 26 3 1 35 2 3 22 9 21 16 6 0 4 5 22 13 36 37 1 23 22 16 12 36 17 21 30 10 16 29 8 43 15 30 16 45 21 35 6 17 12 5 27 30 25 13 21 2 1 28 23 25 11 10 2 2 16 11 18 2 16 18 8 32 24 35 18 15 9 6 32 12 23 18 36 13 20 17 47 9 27 18 12 20 4 12 20 6 27 15 16 1 11 16 7 26 1 22 10 26 7 2 8 25 10 0 2 1 13 16 9 0 14 16 9 21 4 26 4 6 10 0 4 3 7 4 0 2 2 7 20 0 3 20 7 22 11 11 16 13 1 4 0 15 3 1 2 15 5 12 9 12 6 15 10 1 0 22 10 21 11 13 24 2 17 8 14 14 9 24 15 12 16 21 20 29 25 13 33 14 27 30 20 5 28 0 6 8 25 19 31 22 13 17 27 36 24 24 24 25 16 29 19 43 4 36 3 1 26 14 17 24 18 8 0 8 8 23 24 4 44 4 39 43 25 34 10 43 1 47 40 23 27 41 46 33 56 5 53 30 38 13 37 33 5 23 32 34 10 16 6 10 19 0 21 4 23 13 15 12 3 3 18 8 11 15 0 14 20 2 8 7 9 3 3 3 8 6 0 7 2 3 11 8 1 0 0 1 18 22 10 1 3 2 8 10 6 21 16 1 15 6 22 9 12 17 0 10 3 16 10 7 10 9 4 8 14 15 19 7 17 16 0 20 24 9 7 7 30 19 27 22 20 26 13 3 19 34 8 24 32 5 29 26 29 19 33 24 20 6 24 32 21 10 14 1 33 4 12 12 0 33 29 35 34 3 0 18 1 6 16 6 19 1 2 31 8 44 0 52 8 33 34 17 29 9 51 20 27 40 21 7 25 39 15 48 24 54 1 44 27 40 49 15 27 34 25 23 5 1 0 22 0 13 11 18 6 3 0 2 0 3 14 10 17 4 9 3 8 13 1 4 4 5 2 5 11 12 14 7 6 10 8 1 2 0 1 7 8 21 8 11 2 7 9 12 25 7 9 8 4 13 1 18 18 15 4 5 11 17 8 0 5 13 8 2 13 8 0 10 24 1 3 12 4 4 2 22 15 39 1 26 8 12 10 19 41 38 27 28 25 36 3 48 56 71 36 32 23 34 37 32 25 31 4 15 42 5 49 33 24 14 29 24 0 4 3 4 16 19 1 17 0 10 22 17 48 13 43 20 13 7 8 30 11 35 11 2 15 9 8 17 25 40 19 4 33 13 25 13 19 29 8 21 18 15 14 9 6 6 11 7 13 3 0 3 5 15 2 8 2 21 11 27 2 15 2 18 15 8 2 18 0 14 20 6 30 27 1 9 15 11 1 6 3 5 5 20 8 2 17 3 8 15 13 4 0 19 12 6 4 8 3 13 12 7 2 22 5 13 7 4 4 14 13 4 14 6 2 15 3 11 11 11 21 16 9 13 16 33 40 10 21 0 3 35 48 22 33 11 9 32 45 50 68 66 46 30 32 47 33 30 57 11 19 39 40 60 32 23 36 17 43 14 0 2 0 19 1 13 21 1 6 8 5 18 21 35 20 15 25 20 34 0 7 4 1 1 1 5 16 25 28 11 6 17 1 5 17 9 3 11 10 11 12 3 13 1 17 21 21 4 23 2 25 6 34 7 17 8 16 22 36 16 14 9 3 9 0 23 16 5 21 26 12 13 8 21 8 27 25 3 7 12 6 4 8 0 8 5 10 2 12 0 9 11 27 35 9 5 4 5 15 13 0 12 19 8 2 9 5 14 4 6 8 15 1 7 0 4 8 31 22 46 22 11 11 6 25 28 9 6 25 36 23 26 41 11 54 44 27 13 25 35 47 23 23 7 44 11 29 62 35 50 58 56 56 46 29 72 53 63 59 23 1 2 21 19 8 34 15 34 30 19 2 22 38 7 10 9 20 32 7 6 4 1 7 6 15 28 66 46 30 6 28 9 27 34 11 32 1 41 30 48 42 58 29 32 19 24 0 31 19 40 14 45 3 25 7 3 12 34 13 14 12 18 0 5 32 19 10 15 21 18 17 24 31 9 36 34 7 3 22 16 9 7 7 19 6 14 1 15 21 0 21 23 26 9 18 30 19 0 28 11 19 6 3 15 9 21 6 2 5 19 8 6 9 14 4 27 36 25 39 12 20 7 16 18 2 24 23 19 31 13 18 41 22 40 30 46 46 13 14 15 10 21 15 23 32 30 48 44 61 70 48 42 52 14 73 68 53 67 9 5 9 14 18 12 21 22 48 30 0 11 41 46 10 14 8 16 13 5 16 1 11 2 7 21 47 63 63 40 12 41 8 49 38 36 20 41 50 16 50 49 57 51 36 26 18 14 27 19 32 21 39 7 29 1 17 7 20 13 32 21 24 6 1 16 23 1 13 29 10 3 28 8 11 29 29 5 2 22 27 17 19 0 26 8 36 19 13 24 10 20 17 0 2 15 17 33 6 19 15 18 8 0 6 6 26 10 0 1 11 9 2 7 18 18 11 15 20 20 24 12 15 13 31 15 30 18 22 27 32 22 14 5 11 29 11 35 19 7 12 12 27 18 18 15 20 3 16 23 29 13 24 28 13 37 51 36 35 4 19 14 19 38 20 12 1 47 14 32 22 8 55 4 22 5 13 10 19 14 10 16 0 12 10 62 12 40 15 13 26 16 55 43 54 22 48 34 33 45 49 31 30 33 48 2 35 26 26 20 17 21 8 16 17 30 15 18 18 25 20 2 6 0 7 3 1 14 19 20 8 18 1 5 19 29 8 2 4 4 6 12 26 5 6 32 31 14 2 3 26 11 7 7 3 0 22 4 17 6 15 13 4 6 16 13 19 4 4 26 2 9 2 23 11 21 11 6 6 31 23 11 11 23 14 4 6 3 33 22 21 38 12 44 41 46 33 45 6 15 16 35 16 12 2 0 8 4 7 16 0 29 11 3 16 4 5 7 15 45 14 39 49 15 10 2 44 7 32 4 14 45 5 27 4 0 5 8 6 7 6 3 21 3 48 20 19 21 21 40 37 70 74 67 35 48 21 43 28 49 0 5 25 30 16 48 20 1 8 17 2 8 9 30 28 25 17 7 10 7 6 12 1 17 17 6 1 10 14 12 4 1 12 27 9 12 1 1 14 1 6 18 9 7 5 34 13 2 5 32 5 8 14 8 11 13 6 26 4 11 17 19 7 28 13 17 11 5 33 8 22 11 24 12 34 11 33 1 47 29 6 14 18 51 12 17 10 27 2 27 54 27 44 23 43 43 25 30 24 27 25 12 7 18 9 0 2 13 29 2 31 5 8 16 16 18 21 17 32 8 37 31 4 5 2 41 0 11 12 13 21 8 19 12 16 3 2 4 5 6 16 4 11 30 10 43 43 21 29 36 59 74 69 58 10 39 40 6 32 27 2 39 21 15 48 31 8 2 10 16 17 14 28 10 31 21 13 5 19 24 23 13 16 18 12 0 14 17 16 8 6 21 20 12 14 5 22 17 2 33 21 17 13 2 32 11 4 31 22 2 11 12 7 15 10 5 40 15 7 27 28 10 28 12 12 10 11 28 29 27 1 8 4 26 19 11 14 47 7 32 21 12 54 28 1 2 40 13 13 30 25 30 12 4 6 15 48 15 45 12 28 25 18 8 1 11 14 23 6 18 6 1 28 17 11 26 15 4 5 4 2 4 25 13 35 5 4 0 14 16 1 9 8 13 5 6 14 10 15 22 4 7 13 32 47 61 20 28 44 46 72 72 60 59 35 47 36 40 36 41 36 42 4 37 35 1 2 14 37 2 0 29 1 25 13 23 19 25 12 12 17 8 34 13 3 14 12 29 17 18 1 14 17 2 5 33 29 10 20 4 17 28 1 10 30 6 29 14 15 36 3 2 8 5 13 27 23 2 25 13 19 7 18 5 17 17 34 32 28 31 2 0 20 67 24 4 13 31 25 61 36 44 2 26 10 23 4 21 43 12 19 25 2 23 37 55 16 51 24 23 37 4 12 0 19 16 7 9 9 11 4 22 18 4 5 25 13 7 15 6 8 33 26 23 15 18 13 15 5 11 1 1 6 16 11 28 9 10 7 16 0 14 17 18 39 16 4 38 5 48 58 34 70 17 24 47 18 34 57 31 44 15 24 43 19 15 24 56 42 13 28 5 17 0 13 39 41 2 2 12 12 41 11 17 20 16 15 3 26 17 13 8 1 40 7 28 8 32 16 5 43 18 5 31 24 16 23 41 45 1 2 8 29 10 8 15 0 16 0 31 25 38 20 21 10 17 17 39 48 0 20 52 69 40 34 35 15 28 59 44 43 17 30 14 7 42 14 46 32 5 28 19 8 35 47 15 44 20 17 52 5 18 0 15 6 6 12 5 5 1 22 15 18 10 14 31 31 14 0 14 20 22 21 11 20 14 18 16 28 7 10 7 11 3 29 10 9 0 15 7 10 4 28 13 14 2 41 57 42 21 60 54 13 46 60 50 45 43 51 27 21 22 26 20 22 0 38 35 4 27 9 15 14 7 37 43 4 3 9 29 17 8 25 16 28 11 13 28 6 21 0 1 53 18 16 10 36 26 4 33 16 8 32 7 37 18 48 34 9 3 12 39 7 21 11 0 19 0 40 15 35 22 11 27 7 24 3 39 2 15 40 41 44 33 24 7 49 12 23 31 21 19 10 7 35 38 4 4 24 35 3 40 22 20 24 24 11 40 51 3 19 0 6 5 0 20 18 15 1 17 13 29 11 26 27 19 14 1 6 27 12 1 0 11 12 13 16 22 28 3 8 13 20 21 9 9 0 5 6 4 6 21 18 7 6 28 48 37 30 50 14 25 14 34 63 6 22 45 26 8 29 4 1 0 27 10 8 9 24 0 18 22 9 13 23 18 11 3 16 17 18 22 2 35 22 13 22 13 26 0 10 49 5 9 6 32 19 6 9 14 12 15 31 11 19 46 16 25 9 22 35 10 10 21 7 18 10 40 7 20 19 34 19 8 9 37 5 5 8 35 8 42 30 10 21 48 16 20 16 56 38 45 43 30 50 38 7 21 19 38 1 20 2 28 0 14 52 29 2 6 4 21 16 10 12 6 15 0 11 16 25 2 15 23 1 5 3 24 42 36 19 6 8 13 11 0 8 37 19 4 26 3 19 37 20 2 18 26 6 30 38 13 15 25 36 7 19 16 51 7 26 34 19 43 31 42 28 30 27 16 11 5 15 29 17 7 26 29 20 20 11 30 5 14 10 26 11 2 35 25 15 12 37 22 23 21 23 21 10 8 24 7 15 12 36 6 0 15 7 26 13 31 8 6 36 4 9 11 11 26 20 18 36 9 9 22 23 10 25 13 32 8 13 30 28 2 3 30 43 19 41 24 30 41 39 26 44 47 51 54 56 54 15 25 19 27 2 6 41 14 43 33 34 11 21 47 3 7 0 0 20 8 14 3 30 5 17 12 6 8 3 29 47 7 1 22 29 50 47 7 18 33 20 5 13 13 26 15 10 3 18 30 45 10 15 33 32 8 35 39 13 7 38 32 11 23 5 31 8 38 40 27 43 4 19 24 17 12 4 24 6 23 13 21 13 28 36 8 23 17 50 0 12 16 20 13 10 34 3 15 31 18 14 25 14 30 25 31 7 12 22 20 26 31 2 1 26 14 26 10 0 5 2 8 39 6 19 5 26 11 37 37 3 9 14 6 9 38 5 31 3 16 46 10 14 31 33 24 28 24 7 8 52 16 21 27 48 42 37 58 33 5 13 39 42 33 43 35 38 14 27 14 27 37 52 27 34 2 10 3 23 7 13 15 12 16 1 5 10 22 26 52 5 0 16 18 45 53 20 39 27 35 0 16 15 0 29 18 17 19 12 23 4 19 12 32 8 9 16 15 10 29 8 5 15 5 1 14 37 18 24 47 14 6 12 7 27 1 16 23 15 12 14 10 15 29 5 2 35 47 11 9 24 0 6 6 14 15 25 38 3 20 9 26 27 9 36 23 10 22 21 26 38 16 6 10 26 13 13 6 11 14 24 43 37 17 5 41 18 33 41 9 2 17 16 7 37 47 26 5 31 35 0 12 54 1 28 25 56 31 37 61 3 30 45 19 37 4 45 36 30 31 48 24 56 43 52 35 59 38 19 4 1 25 42 48 21 21 31 25 7 14 5 32 9 20 10 10 9 44 60 32 38 2 4 21 45 4 29 18 45 16 1 34 18 21 33 1 35 27 18 3 8 2 40 25 6 31 12 24 0 29 26 15 40 0 27 11 8 9 47 29 17 31 11 30 7 4 34 29 9 10 6 21 27 6 18 42 22 20 5 37 11 1 20 20 17 29 38 3 36 32 3 11 23 40 11 37 24 7 10 34 43 23 24 19 20 30 5 38 9 34 18 58 27 1 47 7 16 35 45 9 26 26 1 56 53 45 24 22 15 24 35 40 20 1 47 73 18 31 77 30 43 70 34 19 45 42 65 30 79 59 31 53 44 27 33 71 45 2 34 54 35 47 54 37 18 56 39 18 31 27 31 3 4 6 16 20 63 52 48 60 17 29 20 34 21 13 6 49 18 27 39 8 12 39 9 29 46 41 17 7 15 41 12 44 61 9 18 44 46 21 27 52 6 29 6 42 3 32 54 7 47 36 6 3 13 27 28 51 27 2 14 21 38 13 21 47 9 21 51 46 12 37 57 2 45 41 14 37 45 21 6 42 50 17 31 22 42 30 17 51 15 39 51 25 10 43 40 4 33 17 72 50 41 51 10 33 39 59 31 21 21 3 58 4 48 34 44 33 37 63 20 41 55 69 49 50 56 90 32 55 67 60 40 46 53 65 28 77 55 21 62 35 41 17 73 50 58 22 63 41 33 39 46 7 39 60 20 4 40 19 33 28 25 12 52 52 31 13 55 18 40 41 23 55 24 4 41 26 33 3 13 0 37 1 31 29 61 32 29 0 27 6 55 62 48 4 43 43 10 32 31 31 40 41 64 3 1 50 24 36 48 18 21 5 52 11 52 60 28 32 59 49 12 54 32 31 16 42 58 24 30 66 22 70 42 9 18 54 47 6 51 48 46 45 64 59 51 21 64 16 39 61 31 21 69 32 26 26 12 76 25 66 45 19 51 67 62 51 11 8 27 43 37 43 37 29 20 35 71 33 50 63 81 42 66 59 81 50 53 59 75 2 61 44 62 35 30 59 44 72 44 11 56 81 66 69 62 64 25 44 73 36 32 26 57 32 33 30 15 32 14 20 35 58 60 1 31 37 52 37 52 59 68 19 5 27 0 27 35 19 26 8 33 35 9 69 9 31 44 26 27 9 70 32 31 3 28 47 38 46 5 41 61 67 16 53 20 32 8 61 26 35 51 40 24 56 76 35 27 57 65 54 60 5 24 53 38 72 14 47 63 21 76 64 24 41 60 65 33 41 60 52 67 63 74 42 13 76 45 55 56 47 22 64 51 50 31 52 64 68 75 46 26 68 70 29 47 6 38 1 75 55 52 58 47 1 36 70 69 29 67 50 66 58 37 63 67 47 71 85 44 40 14 69 40 24 32 42 77 44 73 62 61 22 49 82 36 46 58 66 30 34 10 45 35 46 9 2 29 1 32 26 38 63 44 33 27 48 3 57 66 45 8 34 46 25 27 28 4 37 50 21 29 36 63 34 3 43 52 39 59 47 7 44 39 22 46 54 59 4 35 44 58 28 55 21 32 61 69 54 33 58 36 37 57 75 28 25 42 58 48 56 27 6 71 68 63 50 60 70 25 58 58 43 49 61 60 20 63 59 42 71 52 78 50 31 70 40 17 69 65 50 6 47 55 41 69 32 68 51 39 65 26 9 55 11 21 66 51 65 13 63 70 48 37 34 58 39 46 50 36 69 46 66 67 69 58 85 72 14 12 39 73 54 33 57 6 74 20 66 57 50 33 10 64 69 35 26 11 22 21 16 27 37 49 23 34 13 20 29 25 15 49 39 23 0 35 36 34 48 15 32 45 51 36 11 24 11 35 55 30 15 32 34 2 8 16 55 30 59 27 21 41 25 6 41 17 60 6 39 27 37 43 6 44 36 51 46 31 48 45 52 25 0 53 7 28 27 37 42 28 17 16 72 37 43 42 24 69 24 19 46 49 43 46 47 24 63 75 38 63 17 77 47 43 46 49 13 35 35 63 39 32 36 15 31 40 52 20 50 75 49 61 64 34 18 68 34 34 29 35 53 50 41 52 67 48 48 19 47 51 55 60 48 46 35 49 65 42 43 34 62 51 44 65 20 55 29 50 37 23 31 40 42 64 48 4 16 26 24 30 19 17 39 18 21 22 41 30 25 15 38 13 22 26 18 26 40 29 25 46 47 47 36 1 26 5 33 27 46 5 6 18 24 28 17 46 7 29 25 30 33 27 13 43 33 67 20 47 30 29 33 26 21 4 12 32 7 55 7 25 17 24 31 10 30 13 33 43 25 13 20 54 31 17 36 41 49 20 12 41 33 6 18 49 29 18 68 52 20 33 52 32 30 33 31 18 25 31 43 26 44 20 36 28 44 14 2 27 48 42 40 36 16 27 55 12 32 31 31 29 35 33 54 44 32 46 44 7 45 46 20 7 41 9 33 37 19 44 32 42 32 39 6 13 30 55 67 30 33 5 28 57 53 33 5 20 22 25 28 28 22 21 17 5 28 41 5 9 1 16 21 30 25 30 9 48 21 22 38 32 11 15 14 22 3 31 18 36 3 1 20 31 13 32 39 26 20 23 21 46 64 28 35 59 82 15 62 42 44 47 37 37 3 7 32 4 41 15 10 39 1 18 13 25 7 20 23 15 35 5 31 38 16 10 38 13 13 7 21 8 6 23 32 36 5 32 29 7 18 2 30 2 0 10 25 48 24 17 20 3 25 36 29 50 23 6 32 27 17 25 15 9 22 27 7 18 26 25 37 0 23 22 4 21 25 45 38 50 39 59 48 64 53 59 37 42 54 30 17 49 66 58 25 40 41 53 39 1 46 2 55 34 17 15 41 36 9 30 5 43 18 9 15 21 29 38 2 24 23 13 18 27 11 42 41 23 9 30 10 13 16 11 27 10 14 3 17 4 11 34 16 15 1 22 45 9 36 63 69 80 35 38 41 89 36 63 2 49 55 43 59 26 27 38 27 13 18 27 29 28 16 22 5 12 18 25 45 38 28 49 14 38 19 30 31 28 2 1 16 14 29 21 37 46 44 23 0 27 14 18 10 31 18 20 42 34 17 19 35 26 7 39 49 2 10 36 31 21 29 22 14 15 17 2 13 16 17 27 50 43 31 34 40 34 29 45 27 45 59 62 56 60 56 60 40 56 29 23 45 54 52 35 40 36 35 21 5 54 20 51 31 3 8 37 22 16 23 5 32 11 4 6 9 40 46 8 27 7 17 3 20 6 42 28 34 16 28 13 3 14 17 26 12 13 38 42 21 34 30 1 10 31 9 40 24 7 73 51 66 55 33 27 78 30 48 12 37 53 30 39 44 41 46 47 28 19 38 40 36 22 25 0 8 43 33 45 40 26 59 28 24 25 27 29 25 11 1 16 28 36 14 22 59 48 17 8 19 28 3 14 39 20 34 5 44 37 5 35 45 29 58 41 8 12 22 8 23 17 22 17 1 23 30 37 29 2 5 51 28 39 45 17 24 6 35 13 37 41 44 7 17 21 43 29 29 46 12 9 20 35 17 11 35 10 31 17 33 1 30 39 9 18 16 11 28 1 9 9 0 7 11 11 40 18 20 13 12 13 4 1 9 25 6 24 4 16 19 14 5 18 16 1 15 38 37 12 20 0 1 23 16 7 41 0 34 43 4 42 30 20 20 48 28 22 22 20 33 21 11 14 31 31 20 22 2 14 26 17 12 18 5 19 34 7 11 21 0 37 25 0 7 10 15 20 15 2 5 26 21 7 5 33 24 7 3 3 38 15 23 24 16 19 27 10 14 15 0 43 23 45 29 14 18 24 8 3 10 26 3 7 22 32 28 17 4 10 14 1 27 26 11 20 16 26 8 20 7 5 10 6 22 27 10 17 33 13 21 8 21 14 11 34 31 52 14 4 15 6 29 14 12 0 17 10 12 11 2 0 20 6 5 22 0 8 0 4 5 1 5 7 6 16 19 8 10 18 6 7 9 9 1 2 16 11 1 9 7 6 27 6 4 37 4 17 8 0 19 7 8 21 22 16 8 26 18 5 14 39 0 17 18 0 6 0 0 1 15 13 1 3 9 18 2 5 14 12 4 14 9 1 6 17 9 11 5 8 4 9 11 10 17 2 3 19 10 28 13 0 3 0 0 15 10 2 10 18 27 1 4 15 14 3 20 24 12 1 9 5 9 17 9 19 9 5 16 13 11 18 9 10 24 10 13 16 11 9 30 24 10 24 55 17 2 24 12 20 30 10 20 15 36 12 54 18 28 2 14 6 11 2 6 30 1 11 6 0 4 13 2 11 2 18 14 0 5 5 0 2 10 3 13 19 3 14 17 12 12 9 11 9 23 3 2 6 16 12 19 21 1 9 18 0 4 0 11 5 5 8 1 14 10 2 22 11 19 5 41 0 0 12 7 14 7 4 5 9 16 13 10 0 18 4 10 18 7 0 11 12 8 8 6 2 10 20 4 5 15 19 9 4 19 1 28 3 9 17 31 4 10 17 16 22 12 16 8 1 30 6 20 7 9 11 39 2 11 1 40 3 37 30 23 18 23 15 36 16 11 1 14 16 0 19 27 31 24 27 41 18 10 56 23 27 22 33 24 23 26 9 26 28 13 35 4 19 17 27 4 1 2 7 29 7 14 11 8 19 14 6 24 2 23 25 2 7 19 0 3 6 10 35 11 7 2 34 5 30 20 13 0 27 21 3 3 15 20 22 11 18 19 4 5 12 5 24 0 0 22 3 11 8 0 21 14 24 2 26 5 8 4 15 0 18 5 21 5 9 14 11 12 25 10 18 3 15 6 4 6 17 12 22 1 9 22 11 11 24 31 16 6 29 4 19 19 25 38 45 13 17 22 35 41 10 18 21 3 34 3 29 17 25 10 32 1 19 6 54 20 47 34 30 11 19 23 39 22 3 5 15 1 13 36 18 33 11 15 38 23 39 51 16 24 15 31 31 9 33 15 35 24 8 2 1 15 9 26 26 3 4 2 12 6 4 20 17 11 15 11 13 6 27 11 0 13 13 0 0 13 8 35 7 7 14 23 15 12 31 10 18 6 18 2 5 15 2 7 2 24 14 0 3 4 3 23 20 12 22 2 20 8 11 23 8 29 30 11 4 4 14 1 12 13 5 17 16 16 0 6 4 17 8 21 0 14 9 6 1 14 17 14 19 3 8 2 4 26 31 19 13 11 1 3 8 22 33 22 8 7 10 20 42 6 8 13 7 19 20 23 3 19 19 18 8 15 1 45 5 45 34 36 6 6 21 27 14 0 12 17 4 1 48 0 4 18 17 22 15 35 9 15 26 3 4 11 5 6 2 38 0 2 19 22 27 26 5 42 13 0 19 6 1 7 22 17 4 7 2 2 3 15 9 1 14 0 2 1 8 9 25 5 8 13 3 1 3 30 0 19 24 16 6 6 7 6 0 17 7 1 0 8 2 2 10 27 14 27 2 22 9 18 18 11 14 20 12 0 5 6 0 8 10 4 0 0 1 6 0 1 3 5 19 4 11 6 4 9 9 8 13 9 6 8 6 4 7 28 10 23 13 8 4 5 10 16 1 3 12 17 8 32 17 9 3 8 18 18 4 4 2 5 5 10 5 5 18 2 40 22 19 5 0 5 26 13 0 4 13 13 33 50 7 17 3 10 5 19 13 20 26 2 10 9 13 26 26 37 18 10 21 10 33 37 9 2 47 20 0 19 17 7 2 6 20 0 3 2 6 9 7 5 2 9 5 3 12 2 10 17 2 10 10 23 16 5 29 0 23 10 11 9 1 0 1 13 27 1 0 2 6 1 0 10 24 13 21 3 18 5 17 7 10 11 9 7 0 1 7 7 5 18 12 9 9 4 16 8 4 3 1 19 10 25 30 17 18 9 11 22 0 6 18 20 6 3 28 1 23 7 22 3 4 20 33 2 17 24 10 3 22 20 17 11 19 4 23 6 15 10 0 11 0 0 1 4 3 40 18 14 7 8 10 12 17 5 14 14 22 27 23 13 22 6 15 25 10 2 10 19 16 9 8 1 18 5 42 11 0 17 12 12 43 10 9 37 14 3 1 6 1 0 3 20 0 0 2 9 5 5 10 0 9 3 5 10 2 7 12 2 8 13 21 11 13 25 8 15 0 1 7 3 1 3 12 23 2 2 4 1 3 0 5 18 7 9 18 12 2 4 1 13 15 8 3 0 0 1 19 4 12 11 8 7 14 18 1 8 5 1 15 6 25 33 12 25 4 19 21 0 12 20 19 6 0 20 7 22 6 22 1 3 10 13 10 14 17 1 22 16 16 7 5 3 25 17 12 13 13 2 13 5 1 4 3 6 37 21 19 6 14 15 17 16 15 14 11 21 5 7 4 9 0 14 18 5 2 4 1 11 5 7 0 0 24 20 13 6 0 6 2 29 9 14 16 13 2 0 1 2 0 0 11 1 2 4 2 1 1 4 1 8 0 1 1 1 3 3 0 3 4 3 0 5 5 7 5 0 0 1 5 3 3 6 3 4 3 1 0 3 2 0 6 4 3 15 5 2 2 3 8 7 3 4 1 0 4 10 0 3 5 1 4 9 5 3 5 2 1 10 0 4 11 2 10 13 4 10 0 7 1 5 0 3 13 2 12 13 5 1 1 0 3 1 1 7 8 5 18 3 4 0 0 20 9 5 2 6 1 8 4 2 0 3 2 21 0 5 8 6 3 7 2 9 1 0 7 3 9 2 6 2 3 12 4 0 4 0 2 2 6 0 0 19 27 15 10 6 0 1 14 13 2 8 8 2 0 1 0 0 0 2 2 0 5 3 2 0 3 2 6 1 0 1 4 2 0 0 0 0 2 1 1 0 3 0 2 1 0 1 5 0 8 0 1 2 0 2 2 2 0 0 4 0 8 2 1 2 2 2 3 0 4 1 0 3 0 2 0 3 0 0 3 0 2 2 4 2 9 1 4 9 2 1 7 0 1 0 1 0 2 2 4 6 2 5 7 1 0 1 2 3 0 4 0 1 8 9 0 4 0 3 3 0 0 4 3 0 4 0 4 1 1 0 9 0 1 3 3 0 3 1 3 0 5 1 3 4 1 2 2 3 3 1 0 2 1 2 6 1 0 0 5 12 5 7 4 6 4 9 6 0 2 1 2 1 0 0 1 0 0 0 0 2 3 1 0 3 0 1 1 0 1 0 1 0 0 0 0 2 0 1 3 0 0 1 0 0 0 0 1 3 0 0 0 1 0 0 1 0 0 0 0 1 0 0 0 1 0 1 0 2 1 1 0 0 0 0 0 1 0 2 2 0 0 4 0 3 0 4 7 1 3 2 0 0 1 0 0 1 0 0 2 1 2 4 1 1 0 2 3 0 4 0 0 2 0 1 1 1 2 1 1 0 4 0 2 4 0 1 1 2 0 0 0 0 3 0 0 1 1 2 0 2 1 1 1 0 0 0 1 0 0 0 0 0 0 4 0 2 0 0 0 0 5 1 4 2 4 1 2 1 0 1 0 0 0 0 0 0 0 0 0 0 0 0 0 0 0 0 0 0 0 0 0 0 0 0 0 0 0 3 0 0 0 0 0 0 0 0 0 1 0 0 0 0 0 0 0 0 0 0 0 0 0 0 1 1 0 0 0 0 0 0 0 0 1 1 0 0 0 0 0 0 1 0 0 0 0 1 0 0 0 0 0 1 0 0 0 0 0 1 0 0 0 0 1 0 1 1 0 0 0 0 0 0 0 0 0 0 0 1 0 1 0 1 0 0 0 0 0 0 0 1 0 1 1 0 1 0 1 0 0 0 0 0 0 0 0 0 0 0 0 0 0 0 2 0 1 0 0 0 0 0 2 2 0 1 0 1 0 0 1 0 0 0 1 0 0 0 0 0 0 0 0 0 0 0 0 0 0 0 0 0 0 0 0 0 0 0 1 0 0 0 0 0 0 0 0 0 0 0 0 0 0 0 0 0 0 0 0 0 0 0 0 1 0 0 0 0 0 1 0 0 0 1 1 0 0 0 0 0 0 0 0 2 1 0 0 0 0 0 0 0 0 1 1 0 1 0 0 0 0 0 0 0 0 0 0 1 0 0 0 0 0 0 0 0 0 0 1 0 0 0 0 0 0 0 0 0 0 0 1 0 0 1 0 1 1 0 0 0 0 0 0 0 0 1 0 0 0 0 0 0 0 0 0 0 0 0 1 0 0 2 0 0 0 0 0 0 0 1 0 0 0 0 0 0 0 0 0 0 0 0 0 0 0 0 0 0 0 0 0 0 0 0 0 1 0 0 0 0 0 0 0 0 0 0 0 0 0 0 0 0 0 0 0 0 0 0 0 0 0 0 0 0 0 0 0 0 0 0 0 0 0 0 0 0 0 0 0 0 0 0 1 0 0 0 0 0 0 0 0 0 1 1 0 0 0 0 0 0 0 0 0 0 0 0 0 0 0 0 0 0 0 0 0 0 0 1 0 0 0 0 0 0 0 0 0 0 0 0 0 0 0 0 1 0 0 0 0 0 0 0 0 0 0 0 0 0 0 0 0 0 0 0 0 0 0 0 0 0 0 0 0 0 0 0 0 0 1 0 0 0 0 0 0 0 0 0 0 0 0 0 0 0 0 0 0 0 0 0 0 0 0 0 0 0 0 0 0 0 0 0 0 0 0 0 0 0 0 0 0 0 0 0 0 0 0 0 0 0 0 0 0 0 0 0 0 0 0 0 0 0 0 0 0 0 0 0 0 0 0 0 0 0 0 0 0 0 0 0 0 0 1 0 0 0 0 0 0 0 0 0 0 0 0 0 0 0 0 0 0 0 0 0 0 0 0 0 0 0 0 0 0 0 0 0 0 0 0 0 0 0 0 0 0 0 0 0 0 0 0 0 0 0 0 0 0 0 0 0 0 0 0 0 0 0 0 0 0 0 0 0 0 0 0 0 0 1 0 0 0 0 0 0 0 0 0 0 0 0 0 0 0 0 0 0 0 0 0 0 0 0 0 0 0 0 0 0 0 0 0 0 0 0 0 0 0 0 0 0 0 0 0 0 0 0 0 0 0 0 0 0 0 0 0 0 0 0 0 0 0 0 0 0 0 0 0 0 0 0 0 0 0 0 0 0 0 0 0 0 0 0 0 0 0 0 0 0 0 0 0 0 0 0 0 0 0 0 0 0 0 0 0 0 0 0 0 0 0 0 0 0 0 0 0 0 0 0 0 0 0 0 0 0 0 0 0 0 0 0 0 0 0 0 0 0 0 0 0 0 0 0 0 0 0 1 0 0 0 0 0 0 0 0 0 0 1 0 0 0 0 0 0 0 0 0 0 0 0 0 0 0 0 0 0 0 0 0 0 0 0 0 0 0 0 0 0 0 0 0 0 0 0 0 0 0 0 0 0 0 0 0 0 0 0 0 0 0 0 0 0 0 0 0 0 0 0 0 0 0 0 0 0 0 0 0 0 0 0 0 0 0 0 0 0 0 0 0 0 0 0 0 0 0 0 0 0 0 0 0 0 0 0 0 0 0 0 0 0 0 0 0 0 0 0 0 0 0 0 0 0 0 0 0 0 0 0 0 0 0 0 0 0 0 0 0 0 0 0 0 0 0 0 0 0 0 0 0 0 0 0 0 0 1 1 0 0 0 0 0 0 0 0 0 0 0 0 0 0 0 0 0 0 0 0 0 0 0 0 0 0 0 0 0 0 0 0 0 0 0 0 0 0 0 0 0 0 0 0 0 0 0 0 0 0 0 0 0 0 0 0 0 0 0 0 0 0 0 0 0 0 0 0 0 0 0 0 0 0 0 0 0 0 0 0 0 0 0 0 0 0 0 0 0 0 0 0 0 0 0 0 0 0 0 0 0 0 0 0 0 0 0 0 0 0 0 0 0 0 0 0 0 0 0 0 0 0 0 0 0 0 0 0 0 0 0 0 0 0 0 0 0 0 0 0 0 0 0 0 0 0 0 0 0 0 0 0 0 0 0 0 0 0 2 0 0 0 0 0 0 0 0 0 0 1 0 0 0 0 0 0 0 0 0 0 0 0 0 0 0 0 0 0 0 0 0 0 0 0 0 0 0 0 0 0 0 0 0 0 0 0 0 0 0 0 0 0 0 0 0 0 0 0 0 0 0 0 0 0 0 0 0 0 0 0 0 0 0 0 0 0 0 0 0 0 0 0 0 0 0 0 0 0 0 0 0 0 0 0 0 0 0 0 0 0 0 0 0 0 0 0 0 0 0 0 0 0 0 0 0 0 0 0 0 0 0 0 0 0 0 0 0 0 0 0 0 0 0 0 1 0 0 0 0 0 0 0 0 0 0 0 0 0 0 0 0 0 0 0 0 0 0 0 0 0 0 0 0 0 0 0 0 0 1 0 0 0 0 0 0 0 0 0 0 0 0 0 0 0 0 0 0 0 0 0 0 0 0 0 0 0 0 0 0 0 0 0 0 0 0 0 0 0 0 0 0 0 0 0 0 0 0 0 0 0 0 0 0 0 0 0 0 0 0 0 0 0 0 0 0 0 0 0 0 0 0 0 0 0 0 0 0 0 0 0 0 0 0 0 0 0 0 0 0 0 0 0 0 0 0 0 0 0 0 0 0 0 0 0 0 0 0 0 0 0 0 0 0 0 0 0 0 0 0 0 0 0 0 0 0 0 0 0 0 0 0 0 0 0 0 0 0 0 0 0 0 0 0 0 0 0 0 0 0 0 0 0 0 0 0 0 0 1 0 0 0 0 0 0 0 0 0 0 0 0 0 0 0 0 0 0 0 0 0 0 0 0 0 0 0 0 0 0 0 0 0 0 0 0 0 0 0 0 0 0 0 0 0 0 0 0 0 0 0 0 0 0 0 0 0 0 0 0 0 0 0 0 0 0 0 0 0 0 0 0 0 0 0 0 0 0 0 0 0 0 0 0 0 0 0 0 0 0 0 0 0 0 0 0 0 0 0 0 0 0 0 0 0 0 0 0 0 0 0 0 0 0 0 0 0 0 0 0 0 0 0 0 0 0 0 0 0 0 0 0 0 0 0 0 0 0 0 0 0 0 0 0 0 0 0 0 0 0 0 0 0 0 0 0 0 0 1 0 0 0 0 0 0 0 0 0 0 0 0 0 0 0 0 0 0 0 0 0 0 0 0 0 0 0 0 0 0 0 0 0 0 0 0 0 0 0 0 0 0 0 0 0 0 0 0 0 0 0 0 0 0 0 0 0 0 0 0 0 0 0 0 0 0 0 0 0 0 0 0 0 0 0 0 0 0 0 0 0 0 0 0 0 0 0 0 0 0 0 0 0 0 0 0 0 0 0 0 0 0 0 0 0 0 0 0 0 0 0 0 0 0 0 0 0 0 0 0 0 0 0 0 0 0 0 0 0 0 0 0 0 0 0 0 0 0 0 0 0 0 0 0 0 0 0 0 0 0 0 0 0 0 0 0 0 0 0 0 0 0 0 0 0 0 0 0 0 0 0 0 0 0 0 0 0 0 0 0 0 0 0 0 0 0 0 0 0 0 0 0 0 0 0 0 0 0 0 0 0 0 0 0 0 0 0 0 0 0 0 0 0 0 0 0 0 0 0 0 0 0 0 0 0 0 0 0 0 0 0 0 0 0 0 0 0 0 0 0 0 0 0 0 0 0 0 0 0 0 0 0 0 0 0 0 0 0 0 0 0 0 0 0 0 0 0 0 0 0 0 0 0 0 0 0 0 0 0 0 0 0 0 0 0 0 0 0 0 0 0 0 0 0 0 0 0 0 0 0 0 0 0 0 0 0 0 0 0 0 0 0 0 0 0 0 0 0 0 0 0 0 0 0 0 0 0 0 0 0 0 0 0 0 0 0 0 0 0 0 0 0 0 0 0 0 0 0 0 0 0 0 0 0 0 0 0 0 0 0 0 0 0 0 0 0 0 0 0 0 0 0 0 0 0 0 0 0 0 0 0 0 0 0 0 0 0 0 0 0 0 0 0 0 0 0 0 0 0 0 0 0 0 0 0 0 0 0 0 0 0 0 0 0 0 0 0 0 0 0 0 0 0 0 0 0 0 0 0 0 0 0 0 0 0 0 0 0 0 0 0 0 0 0 0 0 0 0 0 0 0 0 0 0 0 0 0 0 0 0 0 0 0 0 0 0 0 0 0 0 0 0 0 0 0 0 0 0 0 0 0 0 0 0 0 0 0 0 0 0 0 0 0 0 0 0 0 0 0 0 0 0 0 0 0 0 0 0 0 0 0 0 0 0 0 0 0 0 0 0 0 0 0 0 0 0 0 0 0 0 0 0 0 0 0 0 0 0 0 0 0 0 0 0 0 0 0 0 0 0 0 0 0 0 0 0 0 0 0 0 0 0 0 0 0 0 0 0 0 0 0 0 0 0 0 0 0 0 0 0 0 0 0 0 0 0 0 0 0 0 0 0 0 0 0 0 0 0 0 0 0 0 0 0 0 0 0 0 0 0 0 0 0 0 0 0 0 0 0 0 0 0 0 0 0 0 0 0 0 0 0 0 0 0 0 0 0 0 0 0 0 0 0 0 0 0 0 0 0 0 0 0 0 0 0 0 0 0 0 0 0 0 0 0 0 0 0 0 0 0 0 0 0 0 0 0 0 0 0 0 0 0 0 0 0 0 0 0 0 0 0 0 0 0 0 0 0 0 0 0 0 0 0 0 0 0 0 0 0 0 0 0 0 0 0 0 0 0 0 0 0 0 0 0 0 0 0 0 0 0 0 0 0 0 0 0 0 0 0 0 0 0 0 0 0 0 0 0 0 0 0 0 0 0 0 0 0 0 0 0 0 0 0 0 0 0 0 0 0 0 0 0 0 0 0 0 0 0 0 0 0 0 0 0 0 0 0 0 0 0 0 0 0 0 0 0 0 0 0 0 0 0 0 0 0 0 0 0 0 0 0 0 0 0 0 0 0 0 0 0 0 0 0 0 0 0 0 0 0 0 0 0 0 0 0 0 0 0 0 0 0 0 0 0 0 0 0 0 0 0 0 0 0 0 0 0 0 0 0 0 0 0 0 0 0 0 0 0 0 0 0 0 0 0 0 0 0 0 0 0 0 0 0 0 0 0 0 0 0 0 0 0 0 0 0 0 0 0 0 0 0 0 0 0 0 0 0 0 0 0 0 0 0 0 0 0 0 0 0 0 0 0 0 0 0 0 0 0 0 0 0 0 0 0 0 0 0 0 0 0 0 0 0 0 0 0 0 0 0 0 0 0 0 0 0 0 0 0 0 0 0 0 0 0 0 0 0 0 0 0 0 0 0 0 0 0 0 0 0 0 0 0 0 0 0 0 0 0 0 0 0 0 0 0 0 0 0 0 0 0 0 0 0 0 0 0 0 0 0 0 0 0 0 0 0 0 0 0 0 0 0 0 0 0 0 0 0 0 0 0 0 0 0 0 0 0 0 0 0 0 0 0 0 0 0 0 0 0 0 0 0 0 0 0 0 0 0 0 0 0 0 0 0 0 0 0 0 0 0 0 0 0 0 0 0 0 0 0 0 0 0 0 0 0 0 0 0 0 0 0 0 0 0 0 0 0 0 0 0 0 0 0 0 0 0 0 0 0 0 0 0 0 0 0 0 0 0 0 0 0 0 0 0 0 0 0 0 0 0 0 0 0 0 0 0 0 0 0 0 0 0 0 0 0 0 0 0 0 0 0 0 0 0 0 0 0 0 0 0 0 0 0 0 0 0 0 0 0 0 0 0 0 0 0 0 0 0 0 0 0 0 0 0 0 0 0 0 0 0 0 0 0 0 0 0 0 0 0 0 0 0 0 0 0 0 0 0 0 0 0 0 0 0 0 0 0 0 0 0 0 0 0 0 0 0 0 0 0 0 0 0 0 0 0 0 0 0 0 0 0 0 0 0 0 0 0 0 0 0 0 0 0 0 0 0 0 0 0 0 0 0 0 0 0 0 0 0 0 0 0 0 0 0 0 0 0 0 0 0 0 0 0 0 0 0 0 0 0 0 0 0 0 0 0 0 0 0 0 0 0 0 0 0 0 0 0 0 0 0 0 0 0 0 0 0 0 0 0 0 0 0 0 0 0 0 0 0 0 0 0 0 0 0 0 0 0 0 0 0 0 0 0 0 0 0 0 0 0 0 0 0 0 0 0 0 0 0 0 0 0 0 0 0 0 0 0 0 0 0 0 0 0 0 0 0 0 0 0 0 0 0 0 0 0 0 0 0 0 0 0 0 0 0 0 0 0 0 0 0 0 0 0 0 0 0 0 0 0 0 0 0 0 0 0 0 0 0 0 0 0 0 0 0 0 0 0 0 0 0 0 0 0 0 0 0 0 0 0 0 0 0 0 0 0 0 0 0 0 0 0 0 0 0 0 0 0 0 0 0 0 0 0 0 0 0 0 0 0 0 0 0 0 0 0 0 0 0 0 0 0 0 0 0 0 0 0 0 0 0 0 0 0 0 0 0 0 0 0 0 0 0 0 0 0 0 0 0 0 0 0 0 0 0 0 0 0 0 0 0 0 0 0 0 0 0 0 0 0 0 0 0 0 0 0 0 0 0 0 0 0 0 0 0 0 0 0 0 0 0 0 0 0 0 0 0 0 0 0 0 0 0 0 0 0 0 0 0 0 0 0 0 0 0 0 0 0 0 0 0 0 0 0 0 0 0 0 0 0 0 0 0 0 0 0 0 0 0 0 0 0 0 0 0 0 0 0 0 0 0 0 0 0 0 0 0 0 0 0 0 0 0 0 0 0 0 0 0 0 0 0 0 0 0 0 0 0 0 0 0 0 0 0 0 0 0 0 0 0 0 0 0 0 0 0 0 0 0 0 0 0 0 0 0 0 0 0 0 0 0 0 0 0 0 0 0 0 0 0 0 0 0 0 0 0 0 0 0 0 0 0 0 0 0 0 0 0 0 0 0 0 0 0 0 0 0 0 0 0 0 0 0 0 0 0 0 0 0 0 0 0 0 0 0 0 0 0 0 0 0 0 0 0 0 0 0 0 0 0 0 0 0 0 0 0 0 0 0 0 0 0 0 0 0 0 0 0 0 0 0 0 0 0 0 0 0 0 0 0 0 0 0 0 0 0 0 0 0 0 0 0 0 0 0 0 0 0 0 0 0 0 0 0 0 0 0 0 0 0 0 0 0 0 0 0 0 0 0 0 0 0 0 0 0 0 0 0 0 0 0 0 0 0 0 0 0 0 0 0 0 0 0 0 0 0 0 0 0 0 0 0 0 0 0 0 0 0 0 0 0 0 0 0 0 0 0 0 0 0 0 0 0 0 0 0 0 0 0 0 0 0 0 0 0 0 0 0 0 0 0 0 0 0 0 0 0 0 0 0 0 0 0 0 0 0 0 0 0 0 0 0 0 0 0 0 0 0 0 0 0 0 0 0 0 0 0 0 0 0 0 0 0 0 0 0 0 0 0 0 0 0 0 0 0 0 0 0 0 0 0 0 0 0 0 0 0 0 0 0 0 0 0 0 0 0 0 0 0 0 0 0 0 0 0 0 0 0 0 0 0 0 0 0 0 0 0 0 0 0 0 0 0 0 0 0 0 0 0 0 0 0 0 0 0 0 0 0 0 0 0 0 0 0 0 0 0 0 0 0 0 0 0 0 0 0 0 0 0 0 0 0 0 0 0 0 0 0 0 0 0 0 0 0 0 0 0 0 0 0 0 0 0 0 0 0 0 0 0 0 0 0 0 0 0 0 0 0 0 0 0 0 0 0 0 0 0 0 0 0 0 0 0 0 0 0 0 0 0 0 0 0 0 0 0 0 0 0 0 0 0 0 0 0 0 0 0 0 0 0 0 0 0 0 0 0 0 0 0 0 0 0 0 0 0 0 0 0 0 0 0 0 0 0 0 0 0 0 0 0 0 0 0 0 0 0 0 0 0 0 0 0 0 0 0 0 0 0 0 0 0 0 0 0 0 0 0 0 0 0 0 0 0 0 0 0 0 0 0 0 0 0 0 0 0 0 0 0 0 0 0 0 0 0 0 0 0 0 0 0 0 0 0 0 0 0 0 0 0 0 0 0 0 0 0 0 0 0 0 0 0 0 0 0 0 0 0 0 0 0 0 0 0 0 0 0 0 0 0 0 0 0 0 0 0 0 0 0 0 0 0 0 0 0 0 0 0 0 0 0 0 0 0 0 0 0 0 0 0 0 0 0 0 0 0 0 0 0 0 0 0 0 0 0 0 0 0 0 0 0 0 0 0 0 0 0 0 0 0 0 0 0 0 0 0 0 0 0 0 0 0 0 0 0 0 0 0 0 0 0 0 0 0 0 0 0 0 0 0 0 0 0 0 0 0 0 0 0 0 0 0 0 0 0 0 0 0 0 0 0 0 0 0 0 0 0 0 0 0 0 0 0 0 0 0 0 0 0 0 0 0 0 0 0 0 0 0 0 0 0 0 0 0 0 0 0 0 0 0 0 0 0 0 0 0 0 0 0 0 0 0 0 0 0 0 0 0 0 0 0 0 0 0 0 0 0 0 0 0 0 0 0 0 0 0 0 0 0 0 0 0 0 0 0 0 0 0 0 0 0 0 0 0 0 0 0 0 0 0 0 0 0 0 0 0 0 0 0 0 0 0 0 0 0 0 0 0 0 0 0 0 0 0 0 0 0 0 0 0 0 0 0 0 0 0 0 0 0 0 0 0 0 0 0 0 0 0 0 0 0 0 0 0 0 0 0 0 0 0 0 0 0 0 0 0 0 0 0 0 0 0 0 0 0 0 0 0 0 0 0 0 0 0 0 0 0 0 0 0 0 0 0 0 0 0 0 0 0 0 0 0 0 0 0 0 0 0 0 0 0 0 0 0 0 0 0 0 0 0 0 0 0 0 0 0 0 0 0 0 0 0 0 0 0 0 0 0 0 0 0 0 0 0 0 0 0 0 0 0 0 0 0 0 0 0 0 0 0 0 0 0 0 0 0 0 0 0 0 0 0 0 0 0 0 0 0 0 0 0 0 0 0 0 0 0 0 0 0 0 0 0 0 0 0 0 0 0 0 0 0 0 0 0 0 0 0 0 0 0 0 0 0 0 0 0 0 0 0 0 0 0 0 0 0 0 0 0 0 0 0 0 0 0 0 0 0 0 0 0 0 0 0 0 0 0 0 0 0 0 0 0 0 0 0 0 0 0 0 0 0 0 0 0 0 0 0 0 0 0 0 0 0 0 0 0 0 0 0 0 0 0 0 0 0 0 0 0 0 0 0 0 0 0 0 0 0 0 0 0 0 0 0 0 0 0 0 0 0 0 0 0 0 0 0 0 0 0 0 0 0 0 0 0 0 0 0 0 0 0 0 0 0 0 0 0 0 0 0 0 0 0 0 0 0 0 0 0 0 0 0 0 0 0 0 0 0 0 0 0 0 0 0 0 0 0 0 0 0 0 0 0 0 0 0 0 0 0 0 0 0 0 0 0 0 0 0 0 0 0 0 0 0 0 0 0 0 0 0 0 0 0 0 0 0 0 0 0 0 0 0 0 0 0 0 0 0 0 0 0 0 0 0 0 0 0 0 0 0 0 0 0 0 0 0 0 0 0 0 0 0 0 0 0 0 0 0 0 0 0 0 0 0 0 0 0 0 0 0 0 0 0 0 0 0 0 0 0 0 0 0 0 0 0 0 0 0 0 0 0 0 0 0 0 0 0 0 0 0 0 0 0 0 0 0 0 0 0 0 0 0 0 0 0 0 0 0 0 0 0 0 0 0 0 0 0 0 0 0 0 0 0 0 0 0 0 0 0 0 0 0 0 0 0 0 0 0 0 0 0 0 0 0 0 0 0 0 0 0 0 0 0 0 0 0 0 0 0 0 0 0 0 0 0 0 0 0 0 0 0 0 0 0 0 0 0 0 0 0 0 0 0 0 0 0 0 0 0 0 0 0 0 0 0 0 0 0 0 0 0 0 0 0 0 0 0 0 0 0 0 0 0 0 0 0 0 0 0 0 0 0 0 0 0 0 0 0 0 0 0 0 0 0 0 0 0 0 0 0 0 0 0 0 0 0 0 0 0 0 0 0 0 0 0 0 0 0 0 0 0 0 0 0 0 0 0 0 0 0 0 0 0 0 0 0 0 0 0 0 0 0 0 0 0 0 0 0 0 0 0 0 0 0 0 0 0 0 0 0 0 0 0 0 0 0 0 0 0 0 0 0 0 0 0 0 0 0 0 0 0 0 0 0 0 0 0 0 0 0 0 0 0 0 0 0 0 0 0 0 0 0 0 0 0 0 0 0 0 0 0 0 0 0 0 0 0 0 0 0 0 0 0 0 0 0 0 0 0 0 0 0 0 0 0 0 0 0 0 0 0 0 0 0 0 0 0 0 0 0 0 0 0 0 0 0 0 0 0 0 0 0 0 0 0 0 0 0 0 0 0 0 0 0 0 0 0 0 0 0 0 0 0 0 0 0 0 0 0 0 0 0 0 0 0 0 0 0 0 0 0 0 0 0 0 0 0 0 0 0 0 0 0 0 0 0 0 0 0 0 0 0 0 0 0 0 0 0 0 0 0 0 0 0 0 0 0 0 0 0 0 0 0 0 0 0 0 0 0 0 0 0 0 0 0 0 0 0 0 0 0 0 0 0 0 0 0 0 0 0 0 0 0 0 0 0 0 0 0 0 0 0 0 0 0 0 0 0 0 0 0 0 0 0 0 0 0 0 0 0 0 0 0 0 0 0 0 0 0 0 0 0 0 0 0 0 0 0 0 0 0 0 0 0 0 0 0 0 0 0 0 0 0 0 0 0 0 0 0 0 0 0 0 0 0 0 0 0 0 0 0 0 0 0 0 0 0 0 0 0 0 0 0 0 0 0 0 0 0 0 0 0 0 0 0 0 0 0 0 0 0 0 0 0 0 0 0 0 0 0 0 0 0 0 0 0 0 0 0 0 0 0 0 0 0 0 0 0 0 0 0 0 0 0 0 0 0 0 0 0 0 0 0 0 0 0 0 0 0 0 0 0 0 0 0 0 0 0 0 0 0 0 0 0 0 0 0 0 0 0 0 0 0 0 0 0 0 0 0 0 0 0 0 0 0 0 0 0 0 0 0 0 0 0 0 0 0 0 0 0 0 0 0 0 0 0 0 0 0 0 0 0 0 0 0 0 0 0 0 0 0 0 0 0 0 0 0 0 0 0 0 0 0 0 0 0 0 0 0 0 0 0 0 0 0 0 0 0 0 0 0 0 0 0 0 0 0 0 0 0 0 0 0 0 0 0 0 0 0 0 0 0 0 0 0 0 0 0 0 0 0 0 0 0 0 0 0 0 0 0 0 0 0 0 0 0 0 0 0 0 0 0 0 0 0 0 0 0 0 0 0 0 0 0 0 0 0 0 0 0 0 0 0 0 0 0 0 0 0 0 0 0 0 0 0 0 0 0 0 0 0 0 0 0 0 0 0 0 0 0 0 0 0 0 0 0 0 0 0 0 0 0 0 0 0 0 0 0 0 0 0 0 0 0 0 0 0 0 0 0 0 0 0 0 0 0 0 0 0 0 0 0 0 0 0 0 0 0 0 0 0 0 0 0 0 0 0 0 0 0 0 0 0 0 0 0 0 0 0 0 0 0 0 0 0 0 0 0 0 0 0 0 0 0 0 0 0 0 0 0 0 0 0 0 0 0 0 0 0 0 0 0 0 0 0 0 0 0 0 0 0 0 0 0 0 0 0 0 0 0 0 0 0 0 0 0 0 0 0 0 0 0 0 0 0 0 0 0 0 0 0 0 0 0 0 0 0 0 0 0 0 0 0 0 0 0 0 0 0 0 0 0 0 0 0 0 0 0 0 0 0 0 0 0 0 0 0 0 0 0 0 0 0 0 0 0 0 0 0 0 0 0 0 0 0 0 0 0 0 0 0 0 0 0 0 0 0 0 0 0 0 0 0 0 0 0 0 0 0 0 0 0 0 0 0 0 0 0 0 0 0 0 0 0 0 0 0 0 0 0 0 0 0 0 0 0 0 0 0 0 0 0 0 0 0 0 0 0 0 0 0 0 0 0 0 0 0 0 0 0 0 0 0 0 0 0 0 0 0 0 0 0 0 0 0 0 0 0 0 0 0 0 0 0 0 0 0 0 0 0 0 0 0 0 0 0 0 0 0 0 0 0 0 0 0 0 0 0 0 0 0 0 0 0 0 0 0 0 0 0 0 0 0 0 0 0 0 0 0 0 0 0 0 0 0 0 0 0 0 0 0 0 0 0 0 0 0 0 0 0 0 0 0 0 0 0 0 0 0 0 0 0 0 0 0 0 0 0 0 0 0 0 0 0 0 0 0 0 0 0 0 0 0 0 0 0 0 0 0 0 0 0 0 0 0 0 0 0 0 0 0 0 0 0 0 0 0 0 0 0 0 0 0 0 0 0 0 0 0 0 0 0 0 0 0 0 0 0 0 0 0 0 0 0 0 0 0 0 0 0 0 0 0 0 0 0 0 0 0 0 0 0 0 0 0 0 0 0 0 0 0 0 0 0 0 0 0 0 0 0 0 0 0 0 0 0 0 0 0 0 0 0 0 0 0 0 0 0 0 0 0 0 0 0 0 0 0 0 0 0 0 0 0 0 0 0 0 0 0 0 0 0 0 0 0 0 0 0 0 0 0 0 0 0 0 0 0 0 0 0 0 0 0 0 0 0 0 0 0 0 0 0 0 0 0 0 0 0 0 0 0 0 0 0 0 0 0 0 0 0 0 0 0 0 0 0 0 0 0 0 0 0 0 0 0 0 0 0 0 0 0 0 0 0 0 0 0 0 0 0 0 0 0 0 0 0 0 0 0 0 0 0 0 0 0 0 0 0 0 0 0 0 0 0 0 0 0 0 0 0 0 0 0 0 0 0 0 0 0 0 0 0 0 0 0 0 0 0 0 0 0 0 0 0 0 0 0 0 0 0 0 0 0 0 0 0 0 0 0 0 0 0 0 0 0 0 0 0 0 0 0 0 0 0 0 0 0 0 0 0 0 0 0 0 0 0 0 0 0 0 0 0 0 0 0 0 0 0 0 0 0 0 0 0 0 0 0 0 0 0 0 0 0 0 0 0 0 0 0 0 0 0 0 0 0 0 0 0 0 0 0 0 0 0 0 0 0 0 0 0 0 0 0 0 0 0 0 0 0 0 0 0 0 0 0 0 0 0 0 0 0 0 0 0 0 0 0 0 0 0 0 0 0 0 0 0 0 0 0 0 0 0 0 0 0 0 0 0 0 0 0 0 0 0 0 0 0 0 0 0 0 0 0 0 0 0 0 0 0 0 0 0 0 0 0 0 0 0 0 0 0 0 0 0 0 0 0 0 0 0 0 0 0 0 0 0 0 0 0 0 0 0 0 0 0 0 0 0 0 0 0 0 0 0 0 0 0 0 0 0 0 0 0 0 0 0 0 0 0 0 0 0 0 0 0 0 0 0 0 0 0 0 0 0 0 0 0 0 0 0 0 0 0 0 0 0 0 0 0 0 0 0 0 0 0 0 0 0 0 0 0 0 0 0 0 0 0 0 0 0 0 0 0 0 0 0 0 0 0 0 0 0 0 0 0 0 0 0 0 0 0 0 0 0 0 0 0 0 0 0 0 0 0 0 0 0 0 0 0 0 0 0 0 0 0 0 0 0 0 0 0 0 0 0 0 0 0 0 0 0 0 0 0 0 0 0 0 0 0 0 0 0 0 0 0 0 0 0 0 0 0 0 0 0 0 0 0 0 0 0 0 0 0 0 0 0 0 0 0 0 0 0 0 0 0 0 0 0 0 0 0 0 0 0 0 0 0 0 0 0 0 0 0 0 0 0 0 0 0 0 0 0 0 0 0 0 0 0 0 0 0 0 0 0 0 0 0 0 0 0 0 0 0 0 0 0 0 0 0 0 0 0 0 0 0 0 0 0 0 0 0 0 0 0 0 0 0 0 0 0 0 0 0 0 0 0 0 0 0 0 0 0 0 0 0 0 0 0 0 0 0 0 0 0 0 0 0 0 0 0 0 0 0 0 0 0 0 0 0 0 0 0 0 0 0 0 0 0 0 0 0 0 0 0 0 0 0 0 0 0 0 0 0 0 0 0 0 0 0 0 0 0 0 0 0 0 0 0 0 0 0 0 0 0 0 0 0 0 0 0 0 0 0 0 0 0 0 0 0 0 0 0 0 0 0 0 0 0 0 0 0 0 0 0 0 0 0 0 0 0 0 0 0 0 0 0 0 0 0 0 0 0 0 0 0 0 0 0 0 0 0 0 0 0 0 0 0 0 0 0 0 0 0 0 0 0 0 0 0 0 0 0 0 0 0 0 0 0 0 0 0 0 0 0 0 0 0 0 0 0 0 0 0 0 0 0 0 0 0 0 0 0 0 0 0 0 0 0 0 0 0 0 0 0 0 0 0 0 0 0 0 0 0 0 0 0 0 0 0 0 0 0 0 0 0 0 0 0 0 0 0 0 0 0 0 0 0 0 0 0 0 0 0 0 0 0 0 0 0 0 0 0 0 0 0 0 0 0 0 0 0 0 0 0 0 0 0 0 0 0 0 0 0 0 0 0 0 0 0 0 0 0 0 0 0 0 0 0 0 0 0 0 0 0 0 0 0 0 0 0 0 0 0 0 0 0 0 0 0 0 0 0 0 0 0 0 0 0 0 0 0 0 0 0 0 0 0 0 0 0 0 0 0 0 0 0 0 0 0 0 0 0 0 0 0 0 0 0 0 0 0 0 0 0 0 0 0 0 0 0 0 0 0 0 0 0 0 0 0 0 0 0 0 0 0 0 0 0 0 0 0 0 0 0 0 0 0 0 0 0 0 0 0 0 0 0 0 0 0 0 0 0 0 0 0 0 0 0 0 0 0 0 0 0 0 0 0 0 0 0 0 0 0 0 0 0 0 0 0 0 0 0 0 0 0 0 0 0 0 0 0 0 0 0 0 0 0 0 0 0 0 0 0 0 0 0 0 0 0 0 0 0 0 0 0 0 0 0 0 0 0 0 0 0 0 0 0 0 0 0 0 0 0 0 0 0 0 0 0 0 0 0 0 0 0 0 0 0 0 0 0 0 0 0 0 0 0 0 0 0 0 0 0 0 0 0 0 0 0 0 0 0 0 0 0 0 0 0 0 0 0 0 0 0 0 0 0 0 0 0 0 0 0 0 0 0 0 0 0 0 0 0 0 0 0 0 0 0 0 0 0 0 0 0 0 0 0 0 0 0 0 0 0 0 0 0 0 0 0 0 0 0 0 0 0 0 0 0 0 0 0 0 0 0 0 0 0 0 0 0 0 0 0 0 0 0 0 0 0 0 0 0 0 0 0 0 0 0 0 0 0 0 0 0 0 0 0 0 0 0 0 0 0 0 0 0 0 0 0 0 0 0 0 0 0 0 0 0 0 0 0 0 0 0 0 0 0 0 0 0 0 0 0 0 0 0 0 0 0 0 0 0 0 0 0 0 0 0 0 0 0 0 0 0 0 0 0 0 0 0 0 0 0 0 0 0 0 0 0 0 0 0 0 0 0 0 0 0 0 0 0 0 0 0 0 0 0 0 0 0 0 0 0 0 0 0 0 0 0 0 0 0 0 0 0 0 0 0 0 0 0 0 0 0 0 0 0 0 0 0 0 0 0 0 0 0 0 0 0 0 0 0 0 0 0 0 0 0 0 0 0 0 0 0 0 0 0 0 0 0 0 0 0 0 0 0 0 0 0 0 0 0 0 0 0 0 0 0 0 0 0 0 0 0 0 0 0 0 0 0 0 0 0 0 0 0 0 0 0 0 0 0 0 0 0 0 0 0 0 0 0 0 0 0 0 0 0 0 0 0 0 0 0 0 0 0 0 0 0 0 0 0 0 0 0 0 0 0 0 0 0 0 0 0 0 0 0 0 0 0 0 0 0 0 0 0 0 0 0 0 0 0 0 0 0 0 0 0 0 0 0 0 0 0 0 0 0 0 0 0 0 0 0 0 0 0 0 0 0 0 0 0 0 0 0 0 0 0 0 0 0 0 0 0 0 0 0 0 0 0 0 0 0 0 0 0 0 0 0 0 0 0 0 0 0 0 0 0 0 0 0 0 0 0 0 0 0 0 0 0 0 0 0 0 0 0 0 0 0 0 0 0 0 0 0 0 0 0 0 0 0 0 0 0 0 0 0 0 0 0 0 0 0 0 0 0 0 0 0 0 0 0 0 0 0 0 0 0 0 0 0 0 0 0 0 0 0 0 0 0 0 0 0 0 0 0 0 0 0 0 0 0 0 0 0 0 0 0 0 0 0 0 0 0 0 0 0 0 0 0 0 0 0 0 0 0 0 0 0 0 0 0 0 0 0 0 0 0 0 0 0 0 0 0 0 0 0 0 0 0 0 0 0 0 0 0 0 0 0 0 0 0 0 0 0 0 0 0 0 0 0 0 0 0 0 0 0 0 0 0 0 0 0 0 0 0 0 0 0 0 0 0 0 0 0 0 0 0 0 0 0 0 0 0 0 0 0 0 0 0 0 0 0 0 0 0 0 0 0 0 0 0 0 0 0 0 0 0 0 0 0 0 0 0 0 0 0 0 0 0 0 0 0 0 0 0 0 0 0 0 0 0 0 0 0 0 0 0 0 0 0 0 0 0 0 0 0 0 0 0 0 0 0 0 0 0 0 0 0 0 0 0 0 0 0 0 0 0 0 0 0 0 0 0 0 0 0 0 0 0 0 0 0 0 0 0 0 0 0 0 0 0 0 0 0 0 0 0 0 0 0 0 0 0 0 0 0 0 0 0 0 0 0 0 0 0 0 0 0 0 0 0 0 0 0 0 0 0 0 0 0 0 0 0 0 0 0 0 0 0 0 0 0 0 0 0 0 0 0 0 0 0 0 0 0 0 0 0 0 0 0 0 0 0 0 0 0 0 0 0 0 0 0 0 0 0 0 0 0 0 0 0 0 0 0 0 0 0 0 0 0 0 0 0 0 0 0 0 0 0 0 0 0 0 0 0 0 0 0 0 0 0 0 0 0 0 0 0 0 0 0 0 0 0 0 0 0 0 0 0 0 0 0 0 0 0 0 0 0 0 0 0 0 0 0 0 0 0 0 0 0 0 0 0 0 0 0 0 0 0 0 0 0 0 0 0 0 0 0 0 0 0 0 0 0 0 0 0 0 0 0 0 0 0 0 0 0 0 0 0 0 0 0 0 0 0 0 0 0 0 0 0 0 0 0 0 0 0 0 0 0 0 0 0 0 0 0 0 0 0 0 0 0 0 0 0 0 0 0 0 0 0 0 0 0 0 0 0 0 0 0 0 0 0 0 0 0 0 0 0 0 0 0 0 0 0 0 0 0 0 0 0 0 0 0 0 0 0 0 0 0 0 0 0 0 0 0 0 0 0 0 0 0 0 0 0 0 0 0 0 0 0 0 0 0 0 0 0 0 0 0 0 0 0 0 0 0 0 0 0 0 0 0 0 0 0 0 0 0 0 0 0 0 0 0 0 0 0 0 0 0 0 0 0 0 0 0 0 0 0 0 0 0 0 0 0 0 0 0 0 0 0 0 0 0 0 0 0 0 0 0 0 0 0 0 0 0 0 0 0 0 0 0 0 0 0 0 0 0 0 0 0 0 0 0 0 0 0 0 0 0 0 0 0 0 0 0 0 0 0 0 0 0 0 0 0 0 0 0 0 0 0 0 0 0 0 0 0 0 0 0 0 0 0 0 0 0 0 0 0 0 0 0 0 0 0 0 0 0 0 0 0 0 0 0 0 0 0 0 0 0 0 0 0 0 0 0 0 0 0 0 0 0 0 0 0 0 0 0 0 0 0 0 0 0 0 0 0 0 0 0 0 0 0 0 0 0 0 0 0 0 0 0 0 0 0 0 0 0 0 0 0 0 0 0 0 0 0 0 0 0 0 0 0 0 0 0 0 0 0 0 0 0 0 0 0 0 0 0 0 0 0 0 0 0 0 0 0 0 0 0 0 0 0 0 0 0 0 0 0 0 0 0 0 0 0 0 0 0 0 0 0 0 0 0 0 0 0 0 0 0 0 0 0 0 0 0 0 0 0 0 0 0 0 0 0 0 0 0 0 0 0 0 0 0 0 0 0 0 0 0 0 0 0 0 0 0 0 0 0 0 0 0 0 0 0 0 0 0 0 0 0 0 0 0 0 0 0 0 0 0 0 0 0 0 0 0 0 0 0 0 0 0 0 0 0 0 0 0 0 0 0 0 0 0 0 0 0 0 0 0 0 0 0 0 0 0 0 0 0 0 0 0 0 0 0 0 0 0 0 0 0 0 0 0 0 0 0 0 0 0 0 0 0 0 0 0 0 0 0 0 0 0 0 0 0 0 0 0 0 0 0 0 0 0 0 0 0 0 0 0 0 0 0 0 0 0 0 0 0 0 0 0 0 0 0 0 0 0 0 0 0 0 0 0 0 0 0 0 0 0 0 0 0 0 0 0 0 0 0 0 0 0 0 0 0 0 0 0 0 0 0 0 0 0 0 0 0 0 0 0 0 0 0 0 0 0 0 0 0 0 0 0 0 0 0 0 0 0 0 0 0 0 0 0 0 0 0 0 0 0 0 0 0 0 0 0 0 0 0 0 0 0 0 0 0 0 0 0 0 0 0 0 0 0 0 0 0 0 0 0 0 0 0 0 0 0 0 0 0 0 0 0 0 0 0 0 0 0 0 0 0 0 0 0 0 0 0 0 0 0 0 0 0 0 0 0 0 0 0 0 0 0 0 0 0 0 0 0 0 0 0 0 0 0 0 0 0 0 0 0 0 0 0 0 0 0 0 0 0 0 0 0 0 0 0 0 0 0 0 0 0 0 0 0 0 0 0 0 0 0 0 0 0 0 0 0 0 0 0 0 0 0 0 0 0 0 0 0 0 0 0 0 0 0 0 0 0 0 0 0 0 0 0 0 0 0 0 0 0 0 0 0 0 0 0 0 0 0 0 0 0 0 0 0 0 0 0 0 0 0 0 0 0 0 0 0 0 0 0 0 0 0 0 0 0 0 0 0 0 0 0 0 0 0 0 0 0 0 0 0 0 0 0 0 0 0 0 0 0 0 0 0 0 0 0 0 0 0 0 0 0 0 0 0 0 0 0 0 0 0 0 0 0 0 0 0 0 0 0 0 0 0 0 0 0 0 0 0 0 0 0 0 0 0 0 0 0 0 0 0 0 0 0 0 0 0 0 0 0 0 0 0 0 0 0 0 0 0 0 0 0 0 0 0 0 0 0 0 0 0 0 0 0 0 0 0 0 0 0 0 0 0 0 0 0 0 0 0 0 0 0 0 0 0 0 0 0 0 0 0 0 0 0 0 0 0 0 0 0 0 0 0 0 0 0 0 0 0 0 0 0 0 0 0 0 0 0 0 0 0 0 0 0 0 0 0 0 0 0 0 0 0 0 0 0 0 0 0 0 0 0 0 0 0 0 0 0 0 0 0 0 0 0 0 0 0 0 0 0 0 0 0 0 0 0 0 0 0 0 0 0 0 0 0 0 0 0 0 0 0 0 0 0 0 0 0 0 0 0 0 0 0 0 0 0 0 0 0 0 0 0 0 0 0 0 0 0 0 0 0 0 0 0 0 0 0 0 0 0 0 0 0 0 0 0 0 0 0 0 0 0 0 0 0 0 0 0 0 0 0 0 0 0 0 0 0 0 0 0 0 0 0 0 0 0 0 0 0 0 0 0 0 0 0 0 0 0 0 0 0 0 0 0 0 0 0 0 0 0 0 0 0 0 0 0 0 0 0 0 0 0 0 0 0 0 0 0 0 0 0 0 0 0 0 0 0 0 0 0 0 0 0 0 0 0 0 0 0 0 0 0 0 0 0 0 0 0 0 0 0 0 0 0 0 0 0 0 0 0 0 0 0 0 0 0 0 0 0 0 0 0 0 0 0 0 0 0 0 0 0 0 0 0 0 0 0 0 0 0 0 0 0 0 0 0 0 0 0 0 0 0 0 0 0 0 0 0 0 0 0 0 0 0 0 0 0 0 0 0 0 0 0 0 0 0 0 0 0 0 0 0 0 0 0 0 0 0 0 0 0 0 0 0 0 0 0 0 0 0 0 0 0 0 0 0 0 0 0 0 0 0 0 0 0 0 0 0 0 0 0 0 0 0 0 0 0 0 0 0 0 0 0 0 0 0 0 0 0 0 0 0 0 0 0 0 0 0 0 0 0 0 0 0 0 0 0 0 0 0 0 0 0 0 0 0 0 0 0 0 0 0 0 0 0 0 0 0 0 0 0 0 0 0 0 0 0 0 0 0 0 0 0 0 0 0 0 0 0 0 0 0 0 0 0 0 0 0 0 0 0 0 0 0 0 0 0 0 0 0 0 0 0 0 0 0 0 0 0 0 0 0 0 0 0 0 0 0 0 0 0 0 0 0 0 0 0 0 0 0 0 0 0 0 0 0 0 0 0 0 0 0 0 0 0 0 0 0 0 0 0 0 0 0 0 0 0 0 0 0 0 0 0 0 0 0 0 0 0 0 0 0 0 0 0 0 0 0 0 0 0 0 0 0 0 0 0 0 0 0 0 0 0 0 0 0 0 0 0 0 0 0 0 0 0 0 0 0 0 0 0 0 0 0 0 0 0 0 0 0 0 0 0 0 0 0 0 0 0 0 0 0 0 0 0 0 0 0 0 0 0 0 0 0 0 0 0 0 0 0 0 0 0 0 0 0 0 0 0 0 0 0 0 0 0 0 0 0 0 0 0 0 0 0 0 0 0 0 0 0 0 0 0 0 0 0 0 0 0 0 0 0 0 0 0 0 0 0 0 0 0 0 0 0 0 0 0 0 0 0 0 0 0 0 0 0 0 0 0 0 0 0 0 0 0 0 0 0 0 0 0 0 0 0 0 0 0 0 0 0 0 0 0 0 0 0 0 0 0 0 0 0 0 0 0 0 0 0 0 0 0 0 0 0 0 0 0 0 0 0 0 0 0 0 0 0 0 0 0 0 0 0 0 0 0 0 0 0 0 0 0 0 0 0 0 0 0 0 0 0 0 0 0 0 0 0 0 0 0 0 0 0 0 0 0 0 0 0 0 0 0 0 0 0 0 0 0 0 0 0 0 0 0 0 0 0 0 0 0 0 0 0 0 0 0 0 0 0 0 0 0 0 0 0 0 0 0 0 0 0 0 0 0 0 0 0 0 0 0 0 0 0 0 0 0 0 0 0 0 0 0 0 0 0 0 0 0 0 0 0 0 0 0 0 0 0 0 0 0 0 0 0 0 0 0 0 0 0 0 0 0 0 0 0 0 0 0 0 0 0 0 0 0 0 0 0 0 0 0 0 0 0 0 0 0 0 0 0 0 0 0 0 0 0 0 0 0 0 0 0 0 0 0 0 0 0 0 0 0 0 0 0 0 0 0 0 0 0 0 0 0 0 0 0 0 0 0 0 0 0 0 0 0 0 0 0 0 0 0 0 0 0 0 0 0 0 0 0 0 0 0 0 0 0 0 0 0 0 0 0 0 0 0 0 0 0 0 0 0 0 0 0 0 0 0 0 0 0 0 0 0 0 0 0 0 0 0 0 0 0 0 0 0 0 0 0 0 0 0 0 0 0 0 0 0 0 0 0 0 0 0 0 0 0 0 0 0 0 0 0 0 0 0 0 0 0 0 0 0 0 0 0 0 0 0 0 0 0 0 0 0 0 0 0 0 0 0 0 0 0 0 0 0 0 0 0 0 0 0 0 0 0 0 0 0 0 0 0 0 0 0 0 0 0 0 0 0 0 0 0 0 0 0 0 0 0 0 0 0 0 0 0 0 0 0 0 0 0 0 0 0 0 0 0 0 0 0 0 0 0 0 0 0 0 0 0 0 0 0 0 0 0 0 0 0 0 0 0 0 0 0 0 0 0 0 0 0 0 0 0 0 0 0 0 0 0 0 0 0 0 0 0 0 0 0 0 0 0 0 0 0 0 0 0 0 0 0 0 0 0 0 0 0 0 0 0 0 0 0 0 0 0 