P2
107 129
255
0 0 0 0 0 0 0 0 0 0 0 0 0 0 0 0 0 0 0 0 0 0 0 0 0 0 0 0 0 0 0 0 0 0 0 0 0 0 0 0 0 0 0 0 0 0 0 0 0 0 0 0 0 0 0 0 0 0 0 0 0 0 0 0 0 0 0 0 0 0 0 0 0 0 0 0 0 0 0 0 0 0 0 0 0 0 0 0 0 0 0 0 0 0 0 0 0 0 0 0 0 0 0 0 0 0 0 0 0 0 0 0 0 0 0 0 0 0 0 0 0 0 0 0 0 0 0 0 0 0 0 0 0 0 0 0 0 0 0 0 0 0 0 0 0 0 0 0 0 0 0 0 0 0 0 0 0 0 0 0 0 0 0 0 0 0 0 0 0 0 0 0 0 0 0 0 0 0 0 0 0 0 0 0 0 0 0 0 0 0 0 0 0 0 0 0 0 0 0 0 0 0 0 0 0 0 0 0 0 0 0 0 0 0 110 39 38 83 98 61 75 101 129 99 87 35 121 103 35 85 132 91 122 146 132 145 111 163 178 168 193 171 206 174 151 225 163 197 220 181 229 173 167 233 185 210 221 202 235 182 184 244 208 191 244 230 213 243 241 228 238 244 232 234 239 224 232 228 212 243 230 209 255 223 224 241 216 217 215 217 176 170 144 124 152 165 177 160 144 144 71 159 123 103 128 113 119 142 104 115 143 71 96 13 149 115 126 118 88 126 123 122 106 85 98 110 117 98 75 122 109 87 83 115 126 93 86 126 107 135 169 166 162 169 217 208 149 226 194 179 234 204 230 225 186 237 208 198 231 206 239 225 203 244 213 214 233 204 247 228 201 254 237 222 249 247 241 238 244 245 233 237 238 226 218 233 229 227 237 238 238 211 232 225 194 216 181 177 167 139 122 151 170 173 141 149 135 86 159 149 135 129 99 125 127 133 116 156 101 119 119 140 104 116 107 101 138 144 91 76 95 88 56 113 85 70 93 89 71 64 58 116 80 82 95 92 151 193 200 200 202 223 242 204 248 229 211 254 228 237 236 196 246 218 193 240 227 238 198 186 253 223 195 232 216 236 149 178 245 220 192 228 230 233 189 207 234 194 209 229 212 142 210 205 166 187 170 205 145 209 204 109 194 187 139 135 137 150 153 153 144 131 127 122 129 130 140 133 129 84 121 61 116 112 158 116 113 129 124 130 136 96 139 125 139 61 55 70 51 87 53 13 39 4 44 64 44 60 51 27 52 24 73 145 156 180 174 198 172 225 189 237 212 223 232 222 243 156 208 242 212 218 239 238 245 234 215 252 236 179 237 206 219 214 172 226 189 208 220 190 211 213 143 198 186 179 195 198 134 167 189 177 173 169 153 154 167 164 130 169 170 156 74 127 135 132 124 82 135 72 112 135 109 99 103 121 79 104 114 84 103 121 85 90 108 142 140 114 118 131 97 124 60 38 38 63 75 25 64 43 13 55 62 52 25 56 62 53 20 61 112 130 133 130 142 195 189 187 200 145 175 207 184 225 218 181 218 209 217 226 216 229 226 218 226 217 207 207 184 180 184 164 179 148 160 160 104 161 140 133 146 132 86 120 129 93 101 113 65 114 105 86 116 77 47 101 102 58 109 68 74 64 66 29 89 63 58 70 93 42 25 99 88 46 89 90 90 93 40 10 87 110 109 107 68 64 81 63 124 59 27 33 53 45 15 76 55 60 51 68 43 11 39 86 66 30 12 72 90 101 123 103 181 165 149 161 132 144 152 158 181 168 147 146 152 157 146 112 158 139 146 126 116 139 96 118 65 66 119 82 105 76 75 13 81 82 72 68 77 64 84 77 87 77 80 46 76 50 58 58 64 49 79 49 40 72 73 35 43 42 62 20 23 81 68 40 27 3 55 46 53 60 30 56 43 41 64 71 41 47 70 72 62 63 60 62 40 51 8 31 24 13 37 59 55 21 57 9 23 28 66 60 14 23 46 58 68 60 33 146 100 114 119 74 146 105 115 145 73 52 120 74 114 78 86 124 69 102 80 64 77 60 78 88 71 45 72 9 54 46 42 69 31 43 44 49 61 52 29 46 51 47 40 68 51 8 38 19 48 19 35 41 65 50 20 39 10 38 13 3 64 60 6 45 17 31 36 54 55 28 31 39 15 58 40 51 13 65 46 59 63 52 5 5 45 18 52 26 41 30 15 12 3 33 51 30 51 39 35 4 7 18 44 49 39 35 101 55 95 77 41 102 50 38 132 32 86 63 44 89 54 48 110 10 57 61 56 64 32 48 70 12 29 20 60 45 24 21 50 43 26 54 35 19 25 31 25 24 32 44 40 40 37 29 4 6 19 17 34 55 17 21 28 17 3 17 17 36 18 33 8 6 47 36 42 29 21 0 8 21 42 6 21 13 45 15 19 33 32 38 4 24 40 32 9 32 23 12 16 27 24 35 8 26 16 38 29 2 30 35 3 27 50 80 1 81 62 28 99 58 7 114 23 37 58 38 81 43 41 87 15 45 40 23 27 8 8 53 38 39 25 35 35 27 36 39 30 30 37 0 0 20 13 7 4 30 35 27 23 15 20 18 10 38 11 30 40 25 14 9 12 4 12 23 19 16 33 3 1 58 43 16 13 39 11 11 15 18 21 12 0 1 19 13 12 11 36 18 19 9 2 22 0 1 29 24 21 21 6 19 27 5 58 13 30 5 16 8 26 33 50 33 63 64 17 79 61 47 94 1 42 65 37 21 16 0 72 3 11 24 21 41 19 36 63 24 30 26 30 26 40 45 14 12 11 30 0 26 15 20 15 15 25 5 19 3 23 34 8 1 21 5 18 42 23 14 30 6 7 1 32 7 19 33 8 1 54 49 13 15 41 33 7 11 11 20 9 15 25 18 1 16 0 30 33 25 18 12 13 13 9 24 32 4 23 18 26 29 5 53 16 24 14 8 25 31 8 47 45 8 27 34 60 20 59 74 9 47 27 16 2 25 47 58 6 33 26 14 25 30 18 45 16 9 13 35 24 18 17 7 15 3 19 3 30 38 16 30 18 27 5 7 12 46 43 5 17 5 10 13 26 45 8 12 10 9 13 23 28 38 36 5 5 27 40 8 17 15 22 1 36 12 17 3 22 27 10 1 10 7 19 37 23 30 18 6 11 17 24 24 3 9 26 33 24 22 29 3 22 16 19 22 27 38 62 25 44 42 28 71 68 73 56 4 47 38 43 34 16 45 64 35 48 10 33 21 37 1 47 42 24 17 26 19 19 34 14 13 25 23 3 0 10 29 33 24 29 8 3 23 26 8 9 11 9 9 6 17 21 26 18 8 2 22 4 27 12 27 3 1 22 28 5 4 20 11 4 36 31 4 11 27 3 15 0 11 22 4 16 12 39 39 9 7 10 19 15 2 3 14 35 25 35 19 32 40 15 20 24 27 35 80 68 60 73 17 65 80 78 81 49 70 55 82 33 68 74 79 84 42 66 63 49 70 37 54 69 18 38 38 29 37 48 16 40 15 48 4 39 23 47 10 29 40 27 17 30 15 16 4 15 24 12 0 5 10 16 16 23 6 4 0 13 15 10 20 26 55 34 6 19 31 3 17 24 21 8 23 25 17 5 27 21 10 19 23 19 45 21 11 3 27 0 25 0 0 14 48 24 9 29 32 39 9 37 53 61 28 100 73 87 99 35 88 10 17 90 62 72 58 63 70 77 50 73 82 55 72 65 37 72 66 57 68 49 62 51 33 52 46 14 56 43 47 16 46 52 34 13 7 53 45 5 33 27 26 10 23 36 26 19 16 32 6 23 4 13 4 13 1 29 23 23 49 58 21 7 27 29 13 18 27 9 19 21 12 2 38 13 25 27 18 31 7 44 3 5 11 24 9 30 8 22 12 28 38 3 19 46 35 12 49 30 20 7 98 15 93 109 20 115 83 87 103 96 68 81 69 92 79 61 62 42 44 53 44 16 17 51 69 37 47 42 20 8 13 22 12 38 7 35 5 20 32 20 14 3 38 28 15 13 23 1 29 17 21 6 37 14 19 14 15 7 15 25 24 18 13 47 20 32 46 9 27 16 30 17 15 27 11 20 1 20 6 32 24 6 26 12 25 34 39 13 0 12 0 25 23 2 36 37 12 17 31 45 39 31 24 25 58 45 49 92 45 86 108 41 117 94 93 106 92 72 108 86 105 99 71 92 57 58 78 25 49 38 20 60 34 5 12 6 8 23 38 19 17 15 42 10 11 11 42 26 13 11 1 38 27 42 18 27 0 1 23 33 4 10 9 18 0 19 23 10 13 30 50 5 5 26 35 29 22 15 3 5 29 13 7 17 33 25 29 1 12 14 13 22 34 10 4 22 14 15 17 18 27 2 57 19 15 39 7 40 10 11 41 41 24 34 109 83 82 126 75 121 99 76 117 76 80 112 50 101 83 66 111 68 30 108 65 56 61 58 85 70 51 79 45 66 59 31 41 11 26 59 10 31 11 27 15 10 36 36 28 26 29 3 8 19 8 13 17 15 23 20 18 22 31 13 32 15 0 34 43 59 38 39 21 40 45 13 27 28 38 10 41 29 27 32 58 7 11 23 14 26 18 25 26 16 15 10 5 14 32 44 39 26 22 21 38 4 32 31 75 60 15 118 114 96 155 115 96 143 104 128 106 106 125 105 126 134 109 118 101 99 120 88 85 83 81 105 87 10 90 16 82 85 72 2 23 25 64 34 36 29 52 46 6 17 39 13 17 4 15 24 28 9 12 43 19 23 27 23 29 39 37 73 32 53 66 50 76 62 82 25 52 56 30 16 48 36 47 36 57 34 16 59 12 32 46 1 37 15 25 0 10 9 12 2 22 6 8 8 29 16 5 32 10 38 36 41 50 12 114 106 107 146 73 125 133 87 129 105 84 110 82 99 119 90 93 76 87 99 62 62 61 50 72 46 59 68 35 51 59 55 38 16 22 50 4 46 51 39 38 14 21 30 10 26 18 16 30 25 11 35 44 23 10 2 28 21 28 22 78 34 51 27 55 68 67 86 60 37 43 45 21 60 8 47 29 35 27 35 12 52 48 46 9 35 27 25 18 1 31 4 7 14 18 19 10 10 18 3 17 24 27 26 38 17 16 99 72 88 92 90 128 77 75 104 71 56 61 45 73 73 12 62 41 34 17 17 36 23 3 18 27 45 23 12 25 1 1 15 5 23 22 23 36 42 6 21 10 20 30 18 22 22 2 17 1 1 29 20 38 23 0 21 6 9 2 58 20 4 50 63 46 46 68 53 32 28 27 34 43 4 30 46 18 30 40 46 60 32 20 5 12 12 24 29 9 29 10 17 12 10 10 1 7 5 8 14 35 18 30 10 21 9 86 54 74 128 92 104 100 84 90 9 42 66 55 74 56 52 73 25 10 33 10 38 18 2 32 17 7 25 4 27 1 4 12 19 5 17 12 33 22 7 23 3 14 10 16 11 12 5 11 16 7 13 8 29 30 11 22 8 19 2 35 5 35 36 11 44 29 48 23 7 5 1 46 0 15 30 32 13 25 36 19 35 8 18 15 22 5 1 17 8 21 29 26 16 11 14 3 19 9 1 14 30 29 44 50 16 7 80 52 58 136 102 97 126 94 92 72 54 74 59 70 68 55 73 21 25 55 37 2 11 9 49 22 11 11 4 13 1 0 22 16 7 36 26 25 14 21 4 3 16 16 10 5 19 11 5 23 13 0 10 13 19 7 16 9 23 2 24 6 38 31 14 33 31 37 32 5 24 16 11 29 18 36 27 6 22 5 10 34 37 14 1 25 12 8 1 14 25 22 1 2 25 8 0 25 11 24 16 16 28 22 45 28 17 63 70 76 117 88 93 118 66 77 71 22 61 60 50 56 16 58 31 29 56 12 18 39 14 53 19 23 13 15 20 3 3 15 20 15 41 12 10 16 33 10 0 14 9 6 6 16 1 2 16 17 7 5 17 9 11 2 12 20 8 14 3 24 17 10 0 27 23 27 23 24 7 13 2 10 21 28 20 5 32 8 19 37 18 10 3 13 6 14 27 19 4 7 8 17 8 18 16 10 27 0 18 26 20 11 16 32 12 33 68 38 55 59 52 44 36 23 21 28 32 26 16 11 34 8 18 26 12 2 32 0 47 27 9 15 20 22 6 12 1 7 4 30 2 14 3 16 23 1 11 4 6 3 13 7 6 7 17 4 5 3 18 11 0 22 21 15 12 21 0 3 7 27 30 19 22 16 12 3 2 15 24 22 8 23 1 17 6 3 28 27 1 10 3 4 22 25 16 2 7 8 1 24 26 2 7 11 10 26 19 15 15 32 41 2 15 34 10 36 22 47 47 23 25 1 5 28 22 8 27 14 5 12 4 16 9 1 2 47 16 10 2 6 8 3 12 0 5 8 20 8 23 4 19 15 4 9 7 6 4 7 24 20 1 24 14 19 6 12 9 1 22 20 19 5 13 12 9 1 29 36 22 1 13 7 22 17 6 19 25 39 21 24 22 23 19 44 27 21 24 11 6 28 13 8 14 1 31 12 15 29 11 1 29 20 40 0 16 9 48 27 32 12 16 15 26 25 24 38 23 34 4 6 31 22 13 24 25 25 4 4 17 2 7 33 43 21 23 0 4 3 7 24 4 0 10 9 2 5 3 3 26 20 14 0 8 7 21 9 9 8 33 14 28 3 13 8 16 3 23 16 6 1 27 8 26 16 26 28 21 26 21 38 21 8 12 4 16 37 42 43 44 20 51 23 12 25 24 22 32 1 17 17 25 42 12 19 22 18 3 30 3 34 4 20 0 36 15 31 17 29 13 29 22 19 1 10 23 32 13 27 18 0 18 30 31 10 14 27 3 11 54 45 15 9 3 23 6 19 37 15 6 20 21 13 20 17 1 39 29 13 7 8 1 6 11 5 22 21 6 35 16 14 2 9 0 29 13 12 3 19 7 38 15 11 0 1 21 40 47 24 22 16 24 34 17 8 34 28 40 31 30 9 1 10 12 18 8 24 24 24 28 27 19 8 21 5 20 3 12 7 11 13 5 0 10 26 21 0 26 23 17 34 22 19 42 12 32 32 5 0 19 7 23 10 24 2 16 52 35 12 20 5 20 20 3 17 11 16 17 11 11 24 5 6 29 11 21 11 0 0 6 1 1 9 8 12 5 21 14 1 2 15 17 5 10 5 10 20 20 53 47 17 32 42 34 41 18 37 38 14 40 18 37 45 39 44 31 22 19 15 1 16 10 18 31 23 24 20 28 6 4 12 0 4 5 4 17 6 21 11 14 16 30 4 14 38 14 16 29 4 0 16 14 24 42 0 17 19 22 20 2 6 2 15 25 7 6 25 0 0 7 13 0 5 13 5 1 6 3 5 10 11 2 21 5 10 1 20 5 5 18 24 18 35 13 21 10 8 30 11 0 9 0 29 24 27 45 36 25 26 16 31 20 4 32 16 22 26 14 26 44 40 5 45 2 15 16 11 11 22 2 21 10 27 23 30 12 2 1 11 3 13 2 8 4 20 8 6 10 26 5 42 31 13 26 24 15 1 16 16 4 29 3 7 33 18 18 3 0 24 25 49 8 10 11 9 0 0 10 4 4 26 0 1 20 1 12 12 3 9 4 11 1 23 14 11 5 15 15 31 28 29 2 22 1 13 16 5 14 17 34 3 18 8 42 26 16 15 12 9 5 19 0 4 11 0 5 29 1 29 27 0 11 10 15 3 20 14 17 17 40 11 29 27 6 7 15 2 11 10 5 21 20 17 23 29 2 9 56 24 28 28 40 0 30 11 33 30 33 2 13 28 16 5 5 0 40 40 34 40 20 28 10 7 8 9 6 11 30 13 17 8 3 11 3 2 10 19 17 6 22 7 21 8 3 2 20 31 10 30 1 36 23 30 26 2 19 36 1 0 1 42 11 4 17 12 18 16 8 22 19 4 5 30 33 23 24 15 1 14 17 9 8 3 27 15 14 36 20 18 32 6 15 24 5 14 24 22 25 1 38 23 23 5 34 49 42 34 19 38 41 26 26 11 31 43 16 26 26 19 20 13 9 39 32 23 55 1 28 30 1 16 28 21 17 11 19 27 14 31 13 7 6 15 16 7 8 2 1 18 10 6 17 22 39 28 26 19 32 12 41 30 9 9 14 2 3 11 47 21 2 4 23 14 25 14 17 31 38 31 30 26 19 14 27 5 26 29 16 15 22 17 31 14 10 26 17 16 3 8 23 1 15 25 28 19 12 52 18 18 0 34 29 53 25 16 20 51 2 24 28 3 23 25 28 30 14 28 20 22 17 15 51 35 7 16 49 24 14 40 28 8 1 17 16 13 38 5 27 8 21 18 11 17 19 6 8 6 10 21 17 38 20 14 5 5 19 11 14 2 7 30 10 7 6 51 1 5 4 50 16 10 25 21 29 43 38 38 19 12 1 11 36 26 27 20 26 14 35 37 36 7 21 31 2 12 2 11 10 4 23 21 18 0 55 11 16 17 18 11 44 13 13 5 27 26 6 38 8 23 28 10 7 33 33 36 23 27 23 35 51 24 1 53 37 14 35 12 16 6 27 20 13 23 29 12 12 18 6 17 0 12 6 10 11 16 22 20 4 27 26 4 18 10 8 7 11 26 11 13 36 24 34 11 4 11 65 21 9 13 46 33 67 68 58 7 28 32 23 62 15 28 30 17 4 29 12 43 8 1 34 34 28 9 11 21 24 18 1 35 8 45 18 1 17 14 18 44 30 23 18 38 33 4 14 13 15 1 13 1 39 14 8 15 22 7 6 66 12 19 45 35 21 13 14 26 10 29 18 22 9 32 9 6 39 3 26 2 15 9 24 17 25 14 8 16 46 28 22 20 16 0 28 27 19 22 13 21 38 26 12 16 10 61 38 37 34 50 18 68 51 38 27 48 60 2 75 15 24 17 15 15 7 2 33 9 0 18 31 8 26 1 31 40 31 34 21 1 9 28 37 7 37 8 49 31 34 40 56 15 22 12 28 20 19 23 7 15 15 2 35 13 31 17 64 23 29 33 34 8 5 24 12 27 16 1 23 2 33 19 2 47 2 28 11 21 13 8 9 22 10 7 30 45 8 22 11 24 20 31 20 2 36 7 36 31 35 35 8 20 27 18 24 32 65 29 53 48 35 44 53 68 41 56 22 19 3 11 25 20 2 13 28 1 32 34 33 25 9 8 15 27 31 4 28 36 0 42 5 18 13 34 34 33 21 45 7 37 14 31 21 20 10 15 13 9 12 26 13 18 4 43 13 2 45 37 7 27 26 5 21 17 2 2 14 37 4 22 26 15 31 14 1 11 9 10 20 10 11 56 3 11 12 8 24 20 27 9 22 14 18 62 31 47 47 25 9 33 32 29 42 68 62 56 5 5 47 58 58 49 21 17 33 14 3 23 35 8 1 28 20 31 9 30 24 27 28 12 14 23 21 43 15 25 2 10 23 43 39 41 5 21 20 0 49 3 13 11 7 1 22 6 22 27 11 11 6 36 42 27 4 46 35 3 36 33 8 17 21 17 7 37 33 10 25 32 22 15 14 7 26 5 13 47 13 22 59 29 19 12 8 12 18 17 4 45 29 44 64 6 52 51 45 26 50 37 42 22 49 66 79 69 52 35 57 49 46 53 30 30 23 7 11 49 29 10 18 12 11 4 34 19 29 31 6 12 9 36 39 17 18 42 20 51 43 48 41 28 30 27 26 50 11 16 12 2 4 9 9 22 14 8 5 36 55 48 46 12 27 17 10 30 36 11 25 14 27 5 35 30 1 13 53 0 15 29 24 27 25 27 30 0 32 45 42 20 10 22 7 40 15 14 48 25 55 42 12 43 43 52 9 23 12 13 9 33 51 76 54 48 0 49 37 40 37 38 11 42 21 5 29 26 4 17 37 13 27 34 18 22 11 33 14 12 45 29 20 32 49 35 52 24 35 2 15 25 36 28 21 1 27 23 12 16 8 10 3 0 28 33 46 41 53 45 7 11 34 15 12 38 24 10 30 18 3 18 19 7 26 34 6 7 21 33 5 25 42 7 11 21 60 32 5 15 23 29 44 21 34 34 40 24 28 1 51 10 37 16 19 17 19 32 40 4 20 0 29 9 43 34 48 25 30 42 50 21 29 26 24 2 36 45 4 29 9 23 6 35 37 32 36 40 15 5 44 40 39 39 32 32 23 28 1 45 38 2 19 19 22 29 15 20 18 1 0 17 28 40 56 51 23 17 35 17 12 21 21 15 15 32 25 12 33 32 22 16 6 15 3 0 14 12 28 18 14 1 25 50 32 1 17 20 23 20 39 42 28 27 33 32 17 53 26 1 7 36 8 36 34 38 31 20 4 41 17 40 12 52 26 30 35 40 13 26 48 14 16 27 0 25 20 17 28 22 19 8 29 38 41 28 11 49 49 21 33 44 12 41 34 27 47 34 37 27 0 11 6 15 29 20 16 4 1 11 22 53 28 14 25 32 2 23 30 0 3 23 36 28 2 26 16 29 13 21 33 0 21 26 13 20 10 9 15 20 28 19 2 12 8 25 30 36 39 17 16 45 24 17 42 40 23 12 27 27 12 14 4 27 3 27 30 16 26 46 25 45 17 29 33 29 50 1 25 51 17 60 46 51 30 42 1 53 3 30 34 49 39 36 60 28 27 62 46 1 54 43 57 50 32 56 17 3 14 16 41 41 2 4 0 3 18 7 42 61 37 35 23 35 26 7 14 15 37 42 40 27 26 38 30 42 33 54 3 27 57 32 31 37 22 23 9 44 24 11 4 8 25 51 36 40 18 2 37 15 36 70 47 35 40 38 26 3 17 22 30 32 33 7 32 46 52 38 34 33 40 68 63 71 67 45 65 21 83 63 50 45 44 33 60 55 47 43 73 60 38 66 14 6 58 27 21 61 22 60 52 39 36 42 25 46 20 30 41 4 34 25 29 19 42 73 65 53 12 54 59 18 45 65 44 41 18 20 1 37 48 36 47 58 61 15 18 52 52 32 51 44 11 18 44 64 24 3 3 16 45 18 40 48 14 62 49 67 82 65 30 40 44 6 23 48 49 44 14 47 42 27 3 41 1 55 55 40 76 62 62 82 59 27 39 78 27 57 65 52 44 35 68 31 24 64 61 47 60 49 44 20 72 48 66 52 61 57 37 13 63 24 57 9 21 50 32 42 27 53 2 50 75 62 61 38 48 7 33 42 79 17 14 13 45 31 35 54 33 37 71 21 48 41 25 37 1 46 58 23 49 43 79 22 11 13 36 46 53 3 61 9 80 32 53 57 25 57 53 66 17 51 50 61 66 40 64 62 62 57 57 65 25 31 58 86 53 51 80 74 46 56 63 42 79 6 88 7 40 63 37 51 60 54 48 30 70 69 41 32 35 82 73 93 79 58 21 82 18 55 36 61 19 44 46 39 62 64 74 63 93 68 70 25 70 44 20 57 59 41 6 32 58 44 73 58 23 53 7 41 63 51 40 11 17 69 55 44 74 80 4 29 8 37 65 48 52 42 22 89 18 62 31 50 34 74 81 27 66 54 66 83 47 76 46 64 20 52 64 74 56 15 90 96 20 73 81 76 47 71 61 79 82 77 56 65 49 68 64 47 53 13 38 87 59 92 91 91 96 72 85 102 73 63 90 21 52 57 71 47 80 56 67 38 76 79 72 102 76 80 60 73 68 13 23 46 69 38 35 43 19 69 46 29 12 69 37 52 67 26 12 50 45 14 17 66 59 19 32 2 35 76 40 57 36 29 93 41 60 33 37 45 85 76 44 76 67 74 74 74 56 83 14 97 89 81 81 59 58 64 89 73 66 84 73 18 61 83 13 110 52 66 68 62 78 67 58 64 42 89 79 55 69 102 79 77 90 20 103 59 81 69 42 69 28 67 66 62 26 46 42 4 58 102 42 47 47 66 42 60 58 55 62 52 20 51 21 20 62 82 53 46 80 46 15 61 43 29 45 75 56 43 48 62 13 29 32 15 76 66 70 0 35 83 59 8 34 43 80 27 32 37 64 44 50 56 59 70 88 40 90 65 83 52 5 65 59 59 75 75 80 65 31 45 79 41 113 41 47 66 52 82 71 60 74 40 95 58 86 73 92 39 39 92 61 78 27 46 47 33 77 36 56 18 35 53 70 29 58 59 91 91 58 58 22 16 43 60 61 26 4 33 60 24 31 36 75 30 7 63 42 47 67 61 7 11 70 33 28 23 73 13 4 12 17 58 73 65 4 43 43 34 7 35 75 83 74 55 34 63 32 68 29 54 69 74 71 52 86 33 59 48 68 47 47 66 82 84 56 44 36 59 42 93 50 24 29 55 50 75 60 78 22 74 46 68 59 69 38 34 79 69 62 35 90 70 58 63 51 87 74 50 48 58 60 39 55 65 35 21 50 55 30 23 25 87 42 40 43 41 56 15 68 20 59 67 68 7 51 61 46 26 45 56 15 13 39 63 1 51 36 36 24 41 0 74 70 52 53 47 52 73 66 57 19 33 73 50 73 68 56 49 53 55 49 91 69 56 57 59 51 38 70 75 62 6 12 33 58 61 27 60 36 48 51 50 8 50 70 40 35 68 43 32 46 25 33 45 65 12 52 80 58 49 56 48 62 80 70 27 34 16 47 50 59 45 53 36 57 59 33 55 79 9 74 2 0 60 40 51 45 69 71 68 29 32 46 43 17 60 47 61 50 68 42 0 51 33 26 54 17 34 80 74 76 50 56 68 54 63 22 66 45 68 45 39 65 46 46 31 57 47 52 35 73 44 58 32 22 56 61 10 12 17 55 44 66 67 57 21 59 50 52 49 41 59 44 23 64 54 42 61 55 62 69 50 53 22 7 29 55 53 41 45 38 54 46 53 42 50 52 67 78 37 53 25 57 50 44 30 16 67 47 48 44 51 36 47 42 66 42 50 3 44 42 27 48 36 63 48 54 67 4 29 2 30 63 30 32 18 50 88 27 23 61 55 31 30 39 64 31 57 11 46 18 57 40 58 68 29 25 56 55 47 9 8 42 29 15 25 9 34 37 59 56 49 0 64 63 7 23 44 52 26 28 41 33 44 53 48 56 41 23 57 16 37 36 39 10 20 49 33 2 37 26 45 45 47 76 83 12 22 19 38 47 6 16 13 37 30 55 23 33 23 23 15 32 40 44 14 47 0 22 18 41 27 1 76 60 26 39 33 30 44 28 31 36 8 71 0 17 29 16 37 39 27 38 9 46 49 10 16 42 24 48 46 46 39 3 33 25 2 6 20 24 13 19 15 12 31 4 14 5 5 56 39 21 16 35 34 1 11 18 13 26 39 0 30 24 36 21 4 23 29 3 43 18 6 34 8 35 1 34 11 9 54 58 15 5 17 9 25 19 7 8 11 18 27 8 19 22 3 16 10 38 21 8 24 7 8 16 19 12 22 63 59 28 17 24 38 28 19 21 35 2 4 32 28 50 7 0 22 22 16 28 35 8 12 23 19 39 41 31 35 26 20 9 20 10 11 14 10 5 3 29 34 25 27 31 17 0 23 31 2 21 16 21 23 15 12 18 4 26 21 39 34 17 6 3 3 18 0 32 11 3 8 2 25 12 26 10 20 68 80 39 4 14 2 29 20 4 7 1 23 12 8 12 12 9 11 9 13 14 18 1 0 18 20 39 21 12 47 14 4 23 20 20 5 11 22 23 12 36 8 9 59 9 29 3 7 34 30 19 19 15 16 10 39 36 28 10 23 25 36 8 24 1 11 21 28 6 0 31 37 19 4 22 9 5 10 27 32 11 11 24 30 2 16 12 19 35 35 17 6 13 11 18 6 10 1 15 27 6 12 6 14 17 20 23 55 71 29 3 9 6 30 2 15 15 7 20 13 12 13 13 19 5 0 12 19 6 22 3 18 7 31 18 5 21 33 22 4 20 11 3 11 21 23 30 23 10 9 42 23 16 18 1 39 14 6 15 13 9 22 23 11 11 18 20 30 16 10 22 13 6 18 26 3 16 23 43 32 12 5 20 11 4 23 10 6 8 5 14 14 16 8 29 17 17 11 11 7 5 43 16 2 20 23 17 22 17 2 5 6 10 13 45 76 1 6 23 13 25 6 3 8 24 9 12 20 18 27 19 6 7 7 9 9 25 22 15 5 6 13 1 27 36 19 15 13 26 27 20 33 10 0 3 11 16 4 31 19 31 8 36 17 16 5 18 38 31 24 21 21 24 3 37 11 3 10 25 6 19 11 6 21 20 39 27 5 9 18 4 14 18 10 12 3 0 5 6 23 22 35 12 2 12 9 11 17 29 17 5 8 0 19 13 0 0 7 5 35 8 40 77 11 16 15 19 19 23 0 5 14 18 13 22 8 16 10 1 12 4 4 13 14 14 3 0 2 11 5 13 15 4 18 1 18 15 22 16 28 20 4 8 32 4 18 29 19 19 38 18 20 6 29 31 17 31 23 25 17 0 38 17 14 0 44 17 8 4 4 49 22 32 5 4 16 9 3 4 16 22 27 1 7 10 8 6 33 35 25 32 24 20 16 3 10 12 21 11 6 16 15 0 3 8 6 38 27 51 65 11 24 16 23 19 29 8 13 12 11 16 8 10 9 11 7 11 12 10 1 21 3 24 10 6 8 19 3 3 4 1 0 1 4 4 12 41 14 4 1 26 18 44 0 2 17 36 15 15 15 27 1 19 41 16 26 2 2 27 31 26 23 35 19 4 28 25 50 31 20 14 35 31 13 9 14 30 22 30 0 15 16 9 4 44 39 46 37 18 23 4 16 17 9 29 8 0 24 6 14 17 1 10 27 28 9 44 16 24 24 4 16 20 14 26 16 4 17 4 17 12 19 13 17 26 14 12 30 6 14 21 22 2 22 18 10 12 24 6 28 15 12 11 21 35 17 3 1 15 52 9 3 14 29 19 27 3 12 7 6 32 30 10 19 24 11 30 5 10 18 17 16 19 17 14 1 5 15 34 31 9 8 10 13 11 25 2 16 15 11 12 31 33 48 8 8 3 7 8 6 2 26 9 6 28 14 11 12 18 28 27 4 34 30 9 14 28 4 15 4 14 25 13 0 9 2 7 9 22 13 13 32 9 10 17 22 7 17 24 15 9 23 14 4 29 3 42 18 2 2 9 19 13 22 1 15 39 4 9 9 18 29 26 9 6 1 13 17 24 9 21 17 14 13 13 1 6 14 13 1 2 5 0 2 4 0 11 6 5 6 6 6 14 1 9 14 11 10 12 13 25 10 2 2 13 9 1 0 13 8 12 4 3 1 1 17 9 5 3 20 5 0 10 12 4 13 0 7 7 5 8 0 3 3 13 14 7 2 18 5 2 3 14 14 19 10 1 13 13 20 2 13 14 26 1 3 4 0 0 0 22 4 2 10 9 17 5 2 16 2 6 3 3 15 13 9 3 7 4 5 2 9 4 11 11 3 9 5 7 1 6 1 6 6 6 3 1 1 4 7 0 0 4 8 2 3 2 7 3 6 0 2 11 1 2 2 4 7 1 7 4 0 6 0 6 0 6 0 2 2 0 0 6 2 0 0 3 6 0 0 4 16 6 6 0 2 0 0 0 2 7 16 9 3 10 13 17 1 5 5 1 4 1 1 3 0 3 12 0 0 12 3 7 6 1 3 8 4 5 8 16 7 1 5 7 6 4 1 1 4 3 8 0 3 10 15 1 4 0 3 6 10 11 3 5 2 2 1 0 2 0 5 5 1 4 1 6 0 2 4 2 5 0 2 0 1 3 4 0 1 0 4 3 7 7 1 0 0 0 5 0 0 0 2 1 0 0 0 8 0 7 3 0 0 2 1 0 3 2 5 1 1 5 4 0 2 0 3 0 0 0 2 1 1 2 8 0 4 10 2 1 0 1 0 6 7 5 16 5 0 0 14 5 0 0 0 0 0 1 0 1 3 10 1 1 0 2 1 5 2 5 5 0 0 0 1 3 3 2 5 0 1 2 2 1 1 0 2 3 2 2 0 1 0 0 0 0 0 0 0 3 12 0 0 0 0 4 0 0 0 0 0 0 0 0 3 0 7 2 1 1 0 1 0 0 0 0 0 0 1 0 0 2 1 2 1 0 2 2 0 1 0 7 0 2 5 3 1 0 0 0 3 4 2 12 3 0 4 2 1 0 0 0 0 1 0 1 0 2 3 0 0 2 2 0 2 0 2 2 0 2 0 3 0 1 2 1 0 1 2 0 1 0 0 1 1 1 2 0 0 0 0 2 0 0 0 1 7 7 0 0 0 0 3 4 1 0 0 1 1 0 1 2 1 1 0 0 0 0 0 0 0 0 0 1 0 1 0 0 2 0 3 3 2 1 1 0 4 1 1 1 0 5 0 1 0 0 0 0 1 1 4 0 0 6 3 3 0 0 0 0 0 1 2 0 2 1 0 0 1 0 0 0 1 0 0 0 1 0 1 0 0 2 2 0 0 2 0 0 0 0 0 0 0 0 1 0 0 0 0 0 0 0 0 4 0 0 0 0 0 0 4 1 0 0 0 0 0 0 0 2 0 0 0 0 0 1 0 0 0 0 0 0 1 0 0 0 0 0 0 1 0 1 0 2 0 0 3 0 1 1 3 0 0 0 1 0 0 0 0 0 4 3 2 1 0 0 0 0 0 0 0 0 0 0 0 0 0 0 0 1 0 0 0 0 0 0 0 1 0 0 0 0 0 0 0 0 0 0 0 0 0 0 0 0 0 0 0 0 0 0 0 0 0 0 0 0 0 0 0 0 0 0 1 0 0 0 0 0 0 0 0 0 0 0 0 0 0 0 0 1 0 0 0 0 0 0 0 0 0 0 0 0 0 1 0 0 0 1 0 0 0 0 0 0 0 0 0 0 0 0 0 0 0 0 0 0 0 0 1 0 0 0 0 0 0 0 0 0 0 0 0 0 1 0 1 0 0 0 0 0 0 0 0 0 0 0 0 0 0 0 0 0 0 0 0 0 0 0 0 0 0 0 0 0 0 0 0 0 0 1 0 0 0 0 0 0 0 0 0 0 0 0 0 0 0 0 1 0 0 0 0 0 0 0 0 0 0 0 0 0 0 0 0 0 0 0 0 0 0 0 0 0 0 0 0 0 0 0 0 0 0 0 0 0 0 1 0 0 0 0 0 0 0 0 0 0 0 0 0 1 0 1 0 0 0 0 0 0 0 0 0 0 0 0 0 0 0 0 0 0 0 0 0 0 0 0 0 0 0 0 0 0 0 0 0 0 0 0 0 0 0 0 0 0 0 0 0 0 0 0 0 0 0 0 0 0 0 0 0 0 0 0 0 0 0 0 0 0 0 0 0 0 0 0 0 0 0 0 0 0 0 0 0 0 0 0 0 0 0 0 0 1 2 2 0 0 0 0 0 0 0 0 0 0 1 0 0 0 0 0 0 0 0 0 0 0 0 0 0 0 0 0 0 0 0 0 0 0 0 0 0 0 0 0 0 0 0 0 0 0 0 0 0 0 0 0 0 0 0 0 0 0 0 0 0 0 0 0 0 0 0 0 0 0 0 0 0 0 0 0 0 0 0 0 0 0 0 0 0 0 0 0 0 0 0 0 0 0 0 0 0 0 0 0 0 0 0 0 0 2 2 0 0 0 0 0 0 0 1 0 0 2 0 0 0 0 0 0 0 0 0 0 0 0 0 0 0 0 0 0 0 1 0 0 0 0 0 0 0 0 0 0 0 0 0 0 0 0 0 0 0 0 0 0 0 0 0 0 0 0 0 0 0 0 0 0 0 0 0 0 0 0 0 0 0 0 0 1 0 0 0 0 0 0 0 0 0 1 0 0 0 0 0 0 0 0 0 0 0 0 0 0 0 0 0 0 0 0 0 0 0 0 0 0 0 0 0 0 0 0 0 0 0 0 0 0 0 0 0 0 0 0 0 0 0 0 0 0 0 0 0 0 0 0 0 0 0 0 0 0 0 0 0 0 0 0 0 0 0 0 0 0 0 0 0 0 0 0 0 0 0 0 0 0 0 0 0 0 0 0 0 0 0 0 0 0 0 0 0 0 0 0 0 0 0 0 0 0 0 0 0 0 0 0 0 0 0 0 0 0 0 0 0 0 0 0 0 0 0 0 0 0 0 0 0 0 0 0 0 0 0 0 0 0 0 0 0 0 0 0 0 0 0 0 0 0 0 0 0 0 0 0 0 0 0 0 0 0 0 0 0 0 0 0 0 0 0 0 0 0 0 0 0 0 0 0 0 0 0 0 0 0 0 0 0 0 0 0 0 0 0 0 0 0 0 0 0 0 0 0 0 0 0 0 0 0 0 0 0 0 0 0 0 0 0 0 0 0 0 0 0 0 0 0 0 0 0 0 0 0 0 0 0 0 0 0 0 0 0 0 0 0 0 0 0 0 0 0 0 0 0 0 0 0 0 0 0 0 0 0 0 0 0 0 0 0 0 0 0 0 0 0 0 0 0 0 0 0 0 0 0 0 0 0 0 0 0 0 0 0 0 0 0 0 0 0 0 0 0 0 0 0 0 0 0 0 0 0 0 0 0 0 0 0 0 0 0 0 0 0 0 0 0 0 0 0 0 0 0 0 0 0 0 0 0 0 0 0 0 0 0 0 0 0 0 0 0 0 0 0 0 0 0 0 0 0 0 0 0 0 0 0 0 0 0 0 0 0 0 0 0 0 0 0 0 0 0 0 0 0 0 0 0 0 0 0 0 0 0 0 0 0 0 0 0 0 0 0 0 0 0 0 0 0 0 0 0 0 0 0 0 0 0 0 0 0 0 0 0 0 0 0 0 0 0 0 0 0 0 0 0 0 0 0 0 0 0 0 0 0 0 0 0 0 0 0 0 0 0 0 0 0 0 0 0 0 0 0 0 0 0 0 0 0 0 0 0 0 0 0 0 0 0 0 0 0 0 0 0 0 0 0 0 0 0 0 0 0 0 0 0 0 0 0 0 0 0 0 0 0 0 0 0 0 0 0 0 0 0 0 0 0 0 0 0 0 0 0 0 0 0 0 0 0 0 0 0 0 0 0 0 0 0 0 0 0 0 0 0 0 0 0 0 0 0 0 0 0 0 0 0 0 0 0 0 0 0 0 0 0 0 0 0 0 0 0 0 0 0 0 0 0 0 0 0 0 0 0 0 0 0 0 0 0 0 0 0 0 0 0 0 0 0 0 0 0 0 0 0 0 0 0 0 0 0 0 0 0 0 0 0 0 0 0 0 0 0 0 0 0 0 0 0 0 0 0 0 0 0 0 0 0 0 0 0 0 0 0 0 0 0 0 0 0 0 0 0 0 0 0 0 0 0 0 0 0 0 0 0 0 0 0 0 0 0 0 0 0 0 0 0 0 0 0 0 0 0 0 0 0 0 0 0 0 0 0 0 0 0 0 0 0 0 0 0 0 0 0 0 0 0 0 0 0 0 0 0 0 0 0 0 0 0 0 0 0 0 0 0 0 0 0 0 0 0 0 0 0 0 0 0 0 0 0 0 0 0 0 0 0 0 0 0 0 0 0 0 0 0 0 0 0 0 0 0 0 0 0 0 0 0 0 0 0 0 0 0 0 0 0 0 0 0 0 0 0 0 0 0 0 0 0 0 0 0 0 0 0 0 0 0 0 0 0 0 0 0 0 0 0 0 0 0 0 0 0 0 0 0 0 0 0 0 0 0 0 0 0 0 0 0 0 0 0 0 0 0 0 0 0 0 0 0 0 0 0 0 0 0 0 0 0 0 0 0 0 0 0 0 0 0 0 0 0 0 0 0 0 0 0 0 0 0 0 0 0 0 0 0 0 0 0 0 0 0 0 0 0 0 0 0 0 0 0 0 0 0 0 0 0 0 0 0 0 0 0 0 0 0 0 0 0 0 0 0 0 0 0 0 0 0 0 0 0 0 0 0 0 0 0 0 0 0 0 0 0 0 0 0 0 0 0 0 0 0 0 0 0 0 0 0 0 0 0 0 0 0 0 0 0 0 0 0 0 0 0 0 0 0 0 0 0 0 0 0 0 0 0 0 0 0 0 0 0 0 0 0 0 0 0 0 0 0 0 0 0 0 0 0 0 0 0 0 0 0 0 0 0 0 0 0 0 0 0 0 0 0 0 0 0 0 0 0 0 0 0 0 0 0 0 0 0 0 0 0 0 0 0 0 0 0 0 0 0 0 0 0 0 0 0 0 0 0 0 0 0 0 0 0 0 0 0 0 0 0 0 0 0 0 0 0 0 0 0 0 0 0 0 0 0 0 0 0 0 0 0 0 0 0 0 0 0 0 0 0 0 0 0 0 0 0 0 0 0 0 0 0 0 0 0 0 0 0 0 0 0 0 0 0 0 0 0 0 0 0 0 0 0 0 0 0 0 0 0 0 0 0 0 0 0 0 0 0 0 0 0 0 0 0 0 0 0 0 0 0 0 0 0 0 0 0 0 0 0 0 0 0 0 0 0 0 0 0 0 0 0 0 0 0 0 0 0 0 0 0 0 0 0 0 0 0 0 0 0 0 0 0 0 0 0 0 0 0 0 0 0 0 0 0 0 0 0 0 0 0 0 0 0 0 0 0 0 0 0 0 0 0 0 0 0 0 0 0 0 0 0 0 0 0 0 0 0 0 0 0 0 0 0 0 0 0 0 0 0 0 0 0 0 0 0 0 0 0 0 0 0 0 0 0 0 0 0 0 0 0 0 0 0 0 0 0 0 0 0 0 0 0 0 0 0 0 0 0 0 0 0 0 0 0 0 0 0 0 0 0 0 0 0 0 0 0 0 0 0 0 0 0 0 0 0 0 0 0 0 0 0 0 0 0 0 0 0 0 0 0 0 0 0 0 0 0 0 0 0 0 0 0 0 0 0 0 0 0 0 0 0 0 0 0 0 0 0 0 0 0 0 0 0 0 0 0 0 0 0 0 0 0 0 0 0 0 0 0 0 0 0 0 0 0 0 0 0 0 0 0 0 0 0 0 0 0 0 0 0 0 0 0 0 0 0 0 0 0 0 0 0 0 0 0 0 0 0 0 0 0 0 0 0 0 0 0 0 0 0 0 0 0 0 0 0 0 0 0 0 0 0 0 0 0 0 0 0 0 0 0 0 0 0 0 0 0 0 0 0 0 0 0 0 0 0 0 0 0 0 0 0 0 0 0 0 0 0 0 0 0 0 0 0 0 0 0 0 0 0 0 0 0 0 0 0 0 0 0 0 0 0 0 0 0 0 0 0 0 0 0 0 0 0 0 0 0 0 0 0 0 0 0 0 0 0 0 0 0 0 0 0 0 0 0 0 0 0 0 0 0 0 0 0 0 0 0 0 0 0 0 0 0 0 0 0 0 0 0 0 0 0 0 0 0 0 0 0 0 0 0 0 0 0 0 0 0 0 0 0 0 0 0 0 0 0 0 0 0 0 0 0 0 0 0 0 0 0 0 0 0 0 0 0 0 0 0 0 0 0 0 0 0 0 0 0 0 0 0 0 0 0 0 0 0 0 0 0 0 0 0 0 0 0 0 0 0 0 0 0 0 0 0 0 0 0 0 0 0 0 0 0 0 0 0 0 0 0 0 0 0 0 0 0 0 0 0 0 0 0 0 0 0 0 0 0 0 0 0 0 0 0 0 0 0 0 0 0 0 0 0 0 0 0 0 0 0 0 0 0 0 0 0 0 0 0 0 0 0 0 0 0 0 0 0 0 0 0 0 0 0 0 0 0 0 0 0 0 0 0 0 0 0 0 0 0 0 0 0 0 0 0 0 0 0 0 0 0 0 0 0 0 0 0 0 0 0 0 0 0 0 0 0 0 0 0 0 0 0 0 0 0 0 0 0 0 0 0 0 0 0 0 0 0 0 0 0 0 0 0 0 0 0 0 0 0 0 0 0 0 0 0 0 0 0 0 0 0 0 0 0 0 0 0 0 0 0 0 0 0 0 0 0 0 0 0 0 0 0 0 0 0 0 0 0 0 0 0 0 0 0 0 0 0 0 0 0 0 0 0 0 0 0 0 0 0 0 0 0 0 0 0 0 0 0 0 0 0 0 0 0 0 0 0 0 0 0 0 0 0 0 0 0 0 0 0 0 0 0 0 0 0 0 0 0 0 0 0 0 0 0 0 0 0 0 0 0 0 0 0 0 0 0 0 0 0 0 0 0 0 0 0 0 0 0 0 0 0 0 0 0 0 0 0 0 0 0 0 0 0 0 0 0 0 0 0 0 0 0 0 0 0 0 0 0 0 0 0 0 0 0 0 0 0 0 0 0 0 0 0 0 0 0 0 0 0 0 0 0 0 0 0 0 0 0 0 0 0 0 0 0 0 0 0 0 0 0 0 0 0 0 0 0 0 0 0 0 0 0 0 0 0 0 0 0 0 0 0 0 0 0 0 0 0 0 0 0 0 0 0 0 0 0 0 0 0 0 0 0 0 0 0 0 0 0 0 0 0 0 0 0 0 0 0 0 0 0 0 0 0 0 0 0 0 0 0 0 0 0 0 0 0 0 0 0 0 0 0 0 0 0 0 0 0 0 0 0 0 0 0 0 0 0 0 0 0 0 0 0 0 0 0 0 0 0 0 0 0 0 0 0 0 0 0 0 0 0 0 0 0 0 0 0 0 0 0 0 0 0 0 0 0 0 0 0 0 0 0 0 0 0 0 0 0 0 0 0 0 0 0 0 0 0 0 0 0 0 0 0 0 0 0 0 0 0 0 0 0 0 0 0 0 0 0 0 0 0 0 0 0 0 0 0 0 0 0 0 0 0 0 0 0 0 0 0 0 0 0 0 0 0 0 0 0 0 0 0 0 0 0 0 0 0 0 0 0 0 0 0 0 0 0 0 0 0 0 0 0 0 0 0 0 0 0 0 0 0 0 0 0 0 0 0 0 0 0 0 0 0 0 0 0 0 0 0 0 0 0 0 0 0 0 0 0 0 0 0 0 0 0 0 0 0 0 0 0 0 0 0 0 0 0 0 0 0 0 0 0 0 0 0 0 0 0 0 0 0 0 0 0 0 0 0 0 0 0 0 0 0 0 0 0 0 0 0 0 0 0 0 0 0 0 0 0 0 0 0 0 0 0 0 0 0 0 0 0 0 0 0 0 0 0 0 0 0 0 0 0 0 0 0 0 0 0 0 0 0 0 0 0 0 0 0 0 0 0 0 0 0 0 0 0 0 0 0 0 0 0 0 0 0 0 0 0 0 0 0 0 0 0 0 0 0 0 0 0 0 0 0 0 0 0 0 0 0 0 0 0 0 0 0 0 0 0 0 0 0 0 0 0 0 0 0 0 0 0 0 0 0 0 0 0 0 0 0 0 0 0 0 0 0 0 0 0 0 0 0 0 0 0 0 0 0 0 0 0 0 0 0 0 0 0 0 0 0 0 0 0 0 0 0 0 0 0 0 0 0 0 0 0 0 0 0 0 0 0 0 0 0 0 0 0 0 0 0 0 0 0 0 0 0 0 0 0 0 0 0 0 0 0 0 0 0 0 0 0 0 0 0 0 0 0 0 0 0 0 0 0 0 0 0 0 0 0 0 0 0 0 0 0 0 0 0 0 0 0 0 0 0 0 0 0 0 0 0 0 0 0 0 0 0 0 0 0 0 0 0 0 0 0 0 0 0 0 0 0 0 0 0 0 0 0 0 0 0 0 0 0 0 0 0 0 0 0 0 0 0 0 0 0 0 0 0 0 0 0 0 0 0 0 0 0 0 0 0 0 0 0 0 0 0 0 0 0 0 0 0 0 0 0 0 0 0 0 0 0 0 0 0 0 0 0 0 0 0 0 0 0 0 0 0 0 0 0 0 0 0 0 0 0 0 0 0 0 0 0 0 0 0 0 0 0 0 0 0 0 0 0 0 0 0 0 0 0 0 0 0 0 0 0 0 0 0 0 0 0 0 0 0 0 0 0 0 0 0 0 0 0 0 0 0 0 0 0 0 0 0 0 0 0 0 0 0 0 0 0 0 0 0 0 0 0 0 0 0 0 0 0 0 0 0 0 0 0 0 0 0 0 0 0 0 0 0 0 0 0 0 0 0 0 0 0 0 0 0 0 0 0 0 0 0 0 0 0 0 0 0 0 0 0 0 0 0 0 0 0 0 0 0 0 0 0 0 0 0 0 0 0 0 0 0 0 0 0 0 0 0 0 0 0 0 0 0 0 0 0 0 0 0 0 0 0 0 0 0 0 0 0 0 0 0 0 0 0 0 0 0 0 0 0 0 0 0 0 0 0 0 0 0 0 0 0 0 0 0 0 0 0 0 0 0 0 0 0 0 0 0 0 0 0 0 0 0 0 0 0 0 0 0 0 0 0 0 0 0 0 0 0 0 0 0 0 0 0 0 0 0 0 0 0 0 0 0 0 0 0 0 0 0 0 0 0 0 0 0 0 0 0 0 0 0 0 0 0 0 0 0 0 0 0 0 0 0 0 0 0 0 0 0 0 0 0 0 0 0 0 0 0 0 0 0 0 0 0 0 0 0 0 0 0 0 0 0 0 0 0 0 0 0 0 0 0 0 0 0 0 0 0 0 0 0 0 0 0 0 0 0 0 0 0 0 0 0 0 0 0 0 0 0 0 0 0 0 0 0 0 0 0 0 0 0 0 0 0 0 0 0 0 0 0 0 0 0 0 0 0 0 0 0 0 0 0 0 0 0 0 0 0 0 0 0 0 0 0 0 0 0 0 0 0 0 0 0 0 0 0 0 0 0 0 0 0 0 0 0 0 0 0 0 0 0 0 0 0 0 0 0 0 0 0 0 0 0 0 0 0 0 0 0 0 0 0 0 0 0 0 0 0 0 0 0 0 0 0 0 0 0 0 0 0 0 0 0 0 0 0 0 0 0 0 0 0 0 0 0 0 0 0 0 0 0 0 0 0 0 0 0 0 0 0 0 0 0 0 0 0 0 0 0 0 0 0 0 0 0 0 0 0 0 0 0 0 0 0 0 0 0 0 0 0 0 0 0 0 0 0 0 0 0 0 0 0 0 0 0 0 0 0 0 0 0 0 0 0 0 0 0 0 0 0 0 0 0 0 0 0 0 0 0 0 0 0 0 0 0 0 0 0 0 0 0 0 0 0 0 0 0 0 0 0 0 0 0 0 0 0 0 0 0 0 0 0 0 0 0 0 0 0 0 0 0 0 0 0 0 0 0 0 0 0 0 0 0 0 0 0 0 0 0 0 0 0 0 0 0 0 0 0 0 0 0 0 0 0 0 0 0 0 0 0 0 0 0 0 0 0 0 0 0 0 0 0 0 0 0 0 0 0 0 0 0 0 0 0 0 0 0 0 0 0 0 0 0 0 0 0 0 0 0 0 0 0 0 0 0 0 0 0 0 0 0 0 0 0 0 0 0 0 0 0 0 0 0 0 0 0 0 0 0 0 0 0 0 0 0 0 0 0 0 0 0 0 0 0 0 0 0 0 0 0 0 0 0 0 0 0 0 0 0 0 0 0 0 0 0 0 0 0 0 0 0 0 0 0 0 0 0 0 0 0 0 0 0 0 0 0 0 0 0 0 0 0 0 0 0 0 0 0 0 0 0 0 0 0 0 0 0 0 0 0 0 0 0 0 0 0 0 0 0 0 0 0 0 0 0 0 0 0 0 0 0 0 0 0 0 0 0 0 0 0 0 0 0 0 0 0 0 0 0 0 0 0 0 0 0 0 0 0 0 0 0 0 0 0 0 0 0 0 0 0 0 0 0 0 0 0 0 0 0 0 0 0 0 0 0 0 0 0 0 0 0 0 0 0 0 0 0 0 0 0 0 0 0 0 0 0 0 0 0 0 0 0 0 0 0 0 0 0 0 0 0 0 0 0 0 0 0 0 0 0 0 0 0 0 0 0 0 0 0 0 0 0 0 0 0 0 0 0 0 0 0 0 0 0 0 0 0 0 0 0 0 0 0 0 0 0 0 0 0 0 0 0 0 0 0 0 0 0 0 0 0 0 0 0 0 0 0 0 0 0 0 0 0 0 0 0 0 0 0 0 0 0 0 0 0 0 0 0 0 0 0 0 0 0 0 0 0 0 0 0 0 0 0 0 0 0 0 0 0 0 0 0 0 0 0 0 0 0 0 0 0 0 0 0 0 0 0 0 0 0 0 0 0 0 0 0 0 0 0 0 0 0 0 0 0 0 0 0 0 0 0 0 0 0 0 0 0 0 0 0 0 0 0 0 0 0 0 0 0 0 0 0 0 0 0 0 0 0 0 0 0 0 0 0 0 0 0 0 0 0 0 0 0 0 0 0 0 0 0 0 0 0 0 0 0 0 0 0 0 0 0 0 0 0 0 0 0 0 0 0 0 0 0 0 0 0 0 0 0 0 0 0 0 0 0 0 0 0 0 0 0 0 0 0 0 0 0 0 0 0 0 0 0 0 0 0 0 0 0 0 0 0 0 0 0 0 0 0 0 0 0 0 0 0 0 0 0 0 0 0 0 0 0 0 0 0 0 0 0 0 0 0 0 0 0 0 0 0 0 0 0 0 0 0 0 0 0 0 0 0 0 0 0 0 0 0 0 0 0 0 0 0 0 0 0 0 0 0 0 0 0 0 0 0 0 0 0 0 0 0 0 0 0 0 0 0 0 0 0 0 0 0 0 0 0 0 0 0 0 0 0 0 0 0 0 0 0 0 0 0 0 0 0 0 0 0 0 0 0 0 0 0 0 0 0 0 0 0 0 0 0 0 0 0 0 0 0 0 0 0 0 0 0 0 0 0 0 0 0 0 0 0 0 0 0 0 0 0 0 0 0 0 0 0 0 0 0 0 0 0 0 0 0 0 0 0 0 0 0 0 0 0 0 0 0 0 0 0 0 0 0 0 0 0 0 0 0 0 0 0 0 0 0 0 0 0 0 0 0 0 0 0 0 0 0 0 0 0 0 0 0 0 0 0 0 0 0 0 0 0 0 0 0 0 0 0 0 0 0 0 0 0 0 0 0 0 0 0 0 0 0 0 0 0 0 0 0 0 0 0 0 0 0 0 0 0 0 0 0 0 0 0 0 0 0 0 0 0 0 0 0 0 0 0 0 0 0 0 0 0 0 0 0 0 0 0 0 0 0 0 0 0 0 0 0 0 0 0 0 0 0 0 0 0 0 0 0 0 0 0 0 0 0 0 0 0 0 0 0 0 0 0 0 0 0 0 0 0 0 0 0 0 0 0 0 0 0 0 0 0 0 0 0 0 0 0 0 0 0 0 0 0 0 0 0 0 0 0 0 0 0 0 0 0 0 0 0 0 0 0 0 0 0 0 0 0 0 0 0 0 0 0 0 0 0 0 0 0 0 0 0 0 0 0 0 0 0 0 0 0 0 0 0 0 0 0 0 0 0 0 0 0 0 0 0 0 0 0 0 0 0 0 0 0 0 0 0 0 0 0 0 0 0 0 0 0 0 0 0 0 0 0 0 0 0 0 0 0 0 0 0 0 0 0 0 0 0 0 0 0 0 0 0 0 0 0 0 0 0 0 0 0 0 0 0 0 0 0 0 0 0 0 0 0 0 0 0 0 0 0 0 0 0 0 0 0 0 0 0 0 0 0 0 0 0 0 0 0 0 0 0 0 0 0 0 0 0 0 0 0 0 0 0 0 0 0 0 0 0 0 0 0 0 0 0 0 0 0 0 0 0 0 0 0 0 0 0 0 0 0 0 0 0 0 0 0 0 0 0 0 0 0 0 0 0 0 0 0 0 0 0 0 0 0 0 0 0 0 0 0 0 0 0 0 0 0 0 0 0 0 0 0 0 0 0 0 0 0 0 0 0 0 0 0 0 0 0 0 0 0 0 0 0 0 0 0 0 0 0 0 0 0 0 0 0 0 0 0 0 0 0 0 0 0 0 0 0 0 0 0 0 0 0 0 0 0 0 0 0 0 0 0 0 0 0 0 0 0 0 0 0 0 0 0 0 0 0 0 0 0 0 0 0 0 0 0 0 0 0 0 0 0 0 0 0 0 0 0 0 0 0 0 0 0 0 0 0 0 0 0 0 0 0 0 0 0 0 0 0 0 0 0 0 0 0 0 0 0 0 0 0 0 0 0 0 0 0 0 0 0 0 0 0 0 0 0 0 0 0 0 0 0 0 0 0 0 0 0 0 0 0 0 0 0 0 0 0 0 0 0 0 0 0 0 0 0 0 0 0 0 0 0 0 0 0 0 0 0 0 0 0 0 0 0 0 0 0 0 0 0 0 0 0 0 0 0 0 0 0 0 0 0 0 0 0 0 0 0 0 0 0 0 0 0 0 0 0 0 0 0 0 0 0 0 0 0 0 0 0 0 0 0 0 0 0 0 0 0 0 0 0 0 0 0 0 0 0 0 0 0 0 0 0 0 0 0 0 0 0 0 0 0 0 0 0 0 0 0 0 0 0 0 0 0 0 0 0 0 0 0 0 0 0 0 0 0 0 0 0 0 0 0 0 0 0 0 0 0 0 0 0 0 0 0 0 0 0 0 0 0 0 0 0 0 0 0 0 0 0 0 0 0 0 0 0 0 0 0 0 0 0 0 0 0 0 0 0 0 0 0 0 0 0 0 0 0 0 0 0 0 0 0 0 0 0 0 0 0 0 0 0 0 0 0 0 0 0 0 0 0 0 0 0 0 0 0 0 0 0 0 0 0 0 0 0 0 0 0 0 0 0 0 0 0 0 0 0 0 0 0 0 0 0 0 0 0 0 0 0 0 0 0 0 0 0 0 0 0 0 0 0 0 0 0 0 0 0 0 0 0 0 0 0 0 0 0 0 0 0 0 0 0 0 0 0 0 0 0 0 0 0 0 0 0 0 0 0 0 0 0 0 0 0 0 0 0 0 0 0 0 0 0 0 0 0 0 0 0 0 0 0 0 0 0 0 0 0 0 0 0 0 0 0 0 0 0 0 0 0 0 0 0 0 0 0 0 0 0 0 0 0 0 0 0 0 0 0 0 0 0 0 0 0 0 0 0 0 0 0 0 0 0 0 0 0 0 0 0 0 0 0 0 0 0 0 0 0 0 0 0 0 0 0 0 0 0 0 0 0 0 0 0 0 0 0 0 0 0 0 0 0 0 0 0 0 0 0 0 0 0 0 0 0 0 0 0 0 0 0 0 0 0 0 0 0 0 0 0 0 0 0 0 0 0 0 0 0 0 0 0 0 0 0 0 0 0 0 0 0 0 0 0 0 0 0 0 0 0 0 0 0 0 0 0 0 0 0 0 0 0 0 0 0 0 0 0 0 0 0 0 0 0 0 0 0 0 0 0 0 0 0 0 0 0 0 0 0 0 0 0 0 0 0 0 0 0 0 0 0 0 0 0 0 0 0 0 0 0 0 0 0 0 0 0 0 0 0 0 0 0 0 0 0 0 0 0 0 0 0 0 0 0 0 0 0 0 0 0 0 0 0 0 0 0 0 0 0 0 0 0 0 0 0 0 0 0 0 0 0 0 0 0 0 0 0 0 0 0 0 0 0 0 0 0 0 0 0 0 0 0 0 0 0 0 0 0 0 0 0 0 0 0 0 0 0 0 0 0 0 0 0 0 0 0 0 0 0 0 0 0 0 0 0 0 0 0 0 0 0 0 0 0 0 0 0 0 0 0 0 0 0 0 0 0 0 0 0 0 0 0 0 0 0 0 0 0 0 0 0 0 0 0 0 0 0 0 0 0 0 0 0 0 0 0 0 0 0 0 0 0 0 0 0 0 0 0 0 0 0 0 0 0 0 0 0 0 0 0 0 0 0 0 0 0 0 0 0 0 0 0 0 0 0 0 0 0 0 0 0 0 0 0 0 0 0 0 0 0 0 0 0 0 0 0 0 0 0 0 0 0 0 0 0 0 0 0 0 0 0 0 0 0 0 0 0 0 0 0 0 0 0 0 0 0 0 0 0 0 0 0 0 0 0 0 0 0 0 0 0 0 0 0 0 0 0 0 0 0 0 0 0 0 0 0 0 0 0 0 0 0 0 0 0 0 0 0 0 0 0 0 0 0 0 0 0 0 0 0 0 0 0 0 0 0 0 0 0 0 0 0 0 0 0 0 0 0 0 0 0 0 0 0 0 0 0 0 0 0 0 0 0 0 0 0 0 0 0 0 0 0 0 0 0 0 0 0 0 0 0 0 0 0 0 0 0 0 0 0 0 0 0 0 0 0 0 0 0 0 0 0 0 0 0 0 0 0 0 0 0 0 0 0 0 0 0 0 0 0 0 0 0 0 0 0 0 0 0 0 0 0 0 0 0 0 0 0 0 0 0 0 0 0 0 0 0 0 0 0 0 0 0 0 0 0 0 0 0 0 0 0 0 0 0 0 0 0 0 0 0 0 0 0 0 0 0 0 0 0 0 0 0 0 0 0 0 0 0 0 0 0 0 0 0 0 0 0 0 0 0 0 0 0 0 0 0 0 0 0 0 0 0 0 0 0 0 0 0 0 0 0 0 0 0 0 0 0 0 0 0 0 0 0 0 0 0 0 0 0 0 0 0 0 0 0 0 0 0 0 0 0 0 0 0 0 0 0 0 0 0 0 0 0 0 0 0 0 0 0 0 0 0 0 0 0 0 0 0 0 0 0 0 0 0 0 0 0 0 0 0 0 0 0 0 0 0 0 0 0 0 0 0 0 0 0 0 0 0 0 0 0 0 0 0 0 0 0 0 0 0 0 0 0 0 0 0 0 0 0 0 0 0 0 0 0 0 0 0 0 0 0 0 0 0 0 0 0 0 0 0 0 0 0 0 0 0 0 0 0 0 0 0 0 0 0 0 0 0 0 0 0 0 0 0 0 0 0 0 0 0 0 0 0 0 0 0 0 0 0 0 0 0 0 0 0 0 0 0 0 0 0 0 0 0 0 0 0 0 0 0 0 0 0 0 0 0 0 0 0 0 0 0 0 0 0 0 0 0 0 0 0 0 0 0 0 0 0 0 0 0 0 0 0 0 0 0 0 0 0 0 0 0 0 0 0 0 0 0 0 0 0 0 0 0 0 0 0 0 0 0 0 0 0 0 0 0 0 0 0 0 0 0 0 0 0 0 0 0 0 0 0 0 0 0 0 0 0 0 0 0 0 0 0 0 0 0 0 0 0 0 0 