P2
154 129
255
0 0 0 0 0 0 0 0 0 0 0 0 0 0 0 0 0 0 0 0 0 0 0 0 0 0 0 0 0 0 0 0 0 0 0 0 0 0 0 0 0 0 0 0 0 0 0 0 0 0 0 0 0 0 0 0 0 0 0 0 0 0 0 0 0 0 0 0 0 0 0 0 0 0 0 0 0 0 0 0 0 0 0 0 0 0 0 0 0 0 0 0 0 0 0 0 0 0 0 0 0 0 0 0 0 0 0 0 0 0 0 0 0 0 0 0 0 0 0 0 0 0 0 0 0 0 0 0 0 0 0 0 0 0 0 0 0 0 0 0 0 0 0 0 0 0 0 0 0 0 0 0 0 0 0 0 0 0 0 0 0 0 0 0 0 0 0 0 0 0 0 0 0 0 0 0 0 0 0 0 0 0 0 0 0 0 0 0 0 0 0 0 0 0 0 0 0 0 0 0 0 0 0 0 0 0 0 0 0 0 0 0 0 0 0 0 0 0 0 0 0 0 0 0 0 0 0 0 0 0 0 0 0 0 0 0 0 0 0 0 0 0 0 0 0 0 0 0 0 0 0 0 0 0 0 0 0 0 0 0 0 0 0 0 0 0 0 0 0 0 0 0 0 0 0 0 0 0 0 0 0 0 0 0 0 0 0 0 0 0 0 0 0 0 0 0 0 0 0 0 0 0 0 0 0 0 0 0 65 66 126 120 91 76 116 106 90 75 118 122 103 83 99 54 108 78 67 157 153 172 184 185 198 196 192 205 197 179 194 183 171 173 178 174 181 180 176 190 173 137 163 159 130 157 162 179 169 194 197 209 173 239 161 228 202 149 230 216 230 197 138 221 214 229 190 181 205 190 224 194 210 190 210 188 161 208 186 195 176 198 182 175 180 181 151 181 174 184 171 200 165 198 172 202 178 199 180 195 198 192 206 169 199 212 197 230 196 197 205 200 206 206 210 212 181 208 208 205 205 179 206 213 164 214 218 205 173 192 201 179 131 159 156 155 177 176 146 176 194 188 156 144 145 162 149 164 149 136 150 116 92 114 37 87 124 114 59 123 125 115 53 80 122 116 77 115 127 104 94 104 116 114 110 160 122 85 147 102 118 134 109 130 141 116 110 88 103 64 81 97 89 127 25 133 102 4 128 111 119 132 138 164 179 192 168 237 181 222 219 219 237 236 233 230 216 237 229 234 239 211 239 229 239 219 226 197 187 221 200 223 110 207 196 216 186 179 177 182 174 179 96 197 159 188 194 170 184 176 196 180 205 193 203 201 195 202 198 229 198 236 226 214 198 164 106 191 180 213 186 164 190 155 164 204 158 159 167 145 161 178 121 85 119 161 145 104 122 142 146 129 164 141 143 130 121 120 64 134 82 124 105 91 138 121 93 112 81 70 93 103 90 111 97 100 90 37 111 105 97 92 97 101 88 91 108 65 110 107 68 110 81 101 144 98 101 137 91 67 89 98 112 74 107 93 89 104 96 121 103 99 113 112 80 82 130 94 163 117 136 200 188 194 219 207 226 229 175 237 193 236 232 232 253 208 255 238 236 226 233 236 206 252 187 238 176 223 214 205 203 97 187 179 158 96 100 190 152 179 193 161 179 148 182 153 193 185 183 197 201 210 208 216 201 215 209 205 197 143 186 153 130 200 167 129 180 146 173 183 154 172 119 137 148 149 121 114 128 104 141 101 133 146 116 130 109 138 81 96 95 78 79 111 100 55 63 64 109 111 93 119 66 32 77 89 64 62 49 52 78 83 79 92 93 64 13 18 91 75 42 63 84 29 68 70 42 89 88 40 56 89 100 53 49 87 47 43 82 31 20 94 74 73 71 81 57 40 37 110 107 71 147 137 147 159 103 191 134 145 192 184 172 182 192 209 195 221 211 216 230 206 228 195 228 220 223 239 200 233 155 229 168 210 164 185 167 139 177 116 160 169 198 182 191 163 170 171 160 169 166 185 180 169 189 128 165 159 138 171 105 165 132 144 164 90 147 155 124 100 154 118 115 134 92 140 142 76 137 88 100 82 89 46 116 73 94 101 94 122 114 89 49 75 78 74 76 9 56 56 63 70 40 51 58 78 34 59 86 79 32 37 42 37 30 79 46 79 70 65 59 36 46 97 65 73 36 45 64 81 52 72 59 81 24 69 75 54 68 90 58 75 75 32 42 11 77 53 48 18 16 53 77 91 74 83 130 127 148 149 144 174 141 140 138 127 171 144 157 165 158 188 157 137 164 123 198 145 205 183 178 194 175 190 169 199 173 200 168 196 161 185 172 167 149 135 173 164 156 159 158 170 147 168 155 165 159 150 163 144 139 159 116 144 88 148 116 134 127 106 93 108 123 107 130 111 86 124 108 100 90 63 108 70 98 55 61 72 94 51 85 62 89 81 70 86 66 36 96 45 92 63 37 53 79 79 67 43 83 50 38 40 41 84 78 54 4 41 62 60 20 62 54 63 67 47 35 86 40 82 40 53 34 64 71 46 40 87 63 44 46 52 71 56 48 90 76 70 13 67 72 43 52 93 82 37 48 87 81 52 146 134 129 141 135 167 163 136 168 147 175 169 137 185 147 186 169 128 169 54 186 159 177 176 179 179 169 178 106 195 97 193 134 181 114 189 151 186 138 175 133 179 113 169 51 173 97 148 102 140 116 132 142 100 107 112 116 54 72 119 81 82 100 93 80 110 100 86 103 76 70 108 98 87 72 69 58 44 44 62 59 47 68 33 67 33 98 94 49 93 50 61 77 59 101 49 79 74 66 78 65 49 77 55 50 21 32 65 74 35 46 9 47 66 34 45 37 54 53 48 45 48 17 75 13 62 47 33 16 27 7 62 50 19 42 13 43 1 48 47 84 64 37 47 45 24 61 84 82 59 70 82 81 84 167 163 96 176 160 175 192 169 174 185 179 171 171 190 170 182 182 158 183 154 178 149 168 153 122 177 162 193 128 204 179 193 191 112 154 170 169 176 123 187 73 175 135 149 145 153 144 96 144 129 130 103 156 99 77 90 110 124 82 84 75 44 107 77 94 119 66 78 79 55 98 82 69 88 62 74 51 67 63 59 56 46 33 25 63 76 91 75 66 76 59 48 7 78 83 58 77 59 53 66 33 82 62 87 40 34 51 41 52 28 7 8 34 56 6 20 20 42 16 30 23 21 46 45 18 16 45 18 43 18 42 32 30 38 11 7 45 32 44 46 39 7 5 4 34 34 26 27 52 63 75 32 59 76 161 136 145 163 147 177 172 163 149 168 119 103 163 158 145 179 142 167 155 153 141 119 144 126 120 125 147 168 131 187 160 183 171 149 127 109 125 125 140 171 162 161 105 146 107 151 126 134 157 136 153 106 162 85 125 80 117 144 97 97 84 105 121 83 92 70 48 107 69 79 96 110 55 61 50 34 41 64 52 52 47 33 41 49 41 55 58 30 27 54 58 50 44 59 49 65 34 13 20 27 44 81 20 65 27 24 43 4 6 19 19 11 11 14 20 24 21 31 15 24 20 9 40 36 44 23 49 8 34 34 21 46 55 14 24 4 39 14 5 32 36 32 12 5 30 49 33 3 50 38 63 55 91 54 130 76 134 84 85 149 90 90 90 116 132 66 95 130 88 143 91 120 79 99 110 46 116 115 112 47 115 100 78 138 78 151 118 148 56 130 116 94 124 114 138 144 97 141 134 137 146 77 164 99 173 140 144 140 127 165 146 185 167 169 170 144 168 146 144 132 133 141 142 147 113 139 102 124 120 108 102 43 102 56 92 58 48 55 41 10 73 24 53 23 37 25 35 51 37 68 8 44 35 1 39 53 34 37 12 18 12 1 40 38 9 11 4 23 32 8 11 34 21 11 42 26 25 40 50 43 50 11 7 46 6 33 57 18 40 32 37 6 13 11 46 7 8 19 43 27 27 19 55 30 84 76 95 71 109 66 119 100 92 123 95 114 108 98 126 96 86 114 102 97 66 43 68 69 116 60 112 99 109 107 133 124 119 139 112 152 119 146 81 132 91 121 117 107 91 88 111 98 124 131 149 132 162 131 182 153 164 167 152 188 178 196 192 198 204 184 205 186 172 173 169 165 180 173 152 117 144 163 153 149 107 109 115 109 115 87 69 49 63 75 48 63 79 68 48 23 9 42 53 58 1 60 17 17 27 51 42 53 5 19 9 17 41 40 18 5 15 18 16 18 37 35 4 7 38 28 0 35 36 27 32 1 11 17 26 11 48 16 23 10 51 11 19 21 48 22 8 10 47 8 14 10 55 0 35 64 59 47 111 57 64 82 90 130 104 50 106 100 115 55 96 110 105 116 78 95 82 62 115 61 112 62 125 42 102 80 100 125 85 144 115 147 86 144 56 142 80 112 80 127 91 141 106 148 94 142 140 111 171 115 160 131 174 146 160 183 165 165 190 152 200 164 163 192 145 160 190 148 142 139 129 162 113 145 86 83 48 101 99 78 72 29 50 85 68 7 60 68 39 32 37 48 48 15 26 54 47 28 28 60 29 52 0 1 17 16 29 30 33 10 7 25 10 16 31 33 4 1 26 30 3 30 19 55 13 3 8 7 13 21 17 11 36 9 44 19 28 33 26 13 9 36 22 12 17 1 47 49 85 66 7 26 113 36 107 104 49 123 90 67 105 85 100 74 74 124 111 131 68 95 108 26 120 14 101 57 107 90 80 110 12 121 103 144 12 148 81 146 78 135 98 128 106 141 138 141 152 123 163 109 167 103 164 139 163 135 154 158 141 176 104 127 172 127 171 142 130 177 133 122 171 116 94 133 124 133 47 53 54 84 91 67 52 62 64 50 72 71 80 55 51 48 40 13 58 0 13 40 26 17 35 40 9 46 30 24 14 4 24 11 5 33 32 8 5 21 15 40 14 38 1 0 7 11 0 39 5 45 41 26 0 10 16 52 22 17 31 8 24 17 30 35 9 5 1 44 10 8 9 3 35 53 71 58 25 18 102 81 97 103 53 99 97 103 71 96 74 88 93 110 125 126 102 106 121 73 112 61 105 97 89 94 75 75 94 100 99 137 63 142 109 138 119 112 134 103 139 110 152 106 154 104 167 115 162 117 142 136 148 149 124 152 129 159 137 87 170 139 167 172 125 166 167 138 135 139 131 91 130 78 118 117 100 74 69 76 45 57 54 58 62 68 59 69 73 63 75 42 67 58 34 44 9 15 31 52 39 42 43 13 19 6 11 19 22 36 9 16 0 3 17 51 28 21 1 6 3 4 19 42 11 25 20 11 32 15 7 48 15 11 15 19 2 18 25 32 33 13 23 27 0 13 24 31 5 19 48 43 46 9 94 103 27 85 39 66 112 98 119 69 115 92 102 68 113 102 81 104 97 13 102 17 121 91 75 66 70 58 83 79 97 128 78 126 92 119 82 103 109 93 128 105 129 117 123 129 126 119 120 111 84 87 111 118 112 67 101 114 102 135 132 124 142 143 139 138 136 118 102 107 120 103 92 91 108 93 72 40 31 82 0 37 22 42 23 8 3 56 30 52 73 43 47 60 38 18 14 15 19 41 44 23 17 21 28 4 10 16 7 3 17 25 0 4 37 36 21 16 7 14 5 12 12 24 6 31 2 14 23 6 27 31 14 18 28 21 8 41 23 33 20 21 45 12 3 37 1 23 30 13 34 36 55 50 87 99 7 83 78 91 114 75 114 104 109 112 113 94 81 32 61 70 59 80 78 82 116 82 104 106 82 49 48 60 87 112 89 115 96 99 80 64 45 40 86 47 66 24 38 63 92 88 112 73 42 34 86 64 61 96 96 79 77 101 104 92 95 93 110 74 83 98 91 67 81 42 31 43 40 34 26 32 56 74 43 45 45 46 14 17 30 34 23 38 50 23 18 55 34 21 11 28 12 38 15 46 16 14 23 10 17 2 24 17 24 24 24 7 34 7 1 29 7 15 18 18 25 9 5 29 6 0 11 12 23 36 11 8 19 26 8 38 26 30 1 20 40 32 7 32 39 1 28 16 7 10 59 46 65 73 59 63 47 69 91 75 66 85 75 89 81 61 61 67 6 24 3 50 11 68 94 53 69 71 57 21 54 8 72 81 62 93 66 86 62 69 4 61 54 74 43 78 9 71 75 59 77 49 55 14 70 52 44 64 77 61 68 18 66 70 67 64 80 70 52 61 52 60 46 7 4 11 19 38 22 13 53 44 51 25 45 27 28 25 33 15 46 12 44 22 27 55 14 27 32 32 34 29 9 35 2 38 18 37 36 35 37 16 17 28 33 45 53 33 26 25 16 32 20 22 35 27 29 31 13 3 32 10 6 36 12 5 21 7 20 34 17 49 21 42 23 33 13 15 44 17 19 9 25 42 58 47 53 38 47 61 45 47 36 50 13 40 75 14 40 5 19 70 40 22 34 28 10 18 76 24 29 43 48 55 55 3 6 9 30 54 37 59 18 56 38 46 46 74 30 60 41 61 27 31 39 28 65 17 47 60 1 41 19 39 22 51 21 34 48 25 27 42 34 22 65 11 15 35 56 57 36 34 27 29 36 21 22 43 37 13 42 27 37 34 50 15 13 37 12 41 12 21 27 7 49 42 19 7 11 6 28 28 30 29 25 6 4 10 46 28 54 45 27 7 23 46 17 23 32 34 43 15 22 10 30 14 10 29 19 2 28 22 25 26 41 48 45 39 38 18 8 22 23 28 10 43 53 52 43 28 60 31 67 73 40 78 52 54 78 46 93 79 51 88 67 83 76 76 87 15 85 85 91 83 45 95 32 92 56 90 52 85 81 95 84 96 79 80 80 27 95 65 86 21 89 34 36 27 70 36 41 80 42 67 63 70 52 39 23 22 28 73 60 67 26 56 38 37 72 47 19 60 27 62 27 47 11 16 16 20 50 49 30 30 21 39 70 51 32 26 47 58 24 28 32 17 37 28 50 56 21 6 0 1 32 7 17 14 8 3 23 23 30 23 10 20 9 17 6 36 32 16 21 21 32 38 28 17 5 8 18 33 14 11 31 23 4 11 32 11 30 24 31 22 16 13 16 8 31 20 56 58 22 12 80 44 33 106 88 86 102 106 101 50 109 118 84 116 105 95 120 99 116 14 118 109 120 112 105 127 41 117 69 118 57 115 113 87 112 108 115 112 120 89 123 114 103 83 109 81 78 81 106 42 99 112 99 116 98 102 72 76 59 96 95 86 97 81 74 85 47 43 80 61 61 30 70 41 44 8 50 1 33 33 51 52 46 22 15 14 56 51 30 44 19 22 5 5 26 33 31 40 45 21 14 29 25 24 31 5 8 12 25 2 20 27 19 14 14 17 26 30 15 2 29 0 4 9 18 21 10 10 17 14 6 38 13 24 38 21 3 2 10 26 3 19 27 13 29 17 15 10 31 31 19 39 34 32 74 51 77 110 90 112 54 110 106 36 114 95 102 124 97 113 109 91 127 30 128 95 122 83 89 128 76 119 72 109 76 119 91 133 43 82 119 107 110 80 109 111 89 79 94 84 97 44 121 71 106 86 109 105 110 125 96 107 93 102 90 94 110 83 97 101 50 73 80 43 68 64 56 36 52 10 63 47 48 54 48 37 17 43 9 29 12 47 37 23 55 7 25 6 18 21 33 13 40 5 36 15 20 16 14 15 30 13 22 3 0 36 32 4 20 16 28 26 16 2 6 3 4 26 12 1 2 15 39 13 2 20 2 27 15 28 3 2 15 37 1 5 29 17 31 37 13 11 11 27 7 28 23 19 51 1 85 91 65 98 82 97 101 24 82 69 92 111 70 77 101 98 119 55 117 95 61 50 50 94 59 108 51 82 78 105 96 134 110 115 96 75 85 9 40 76 79 36 55 81 99 66 105 90 57 38 78 68 106 125 100 102 102 66 46 83 87 108 102 101 57 86 62 70 64 62 51 57 15 41 31 67 8 5 37 13 1 61 15 5 50 1 25 27 47 41 27 26 24 19 44 21 21 28 33 2 5 5 8 10 23 20 9 2 8 33 24 1 23 0 1 13 12 6 11 4 14 25 21 2 15 11 45 2 4 0 20 3 9 7 11 15 18 38 10 1 21 0 14 23 11 5 9 36 6 43 33 15 9 32 56 50 18 34 55 55 68 44 79 77 66 47 69 78 83 59 75 53 82 71 69 62 80 49 86 86 54 67 62 65 64 102 76 94 24 44 69 28 48 23 77 37 29 71 51 49 23 36 49 24 33 79 74 84 49 41 64 80 24 54 31 83 77 81 67 75 45 30 44 6 53 30 27 21 28 43 7 18 27 15 21 70 47 35 46 7 46 41 48 37 20 26 1 18 40 25 34 12 12 7 10 6 9 3 7 12 23 5 21 45 31 21 20 35 0 30 1 5 23 17 6 14 24 15 18 15 36 13 6 5 31 20 3 21 11 8 21 23 33 9 25 3 17 3 1 4 5 32 0 13 28 23 21 26 13 10 12 33 20 25 31 18 70 51 59 61 56 81 31 42 71 64 62 70 73 61 62 26 23 47 56 29 47 56 47 67 26 58 22 56 44 10 42 36 60 36 32 64 52 50 49 30 47 29 16 85 61 33 60 52 54 62 53 51 15 63 19 67 70 29 32 27 43 28 8 42 8 37 35 15 7 11 20 28 40 54 26 8 23 27 48 28 36 13 11 19 12 0 29 10 5 35 3 31 41 0 2 9 3 18 34 10 21 42 16 10 9 35 21 34 8 19 1 11 6 2 21 28 12 26 33 25 18 20 32 12 19 17 16 13 1 0 38 17 25 10 14 4 0 15 8 5 15 25 15 12 11 9 5 22 15 53 55 33 32 19 49 35 37 48 18 55 30 68 55 31 53 37 53 55 4 46 45 12 33 9 30 34 17 32 17 32 26 34 40 8 10 3 44 27 16 39 39 14 19 13 46 6 20 72 65 35 48 61 39 36 22 47 12 60 42 33 25 45 14 16 17 34 31 45 24 44 30 15 11 30 23 22 10 16 26 23 16 16 26 47 23 3 10 0 28 7 29 24 41 26 9 28 35 22 3 23 14 16 33 0 33 8 28 17 6 17 2 17 6 29 29 1 29 24 24 19 28 9 15 8 36 27 21 4 10 0 23 18 6 4 12 13 19 23 9 12 11 22 3 19 4 32 17 24 25 16 16 24 4 31 36 43 38 17 37 28 38 9 13 27 15 38 6 5 22 13 21 22 25 15 33 36 5 24 12 3 19 0 31 10 5 1 9 15 18 21 15 37 16 22 19 23 22 35 36 14 10 38 17 4 22 29 25 14 9 29 23 33 44 37 38 38 22 12 3 14 32 40 45 45 15 13 30 29 14 18 29 43 35 32 12 2 38 59 27 31 44 23 12 34 54 52 55 17 20 20 21 14 11 32 0 24 0 16 39 22 31 34 10 19 26 21 5 35 10 2 37 17 13 38 8 7 20 8 22 14 8 10 2 24 35 36 1 7 3 20 14 35 15 20 27 34 0 44 3 11 19 45 16 11 9 30 25 24 6 32 16 8 26 39 36 15 19 15 15 24 15 17 5 12 9 25 25 20 23 5 9 10 36 37 7 17 17 14 10 1 14 0 8 34 2 29 17 0 11 16 29 41 24 29 2 28 19 9 2 20 16 15 8 20 40 33 3 7 51 29 19 15 19 39 24 27 37 51 2 3 28 21 16 31 46 34 17 47 35 19 53 46 65 21 60 12 14 52 47 50 33 24 54 18 35 5 13 30 14 39 41 41 6 9 24 23 42 43 14 30 8 36 9 26 0 19 25 24 24 1 35 30 21 29 2 17 11 38 36 44 32 9 4 9 16 36 19 38 34 25 22 41 9 37 9 50 11 28 2 25 12 44 30 22 2 27 32 23 41 17 2 26 15 16 12 18 1 29 19 34 25 18 18 13 16 15 41 40 16 20 11 17 19 17 11 19 9 39 9 26 18 0 20 23 42 28 20 16 11 17 27 3 7 24 23 4 22 4 30 27 41 27 69 42 29 5 12 52 38 32 12 35 30 8 24 2 11 30 13 32 11 41 29 15 53 45 35 9 54 18 41 53 26 26 10 12 53 43 43 13 18 13 10 15 37 22 6 22 30 28 37 30 18 35 32 29 16 28 28 31 15 2 9 7 37 10 14 42 7 19 10 38 41 32 41 16 4 8 20 31 1 42 19 2 21 34 7 46 7 36 29 7 17 31 23 31 31 54 28 31 41 17 60 22 7 27 3 21 24 32 15 32 15 24 42 24 13 9 42 26 16 6 15 19 36 13 14 15 35 18 12 22 13 27 25 14 22 37 42 23 2 3 2 19 12 19 8 28 13 13 29 16 42 48 34 34 64 51 21 19 21 43 68 65 34 16 29 2 24 19 21 23 14 17 35 35 51 3 11 53 33 39 18 24 53 50 41 27 41 11 32 33 35 28 15 7 11 8 30 16 1 26 12 9 18 17 22 11 36 13 2 14 26 4 16 8 19 0 22 0 3 43 16 8 8 31 33 16 22 13 12 28 31 13 22 20 1 20 9 34 21 22 34 24 15 26 35 30 4 20 41 66 35 33 41 53 67 8 0 37 3 44 45 46 5 18 22 20 55 28 42 48 37 25 10 17 17 32 45 38 6 8 39 17 13 11 5 30 4 0 21 22 36 42 35 0 5 29 18 14 10 15 19 6 15 25 9 51 40 64 11 48 12 6 29 14 65 71 8 22 21 0 18 14 24 45 33 34 10 58 57 32 27 70 13 40 38 37 43 20 45 20 54 18 27 30 15 39 20 10 11 31 41 10 5 30 18 8 8 2 2 35 6 18 12 1 18 8 32 31 14 8 19 24 8 31 15 8 13 21 12 11 9 21 9 29 8 41 18 2 9 27 13 37 6 22 46 33 22 33 28 33 8 17 33 63 21 46 48 43 10 49 49 8 49 3 42 40 38 43 37 9 34 19 49 21 13 13 24 19 3 17 26 18 22 31 38 14 25 38 19 28 19 30 21 23 49 41 50 8 9 34 22 4 8 9 30 4 20 17 12 52 60 46 12 52 27 23 53 26 44 53 33 59 38 15 8 28 31 56 20 40 21 55 38 40 53 87 15 19 21 57 10 0 31 7 56 25 34 34 11 28 41 14 13 33 28 15 22 22 25 24 9 23 14 29 23 0 28 32 1 0 11 28 32 3 10 36 1 8 16 20 13 0 6 3 15 27 6 5 20 42 2 19 9 19 9 31 10 43 48 15 52 29 54 62 28 44 67 38 8 50 62 63 41 54 64 69 74 51 41 38 42 51 48 43 14 47 37 37 31 9 37 44 3 23 2 21 20 32 18 22 8 32 49 35 25 50 34 9 57 38 29 15 10 43 33 25 21 37 61 44 20 14 32 40 41 11 40 49 37 34 64 49 47 49 35 62 50 24 7 17 19 55 36 6 30 58 9 43 47 68 63 15 12 55 4 20 15 5 38 43 24 16 11 10 40 28 30 27 26 3 23 4 22 33 27 4 3 24 39 39 25 44 26 4 8 9 27 10 36 10 16 22 1 41 11 17 30 2 21 24 1 15 6 33 4 11 5 3 9 21 8 56 63 66 74 62 51 56 55 53 54 24 38 60 72 80 27 38 45 63 51 38 10 6 28 3 20 23 25 40 4 24 20 19 34 29 29 41 38 54 32 5 34 30 9 5 53 39 43 64 46 26 41 44 5 53 30 45 33 31 3 44 69 37 20 41 49 42 2 49 54 28 33 30 56 44 13 51 33 55 39 46 8 36 19 40 26 32 50 34 30 61 67 59 75 21 22 30 24 15 14 26 25 41 30 36 16 7 2 13 38 13 8 8 21 10 7 21 22 32 20 5 3 40 20 26 16 13 23 1 6 20 36 14 29 42 0 42 8 18 34 11 43 21 16 24 6 3 0 8 2 18 27 17 16 59 44 65 59 61 16 26 70 49 43 50 25 68 60 74 59 33 55 1 52 54 6 14 39 28 15 30 33 5 2 26 1 29 31 16 10 2 17 47 16 33 41 16 18 29 34 42 52 58 37 2 51 29 14 58 47 44 23 1 1 28 55 18 40 37 25 40 42 70 20 11 46 6 47 37 46 29 33 53 36 55 2 65 29 43 4 49 45 23 41 19 28 52 50 50 49 12 44 27 38 30 17 48 33 41 6 14 18 2 30 10 10 12 25 14 1 15 5 32 0 17 30 7 16 0 8 30 15 7 23 13 19 15 36 32 19 14 10 11 19 28 44 37 9 20 11 13 11 3 5 2 7 1 8 44 9 24 28 24 37 8 61 24 37 57 43 17 4 50 37 9 27 38 31 43 27 5 15 5 25 45 40 26 37 42 30 30 45 33 32 10 45 34 7 47 15 10 44 33 28 36 36 41 34 29 53 14 2 46 55 32 23 48 11 33 43 14 25 18 49 24 63 61 20 45 49 24 33 21 42 19 24 37 19 50 25 61 32 40 26 3 28 17 28 65 48 69 21 45 58 35 26 59 35 38 25 53 6 38 33 30 10 25 16 4 12 30 41 17 5 32 3 19 24 29 23 26 16 13 7 23 9 9 23 21 16 2 5 14 11 2 20 21 4 25 30 33 24 4 24 23 11 7 11 14 4 37 4 24 27 25 60 48 31 4 52 43 28 47 4 29 48 30 40 13 8 41 29 5 35 24 30 30 41 51 40 20 51 35 43 51 41 59 35 65 32 60 67 74 67 82 91 47 67 65 0 67 51 40 51 9 11 20 59 33 12 57 22 35 50 18 14 25 49 42 68 40 48 70 5 41 32 13 10 22 40 35 46 36 46 40 48 46 42 57 71 48 74 79 33 64 56 45 25 74 1 18 43 55 59 48 13 71 23 21 24 32 34 4 1 31 46 18 39 39 15 35 2 19 30 41 19 21 3 16 37 12 27 17 29 0 46 5 10 5 29 40 22 5 17 15 35 22 18 35 29 36 35 17 18 47 20 57 58 1 75 76 56 69 65 51 74 45 10 35 51 2 28 2 25 44 15 3 36 37 27 23 20 40 27 27 36 28 31 51 14 60 50 79 64 60 87 58 69 95 89 77 65 51 48 58 54 18 36 3 22 11 42 25 0 38 31 44 39 26 35 15 18 65 64 31 73 25 41 49 41 9 31 51 52 50 65 52 46 67 44 89 62 57 101 32 86 90 45 75 73 45 55 91 40 71 46 45 88 70 26 76 1 45 18 31 39 14 12 36 40 42 43 30 32 45 6 11 46 26 8 26 28 32 27 44 28 6 12 27 56 25 21 24 44 44 9 6 31 37 35 2 4 30 38 43 39 32 14 33 35 59 34 8 79 72 58 76 47 41 65 27 53 7 49 36 13 33 34 33 33 12 42 21 50 46 11 12 50 1 33 12 22 28 8 45 16 44 68 60 64 26 7 59 5 52 37 12 48 3 41 37 20 7 27 35 27 6 11 17 6 39 10 17 36 23 6 66 61 44 53 72 0 59 28 10 56 69 60 55 60 46 26 61 45 79 51 59 110 63 70 89 105 49 58 58 76 96 77 85 59 69 92 59 45 41 60 82 25 47 30 18 21 47 21 50 30 19 37 15 40 25 39 14 16 17 42 5 13 43 33 10 2 42 31 0 26 25 32 25 29 37 1 42 36 4 32 22 31 45 21 43 29 44 29 67 61 48 75 62 23 61 69 83 79 31 69 58 24 33 8 20 37 13 6 4 20 48 69 47 13 47 31 47 46 30 2 2 18 39 38 27 14 61 45 29 13 35 34 1 24 16 43 12 14 40 31 24 40 54 15 11 32 10 41 23 14 11 5 4 42 36 54 34 45 64 29 67 13 21 63 67 45 62 24 34 43 32 44 53 61 40 90 51 55 88 110 63 68 54 66 78 93 91 40 89 56 63 61 25 55 80 24 43 12 28 23 23 12 56 42 20 25 9 55 39 14 4 21 30 9 14 12 11 16 3 30 37 34 27 16 12 35 39 33 44 27 46 20 3 44 12 25 33 20 36 25 62 18 64 59 24 78 61 33 5 52 81 72 40 53 66 53 24 35 7 35 27 16 26 2 15 50 29 27 46 47 28 47 35 15 34 24 46 49 30 22 10 60 33 31 11 17 21 3 44 37 19 38 6 56 27 23 44 11 24 24 58 42 2 33 4 24 7 26 55 53 54 52 16 23 66 13 25 41 38 45 42 28 64 65 25 74 62 51 49 37 64 84 64 98 2 80 20 33 40 71 47 47 76 51 68 37 54 37 58 2 46 16 25 31 34 26 28 42 18 17 8 38 35 32 37 12 29 43 11 35 27 15 6 51 42 16 19 32 28 38 23 20 51 45 40 2 28 33 9 31 12 5 2 8 58 29 4 15 27 86 48 51 69 17 63 63 7 46 74 64 22 33 32 26 18 7 38 14 50 42 12 34 41 54 38 56 28 28 44 59 21 34 1 25 41 52 1 41 36 28 29 15 35 43 49 7 51 75 40 12 19 0 0 14 74 43 27 44 22 25 29 53 70 52 26 8 58 13 56 18 22 45 36 61 16 37 41 55 59 84 59 59 43 64 65 79 23 70 52 66 43 39 52 36 62 49 42 70 47 35 65 60 40 34 55 50 27 55 69 53 47 24 40 30 14 33 45 35 58 43 11 46 10 30 31 30 6 44 43 40 27 56 55 36 30 14 34 6 40 5 46 27 39 11 13 37 29 4 31 64 41 32 32 77 4 21 63 51 56 13 25 34 53 52 36 54 49 53 33 8 21 25 58 43 42 46 45 56 3 51 38 21 23 72 40 29 27 36 57 52 54 33 6 50 52 21 27 41 56 38 52 61 73 8 15 12 39 20 57 23 31 13 50 32 5 63 43 34 16 15 69 17 43 33 40 39 39 54 33 44 64 81 39 63 55 83 36 58 67 72 41 50 90 95 59 62 73 60 73 51 37 58 26 62 23 20 46 37 50 54 49 30 60 29 33 58 39 22 25 31 26 36 40 40 34 27 8 28 23 36 23 20 40 29 20 42 56 41 18 10 4 40 22 19 40 26 44 6 7 51 30 28 15 43 24 38 52 16 10 41 65 70 60 51 34 42 22 40 34 51 50 48 37 29 2 28 43 38 32 16 38 40 26 54 27 8 32 47 15 30 40 28 48 38 49 57 5 28 53 22 44 11 30 5 60 42 61 31 11 33 55 41 46 43 17 29 19 56 6 21 55 42 37 45 64 56 29 22 41 21 0 42 33 75 39 77 74 71 29 85 53 71 69 82 55 50 76 87 73 55 54 64 81 60 9 62 35 55 40 45 73 12 39 51 39 2 29 6 45 45 19 4 11 8 2 44 12 24 47 3 16 27 4 34 37 32 51 39 9 20 41 28 33 38 26 33 54 53 27 26 52 3 37 61 39 29 17 27 6 26 70 69 33 1 85 74 32 20 47 80 60 80 57 49 61 23 25 46 5 26 36 8 27 19 8 22 52 36 44 12 36 1 1 42 28 37 35 14 50 61 27 32 32 14 21 14 24 52 37 49 31 43 19 50 40 36 91 65 42 34 70 62 19 30 55 55 6 32 25 38 56 0 54 31 19 49 7 59 25 62 44 83 86 35 26 82 79 100 50 62 65 84 48 51 54 55 69 53 7 60 63 8 26 40 69 44 47 30 21 37 56 33 57 42 67 26 19 22 32 37 7 48 37 8 27 19 32 41 59 56 35 15 19 2 35 21 64 37 26 34 73 64 53 44 49 54 42 63 60 15 27 38 29 42 86 80 37 33 72 66 49 32 60 81 75 86 82 54 56 57 54 60 23 39 37 10 10 42 36 33 51 60 45 38 36 0 33 25 50 27 52 37 54 62 21 48 24 28 19 23 37 51 25 68 26 51 45 47 41 39 90 33 1 47 81 59 44 60 72 59 8 13 28 51 70 8 44 12 37 59 37 11 37 43 62 56 71 53 57 76 83 62 84 61 74 71 43 53 48 38 66 26 29 15 5 36 37 11 49 32 84 55 50 27 62 37 28 55 84 0 2 53 48 65 69 28 6 75 44 45 61 61 75 46 34 33 14 0 42 46 62 28 16 35 82 68 55 60 41 73 28 64 67 22 35 60 14 57 67 65 3 58 43 71 73 38 76 62 56 17 63 6 65 66 49 65 66 62 46 59 58 50 48 21 45 69 40 68 43 40 44 55 71 46 59 46 6 45 28 71 41 62 62 37 42 54 66 82 13 50 48 77 22 50 67 34 22 27 89 59 63 99 81 74 49 39 16 46 81 54 27 70 1 33 72 47 34 62 89 59 15 63 71 39 88 83 76 1 66 71 87 33 56 55 79 53 49 13 68 52 68 60 50 76 79 74 25 28 74 0 21 61 80 42 1 73 46 93 67 69 80 87 60 54 85 55 77 30 43 21 34 48 95 67 59 60 52 42 72 69 76 79 44 49 40 73 80 49 43 63 21 68 78 70 15 58 40 79 70 48 80 80 79 77 63 62 90 80 61 17 74 65 50 72 58 64 87 58 61 45 52 73 56 72 58 72 77 29 73 39 27 72 22 79 47 86 79 46 65 65 65 79 44 73 55 95 92 91 96 29 6 69 92 83 85 107 78 87 85 81 64 52 92 56 69 88 73 68 72 30 65 85 88 78 24 56 82 69 83 86 96 80 91 35 85 87 22 57 17 84 62 12 88 47 44 78 44 86 45 30 59 24 81 43 72 33 74 59 60 73 2 75 77 64 91 80 39 65 87 74 65 71 60 58 63 69 106 53 70 86 33 66 57 75 86 73 102 78 78 79 86 3 54 44 32 55 89 92 34 20 65 73 77 53 76 96 90 72 40 71 85 81 52 45 15 36 79 62 17 68 109 49 47 71 69 48 37 88 65 62 85 4 66 16 57 94 44 77 38 45 42 65 70 40 65 74 51 88 99 53 98 105 94 27 28 78 61 71 79 90 60 102 71 77 78 81 91 26 85 63 77 55 64 45 83 74 62 80 72 68 86 62 75 90 38 94 111 90 104 103 88 58 89 85 70 61 56 78 85 32 72 78 76 68 58 69 64 72 71 81 82 83 71 24 69 62 92 36 81 78 53 7 67 96 58 74 40 52 30 62 93 3 73 63 65 89 82 62 49 71 78 100 69 84 69 70 50 28 57 31 73 95 57 74 94 30 90 50 80 84 64 60 0 29 21 51 61 17 61 54 85 49 54 46 95 66 72 62 2 68 12 86 86 26 97 66 65 44 99 61 40 67 96 93 49 67 75 29 76 86 58 61 95 33 79 77 45 32 56 38 73 37 77 80 24 86 95 30 41 69 94 46 74 77 70 38 95 62 86 72 79 62 86 79 67 49 87 113 73 50 85 42 80 64 95 71 76 65 72 83 69 52 83 79 48 90 76 87 49 58 48 67 68 88 72 81 26 31 52 87 90 23 71 57 50 52 72 74 64 50 14 18 51 59 70 30 55 9 84 74 74 57 51 60 74 83 40 73 50 86 78 63 63 65 47 79 46 63 87 28 76 57 83 45 73 18 49 70 67 1 53 47 53 71 62 37 75 59 35 77 51 61 15 77 28 65 60 51 98 80 80 57 100 72 26 42 96 97 62 50 78 30 67 80 71 1 68 14 68 24 50 61 78 56 69 49 50 89 27 59 101 55 62 57 86 60 60 70 80 57 80 23 73 60 69 64 93 67 24 85 77 93 90 45 26 103 80 69 85 69 26 71 57 55 72 33 24 79 69 63 34 79 67 27 26 51 69 41 57 37 51 29 10 76 84 57 51 67 3 26 52 34 58 27 36 43 54 29 44 37 11 43 65 33 47 55 78 35 77 52 36 48 58 59 35 56 43 69 32 49 28 48 72 41 39 47 73 22 81 54 13 79 63 21 39 20 35 80 75 79 71 40 42 67 42 67 35 82 51 78 53 34 71 48 66 42 81 43 11 39 55 77 35 54 68 24 44 80 69 4 45 54 63 25 53 17 82 69 39 38 58 84 80 48 81 31 66 27 68 2 45 59 65 82 76 78 72 42 90 78 83 50 91 95 89 31 104 16 25 94 86 86 38 64 41 81 62 62 53 44 35 80 69 47 21 55 63 32 37 23 24 63 63 32 40 38 27 41 59 55 18 56 22 9 44 26 24 55 46 38 22 13 15 45 17 60 32 21 23 19 58 46 46 48 42 29 30 42 80 66 46 63 83 34 44 64 63 41 32 76 65 36 71 53 80 52 63 3 48 10 22 75 74 57 28 41 15 70 46 56 49 78 49 52 45 39 0 14 42 54 20 38 28 39 10 57 39 62 19 24 0 67 61 11 65 58 64 42 85 69 62 53 43 39 63 36 91 15 76 0 54 23 66 25 22 57 34 80 44 81 58 80 89 62 51 76 104 81 55 88 102 34 84 105 73 71 78 82 74 82 43 80 30 62 62 75 37 51 54 15 3 43 45 37 32 56 40 39 46 30 49 38 35 35 48 48 66 18 41 10 58 18 15 15 6 24 0 48 35 36 50 46 46 52 41 61 49 13 35 21 3 58 57 38 23 11 96 62 52 47 24 21 5 73 31 45 43 0 81 34 45 1 5 44 46 47 17 65 41 50 48 50 56 17 61 44 52 49 46 6 46 38 58 61 12 50 24 41 50 27 46 50 50 52 44 35 59 30 73 50 51 45 79 45 41 28 33 3 44 48 67 49 80 65 81 5 59 2 25 31 39 44 41 78 17 95 98 57 52 98 71 103 80 105 76 96 90 98 86 92 97 88 90 79 69 85 46 58 70 21 30 60 56 37 8 50 48 25 41 53 13 40 27 19 41 35 55 2 18 57 64 4 56 32 63 12 18 39 21 30 3 46 58 17 52 22 33 57 31 40 37 29 26 28 9 61 10 70 65 18 85 41 42 32 17 54 1 45 24 45 47 19 64 48 14 41 40 48 40 54 52 79 75 58 49 43 60 55 69 39 65 21 44 15 33 51 65 48 42 31 8 55 56 27 1 45 37 59 54 57 56 54 73 51 39 14 63 32 54 20 30 7 18 58 48 39 67 68 67 41 30 15 60 45 67 53 71 78 32 81 91 94 44 77 28 110 66 100 33 102 69 82 85 97 102 63 71 62 67 80 61 53 33 54 42 44 35 38 15 23 28 3 33 38 21 18 20 15 4 5 43 39 34 24 30 22 45 33 43 0 17 18 13 15 25 43 41 19 21 1 13 44 26 11 26 12 6 2 24 36 0 53 61 5 64 26 29 6 18 58 10 3 38 30 45 14 44 28 31 46 14 10 29 50 42 50 63 15 19 30 34 29 42 34 37 2 34 20 20 55 62 17 24 22 4 35 26 17 33 13 42 28 46 37 45 49 44 28 18 25 38 24 41 12 37 3 19 41 41 1 42 27 0 53 16 9 69 69 70 16 46 42 59 41 67 80 47 37 56 84 89 30 75 59 89 52 91 72 75 70 76 70 28 50 18 53 16 42 39 18 28 27 0 2 13 16 11 17 32 17 24 14 3 22 24 24 10 18 21 10 21 32 21 6 9 3 11 9 34 32 3 16 29 9 0 11 14 3 15 1 38 8 22 14 37 9 38 12 45 13 24 28 25 46 28 16 21 18 24 24 46 10 32 40 24 15 32 18 11 8 15 18 22 23 28 12 10 5 27 28 17 25 32 25 36 2 13 17 5 17 3 24 39 25 21 12 48 11 28 31 16 5 27 41 12 29 31 23 25 56 23 27 15 28 17 14 19 40 30 40 47 61 34 41 3 27 54 13 55 5 28 40 55 58 66 73 59 86 58 73 35 69 11 69 42 60 16 29 28 23 26 24 6 1 41 10 24 0 4 42 27 40 31 32 14 22 13 32 28 7 26 20 41 10 14 31 9 25 2 20 7 19 25 25 26 7 45 0 15 3 29 7 15 25 25 27 29 11 39 36 19 4 47 26 30 12 47 34 12 18 33 25 3 15 32 42 34 28 27 25 22 27 21 26 6 18 41 3 9 28 15 9 39 36 22 3 31 20 2 0 12 36 12 20 16 21 27 34 18 32 38 16 12 17 25 17 4 20 13 25 43 43 55 66 40 36 17 49 21 26 24 4 23 54 57 59 50 50 21 15 15 26 61 23 27 38 26 6 60 71 47 55 53 77 44 59 28 20 28 33 31 32 17 34 18 41 35 4 45 26 22 1 3 50 43 22 54 8 13 27 3 28 37 35 36 34 41 25 16 38 10 32 16 33 42 25 14 7 45 5 56 19 26 15 41 33 33 30 25 47 21 48 7 47 3 37 46 34 23 40 62 25 30 25 39 30 14 1 12 44 40 27 9 11 16 29 40 21 13 7 56 28 28 34 22 5 47 35 21 11 21 27 26 10 28 31 25 26 20 12 6 48 37 59 37 18 33 21 38 5 26 14 18 47 34 35 36 44 40 50 44 45 11 18 43 23 12 54 39 34 36 18 37 29 44 37 52 52 39 26 34 40 64 61 26 61 46 56 29 32 50 59 39 33 45 29 53 46 8 49 38 13 31 47 8 1 2 36 31 21 43 13 20 29 1 8 26 30 29 17 21 11 33 44 9 25 2 4 46 30 11 7 44 11 41 9 10 10 12 22 40 22 35 37 39 54 4 26 20 51 27 16 34 40 55 0 35 16 24 37 18 7 0 35 36 12 10 12 32 5 20 12 24 28 25 4 14 23 14 7 42 18 17 21 8 15 14 12 35 8 33 31 3 7 19 25 52 40 41 27 22 18 39 23 14 31 33 44 8 36 15 31 50 17 21 30 32 18 20 23 16 39 29 20 18 11 4 54 31 41 19 50 53 9 45 39 52 25 28 49 46 8 12 29 15 44 20 25 0 6 50 1 23 27 32 19 14 49 18 26 5 26 25 8 22 1 5 31 0 0 4 16 39 13 33 0 14 36 17 10 0 17 6 27 9 10 34 10 25 26 20 12 21 1 26 36 36 32 25 31 9 15 10 28 19 26 34 18 22 9 17 0 3 32 17 8 21 30 28 23 4 26 17 26 4 28 35 37 33 10 25 30 2 29 29 6 19 23 9 22 0 22 31 21 1 17 10 18 37 5 31 41 23 28 15 24 7 17 18 44 44 12 21 34 41 17 34 7 5 45 18 6 16 13 48 14 43 18 42 24 4 42 33 23 13 39 49 17 42 19 44 35 4 5 66 35 17 16 3 9 19 8 5 32 1 45 16 10 27 13 30 44 29 48 23 33 36 23 33 18 17 35 3 18 17 28 28 41 25 31 9 28 7 13 14 12 34 29 11 35 45 33 60 7 27 14 21 24 41 39 29 29 9 32 13 11 3 21 15 37 46 7 17 18 16 16 13 0 19 1 33 52 43 36 10 23 25 57 35 19 41 63 26 1 43 16 18 30 21 20 23 22 29 4 21 45 29 28 38 21 28 60 53 2 29 69 53 17 20 27 46 52 19 45 54 26 55 50 38 14 35 45 28 41 19 26 29 31 55 31 33 14 36 22 40 7 15 41 37 50 49 0 54 55 53 25 20 21 60 53 42 21 20 20 48 8 14 26 16 40 31 4 32 35 18 35 11 43 17 29 39 24 31 25 23 41 7 24 38 35 5 23 9 21 17 20 3 8 21 10 8 7 30 32 35 34 63 17 13 27 2 31 46 44 1 19 0 34 18 7 11 24 7 39 35 16 34 27 8 24 23 8 17 9 41 45 40 29 5 4 50 60 48 14 25 45 10 2 32 13 6 25 15 16 13 8 39 5 34 41 15 20 37 18 7 62 39 12 44 57 46 11 24 21 37 50 5 22 31 8 39 48 13 2 40 49 21 3 28 28 10 7 20 31 19 17 24 22 34 24 12 20 24 26 41 28 32 72 35 14 31 33 41 43 46 25 9 9 45 26 12 38 0 21 16 14 40 23 3 20 10 18 15 24 13 2 4 4 12 31 4 13 12 25 13 0 19 2 2 21 2 1 22 7 6 4 17 7 6 11 54 0 18 18 2 1 19 27 6 9 7 3 12 3 13 9 2 25 28 18 16 23 10 9 15 11 16 15 30 9 10 1 2 5 28 23 17 21 2 7 23 0 10 5 0 20 1 5 3 17 20 2 12 7 5 1 22 5 4 25 9 19 33 24 24 11 16 18 10 30 7 1 11 4 8 1 3 5 18 19 7 11 12 17 7 4 13 10 9 23 30 4 0 8 3 5 37 9 11 33 46 46 20 8 17 35 11 1 34 26 11 19 14 23 2 36 17 0 12 2 18 5 0 9 9 12 17 28 0 16 0 9 12 16 4 3 5 11 6 2 14 3 0 15 6 14 7 4 10 1 2 0 12 4 37 0 5 2 2 8 4 2 3 7 6 6 11 1 9 0 5 7 6 11 5 11 2 0 2 6 18 0 5 1 8 8 7 5 6 17 4 14 4 11 8 5 3 4 0 13 7 4 8 10 3 7 1 3 7 5 13 10 7 7 0 6 3 30 13 5 2 2 2 21 2 3 2 0 8 13 5 4 7 8 7 5 1 5 8 2 5 15 8 14 26 6 11 0 1 7 24 11 7 33 20 1 24 12 17 27 32 25 6 15 17 17 3 10 7 23 12 6 8 6 4 0 4 2 4 16 15 7 3 10 1 6 7 11 5 1 2 3 0 4 8 1 0 5 0 12 1 3 16 1 4 5 8 0 16 3 4 5 1 4 7 0 1 5 1 3 9 0 7 5 2 5 0 5 4 1 0 0 0 1 11 2 3 7 0 1 6 5 8 6 3 10 4 14 6 8 2 3 0 9 5 7 9 4 0 8 2 0 7 7 2 2 3 11 0 1 14 15 0 10 1 4 6 21 3 11 1 1 0 10 2 7 5 14 14 4 5 4 4 1 0 2 6 9 17 4 12 2 2 5 7 17 5 20 16 13 11 9 21 22 35 36 25 1 9 23 2 5 11 15 0 7 3 0 9 0 4 5 4 8 7 2 6 0 4 1 1 5 0 0 0 0 2 1 2 0 1 0 0 4 1 0 7 3 0 2 0 0 4 0 4 2 0 0 3 0 0 1 2 0 8 2 6 0 1 2 0 0 4 1 0 2 0 0 4 0 1 6 3 2 0 1 1 4 0 1 0 2 3 3 0 5 0 4 1 5 4 5 1 2 2 1 1 4 0 0 0 8 0 1 5 2 3 0 1 6 0 9 1 4 0 2 0 5 1 6 1 9 16 7 5 0 1 1 1 4 2 4 7 2 3 6 2 0 4 4 12 4 6 15 18 11 6 7 17 13 6 9 11 13 4 0 7 5 0 1 0 2 1 0 0 0 0 0 0 1 2 2 2 0 2 2 0 0 3 0 1 0 1 1 0 1 0 1 0 0 0 3 0 2 1 1 2 0 0 0 0 0 0 0 0 0 4 1 4 0 0 0 0 0 0 0 0 0 1 3 1 0 2 1 1 2 1 1 0 0 1 1 0 0 0 0 2 0 0 3 0 1 0 1 1 2 1 0 2 1 0 0 0 0 0 1 0 0 2 1 4 0 0 1 1 0 0 1 0 2 0 1 0 1 0 1 2 1 1 0 2 0 0 3 1 1 2 1 0 3 2 0 0 0 13 3 2 2 9 2 6 6 9 0 0 3 7 3 0 0 0 0 0 1 1 4 0 0 0 1 0 1 0 1 0 0 0 1 2 1 0 1 3 0 0 0 0 2 0 1 0 0 0 1 1 0 0 0 0 0 2 0 0 0 0 1 0 0 1 0 2 0 1 1 1 0 0 0 0 1 0 0 0 2 1 0 0 1 0 2 0 0 1 0 0 0 0 0 0 0 1 0 0 0 0 1 0 0 0 0 0 1 2 0 0 0 0 0 0 0 0 0 1 1 1 1 0 2 0 1 0 0 1 0 0 0 2 0 0 1 0 0 1 0 1 0 0 1 0 4 2 0 0 1 0 0 1 1 3 1 0 1 5 2 1 1 6 2 3 0 1 1 1 0 0 0 0 2 0 2 1 0 1 0 0 1 0 0 0 0 1 1 0 1 0 0 1 1 0 0 0 2 0 0 0 0 0 1 0 0 0 0 0 1 1 0 0 0 1 0 0 0 0 0 0 1 0 0 1 0 0 0 0 0 0 0 0 0 0 0 0 0 0 0 0 0 1 0 0 0 0 0 0 0 0 0 0 0 0 0 0 0 0 0 0 0 0 0 0 0 0 0 0 0 0 0 0 2 0 1 0 0 0 1 0 0 0 0 0 0 1 0 0 0 1 1 0 0 0 0 0 0 0 2 0 1 0 0 1 0 2 0 0 0 0 2 1 4 0 1 2 0 1 0 0 1 1 0 0 2 1 1 0 0 0 0 1 0 0 1 0 0 0 0 1 0 0 0 0 0 2 1 0 0 0 1 0 0 0 0 0 0 0 0 0 0 0 1 1 0 0 0 0 0 0 0 0 0 0 0 0 0 0 0 0 0 0 0 0 0 0 0 0 0 0 0 0 0 0 0 0 1 0 0 0 1 1 0 0 0 0 0 0 0 1 1 0 0 0 0 0 0 0 0 0 0 0 1 0 0 0 1 0 0 0 0 0 0 0 0 0 0 0 0 0 0 0 0 4 1 1 0 0 0 0 0 0 0 0 0 0 0 1 1 0 0 0 0 1 0 0 0 0 0 2 4 0 0 0 0 0 0 0 0 2 1 0 0 0 0 0 0 0 0 0 0 0 0 1 0 0 0 0 0 0 0 0 0 0 0 0 0 0 0 0 0 0 0 0 0 0 0 0 0 0 0 0 0 0 0 0 0 0 0 0 0 0 0 0 0 0 1 0 0 0 0 0 0 0 0 0 1 0 0 0 0 1 0 0 0 0 0 0 0 0 0 0 0 1 1 0 0 0 0 0 0 0 2 0 0 0 0 0 0 0 0 0 0 0 0 0 0 0 0 0 0 0 0 0 0 0 1 3 0 0 0 0 0 0 0 0 0 0 0 0 0 0 0 0 0 0 0 0 0 0 0 1 0 0 1 2 0 2 0 0 0 0 1 0 0 0 0 0 0 0 0 0 0 0 0 1 0 0 0 0 0 0 0 1 0 0 0 0 0 0 0 0 0 0 0 0 0 0 0 0 0 0 0 0 0 0 0 0 0 0 0 0 0 0 0 0 0 0 0 0 0 0 0 0 0 0 0 0 0 0 0 0 0 0 0 1 0 0 0 0 0 0 0 0 0 0 0 0 0 0 0 0 0 0 0 0 1 0 0 0 0 0 0 0 0 0 0 0 0 1 0 0 0 0 0 0 0 0 0 0 1 0 0 0 0 0 0 0 0 0 0 0 0 0 0 0 0 0 0 1 0 0 0 0 1 0 0 0 1 1 0 2 0 0 0 0 1 0 0 0 0 0 0 0 0 0 0 0 0 1 0 1 0 0 0 0 0 0 0 0 0 0 0 1 0 0 1 0 0 0 1 1 0 0 0 0 0 0 0 0 0 0 0 0 0 0 1 0 0 1 1 0 0 0 0 0 0 0 0 0 0 0 0 0 0 0 1 0 0 0 0 0 0 0 0 0 0 0 0 0 0 0 0 1 0 0 0 0 0 0 0 0 0 0 0 0 0 2 0 0 0 0 0 0 0 0 0 0 0 0 0 0 0 0 0 0 0 0 0 0 0 0 0 0 0 0 1 0 0 0 0 0 0 1 0 1 2 1 1 0 0 0 0 0 0 0 0 0 0 0 0 0 0 0 0 0 0 0 0 0 0 0 0 0 0 2 0 0 0 0 0 0 0 0 0 0 0 0 0 0 0 0 0 0 0 0 0 0 0 0 0 0 0 0 0 0 0 0 0 0 1 0 0 1 1 0 0 0 0 0 0 0 0 0 0 0 0 0 0 0 0 0 0 0 0 0 0 0 1 0 0 0 0 0 0 0 0 0 0 0 0 0 0 0 0 0 0 0 0 0 0 1 0 0 0 0 0 0 0 0 0 0 0 0 0 0 0 0 0 0 0 0 0 0 0 0 0 0 0 0 1 0 0 0 0 0 1 0 0 0 0 1 0 0 0 0 0 0 1 0 0 0 0 0 0 0 0 0 0 0 0 0 0 0 0 0 0 0 0 1 0 0 0 0 0 0 0 0 0 0 0 0 0 0 0 0 0 0 0 0 0 0 0 0 0 0 0 0 0 0 0 0 0 0 0 0 0 2 0 0 0 0 0 0 0 0 0 0 0 0 0 0 0 0 0 0 0 0 0 0 0 0 0 0 0 0 0 0 0 0 0 0 0 0 0 0 0 0 0 0 0 0 0 0 0 0 0 0 0 0 0 0 0 0 0 0 0 0 0 0 0 0 0 0 0 0 0 0 0 0 0 0 0 0 0 0 0 0 0 0 0 0 0 0 0 0 0 0 0 0 0 0 0 0 0 0 0 0 0 0 0 0 0 0 0 0 0 0 0 0 0 0 0 0 0 0 0 0 0 0 0 0 0 0 0 0 0 0 0 0 0 0 0 0 0 0 0 0 0 0 0 0 0 0 0 0 0 0 0 0 0 1 0 0 0 0 0 0 0 0 0 0 0 0 0 0 0 0 0 0 0 0 0 0 0 0 0 0 0 0 0 0 0 0 0 0 0 0 0 0 0 0 0 0 0 0 0 0 0 0 0 0 0 0 0 0 0 0 0 0 0 0 0 0 0 0 0 0 0 0 0 0 0 0 0 0 0 0 0 0 0 0 0 0 0 0 0 0 0 0 0 0 0 0 0 0 0 0 0 0 0 0 0 0 0 0 0 0 0 0 0 0 0 0 0 0 0 0 0 0 0 0 0 0 0 0 0 0 0 0 0 0 0 0 0 0 0 0 0 0 0 0 0 0 0 0 0 0 0 0 0 0 0 0 0 0 0 0 0 0 0 0 0 0 0 0 0 0 0 0 0 0 0 0 0 0 0 0 0 0 0 0 0 0 0 0 0 0 0 0 0 0 0 0 0 0 0 0 0 0 0 0 0 0 0 0 0 0 0 0 0 0 0 0 0 0 0 0 0 0 0 0 0 0 0 0 0 0 0 0 0 0 0 0 0 0 0 0 0 0 0 0 0 0 0 0 0 0 0 0 0 0 0 0 0 0 0 0 0 0 0 0 0 0 0 0 0 0 0 0 0 0 0 0 0 0 0 0 0 0 0 0 0 0 0 0 0 0 0 0 0 0 0 0 0 0 0 0 0 0 0 0 0 0 0 0 0 0 0 0 0 0 0 0 0 0 0 0 0 0 0 0 0 0 0 0 0 0 0 0 0 0 0 0 0 0 0 0 0 0 0 0 0 0 0 0 0 0 0 0 0 0 0 0 0 0 0 0 0 0 0 0 0 0 0 0 0 0 0 0 0 0 0 0 0 0 0 0 0 0 0 0 0 0 0 0 0 0 0 0 0 0 0 0 0 0 0 0 0 0 0 0 0 0 0 0 0 0 0 0 0 0 0 0 0 0 0 0 0 0 0 0 0 0 0 0 0 0 0 0 0 0 0 0 0 0 0 0 0 0 0 0 0 0 0 0 0 0 0 0 0 0 0 0 0 0 0 0 0 0 0 0 0 0 0 0 0 0 0 0 0 0 0 0 0 0 0 0 0 0 0 0 0 0 0 0 0 0 0 0 0 0 0 0 0 0 0 0 0 0 0 0 0 0 0 0 0 0 0 0 0 0 0 0 0 0 0 0 0 0 0 0 0 0 0 0 0 0 0 0 0 0 0 0 0 0 0 0 0 0 0 0 0 0 0 0 0 0 0 0 0 0 0 0 0 0 0 0 0 0 0 0 0 0 0 0 0 0 0 0 0 0 0 0 0 0 0 0 0 0 0 0 0 0 0 0 0 0 0 0 0 0 0 0 0 0 0 0 0 0 0 0 0 0 0 0 0 0 0 0 0 0 0 0 0 0 0 0 0 0 0 0 0 0 0 0 0 0 0 0 0 0 0 0 0 0 0 0 0 0 0 0 0 0 0 0 0 0 0 0 0 0 0 0 0 0 0 0 0 0 0 0 0 0 0 0 0 0 0 0 0 0 0 0 0 0 0 0 0 0 0 0 0 0 0 0 0 0 0 0 0 0 0 0 0 0 0 0 0 0 0 0 0 0 0 0 0 0 0 0 0 0 0 0 0 0 0 0 0 0 0 0 0 0 0 0 0 0 0 0 0 0 0 0 0 0 0 0 0 0 0 0 0 0 0 0 0 0 0 0 0 0 0 0 0 0 0 0 0 0 0 0 0 0 0 0 0 0 0 0 0 0 0 0 0 0 0 0 0 0 0 0 0 0 0 0 0 0 0 0 0 0 0 0 0 0 0 0 0 0 0 0 0 0 0 0 0 0 0 0 0 0 0 0 0 0 0 0 0 0 0 0 0 0 0 0 0 0 0 0 0 0 0 0 0 0 0 0 0 0 0 0 0 0 0 0 0 0 0 0 0 0 0 0 0 0 0 0 0 0 0 0 0 0 0 0 0 0 0 0 0 0 0 0 0 0 0 0 0 0 0 0 0 0 0 0 0 0 0 0 0 0 0 0 0 0 0 0 0 0 0 0 0 0 0 0 0 0 0 0 0 0 0 0 0 0 0 0 0 0 0 0 0 0 0 0 0 0 0 0 0 0 0 0 0 0 0 0 0 0 0 0 0 0 0 0 0 0 0 0 0 0 0 0 0 0 0 0 0 0 0 0 0 0 0 0 0 0 0 0 0 0 0 0 0 0 0 0 0 0 0 0 0 0 0 0 0 0 0 0 0 0 0 0 0 0 0 0 0 0 0 0 0 0 0 0 0 0 0 0 0 0 0 0 0 0 0 0 0 0 0 0 0 0 0 0 0 0 0 0 0 0 0 0 0 0 0 0 0 0 0 0 0 0 0 0 0 0 0 0 0 0 0 0 0 0 0 0 0 0 0 0 0 0 0 0 0 0 0 0 0 0 0 0 0 0 0 0 0 0 0 0 0 0 0 0 0 0 0 0 0 0 0 0 0 0 0 0 0 0 0 0 0 0 0 0 0 0 0 0 0 0 0 0 0 0 0 0 0 0 0 0 0 0 0 0 0 0 0 0 0 0 0 0 0 0 0 0 0 0 0 0 0 0 0 0 0 0 0 0 0 0 0 0 0 0 0 0 0 0 0 0 0 0 0 0 0 0 0 0 0 0 0 0 0 0 0 0 0 0 0 0 0 0 0 0 0 0 0 0 0 0 0 0 0 0 0 0 0 0 0 0 0 0 0 0 0 0 0 0 0 0 0 0 0 0 0 0 0 0 0 0 0 0 0 0 0 0 0 0 0 0 0 0 0 0 0 0 0 0 0 0 0 0 0 0 0 0 0 0 0 0 0 0 0 0 0 0 0 0 0 0 0 0 0 0 0 0 0 0 0 0 0 0 0 0 0 0 0 0 0 0 0 0 0 0 0 0 0 0 0 0 0 0 0 0 0 0 0 0 0 0 0 0 0 0 0 0 0 0 0 0 0 0 0 0 0 0 0 0 0 0 0 0 0 0 0 0 0 0 0 0 0 0 0 0 0 0 0 0 0 0 0 0 0 0 0 0 0 0 0 0 0 0 0 0 0 0 0 0 0 0 0 0 0 0 0 0 0 0 0 0 0 0 0 0 0 0 0 0 0 0 0 0 0 0 0 0 0 0 0 0 0 0 0 0 0 0 0 0 0 0 0 0 0 0 0 0 0 0 0 0 0 0 0 0 0 0 0 0 0 0 0 0 0 0 0 0 0 0 0 0 0 0 0 0 0 0 0 0 0 0 0 0 0 0 0 0 0 0 0 0 0 0 0 0 0 0 0 0 0 0 0 0 0 0 0 0 0 0 0 0 0 0 0 0 0 0 0 0 0 0 0 0 0 0 0 0 0 0 0 0 0 0 0 0 0 0 0 0 0 0 0 0 0 0 0 0 0 0 0 0 0 0 0 0 0 0 0 0 0 0 0 0 0 0 0 0 0 0 0 0 0 0 0 0 0 0 0 0 0 0 0 0 0 0 0 0 0 0 0 0 0 0 0 0 0 0 0 0 0 0 0 0 0 0 0 0 0 0 0 0 0 0 0 0 0 0 0 0 0 0 0 0 0 0 0 0 0 0 0 0 0 0 0 0 0 0 0 0 0 0 0 0 0 0 0 0 0 0 0 0 0 0 0 0 0 0 0 0 0 0 0 0 0 0 0 0 0 0 0 0 0 0 0 0 0 0 0 0 0 0 0 0 0 0 0 0 0 0 0 0 0 0 0 0 0 0 0 0 0 0 0 0 0 0 0 0 0 0 0 0 0 0 0 0 0 0 0 0 0 0 0 0 0 0 0 0 0 0 0 0 0 0 0 0 0 0 0 0 0 0 0 0 0 0 0 0 0 0 0 0 0 0 0 0 0 0 0 0 0 0 0 0 0 0 0 0 0 0 0 0 0 0 0 0 0 0 0 0 0 0 0 0 0 0 0 0 0 0 0 0 0 0 0 0 0 0 0 0 0 0 0 0 0 0 0 0 0 0 0 0 0 0 0 0 0 0 0 0 0 0 0 0 0 0 0 0 0 0 0 0 0 0 0 0 0 0 0 0 0 0 0 0 0 0 0 0 0 0 0 0 0 0 0 0 0 0 0 0 0 0 0 0 0 0 0 0 0 0 0 0 0 0 0 0 0 0 0 0 0 0 0 0 0 0 0 0 0 0 0 0 0 0 0 0 0 0 0 0 0 0 0 0 0 0 0 0 0 0 0 0 0 0 0 0 0 0 0 0 0 0 0 0 0 0 0 0 0 0 0 0 0 0 0 0 0 0 0 0 0 0 0 0 0 0 0 0 0 0 0 0 0 0 0 0 0 0 0 0 0 0 0 0 0 0 0 0 0 0 0 0 0 0 0 0 0 0 0 0 0 0 0 0 0 0 0 0 0 0 0 0 0 0 0 0 0 0 0 0 0 0 0 0 0 0 0 0 0 0 0 0 0 0 0 0 0 0 0 0 0 0 0 0 0 0 0 0 0 0 0 0 0 0 0 0 0 0 0 0 0 0 0 0 0 0 0 0 0 0 0 0 0 0 0 0 0 0 0 0 0 0 0 0 0 0 0 0 0 0 0 0 0 0 0 0 0 0 0 0 0 0 0 0 0 0 0 0 0 0 0 0 0 0 0 0 0 0 0 0 0 0 0 0 0 0 0 0 0 0 0 0 0 0 0 0 0 0 0 0 0 0 0 0 0 0 0 0 0 0 0 0 0 0 0 0 0 0 0 0 0 0 0 0 0 0 0 0 0 0 0 0 0 0 0 0 0 0 0 0 0 0 0 0 0 0 0 0 0 0 0 0 0 0 0 0 0 0 0 0 0 0 0 0 0 0 0 0 0 0 0 0 0 0 0 0 0 0 0 0 0 0 0 0 0 0 0 0 0 0 0 0 0 0 0 0 0 0 0 0 0 0 0 0 0 0 0 0 0 0 0 0 0 0 0 0 0 0 0 0 0 0 0 0 0 0 0 0 0 0 0 0 0 0 0 0 0 0 0 0 0 0 0 0 0 0 0 0 0 0 0 0 0 0 0 0 0 0 0 0 0 0 0 0 0 0 0 0 0 0 0 0 0 0 0 0 0 0 0 0 0 0 0 0 0 0 0 0 0 0 0 0 0 0 0 0 0 0 0 0 0 0 0 0 0 0 0 0 0 0 0 0 0 0 0 0 0 0 0 0 0 0 0 0 0 0 0 0 0 0 0 0 0 0 0 0 0 0 0 0 0 0 0 0 0 0 0 0 0 0 0 0 0 0 0 0 0 0 0 0 0 0 0 0 0 0 0 0 0 0 0 0 0 0 0 0 0 0 0 0 0 0 0 0 0 0 0 0 0 0 0 0 0 0 0 0 0 0 0 0 0 0 0 0 0 0 0 0 0 0 0 0 0 0 0 0 0 0 0 0 0 0 0 0 0 0 0 0 0 0 0 0 0 0 0 0 0 0 0 0 0 0 0 0 0 0 0 0 0 0 0 0 0 0 0 0 0 0 0 0 0 0 0 0 0 0 0 0 0 0 0 0 0 0 0 0 0 0 0 0 0 0 0 0 0 0 0 0 0 0 0 0 0 0 0 0 0 0 0 0 0 0 0 0 0 0 0 0 0 0 0 0 0 0 0 0 0 0 0 0 0 0 0 0 0 0 0 0 0 0 0 0 0 0 0 0 0 0 0 0 0 0 0 0 0 0 0 0 0 0 0 0 0 0 0 0 0 0 0 0 0 0 0 0 0 0 0 0 0 0 0 0 0 0 0 0 0 0 0 0 0 0 0 0 0 0 0 0 0 0 0 0 0 0 0 0 0 0 0 0 0 0 0 0 0 0 0 0 0 0 0 0 0 0 0 0 0 0 0 0 0 0 0 0 0 0 0 0 0 0 0 0 0 0 0 0 0 0 0 0 0 0 0 0 0 0 0 0 0 0 0 0 0 0 0 0 0 0 0 0 0 0 0 0 0 0 0 0 0 0 0 0 0 0 0 0 0 0 0 0 0 0 0 0 0 0 0 0 0 0 0 0 0 0 0 0 0 0 0 0 0 0 0 0 0 0 0 0 0 0 0 0 0 0 0 0 0 0 0 0 0 0 0 0 0 0 0 0 0 0 0 0 0 0 0 0 0 0 0 0 0 0 0 0 0 0 0 0 0 0 0 0 0 0 0 0 0 0 0 0 0 0 0 0 0 0 0 0 0 0 0 0 0 0 0 0 0 0 0 0 0 0 0 0 0 0 0 0 0 0 0 0 0 0 0 0 0 0 0 0 0 0 0 0 0 0 0 0 0 0 0 0 0 0 0 0 0 0 0 0 0 0 0 0 0 0 0 0 0 0 0 0 0 0 0 0 0 0 0 0 0 0 0 0 0 0 0 0 0 0 0 0 0 0 0 0 0 0 0 0 0 0 0 0 0 0 0 0 0 0 0 0 0 0 0 0 0 0 0 0 0 0 0 0 0 0 0 0 0 0 0 0 0 0 0 0 0 0 0 0 0 0 0 0 0 0 0 0 0 0 0 0 0 0 0 0 0 0 0 0 0 0 0 0 0 0 0 0 0 0 0 0 0 0 0 0 0 0 0 0 0 0 0 0 0 0 0 0 0 0 0 0 0 0 0 0 0 0 0 0 0 0 0 0 0 0 0 0 0 0 0 0 0 0 0 0 0 0 0 0 0 0 0 0 0 0 0 0 0 0 0 0 0 0 0 0 0 0 0 0 0 0 0 0 0 0 0 0 0 0 0 0 0 0 0 0 0 0 0 0 0 0 0 0 0 0 0 0 0 0 0 0 0 0 0 0 0 0 0 0 0 0 0 0 0 0 0 0 0 0 0 0 0 0 0 0 0 0 0 0 0 0 0 0 0 0 0 0 0 0 0 0 0 0 0 0 0 0 0 0 0 0 0 0 0 0 0 0 0 0 0 0 0 0 0 0 0 0 0 0 0 0 0 0 0 0 0 0 0 0 0 0 0 0 0 0 0 0 0 0 0 0 0 0 0 0 0 0 0 0 0 0 0 0 0 0 0 0 0 0 0 0 0 0 0 0 0 0 0 0 0 0 0 0 0 0 0 0 0 0 0 0 0 0 0 0 0 0 0 0 0 0 0 0 0 0 0 0 0 0 0 0 0 0 0 0 0 0 0 0 0 0 0 0 0 0 0 0 0 0 0 0 0 0 0 0 0 0 0 0 0 0 0 0 0 0 0 0 0 0 0 0 0 0 0 0 0 0 0 0 0 0 0 0 0 0 0 0 0 0 0 0 0 0 0 0 0 0 0 0 0 0 0 0 0 0 0 0 0 0 0 0 0 0 0 0 0 0 0 0 0 0 0 0 0 0 0 0 0 0 0 0 0 0 0 0 0 0 0 0 0 0 0 0 0 0 0 0 0 0 0 0 0 0 0 0 0 0 0 0 0 0 0 0 0 0 0 0 0 0 0 0 0 0 0 0 0 0 0 0 0 0 0 0 0 0 0 0 0 0 0 0 0 0 0 0 0 0 0 0 0 0 0 0 0 0 0 0 0 0 0 0 0 0 0 0 0 0 0 0 0 0 0 0 0 0 0 0 0 0 0 0 0 0 0 0 0 0 0 0 0 0 0 0 0 0 0 0 0 0 0 0 0 0 0 0 0 0 0 0 0 0 0 0 0 0 0 0 0 0 0 0 0 0 0 0 0 0 0 0 0 0 0 0 0 0 0 0 0 0 0 0 0 0 0 0 0 0 0 0 0 0 0 0 0 0 0 0 0 0 0 0 0 0 0 0 0 0 0 0 0 0 0 0 0 0 0 0 0 0 0 0 0 0 0 0 0 0 0 0 0 0 0 0 0 0 0 0 0 0 0 0 0 0 0 0 0 0 0 0 0 0 0 0 0 0 0 0 0 0 0 0 0 0 0 0 0 0 0 0 0 0 0 0 0 0 0 0 0 0 0 0 0 0 0 0 0 0 0 0 0 0 0 0 0 0 0 0 0 0 0 0 0 0 0 0 0 0 0 0 0 0 0 0 0 0 0 0 0 0 0 0 0 0 0 0 0 0 0 0 0 0 0 0 0 0 0 0 0 0 0 0 0 0 0 0 0 0 0 0 0 0 0 0 0 0 0 0 0 0 0 0 0 0 0 0 0 0 0 0 0 0 0 0 0 0 0 0 0 0 0 0 0 0 0 0 0 0 0 0 0 0 0 0 0 0 0 0 0 0 0 0 0 0 0 0 0 0 0 0 0 0 0 0 0 0 0 0 0 0 0 0 0 0 0 0 0 0 0 0 0 0 0 0 0 0 0 0 0 0 0 0 0 0 0 0 0 0 0 0 0 0 0 0 0 0 0 0 0 0 0 0 0 0 0 0 0 0 0 0 0 0 0 0 0 0 0 0 0 0 0 0 0 0 0 0 0 0 0 0 0 0 0 0 0 0 0 0 0 0 0 0 0 0 0 0 0 0 0 0 0 0 0 0 0 0 0 0 0 0 0 0 0 0 0 0 0 0 0 0 0 0 0 0 0 0 0 0 0 0 0 0 0 0 0 0 0 0 0 0 0 0 0 0 0 0 0 0 0 0 0 0 0 0 0 0 0 0 0 0 0 0 0 0 0 0 0 0 0 0 0 0 0 0 0 0 0 0 0 0 0 0 0 0 0 0 0 0 0 0 0 0 0 0 0 0 0 0 0 0 0 0 0 0 0 0 0 0 0 0 0 0 0 0 0 0 0 0 0 0 0 0 0 0 0 0 0 0 0 0 0 0 0 0 0 0 0 0 0 0 0 0 0 0 0 0 0 0 0 0 0 0 0 0 0 0 0 0 0 0 0 0 0 0 0 0 0 0 0 0 0 0 0 0 0 0 0 0 0 0 0 0 0 0 0 0 0 0 0 0 0 0 0 0 0 0 0 0 0 0 0 0 0 0 0 0 0 0 0 0 0 0 0 0 0 0 0 0 0 0 0 0 0 0 0 0 0 0 0 0 0 0 0 0 0 0 0 0 0 0 0 0 0 0 0 0 0 0 0 0 0 0 0 0 0 0 0 0 0 0 0 0 0 0 0 0 0 0 0 0 0 0 0 0 0 0 0 0 0 0 0 0 0 0 0 0 0 0 0 0 0 0 0 0 0 0 0 0 0 0 0 0 0 0 0 0 0 0 0 0 0 0 0 0 0 0 0 0 0 0 0 0 0 0 0 0 0 0 0 0 0 0 0 0 0 0 0 0 0 0 0 0 0 0 0 0 0 0 0 0 0 0 0 0 0 0 0 0 0 0 0 0 0 0 0 0 0 0 0 0 0 0 0 0 0 0 0 0 0 0 0 0 0 0 0 0 0 0 0 0 0 0 0 0 0 0 0 0 0 0 0 0 0 0 0 0 0 0 0 0 0 0 0 0 0 0 0 0 0 0 0 0 0 0 0 0 0 0 0 0 0 0 0 0 0 0 0 0 0 0 0 0 0 0 0 0 0 0 0 0 0 0 0 0 0 0 0 0 0 0 0 0 0 0 0 0 0 0 0 0 0 0 0 0 0 0 0 0 0 0 0 0 0 0 0 0 0 0 0 0 0 0 0 0 0 0 0 0 0 0 0 0 0 0 0 0 0 0 0 0 0 0 0 0 0 0 0 0 0 0 0 0 0 0 0 0 0 0 0 0 0 0 0 0 0 0 0 0 0 0 0 0 0 0 0 0 0 0 0 0 0 0 0 0 0 0 0 0 0 0 0 0 0 0 0 0 0 0 0 0 0 0 0 0 0 0 0 0 0 0 0 0 0 0 0 0 0 0 0 0 0 0 0 0 0 0 0 0 0 0 0 0 0 0 0 0 0 0 0 0 0 0 0 0 0 0 0 0 0 0 0 0 0 0 0 0 0 0 0 0 0 0 0 0 0 0 0 0 0 0 0 0 0 0 0 0 0 0 0 0 0 0 0 0 0 0 0 0 0 0 0 0 0 0 0 0 0 0 0 0 0 0 0 0 0 0 0 0 0 0 0 0 0 0 0 0 0 0 0 0 0 0 0 0 0 0 0 0 0 0 0 0 0 0 0 0 0 0 0 0 0 0 0 0 0 0 0 0 0 0 0 0 0 0 0 0 0 0 0 0 0 0 0 0 0 0 0 0 0 0 0 0 0 0 0 0 0 0 0 0 0 0 0 0 0 0 0 0 0 0 0 0 0 0 0 0 0 0 0 0 0 0 0 0 0 0 0 0 0 0 0 0 0 0 0 0 0 0 0 0 0 0 0 0 0 0 0 0 0 0 0 0 0 0 0 0 0 0 0 0 0 0 0 0 0 0 0 0 0 0 0 0 0 0 0 0 0 0 0 0 0 0 0 0 0 0 0 0 0 0 0 0 0 0 0 0 0 0 0 0 0 0 0 0 0 0 0 0 0 0 0 0 0 0 0 0 0 0 0 0 0 0 0 0 0 0 0 0 0 0 0 0 0 0 0 0 0 0 0 0 0 0 0 0 0 0 0 0 0 0 0 0 0 0 0 0 0 0 0 0 0 0 0 0 0 0 0 0 0 0 0 0 0 0 0 0 0 0 0 0 0 0 0 0 0 0 0 0 0 0 0 0 0 0 0 0 0 0 0 0 0 0 0 0 0 0 0 0 0 0 0 0 0 0 0 0 0 0 0 0 0 0 0 0 0 0 0 0 0 0 0 0 0 0 0 0 0 0 0 0 0 0 0 0 0 0 0 0 0 0 0 0 0 0 0 0 0 0 0 0 0 0 0 0 0 0 0 0 0 0 0 0 0 0 0 0 0 0 0 0 0 0 0 0 0 0 0 0 0 0 0 0 0 0 0 0 0 0 0 0 0 0 0 0 0 0 0 0 0 0 0 0 0 0 0 0 0 0 0 0 0 0 0 0 0 0 0 0 0 0 0 0 0 0 0 0 0 0 0 0 0 0 0 0 0 0 0 0 0 0 0 0 0 0 0 0 0 0 0 0 0 0 0 0 0 0 0 0 0 0 0 0 0 0 0 0 0 0 0 0 0 0 0 0 0 0 0 0 0 0 0 0 0 0 0 0 0 0 0 0 0 0 0 0 0 0 0 0 0 0 0 0 0 0 0 0 0 0 0 0 0 0 0 0 0 0 0 0 0 0 0 0 0 0 0 0 0 0 0 0 0 0 0 0 0 0 0 0 0 0 0 0 0 0 0 0 0 0 0 0 0 0 0 0 0 0 0 0 0 0 0 0 0 0 0 0 0 0 0 0 0 0 0 0 0 0 0 0 0 0 0 0 0 0 0 0 0 0 0 0 0 0 0 0 0 0 0 0 0 0 0 0 0 0 0 0 0 0 0 0 0 0 0 0 0 0 0 0 0 0 0 0 0 0 0 0 0 0 0 0 0 0 0 0 0 0 0 0 0 0 0 0 0 0 0 0 0 0 0 0 0 0 0 0 0 0 0 0 0 0 0 0 0 0 0 0 0 0 0 0 0 0 0 0 0 0 0 0 0 0 0 0 0 0 0 0 0 0 0 0 0 0 0 0 0 0 0 0 0 0 0 0 0 0 0 0 0 0 0 0 0 0 0 0 0 0 0 0 0 0 0 0 0 0 0 0 0 0 0 0 0 0 0 0 0 0 0 0 0 0 0 0 0 0 0 0 0 0 0 0 0 0 0 0 0 0 0 0 0 0 0 0 0 0 0 0 0 0 0 0 0 0 0 0 0 0 0 0 0 0 0 0 0 0 0 0 0 0 0 0 0 0 0 0 0 0 0 0 0 0 0 0 0 0 0 0 0 0 0 0 0 0 0 0 0 0 0 0 0 0 0 0 0 0 0 0 0 0 0 0 0 0 0 0 0 0 0 0 0 0 0 0 0 0 0 0 0 0 0 0 0 0 0 0 0 0 0 0 0 0 0 0 0 0 0 0 0 0 0 0 0 0 0 0 0 0 0 0 0 0 0 0 0 0 0 0 0 0 0 0 0 0 0 0 0 0 0 0 0 0 0 0 0 0 0 0 0 0 0 0 0 0 0 0 0 0 0 0 0 0 0 0 0 0 0 0 0 0 0 0 0 0 0 0 0 0 0 0 0 0 0 0 0 0 0 0 0 0 0 0 0 0 0 0 0 0 0 0 0 0 0 0 0 0 0 0 0 0 0 0 0 0 0 0 0 0 0 0 0 0 0 0 0 0 0 0 0 0 0 0 0 0 0 0 0 0 0 0 0 0 0 0 0 0 0 0 0 0 0 0 0 0 0 0 0 0 0 0 0 0 0 0 0 0 0 0 0 0 0 0 0 0 0 0 0 0 0 0 0 0 0 0 0 0 0 0 0 0 0 0 0 0 0 0 0 0 0 0 0 0 0 0 0 0 0 0 0 0 0 0 0 0 0 0 0 0 0 0 0 0 0 0 0 0 0 0 0 0 0 0 0 0 0 0 0 0 0 0 0 0 0 0 0 0 0 0 0 0 0 0 0 0 0 0 0 0 0 0 0 0 0 0 0 0 0 0 0 0 0 0 0 0 0 0 0 0 0 0 0 0 0 0 0 0 0 0 0 0 0 0 0 0 0 0 0 0 0 0 0 0 0 0 0 0 0 0 0 0 0 0 0 0 0 0 0 0 0 0 0 0 0 0 0 0 0 0 0 0 0 0 0 0 0 0 0 0 0 0 0 0 0 0 0 0 0 0 0 0 0 0 0 0 0 0 0 0 0 0 0 0 0 0 0 0 0 0 0 0 0 0 0 0 0 0 0 0 0 0 0 0 0 0 0 0 0 0 0 0 0 0 0 0 0 0 0 0 0 0 0 0 0 0 0 0 0 0 0 0 0 0 0 0 0 0 0 0 0 0 0 0 0 0 0 0 0 0 0 0 0 0 0 0 0 0 0 0 0 0 0 0 0 0 0 0 0 0 0 0 0 0 0 0 0 0 0 0 0 0 0 0 0 0 0 0 0 0 0 0 0 0 0 0 0 0 0 0 0 0 0 0 0 0 0 0 0 0 0 0 0 0 0 0 0 0 0 0 0 0 0 0 0 0 0 0 0 0 0 0 0 0 0 0 0 0 0 0 0 0 0 0 0 0 0 0 0 0 0 0 0 0 0 0 0 0 0 0 0 0 0 0 0 0 0 0 0 0 0 0 0 0 0 0 0 0 0 0 0 0 0 0 0 0 0 0 0 0 0 0 0 0 0 0 0 0 0 0 0 0 0 0 0 0 0 0 0 0 0 0 0 0 0 0 0 0 0 0 0 0 0 0 0 0 0 0 0 0 0 0 0 0 0 0 0 0 0 0 0 0 0 0 0 0 0 0 0 0 0 0 0 0 0 0 0 0 0 0 0 0 0 0 0 0 0 0 0 0 0 0 0 0 0 0 0 0 0 0 0 0 0 0 0 0 0 0 0 0 0 0 0 0 0 0 0 0 0 0 0 0 0 0 0 0 0 0 0 0 0 0 0 0 0 0 0 0 0 0 0 0 0 0 0 0 0 0 0 0 0 0 0 0 0 0 0 0 0 0 0 0 0 0 0 0 0 0 0 0 0 0 0 0 0 0 0 0 0 0 0 0 0 0 0 0 0 0 0 0 0 0 0 0 0 0 0 0 0 0 0 0 0 0 0 0 0 0 0 0 0 0 0 0 0 0 0 0 0 0 0 0 0 0 0 0 0 0 0 0 0 0 0 0 0 0 0 0 0 0 0 0 0 0 0 0 0 0 0 0 0 0 0 0 0 0 0 0 0 0 0 0 0 0 0 0 0 0 0 0 0 0 0 0 0 0 0 0 0 0 0 0 0 0 0 0 0 0 0 0 0 0 0 0 0 0 0 0 0 0 0 0 0 0 0 0 0 0 0 0 0 0 0 0 0 0 0 0 0 0 0 0 0 0 0 0 0 0 0 0 0 0 0 0 0 0 0 0 0 0 0 0 0 0 0 0 0 0 0 0 0 0 0 0 0 0 0 0 0 0 0 0 0 0 0 0 0 0 0 0 0 0 0 0 0 0 0 0 0 0 0 0 0 0 0 0 0 0 0 0 0 0 0 0 0 0 0 0 0 0 0 0 0 0 0 0 0 0 0 0 0 0 0 0 0 0 0 0 0 0 0 0 0 0 0 0 0 0 0 0 0 0 0 0 0 0 0 0 0 0 0 0 0 0 0 0 0 0 0 0 0 0 0 0 0 0 0 0 0 0 0 0 0 0 0 0 0 0 0 0 0 0 0 0 0 0 0 0 0 0 0 0 0 0 0 0 0 0 0 0 0 0 0 0 0 0 0 0 0 0 0 0 0 0 0 0 0 0 0 0 0 0 0 0 0 0 0 0 0 0 0 0 0 0 0 0 0 0 0 0 0 0 0 0 0 0 0 0 0 0 0 0 0 0 0 0 0 0 0 0 0 0 0 0 0 0 0 0 0 0 0 0 0 0 0 0 0 0 0 0 0 0 0 0 0 0 0 0 0 0 0 0 0 0 0 0 0 0 0 0 0 0 0 0 0 0 0 0 0 0 0 0 0 0 0 0 0 0 0 0 0 0 0 0 0 0 0 0 0 0 0 0 0 0 0 0 0 0 0 0 0 0 0 0 0 0 0 0 0 0 0 0 0 0 0 0 0 0 0 0 0 0 0 0 0 0 0 0 0 0 0 0 0 0 0 0 0 0 0 0 0 0 0 0 0 0 0 0 0 0 0 0 0 0 0 0 0 0 0 0 0 0 0 0 0 0 0 0 0 0 0 0 0 0 0 0 0 0 0 0 0 0 0 0 0 0 0 0 0 0 0 0 0 0 0 0 0 0 0 0 0 0 0 0 0 0 0 0 0 0 0 0 0 0 0 0 0 0 0 0 0 0 0 0 0 0 0 0 0 0 0 0 0 0 0 0 0 0 0 0 0 0 0 0 0 0 0 0 0 0 0 0 0 0 0 0 0 0 0 0 0 0 0 0 0 0 0 0 0 0 0 0 0 0 0 0 0 0 0 0 0 0 0 0 0 0 0 0 0 0 0 0 0 0 0 0 0 0 0 0 0 0 0 0 0 0 0 0 0 0 0 0 0 0 0 0 0 0 0 0 0 0 0 0 0 0 0 0 0 0 0 0 0 0 0 0 0 0 0 0 0 0 0 0 0 0 0 0 0 0 0 0 0 0 0 0 0 0 0 0 0 0 0 0 0 0 0 0 0 0 0 0 0 0 0 0 0 0 0 0 0 0 0 0 0 0 0 0 0 0 0 0 0 0 0 0 0 0 0 0 0 0 0 0 0 0 0 0 0 0 0 0 0 0 0 0 0 0 0 0 0 0 0 0 0 0 0 0 0 0 0 0 0 0 0 0 0 0 0 0 0 0 0 0 0 0 0 0 0 0 0 0 0 0 0 0 0 0 0 0 0 0 0 0 0 0 0 0 0 0 0 0 0 0 0 0 0 0 0 0 0 0 0 0 0 0 0 0 0 0 0 0 0 0 0 0 0 0 0 0 0 0 0 0 0 0 0 0 0 0 0 0 0 0 0 0 0 0 0 0 0 0 0 0 0 0 0 0 0 0 0 0 0 0 0 0 0 0 0 0 0 0 0 0 0 0 0 0 0 0 0 0 0 0 0 0 0 0 0 0 0 0 0 0 0 0 0 0 0 0 0 0 0 0 0 0 0 0 0 0 0 0 0 0 0 0 0 0 0 0 0 0 0 0 0 0 0 0 0 0 0 0 0 0 0 0 0 0 0 0 0 0 0 0 0 0 0 0 0 0 0 0 0 0 0 0 0 0 0 0 0 0 0 0 0 0 0 0 0 0 0 0 0 0 0 0 0 0 0 0 0 0 0 0 0 0 0 0 0 0 0 0 0 0 0 0 0 0 0 0 0 0 0 0 0 0 0 0 0 0 0 0 0 0 0 0 0 0 0 0 0 0 0 0 0 0 0 0 0 0 0 0 0 0 0 0 0 0 0 0 0 0 0 0 0 0 0 0 0 0 0 0 0 0 0 0 0 0 0 0 0 0 0 0 0 0 0 0 0 0 0 0 0 0 0 0 0 0 0 0 0 0 0 0 0 0 0 0 0 0 0 0 0 0 0 0 0 0 0 0 0 0 0 0 0 0 0 0 0 0 0 0 0 0 0 0 0 0 0 0 0 0 0 0 0 0 0 0 0 0 0 0 0 0 0 0 0 0 0 0 0 0 0 0 0 0 0 0 0 0 0 0 0 0 0 0 0 0 0 0 0 0 0 0 0 0 0 0 0 0 0 0 0 0 0 0 0 0 0 0 0 0 0 0 0 0 0 0 0 0 0 0 0 0 0 0 0 0 0 0 0 0 0 0 0 0 0 0 0 0 0 0 0 0 0 0 0 0 0 0 0 0 0 0 0 0 0 0 0 0 0 0 0 0 0 0 0 0 0 0 0 0 0 0 0 0 0 0 0 0 0 0 0 0 0 0 0 0 0 0 0 0 0 0 0 0 0 0 0 0 0 0 0 0 0 0 0 0 0 0 0 0 0 0 0 0 0 0 0 0 0 0 0 0 0 0 0 0 0 0 0 0 0 0 0 0 0 0 0 0 0 0 0 0 0 0 0 0 0 0 0 0 0 0 0 0 0 0 0 0 0 0 0 0 0 0 0 0 0 0 0 0 0 0 0 0 0 0 0 0 0 0 0 0 0 0 0 0 0 0 0 0 0 0 0 0 0 0 0 0 0 0 0 0 0 0 0 0 0 0 0 0 0 0 0 0 0 0 0 0 0 0 0 0 0 0 0 0 0 0 0 0 0 0 0 0 0 0 0 0 0 0 0 0 0 0 0 0 0 0 0 0 0 0 0 0 0 0 0 0 0 0 0 0 0 0 0 0 0 0 0 0 0 0 0 0 0 0 0 0 0 0 0 0 0 0 0 0 0 0 0 0 0 0 0 0 0 0 0 0 0 0 0 0 0 0 0 0 0 0 0 0 0 0 0 0 0 0 0 0 0 0 0 0 0 0 0 0 0 0 0 0 0 0 0 0 0 0 0 0 0 0 0 0 0 0 0 0 0 0 0 0 0 0 0 0 0 0 0 0 0 0 0 0 0 0 0 0 0 0 0 0 0 0 0 0 0 0 0 0 0 0 0 0 0 0 0 0 0 0 0 0 0 0 0 0 0 0 0 0 0 0 0 0 0 0 0 0 0 0 0 0 0 0 0 0 0 0 0 0 0 0 0 0 0 0 0 0 0 0 0 0 0 0 0 0 0 0 0 0 0 0 0 0 0 0 0 0 0 0 0 0 0 0 0 0 0 0 0 0 0 0 0 0 0 0 0 0 0 0 0 0 0 0 0 0 0 0 0 0 0 0 0 0 0 0 0 0 0 0 0 0 0 0 0 0 0 0 0 0 0 0 0 0 0 0 0 0 0 0 0 0 0 0 0 0 0 0 0 0 0 0 0 0 0 0 0 0 0 0 0 0 0 0 0 0 0 0 0 0 0 0 0 0 0 0 0 0 0 0 0 0 0 0 0 0 0 0 0 0 0 0 0 0 0 0 0 0 0 0 0 0 0 0 0 0 0 0 0 0 0 0 0 0 0 0 0 0 0 0 0 0 0 0 0 0 0 0 0 0 0 0 0 0 0 0 0 0 0 0 0 0 0 0 0 0 0 0 0 0 0 0 0 0 0 0 0 0 0 0 0 0 0 0 0 0 0 0 0 0 0 0 0 0 0 0 0 0 0 0 0 0 0 0 0 0 0 0 0 0 0 0 0 0 0 0 0 0 0 0 0 0 0 0 0 0 0 0 0 0 0 0 0 0 0 0 0 0 0 0 0 0 0 0 0 0 0 0 0 0 0 0 0 0 0 0 0 0 0 0 0 0 0 0 0 0 0 0 0 0 0 0 0 0 0 0 0 0 0 0 0 0 0 0 0 0 0 0 0 0 0 0 0 0 0 0 0 0 0 0 0 0 0 0 0 0 0 0 0 0 0 0 0 0 0 0 0 0 0 0 0 0 0 0 0 0 0 0 0 0 0 0 0 0 0 0 0 0 0 0 0 0 0 0 0 0 0 0 0 0 0 0 0 0 0 0 0 0 0 0 0 0 0 0 0 0 0 0 0 0 0 0 0 0 0 0 0 0 0 0 0 0 0 0 0 0 0 0 0 0 0 0 0 0 0 0 0 0 0 0 0 0 0 0 0 0 0 0 0 0 0 0 0 0 0 0 0 0 0 0 0 0 0 0 0 0 0 0 0 0 0 0 0 0 0 0 0 0 0 0 0 0 0 0 0 0 0 0 0 0 0 0 0 0 0 0 0 0 0 0 0 0 0 0 0 0 0 0 0 0 