P2
156 129
255
0 0 0 0 0 0 0 0 0 0 0 0 0 0 0 0 0 0 0 0 0 0 0 0 0 0 0 0 0 0 0 0 0 0 0 0 0 0 0 0 0 0 0 0 0 0 0 0 0 0 0 0 0 0 0 0 0 0 0 0 0 0 0 0 0 0 0 0 0 0 0 0 0 0 0 0 0 0 0 0 0 0 0 0 0 0 0 0 0 0 0 0 0 0 0 0 0 0 0 0 0 0 0 0 0 0 0 0 0 0 0 0 0 0 0 0 0 0 0 0 0 0 0 0 0 0 0 0 0 0 0 0 0 0 0 0 0 0 0 0 0 0 0 0 0 0 0 0 0 0 0 0 0 0 0 0 0 0 0 0 0 0 0 0 0 0 0 0 0 0 0 0 0 0 0 0 0 0 0 0 0 0 0 0 0 0 0 0 0 0 0 0 0 0 0 0 0 0 0 0 0 0 0 0 0 0 0 0 0 0 0 0 0 0 0 0 0 0 0 0 0 0 0 0 0 0 0 0 0 0 0 0 0 0 0 0 0 0 0 0 0 0 0 0 0 0 0 0 0 0 0 0 0 0 0 0 0 0 0 0 0 0 0 0 0 0 0 0 0 0 0 0 0 0 0 0 0 0 0 0 0 0 0 0 0 0 0 0 0 0 0 0 0 0 0 0 0 0 0 0 0 0 0 0 0 0 0 0 0 0 0 0 102 65 87 113 103 62 63 117 87 90 78 109 100 69 64 113 96 103 53 104 95 95 65 86 100 92 84 107 98 89 98 87 88 91 89 113 121 127 147 119 194 203 202 210 225 225 213 211 220 219 219 214 221 214 224 221 227 215 226 224 230 226 233 225 236 232 243 245 254 252 255 246 252 233 236 191 231 193 230 197 224 209 226 232 229 249 214 243 225 235 207 201 221 210 188 214 183 158 169 195 176 165 172 185 175 155 124 102 137 147 131 145 100 143 111 131 136 116 135 133 119 140 144 108 100 51 40 101 95 67 90 71 66 67 66 113 94 92 111 85 100 81 85 69 118 85 98 107 93 47 81 64 81 45 83 78 111 84 74 102 116 46 80 114 92 72 90 106 101 68 100 116 112 79 75 114 104 15 93 114 111 70 77 120 99 25 104 108 95 76 99 121 127 82 125 118 154 173 173 148 195 177 189 173 191 184 187 186 188 184 189 194 190 196 188 204 191 207 199 209 203 217 213 226 227 232 231 217 232 193 216 178 214 190 217 213 222 218 233 229 235 247 221 245 233 214 217 206 227 208 187 211 127 187 190 187 198 178 152 167 147 176 150 100 155 108 148 151 103 134 119 99 123 93 95 137 126 130 130 122 84 98 115 83 90 92 104 96 80 99 116 114 103 107 102 85 114 85 100 81 114 110 97 72 106 96 69 51 96 111 98 46 89 90 74 93 106 57 97 85 73 68 41 77 88 83 91 89 102 56 68 106 95 44 86 103 103 2 53 113 87 57 105 79 91 73 113 113 91 67 106 85 82 115 105 120 87 119 67 99 120 92 101 123 117 105 115 75 127 88 97 109 126 104 120 110 118 102 116 87 81 145 122 152 152 165 150 178 151 180 157 178 172 165 197 191 206 199 147 201 192 193 187 172 200 172 172 187 151 164 191 155 182 156 144 143 153 165 138 121 140 125 153 123 84 97 88 106 121 64 55 109 110 115 97 112 93 82 95 105 67 77 95 74 65 85 105 74 66 75 82 80 96 63 84 57 64 99 71 33 88 17 90 59 57 105 79 51 58 87 75 94 60 54 93 17 48 33 74 34 66 36 55 66 71 56 63 87 57 28 71 79 86 45 61 77 53 54 78 50 71 61 107 61 74 62 87 75 14 78 76 88 47 82 77 88 86 90 84 91 98 29 96 83 37 39 101 84 64 92 33 37 76 97 76 123 81 99 113 124 101 132 95 131 96 150 95 156 115 156 152 128 159 107 167 140 127 176 127 157 156 70 73 149 124 123 163 138 123 146 119 111 92 140 104 98 96 112 120 103 49 55 62 65 116 78 78 75 33 99 52 61 38 38 73 79 19 25 46 60 64 25 30 41 49 40 50 35 34 53 47 6 29 39 45 1 68 64 67 27 70 50 23 71 44 72 71 80 29 58 74 43 19 57 73 52 67 38 39 70 54 28 73 76 52 47 48 54 75 46 67 18 42 72 34 51 59 36 75 63 77 52 50 77 62 81 61 63 68 86 94 86 75 79 67 78 90 63 98 67 69 70 96 67 92 92 54 78 80 77 100 82 92 119 124 116 83 118 75 136 61 144 101 147 102 140 122 123 145 74 146 128 123 144 130 98 133 102 148 130 121 103 133 117 115 130 119 122 106 97 83 64 79 69 62 79 38 42 70 62 93 74 62 60 75 50 84 52 45 24 35 49 41 51 55 22 67 36 38 27 46 44 59 33 41 48 65 57 43 50 50 15 60 26 42 37 45 65 51 65 37 54 29 49 51 65 24 54 68 37 64 47 60 53 45 57 19 42 54 36 68 76 9 47 40 57 35 20 70 63 38 35 58 42 39 15 75 20 65 47 41 78 73 36 72 82 35 45 54 64 50 27 69 43 89 31 39 42 75 56 94 51 49 46 63 50 69 53 107 66 52 98 72 115 32 124 72 135 67 128 69 103 109 79 130 107 139 126 77 144 125 101 135 98 104 144 116 127 124 116 125 126 130 88 103 106 85 88 97 97 84 56 41 54 79 89 67 34 41 62 71 53 73 61 50 47 22 35 32 56 67 67 67 51 15 35 35 55 43 25 61 11 56 50 40 31 54 45 43 22 22 46 36 59 49 55 29 45 36 33 46 52 22 23 47 49 44 44 35 36 61 47 49 41 30 34 58 64 22 49 5 73 24 36 59 58 50 48 68 58 64 62 65 56 11 57 34 62 59 27 61 67 50 4 50 36 73 25 27 15 66 25 25 42 21 34 58 59 53 30 42 61 62 48 59 91 81 103 75 115 95 127 89 142 84 143 110 131 146 88 169 95 164 167 126 169 138 137 174 127 145 175 149 135 156 141 130 123 145 122 121 121 103 91 83 102 94 25 39 22 47 59 24 52 66 60 59 54 55 14 70 62 6 18 21 44 34 58 60 41 35 25 9 21 51 41 52 50 11 26 18 27 10 50 38 42 33 2 30 40 64 44 51 14 46 43 45 13 13 52 30 31 23 30 22 35 63 51 50 42 41 60 25 28 42 45 23 67 36 25 28 15 36 63 53 55 47 36 36 39 24 58 31 61 36 44 43 53 55 38 54 50 84 22 43 9 42 32 34 35 27 30 56 51 12 9 65 66 20 63 72 91 92 111 85 134 115 149 130 153 143 116 159 143 171 163 188 167 174 181 159 188 147 141 174 76 148 165 137 147 139 128 114 109 122 101 94 89 83 69 58 69 65 40 47 59 47 58 58 53 76 63 35 52 24 56 55 44 37 32 10 27 19 17 39 37 41 10 26 34 54 39 25 31 42 35 23 38 46 13 52 49 36 48 38 17 53 22 31 34 16 21 12 29 9 27 53 11 36 24 43 50 60 32 27 37 38 58 38 28 25 19 46 56 18 30 12 53 36 53 17 1 54 46 40 24 50 17 29 62 42 60 68 37 71 64 77 56 82 8 72 57 48 48 58 14 49 26 57 52 70 32 96 51 86 88 69 112 84 137 116 150 133 158 155 155 166 156 170 148 167 166 179 160 118 162 148 173 144 72 144 123 94 121 81 103 72 57 47 76 64 28 15 52 28 49 45 32 46 37 8 32 27 51 59 37 59 51 29 19 13 51 42 11 30 36 23 24 38 34 5 21 49 50 48 33 27 12 24 15 27 24 27 38 37 9 29 42 6 51 28 8 42 16 0 33 5 18 18 20 41 40 64 24 33 8 45 38 5 46 8 14 36 61 37 32 31 18 47 49 27 6 6 61 21 29 13 32 50 38 46 34 46 19 44 63 63 93 101 80 101 81 93 74 89 76 87 95 63 89 77 79 28 84 84 79 88 109 41 115 62 88 72 98 79 146 129 141 138 141 150 136 140 145 134 103 120 127 146 72 110 89 67 127 81 81 74 94 109 31 37 48 40 47 56 46 3 41 34 31 34 44 42 24 33 6 42 15 8 16 16 15 51 33 41 7 23 6 12 46 14 31 34 27 38 33 31 22 29 43 48 30 19 21 24 13 4 23 20 34 23 41 17 23 23 32 8 13 38 30 35 41 14 42 14 11 37 42 49 0 15 19 16 49 47 34 6 6 44 58 46 23 46 41 9 35 14 48 13 43 31 34 21 40 43 53 17 40 4 19 38 55 32 85 91 36 104 82 87 88 101 95 95 100 72 96 51 97 82 108 95 99 103 118 95 120 100 90 83 93 100 135 95 128 102 130 110 125 52 115 85 69 90 81 114 84 84 94 94 106 69 87 64 60 82 70 53 45 32 59 7 55 21 49 62 8 42 42 24 21 15 23 24 11 8 29 1 33 41 18 31 20 37 42 19 48 28 26 26 14 10 19 41 29 17 10 40 29 31 32 33 26 9 24 28 25 21 46 31 30 3 10 13 16 15 45 33 50 45 50 19 31 41 16 15 1 27 43 26 42 8 5 18 17 25 53 35 48 34 41 14 25 24 46 15 2 45 64 19 15 42 25 49 43 39 1 30 28 35 15 52 38 78 70 48 53 82 64 82 46 76 69 82 74 99 98 85 91 79 85 87 96 97 61 64 94 46 113 63 111 82 112 93 72 64 54 109 110 93 64 67 90 94 129 128 109 47 117 92 82 14 79 77 68 28 24 43 67 42 39 45 52 37 57 37 22 7 22 2 22 18 25 17 31 26 20 2 12 25 19 13 28 40 0 22 28 9 31 28 1 13 13 35 23 18 19 33 28 13 25 29 33 36 24 41 36 25 13 23 25 12 27 22 40 42 39 21 35 51 32 18 2 17 54 34 23 30 1 49 17 18 55 25 55 12 30 23 21 24 6 26 8 22 70 21 55 60 65 56 67 49 48 45 38 79 62 46 27 53 57 71 28 54 80 70 94 76 105 78 97 27 87 78 95 88 101 103 94 122 110 124 120 119 93 103 44 129 83 127 89 109 117 102 114 109 106 79 127 70 138 138 119 90 116 47 97 58 82 91 82 39 56 76 44 71 43 20 64 45 69 42 14 44 12 16 23 25 15 26 29 35 47 34 19 25 12 26 17 23 20 4 32 47 15 0 10 25 11 7 39 25 11 26 14 11 12 13 36 29 4 45 33 21 22 8 5 36 11 46 30 64 33 32 17 44 30 30 15 34 45 24 37 41 17 59 20 23 33 44 35 7 6 27 22 19 24 3 5 2 51 14 51 50 60 36 64 26 53 46 47 87 82 49 42 82 80 89 88 67 108 66 119 79 126 106 124 100 116 70 105 63 131 88 129 118 132 122 128 132 97 98 89 123 106 127 118 113 113 116 99 123 89 108 118 121 140 110 111 36 86 72 75 64 59 78 67 39 51 71 52 60 38 8 54 42 55 30 4 42 38 34 9 28 31 41 26 29 37 20 3 44 25 33 8 17 8 17 17 51 17 29 29 13 39 22 34 4 36 20 18 14 27 28 24 7 14 10 33 26 17 39 46 49 6 36 51 49 20 44 24 18 26 5 18 24 0 41 61 33 31 44 29 19 0 46 12 40 26 25 1 21 16 23 3 5 13 24 22 40 31 45 29 15 28 11 35 56 71 58 59 84 76 88 92 101 107 103 112 79 118 86 111 70 114 85 76 75 125 112 116 95 111 85 100 101 100 51 93 80 110 92 96 82 98 85 93 102 58 95 29 110 113 55 96 90 64 66 25 48 2 45 8 15 39 49 36 9 21 28 26 18 20 44 37 28 14 23 23 27 34 43 11 21 25 3 26 34 21 26 15 9 6 3 4 38 27 17 21 30 34 9 9 22 39 20 19 10 22 36 13 13 28 20 26 23 12 22 33 43 21 9 46 3 25 29 17 14 12 18 3 10 13 15 62 41 19 13 11 35 6 43 13 32 6 26 1 9 19 25 16 5 9 38 21 30 19 38 13 13 34 37 62 20 47 26 25 48 49 80 51 104 64 109 87 98 96 81 82 84 89 72 89 78 77 75 60 68 80 79 89 77 90 56 84 70 89 30 88 51 87 49 83 46 28 85 64 103 75 0 78 71 34 52 20 53 50 31 16 18 44 30 13 18 2 13 23 12 14 35 27 35 20 14 25 12 24 22 13 32 6 13 31 31 39 0 3 10 6 22 14 23 14 4 8 8 19 8 36 4 22 15 6 16 28 13 12 12 13 10 19 2 23 11 12 32 9 9 16 16 40 3 4 16 4 32 13 24 37 4 73 38 27 0 17 28 1 21 18 6 26 21 13 7 25 41 38 15 28 33 6 48 23 47 28 31 58 49 46 62 27 74 52 95 77 109 98 109 103 99 104 94 112 78 125 41 122 87 127 76 122 97 123 86 119 99 125 101 103 75 114 68 100 82 100 93 74 104 73 108 38 105 58 102 107 66 79 43 63 39 37 48 50 41 18 18 45 8 4 8 8 4 38 22 2 13 14 13 25 12 26 11 17 20 14 8 1 24 20 14 22 2 3 4 17 27 8 3 2 17 6 2 17 9 41 6 3 1 0 15 35 19 20 15 14 15 30 19 11 17 27 24 7 18 11 33 48 9 15 25 10 30 23 24 48 0 75 10 33 18 31 15 14 11 16 3 34 23 20 15 46 41 41 38 16 17 6 77 66 64 49 42 68 86 71 99 84 104 79 104 112 127 129 59 121 84 124 76 126 117 137 105 133 119 142 105 137 123 138 129 138 129 146 123 94 108 122 119 72 115 43 115 84 113 81 123 80 111 81 109 120 41 93 48 60 62 34 42 50 15 11 28 54 9 5 15 23 9 47 7 11 18 34 4 22 4 27 12 30 24 16 9 23 20 14 0 27 13 13 3 5 10 2 7 0 13 1 11 23 12 37 9 5 13 1 27 23 35 26 20 17 24 34 32 22 27 29 15 2 5 5 27 39 28 22 30 4 3 37 25 38 8 65 22 25 24 17 23 21 7 20 12 19 7 11 17 14 31 28 38 5 21 3 74 57 55 43 24 67 71 80 94 88 90 84 91 101 111 115 98 102 78 109 90 110 102 116 91 112 109 130 106 126 122 131 129 136 129 137 115 82 101 95 110 94 104 101 92 82 92 72 114 83 114 16 88 126 72 107 76 63 96 47 40 72 47 37 67 48 26 26 22 21 17 47 39 8 22 33 18 15 1 20 5 27 9 19 1 25 20 12 5 29 4 24 0 6 10 24 3 19 11 8 18 19 3 22 7 4 19 13 24 17 9 12 2 15 13 10 37 20 5 14 7 11 5 1 14 17 18 6 7 8 12 30 32 0 27 38 13 13 25 11 12 15 23 2 20 9 5 11 4 19 3 30 4 3 13 6 44 4 26 11 40 17 20 43 60 29 18 44 42 54 74 48 82 20 75 41 70 50 45 48 69 44 43 80 72 76 81 89 70 93 77 96 51 82 49 90 58 95 67 81 44 36 83 88 88 68 109 33 101 119 82 96 75 76 104 40 34 81 64 34 57 23 46 36 25 21 30 42 36 23 15 14 31 21 11 0 7 24 6 13 3 30 20 17 16 17 5 20 15 18 20 27 16 5 10 14 20 9 13 19 3 3 8 18 8 17 10 23 0 12 17 7 30 19 1 3 25 18 18 1 13 5 14 20 7 9 9 14 23 9 38 23 16 27 25 18 3 15 23 5 20 9 6 5 9 9 16 39 34 4 5 12 15 11 11 11 33 8 34 2 14 0 2 9 43 31 45 22 50 32 16 7 15 12 44 39 29 32 43 34 30 35 24 42 18 64 17 72 32 61 36 79 49 70 55 25 57 28 27 54 43 37 88 44 77 87 48 68 51 48 87 26 15 61 45 21 17 25 34 18 22 16 17 32 15 7 9 10 19 23 14 9 14 19 9 3 10 18 3 6 8 6 9 17 26 5 8 5 1 23 5 2 5 15 11 17 14 22 15 14 23 8 7 26 1 8 8 4 22 3 0 12 20 15 17 4 16 18 13 6 13 18 8 9 12 2 30 33 37 32 20 6 18 10 9 5 0 11 0 11 12 4 10 16 33 8 1 32 5 12 2 17 26 23 29 15 10 10 3 12 4 19 16 22 30 21 24 4 2 22 12 26 15 43 10 31 31 24 36 25 45 25 18 56 10 18 12 51 27 47 5 29 37 4 29 49 19 19 56 28 58 72 17 44 41 31 54 7 33 34 0 24 10 21 0 2 19 3 8 11 3 8 12 6 6 20 18 10 15 4 16 7 13 9 2 0 4 6 19 10 18 5 14 6 4 24 9 4 5 10 3 2 2 23 31 28 22 15 12 15 1 1 26 11 17 9 5 8 4 9 2 2 6 26 13 0 22 5 20 17 17 15 8 58 65 39 35 1 35 16 14 5 25 0 21 35 25 1 4 25 25 1 24 30 37 29 6 12 10 11 25 4 21 6 12 11 22 26 43 27 25 6 21 8 1 8 2 2 4 26 6 13 27 3 40 11 17 4 14 28 4 0 22 11 25 12 6 7 13 10 8 29 24 22 23 4 10 45 13 16 35 21 24 18 0 18 11 37 23 16 11 0 20 17 17 10 24 3 11 9 0 27 9 5 14 14 14 14 20 11 1 2 3 4 11 12 21 14 11 14 21 5 4 5 10 13 10 2 15 17 15 22 32 5 0 10 21 0 18 6 19 7 6 7 7 19 2 10 28 18 30 35 18 29 49 8 30 18 3 75 78 50 49 26 29 39 22 10 23 6 19 27 16 13 9 35 25 15 17 2 33 5 1 7 13 25 32 24 25 6 4 8 22 39 58 38 35 6 27 24 0 4 28 23 21 19 10 12 29 19 43 25 2 16 27 1 25 16 25 20 37 1 9 2 11 18 15 29 25 1 11 14 8 3 4 16 13 23 11 0 33 20 1 23 16 0 23 27 19 24 17 5 31 7 13 0 9 26 0 18 8 2 12 23 21 9 17 4 7 7 4 21 12 16 11 10 19 18 18 11 20 18 14 5 23 5 10 19 41 11 10 8 30 16 7 15 26 6 10 5 19 23 20 1 34 18 17 47 25 28 61 12 38 15 34 84 83 45 52 46 46 47 28 9 6 10 24 31 42 16 7 25 17 34 15 1 44 41 7 4 16 42 16 10 17 34 2 20 18 40 45 35 38 4 40 11 2 8 24 44 33 39 20 2 40 15 23 31 5 13 36 3 29 20 20 6 10 14 19 20 30 9 0 24 23 13 10 12 31 35 1 19 11 26 3 26 42 10 22 2 11 40 25 37 12 13 10 22 9 1 8 19 18 18 12 30 8 14 15 23 28 9 26 3 11 2 2 14 6 6 23 12 5 0 0 9 13 24 1 28 13 6 18 23 23 18 23 13 9 30 21 12 23 17 10 8 23 28 19 7 36 14 26 17 14 12 54 21 36 6 43 95 67 64 54 55 52 29 33 24 18 17 12 34 44 35 33 15 16 39 29 9 65 49 11 28 12 26 18 21 27 46 29 27 35 34 5 0 21 28 45 2 19 15 18 39 7 19 12 21 40 7 20 2 13 24 23 0 9 27 32 33 22 22 21 33 33 14 6 10 25 23 22 1 26 35 2 12 20 9 0 18 31 7 43 24 28 35 5 25 13 6 8 30 3 22 5 23 12 17 11 35 1 24 13 17 23 8 15 9 3 18 7 9 5 16 13 14 18 16 5 35 22 0 23 32 3 18 48 42 17 3 22 21 1 8 31 10 6 21 14 16 21 16 19 10 30 27 31 33 38 25 38 46 19 30 25 97 67 64 20 37 10 38 18 26 32 21 20 28 23 39 47 39 31 22 36 26 55 26 18 42 20 11 26 2 12 18 62 32 41 46 37 34 50 43 25 28 38 45 24 42 35 37 33 5 49 37 45 52 60 55 20 22 35 44 36 30 25 40 22 29 1 31 24 29 7 25 30 27 26 34 31 17 35 21 26 32 12 16 31 15 32 3 16 12 18 0 26 43 7 41 36 22 15 4 5 33 9 19 5 11 4 21 30 14 6 6 22 21 31 18 8 10 15 23 1 36 25 33 4 16 8 27 40 4 18 8 14 0 17 7 25 24 15 27 23 21 33 12 23 5 3 44 18 37 48 0 20 54 29 20 18 87 79 45 25 9 26 14 22 17 31 34 38 24 3 31 41 34 42 26 30 31 28 19 9 30 2 42 45 52 63 20 70 15 56 60 66 36 58 42 43 49 75 73 40 57 35 64 32 68 47 73 30 68 76 31 82 32 53 51 16 43 2 67 32 53 12 16 54 63 30 31 56 29 58 50 49 50 42 46 61 31 3 22 14 32 26 9 17 1 21 12 39 49 25 41 33 19 19 12 13 14 0 16 9 14 13 15 26 23 14 15 35 13 38 27 15 17 2 7 9 24 13 28 33 7 24 18 11 40 20 31 23 25 24 0 5 24 29 14 15 2 36 12 26 5 3 41 2 28 27 3 19 38 26 24 26 42 67 39 29 10 34 24 30 14 12 14 40 17 31 19 29 33 20 35 25 29 56 13 1 11 8 47 28 58 68 22 68 44 74 59 64 39 87 63 52 65 78 89 51 88 89 92 71 95 59 91 54 69 59 74 104 83 78 57 25 57 45 80 36 49 47 4 57 52 74 48 74 24 60 49 57 71 44 48 69 30 27 34 21 38 24 11 16 17 2 1 19 30 22 23 12 13 8 12 19 17 15 10 3 19 9 16 12 15 29 27 21 19 15 25 23 1 12 33 0 9 1 9 28 2 25 27 30 13 21 34 6 25 22 0 8 10 7 14 1 8 33 1 34 4 12 19 2 37 1 3 50 28 23 22 27 61 42 25 40 0 45 34 17 23 11 44 6 30 29 38 28 7 12 0 51 16 93 48 37 38 25 34 20 42 51 4 53 51 43 59 41 55 93 38 61 63 49 73 64 85 96 93 75 93 63 76 67 76 72 77 103 81 86 69 64 43 47 80 54 1 37 41 56 30 86 64 64 71 27 42 53 80 41 35 66 40 32 33 1 31 15 29 15 1 36 0 9 14 4 16 25 5 6 0 23 35 31 30 20 20 7 24 29 20 42 14 21 37 26 9 44 33 24 19 41 22 17 20 1 35 17 14 6 12 9 14 16 37 33 17 28 4 5 21 27 12 27 14 40 3 16 17 35 22 8 32 32 40 41 6 19 57 9 26 32 26 45 7 16 44 35 56 31 50 34 45 19 33 13 26 47 30 114 76 70 24 10 48 48 45 30 32 56 10 45 49 38 35 77 32 68 37 55 26 17 21 30 30 29 56 52 33 42 60 59 62 89 10 60 54 73 23 18 67 67 30 9 50 61 28 68 35 38 71 46 35 45 76 43 27 47 44 24 13 33 19 5 37 9 23 41 20 25 29 39 14 48 22 9 7 29 44 35 22 39 34 29 31 39 25 40 1 18 40 25 17 38 51 24 26 45 46 38 18 9 40 6 17 9 19 18 11 1 42 49 10 42 38 12 16 37 0 30 0 40 24 32 35 22 26 27 21 11 16 38 24 44 16 28 32 2 44 33 16 4 41 49 21 5 41 35 29 5 21 0 9 17 31 116 89 80 48 17 52 13 40 45 24 43 41 16 6 18 27 50 16 55 31 26 9 31 43 39 44 47 56 36 13 22 44 9 2 57 38 21 9 54 25 23 30 35 15 32 54 25 46 48 33 48 38 41 10 27 59 36 16 50 29 14 17 29 3 14 14 18 12 10 39 34 50 41 37 40 24 9 0 17 35 12 36 18 28 29 23 37 27 21 1 3 24 10 23 8 47 33 35 7 25 36 10 2 28 5 36 9 13 18 41 30 9 30 14 29 39 25 17 27 6 29 11 14 39 48 18 7 43 10 18 25 13 24 7 36 5 10 18 32 46 19 13 1 32 37 14 25 40 41 13 11 8 29 10 20 5 98 64 67 25 27 25 45 7 46 23 15 32 9 42 42 18 32 25 29 27 23 17 49 55 27 18 36 0 28 53 42 14 3 9 34 47 19 17 29 8 37 23 14 41 42 28 9 23 32 9 36 11 48 35 1 35 34 19 55 33 25 23 7 18 33 17 36 0 7 37 22 31 10 26 25 31 3 25 3 24 20 43 21 4 32 8 18 30 14 14 12 0 0 4 17 50 35 23 4 24 13 0 5 10 6 17 25 4 20 39 24 27 31 24 27 13 19 25 35 20 19 4 11 13 30 17 14 18 39 31 29 27 13 27 10 39 36 4 26 21 26 24 9 8 7 35 5 42 27 32 4 10 23 3 30 38 55 28 50 17 27 12 57 54 30 29 68 30 50 54 57 18 53 43 24 55 52 47 75 74 48 59 52 72 50 78 79 71 45 30 46 32 49 52 44 46 25 54 1 63 42 62 60 64 67 44 8 3 48 28 8 35 13 21 23 43 12 9 5 8 29 18 23 3 13 15 1 24 11 10 21 19 0 37 1 11 19 32 18 31 31 4 13 1 10 13 14 3 13 4 25 43 10 30 22 4 28 4 7 19 14 16 25 8 12 22 23 13 38 21 16 16 30 11 32 28 10 12 6 10 7 8 37 36 25 10 40 31 19 40 11 40 31 31 36 13 14 8 0 17 28 50 19 42 3 25 25 11 15 28 18 25 30 16 21 6 14 1 57 52 60 53 80 15 51 58 58 26 55 45 30 72 55 70 78 67 27 37 66 76 63 58 74 71 49 23 21 19 56 49 35 33 50 59 39 63 33 60 51 68 70 34 29 11 35 18 6 20 26 33 8 39 16 14 14 17 9 12 6 10 21 12 2 35 8 3 5 8 17 30 11 10 17 13 20 26 22 28 1 6 20 33 29 14 10 6 22 7 36 11 43 23 27 3 14 15 14 17 7 3 24 10 13 18 11 21 27 43 39 10 14 26 12 31 24 13 21 28 19 24 25 24 25 23 30 38 22 52 37 22 58 41 10 0 10 20 20 32 14 35 4 22 32 6 23 35 29 22 13 31 41 32 37 17 43 41 42 40 82 43 64 32 44 46 46 40 49 74 53 79 65 31 67 51 34 67 62 38 7 43 22 48 52 6 42 23 0 8 27 22 30 36 0 8 10 37 32 12 18 6 13 25 16 11 19 12 29 40 9 28 21 32 18 23 6 20 22 25 24 32 5 17 16 11 3 8 20 28 12 31 40 0 3 36 18 17 21 28 11 16 7 20 20 20 15 20 38 7 27 14 13 6 4 1 27 3 13 8 6 9 19 23 32 43 24 19 10 7 6 26 25 28 11 28 13 30 2 34 7 31 50 15 30 56 25 28 50 17 39 6 41 14 45 29 2 22 18 37 27 26 14 32 19 12 46 69 47 63 37 41 50 62 46 29 66 73 49 52 45 69 71 65 83 68 75 42 37 67 67 25 38 46 35 29 14 55 30 10 49 16 25 10 11 22 7 11 9 4 6 33 21 0 30 31 13 18 46 35 25 31 30 8 49 41 20 24 15 22 15 32 13 31 24 23 43 20 32 13 32 8 22 41 6 23 5 34 35 31 5 5 1 25 7 9 11 16 10 39 27 11 8 17 6 18 8 25 12 1 11 16 27 25 17 1 28 7 30 28 10 47 23 5 6 9 15 12 26 38 5 48 43 48 20 39 34 30 43 37 42 52 34 30 18 42 56 23 60 21 30 40 32 15 34 38 33 40 24 29 7 9 73 86 79 34 31 44 55 67 85 69 90 22 102 78 93 76 100 105 100 102 81 97 52 102 40 85 64 78 19 89 75 88 52 50 52 3 19 26 26 27 13 17 5 21 9 36 34 29 53 31 30 7 30 24 22 37 34 46 49 17 13 27 7 4 4 17 5 51 34 5 39 39 56 10 35 13 23 48 21 24 3 26 17 28 35 28 21 21 12 2 20 30 27 37 25 8 13 14 1 15 23 20 1 5 30 34 16 31 28 4 23 10 12 3 37 43 15 0 33 37 32 9 4 34 12 49 46 47 37 35 45 3 18 12 50 16 55 17 15 42 45 28 64 38 41 53 46 43 42 30 29 34 44 17 6 5 64 63 48 56 61 42 62 68 82 62 98 81 114 106 102 72 109 108 85 111 63 110 96 115 73 93 36 98 63 92 67 89 67 66 52 54 50 36 12 41 33 24 0 36 20 18 36 7 45 11 45 27 17 37 5 25 34 39 33 15 7 37 34 19 9 7 21 40 48 8 43 48 54 15 6 11 33 4 37 33 33 18 7 22 23 32 23 1 29 21 27 40 22 26 13 9 31 10 23 20 26 21 19 5 25 43 13 3 37 26 0 14 28 14 41 36 18 9 34 41 36 27 0 22 24 19 38 32 42 19 32 32 17 21 16 17 36 11 34 37 1 22 56 13 30 45 31 41 32 38 21 4 23 17 14 26 57 60 79 62 25 56 54 46 49 51 64 45 81 92 75 52 94 69 84 82 88 74 84 93 66 56 72 84 59 70 86 78 64 55 2 62 51 46 5 52 62 15 6 38 3 34 11 28 46 0 40 27 25 29 1 12 30 22 3 34 26 11 34 29 28 18 12 17 49 18 25 31 19 40 11 14 23 29 16 14 33 17 20 8 8 25 26 6 21 27 27 19 27 14 8 14 18 26 18 35 22 10 29 12 11 29 32 25 29 41 18 17 34 11 14 31 38 17 37 1 1 12 8 28 28 11 15 25 44 2 25 46 24 15 28 31 28 24 41 1 29 25 54 7 25 34 24 19 25 38 29 0 10 15 42 9 53 67 68 69 52 38 38 17 8 15 13 43 33 59 27 32 50 19 63 17 57 26 29 13 35 32 48 52 24 53 74 65 42 41 10 45 32 48 19 58 61 42 10 27 33 40 17 18 34 31 17 8 9 34 8 12 22 13 27 9 15 4 24 7 32 29 26 37 37 19 5 17 24 42 8 12 22 37 19 28 19 16 11 29 18 18 22 5 2 5 11 5 28 27 26 9 1 8 11 30 40 5 28 8 40 7 18 24 18 32 18 23 14 25 28 26 41 13 8 8 21 0 18 36 5 30 33 30 27 8 13 44 19 1 9 37 42 27 20 4 23 22 43 34 37 17 16 4 27 18 32 14 7 30 29 22 43 42 13 35 37 2 23 30 23 9 0 40 35 35 21 23 49 52 28 9 11 7 8 33 18 7 39 4 6 15 40 57 15 37 38 28 19 44 27 53 48 43 22 27 44 37 32 14 2 27 37 53 55 59 37 29 30 31 52 29 14 4 11 26 13 0 16 56 17 22 15 3 14 27 16 21 28 28 10 31 15 10 6 12 35 28 11 13 6 0 19 6 14 3 21 2 5 2 23 3 29 4 12 21 48 25 20 0 18 3 26 38 8 21 7 26 32 18 15 33 15 3 48 6 25 30 34 23 5 28 5 6 45 38 13 23 57 23 24 15 12 28 15 38 48 15 24 27 31 19 39 32 30 17 34 44 65 19 35 9 17 14 26 44 43 32 24 47 39 52 39 13 62 23 47 16 32 17 55 21 31 48 51 25 46 47 73 72 37 59 27 39 18 53 16 42 16 54 8 32 49 41 54 56 18 33 73 53 42 82 18 57 41 36 72 21 39 4 18 28 31 39 39 45 38 5 5 13 16 22 38 9 45 21 6 22 3 5 38 26 23 27 41 14 13 22 26 5 5 15 19 21 11 0 25 20 25 1 4 22 41 15 28 29 27 31 26 50 14 6 28 3 35 42 5 43 16 12 67 45 59 4 17 44 16 35 50 58 36 54 38 47 68 32 50 41 25 44 49 14 51 27 25 32 26 52 41 7 42 17 34 67 80 52 65 49 38 43 29 33 64 62 46 66 76 61 58 51 39 56 10 34 65 69 67 57 35 61 57 14 49 47 66 67 57 79 34 42 26 43 38 44 26 50 24 26 39 26 65 70 1 52 89 70 55 79 29 53 48 23 65 40 47 12 33 31 42 51 54 38 8 24 31 22 23 4 18 46 41 34 24 47 38 43 44 29 54 17 45 24 9 39 29 8 23 9 31 13 10 15 48 7 43 24 37 18 17 24 39 45 48 42 37 50 4 14 42 18 45 39 15 37 39 27 41 46 69 22 25 62 28 20 51 70 12 61 64 77 16 62 67 49 35 25 54 37 36 32 33 44 29 58 30 54 26 13 41 59 63 2 60 45 61 50 37 25 47 62 45 59 82 11 32 78 3 65 43 53 59 67 16 71 58 37 43 32 60 25 37 59 48 78 34 55 35 30 33 50 41 39 15 24 24 38 12 72 17 47 58 70 34 16 55 18 39 27 44 44 30 23 24 5 44 58 63 31 25 17 56 34 54 5 40 42 29 14 1 55 19 63 12 21 58 21 26 28 18 31 44 13 43 49 30 32 35 19 49 42 34 39 35 31 30 36 47 42 37 51 33 42 40 43 62 48 43 11 37 19 56 30 44 62 80 51 28 62 35 37 50 75 66 33 75 74 41 40 56 44 19 50 64 36 64 24 62 55 46 55 27 56 44 22 77 81 20 58 48 45 49 64 30 60 35 44 59 26 67 64 63 76 34 61 51 80 24 45 43 79 72 25 24 36 44 72 46 78 67 72 59 76 0 38 27 37 34 36 34 32 19 60 46 59 17 64 68 43 50 61 54 50 15 2 52 15 12 0 0 7 48 76 61 46 18 20 63 47 44 41 66 41 34 50 56 53 46 72 22 35 59 33 29 53 58 42 20 54 57 70 46 37 50 44 19 17 33 51 38 23 38 55 69 43 41 66 4 51 57 42 47 67 32 54 65 31 59 31 80 69 85 64 55 28 42 63 57 53 87 35 74 82 80 77 44 47 17 55 75 50 74 73 57 17 52 65 16 55 53 41 72 85 55 38 53 31 60 74 26 62 57 48 69 9 50 58 46 47 37 38 61 80 16 75 31 90 81 21 36 65 87 67 54 81 51 78 26 63 37 48 22 24 1 42 63 72 38 34 71 33 35 75 68 61 50 42 52 37 37 20 33 29 23 18 20 34 62 83 46 72 19 31 41 69 63 63 45 38 52 57 63 68 76 75 66 83 47 51 9 48 70 35 54 72 86 68 37 8 43 37 24 41 60 56 62 21 29 55 75 28 65 67 18 69 49 41 42 67 34 70 44 57 28 40 66 58 67 69 87 80 46 72 44 47 72 34 69 96 97 53 60 58 61 62 61 36 74 82 18 54 32 54 63 16 60 37 75 61 40 67 19 41 58 42 51 23 70 58 64 17 40 60 40 78 63 63 41 75 47 81 47 85 50 64 63 70 82 13 39 72 13 67 54 66 50 33 1 10 5 43 62 67 57 55 83 42 46 52 27 46 49 62 32 25 44 34 33 35 40 28 19 44 68 72 40 86 38 33 3 57 74 59 21 47 41 65 44 76 68 80 74 70 41 65 28 36 58 24 67 65 91 29 55 55 52 9 52 38 36 33 60 28 9 48 58 24 65 65 68 66 64 60 21 43 38 69 63 50 45 7 32 73 12 37 62 76 25 55 69 41 1 61 47 65 80 56 9 29 80 47 19 59 28 61 38 56 44 7 71 42 68 62 88 58 60 58 44 54 51 42 72 56 57 65 53 2 40 64 66 69 50 65 30 45 24 43 54 49 65 34 51 45 65 37 38 67 35 40 59 45 2 20 32 16 19 27 58 34 37 61 73 54 57 36 53 19 43 82 42 18 22 21 35 19 1 18 32 48 57 49 17 74 60 45 13 25 35 66 52 51 34 72 60 64 53 63 46 12 33 58 9 17 3 41 51 34 29 49 68 15 53 59 67 38 35 37 25 24 26 54 33 30 54 46 76 27 73 60 27 48 8 48 57 52 46 45 28 73 37 29 44 54 12 8 65 24 28 70 24 58 29 6 55 40 63 45 44 24 38 52 26 60 38 32 48 28 54 62 72 42 34 58 49 66 40 38 50 44 55 76 22 8 12 71 38 33 22 39 58 54 15 28 65 55 66 41 14 52 37 64 56 58 17 58 37 11 0 23 36 16 40 6 57 41 43 39 37 49 41 43 30 47 61 63 2 8 21 3 1 36 27 11 43 44 37 17 43 64 43 37 22 37 52 66 67 66 39 68 48 51 41 38 12 42 18 22 47 52 53 16 1 50 46 67 56 36 40 65 63 29 56 34 31 51 35 8 46 35 45 12 56 59 34 72 23 39 37 57 30 16 14 63 40 71 42 39 43 35 31 40 36 37 34 49 48 65 40 32 36 43 39 22 64 53 48 56 26 46 40 47 4 41 40 54 64 48 38 40 50 54 7 40 59 12 71 71 37 5 7 62 27 55 29 55 11 67 48 52 53 20 67 59 43 47 46 52 25 28 42 62 37 20 41 30 39 14 46 6 50 13 29 47 20 44 24 60 35 49 51 13 50 16 29 15 15 20 17 11 12 17 46 23 20 63 7 4 31 39 31 59 65 68 42 50 37 17 0 11 23 39 20 34 39 42 38 46 21 42 29 49 42 24 31 45 46 34 60 33 42 49 48 40 51 25 10 26 62 36 30 54 45 27 20 58 2 14 35 54 34 52 48 10 38 21 39 34 49 44 46 38 60 63 48 12 23 19 13 21 59 50 66 47 33 28 23 57 39 34 7 14 43 33 56 53 55 43 17 48 64 22 65 43 18 6 2 35 35 62 44 58 32 33 66 42 59 21 52 58 36 37 52 47 46 32 44 33 52 37 33 37 26 8 48 31 33 35 50 31 43 38 28 47 14 40 7 21 47 15 10 20 21 10 19 30 26 27 38 18 10 52 19 23 35 38 29 53 45 54 31 3 34 41 2 17 30 12 22 35 26 8 41 13 27 44 14 0 37 43 30 28 26 31 30 26 50 24 33 33 40 18 41 11 65 41 45 25 53 45 22 43 33 18 25 7 27 57 53 18 29 12 26 14 34 46 45 60 46 56 40 50 37 27 21 15 33 50 30 21 16 36 29 40 49 33 33 12 7 6 35 45 40 38 2 15 33 34 36 51 23 10 35 20 44 30 24 20 41 48 60 32 25 37 16 25 25 38 51 21 39 22 27 22 42 14 16 38 21 39 25 50 10 1 43 1 49 36 49 2 31 31 17 32 8 5 22 22 22 17 30 29 27 25 2 36 25 30 20 17 29 3 40 43 15 43 17 13 18 28 5 1 17 2 29 39 33 21 49 11 25 40 22 10 29 1 35 12 10 13 7 23 43 20 27 3 35 25 44 40 55 16 46 15 30 37 31 30 27 3 5 6 7 37 38 33 4 44 23 23 24 43 23 32 34 42 39 17 51 33 27 16 27 26 16 29 24 46 18 19 12 19 26 22 6 2 18 21 24 24 34 35 19 49 54 43 17 15 47 18 49 42 45 37 23 44 57 34 18 45 23 10 19 27 24 31 20 44 5 38 13 29 41 47 31 58 38 51 20 22 32 5 42 17 49 27 6 23 4 18 30 15 37 2 16 3 30 12 8 7 19 11 26 25 25 6 18 13 18 35 7 28 8 6 11 13 3 3 7 4 19 26 36 27 47 5 17 22 19 19 28 23 21 25 13 28 10 18 23 0 8 0 22 0 18 8 6 27 27 25 22 6 1 3 26 1 15 0 11 27 45 26 12 45 33 34 25 33 0 2 47 48 50 23 29 31 30 5 37 0 27 34 25 41 19 34 44 27 11 3 4 25 0 24 19 20 33 29 6 19 58 28 8 14 23 19 23 52 33 51 19 28 41 28 7 13 38 20 20 6 18 38 28 25 47 30 26 42 50 28 4 44 27 48 21 7 33 29 13 21 38 16 18 12 10 39 23 9 19 17 14 6 23 12 1 8 5 16 9 30 13 4 0 29 5 3 2 7 23 3 23 30 6 8 2 5 6 5 19 29 33 8 21 11 14 11 7 13 25 30 11 33 12 7 14 11 4 0 2 2 16 10 10 22 13 7 22 10 9 17 31 8 12 8 6 45 30 22 11 11 25 20 7 15 2 2 36 29 43 10 19 40 28 17 30 6 25 26 3 50 20 20 32 34 7 24 5 23 2 11 17 13 11 12 12 7 33 0 3 10 19 5 2 31 5 42 19 26 3 10 5 15 9 7 24 1 1 13 42 31 35 21 37 15 27 19 24 23 32 31 10 12 29 23 8 21 24 3 12 2 19 27 7 17 5 14 22 6 15 19 2 8 9 23 8 11 9 0 15 22 12 26 4 26 15 0 17 16 3 13 11 3 8 14 19 29 6 7 23 4 8 4 10 16 3 7 8 22 8 17 6 20 9 4 1 4 15 7 6 6 3 0 38 12 17 2 13 0 5 10 21 37 26 19 8 17 34 26 15 12 11 22 27 12 40 29 39 14 3 27 18 19 20 19 10 38 2 10 11 17 31 29 3 9 0 0 24 9 35 2 13 2 20 13 12 19 22 11 12 22 36 27 5 33 1 2 4 11 0 20 13 11 9 7 38 18 3 40 24 17 6 18 16 22 22 8 7 21 26 13 12 21 17 16 18 10 30 31 15 21 21 6 20 6 8 14 22 15 17 20 10 1 13 4 24 7 26 19 26 25 3 1 20 21 0 22 12 0 14 15 25 4 10 7 15 7 3 3 20 8 26 9 10 6 8 30 11 9 1 4 7 8 5 24 20 18 20 0 32 5 3 9 1 6 7 1 4 12 17 13 3 18 19 35 7 21 2 6 23 18 24 30 14 9 4 15 28 15 8 15 14 9 7 1 4 5 41 18 16 5 11 5 24 17 26 14 12 2 24 29 10 20 15 11 23 23 43 24 2 34 14 10 0 10 29 24 1 4 6 8 3 21 15 22 13 16 15 6 14 10 7 17 1 19 7 18 18 16 20 11 23 6 20 29 15 4 26 13 6 16 18 11 29 13 6 13 12 20 7 6 23 14 19 3 31 20 4 13 22 23 5 26 22 7 9 12 19 16 0 0 0 5 2 10 8 22 15 21 18 7 12 18 5 3 7 0 12 14 7 13 9 16 26 7 13 10 4 7 11 3 2 0 30 5 25 24 10 5 17 33 16 19 15 11 11 12 21 13 0 13 5 2 15 6 1 8 7 23 30 25 21 8 27 10 20 0 28 15 14 24 6 31 14 1 23 33 1 14 35 17 17 8 35 36 8 21 11 17 22 9 20 19 3 19 3 9 0 8 23 4 14 23 17 7 8 4 7 3 1 8 7 0 16 29 5 21 17 1 4 6 0 9 10 16 9 18 7 15 9 1 23 15 12 36 25 20 0 25 0 12 15 17 1 14 16 22 16 21 29 7 19 21 7 16 4 1 10 2 7 18 7 6 10 11 28 22 4 27 6 12 18 2 18 11 17 0 0 23 10 2 12 6 7 13 15 0 0 2 38 11 9 34 15 10 20 21 14 13 15 2 5 30 6 34 12 27 9 7 16 25 3 20 26 0 24 20 33 0 13 26 1 2 26 13 9 35 28 18 4 13 18 23 10 7 27 29 23 1 32 34 20 19 1 30 29 26 9 11 15 37 6 28 24 2 34 1 6 20 9 9 4 27 20 0 1 1 3 23 39 31 6 23 7 3 15 12 13 6 0 24 11 3 34 25 1 2 30 9 10 15 37 20 19 27 5 31 19 28 1 10 17 14 17 24 23 0 16 21 18 16 14 0 14 5 24 4 9 1 9 22 23 18 17 37 1 8 19 13 35 24 11 8 5 30 6 11 9 24 32 23 2 5 4 3 19 21 17 29 14 9 23 3 1 16 11 2 1 23 7 24 14 27 4 12 9 26 1 8 9 27 8 15 12 2 2 25 28 17 8 9 0 33 7 14 2 17 10 5 1 5 15 18 19 2 28 13 16 13 5 33 25 25 16 11 7 35 27 14 23 7 30 9 15 23 1 1 14 26 21 1 1 2 1 25 26 22 3 12 10 8 19 10 7 1 8 25 5 6 30 7 1 4 20 4 21 2 27 7 20 23 6 18 8 22 0 10 14 0 3 15 20 5 2 3 26 23 9 11 0 12 22 12 24 11 0 11 1 5 7 27 0 0 3 3 22 12 0 6 5 13 0 12 9 14 31 7 6 7 4 3 3 7 20 15 16 5 12 8 2 0 8 2 4 6 3 19 2 6 1 2 8 7 6 0 0 19 4 11 8 1 0 12 19 6 4 1 1 10 8 11 6 1 10 5 4 1 7 7 2 2 12 2 4 7 0 9 16 6 10 4 2 17 15 2 2 9 10 7 13 21 0 0 5 8 10 0 0 1 7 9 3 9 6 4 9 3 1 2 2 8 5 7 3 0 9 2 2 0 1 0 2 2 2 9 10 14 9 0 11 4 5 4 8 1 1 2 16 5 0 6 6 7 2 4 2 3 2 3 13 13 0 3 0 6 4 3 0 0 4 3 15 0 4 0 2 1 5 10 0 4 6 7 3 1 0 2 1 6 6 6 4 3 9 8 5 0 3 4 10 4 3 17 5 0 2 6 6 1 5 1 2 0 2 8 20 8 3 7 5 5 8 0 4 2 1 3 6 2 1 0 3 8 8 5 0 2 2 3 0 3 1 2 0 4 3 7 0 4 5 3 4 2 13 3 2 11 1 1 4 4 4 1 0 1 9 3 2 1 4 2 3 2 0 1 2 6 0 0 0 0 1 3 2 1 2 4 0 7 6 3 1 11 4 1 5 2 4 2 8 4 1 2 4 1 0 0 1 2 0 0 0 0 2 1 4 14 0 5 1 5 11 4 6 2 3 0 3 0 7 5 0 6 1 7 0 2 4 7 4 3 2 2 2 5 0 4 0 1 7 2 1 0 1 7 7 8 3 2 0 4 6 8 0 0 0 2 0 0 0 8 12 14 6 5 6 3 1 0 2 0 1 0 1 0 3 4 2 5 6 0 2 3 2 6 0 3 2 0 1 0 5 11 0 2 3 3 3 1 6 3 1 4 1 1 4 0 1 0 0 0 5 1 3 1 0 3 3 2 0 1 1 6 3 0 1 2 2 1 1 1 2 0 1 0 6 1 0 12 2 1 0 2 1 2 5 1 0 2 0 3 1 0 1 2 0 1 2 0 1 0 0 6 1 4 0 1 5 1 9 3 0 1 2 0 3 4 1 5 0 2 0 0 2 3 0 3 0 2 0 0 0 4 0 2 2 0 7 1 0 5 1 3 1 2 4 5 1 1 0 0 0 2 0 1 1 2 2 3 0 1 4 0 2 0 1 0 3 2 0 0 3 1 0 1 1 4 1 0 3 2 1 1 1 0 0 0 2 8 1 0 0 1 1 1 3 1 0 0 0 0 2 0 0 0 0 0 0 0 3 0 0 0 0 1 2 0 0 0 4 0 1 1 1 0 1 1 1 1 1 0 0 1 0 7 0 0 0 1 0 0 2 0 0 0 2 0 1 0 0 1 0 1 0 1 0 0 0 0 1 2 0 1 0 0 7 0 0 4 2 0 0 2 3 1 0 1 0 0 2 1 1 0 3 0 0 0 0 3 2 1 0 1 6 1 0 4 0 1 0 2 0 1 0 0 0 0 0 1 0 1 1 1 1 0 0 5 0 2 2 0 0 0 0 1 0 1 1 0 2 0 0 5 0 0 1 0 2 0 1 4 0 2 1 4 1 0 3 0 1 0 3 0 0 0 0 0 1 1 0 0 0 0 0 0 2 0 0 0 0 0 0 1 0 0 0 0 0 0 1 0 1 0 1 4 1 2 0 1 1 2 0 0 0 0 2 0 2 0 0 0 0 1 1 0 0 1 0 0 0 0 0 0 0 0 0 0 1 0 0 0 1 1 0 2 1 0 0 1 1 0 0 0 0 1 3 0 0 0 2 0 0 0 0 0 2 0 0 0 0 1 0 1 1 1 0 0 0 0 2 0 1 0 0 0 0 0 0 0 0 0 1 2 0 0 0 0 1 0 0 1 1 1 1 1 1 0 0 2 0 0 0 0 0 1 1 3 2 2 0 2 0 0 1 1 0 0 2 0 0 1 0 0 0 0 0 0 0 0 0 0 0 1 0 0 1 0 0 1 0 0 0 0 0 0 0 0 0 0 1 2 1 0 1 0 0 0 0 0 0 0 1 1 1 0 0 0 0 1 0 0 0 1 0 0 0 0 0 0 0 0 0 0 0 0 0 0 0 0 1 0 0 0 0 0 0 1 0 0 0 1 0 1 0 0 0 0 0 0 0 0 0 0 1 1 0 0 0 0 0 0 0 0 0 0 0 0 1 0 0 0 0 1 0 0 0 0 1 0 0 0 0 1 1 0 0 0 0 0 0 0 0 0 0 0 0 0 0 0 0 0 0 0 0 1 0 0 0 0 0 0 0 0 1 0 0 1 0 0 0 0 0 0 0 0 0 0 0 0 0 0 0 0 0 0 0 0 0 0 0 0 0 0 0 0 0 0 0 0 0 0 0 0 0 0 0 0 0 0 0 1 0 0 0 0 0 0 0 0 0 0 0 0 0 0 0 0 0 0 0 0 0 0 0 0 0 0 0 0 0 0 0 0 0 0 0 0 0 0 0 0 0 0 0 0 0 0 0 1 0 1 0 1 0 0 0 0 0 1 0 1 0 0 0 0 0 0 0 0 0 0 0 0 0 0 0 0 0 0 0 0 0 0 0 0 0 0 0 0 0 0 0 0 0 0 0 0 0 1 0 1 0 0 0 0 0 0 0 0 0 0 0 0 0 0 0 0 0 0 0 0 0 0 0 0 0 0 0 0 0 0 0 0 0 0 0 0 0 0 0 0 0 0 0 0 1 0 0 0 0 0 0 0 0 0 0 0 0 0 0 0 0 0 0 0 0 0 0 0 0 0 0 0 0 0 0 0 0 0 0 0 0 0 0 0 0 0 0 0 0 1 0 0 0 0 0 0 0 0 0 0 0 0 0 0 0 0 0 0 1 0 0 0 0 0 0 0 0 0 0 0 0 0 0 0 0 0 0 0 0 1 0 0 0 0 0 0 0 0 0 0 0 0 0 0 0 0 0 0 0 0 0 0 0 0 0 0 0 0 0 0 0 0 0 0 0 0 0 0 0 0 0 0 0 0 0 0 0 0 0 0 0 0 0 0 0 0 0 0 0 0 0 0 0 0 0 0 0 0 0 0 0 0 0 0 1 0 0 0 0 0 0 0 0 0 0 0 0 0 0 0 0 0 0 0 0 0 0 0 0 0 0 0 0 0 0 0 0 0 0 0 0 0 0 0 0 0 0 0 0 0 0 0 0 0 0 0 0 0 0 0 0 0 0 0 1 0 0 1 0 0 0 0 0 0 0 0 0 0 0 0 0 0 0 0 0 1 0 0 0 0 0 0 0 0 0 0 0 0 0 0 0 0 0 0 0 0 0 0 0 0 0 0 0 1 1 0 0 0 0 0 1 0 0 0 0 0 0 0 0 0 0 0 0 0 0 0 0 0 0 0 0 0 0 0 0 0 0 0 0 0 0 0 0 0 0 0 0 0 0 0 1 0 0 0 0 0 0 0 0 0 0 0 0 0 0 0 0 0 0 0 0 0 0 0 0 0 0 0 0 0 0 0 0 0 0 0 0 0 0 0 0 0 0 0 0 0 0 0 0 0 0 1 0 0 0 0 0 0 0 0 0 0 0 0 0 0 0 0 0 0 0 0 0 0 0 0 0 0 0 0 0 0 0 0 0 0 0 0 0 0 0 0 0 0 0 0 0 0 0 0 0 0 0 0 0 0 0 0 0 0 1 0 0 0 0 0 0 0 0 0 0 0 0 0 0 0 0 0 0 0 0 0 0 0 0 0 0 0 0 0 0 0 0 0 0 0 0 0 0 0 0 0 0 0 0 0 1 0 0 0 0 0 0 0 0 0 0 0 0 0 0 0 0 0 0 0 0 1 0 0 0 0 0 0 0 0 0 0 0 0 0 0 0 0 1 0 0 0 0 0 0 0 0 0 0 0 0 1 0 0 0 0 0 0 0 0 0 0 0 0 0 0 0 0 0 0 0 0 0 0 0 0 0 0 0 0 0 0 0 0 0 0 0 0 0 0 0 0 0 0 0 0 0 0 0 0 0 0 0 0 0 0 0 0 0 0 0 0 0 0 0 0 0 0 0 0 0 0 0 0 0 0 0 0 0 0 0 0 0 0 0 0 0 0 0 0 0 0 0 0 0 0 0 0 0 0 0 0 0 0 0 0 0 0 0 0 0 0 0 0 0 0 0 0 0 0 0 0 0 0 0 0 0 0 0 0 0 0 0 0 0 0 0 0 0 0 0 0 0 0 0 0 0 0 0 0 0 0 0 0 0 0 0 0 0 0 0 0 0 0 0 0 0 0 0 0 0 0 0 0 0 0 0 0 0 0 0 0 0 0 0 0 0 0 0 0 0 0 0 0 0 0 0 0 0 0 0 0 0 0 0 0 0 0 0 0 0 0 0 0 0 0 0 0 0 0 0 0 0 0 0 0 0 0 0 0 0 0 0 0 0 0 0 0 0 0 0 0 0 0 0 0 0 0 0 0 0 0 0 0 0 0 0 0 0 0 0 0 0 0 0 0 0 0 0 0 0 0 0 0 0 0 0 0 0 0 0 0 0 0 0 0 0 0 0 0 0 0 0 0 0 0 0 0 0 0 0 0 0 0 0 0 0 0 0 0 0 0 0 0 0 0 0 0 0 0 0 0 0 0 0 0 0 0 0 0 0 0 0 0 0 0 0 0 0 0 0 0 0 0 0 0 0 0 0 0 0 0 0 0 0 0 0 0 0 0 0 0 0 0 0 0 0 0 0 0 0 0 0 0 0 0 0 0 0 0 0 0 0 0 0 0 0 0 0 0 0 0 0 0 0 0 0 0 0 0 0 0 0 0 0 0 0 0 0 0 0 0 0 0 0 0 0 0 0 0 0 0 0 0 0 0 0 0 0 0 0 0 0 0 0 0 0 0 0 0 0 0 0 0 0 0 0 0 0 0 0 0 0 0 0 0 0 0 0 0 0 0 0 0 0 0 0 0 0 0 0 0 0 0 0 0 0 0 0 0 0 0 0 0 0 0 0 0 0 0 0 0 0 0 0 0 0 0 0 0 0 0 0 0 0 0 0 0 0 0 0 0 0 0 0 0 0 0 0 0 0 0 0 0 0 0 0 0 0 0 0 0 0 0 0 0 0 0 0 0 0 0 0 0 0 0 0 0 0 0 0 0 0 0 0 0 0 0 0 0 0 0 0 0 0 0 0 0 0 0 0 0 0 0 0 0 0 0 0 0 0 0 0 0 0 0 0 0 0 0 0 0 0 0 0 0 0 0 0 0 0 0 0 0 0 0 0 0 0 0 0 0 0 0 0 0 0 0 0 0 0 0 0 0 0 0 0 0 0 0 0 0 0 0 0 0 0 0 0 0 0 0 0 0 0 0 0 0 0 0 0 0 0 0 0 0 0 0 0 0 0 0 0 0 0 0 0 0 0 0 0 0 0 0 0 0 0 0 0 0 0 0 0 0 0 0 0 0 0 0 0 0 0 0 0 0 0 0 0 0 0 0 0 0 0 0 0 0 0 0 0 0 0 0 0 0 0 0 0 0 0 0 0 0 0 0 0 0 0 0 0 0 0 0 0 0 0 0 0 0 0 0 0 0 0 0 0 0 0 0 0 0 0 0 0 0 0 0 0 0 0 0 0 0 0 0 0 0 0 0 0 0 0 0 0 0 0 0 0 0 0 0 0 0 0 0 0 0 0 0 0 0 0 0 0 0 0 0 0 0 0 0 0 0 0 0 0 0 0 0 0 0 0 0 0 0 0 0 0 0 0 0 0 0 0 0 0 0 0 0 0 0 0 0 0 0 0 0 0 0 0 0 0 0 0 0 0 0 0 0 0 0 0 0 0 0 0 0 0 0 0 0 0 0 0 0 0 0 0 0 0 0 0 0 0 0 0 0 0 0 0 0 0 0 0 0 0 0 0 0 0 0 0 0 0 0 0 0 0 0 0 0 0 0 0 0 0 0 0 0 0 0 0 0 0 0 0 0 0 0 0 0 0 0 0 0 0 0 0 0 0 0 0 0 0 0 0 0 0 0 0 0 0 0 0 0 0 0 0 0 0 0 0 0 0 0 0 0 0 0 0 0 0 0 0 0 0 0 0 0 0 0 0 0 0 0 0 0 0 0 0 0 0 0 0 0 0 0 0 0 0 0 0 0 0 0 0 0 0 0 0 0 0 0 0 0 0 0 0 0 0 0 0 0 0 0 0 0 0 0 0 0 0 0 0 0 0 0 0 0 0 0 0 0 0 0 0 0 0 0 0 0 0 0 0 0 0 0 0 0 0 0 0 0 0 0 0 0 0 0 0 0 0 0 0 0 0 0 0 0 0 0 0 0 0 0 0 0 0 0 0 0 0 0 0 0 0 0 0 0 0 0 0 0 0 0 0 0 0 0 0 0 0 0 0 0 0 0 0 0 0 0 0 0 0 0 0 0 0 0 0 0 0 0 0 0 0 0 0 0 0 0 0 0 0 0 0 0 0 0 0 0 0 0 0 0 0 0 0 0 0 0 0 0 0 0 0 0 0 0 0 0 0 0 0 0 0 0 0 0 0 0 0 0 0 0 0 0 0 0 0 0 0 0 0 0 0 0 0 0 0 0 0 0 0 0 0 0 0 0 0 0 0 0 0 0 0 0 0 0 0 0 0 0 0 0 0 0 0 0 0 0 0 0 0 0 0 0 0 0 0 0 0 0 0 0 0 0 0 0 0 0 0 0 0 0 0 0 0 0 0 0 0 0 0 0 0 0 0 0 0 0 0 0 0 0 0 0 0 0 0 0 0 0 0 0 0 0 0 0 0 0 0 0 0 0 0 0 0 0 0 0 0 0 0 0 0 0 0 0 0 0 0 0 0 0 0 0 0 0 0 0 0 0 0 0 0 0 0 0 0 0 0 0 0 0 0 0 0 0 0 0 0 0 0 0 0 0 0 0 0 0 0 0 0 0 0 0 0 0 0 0 0 0 0 0 0 0 0 0 0 0 0 0 0 0 0 0 0 0 0 0 0 0 0 0 0 0 0 0 0 0 0 0 0 0 0 0 0 0 0 0 0 0 0 0 0 0 0 0 0 0 0 0 0 0 0 0 0 0 0 0 0 0 0 0 0 0 0 0 0 0 0 0 0 0 0 0 0 0 0 0 0 0 0 0 0 0 0 0 0 0 0 0 0 0 0 0 0 0 0 0 0 0 0 0 0 0 0 0 0 0 0 0 0 0 0 0 0 0 0 0 0 0 0 0 0 0 0 0 0 0 0 0 0 0 0 0 0 0 0 0 0 0 0 0 0 0 0 0 0 0 0 0 0 0 0 0 0 0 0 0 0 0 0 0 0 0 0 0 0 0 0 0 0 0 0 0 0 0 0 0 0 0 0 0 0 0 0 0 0 0 0 0 0 0 0 0 0 0 0 0 0 0 0 0 0 0 0 0 0 0 0 0 0 0 0 0 0 0 0 0 0 0 0 0 0 0 0 0 0 0 0 0 0 0 0 0 0 0 0 0 0 0 0 0 0 0 0 0 0 0 0 0 0 0 0 0 0 0 0 0 0 0 0 0 0 0 0 0 0 0 0 0 0 0 0 0 0 0 0 0 0 0 0 0 0 0 0 0 0 0 0 0 0 0 0 0 0 0 0 0 0 0 0 0 0 0 0 0 0 0 0 0 0 0 0 0 0 0 0 0 0 0 0 0 0 0 0 0 0 0 0 0 0 0 0 0 0 0 0 0 0 0 0 0 0 0 0 0 0 0 0 0 0 0 0 0 0 0 0 0 0 0 0 0 0 0 0 0 0 0 0 0 0 0 0 0 0 0 0 0 0 0 0 0 0 0 0 0 0 0 0 0 0 0 0 0 0 0 0 0 0 0 0 0 0 0 0 0 0 0 0 0 0 0 0 0 0 0 0 0 0 0 0 0 0 0 0 0 0 0 0 0 0 0 0 0 0 0 0 0 0 0 0 0 0 0 0 0 0 0 0 0 0 0 0 0 0 0 0 0 0 0 0 0 0 0 0 0 0 0 0 0 0 0 0 0 0 0 0 0 0 0 0 0 0 0 0 0 0 0 0 0 0 0 0 0 0 0 0 0 0 0 0 0 0 0 0 0 0 0 0 0 0 0 0 0 0 0 0 0 0 0 0 0 0 0 0 0 0 0 0 0 0 0 0 0 0 0 0 0 0 0 0 0 0 0 0 0 0 0 0 0 0 0 0 0 0 0 0 0 0 0 0 0 0 0 0 0 0 0 0 0 0 0 0 0 0 0 0 0 0 0 0 0 0 0 0 0 0 0 0 0 0 0 0 0 0 0 0 0 0 0 0 0 0 0 0 0 0 0 0 0 0 0 0 0 0 0 0 0 0 0 0 0 0 0 0 0 0 0 0 0 0 0 0 0 0 0 0 0 0 0 0 0 0 0 0 0 0 0 0 0 0 0 0 0 0 0 0 0 0 0 0 0 0 0 0 0 0 0 0 0 0 0 0 0 0 0 0 0 0 0 0 0 0 0 0 0 0 0 0 0 0 0 0 0 0 0 0 0 0 0 0 0 0 0 0 0 0 0 0 0 0 0 0 0 0 0 0 0 0 0 0 0 0 0 0 0 0 0 0 0 0 0 0 0 0 0 0 0 0 0 0 0 0 0 0 0 0 0 0 0 0 0 0 0 0 0 0 0 0 0 0 0 0 0 0 0 0 0 0 0 0 0 0 0 0 0 0 0 0 0 0 0 0 0 0 0 0 0 0 0 0 0 0 0 0 0 0 0 0 0 0 0 0 0 0 0 0 0 0 0 0 0 0 0 0 0 0 0 0 0 0 0 0 0 0 0 0 0 0 0 0 0 0 0 0 0 0 0 0 0 0 0 0 0 0 0 0 0 0 0 0 0 0 0 0 0 0 0 0 0 0 0 0 0 0 0 0 0 0 0 0 0 0 0 0 0 0 0 0 0 0 0 0 0 0 0 0 0 0 0 0 0 0 0 0 0 0 0 0 0 0 0 0 0 0 0 0 0 0 0 0 0 0 0 0 0 0 0 0 0 0 0 0 0 0 0 0 0 0 0 0 0 0 0 0 0 0 0 0 0 0 0 0 0 0 0 0 0 0 0 0 0 0 0 0 0 0 0 0 0 0 0 0 0 0 0 0 0 0 0 0 0 0 0 0 0 0 0 0 0 0 0 0 0 0 0 0 0 0 0 0 0 0 0 0 0 0 0 0 0 0 0 0 0 0 0 0 0 0 0 0 0 0 0 0 0 0 0 0 0 0 0 0 0 0 0 0 0 0 0 0 0 0 0 0 0 0 0 0 0 0 0 0 0 0 0 0 0 0 0 0 0 0 0 0 0 0 0 0 0 0 0 0 0 0 0 0 0 0 0 0 0 0 0 0 0 0 0 0 0 0 0 0 0 0 0 0 0 0 0 0 0 0 0 0 0 0 0 0 0 0 0 0 0 0 0 0 0 0 0 0 0 0 0 0 0 0 0 0 0 0 0 0 0 0 0 0 0 0 0 0 0 0 0 0 0 0 0 0 0 0 0 0 0 0 0 0 0 0 0 0 0 0 0 0 0 0 0 0 0 0 0 0 0 0 0 0 0 0 0 0 0 0 0 0 0 0 0 0 0 0 0 0 0 0 0 0 0 0 0 0 0 0 0 0 0 0 0 0 0 0 0 0 0 0 0 0 0 0 0 0 0 0 0 0 0 0 0 0 0 0 0 0 0 0 0 0 0 0 0 0 0 0 0 0 0 0 0 0 0 0 0 0 0 0 0 0 0 0 0 0 0 0 0 0 0 0 0 0 0 0 0 0 0 0 0 0 0 0 0 0 0 0 0 0 0 0 0 0 0 0 0 0 0 0 0 0 0 0 0 0 0 0 0 0 0 0 0 0 0 0 0 0 0 0 0 0 0 0 0 0 0 0 0 0 0 0 0 0 0 0 0 0 0 0 0 0 0 0 0 0 0 0 0 0 0 0 0 0 0 0 0 0 0 0 0 0 0 0 0 0 0 0 0 0 0 0 0 0 0 0 0 0 0 0 0 0 0 0 0 0 0 0 0 0 0 0 0 0 0 0 0 0 0 0 0 0 0 0 0 0 0 0 0 0 0 0 0 0 0 0 0 0 0 0 0 0 0 0 0 0 0 0 0 0 0 0 0 0 0 0 0 0 0 0 0 0 0 0 0 0 0 0 0 0 0 0 0 0 0 0 0 0 0 0 0 0 0 0 0 0 0 0 0 0 0 0 0 0 0 0 0 0 0 0 0 0 0 0 0 0 0 0 0 0 0 0 0 0 0 0 0 0 0 0 0 0 0 0 0 0 0 0 0 0 0 0 0 0 0 0 0 0 0 0 0 0 0 0 0 0 0 0 0 0 0 0 0 0 0 0 0 0 0 0 0 0 0 0 0 0 0 0 0 0 0 0 0 0 0 0 0 0 0 0 0 0 0 0 0 0 0 0 0 0 0 0 0 0 0 0 0 0 0 0 0 0 0 0 0 0 0 0 0 0 0 0 0 0 0 0 0 0 0 0 0 0 0 0 0 0 0 0 0 0 0 0 0 0 0 0 0 0 0 0 0 0 0 0 0 0 0 0 0 0 0 0 0 0 0 0 0 0 0 0 0 0 0 0 0 0 0 0 0 0 0 0 0 0 0 0 0 0 0 0 0 0 0 0 0 0 0 0 0 0 0 0 0 0 0 0 0 0 0 0 0 0 0 0 0 0 0 0 0 0 0 0 0 0 0 0 0 0 0 0 0 0 0 0 0 0 0 0 0 0 0 0 0 0 0 0 0 0 0 0 0 0 0 0 0 0 0 0 0 0 0 0 0 0 0 0 0 0 0 0 0 0 0 0 0 0 0 0 0 0 0 0 0 0 0 0 0 0 0 0 0 0 0 0 0 0 0 0 0 0 0 0 0 0 0 0 0 0 0 0 0 0 0 0 0 0 0 0 0 0 0 0 0 0 0 0 0 0 0 0 0 0 0 0 0 0 0 0 0 0 0 0 0 0 0 0 0 0 0 0 0 0 0 0 0 0 0 0 0 0 0 0 0 0 0 0 0 0 0 0 0 0 0 0 0 0 0 0 0 0 0 0 0 0 0 0 0 0 0 0 0 0 0 0 0 0 0 0 0 0 0 0 0 0 0 0 0 0 0 0 0 0 0 0 0 0 0 0 0 0 0 0 0 0 0 0 0 0 0 0 0 0 0 0 0 0 0 0 0 0 0 0 0 0 0 0 0 0 0 0 0 0 0 0 0 0 0 0 0 0 0 0 0 0 0 0 0 0 0 0 0 0 0 0 0 0 0 0 0 0 0 0 0 0 0 0 0 0 0 0 0 0 0 0 0 0 0 0 0 0 0 0 0 0 0 0 0 0 0 0 0 0 0 0 0 0 0 0 0 0 0 0 0 0 0 0 0 0 0 0 0 0 0 0 0 0 0 0 0 0 0 0 0 0 0 0 0 0 0 0 0 0 0 0 0 0 0 0 0 0 0 0 0 0 0 0 0 0 0 0 0 0 0 0 0 0 0 0 0 0 0 0 0 0 0 0 0 0 0 0 0 0 0 0 0 0 0 0 0 0 0 0 0 0 0 0 0 0 0 0 0 0 0 0 0 0 0 0 0 0 0 0 0 0 0 0 0 0 0 0 0 0 0 0 0 0 0 0 0 0 0 0 0 0 0 0 0 0 0 0 0 0 0 0 0 0 0 0 0 0 0 0 0 0 0 0 0 0 0 0 0 0 0 0 0 0 0 0 0 0 0 0 0 0 0 0 0 0 0 0 0 0 0 0 0 0 0 0 0 0 0 0 0 0 0 0 0 0 0 0 0 0 0 0 0 0 0 0 0 0 0 0 0 0 0 0 0 0 0 0 0 0 0 0 0 0 0 0 0 0 0 0 0 0 0 0 0 0 0 0 0 0 0 0 0 0 0 0 0 0 0 0 0 0 0 0 0 0 0 0 0 0 0 0 0 0 0 0 0 0 0 0 0 0 0 0 0 0 0 0 0 0 0 0 0 0 0 0 0 0 0 0 0 0 0 0 0 0 0 0 0 0 0 0 0 0 0 0 0 0 0 0 0 0 0 0 0 0 0 0 0 0 0 0 0 0 0 0 0 0 0 0 0 0 0 0 0 0 0 0 0 0 0 0 0 0 0 0 0 0 0 0 0 0 0 0 0 0 0 0 0 0 0 0 0 0 0 0 0 0 0 0 0 0 0 0 0 0 0 0 0 0 0 0 0 0 0 0 0 0 0 0 0 0 0 0 0 0 0 0 0 0 0 0 0 0 0 0 0 0 0 0 0 0 0 0 0 0 0 0 0 0 0 0 0 0 0 0 0 0 0 0 0 0 0 0 0 0 0 0 0 0 0 0 0 0 0 0 0 0 0 0 0 0 0 0 0 0 0 0 0 0 0 0 0 0 0 0 0 0 0 0 0 0 0 0 0 0 0 0 0 0 0 0 0 0 0 0 0 0 0 0 0 0 0 0 0 0 0 0 0 0 0 0 0 0 0 0 0 0 0 0 0 0 0 0 0 0 0 0 0 0 0 0 0 0 0 0 0 0 0 0 0 0 0 0 0 0 0 0 0 0 0 0 0 0 0 0 0 0 0 0 0 0 0 0 0 0 0 0 0 0 0 0 0 0 0 0 0 0 0 0 0 0 0 0 0 0 0 0 0 0 0 0 0 0 0 0 0 0 0 0 0 0 0 0 0 0 0 0 0 0 0 0 0 0 0 0 0 0 0 0 0 0 0 0 0 0 0 0 0 0 0 0 0 0 0 0 0 0 0 0 0 0 0 0 0 0 0 0 0 0 0 0 0 0 0 0 0 0 0 0 0 0 0 0 0 0 0 0 0 0 0 0 0 0 0 0 0 0 0 0 0 0 0 0 0 0 0 0 0 0 0 0 0 0 0 0 0 0 0 0 0 0 0 0 0 0 0 0 0 0 0 0 0 0 0 0 0 0 0 0 0 0 0 0 0 0 0 0 0 0 0 0 0 0 0 0 0 0 0 0 0 0 0 0 0 0 0 0 0 0 0 0 0 0 0 0 0 0 0 0 0 0 0 0 0 0 0 0 0 0 0 0 0 0 0 0 0 0 0 0 0 0 0 0 0 0 0 0 0 0 0 0 0 0 0 0 0 0 0 0 0 0 0 0 0 0 0 0 0 0 0 0 0 0 0 0 0 0 0 0 0 0 0 0 0 0 0 0 0 0 0 0 0 0 0 0 0 0 0 0 0 0 0 0 0 0 0 0 0 0 0 0 0 0 0 0 0 0 0 0 0 0 0 0 0 0 0 0 0 0 0 0 0 0 0 0 0 0 0 0 0 0 0 0 0 0 0 0 0 0 0 0 0 0 0 0 0 0 0 0 0 0 0 0 0 0 0 0 0 0 0 0 0 0 0 0 0 0 0 0 0 0 0 0 0 0 0 0 0 0 0 0 0 0 0 0 0 0 0 0 0 0 0 0 0 0 0 0 0 0 0 0 0 0 0 0 0 0 0 0 0 0 0 0 0 0 0 0 0 0 0 0 0 0 0 0 0 0 0 0 0 0 0 0 0 0 0 0 0 0 0 0 0 0 0 0 0 0 0 0 0 0 0 0 0 0 0 0 0 0 0 0 0 0 0 0 0 0 0 0 0 0 0 0 0 0 0 0 0 0 0 0 0 0 0 0 0 0 0 0 0 0 0 0 0 0 0 0 0 0 0 0 0 0 0 0 0 0 0 0 0 0 0 0 0 0 0 0 0 0 0 0 0 0 0 0 0 0 0 0 0 0 0 0 0 0 0 0 0 0 0 0 0 0 0 0 0 0 0 0 0 0 0 0 0 0 0 0 0 0 0 0 0 0 0 0 0 0 0 0 0 0 0 0 0 0 0 0 0 0 0 0 0 0 0 0 0 0 0 0 0 0 0 0 0 0 0 0 0 0 0 0 0 0 0 0 0 0 0 0 0 0 0 0 0 0 0 0 0 0 0 0 0 0 0 0 0 0 0 0 0 0 0 0 0 0 0 0 0 0 0 0 0 0 0 0 0 0 0 0 0 0 0 0 0 0 0 0 0 0 0 0 0 0 0 0 0 0 0 0 0 0 0 0 0 0 0 0 0 0 0 0 0 0 0 0 0 0 0 0 0 0 0 0 0 0 0 0 0 0 0 0 0 0 0 0 0 0 0 0 0 0 0 0 0 0 0 0 0 0 0 0 0 0 0 0 0 0 0 0 0 0 0 0 0 0 0 0 0 0 0 0 0 0 0 0 0 0 0 0 0 0 0 0 0 0 0 0 0 0 0 0 0 0 0 0 0 0 0 0 0 0 0 0 0 0 0 0 0 0 0 0 0 0 0 0 0 0 0 0 0 0 0 0 0 0 0 0 0 0 0 0 0 0 0 0 0 0 0 0 0 0 0 0 0 0 0 0 0 0 0 0 0 0 0 0 0 0 0 0 0 0 0 0 0 0 0 0 0 0 0 0 0 0 0 0 0 0 0 0 0 0 0 0 0 0 0 0 0 0 0 0 0 0 0 0 0 0 0 0 0 0 0 0 0 0 0 0 0 0 0 0 0 0 0 0 0 0 0 0 0 0 0 0 0 0 0 0 0 0 0 0 0 0 0 0 0 0 0 0 0 0 0 0 0 0 0 0 0 0 0 0 0 0 0 0 0 0 0 0 0 0 0 0 0 0 0 0 0 0 0 0 0 0 0 0 0 0 0 0 0 0 0 0 0 0 0 0 0 0 0 0 0 0 0 0 0 0 0 0 0 0 0 0 0 0 0 0 0 0 0 0 0 0 0 0 0 0 0 0 0 0 0 0 0 0 0 0 0 0 0 0 0 0 0 0 0 0 0 0 0 0 0 0 0 0 0 0 0 0 0 0 0 0 0 0 0 0 0 0 0 0 0 0 0 0 0 0 0 0 0 0 0 0 0 0 0 0 0 0 0 0 0 0 0 0 0 0 0 0 0 0 0 0 0 0 0 0 0 0 0 0 0 0 0 0 0 0 0 0 0 0 0 0 0 0 0 0 0 0 0 0 0 0 0 0 0 0 0 0 0 0 0 0 0 0 0 0 0 0 0 0 0 0 0 0 0 0 0 0 0 0 0 0 0 0 0 0 0 0 0 0 0 0 0 0 0 0 0 0 0 0 0 0 0 0 0 0 0 0 0 0 0 0 0 0 0 0 0 0 0 0 0 0 0 0 0 0 0 0 0 0 0 0 0 0 0 0 0 0 0 0 0 0 0 0 0 0 0 0 0 0 0 0 0 0 0 0 0 0 0 0 0 0 0 0 0 0 0 0 0 0 0 0 0 0 0 0 0 0 0 0 0 0 0 0 0 0 0 0 0 0 0 0 0 0 0 0 0 0 0 0 0 0 0 0 0 0 0 0 0 0 0 0 0 0 0 0 0 0 0 0 0 0 0 0 0 0 0 0 0 0 0 0 0 0 0 0 0 0 0 0 0 0 0 0 0 0 0 0 0 0 0 0 0 0 0 0 0 0 0 0 0 0 0 0 0 0 0 0 0 0 0 0 0 0 0 0 0 0 0 0 0 0 0 0 0 0 0 0 0 0 0 0 0 0 0 0 0 0 0 0 0 0 0 0 0 0 0 0 0 0 0 0 0 0 0 0 0 0 0 0 0 0 0 0 0 0 0 0 0 0 0 0 0 0 0 0 0 0 0 0 0 0 0 0 0 0 0 0 0 0 0 0 0 0 0 0 0 0 0 0 0 0 0 0 0 0 0 0 0 0 0 0 0 0 0 0 0 0 0 0 0 0 0 0 0 0 0 0 0 0 0 0 0 0 0 0 0 0 0 0 0 0 0 0 0 0 0 0 0 0 0 0 0 0 0 0 0 0 0 0 0 0 0 0 0 0 0 0 0 0 0 0 0 0 0 0 0 0 0 0 0 0 0 0 0 0 0 0 0 0 0 0 0 0 0 0 0 0 0 0 0 0 0 0 0 0 0 0 0 0 0 0 0 0 0 0 0 0 0 0 0 0 0 0 0 0 0 0 0 0 0 0 0 0 0 0 0 0 0 0 0 0 0 0 0 0 0 0 0 0 0 0 0 0 0 0 0 0 0 0 0 0 0 0 0 0 0 0 0 0 0 0 0 0 0 0 0 0 0 0 0 0 0 0 0 0 0 0 0 0 0 0 0 0 0 0 0 0 0 0 0 0 0 0 0 0 0 0 0 0 0 0 0 0 0 0 0 0 0 0 0 0 0 0 0 0 0 0 0 0 0 0 0 0 0 0 0 0 0 0 0 0 0 0 0 0 0 0 0 0 0 0 0 0 0 0 0 0 0 0 0 0 0 0 0 0 0 0 0 0 0 0 0 0 0 0 0 0 0 0 0 0 0 0 0 0 0 0 0 0 0 0 0 0 0 0 0 0 0 0 0 0 0 0 0 0 0 0 0 0 0 0 0 0 0 0 0 0 0 0 0 0 0 0 0 0 0 0 0 0 0 0 0 0 0 0 0 0 0 0 0 0 0 0 0 0 0 0 0 0 0 0 0 0 0 0 0 0 0 0 0 0 0 0 0 0 0 0 0 0 0 0 0 0 0 0 0 0 0 0 0 0 0 0 0 0 0 0 0 0 0 0 0 0 0 0 0 0 0 0 0 0 0 0 0 0 0 0 0 0 0 0 0 0 0 0 0 0 0 0 0 0 0 0 0 0 0 0 0 0 0 0 0 0 0 0 0 0 0 0 0 0 0 0 0 0 0 0 0 0 0 0 0 0 0 0 0 0 0 0 0 0 0 0 0 0 0 0 0 0 0 0 0 0 0 0 0 0 0 0 0 0 0 0 0 0 0 0 0 0 0 0 0 0 0 0 0 0 0 0 0 0 0 0 0 0 0 0 0 0 0 0 0 0 0 0 0 0 0 0 0 0 0 0 0 0 0 0 0 0 0 0 0 0 0 0 0 0 0 0 0 0 0 0 0 0 0 0 0 0 0 0 0 0 0 0 0 0 0 0 0 0 0 0 0 0 0 0 0 0 0 0 0 0 0 0 0 0 0 0 0 0 0 0 0 0 0 0 0 0 0 0 0 0 0 0 0 0 0 0 0 0 0 0 0 0 0 0 0 0 0 0 0 0 0 0 0 0 0 0 0 0 0 0 0 0 0 0 0 0 0 0 0 0 0 0 0 0 0 0 0 0 0 0 0 0 0 0 0 0 0 0 0 0 0 0 0 0 0 0 0 0 0 0 0 0 0 0 0 0 0 0 0 0 0 0 0 0 0 0 0 0 0 0 0 0 0 0 0 0 0 0 0 0 0 0 0 0 0 0 0 0 0 0 0 0 0 0 0 0 0 0 0 0 0 0 0 0 0 0 0 0 0 0 0 0 0 0 0 0 0 0 0 0 0 0 0 0 0 0 0 0 0 0 0 0 0 0 0 0 0 0 0 0 0 0 0 0 0 0 0 0 0 0 0 0 0 0 0 0 0 0 0 0 0 0 0 0 0 0 0 0 0 0 0 0 0 0 0 0 0 0 0 0 0 0 0 0 0 0 0 0 0 0 0 0 0 0 0 0 0 0 0 0 0 0 0 0 0 0 0 0 0 0 0 0 0 0 0 0 0 0 0 0 0 0 0 0 0 0 0 0 0 0 0 0 0 0 0 0 0 0 0 0 0 0 0 0 0 0 0 0 0 0 0 0 0 0 0 0 0 0 0 0 0 0 0 0 0 0 0 0 0 0 0 0 0 0 0 0 0 0 0 0 0 0 0 0 0 0 0 0 0 0 0 0 0 0 0 0 0 0 0 0 0 0 0 0 0 0 0 0 0 0 0 0 0 0 0 0 0 0 0 0 0 0 0 0 0 0 0 0 0 0 0 0 0 0 0 0 0 0 0 0 0 0 0 0 0 0 0 0 0 0 0 0 0 0 0 0 0 0 0 0 0 0 0 0 0 0 0 0 0 0 0 0 0 0 0 0 0 0 0 0 0 0 0 0 0 0 0 0 0 0 0 0 0 0 0 0 0 0 0 0 0 0 0 0 0 0 0 0 0 0 0 0 0 0 0 0 0 0 0 0 0 0 0 0 0 0 0 0 0 0 0 0 0 0 0 0 0 0 0 0 0 0 0 0 0 0 0 0 0 0 0 0 0 0 0 0 0 0 0 0 0 0 0 0 0 0 0 0 0 0 0 0 0 0 0 0 0 0 0 0 0 0 0 0 0 0 0 0 0 0 0 0 0 0 0 0 0 0 0 0 0 0 0 0 0 0 0 0 0 0 0 0 0 0 0 0 0 0 0 0 0 0 0 0 0 0 0 0 0 0 0 0 0 0 0 0 0 0 0 0 0 0 0 0 0 0 0 0 0 0 0 0 0 0 0 0 0 0 0 0 0 0 0 0 0 0 0 0 0 0 0 0 0 0 0 0 0 0 0 0 0 0 0 0 0 0 0 0 0 0 0 0 0 0 0 0 0 0 0 0 0 0 0 0 0 0 0 0 0 0 0 0 0 0 0 0 0 0 0 0 0 0 0 0 0 0 0 0 0 0 0 0 0 0 0 0 0 0 0 0 0 0 0 0 0 0 0 0 0 0 0 0 0 0 0 0 0 0 0 0 0 0 0 0 0 0 0 0 0 0 0 0 0 0 0 0 0 0 0 0 0 0 0 0 0 0 0 0 0 0 0 0 0 0 0 0 0 0 0 0 0 0 0 0 0 0 0 0 0 0 0 0 0 0 0 0 0 0 0 0 0 0 0 0 0 0 0 0 0 0 0 0 0 0 0 0 0 0 0 0 0 0 0 0 0 0 0 0 0 0 0 0 0 0 0 0 0 0 0 0 0 0 0 0 0 0 0 0 0 0 0 0 0 0 0 0 0 0 0 0 0 0 0 0 0 0 0 0 0 0 0 0 0 0 0 0 0 0 0 0 0 0 0 0 0 0 0 0 0 0 0 0 0 0 0 0 0 0 0 0 0 0 0 0 0 0 0 0 0 0 0 0 0 0 0 0 0 0 0 0 0 0 0 0 0 0 0 0 0 0 0 0 0 0 0 0 0 0 0 0 0 0 0 0 0 0 0 0 0 0 0 0 0 0 0 0 0 0 0 0 0 0 0 0 0 0 0 0 0 0 0 0 0 0 0 0 0 0 0 0 0 0 0 0 0 0 0 0 0 0 0 0 0 0 0 0 0 0 0 0 0 0 0 0 0 0 0 0 0 0 0 0 0 0 0 0 0 0 0 0 0 0 0 0 0 0 0 0 0 0 0 0 0 0 0 0 0 0 0 0 0 0 0 0 0 0 0 0 0 0 0 0 0 0 0 0 0 0 0 0 0 0 0 0 0 0 0 0 0 0 0 0 0 0 0 0 0 0 0 0 0 0 0 0 0 0 0 0 0 0 0 0 0 0 0 0 0 0 0 0 0 0 0 0 0 0 0 0 0 0 0 0 0 0 0 0 0 0 0 0 0 0 0 0 0 0 0 0 0 0 0 0 0 0 0 0 0 0 0 0 0 0 0 0 0 0 0 0 0 0 0 0 0 0 0 0 0 0 0 0 0 0 0 0 0 0 0 0 0 0 0 0 0 0 0 0 0 0 0 0 0 0 0 0 0 0 0 0 0 0 0 0 0 0 0 0 0 0 0 0 0 0 0 0 0 0 0 0 0 0 0 0 0 0 0 0 0 0 0 0 0 0 0 0 0 0 0 0 0 0 0 0 0 0 0 0 0 0 0 0 0 0 0 0 0 0 0 0 0 0 0 0 0 0 0 0 0 0 0 0 0 0 0 0 0 0 0 0 0 0 0 0 0 0 0 0 0 0 0 0 0 0 0 0 0 0 0 0 0 0 0 0 0 0 0 0 0 0 0 0 0 0 0 0 0 0 0 0 0 0 0 0 0 0 0 0 0 0 0 0 0 0 0 0 0 0 0 0 0 0 0 0 0 0 0 0 0 0 0 0 0 0 0 0 0 0 0 0 0 0 0 0 0 0 0 0 0 0 0 0 0 0 0 0 0 0 0 0 0 0 0 0 0 0 0 0 0 0 0 0 0 0 0 0 0 0 0 0 0 0 0 0 0 0 0 0 0 0 0 0 0 0 0 0 0 0 0 0 0 0 0 0 0 0 0 0 0 0 0 0 0 0 0 0 0 0 0 0 0 0 0 0 0 0 0 0 0 0 0 0 0 0 0 0 0 0 0 0 0 0 0 0 0 0 0 0 0 0 0 0 0 0 0 0 0 0 0 0 0 0 0 0 0 0 0 0 0 0 0 0 0 0 0 0 0 0 0 0 0 0 0 0 0 0 0 0 0 0 0 0 0 0 0 0 0 0 0 0 0 0 0 0 0 0 0 0 0 0 0 0 0 0 0 0 0 0 0 0 0 0 0 0 0 0 0 0 0 0 0 0 0 0 0 0 0 0 0 0 0 0 0 0 0 0 0 0 0 0 0 0 0 0 0 0 0 0 0 0 0 0 0 0 0 0 0 0 0 0 0 0 0 0 0 0 0 0 0 0 0 0 0 0 0 0 0 0 0 0 0 0 0 0 0 0 0 0 0 0 0 0 0 0 0 0 0 0 0 0 0 0 0 0 0 0 0 0 0 0 0 0 0 0 0 0 0 0 0 0 0 0 0 0 0 0 0 0 0 0 0 0 0 0 0 0 0 0 0 0 0 0 0 0 0 0 0 0 0 0 0 0 0 0 0 0 0 0 0 0 0 0 0 0 0 0 0 0 0 0 0 0 0 0 0 0 0 0 0 0 0 0 0 0 0 0 0 0 0 0 0 0 0 0 0 0 0 0 0 0 0 0 0 0 0 0 0 0 0 0 0 0 0 0 0 0 0 0 0 0 0 0 0 0 0 0 0 0 0 0 0 0 0 0 0 0 0 0 0 0 0 0 0 0 0 0 0 0 0 0 0 0 0 0 0 0 0 0 0 0 0 0 0 0 0 0 0 0 0 0 0 0 0 0 0 0 0 0 0 0 0 0 0 0 0 0 0 0 0 0 0 0 0 0 0 0 0 0 0 0 0 0 0 0 0 0 0 0 0 0 0 0 0 0 0 0 0 0 0 0 0 0 0 0 0 0 0 0 0 0 0 0 0 0 0 0 0 0 0 0 0 0 0 0 0 0 0 0 0 0 0 0 0 0 0 0 0 0 0 0 0 0 0 0 0 0 0 0 0 0 0 0 0 0 0 0 0 0 0 0 0 0 0 0 0 0 0 0 0 0 0 0 0 0 0 0 0 0 0 0 0 0 0 0 0 0 0 0 0 0 0 0 0 0 0 0 0 0 0 0 0 0 0 0 0 0 0 0 0 0 0 0 0 0 0 0 0 0 0 0 0 0 0 0 0 0 0 0 0 0 0 0 0 0 0 0 0 0 0 0 0 0 0 0 0 0 0 0 0 0 0 0 0 0 0 0 0 0 0 0 0 0 0 0 0 0 0 0 0 0 0 0 0 0 0 0 0 0 0 0 0 0 0 0 0 0 0 0 0 0 0 0 0 0 0 0 0 0 0 0 0 0 0 0 0 0 0 0 0 0 0 0 0 0 0 0 0 0 0 0 0 0 0 0 0 0 0 0 0 0 0 0 0 0 0 0 0 0 0 0 0 0 0 0 0 0 0 0 0 0 0 0 0 0 0 0 0 0 0 0 0 0 0 0 0 0 0 0 0 0 0 0 0 0 0 0 0 0 0 0 0 0 0 0 0 0 0 0 0 0 0 0 0 0 0 0 0 0 0 0 0 0 0 0 0 0 0 0 0 0 0 0 0 0 0 0 0 0 0 0 0 0 0 0 0 0 0 0 0 0 0 0 0 0 0 0 0 0 0 0 0 0 0 0 0 0 0 0 0 0 0 0 0 0 0 0 0 0 0 0 0 0 0 0 0 0 0 0 0 0 0 0 0 0 0 0 0 0 0 0 0 0 0 0 0 0 0 0 0 0 0 0 0 0 0 0 0 0 0 0 0 0 0 0 0 0 0 0 0 0 0 0 0 0 0 0 0 0 0 0 0 0 0 0 0 0 0 0 0 0 0 0 0 0 0 0 0 0 0 0 0 0 0 0 0 0 0 0 0 0 0 0 0 0 0 0 0 0 0 0 0 0 0 0 0 0 0 0 0 0 0 0 0 0 0 0 0 0 0 0 0 0 0 0 0 0 0 0 0 0 0 0 0 0 0 0 0 0 0 0 0 0 0 0 0 0 0 0 0 0 0 0 0 0 0 0 0 0 0 0 0 0 0 0 0 0 0 0 0 0 0 0 0 0 0 0 0 0 0 0 0 0 0 0 0 0 0 0 0 0 0 0 0 0 0 0 0 0 0 0 0 0 0 0 0 0 0 0 0 0 0 0 0 0 0 0 0 0 0 0 0 0 0 0 0 0 0 0 0 0 0 0 0 0 0 0 0 0 0 0 0 0 0 0 0 0 0 0 0 0 0 0 0 0 0 0 0 0 0 0 0 0 0 0 0 0 0 0 0 0 0 0 0 0 0 0 0 0 0 0 0 0 0 0 0 0 0 0 0 0 0 0 0 0 0 0 0 0 0 0 0 0 0 0 0 0 0 0 0 0 0 0 0 0 0 0 0 0 0 0 0 0 0 0 0 0 0 0 0 0 0 0 0 0 0 0 0 0 0 0 0 0 0 0 0 0 0 0 0 0 0 0 0 0 0 0 0 0 0 0 0 0 0 0 0 0 0 0 0 0 0 0 0 0 0 0 0 0 0 0 0 0 0 0 0 0 0 0 0 0 0 0 0 0 0 0 0 0 0 0 0 0 0 0 0 0 0 0 0 0 0 0 0 0 0 0 0 0 0 0 0 0 0 0 0 0 0 0 0 0 0 0 0 0 0 0 0 0 0 0 0 0 0 0 0 0 0 0 0 0 0 0 0 0 0 0 0 0 0 0 0 0 0 0 0 0 0 0 0 0 0 0 0 0 0 0 0 0 0 0 0 0 0 0 0 0 0 0 0 0 0 0 0 0 0 0 0 0 0 0 0 0 0 0 0 0 0 0 0 0 0 0 0 0 0 0 0 0 0 0 0 0 0 0 0 0 0 0 0 0 0 0 0 0 0 0 0 0 0 0 0 0 0 0 0 0 0 0 0 0 0 0 0 0 0 0 0 0 0 0 0 0 0 0 0 0 0 0 0 0 0 0 0 0 0 0 0 0 0 0 0 0 0 0 0 