P2
89 129
255
0 0 0 0 0 0 0 0 0 0 0 0 0 0 0 0 0 0 0 0 0 0 0 0 0 0 0 0 0 0 0 0 0 0 0 0 0 0 0 0 0 0 0 0 0 0 0 0 0 0 0 0 0 0 0 0 0 0 0 0 0 0 0 0 0 0 0 0 0 0 0 0 0 0 0 0 0 0 0 0 0 0 0 0 0 0 0 0 0 0 0 0 0 0 0 0 0 0 0 0 0 0 0 0 0 0 0 0 0 0 0 0 0 0 0 0 0 0 0 0 0 0 0 0 0 0 0 0 0 0 0 0 0 0 0 0 0 0 0 0 0 0 0 0 0 0 0 0 0 0 0 0 0 0 0 0 0 0 0 0 0 0 0 0 0 0 0 0 0 0 0 0 0 0 0 0 0 0 117 59 73 141 123 195 208 180 224 152 224 176 208 220 199 232 211 232 221 248 235 253 237 254 239 250 240 248 241 248 240 243 237 241 234 244 203 234 224 251 195 245 228 234 252 200 255 238 220 249 215 232 232 198 229 216 198 236 197 181 233 196 198 229 194 207 223 177 210 213 184 180 184 182 178 124 165 134 138 96 155 119 59 111 127 140 106 145 130 111 110 95 96 145 177 204 203 230 208 237 234 241 246 239 245 233 232 188 230 226 230 229 227 235 218 233 216 227 221 223 207 224 199 226 228 203 228 221 245 209 240 233 228 243 207 246 231 207 235 207 228 226 180 209 199 160 223 193 174 219 182 190 216 178 192 208 171 196 205 178 153 172 155 135 100 142 120 126 118 145 110 116 137 79 94 135 109 132 103 111 74 128 106 168 207 222 217 216 229 227 238 227 231 219 220 201 181 162 126 116 79 85 169 135 168 123 153 144 128 157 158 95 168 163 196 178 163 187 168 197 194 192 181 166 198 171 182 158 170 187 170 136 159 126 162 169 147 183 160 106 180 150 120 169 110 152 166 131 137 133 117 102 96 72 87 111 106 70 96 84 84 125 77 91 110 89 106 58 86 76 106 95 142 192 191 151 137 158 166 189 150 178 138 98 54 147 129 98 143 74 107 48 89 116 113 109 121 111 46 99 123 84 121 121 103 164 143 164 112 109 145 148 133 131 140 165 160 138 141 140 148 154 156 161 137 154 161 109 137 155 117 121 151 120 84 146 130 64 76 79 65 68 49 58 69 76 82 63 83 89 94 67 80 71 38 64 5 78 44 88 105 101 161 150 148 170 162 161 149 153 121 140 98 136 101 133 117 105 131 94 116 12 126 123 102 111 117 91 112 89 129 63 137 131 135 136 70 147 137 157 160 154 167 159 164 168 154 159 163 145 167 166 153 155 147 146 137 120 142 119 123 141 116 112 135 119 101 84 73 68 73 55 24 77 90 75 70 73 109 90 76 83 85 58 49 42 85 63 20 51 99 137 140 120 124 165 110 125 136 124 82 105 124 113 130 109 121 92 118 90 101 77 71 125 80 99 110 67 128 94 118 113 134 144 130 139 123 144 150 148 152 146 158 138 150 122 98 137 85 135 130 82 103 94 94 88 67 95 84 84 103 54 55 77 87 43 83 50 46 45 38 32 58 42 56 72 72 85 65 53 67 56 75 16 73 86 33 90 70 113 152 170 170 171 188 156 151 148 142 154 139 148 97 143 116 148 121 141 134 149 142 144 158 140 126 85 123 98 148 131 126 117 151 125 121 115 96 118 83 97 32 105 47 72 103 97 70 79 85 61 77 42 25 44 49 70 57 60 70 52 42 17 50 59 9 60 27 46 34 54 23 28 38 65 70 48 5 56 29 29 49 50 27 72 81 85 101 62 103 154 164 172 152 187 180 159 176 162 168 157 156 149 145 148 150 148 148 150 147 147 143 151 124 111 100 120 109 140 95 141 126 141 106 76 115 82 97 44 91 46 31 78 30 67 76 42 56 50 37 37 22 24 52 8 27 40 23 55 47 22 24 43 54 29 14 22 41 32 37 22 19 20 31 38 8 46 7 0 9 42 15 38 58 65 51 85 54 81 140 121 139 141 127 172 140 165 138 144 112 101 138 96 137 108 124 89 116 60 92 3 101 98 65 90 64 94 67 63 117 93 113 75 70 63 19 98 47 73 39 49 56 18 45 56 35 48 47 23 54 27 16 50 20 13 43 13 39 29 54 8 11 27 10 47 29 7 16 5 12 22 10 21 29 4 43 40 2 23 12 19 5 35 54 25 26 55 51 120 88 111 125 120 138 111 140 89 123 97 88 104 39 110 12 97 54 98 73 85 58 51 80 76 93 95 87 115 64 98 66 99 51 77 67 28 87 30 68 45 16 31 41 31 52 42 56 19 16 67 44 18 51 2 28 48 19 8 17 53 15 11 20 28 40 5 22 23 28 24 0 3 22 38 27 4 36 7 17 9 10 33 7 37 3 36 34 23 106 74 94 99 88 119 85 116 97 99 79 73 99 29 106 45 105 31 92 74 101 93 116 94 116 84 111 88 111 32 109 43 91 64 68 73 23 76 13 67 23 37 54 36 11 52 37 55 41 20 65 5 16 36 7 19 37 26 26 17 37 1 11 36 7 20 4 16 32 29 8 14 1 22 37 23 24 21 9 11 26 31 29 0 28 16 29 32 41 99 79 96 111 89 113 79 119 98 119 98 94 90 81 109 86 121 82 120 84 107 79 122 63 107 78 86 47 72 82 130 60 87 67 108 40 3 77 52 72 72 28 76 19 47 68 42 51 59 46 67 18 37 41 24 28 18 5 7 27 38 1 38 33 5 22 2 9 34 17 8 8 6 19 26 35 37 9 16 29 27 28 4 16 26 32 33 31 17 110 88 123 123 124 131 119 127 118 136 18 134 102 106 103 96 130 95 125 68 54 84 79 81 49 70 22 50 87 76 136 61 82 108 119 120 79 102 95 98 88 65 101 101 46 94 44 2 5 68 95 82 26 83 68 40 54 47 7 38 46 18 47 22 37 4 6 9 41 19 17 10 3 18 15 20 21 8 10 22 0 18 6 46 48 42 23 27 11 115 95 139 127 151 135 147 145 143 168 145 153 118 125 123 67 135 116 121 91 36 29 89 82 69 63 61 24 111 94 135 96 120 110 61 131 77 117 103 22 109 86 99 115 90 111 74 86 96 96 98 105 89 71 103 94 90 78 60 73 70 49 66 58 54 19 6 5 38 6 10 44 26 14 11 18 2 13 10 13 3 32 16 25 56 40 28 35 7 114 86 134 127 143 120 143 152 154 172 140 143 129 135 116 116 116 121 96 90 76 78 93 75 69 68 70 35 123 120 143 91 127 37 55 109 42 109 54 83 94 74 85 78 55 103 60 84 96 88 66 74 85 72 81 85 84 58 61 68 54 52 65 62 23 23 8 5 17 8 21 42 27 29 14 30 21 42 17 36 17 17 6 20 49 25 20 37 11 102 60 108 94 88 129 110 134 116 143 108 100 53 101 38 90 46 84 12 58 48 33 47 4 4 43 52 41 111 124 142 70 113 92 75 64 14 86 62 61 24 52 69 46 44 73 60 57 54 70 87 19 33 87 10 44 53 28 30 44 27 25 51 29 16 14 3 22 18 7 18 2 23 24 29 27 43 34 33 40 11 16 13 28 48 20 3 32 21 84 45 65 110 53 128 82 134 96 70 81 77 78 25 48 51 52 50 23 44 22 14 10 6 32 32 8 48 21 73 112 52 83 72 77 74 60 83 88 79 77 54 69 71 65 71 76 79 75 75 61 44 10 75 30 52 69 54 31 15 37 30 54 40 13 38 12 26 31 20 23 45 38 11 38 21 45 12 26 37 18 38 0 34 53 35 3 2 24 94 73 109 106 115 134 115 138 84 79 85 77 69 25 64 60 72 21 61 44 43 29 50 31 50 13 67 4 64 35 19 5 91 76 80 75 85 87 90 60 71 55 78 60 36 45 53 56 51 63 10 41 25 61 34 45 61 41 17 22 28 1 43 43 38 24 17 24 21 10 42 52 45 8 36 27 26 7 30 41 32 32 4 46 37 30 21 23 58 103 89 121 108 138 111 118 120 58 39 36 55 61 56 74 23 84 42 80 37 86 46 83 26 82 63 94 70 72 53 78 58 102 100 58 99 85 83 83 37 55 58 77 28 36 16 35 47 17 32 47 20 15 63 38 51 15 26 21 35 32 9 17 24 17 23 2 34 18 1 25 17 24 7 13 41 11 12 16 26 13 13 16 40 25 31 6 1 39 86 83 97 102 119 108 95 83 38 57 53 76 71 60 78 46 88 63 80 36 96 88 95 53 94 87 96 82 87 76 82 55 83 78 66 99 69 75 63 37 54 48 69 35 45 54 26 41 57 35 39 19 36 63 18 47 11 0 22 9 31 6 15 26 39 36 5 30 20 7 24 15 9 10 8 39 11 31 36 31 0 9 27 15 24 10 7 9 16 62 36 33 70 54 84 65 58 77 89 16 93 62 56 65 39 78 66 71 73 61 72 71 58 67 50 56 39 54 46 57 36 73 64 54 79 43 43 16 29 65 46 44 67 50 68 43 37 66 44 28 36 8 24 32 18 6 17 21 27 6 18 26 15 39 19 22 15 12 16 14 8 17 15 7 25 2 32 23 31 1 11 39 27 7 6 7 5 35 58 38 67 38 57 71 49 89 77 93 78 96 6 88 61 76 82 72 73 59 46 79 62 36 27 54 31 14 26 26 41 65 38 86 54 67 34 11 19 5 69 40 40 82 43 69 57 35 57 35 14 19 2 35 23 4 2 14 32 32 1 22 1 11 20 12 12 10 2 12 13 7 4 12 11 8 7 23 30 22 3 3 15 38 2 7 6 18 24 57 40 38 85 71 86 94 61 88 76 91 93 68 26 86 68 80 38 56 48 9 60 56 34 50 21 3 35 23 44 61 63 75 51 45 37 8 21 39 37 51 33 58 47 24 59 36 22 32 43 25 34 4 25 11 12 5 3 42 31 0 1 15 13 18 1 3 3 24 13 20 19 3 20 23 14 3 24 35 4 15 23 15 25 25 34 29 7 22 45 62 75 90 66 90 89 39 76 54 69 78 64 62 66 33 46 8 34 37 38 39 36 38 45 14 22 30 34 35 58 63 40 43 35 13 20 21 10 32 39 44 19 9 29 54 2 0 15 54 15 16 2 18 2 15 20 21 37 27 17 13 2 15 15 10 18 24 6 30 21 18 9 15 24 32 8 23 39 19 25 28 3 3 43 8 38 18 25 45 46 67 54 73 88 29 57 41 16 39 18 29 39 25 32 36 14 39 6 37 40 25 34 34 27 10 5 8 10 18 16 9 41 31 51 51 53 48 16 2 2 9 31 34 33 32 18 46 38 56 21 21 29 4 15 15 30 4 8 36 30 9 7 13 18 29 23 9 27 15 18 7 13 6 44 9 21 46 17 28 15 27 24 30 36 7 34 8 55 33 33 47 62 69 34 44 42 47 14 14 26 9 20 13 21 37 14 17 2 43 27 31 14 23 27 14 1 9 28 18 14 34 47 62 57 72 70 63 52 42 38 39 33 29 41 40 45 4 47 24 26 30 11 16 9 14 22 7 37 26 13 17 21 4 22 10 8 8 13 21 7 26 2 45 5 35 33 27 25 24 31 8 18 20 15 19 26 63 32 47 13 17 9 48 14 20 21 35 13 37 27 36 8 30 29 20 42 35 23 39 37 26 12 38 6 18 29 45 14 26 16 36 61 37 71 56 58 65 58 62 43 48 61 57 26 40 1 43 20 30 38 13 21 4 38 13 2 16 9 13 34 23 18 8 2 12 12 16 10 37 6 12 31 17 13 17 19 5 37 20 52 44 42 8 15 31 74 35 50 42 32 7 48 51 35 32 35 6 18 45 35 31 55 20 52 29 26 20 44 29 45 39 40 10 22 9 42 0 16 49 66 65 31 68 37 43 18 38 76 11 5 87 62 61 79 16 49 58 35 53 55 15 27 47 10 11 33 15 35 45 12 44 14 11 35 22 17 30 26 25 24 10 23 24 11 14 3 23 1 44 29 44 6 18 27 81 49 61 31 30 46 24 61 22 39 11 57 48 72 52 56 68 66 84 51 74 52 74 30 83 48 85 50 69 38 57 24 50 86 57 89 20 86 53 18 75 23 84 57 9 97 65 23 96 32 36 88 33 62 82 13 44 16 8 23 35 4 38 42 1 41 16 4 32 24 21 41 0 5 23 3 16 27 4 17 22 0 6 0 19 29 28 12 19 83 40 53 61 52 71 11 71 23 61 20 62 18 67 27 51 75 76 89 55 78 46 79 15 92 43 91 63 89 71 66 23 48 89 63 105 18 101 78 18 90 19 81 81 29 93 52 45 93 46 76 79 27 70 79 34 32 41 32 35 16 26 29 25 6 18 26 12 11 3 0 24 6 5 13 3 3 24 12 7 21 2 2 13 20 52 50 31 22 83 42 41 60 93 90 62 67 53 71 43 35 40 37 29 6 63 51 71 18 55 58 43 52 73 47 65 67 76 60 34 46 43 46 12 100 37 97 86 69 77 38 77 53 37 73 25 27 66 57 72 38 36 60 56 41 18 30 33 6 20 22 6 21 8 17 10 29 9 1 8 21 13 5 11 8 18 28 35 5 11 20 6 46 24 57 37 46 2 71 19 35 67 82 71 59 51 47 62 21 3 22 30 28 10 23 17 42 17 15 24 18 27 35 21 21 27 26 4 39 43 44 11 47 71 14 71 45 59 34 41 53 42 15 21 32 30 42 54 38 10 23 13 19 26 5 29 5 24 4 18 13 30 18 4 6 31 22 16 30 33 4 12 11 17 6 20 41 31 40 17 9 21 45 32 15 29 6 40 18 36 43 7 3 7 40 25 24 27 4 25 30 12 0 6 10 20 12 31 11 31 12 4 16 23 27 3 17 21 12 33 27 33 13 11 38 4 25 21 30 52 36 32 7 23 27 39 34 22 36 27 3 24 10 13 8 20 25 5 23 5 18 25 27 30 33 3 28 36 42 19 9 6 19 7 5 15 6 42 23 39 15 20 24 17 19 14 19 33 6 25 29 12 12 17 38 0 22 15 19 13 11 4 13 18 20 26 11 30 40 21 30 13 25 18 4 3 8 19 35 47 1 47 26 12 4 2 36 12 37 19 26 0 1 11 43 16 27 25 31 22 8 5 15 4 18 40 0 32 5 7 9 30 19 9 19 16 19 31 0 9 2 2 1 17 30 35 21 6 34 6 18 27 5 14 18 8 23 21 25 12 42 44 54 54 20 33 1 23 31 37 26 23 24 27 35 30 56 48 42 42 5 7 20 37 31 55 30 48 55 33 61 34 16 24 29 44 14 55 40 27 53 31 2 62 21 46 16 46 25 50 21 0 11 37 39 0 34 9 4 17 15 4 11 7 9 6 12 1 15 7 19 7 24 7 13 10 16 21 8 39 13 8 6 30 39 14 43 20 31 1 29 71 52 24 49 43 6 35 52 34 41 42 68 65 31 46 60 40 43 14 30 4 54 35 72 51 69 59 41 76 53 56 43 25 66 8 80 78 40 80 32 34 61 23 5 78 66 63 73 39 19 23 38 31 19 30 41 5 19 42 4 25 12 10 5 6 4 7 29 12 16 9 31 6 14 8 35 6 43 9 33 19 47 43 8 28 28 39 54 50 24 36 24 26 56 27 36 48 54 16 27 62 65 19 14 51 15 8 16 20 24 56 37 66 48 69 22 0 72 53 75 1 10 79 22 76 79 5 79 40 38 43 41 68 104 41 57 76 45 18 29 39 41 57 27 55 20 23 58 28 17 12 33 13 12 16 9 36 17 39 9 38 20 40 10 23 2 26 26 40 3 40 44 44 43 29 3 44 24 44 11 37 36 14 27 15 17 45 24 36 9 57 41 31 13 16 17 30 15 5 45 43 43 46 58 41 24 54 47 74 53 52 70 9 59 71 22 65 38 0 41 61 51 100 37 62 60 32 52 34 40 46 55 5 39 33 10 51 26 16 7 37 32 29 40 15 27 29 30 23 37 28 29 3 5 11 32 14 16 25 26 15 35 39 16 19 26 42 36 25 52 53 34 23 16 27 30 2 22 24 47 32 40 21 13 43 19 29 22 39 30 25 36 70 44 2 44 41 51 44 42 33 51 52 53 22 13 51 31 39 48 25 71 36 46 35 0 41 15 33 25 12 17 28 46 19 26 0 40 12 7 16 17 44 12 18 26 6 3 17 42 20 18 32 29 44 5 6 22 41 13 16 46 20 14 44 48 42 43 43 63 35 21 23 37 31 17 13 4 17 13 21 32 25 39 5 28 20 48 24 23 29 72 58 60 63 62 35 11 26 38 49 22 15 30 40 10 18 8 27 35 20 52 49 30 18 21 17 20 19 7 0 27 38 1 28 44 13 35 6 16 28 24 31 24 19 3 4 14 20 20 8 35 31 35 9 13 26 37 1 2 46 11 9 24 19 30 14 46 37 10 8 24 0 27 13 0 10 1 23 23 22 15 28 11 27 31 17 55 45 33 49 42 57 37 53 36 32 32 29 30 16 19 17 25 41 0 11 26 29 9 47 40 21 16 3 34 17 4 31 2 14 18 3 29 32 33 29 5 30 26 4 7 8 3 19 9 19 22 3 18 8 26 20 34 36 38 32 32 22 44 12 19 9 36 28 19 33 6 18 30 30 24 0 7 9 27 12 37 27 6 7 40 16 33 30 47 46 32 3 17 16 3 2 13 21 24 0 1 8 23 14 15 22 34 5 8 7 49 6 37 30 6 25 20 33 24 2 33 9 3 15 8 10 16 36 28 23 25 21 2 6 22 13 16 4 36 32 3 21 12 30 19 36 39 37 9 46 19 46 12 24 8 31 12 5 18 13 20 25 52 12 20 2 2 26 29 50 48 12 33 55 31 42 22 59 33 16 2 9 39 13 1 3 48 14 21 21 7 17 14 27 23 13 1 12 40 25 6 24 17 3 13 11 12 9 8 7 17 11 18 12 5 12 26 16 25 12 13 4 10 26 19 12 6 26 23 22 41 6 22 8 5 29 22 27 21 7 39 22 29 12 28 3 8 7 10 24 28 40 18 20 9 18 5 2 60 84 21 39 56 38 18 33 38 17 27 0 2 16 11 1 16 46 13 22 7 7 12 21 17 22 0 25 27 47 23 68 26 25 20 1 5 8 10 18 25 13 15 22 16 23 9 20 4 8 30 19 20 20 23 28 9 11 17 12 31 74 8 18 35 0 17 19 15 15 1 8 34 27 18 18 0 4 1 17 4 8 40 11 12 17 24 22 26 34 94 35 19 54 44 14 10 50 25 51 14 34 10 27 12 15 32 25 6 31 41 15 16 12 42 9 33 48 43 38 86 50 58 41 32 9 28 29 3 27 19 24 17 28 12 7 19 28 30 21 35 39 10 22 19 11 35 31 43 33 84 50 37 35 3 15 42 38 15 39 40 45 15 24 9 20 5 26 20 51 42 49 15 21 2 17 29 36 63 86 43 38 65 26 46 27 64 40 57 50 50 62 30 39 41 25 16 54 61 54 39 22 17 58 28 17 61 55 25 69 56 70 57 47 20 31 42 22 14 13 20 12 32 1 35 4 32 15 1 54 48 10 24 10 45 48 45 48 59 79 17 52 14 38 7 50 57 18 42 70 29 36 30 50 20 52 33 63 67 55 23 28 49 26 24 21 7 57 83 68 63 76 33 74 39 54 65 66 71 73 94 49 14 70 13 14 75 44 42 58 30 30 56 59 2 27 53 38 62 37 67 40 29 23 55 30 57 17 44 7 32 60 40 18 40 32 11 15 87 68 24 15 26 48 57 56 52 53 86 67 42 41 42 28 44 66 37 33 80 33 35 44 69 26 77 77 61 72 39 35 18 60 42 24 23 32 75 58 50 58 67 51 73 58 63 80 94 47 66 69 51 56 50 57 37 75 77 45 63 57 47 35 71 54 62 44 66 69 29 69 5 2 40 57 35 60 35 45 29 57 64 62 27 34 51 4 46 100 54 52 63 57 10 64 39 77 77 61 61 2 48 28 5 40 65 2 45 81 23 57 16 79 21 62 91 48 70 37 50 1 78 4 44 36 32 70 53 48 48 50 63 62 30 66 36 76 29 28 60 59 85 48 50 47 68 72 36 48 53 35 31 53 49 63 52 74 63 11 71 11 14 4 37 27 60 44 44 8 57 41 64 29 46 48 13 53 95 37 41 75 42 50 46 68 73 87 76 37 28 68 49 28 51 56 26 61 82 2 72 44 89 61 49 74 73 40 34 66 38 86 64 47 41 81 68 81 56 54 54 42 37 45 64 60 42 60 63 81 44 97 59 35 57 64 71 32 53 80 22 60 18 16 24 4 71 62 26 58 41 6 26 53 52 56 53 57 13 50 33 62 30 55 49 33 45 83 47 41 27 51 56 29 69 13 72 95 50 31 79 73 69 64 44 52 47 82 28 87 99 75 51 34 77 81 60 55 73 51 57 73 58 37 80 85 78 66 64 27 4 19 50 76 69 73 78 74 79 59 101 71 63 49 64 75 43 69 77 18 60 35 53 22 25 65 33 36 37 44 24 31 52 37 18 53 63 4 30 41 54 1 63 49 33 13 74 39 23 62 73 46 8 55 26 77 73 79 27 71 72 66 31 6 76 68 86 67 101 113 114 101 96 78 53 51 51 65 27 30 74 72 1 45 46 31 74 50 4 39 35 77 82 75 79 93 67 92 68 104 54 87 17 57 88 65 79 23 42 72 35 54 71 38 56 22 16 1 53 2 21 28 4 40 14 45 14 1 38 58 24 32 20 31 5 45 45 12 23 54 16 10 47 30 56 23 78 31 46 25 20 38 32 83 58 100 54 94 89 107 113 97 85 65 33 79 16 59 18 49 49 40 9 64 52 68 23 14 46 17 61 52 63 59 86 57 62 39 108 80 84 55 26 92 67 58 68 29 78 20 18 79 42 37 32 19 16 47 31 43 7 20 45 52 25 24 21 62 50 11 37 1 32 18 20 37 6 2 9 39 29 21 66 39 37 57 20 53 37 33 11 35 71 57 85 82 96 95 90 96 56 88 80 57 83 50 67 20 8 9 54 0 73 45 17 16 17 30 50 38 51 41 23 57 50 51 53 88 81 79 55 2 78 59 28 71 2 63 8 35 63 49 24 32 14 10 9 15 40 6 10 25 48 1 11 27 39 6 32 31 7 24 20 4 12 1 5 6 12 16 40 52 54 39 29 22 45 15 59 37 18 26 58 46 73 71 83 57 78 67 37 52 43 60 7 42 24 28 10 30 5 74 37 24 20 8 15 49 29 59 38 2 45 36 55 11 54 54 48 29 18 46 55 13 54 21 48 37 1 37 49 40 21 12 33 8 17 20 4 2 9 23 5 9 24 19 29 14 10 1 12 19 7 1 19 5 1 10 11 35 4 60 44 53 17 29 48 45 12 43 49 13 39 42 15 36 2 51 8 13 38 35 48 12 9 38 26 3 8 7 66 45 35 36 19 10 41 30 60 35 18 17 34 39 37 47 31 10 21 1 18 40 27 32 10 24 20 2 11 18 39 17 20 21 13 21 6 12 11 5 20 21 8 12 34 32 10 4 0 10 33 0 19 22 32 8 4 28 30 22 51 39 62 15 25 40 30 28 25 26 30 6 45 20 4 13 5 43 39 36 36 43 27 1 43 22 9 14 0 50 41 50 20 5 14 28 42 53 16 25 46 50 21 34 27 39 18 16 30 0 29 7 32 22 13 27 26 6 2 9 0 13 3 28 18 20 10 12 3 42 38 0 13 31 30 15 18 19 18 28 26 20 6 55 2 16 40 22 36 34 18 50 32 35 20 12 17 26 12 14 25 11 17 14 40 2 32 30 7 32 33 35 13 41 26 3 26 19 30 36 40 17 2 22 21 9 39 25 33 36 49 20 9 2 18 20 15 28 19 5 2 24 34 14 9 14 8 4 13 7 9 2 19 14 14 8 9 4 41 45 6 17 27 39 14 40 14 15 8 28 1 18 50 17 22 27 4 26 15 15 45 29 16 22 19 14 17 1 4 6 13 18 34 52 1 2 5 22 22 7 9 7 35 19 7 11 37 10 0 21 25 16 21 30 38 76 24 37 2 37 23 9 13 8 28 4 14 36 3 5 20 30 6 4 8 16 17 16 19 9 2 12 4 13 3 6 15 14 27 4 17 27 31 5 32 5 2 10 9 2 7 22 23 14 24 8 5 21 0 48 22 10 29 32 27 33 2 17 17 18 2 35 32 29 36 26 12 4 40 25 8 15 17 12 5 50 13 7 31 1 29 24 26 27 73 32 33 31 21 45 16 9 0 45 3 15 22 9 7 17 15 9 24 27 16 16 5 18 8 18 25 2 13 10 6 13 15 9 11 11 8 16 1 10 9 4 19 37 3 17 29 29 32 19 10 0 9 25 45 7 29 11 17 28 38 1 19 35 13 8 33 18 15 32 20 15 21 20 18 12 6 20 3 11 49 17 0 14 29 3 1 7 2 46 47 21 22 20 44 24 18 27 36 1 30 7 3 4 27 1 5 30 16 5 5 9 9 5 24 23 7 12 6 5 22 13 14 14 21 1 16 15 14 3 3 19 35 3 20 45 3 24 17 6 10 4 18 29 5 20 4 3 26 26 0 19 24 4 9 15 3 2 0 4 5 26 17 4 7 12 18 3 0 27 2 1 3 29 9 18 6 1 26 37 19 0 5 33 5 16 21 3 3 26 17 0 1 23 1 3 25 0 0 0 4 7 2 9 23 5 16 1 9 13 5 5 5 21 3 10 6 33 4 1 8 5 2 11 23 11 16 13 3 4 4 14 26 2 4 11 6 18 8 0 13 9 0 3 3 1 0 6 3 0 24 1 7 3 3 9 2 3 5 1 0 7 20 6 7 9 1 8 13 20 1 0 24 3 4 6 6 3 4 7 0 0 5 9 3 13 0 0 3 6 10 0 12 21 2 13 3 7 0 2 0 2 13 5 7 3 18 4 1 2 2 0 4 5 4 15 9 3 1 2 2 17 1 0 4 4 15 0 0 5 6 1 1 1 3 2 0 0 0 12 7 11 0 1 0 0 0 0 2 0 3 11 0 0 9 1 0 9 2 1 1 6 3 2 4 2 0 2 0 1 0 0 10 1 3 1 0 1 1 5 0 8 5 0 7 2 2 1 1 0 1 4 2 10 0 1 7 0 2 4 0 1 1 1 3 1 2 1 1 2 4 0 1 0 1 2 0 0 0 2 0 0 2 2 5 2 1 0 2 1 5 5 0 0 0 0 1 2 0 1 2 0 0 3 0 1 1 5 1 0 0 0 1 3 0 1 3 0 1 0 2 3 2 0 0 0 0 0 1 0 3 0 0 1 2 0 0 0 0 0 2 0 4 0 1 0 0 1 3 0 0 4 3 2 0 2 0 0 1 0 0 0 0 0 2 0 0 0 3 0 0 1 0 2 1 0 0 0 0 0 1 0 1 0 1 2 1 0 0 0 1 0 0 0 1 1 1 0 0 0 0 2 3 0 1 0 1 0 0 3 0 1 5 0 0 1 1 0 0 1 0 0 0 1 0 1 1 0 0 1 0 0 0 0 1 0 0 0 1 0 2 0 0 0 1 0 0 1 2 0 1 0 0 0 0 0 0 1 0 0 0 1 0 0 0 1 0 0 0 0 0 1 0 2 3 0 0 0 0 0 0 1 0 0 1 0 0 0 0 0 2 3 1 1 0 0 0 0 3 0 0 5 0 0 0 1 0 0 0 1 0 0 1 0 0 1 0 0 0 0 0 0 0 0 1 0 0 2 0 0 0 2 1 0 0 0 1 2 0 1 0 0 0 0 0 0 0 0 0 0 1 0 0 0 1 1 0 0 0 0 0 0 1 1 0 0 0 0 0 0 0 0 0 0 0 0 0 0 0 1 1 0 0 0 0 0 0 0 0 0 0 0 0 0 1 0 0 0 0 0 0 0 0 0 0 0 0 0 0 0 1 0 0 1 0 0 1 0 0 1 1 0 0 0 0 0 1 0 0 0 0 1 0 0 0 0 0 0 0 0 0 0 0 0 0 0 0 0 0 0 0 0 0 0 0 0 0 0 0 0 0 0 0 1 0 0 0 0 0 0 1 0 0 0 1 0 0 0 0 0 0 0 0 0 0 0 0 0 0 0 0 0 0 0 0 0 0 0 0 0 0 0 0 0 0 0 0 0 0 0 0 0 0 0 0 1 0 0 0 0 0 0 0 0 0 0 0 0 0 0 0 0 0 0 0 0 0 0 0 0 0 0 0 0 0 0 0 0 0 0 0 1 0 0 0 0 0 0 0 0 0 0 0 0 0 0 0 0 0 0 0 0 0 0 0 0 0 0 0 0 0 0 0 0 0 0 0 0 0 0 0 0 0 0 0 0 0 0 0 0 0 0 0 0 0 0 0 0 0 0 0 0 0 0 0 0 0 0 0 0 1 0 0 1 0 0 0 0 0 0 0 0 0 2 0 0 0 0 0 0 0 0 0 0 0 0 0 0 0 0 0 0 0 0 0 0 0 0 0 0 0 0 0 0 0 0 0 0 0 0 0 0 0 0 0 0 0 0 0 0 0 0 0 0 0 0 0 0 0 0 0 0 0 0 0 0 0 0 0 0 0 0 0 0 0 0 0 0 0 2 0 0 2 0 0 0 0 0 0 0 0 0 2 0 0 1 0 0 0 0 0 0 0 0 0 0 0 0 0 1 0 0 0 0 0 0 0 0 0 0 0 0 0 0 0 0 0 0 0 0 0 0 0 0 1 0 0 0 0 0 0 0 0 0 0 0 0 1 0 0 0 1 0 0 0 0 0 0 0 0 0 0 0 0 0 0 0 0 1 0 0 0 0 0 0 0 0 0 0 0 0 0 0 0 1 0 0 0 0 0 0 0 0 0 0 0 0 0 0 0 0 0 0 0 0 0 0 0 0 0 0 0 0 0 0 0 0 0 0 0 0 0 0 0 0 0 0 0 0 0 0 0 0 0 0 0 0 0 0 0 0 0 0 0 0 0 0 0 0 0 0 0 0 0 0 0 0 0 0 0 0 0 0 0 0 0 0 0 0 0 0 0 0 0 0 0 0 0 0 0 0 0 0 0 0 0 0 0 0 0 0 0 0 0 0 0 0 0 0 0 0 0 0 0 0 0 0 0 0 0 0 0 0 0 0 1 0 0 0 0 0 0 0 0 0 0 0 0 0 0 1 0 0 0 0 0 0 0 0 0 0 0 0 0 0 0 0 0 0 0 0 0 0 0 0 0 0 0 0 0 0 0 0 0 0 0 0 0 0 0 0 0 0 0 0 0 0 0 0 0 0 0 0 0 0 0 0 0 0 0 0 0 0 0 0 0 0 0 0 0 0 0 0 0 0 0 0 0 0 0 0 0 0 0 0 0 0 0 0 0 0 0 0 0 0 0 0 0 0 0 0 0 0 0 0 0 0 0 0 0 0 0 0 0 0 0 0 0 0 0 0 0 0 0 0 0 0 0 0 0 0 0 0 0 0 0 0 0 0 0 0 0 0 0 0 0 0 0 0 0 0 0 0 0 0 0 0 0 0 0 0 0 0 0 0 0 0 0 0 0 0 0 0 0 0 0 0 0 0 0 0 0 0 0 0 0 0 0 0 0 0 0 0 0 0 0 0 0 0 0 0 0 0 0 0 0 0 0 0 0 0 0 0 0 0 0 0 0 0 0 0 0 0 0 0 0 0 0 0 0 0 0 0 0 0 0 0 0 0 0 0 0 0 0 0 0 0 0 0 0 0 0 0 0 0 0 0 0 0 0 0 0 0 0 0 0 0 0 0 0 0 0 0 0 0 0 0 0 0 0 0 0 0 0 0 0 0 0 0 0 0 0 0 0 0 0 0 0 0 0 0 0 0 0 0 0 0 0 0 0 0 0 0 0 0 0 0 0 0 0 0 0 0 0 0 0 0 0 0 0 0 0 0 0 0 0 0 0 0 0 0 0 0 0 0 0 0 0 0 0 0 0 0 0 0 0 0 0 0 0 0 0 0 0 0 0 0 0 0 0 0 0 0 0 0 0 0 0 0 0 0 0 0 0 0 0 0 0 0 0 0 0 0 0 0 0 0 0 0 0 0 0 0 0 0 0 0 0 0 0 0 0 0 0 0 0 0 0 0 0 0 0 0 0 0 0 0 0 0 0 0 0 0 0 0 0 0 0 0 0 0 0 0 0 0 0 0 0 0 0 0 0 0 0 0 0 0 0 0 0 0 0 0 0 0 0 0 0 0 0 0 0 0 0 0 0 0 0 0 0 0 0 0 0 0 0 0 0 0 0 0 0 0 0 0 0 0 0 0 0 0 0 0 0 0 0 0 0 0 0 0 0 0 0 0 0 0 0 0 0 0 0 0 0 0 0 0 0 0 0 0 0 0 0 0 0 0 0 0 0 0 0 0 0 0 0 0 0 0 0 0 0 0 0 0 0 0 0 0 0 0 0 0 0 0 0 0 0 0 0 0 0 0 0 0 0 0 0 0 0 0 0 0 0 0 0 0 0 0 0 0 0 0 0 0 0 0 0 0 0 0 0 0 0 0 0 0 0 0 0 0 0 0 0 0 0 0 0 0 0 0 0 0 0 0 0 0 0 0 0 0 0 0 0 0 0 0 0 0 0 0 0 0 0 0 0 0 0 0 0 0 0 0 0 0 0 0 0 0 0 0 0 0 0 0 0 0 0 0 0 0 0 0 0 0 0 0 0 0 0 0 0 0 0 0 0 0 0 0 0 0 0 0 0 0 0 0 0 0 0 0 0 0 0 0 0 0 0 0 0 0 0 0 0 0 0 0 0 0 0 0 0 0 0 0 0 0 0 0 0 0 0 0 0 0 0 0 0 0 0 0 0 0 0 0 0 0 0 0 0 0 0 0 0 0 0 0 0 0 0 0 0 0 0 0 0 0 0 0 0 0 0 0 0 0 0 0 0 0 0 0 0 0 0 0 0 0 0 0 0 0 0 0 0 0 0 0 0 0 0 0 0 0 0 0 0 0 0 0 0 0 0 0 0 0 0 0 0 0 0 0 0 0 0 0 0 0 0 0 0 0 0 0 0 0 0 0 0 0 0 0 0 0 0 0 0 0 0 0 0 0 0 0 0 0 0 0 0 0 0 0 0 0 0 0 0 0 0 0 0 0 0 0 0 0 0 0 0 0 0 0 0 0 0 0 0 0 0 0 0 0 0 0 0 0 0 0 0 0 0 0 0 0 0 0 0 0 0 0 0 0 0 0 0 0 0 0 0 0 0 0 0 0 0 0 0 0 0 0 0 0 0 0 0 0 0 0 0 0 0 0 0 0 0 0 0 0 0 0 0 0 0 0 0 0 0 0 0 0 0 0 0 0 0 0 0 0 0 0 0 0 0 0 0 0 0 0 0 0 0 0 0 0 0 0 0 0 0 0 0 0 0 0 0 0 0 0 0 0 0 0 0 0 0 0 0 0 0 0 0 0 0 0 0 0 0 0 0 0 0 0 0 0 0 0 0 0 0 0 0 0 0 0 0 0 0 0 0 0 0 0 0 0 0 0 0 0 0 0 0 0 0 0 0 0 0 0 0 0 0 0 0 0 0 0 0 0 0 0 0 0 0 0 0 0 0 0 0 0 0 0 0 0 0 0 0 0 0 0 0 0 0 0 0 0 0 0 0 0 0 0 0 0 0 0 0 0 0 0 0 0 0 0 0 0 0 0 0 0 0 0 0 0 0 0 0 0 0 0 0 0 0 0 0 0 0 0 0 0 0 0 0 0 0 0 0 0 0 0 0 0 0 0 0 0 0 0 0 0 0 0 0 0 0 0 0 0 0 0 0 0 0 0 0 0 0 0 0 0 0 0 0 0 0 0 0 0 0 0 0 0 0 0 0 0 0 0 0 0 0 0 0 0 0 0 0 0 0 0 0 0 0 0 0 0 0 0 0 0 0 0 0 0 0 0 0 0 0 0 0 0 0 0 0 0 0 0 0 0 0 0 0 0 0 0 0 0 0 0 0 0 0 0 0 0 0 0 0 0 0 0 0 0 0 0 0 0 0 0 0 0 0 0 0 0 0 0 0 0 0 0 0 0 0 0 0 0 0 0 0 0 0 0 0 0 0 0 0 0 0 0 0 0 0 0 0 0 0 0 0 0 0 0 0 0 0 0 0 0 0 0 0 0 0 0 0 0 0 0 0 0 0 0 0 0 0 0 0 0 0 0 0 0 0 0 0 0 0 0 0 0 0 0 0 0 0 0 0 0 0 0 0 0 0 0 0 0 0 0 0 0 0 0 0 0 0 0 0 0 0 0 0 0 0 0 0 0 0 0 0 0 0 0 0 0 0 0 0 0 0 0 0 0 0 0 0 0 0 0 0 0 0 0 0 0 0 0 0 0 0 0 0 0 0 0 0 0 0 0 0 0 0 0 0 0 0 0 0 0 0 0 0 0 0 0 0 0 0 0 0 0 0 0 0 0 0 0 0 0 0 0 0 0 0 0 0 0 0 0 0 0 0 0 0 0 0 0 0 0 0 0 0 0 0 0 0 0 0 0 0 0 0 0 0 0 0 0 0 0 0 0 0 0 0 0 0 0 0 0 0 0 0 0 0 0 0 0 0 0 0 0 0 0 0 0 0 0 0 0 0 0 0 0 0 0 0 0 0 0 0 0 0 0 0 0 0 0 0 0 0 0 0 0 0 0 0 0 0 0 0 0 0 0 0 0 0 0 0 0 0 0 0 0 0 0 0 0 0 0 0 0 0 0 0 0 0 0 0 0 0 0 0 0 0 0 0 0 0 0 0 0 0 0 0 0 0 0 0 0 0 0 0 0 0 0 0 0 0 0 0 0 0 0 0 0 0 0 0 0 0 0 0 0 0 0 0 0 0 0 0 0 0 0 0 0 0 0 0 0 0 0 0 0 0 0 0 0 0 0 0 0 0 0 0 0 0 0 0 0 0 0 0 0 0 0 0 0 0 0 0 0 0 0 0 0 0 0 0 0 0 0 0 0 0 0 0 0 0 0 0 0 0 0 0 0 0 0 0 0 0 0 0 0 0 0 0 0 0 0 0 0 0 0 0 0 0 0 0 0 0 0 0 0 0 0 0 0 0 0 0 0 0 0 0 0 0 0 0 0 0 0 0 0 0 0 0 0 0 0 0 0 0 0 0 0 0 0 0 0 0 0 0 0 0 0 0 0 0 0 0 0 0 0 0 0 0 0 0 0 0 0 0 0 0 0 0 0 0 0 0 0 0 0 0 0 0 0 0 0 0 0 0 0 0 0 0 0 0 0 0 0 0 0 0 0 0 0 0 0 0 0 0 0 0 0 0 0 0 0 0 0 0 0 0 0 0 0 0 0 0 0 0 0 0 0 0 0 0 0 0 0 0 0 0 0 0 0 0 0 0 0 0 0 0 0 0 0 0 0 0 0 0 0 0 0 0 0 0 0 0 0 0 0 0 0 0 0 0 0 0 0 0 0 0 0 0 0 0 0 0 0 0 0 0 0 0 0 0 0 0 0 0 0 0 0 0 0 0 0 0 0 0 0 0 0 0 0 0 0 0 0 0 0 0 0 0 0 0 0 0 0 0 0 0 0 0 0 0 0 0 0 0 0 0 0 0 0 0 0 0 0 0 0 0 0 0 0 0 0 0 0 0 0 0 0 0 0 0 0 0 0 0 0 0 0 0 0 0 0 0 0 0 0 0 0 0 0 0 0 0 0 0 0 0 0 0 0 0 0 0 0 0 0 0 0 0 0 0 0 0 0 0 0 0 0 0 0 0 0 0 0 0 0 0 0 0 0 0 0 0 0 0 0 0 0 0 0 0 0 0 0 0 0 0 0 0 0 0 0 0 0 0 0 0 0 0 0 0 0 0 0 0 0 0 0 0 0 0 0 0 0 0 0 0 0 0 0 0 0 0 0 0 0 0 0 0 0 0 0 0 0 0 0 0 0 0 0 0 0 0 0 0 0 0 0 0 0 0 0 0 0 0 0 0 0 0 0 0 0 0 0 0 0 0 0 0 0 0 0 0 0 0 0 0 0 0 0 0 0 0 0 0 0 0 0 0 0 0 0 0 0 0 0 0 0 0 0 0 0 0 0 0 0 0 0 0 0 0 0 0 0 0 0 0 0 0 0 0 0 0 0 0 0 0 0 0 0 0 0 0 0 0 0 0 0 0 0 0 0 0 0 0 0 0 0 0 0 0 0 0 0 0 0 0 0 0 0 0 0 0 0 0 0 0 0 0 0 0 0 0 0 0 0 0 0 0 0 0 0 0 0 0 0 0 0 0 0 0 0 0 0 0 0 0 0 0 0 0 0 0 0 0 0 0 0 0 0 0 0 0 0 0 0 0 0 0 0 0 0 0 0 0 0 0 0 0 0 0 0 0 0 0 0 0 0 0 0 0 0 0 0 0 0 0 0 0 0 0 0 0 0 0 0 0 0 0 0 0 0 0 0 0 0 0 0 0 0 0 0 0 0 0 0 0 0 0 0 0 0 0 0 0 0 0 0 0 0 0 0 0 0 0 0 0 0 0 0 0 0 0 0 0 0 0 0 0 0 0 0 0 0 0 0 0 0 0 0 0 0 0 0 0 0 0 0 0 0 0 0 0 0 0 0 0 0 0 0 0 0 0 0 0 0 0 0 0 0 0 0 0 0 0 0 0 0 0 0 0 0 0 0 0 0 0 0 0 0 0 0 0 0 0 0 0 0 0 0 0 0 0 0 0 0 0 0 0 0 0 0 0 0 0 0 0 0 0 0 0 0 0 0 0 0 0 0 0 0 0 0 0 0 0 0 0 0 0 0 0 0 0 0 0 0 0 0 0 0 0 0 0 0 0 0 0 0 0 0 0 0 0 0 0 0 0 0 0 0 0 0 0 0 0 0 0 0 0 0 0 0 0 0 0 0 0 0 0 0 0 0 0 0 0 0 0 0 0 0 0 0 0 0 0 0 0 0 0 0 0 0 0 0 0 0 0 0 0 0 0 0 0 0 0 0 0 0 0 0 0 0 0 0 0 0 0 0 0 0 0 0 0 0 0 0 0 0 0 0 0 0 0 0 0 0 0 0 0 0 0 0 0 0 0 0 0 0 0 0 0 0 0 0 0 0 0 0 0 0 0 0 0 0 0 0 0 0 0 0 0 0 0 0 0 0 0 0 0 0 0 0 0 0 0 0 0 0 0 0 0 0 0 0 0 0 0 0 0 0 0 0 0 0 0 0 0 0 0 0 0 0 0 0 0 0 0 0 0 0 0 0 0 0 0 0 0 0 0 0 0 0 0 0 0 0 0 0 0 0 0 0 0 0 0 0 0 0 0 0 0 0 0 0 0 0 0 0 0 0 0 0 0 0 0 0 0 0 0 0 0 0 0 0 0 0 0 0 0 0 0 0 0 0 0 0 0 0 0 0 0 0 0 0 0 0 0 0 0 0 0 0 0 0 0 0 0 0 0 0 0 0 0 0 0 0 0 0 0 0 0 0 0 0 0 0 0 0 0 0 0 0 0 0 0 0 0 0 0 0 0 0 0 0 0 0 0 0 0 0 0 0 0 0 0 0 0 0 0 0 0 0 0 0 0 0 0 0 0 0 0 0 0 0 0 0 0 0 0 0 0 0 0 0 0 0 0 0 0 0 0 0 0 0 0 0 0 0 0 0 0 0 0 0 0 0 0 0 0 0 0 0 0 0 0 0 0 0 0 0 0 0 0 0 0 0 0 0 0 0 0 0 0 0 0 0 0 0 0 0 0 0 0 0 0 0 0 0 0 0 0 0 0 0 0 0 0 0 0 0 0 0 0 0 0 0 0 0 0 0 0 0 0 0 0 0 0 0 0 0 0 0 0 0 0 0 0 0 0 0 0 0 0 0 0 0 0 0 0 0 0 0 0 0 0 0 0 0 0 0 0 0 0 0 0 0 0 0 0 0 0 0 0 0 0 0 0 0 0 0 0 0 0 0 0 0 0 0 0 0 0 0 0 0 0 0 0 0 0 0 0 0 0 0 0 0 0 0 0 0 0 0 0 0 0 0 0 0 0 0 0 0 0 0 0 0 0 0 0 0 0 0 0 0 0 0 0 0 0 0 0 0 0 0 0 0 0 0 0 0 0 0 0 0 0 0 0 0 0 0 0 0 0 0 0 0 0 0 0 0 0 0 0 0 0 0 0 0 0 0 0 0 0 0 0 0 0 0 0 0 0 0 0 0 0 0 0 0 0 0 0 0 0 0 0 0 0 0 0 0 0 0 0 0 0 0 0 0 0 0 0 0 0 0 0 0 0 0 0 0 0 0 0 0 0 0 0 0 0 0 0 0 0 0 0 0 0 0 0 0 0 0 0 0 0 0 0 0 0 0 0 0 0 0 0 0 0 0 0 0 0 0 0 0 0 0 0 0 0 0 0 0 0 0 0 0 0 0 0 0 0 0 0 0 0 0 0 0 0 0 0 0 0 0 0 0 0 0 0 0 0 0 0 0 0 0 0 0 0 0 0 0 0 0 0 0 0 0 0 0 0 0 0 0 0 0 0 0 0 0 0 0 0 0 0 0 0 0 0 0 0 0 0 0 0 0 0 0 0 0 0 0 0 0 0 0 0 0 0 0 0 0 0 0 0 0 0 0 0 0 0 0 0 0 0 0 0 0 0 0 0 0 0 0 0 0 0 0 0 0 0 0 0 0 0 0 0 0 0 0 0 0 0 0 0 0 0 0 0 0 0 0 0 0 0 0 0 0 0 0 0 0 0 0 0 0 0 0 0 0 0 0 0 0 0 0 0 0 0 0 0 0 0 0 0 0 0 0 0 0 0 0 0 0 0 0 0 0 0 0 0 0 0 0 0 0 0 0 0 0 0 0 0 0 0 0 0 0 0 0 0 0 0 0 0 0 0 0 0 0 0 0 0 0 0 0 0 0 0 0 0 0 0 0 0 0 0 0 0 0 0 0 0 0 0 0 0 0 0 0 0 0 0 0 0 0 0 0 0 0 0 0 0 0 0 0 0 0 0 0 0 0 0 0 0 0 0 0 0 0 0 0 0 0 0 0 0 0 0 0 0 0 0 0 0 0 0 0 0 0 0 0 0 0 0 0 0 0 0 0 0 0 0 0 0 0 0 0 0 0 0 0 0 0 0 0 0 0 0 0 0 0 0 0 0 0 0 0 0 0 0 0 0 0 0 0 0 0 0 0 0 0 0 0 0 0 0 0 0 0 0 0 0 0 0 0 0 0 0 0 0 0 0 0 0 0 0 0 0 0 0 0 0 0 0 0 0 0 0 0 0 0 0 0 0 0 0 0 0 0 0 0 0 0 0 0 0 0 0 0 0 0 0 0 0 0 0 0 0 0 0 0 0 0 0 0 0 0 0 0 0 0 0 0 0 0 0 0 0 0 0 0 0 0 0 0 0 0 0 0 0 0 0 0 0 0 0 0 0 0 0 0 0 0 0 0 0 0 0 0 0 0 0 0 0 0 0 0 0 0 0 0 0 0 0 0 0 0 0 0 0 0 0 0 0 0 0 0 0 0 0 0 0 0 0 0 0 0 0 0 0 0 0 0 0 0 0 0 0 0 0 0 0 0 0 0 0 0 0 0 0 0 0 0 0 0 0 0 0 0 0 0 0 0 0 0 0 0 0 0 0 0 0 0 0 0 0 0 0 0 0 0 0 0 0 0 0 0 0 0 0 0 0 0 0 0 0 0 0 0 0 0 0 0 0 0 0 0 0 0 0 0 0 0 0 0 0 0 0 0 0 0 0 0 0 0 0 0 0 0 0 0 0 0 0 0 0 0 0 0 0 0 0 0 0 0 0 0 0 0 0 0 0 0 0 0 0 0 0 0 0 0 0 0 0 0 0 0 0 0 0 0 0 0 0 0 0 0 0 0 0 0 0 0 0 0 0 0 0 0 0 0 0 0 0 0 0 0 0 0 0 0 0 0 0 0 0 0 0 0 0 0 0 0 0 0 0 0 0 0 0 0 0 0 0 0 0 0 0 0 0 0 0 0 0 0 0 0 0 0 0 0 0 0 0 0 0 0 0 0 0 0 0 0 0 0 0 0 0 0 0 0 0 0 0 0 0 0 0 0 0 0 0 0 0 0 0 0 0 0 0 0 0 0 0 0 0 0 0 0 0 0 0 0 0 0 0 0 0 0 0 0 0 0 0 0 0 0 0 0 0 0 0 0 0 0 0 0 0 0 0 0 0 0 0 0 0 0 0 0 0 0 0 0 0 0 0 0 0 0 0 0 0 0 0 0 0 0 0 0 0 0 0 0 0 0 0 0 0 0 0 0 0 0 0 0 0 0 0 0 0 0 0 0 0 0 0 0 0 0 0 0 0 0 0 0 0 0 0 0 0 0 0 0 0 0 0 0 0 0 0 0 0 0 0 0 0 0 0 0 0 0 0 0 0 0 0 0 0 0 0 0 0 0 0 0 0 0 0 0 0 0 0 0 0 0 0 0 0 0 0 0 0 0 0 0 0 0 0 0 0 0 0 0 0 0 0 0 0 0 0 0 0 0 0 0 0 0 0 0 0 0 0 0 0 0 0 0 0 0 0 0 0 0 0 0 0 0 0 0 0 0 0 0 0 0 0 0 0 0 0 0 0 0 0 0 0 0 0 0 0 0 0 0 0 0 0 0 0 0 0 0 0 0 0 0 0 0 0 0 0 0 0 0 0 0 0 0 0 0 0 0 0 0 0 0 0 0 0 0 0 0 0 0 0 0 0 0 0 0 0 0 0 0 0 0 0 0 0 0 0 0 0 0 0 0 0 0 0 0 0 0 0 0 0 0 0 0 0 0 0 0 0 0 0 0 0 0 0 0 0 0 0 0 0 0 0 0 0 0 0 0 0 0 0 0 0 0 0 0 0 0 0 0 0 0 0 0 0 0 0 0 0 0 0 0 0 0 0 0 0 0 0 0 0 0 0 0 0 0 0 0 0 0 0 0 0 0 0 0 0 0 0 0 0 0 0 0 0 0 0 0 0 0 0 0 0 0 0 0 0 0 0 0 0 0 0 0 0 0 0 0 0 0 0 0 0 0 0 0 0 0 0 0 0 0 0 0 0 0 0 0 0 0 0 0 0 0 0 0 0 0 0 0 0 0 0 0 0 0 0 0 0 0 0 0 0 0 0 0 0 0 0 0 0 0 0 0 0 0 0 0 0 0 0 0 0 0 0 0 0 0 0 0 0 0 0 0 0 0 0 0 0 0 0 0 0 0 0 0 0 0 0 0 0 0 0 0 0 0 0 0 0 0 0 0 0 0 0 0 0 0 0 0 0 0 0 0 0 0 0 0 0 0 0 0 0 0 0 0 0 0 0 0 0 0 0 0 0 0 0 0 0 0 0 0 0 0 0 0 0 0 0 0 0 0 0 0 0 0 0 0 0 0 0 0 0 0 0 0 0 0 0 0 0 0 0 0 0 0 0 0 0 0 0 0 0 0 0 0 0 0 0 0 0 0 0 0 0 0 0 0 0 0 0 0 0 0 0 0 0 0 0 0 0 0 0 0 0 0 0 0 0 0 0 0 0 0 0 0 0 0 0 0 0 0 0 0 0 0 0 0 0 0 0 0 0 0 0 0 0 0 0 0 0 0 0 0 0 0 0 0 0 0 0 0 0 0 0 0 0 0 0 0 0 0 0 0 0 0 0 0 0 0 0 0 0 0 0 0 0 0 0 0 0 0 0 0 0 0 0 0 0 0 0 0 0 0 0 0 0 0 0 0 0 0 0 0 0 0 0 0 0 0 0 0 0 0 0 0 0 0 0 0 0 0 0 0 0 0 0 