P2
115 129
255
0 0 0 0 0 0 0 0 0 0 0 0 0 0 0 0 0 0 0 0 0 0 0 0 0 0 0 0 0 0 0 0 0 0 0 0 0 0 0 0 0 0 0 0 0 0 0 0 0 0 0 0 0 0 0 0 0 0 0 0 0 0 0 0 0 0 0 0 0 0 0 0 0 0 0 0 0 0 0 0 0 0 0 0 0 0 0 0 0 0 0 0 0 0 0 0 0 0 0 0 0 0 0 0 0 0 0 0 0 0 0 0 0 0 0 0 0 0 0 0 0 0 0 0 0 0 0 0 0 0 0 0 0 0 0 0 0 0 0 0 0 0 0 0 0 0 0 0 0 0 0 0 0 0 0 0 0 0 0 0 0 0 0 0 0 0 0 0 0 0 0 0 0 0 0 0 0 0 0 0 0 0 0 0 0 0 0 0 0 0 0 0 0 0 0 0 0 0 0 0 0 0 0 0 0 0 0 0 0 0 0 0 0 0 0 0 0 0 0 0 0 0 0 0 0 0 0 0 0 0 82 66 87 121 152 193 170 164 139 182 150 184 172 190 171 180 185 164 194 140 196 135 197 154 200 168 201 160 165 167 164 181 158 185 135 187 146 175 153 164 173 175 203 218 220 220 169 222 175 233 203 236 244 233 255 237 244 244 228 228 206 177 196 207 191 169 204 194 187 200 206 158 180 212 188 125 202 196 176 202 207 145 160 196 181 150 191 198 140 172 191 176 143 176 179 125 161 175 167 134 167 160 133 125 139 128 115 101 128 115 126 96 101 67 89 92 96 85 114 114 211 179 190 155 214 179 211 172 220 152 216 171 210 199 208 214 209 218 206 219 203 214 145 152 161 166 183 169 187 131 181 133 152 143 149 177 122 195 205 196 217 206 213 212 222 215 234 234 237 243 232 229 228 223 202 165 179 162 175 188 159 189 200 183 186 169 164 187 194 177 173 170 178 170 196 188 147 164 166 160 136 183 181 145 174 157 161 140 172 164 113 151 151 156 128 160 138 135 119 127 116 116 84 122 91 124 84 98 92 98 81 104 79 147 152 227 209 194 198 227 224 220 223 238 228 244 222 245 231 245 237 239 232 215 220 174 212 151 174 178 94 184 140 178 131 160 78 104 98 133 154 137 155 149 176 164 180 164 188 144 141 185 177 190 167 115 179 125 168 170 140 167 179 163 164 183 174 178 167 148 162 144 174 167 151 169 148 135 140 167 141 125 138 128 102 123 140 124 98 141 123 119 114 136 120 103 127 102 82 96 118 65 104 95 100 69 85 84 72 61 97 71 68 89 79 104 95 102 140 160 232 220 188 221 232 234 223 233 226 231 237 216 241 226 239 234 230 227 209 194 177 182 166 165 159 136 164 130 147 122 127 116 111 108 45 120 47 144 119 153 107 160 75 172 113 104 181 156 165 166 183 173 173 162 169 148 168 186 172 165 171 164 134 149 128 137 143 142 147 125 136 127 123 120 133 111 91 52 112 106 106 105 48 67 99 91 40 17 71 79 56 63 88 66 89 63 89 3 88 72 9 77 44 34 57 57 32 21 54 46 83 73 113 108 142 221 201 203 197 232 201 222 199 213 206 204 194 190 148 184 189 173 186 166 123 159 127 136 121 86 88 130 99 67 88 91 104 111 101 75 76 97 119 113 158 144 172 145 126 167 105 182 166 153 183 170 151 174 122 151 153 147 151 132 124 128 86 88 70 87 94 67 81 86 47 85 17 72 84 37 56 54 10 47 44 56 28 48 53 58 12 47 60 64 35 49 27 64 46 45 40 73 55 39 47 38 64 5 61 21 55 35 5 18 58 92 77 119 35 129 198 153 194 178 207 159 196 165 205 145 205 170 191 182 173 190 149 171 157 104 111 119 112 91 133 87 81 1 43 71 78 111 92 107 95 110 110 150 159 183 177 177 168 168 168 109 160 155 134 122 121 129 124 118 128 128 100 77 90 78 58 57 33 91 67 38 73 83 53 71 72 52 67 79 44 64 61 66 49 28 34 49 40 71 60 52 16 69 35 36 55 40 42 40 59 45 29 52 67 3 64 26 42 37 58 27 77 44 26 25 80 8 106 102 101 169 165 174 169 183 169 170 171 196 187 203 197 197 193 185 193 174 178 142 127 118 132 100 65 112 95 64 76 57 94 105 105 50 110 110 123 131 158 167 180 175 160 145 158 128 72 104 127 111 104 76 35 64 69 65 78 66 41 37 40 62 31 32 67 57 52 52 50 41 33 39 28 30 32 45 62 43 41 18 24 9 29 57 53 42 42 8 48 10 18 45 34 39 47 26 8 19 60 50 38 51 2 28 23 50 39 69 51 12 10 25 36 55 71 68 137 122 138 115 150 113 120 128 151 152 162 163 160 171 154 171 138 151 117 112 114 111 70 55 65 92 53 56 24 78 82 60 44 93 105 83 109 137 135 137 139 101 90 102 51 83 72 72 66 62 58 2 40 17 54 59 13 37 33 10 50 21 16 16 30 37 36 17 15 27 33 23 1 10 11 14 4 21 19 0 32 9 46 12 25 28 18 33 21 33 23 0 17 20 37 33 6 35 12 14 19 23 1 21 28 28 25 30 11 14 13 40 32 58 49 109 101 103 79 114 94 95 63 92 16 90 111 72 121 109 111 117 91 58 84 96 39 28 2 43 29 30 5 32 53 30 40 31 79 70 63 39 123 84 84 104 92 61 71 50 45 66 48 61 14 18 48 53 22 40 15 18 31 26 11 24 13 10 23 30 9 9 13 20 19 16 32 17 20 3 9 6 20 13 20 12 13 30 32 15 15 22 38 18 6 9 5 5 6 5 33 10 14 18 17 22 1 1 11 7 11 15 27 12 21 3 8 35 20 33 90 68 74 67 110 68 85 66 82 104 98 102 111 75 91 50 49 72 70 44 55 49 17 9 4 5 29 5 13 42 7 54 41 78 39 9 15 115 76 80 89 94 16 96 29 53 46 44 48 37 23 4 29 12 27 15 26 13 7 0 5 7 7 18 17 8 3 0 24 13 33 3 6 10 4 3 23 16 11 4 8 13 7 25 6 11 7 38 38 22 7 24 18 0 6 7 1 7 26 13 7 19 17 18 2 5 24 29 21 29 23 14 23 12 12 56 34 66 57 92 21 42 59 61 68 66 84 75 77 45 37 56 34 47 33 0 22 29 31 7 10 6 2 21 13 13 40 16 71 6 34 44 93 45 78 79 100 76 92 67 72 85 61 77 58 46 47 14 44 12 14 33 21 11 24 6 7 6 9 2 22 5 0 19 17 22 2 21 6 5 2 19 17 2 4 4 0 2 11 0 14 13 19 24 13 15 15 9 8 1 1 12 11 27 14 4 0 23 14 1 12 16 18 38 26 29 35 15 35 19 66 86 87 30 81 10 44 2 69 74 67 81 46 63 31 49 46 37 18 19 13 29 24 31 17 20 13 20 12 37 38 32 48 38 33 30 38 52 44 49 66 95 45 55 90 80 98 88 70 83 17 74 31 26 48 36 27 26 12 22 15 34 10 3 0 16 17 8 0 6 11 9 20 2 2 12 1 28 6 11 0 4 3 5 8 14 10 2 3 2 2 24 3 15 9 15 6 17 9 9 0 4 13 16 5 20 13 0 35 0 56 7 37 21 14 67 70 68 21 81 55 87 79 64 38 70 38 75 72 72 88 73 86 91 82 82 69 67 51 29 66 50 56 26 16 8 33 0 9 36 30 39 48 23 68 61 79 75 71 45 26 84 71 62 59 42 78 2 2 51 46 39 64 50 55 17 27 13 9 18 33 7 20 10 18 16 26 22 27 2 1 24 35 21 34 9 4 22 1 7 8 6 2 1 1 13 34 25 9 6 22 4 26 1 11 18 9 12 4 9 29 35 3 21 32 57 23 16 12 29 48 29 51 7 54 60 83 78 13 48 67 56 72 70 82 83 87 98 101 109 100 93 85 52 42 72 71 53 36 33 38 31 56 51 39 35 56 60 72 90 73 91 85 82 82 61 71 50 70 34 27 73 25 5 44 42 42 69 73 63 24 19 40 1 32 51 30 16 10 10 17 31 38 35 28 18 31 34 30 46 13 13 21 14 7 2 14 4 5 5 10 37 16 4 10 2 5 26 3 17 16 2 0 24 2 34 34 1 1 29 43 0 15 10 46 68 22 65 44 44 36 17 68 29 55 45 24 41 36 36 13 63 79 41 81 67 70 56 0 54 49 58 19 31 16 28 16 57 36 3 37 44 38 60 82 32 71 54 59 38 20 45 19 57 34 20 46 31 12 22 29 4 34 48 21 34 22 41 9 3 26 14 6 8 3 19 17 27 7 18 12 19 29 16 27 26 3 16 26 11 15 11 1 5 11 10 28 35 10 24 4 11 12 19 18 9 6 3 39 10 11 19 0 13 21 41 6 41 17 45 82 4 84 46 88 72 90 57 60 31 49 60 39 28 10 40 21 41 50 46 43 38 30 35 59 15 56 8 34 11 1 4 40 17 23 11 3 21 18 42 15 40 14 40 50 53 82 67 54 52 38 49 26 11 6 27 14 36 15 17 9 19 29 14 10 21 8 3 13 1 13 21 5 21 5 19 2 19 17 3 26 24 13 28 15 34 29 19 0 9 16 3 39 14 27 19 9 26 26 11 6 8 2 36 12 5 10 8 9 44 31 2 44 29 39 84 39 92 41 105 82 110 55 98 90 101 59 72 41 27 63 25 48 53 50 40 13 25 18 54 47 54 2 31 26 1 15 28 31 20 6 22 3 20 17 19 0 17 37 32 18 70 71 56 69 42 47 28 43 23 12 19 43 20 0 9 3 17 39 11 30 7 1 5 3 10 31 3 7 18 20 4 1 19 8 18 35 19 17 3 29 6 28 24 4 21 19 8 13 13 24 12 26 23 13 14 6 10 17 24 6 1 7 9 25 20 18 30 20 39 84 57 94 40 102 77 119 62 107 87 112 103 94 74 76 84 82 85 88 28 56 73 25 61 30 59 45 5 35 33 37 14 16 30 52 32 25 5 28 15 23 23 9 28 26 32 12 20 6 37 41 4 50 54 32 18 6 19 31 11 26 15 5 39 16 28 10 2 2 2 7 26 4 21 25 8 24 5 3 7 20 37 13 6 10 39 29 18 38 3 30 34 10 19 2 14 29 2 10 7 23 11 10 26 36 15 7 9 3 12 2 7 32 24 45 86 57 85 69 99 69 124 81 116 69 123 72 94 83 89 95 99 100 92 78 92 108 74 93 70 8 46 39 46 27 58 20 17 34 53 4 3 9 35 15 29 4 30 25 12 23 14 0 13 3 1 2 28 37 22 1 21 16 12 6 25 16 15 27 11 16 13 7 9 5 8 21 20 13 2 21 23 1 3 0 4 22 32 18 23 8 33 14 15 10 34 3 5 10 0 15 19 7 8 2 21 8 2 9 17 0 8 11 1 32 3 30 11 17 29 81 12 56 52 96 52 114 61 113 70 124 83 113 94 66 102 70 99 70 111 75 114 102 84 34 50 3 39 38 33 52 48 41 45 20 26 48 26 26 28 28 15 31 25 13 18 20 31 10 20 14 4 18 33 2 4 21 20 0 4 22 4 5 19 6 3 6 18 15 9 5 5 33 17 12 21 16 15 0 12 10 15 31 23 18 10 8 6 8 0 21 8 0 7 11 26 4 7 7 8 12 4 7 20 1 7 3 3 1 25 4 16 6 18 22 65 63 34 20 82 73 93 62 90 60 99 64 106 26 57 88 46 86 75 110 90 95 104 81 42 42 33 21 64 51 53 27 44 48 21 31 51 37 6 41 3 16 7 25 3 17 30 33 19 20 4 9 24 34 8 12 7 13 2 15 9 3 7 1 10 0 1 9 2 0 7 1 24 11 5 15 4 8 0 5 2 7 21 5 3 10 11 7 6 6 0 1 0 7 11 19 1 4 0 23 1 18 3 26 2 2 12 10 0 2 20 7 4 0 4 13 56 24 15 60 52 59 54 66 41 53 78 41 69 0 75 28 76 83 86 98 60 79 45 35 10 50 44 76 31 49 31 34 60 29 42 33 44 21 15 19 10 8 7 3 10 16 10 18 15 5 6 11 20 20 6 0 6 5 23 9 16 0 14 20 2 5 5 9 10 12 0 6 14 2 8 9 9 17 1 4 0 18 0 5 2 10 19 11 8 10 5 6 10 17 4 0 3 14 28 7 24 7 10 3 1 2 15 7 10 20 26 4 8 8 15 29 31 5 44 12 31 35 47 19 31 51 37 53 29 58 40 57 78 66 55 76 21 7 15 26 50 49 59 37 42 46 29 41 39 26 18 42 28 0 6 11 9 7 1 1 5 5 13 14 3 7 2 19 20 8 0 0 1 18 16 30 9 10 18 4 3 14 14 1 3 6 15 7 11 0 10 14 26 5 5 3 8 5 16 7 3 18 7 2 9 4 12 13 4 2 4 5 12 20 12 15 12 5 12 6 5 1 5 6 5 34 6 15 8 2 25 31 12 26 11 15 17 24 12 2 28 9 32 1 22 1 23 29 12 3 31 3 6 23 3 18 23 25 17 8 5 12 4 12 4 1 19 16 13 3 4 7 4 1 0 18 3 1 0 3 12 10 9 16 3 11 11 2 3 20 24 6 2 19 1 11 16 3 2 13 6 16 10 16 10 6 16 11 7 15 0 11 22 15 17 5 6 1 9 4 2 0 6 6 8 2 12 3 24 16 1 11 2 5 20 13 6 0 0 27 8 22 12 2 7 20 13 17 21 13 9 12 25 14 13 6 5 16 4 8 8 4 2 10 1 1 4 0 11 17 13 5 7 21 13 20 7 2 1 1 1 2 12 10 3 0 13 1 2 9 18 0 8 4 4 7 12 0 0 19 25 20 1 0 20 17 2 9 18 6 9 12 15 4 9 2 14 14 15 18 23 7 3 10 18 2 17 13 7 18 13 11 10 26 3 12 12 24 4 9 20 15 23 23 3 13 6 3 6 23 1 2 8 17 9 14 16 16 4 14 30 1 10 21 8 9 4 14 22 29 9 6 13 4 11 8 5 4 10 3 4 2 0 4 6 23 7 16 26 5 14 14 0 16 10 7 2 0 15 5 3 24 1 3 17 7 13 11 18 10 7 17 15 5 30 20 17 15 2 17 12 13 9 4 17 3 13 23 9 2 2 4 18 6 12 11 9 1 18 22 15 19 0 10 11 2 9 6 32 6 13 3 14 21 12 22 6 30 8 1 4 12 17 19 21 13 6 24 8 5 16 14 17 1 22 26 0 4 21 21 16 27 8 8 31 27 4 9 15 16 10 5 5 2 1 9 7 7 0 1 12 8 14 10 11 9 14 7 22 21 0 13 11 13 5 0 25 11 11 21 4 8 0 13 4 19 7 14 5 16 1 6 17 7 16 20 15 11 7 13 6 19 17 14 6 10 4 14 13 2 0 18 6 15 32 15 15 0 18 6 3 0 5 26 1 5 0 5 8 13 16 1 20 3 7 3 23 24 24 17 18 24 27 2 14 14 6 3 18 35 27 2 9 29 13 2 34 37 22 16 29 29 27 14 28 17 1 4 0 9 6 15 18 6 3 1 5 5 12 2 4 9 1 5 12 3 10 9 21 8 30 12 10 4 15 0 5 12 5 1 29 6 6 5 26 2 0 8 4 5 20 0 6 10 10 11 16 10 25 11 16 5 4 9 13 12 22 3 2 15 11 4 3 13 5 4 6 5 22 16 3 1 3 7 8 6 3 2 11 19 2 23 18 9 24 13 34 22 3 2 4 12 12 31 35 21 15 1 27 25 29 3 52 43 33 33 54 33 16 26 18 4 14 0 14 2 9 15 4 7 1 4 9 6 6 1 4 5 5 0 7 19 10 53 65 54 53 21 26 10 28 6 10 22 6 33 7 18 16 13 0 3 3 1 13 11 1 4 6 2 4 2 6 20 9 11 2 5 11 10 21 16 4 5 2 18 6 9 5 4 0 21 20 7 23 14 5 1 19 0 2 13 7 7 16 6 7 7 16 13 6 36 9 4 15 4 20 24 40 26 1 14 16 22 42 44 21 42 53 44 45 39 37 24 30 18 26 19 7 6 24 9 14 4 5 2 21 23 9 8 7 0 5 1 4 31 47 51 80 91 40 29 51 75 48 48 36 29 34 17 35 2 9 30 2 7 22 17 3 23 25 2 1 1 1 2 6 1 15 9 2 8 3 11 7 8 24 5 3 14 7 3 8 4 3 12 22 16 14 26 4 12 5 12 1 10 28 7 14 21 0 1 5 18 1 3 23 2 7 11 23 15 27 43 26 13 22 38 37 43 50 43 29 46 20 29 40 34 16 55 0 46 43 30 9 43 20 20 10 0 0 28 35 21 23 12 9 0 14 16 32 41 51 79 76 74 65 75 77 58 49 59 64 31 32 46 14 6 31 0 14 32 22 2 9 25 1 1 11 8 11 11 9 12 1 10 17 7 2 1 3 17 16 14 30 13 6 20 7 12 16 13 17 13 26 9 11 17 4 15 33 6 29 14 22 8 14 5 11 6 8 9 5 1 25 37 6 18 25 30 8 30 40 40 32 56 43 30 27 24 49 58 24 14 51 22 40 47 40 15 45 13 7 2 2 10 15 26 10 12 4 10 13 23 17 0 15 9 74 75 66 62 75 29 37 35 37 60 41 11 42 37 21 9 13 28 19 7 12 3 5 11 21 7 14 21 12 25 19 18 20 23 15 14 0 2 11 21 20 30 15 6 26 15 1 31 15 15 4 2 17 0 28 0 18 19 5 39 20 2 11 24 16 14 16 18 4 6 8 22 20 25 18 11 19 3 30 23 34 10 55 24 9 26 16 34 30 22 5 29 17 11 34 11 29 6 22 36 24 11 27 5 19 4 9 8 2 14 16 4 15 15 29 65 76 68 26 70 42 5 20 13 16 38 11 33 27 4 27 18 24 18 9 23 18 22 36 16 26 20 14 10 30 35 11 27 13 31 1 1 17 16 20 8 6 4 13 8 1 11 37 30 13 13 5 12 14 14 5 13 21 18 25 23 9 10 2 27 5 5 12 11 17 11 2 20 40 41 1 6 21 41 5 22 34 38 38 1 9 21 19 11 33 33 7 25 40 43 34 22 29 13 31 39 5 35 13 27 8 3 23 9 16 8 10 9 48 50 59 76 65 52 45 36 37 40 36 17 27 20 39 9 15 33 0 4 22 25 25 8 13 29 37 47 38 5 6 36 24 7 0 12 39 13 17 25 3 25 2 12 0 0 2 27 6 14 28 14 26 3 5 6 8 2 4 22 2 5 8 18 4 7 40 8 0 0 14 7 8 17 20 31 39 7 9 26 42 23 20 24 2 54 22 6 26 28 30 29 41 34 39 47 23 49 12 25 9 22 42 3 38 31 36 8 5 13 24 7 7 13 20 43 39 53 69 41 52 59 27 19 47 50 29 17 21 29 13 15 24 4 2 23 20 28 45 9 15 41 38 35 9 8 37 26 18 13 10 15 5 16 20 26 18 22 16 22 3 21 31 3 29 29 15 37 15 6 1 5 18 7 2 17 0 36 22 4 9 36 19 6 14 39 15 17 19 9 36 24 19 21 4 31 30 0 6 6 59 30 29 8 45 33 0 25 39 35 40 38 29 12 11 21 8 44 4 25 28 42 19 8 9 20 18 29 17 15 23 17 29 38 33 37 24 45 42 70 59 41 21 34 18 1 24 25 5 6 5 4 20 39 7 14 25 17 21 7 3 32 23 5 6 29 18 28 1 15 22 10 23 16 23 15 23 24 25 26 26 15 32 4 24 0 7 21 1 7 19 29 27 4 11 21 19 19 28 42 32 9 21 10 4 50 11 33 15 33 28 26 18 31 21 52 36 45 30 50 22 23 26 36 15 4 11 24 20 22 23 17 42 2 26 16 34 29 9 10 32 23 32 5 4 15 18 2 11 17 60 29 46 75 73 63 22 29 42 24 26 15 16 5 21 10 25 18 13 14 8 13 15 1 15 11 23 13 10 26 19 28 8 5 16 5 27 0 3 9 18 5 17 6 24 4 8 14 11 15 21 27 6 5 31 11 9 7 21 26 18 20 2 9 46 8 13 19 1 44 57 35 38 10 39 40 7 52 52 28 44 32 38 22 54 10 32 1 20 21 36 7 17 34 17 40 30 14 20 23 36 25 34 22 5 34 25 34 10 16 22 5 9 25 36 48 10 48 70 54 53 51 32 13 17 48 12 2 14 33 8 29 17 11 23 14 40 26 14 36 31 22 6 13 16 9 21 13 44 9 8 30 8 33 2 3 8 22 33 44 14 16 18 16 30 46 35 37 34 41 21 34 36 31 36 19 19 16 29 28 13 36 20 4 52 52 44 17 2 23 51 45 44 51 19 44 14 20 24 31 31 11 16 18 1 42 18 17 37 28 37 9 12 7 4 26 10 3 31 11 22 18 24 13 3 26 16 26 40 23 2 37 5 47 42 46 49 29 30 3 34 9 8 17 37 16 28 20 24 15 4 35 28 28 34 37 27 21 19 10 10 2 17 44 6 14 24 16 49 20 9 2 38 42 45 10 23 27 24 35 28 1 36 43 12 7 32 30 37 38 22 42 30 28 28 13 48 22 2 36 22 18 1 17 11 37 44 37 37 29 36 21 21 23 13 6 3 22 27 2 25 21 11 26 22 32 2 3 18 4 15 8 34 17 19 6 1 0 13 6 23 26 41 28 22 0 7 28 12 31 16 9 12 31 9 1 24 19 8 28 11 19 13 41 9 10 11 22 16 3 14 13 41 20 4 28 6 12 22 5 16 7 23 33 13 8 19 39 18 26 18 35 7 15 23 1 24 3 29 17 19 4 16 6 21 21 23 3 2 33 33 21 21 24 33 2 19 36 46 13 23 38 31 30 39 32 28 29 7 11 5 24 16 34 24 2 32 26 9 20 25 6 1 32 4 13 4 50 8 17 16 10 3 17 13 10 2 31 17 8 27 23 9 11 14 15 10 23 26 4 26 10 20 0 24 23 3 11 36 8 3 10 5 6 6 10 25 26 25 3 33 6 7 13 15 8 17 23 1 3 4 24 43 8 12 40 1 23 7 25 6 4 28 25 19 32 29 2 16 4 0 32 24 12 11 32 14 8 28 31 17 18 40 42 8 2 36 40 38 42 7 3 21 35 11 13 38 16 19 20 11 32 33 2 30 12 17 24 30 1 21 26 48 2 18 17 20 10 8 21 3 14 19 24 6 31 25 24 10 7 12 29 27 25 8 31 1 24 9 21 28 5 2 18 8 18 5 4 10 19 4 5 14 28 26 15 18 2 11 11 13 22 21 19 10 10 25 38 11 9 18 24 25 0 26 7 6 31 34 19 13 31 3 23 4 31 27 28 9 2 33 7 12 39 0 9 21 27 31 16 0 7 32 20 49 22 22 29 55 26 12 46 21 3 3 33 31 33 7 13 0 24 18 9 19 26 29 44 18 26 2 3 29 0 18 22 11 26 16 7 26 22 25 7 24 5 46 13 13 18 30 3 30 31 30 22 23 4 9 9 29 40 4 25 13 20 14 30 20 20 22 39 3 25 19 18 2 40 25 1 19 21 16 0 35 15 21 21 8 23 25 16 25 29 17 28 3 2 34 22 23 12 34 8 22 35 3 13 26 46 11 6 38 32 11 10 12 24 6 36 44 21 40 58 26 25 58 36 19 4 16 41 24 36 26 12 19 5 23 0 8 30 45 33 21 40 9 46 23 12 46 34 34 47 34 24 29 39 30 28 14 59 3 0 23 30 19 30 40 34 7 25 26 27 37 50 58 18 44 35 8 2 19 4 24 40 41 1 31 49 34 25 40 18 9 25 33 2 3 38 38 11 41 27 37 36 14 47 14 19 44 33 28 31 24 5 38 28 19 46 7 7 16 15 53 36 11 41 40 16 12 17 22 4 37 64 32 21 63 21 23 57 44 36 17 3 52 17 41 40 23 14 17 9 31 39 18 41 33 25 50 11 29 56 21 33 23 50 46 16 27 29 32 25 6 28 61 32 30 23 14 1 3 28 34 23 14 27 50 41 49 56 11 38 16 45 20 12 24 14 42 32 2 25 51 13 15 40 7 35 33 16 1 23 20 49 26 30 32 35 17 16 60 28 33 27 43 41 3 49 11 40 24 22 36 40 15 3 58 73 21 38 46 62 24 21 24 32 26 47 70 43 7 67 8 39 8 14 51 38 2 55 57 27 45 36 23 21 49 5 2 31 43 21 15 55 11 45 58 50 32 40 62 31 32 44 53 37 54 22 15 51 44 40 46 52 40 39 41 59 26 48 41 60 16 41 47 38 1 19 61 51 43 41 34 58 10 21 36 64 40 15 27 8 49 35 35 33 13 23 51 43 47 45 28 16 42 59 45 58 56 69 29 33 46 30 14 59 34 22 55 28 16 55 84 50 36 41 67 33 56 37 47 39 43 43 31 44 70 24 0 57 36 33 55 34 39 51 37 28 48 6 25 61 14 40 39 47 42 57 41 10 75 61 70 29 59 76 31 39 40 23 71 63 20 27 51 51 31 60 57 34 54 40 77 74 43 58 58 20 36 57 13 20 17 64 72 36 61 22 56 12 28 34 76 60 2 22 55 1 63 27 60 32 41 52 31 69 52 38 8 58 39 42 56 68 69 34 47 47 19 62 74 25 59 61 34 29 37 67 15 28 20 43 62 66 15 73 72 70 57 30 52 72 48 33 76 63 56 45 43 36 13 18 38 46 7 46 44 20 9 41 58 35 35 63 25 75 19 75 46 11 71 19 11 44 55 71 59 25 6 52 27 39 71 54 31 56 34 80 78 34 60 38 39 48 65 0 43 45 53 73 63 79 63 38 54 17 38 68 56 35 33 62 65 48 43 76 51 48 83 3 48 58 39 28 5 40 24 23 44 50 61 33 77 29 76 52 45 36 68 28 25 38 69 35 10 26 23 73 26 72 29 89 73 60 28 12 55 70 17 71 70 45 51 42 53 10 45 41 44 35 22 37 34 58 72 60 36 58 53 41 46 8 73 55 53 60 56 30 63 52 62 41 14 41 31 27 45 77 45 24 43 55 52 57 35 60 6 37 66 54 14 21 6 45 53 51 78 65 33 65 40 18 42 47 28 11 17 65 32 12 80 31 35 86 55 13 50 30 32 57 55 54 34 48 53 71 52 60 25 67 59 52 40 35 52 18 52 49 8 21 57 41 67 33 44 86 78 46 62 22 34 39 85 23 59 45 23 52 62 35 17 52 55 17 47 52 45 37 62 70 37 43 41 17 13 5 55 60 58 65 70 28 37 50 22 34 35 28 46 43 25 27 75 22 22 62 58 27 50 42 37 15 49 65 22 25 37 11 29 52 15 74 56 34 31 37 35 3 37 30 20 25 65 21 15 70 34 48 49 36 8 0 10 10 60 47 37 39 29 47 74 57 32 14 50 54 35 63 12 58 40 58 54 30 40 65 50 62 15 59 76 38 35 62 53 26 41 81 57 54 3 9 40 25 34 26 19 51 33 18 59 14 26 51 65 16 56 29 23 14 28 36 30 49 53 40 24 31 15 42 19 35 9 11 53 50 3 59 48 47 56 46 35 59 27 17 39 59 45 33 9 54 10 41 50 21 62 22 40 45 56 1 13 30 37 57 23 65 47 40 50 52 61 51 14 57 29 33 18 55 52 14 21 38 9 67 49 49 39 19 25 27 56 43 46 54 58 46 18 23 40 21 36 47 47 32 20 40 28 44 51 32 45 50 34 12 23 34 4 18 2 16 38 14 47 35 9 7 24 47 26 45 31 53 38 26 14 29 3 16 43 19 23 30 48 38 33 28 3 32 44 32 30 51 49 25 25 16 52 17 13 36 29 9 42 48 30 13 35 11 36 9 36 45 41 46 3 2 34 34 51 10 52 39 44 36 52 55 49 47 62 17 24 26 40 50 28 18 20 31 53 14 32 50 45 57 40 39 57 12 28 36 10 29 24 5 46 30 33 16 21 35 11 16 11 22 21 43 43 2 23 37 18 23 10 17 14 31 11 37 36 7 2 6 33 3 36 0 47 45 25 23 33 34 44 46 34 29 48 29 43 25 28 13 20 37 30 34 6 6 2 5 25 45 2 3 9 0 4 22 46 32 22 15 29 33 16 8 33 21 33 19 6 23 22 32 23 31 26 29 30 40 51 19 44 47 3 22 24 16 40 28 27 30 38 40 9 24 41 38 30 24 4 43 26 50 12 21 33 34 8 22 32 9 3 10 26 2 20 17 2 12 56 18 1 13 24 12 25 13 5 4 15 0 12 19 18 4 6 24 32 10 20 7 16 34 27 7 17 29 25 12 28 40 12 24 2 10 9 0 32 13 29 9 11 4 2 22 29 14 2 16 3 5 23 17 26 15 15 34 27 12 13 3 6 11 34 1 11 3 10 12 25 21 20 19 5 35 21 11 24 3 20 20 11 15 28 18 31 11 13 16 30 18 29 9 6 5 25 19 26 10 1 23 21 16 18 9 15 15 11 15 33 10 21 1 4 36 18 5 3 2 13 18 6 3 0 17 6 6 12 12 12 19 3 11 17 8 0 17 7 11 14 6 31 10 6 15 22 14 5 3 5 23 1 5 3 21 7 15 11 7 2 10 12 8 9 2 12 18 2 7 11 6 14 8 4 3 6 3 16 26 8 7 0 6 10 14 9 7 13 3 14 1 3 11 11 17 4 19 3 0 2 4 31 20 11 6 16 12 0 3 3 22 3 0 14 5 20 13 8 21 12 8 16 24 29 30 12 7 6 33 28 6 8 4 4 13 30 7 7 5 6 5 8 2 1 21 15 24 5 17 3 2 20 8 10 0 2 28 4 15 15 16 18 28 0 6 18 16 15 29 23 1 15 18 4 11 34 18 0 9 6 9 18 18 25 0 11 6 17 5 26 22 28 18 25 11 4 2 17 28 11 11 4 18 0 9 4 24 30 5 1 13 10 12 16 5 3 23 2 27 4 11 4 18 17 8 9 15 5 32 18 12 7 6 25 7 31 15 21 20 28 5 6 3 22 51 7 2 15 11 0 38 12 1 6 24 13 21 8 1 20 2 40 3 29 6 16 21 9 10 24 9 20 9 22 11 19 17 31 6 23 24 26 12 42 33 15 18 14 1 24 40 24 21 30 12 24 20 30 13 3 16 30 25 20 22 2 34 13 18 19 13 3 10 21 5 4 4 31 1 0 21 27 34 0 15 15 1 1 16 29 29 10 9 22 17 6 37 20 20 32 15 33 4 24 18 1 9 12 29 11 39 9 29 22 24 13 3 19 9 38 25 3 5 30 16 30 15 18 27 21 5 14 3 4 9 8 29 17 20 6 19 11 7 3 18 5 10 0 17 13 6 7 21 5 19 16 27 2 20 18 29 19 7 4 16 7 8 24 22 5 24 1 24 0 2 25 38 22 19 8 16 13 23 7 2 26 12 15 16 17 16 26 26 14 14 17 25 35 0 20 5 20 18 18 28 36 21 10 19 13 2 36 22 1 39 37 34 20 13 2 16 11 10 22 9 3 25 35 13 0 0 12 28 36 18 23 3 0 21 4 13 1 24 15 3 11 8 1 2 1 5 8 10 2 14 15 0 6 16 11 24 15 15 2 16 3 12 11 6 3 6 14 6 6 3 8 10 2 7 1 0 0 11 14 6 1 24 15 0 0 30 14 18 7 10 10 3 26 9 0 29 29 12 6 12 22 26 6 22 3 10 21 30 1 8 17 20 11 11 15 30 21 8 8 5 20 14 2 26 9 23 3 19 19 7 24 10 23 24 34 9 16 41 15 34 12 23 20 30 18 28 5 1 0 2 12 16 15 6 8 6 20 4 3 12 6 6 1 1 20 10 3 2 15 24 26 31 0 30 1 3 15 8 9 12 16 15 12 6 3 11 16 10 13 3 20 21 4 15 14 19 34 14 2 9 31 3 7 7 19 5 15 33 18 4 20 25 19 38 20 24 7 0 22 19 13 31 12 6 16 16 5 5 11 22 28 7 13 10 34 5 10 9 30 16 33 9 25 14 27 10 15 15 14 35 5 2 33 39 24 17 22 7 4 28 22 8 8 7 0 0 19 10 14 9 3 19 12 13 18 8 6 4 0 17 0 3 7 0 23 17 26 21 45 20 1 9 11 15 18 22 20 13 8 8 17 11 20 6 1 19 19 6 7 17 16 11 5 0 9 28 0 11 13 24 12 14 20 10 2 5 8 5 31 6 24 0 2 9 17 1 35 3 16 22 5 8 1 6 26 16 2 10 3 31 7 18 8 21 17 12 3 20 0 21 4 11 1 6 21 7 10 29 32 17 4 7 18 0 2 8 6 2 1 2 4 3 0 13 3 6 1 0 7 16 4 2 10 3 1 3 3 4 6 11 11 11 6 25 6 2 8 8 6 12 12 7 3 13 3 7 1 11 1 0 5 7 4 3 2 0 10 14 5 5 12 6 8 7 14 2 1 3 1 1 0 5 2 7 7 9 0 10 8 5 0 6 3 4 8 0 3 1 17 10 3 5 4 4 9 2 15 4 7 9 1 13 2 3 2 9 5 3 11 10 0 5 15 13 6 0 2 8 1 5 6 1 0 4 2 1 0 1 5 0 4 1 0 4 0 0 3 12 2 2 2 1 5 1 4 6 6 6 2 1 0 6 3 0 0 1 6 1 12 0 0 3 1 1 1 2 3 3 6 5 0 13 8 2 8 14 7 3 3 0 4 0 1 3 1 0 1 0 16 2 0 0 10 3 1 10 8 6 3 4 3 1 0 4 4 7 8 2 5 1 0 11 3 7 8 3 2 0 0 1 7 0 1 6 3 1 1 4 7 6 5 0 0 0 3 2 0 0 5 3 0 0 2 1 0 0 0 3 2 2 1 2 6 0 1 2 2 2 0 2 2 1 5 4 0 0 2 0 2 1 3 3 4 5 0 0 0 0 1 0 3 1 2 2 6 0 9 0 3 2 4 3 1 0 2 2 0 2 0 1 0 0 1 7 3 0 0 4 2 0 5 8 0 3 2 2 0 0 0 3 12 6 0 3 1 1 13 5 5 3 0 1 4 0 2 1 0 0 0 3 0 0 1 0 1 2 0 0 2 1 0 0 0 1 0 0 0 2 0 0 0 0 2 0 0 0 0 0 0 0 0 1 1 0 2 0 1 0 1 0 2 1 0 1 0 0 0 0 1 0 0 0 0 0 1 0 0 1 1 1 0 2 0 0 0 0 2 0 0 0 0 1 0 0 0 0 0 0 1 1 0 0 1 1 0 0 0 0 0 0 0 0 0 0 2 6 1 0 0 0 0 6 2 3 0 1 1 2 0 2 0 0 0 0 1 1 1 0 0 0 1 2 0 1 1 0 0 0 0 0 0 0 1 0 0 0 0 0 0 0 0 1 0 0 0 0 0 0 0 1 1 0 0 0 0 0 0 0 1 0 0 0 0 0 0 0 0 0 0 0 0 0 1 0 0 0 0 0 0 1 0 1 0 1 0 0 1 1 0 0 0 0 0 1 1 0 0 0 1 0 0 0 0 0 0 1 0 0 0 2 2 0 0 0 0 0 0 0 2 0 2 0 0 0 1 1 0 1 0 0 0 1 0 0 0 0 1 1 0 0 0 0 0 0 0 0 0 0 0 0 0 0 0 0 0 0 1 0 0 0 0 0 0 0 1 0 0 0 0 0 0 0 0 0 0 0 0 0 0 0 0 0 0 0 0 0 0 0 0 1 0 1 0 0 1 0 1 0 2 0 0 1 1 0 0 0 0 0 0 0 0 0 0 1 0 1 0 0 0 0 1 0 0 0 0 0 0 0 0 0 0 0 1 1 0 1 0 0 0 0 0 0 0 0 0 0 1 0 0 0 0 0 0 0 0 0 0 0 0 0 0 0 0 0 0 0 0 0 0 0 0 0 0 0 0 0 0 0 0 0 0 0 0 0 0 0 0 0 0 0 0 0 0 0 0 0 0 0 0 0 0 0 0 0 0 0 0 0 0 0 0 0 0 0 0 0 0 0 0 0 0 0 0 0 0 0 1 0 0 0 0 0 0 0 0 0 0 0 0 0 0 0 0 0 0 0 0 0 0 0 0 1 0 0 0 0 1 0 0 0 1 1 0 0 0 0 0 0 0 0 0 0 0 0 0 0 0 0 0 0 0 0 0 0 0 0 0 0 0 0 0 0 0 0 0 0 0 0 0 0 0 0 0 0 0 0 0 0 0 0 0 0 0 0 0 0 0 0 0 0 0 0 0 0 0 0 0 0 0 0 0 0 0 0 0 0 0 0 0 0 0 0 0 0 0 0 0 0 0 0 0 0 0 0 0 0 0 0 0 0 0 0 0 0 0 0 1 0 0 0 0 0 0 0 0 1 1 0 0 0 0 0 0 0 0 0 0 0 0 0 0 0 0 0 0 0 0 0 0 0 0 0 0 0 0 0 0 0 0 0 0 0 0 0 0 0 0 0 0 0 0 0 0 0 0 0 0 0 0 0 0 0 0 1 0 0 0 0 0 0 0 0 0 0 0 0 0 0 0 0 0 0 0 0 0 0 0 0 0 0 0 0 0 0 0 0 0 0 0 0 0 0 0 0 0 0 0 0 0 0 0 0 0 0 0 0 0 0 0 1 1 0 0 0 0 0 0 0 0 0 0 0 0 0 0 0 0 0 0 0 0 0 0 0 0 0 0 0 0 0 0 0 0 0 0 0 0 0 0 0 0 0 0 0 0 0 0 0 0 0 0 0 0 0 0 0 0 0 0 0 0 0 0 0 0 0 0 0 1 0 0 0 0 0 0 0 0 0 0 0 0 0 0 0 0 0 0 0 0 0 0 0 0 0 0 0 0 0 0 0 0 0 0 0 0 0 0 0 0 0 0 1 0 0 0 2 0 0 0 0 0 0 0 1 0 0 0 0 0 0 0 0 0 0 0 0 0 0 0 0 0 0 0 0 0 0 0 0 0 0 0 0 0 0 0 0 0 0 0 0 0 0 0 0 0 0 1 0 0 0 0 0 0 0 0 0 0 0 0 0 0 0 0 0 0 0 0 0 0 0 0 0 0 0 0 0 0 0 0 0 0 0 0 0 0 0 0 0 0 0 0 1 0 0 0 0 0 0 0 0 0 0 0 0 0 0 0 0 0 0 1 0 0 0 0 0 0 0 0 1 0 0 0 0 0 0 0 0 0 0 0 0 0 0 0 0 0 0 0 0 0 0 0 0 0 0 0 0 0 0 0 0 0 0 0 0 0 0 0 0 0 1 0 0 0 0 0 0 0 0 0 0 0 0 0 0 0 0 0 0 0 0 0 0 0 0 0 0 0 0 0 0 0 0 0 0 0 0 0 0 0 0 0 0 0 0 0 0 0 0 0 0 0 0 0 0 0 0 0 0 0 0 0 0 0 0 0 0 0 0 0 0 0 0 0 0 0 0 0 0 0 0 0 0 0 0 0 0 0 0 0 0 0 0 0 0 0 0 0 0 0 0 0 0 0 0 0 0 0 0 0 0 0 0 0 0 0 0 0 0 0 0 0 0 0 0 0 0 0 0 0 0 0 0 0 0 0 0 0 0 0 0 0 0 0 0 0 0 0 0 0 0 0 0 0 0 0 0 0 0 0 0 0 0 0 0 0 0 0 0 0 0 0 0 0 0 0 0 0 0 0 0 0 0 0 0 0 0 0 0 0 0 0 0 0 0 0 0 0 0 0 0 0 0 0 0 0 0 0 0 0 0 0 0 0 0 0 0 0 0 0 0 0 0 0 0 0 0 0 0 0 0 0 0 0 0 0 0 0 0 0 0 0 0 0 0 0 0 0 0 0 0 0 0 0 0 0 0 0 0 0 0 0 0 0 0 0 0 0 0 0 0 0 0 0 0 0 0 0 0 0 0 0 0 0 0 0 0 0 0 0 0 0 0 0 0 0 0 0 0 0 0 0 0 0 0 0 0 0 0 0 0 0 0 0 0 0 0 0 0 0 0 0 0 0 0 0 0 0 0 0 0 0 0 0 0 0 0 0 0 0 0 0 0 0 0 0 0 0 0 0 0 0 0 0 0 0 0 0 0 0 0 0 0 0 0 0 0 0 0 0 0 0 0 0 0 0 0 0 0 0 0 0 0 0 0 0 0 0 0 0 0 0 0 0 0 0 0 0 0 0 0 0 0 0 0 0 0 0 0 0 0 0 0 0 0 0 0 0 0 0 0 0 0 0 0 0 0 0 0 0 0 0 0 0 0 0 0 0 0 0 0 0 0 0 0 0 0 0 0 0 0 0 0 0 0 0 0 0 0 0 0 0 0 0 0 0 0 0 0 0 0 0 0 0 0 0 0 0 0 0 0 0 0 0 0 0 0 0 0 0 0 0 0 0 0 0 0 0 0 0 0 0 0 0 0 0 0 0 0 0 0 0 0 0 0 0 0 0 0 0 0 0 0 0 0 0 0 0 0 0 0 0 0 0 0 0 0 0 0 0 0 0 0 0 0 0 0 0 0 0 0 0 0 0 0 0 0 0 0 0 0 0 0 0 0 0 0 0 0 0 0 0 0 0 0 0 0 0 0 0 0 0 0 0 0 0 0 0 0 0 0 0 0 0 0 0 0 0 0 0 0 0 0 0 0 0 0 0 0 0 0 0 0 0 0 0 0 0 0 0 0 0 0 0 0 0 0 0 0 0 0 0 0 0 0 0 0 0 0 0 0 0 0 0 0 0 0 0 0 0 0 0 0 0 0 0 0 0 0 0 0 0 0 0 0 0 0 0 0 0 0 0 0 0 0 0 0 0 0 0 0 0 0 0 0 0 0 0 0 0 0 0 0 0 0 0 0 0 0 0 0 0 0 0 0 0 0 0 0 0 0 0 0 0 0 0 0 0 0 0 0 0 0 0 0 0 0 0 0 0 0 0 0 0 0 0 0 0 0 0 0 0 0 0 0 0 0 0 0 0 0 0 0 0 0 0 0 0 0 0 0 0 0 0 0 0 0 0 0 0 0 0 0 0 0 0 0 0 0 0 0 0 0 0 0 0 0 0 0 0 0 0 0 0 0 0 0 0 0 0 0 0 0 0 0 0 0 0 0 0 0 0 0 0 0 0 0 0 0 0 0 0 0 0 0 0 0 0 0 0 0 0 0 0 0 0 0 0 0 0 0 0 0 0 0 0 0 0 0 0 0 0 0 0 0 0 0 0 0 0 0 0 0 0 0 0 0 0 0 0 0 0 0 0 0 0 0 0 0 0 0 0 0 0 0 0 0 0 0 0 0 0 0 0 0 0 0 0 0 0 0 0 0 0 0 0 0 0 0 0 0 0 0 0 0 0 0 0 0 0 0 0 0 0 0 0 0 0 0 0 0 0 0 0 0 0 0 0 0 0 0 0 0 0 0 0 0 0 0 0 0 0 0 0 0 0 0 0 0 0 0 0 0 0 0 0 0 0 0 0 0 0 0 0 0 0 0 0 0 0 0 0 0 0 0 0 0 0 0 0 0 0 0 0 0 0 0 0 0 0 0 0 0 0 0 0 0 0 0 0 0 0 0 0 0 0 0 0 0 0 0 0 0 0 0 0 0 0 0 0 0 0 0 0 0 0 0 0 0 0 0 0 0 0 0 0 0 0 0 0 0 0 0 0 0 0 0 0 0 0 0 0 0 0 0 0 0 0 0 0 0 0 0 0 0 0 0 0 0 0 0 0 0 0 0 0 0 0 0 0 0 0 0 0 0 0 0 0 0 0 0 0 0 0 0 0 0 0 0 0 0 0 0 0 0 0 0 0 0 0 0 0 0 0 0 0 0 0 0 0 0 0 0 0 0 0 0 0 0 0 0 0 0 0 0 0 0 0 0 0 0 0 0 0 0 0 0 0 0 0 0 0 0 0 0 0 0 0 0 0 0 0 0 0 0 0 0 0 0 0 0 0 0 0 0 0 0 0 0 0 0 0 0 0 0 0 0 0 0 0 0 0 0 0 0 0 0 0 0 0 0 0 0 0 0 0 0 0 0 0 0 0 0 0 0 0 0 0 0 0 0 0 0 0 0 0 0 0 0 0 0 0 0 0 0 0 0 0 0 0 0 0 0 0 0 0 0 0 0 0 0 0 0 0 0 0 0 0 0 0 0 0 0 0 0 0 0 0 0 0 0 0 0 0 0 0 0 0 0 0 0 0 0 0 0 0 0 0 0 0 0 0 0 0 0 0 0 0 0 0 0 0 0 0 0 0 0 0 0 0 0 0 0 0 0 0 0 0 0 0 0 0 0 0 0 0 0 0 0 0 0 0 0 0 0 0 0 0 0 0 0 0 0 0 0 0 0 0 0 0 0 0 0 0 0 0 0 0 0 0 0 0 0 0 0 0 0 0 0 0 0 0 0 0 0 0 0 0 0 0 0 0 0 0 0 0 0 0 0 0 0 0 0 0 0 0 0 0 0 0 0 0 0 0 0 0 0 0 0 0 0 0 0 0 0 0 0 0 0 0 0 0 0 0 0 0 0 0 0 0 0 0 0 0 0 0 0 0 0 0 0 0 0 0 0 0 0 0 0 0 0 0 0 0 0 0 0 0 0 0 0 0 0 0 0 0 0 0 0 0 0 0 0 0 0 0 0 0 0 0 0 0 0 0 0 0 0 0 0 0 0 0 0 0 0 0 0 0 0 0 0 0 0 0 0 0 0 0 0 0 0 0 0 0 0 0 0 0 0 0 0 0 0 0 0 0 0 0 0 0 0 0 0 0 0 0 0 0 0 0 0 0 0 0 0 0 0 0 0 0 0 0 0 0 0 0 0 0 0 0 0 0 0 0 0 0 0 0 0 0 0 0 0 0 0 0 0 0 0 0 0 0 0 0 0 0 0 0 0 0 0 0 0 0 0 0 0 0 0 0 0 0 0 0 0 0 0 0 0 0 0 0 0 0 0 0 0 0 0 0 0 0 0 0 0 0 0 0 0 0 0 0 0 0 0 0 0 0 0 0 0 0 0 0 0 0 0 0 0 0 0 0 0 0 0 0 0 0 0 0 0 0 0 0 0 0 0 0 0 0 0 0 0 0 0 0 0 0 0 0 0 0 0 0 0 0 0 0 0 0 0 0 0 0 0 0 0 0 0 0 0 0 0 0 0 0 0 0 0 0 0 0 0 0 0 0 0 0 0 0 0 0 0 0 0 0 0 0 0 0 0 0 0 0 0 0 0 0 0 0 0 0 0 0 0 0 0 0 0 0 0 0 0 0 0 0 0 0 0 0 0 0 0 0 0 0 0 0 0 0 0 0 0 0 0 0 0 0 0 0 0 0 0 0 0 0 0 0 0 0 0 0 0 0 0 0 0 0 0 0 0 0 0 0 0 0 0 0 0 0 0 0 0 0 0 0 0 0 0 0 0 0 0 0 0 0 0 0 0 0 0 0 0 0 0 0 0 0 0 0 0 0 0 0 0 0 0 0 0 0 0 0 0 0 0 0 0 0 0 0 0 0 0 0 0 0 0 0 0 0 0 0 0 0 0 0 0 0 0 0 0 0 0 0 0 0 0 0 0 0 0 0 0 0 0 0 0 0 0 0 0 0 0 0 0 0 0 0 0 0 0 0 0 0 0 0 0 0 0 0 0 0 0 0 0 0 0 0 0 0 0 0 0 0 0 0 0 0 0 0 0 0 0 0 0 0 0 0 0 0 0 0 0 0 0 0 0 0 0 0 0 0 0 0 0 0 0 0 0 0 0 0 0 0 0 0 0 0 0 0 0 0 0 0 0 0 0 0 0 0 0 0 0 0 0 0 0 0 0 0 0 0 0 0 0 0 0 0 0 0 0 0 0 0 0 0 0 0 0 0 0 0 0 0 0 0 0 0 0 0 0 0 0 0 0 0 0 0 0 0 0 0 0 0 0 0 0 0 0 0 0 0 0 0 0 0 0 0 0 0 0 0 0 0 0 0 0 0 0 0 0 0 0 0 0 0 0 0 0 0 0 0 0 0 0 0 0 0 0 0 0 0 0 0 0 0 0 0 0 0 0 0 0 0 0 0 0 0 0 0 0 0 0 0 0 0 0 0 0 0 0 0 0 0 0 0 0 0 0 0 0 0 0 0 0 0 0 0 0 0 0 0 0 0 0 0 0 0 0 0 0 0 0 0 0 0 0 0 0 0 0 0 0 0 0 0 0 0 0 0 0 0 0 0 0 0 0 0 0 0 0 0 0 0 0 0 0 0 0 0 0 0 0 0 0 0 0 0 0 0 0 0 0 0 0 0 0 0 0 0 0 0 0 0 0 0 0 0 0 0 0 0 0 0 0 0 0 0 0 0 0 0 0 0 0 0 0 0 0 0 0 0 0 0 0 0 0 0 0 0 0 0 0 0 0 0 0 0 0 0 0 0 0 0 0 0 0 0 0 0 0 0 0 0 0 0 0 0 0 0 0 0 0 0 0 0 0 0 0 0 0 0 0 0 0 0 0 0 0 0 0 0 0 0 0 0 0 0 0 0 0 0 0 0 0 0 0 0 0 0 0 0 0 0 0 0 0 0 0 0 0 0 0 0 0 0 0 0 0 0 0 0 0 0 0 0 0 0 0 0 0 0 0 0 0 0 0 0 0 0 0 0 0 0 0 0 0 0 0 0 0 0 0 0 0 0 0 0 0 0 0 0 0 0 0 0 0 0 0 0 0 0 0 0 0 0 0 0 0 0 0 0 0 0 0 0 0 0 0 0 0 0 0 0 0 0 0 0 0 0 0 0 0 0 0 0 0 0 0 0 0 0 0 0 0 0 0 0 0 0 0 0 0 0 0 0 0 0 0 0 0 0 0 0 0 0 0 0 0 0 0 0 0 0 0 0 0 0 0 0 0 0 0 0 0 0 0 0 0 0 0 0 0 0 0 0 0 0 0 0 0 0 0 0 0 0 0 0 0 0 0 0 0 0 0 0 0 0 0 0 0 0 0 0 0 0 0 0 0 0 0 0 0 0 0 0 0 0 0 0 0 0 0 0 0 0 0 0 0 0 0 0 0 0 0 0 0 0 0 0 0 0 0 0 0 0 0 0 0 0 0 0 0 0 0 0 0 0 0 0 0 0 0 0 0 0 0 0 0 0 0 0 0 0 0 0 0 0 0 0 0 0 0 0 0 0 0 0 0 0 0 0 0 0 0 0 0 0 0 0 0 0 0 0 0 0 0 0 0 0 0 0 0 0 0 0 0 0 0 0 0 0 0 0 0 0 0 0 0 0 0 0 0 0 0 0 0 0 0 0 0 0 0 0 0 0 0 0 0 0 0 0 0 0 0 0 0 0 0 0 0 0 0 0 0 0 0 0 0 0 0 0 0 0 0 0 0 0 0 0 0 0 0 0 0 0 0 0 0 0 0 0 0 0 0 0 0 0 0 0 0 0 0 0 0 0 0 0 0 0 0 0 0 0 0 0 0 0 0 0 0 0 0 0 0 0 0 0 0 0 0 0 0 0 0 0 0 0 0 0 0 0 0 0 0 0 0 0 0 0 0 0 0 0 0 0 0 0 0 0 0 0 0 0 0 0 0 0 0 0 0 0 0 0 0 0 0 0 0 0 0 0 0 0 0 0 0 0 0 0 0 0 0 0 0 0 0 0 0 0 0 0 0 0 0 0 0 0 0 0 0 0 0 0 0 0 0 0 0 0 0 0 0 0 0 0 0 0 0 0 0 0 0 0 0 0 0 0 0 0 0 0 0 0 0 0 0 0 0 0 0 0 0 0 0 0 0 0 0 0 0 0 0 0 0 0 0 0 0 0 0 0 0 0 0 0 0 0 0 0 0 0 0 0 0 0 0 0 0 0 0 0 0 0 0 0 0 0 0 0 0 0 0 0 0 0 0 0 0 0 0 0 0 0 0 0 0 0 0 0 0 0 0 0 0 0 0 0 0 0 0 0 0 0 0 0 0 0 0 0 0 0 0 0 0 0 0 0 0 0 0 0 0 0 0 0 0 0 0 0 0 0 0 0 0 0 0 0 0 0 0 0 0 0 0 0 0 0 0 0 0 0 0 0 0 0 0 0 0 0 0 0 0 0 0 0 0 0 0 0 0 0 0 0 0 0 0 0 0 0 0 0 0 0 0 0 0 0 0 0 0 0 0 0 0 0 0 0 0 0 0 0 0 0 0 0 0 0 0 0 0 0 0 0 0 0 0 0 0 0 0 0 0 0 0 0 0 0 0 0 0 0 0 0 0 0 0 0 0 0 0 0 0 0 0 0 0 0 0 0 0 0 0 0 0 0 0 0 0 0 0 0 0 0 0 0 0 0 0 0 0 0 0 0 0 0 0 0 0 0 0 0 0 0 0 0 0 0 0 0 0 0 0 0 0 0 0 0 0 0 0 0 0 0 0 0 0 0 0 0 0 0 0 0 0 0 0 0 0 0 0 0 0 0 0 0 0 0 0 0 0 0 0 0 0 0 0 0 0 0 0 0 0 0 0 0 0 0 0 0 0 0 0 0 0 0 0 0 0 0 0 0 0 0 0 0 0 0 0 0 0 0 0 0 0 0 0 0 0 0 0 0 0 0 0 0 0 0 0 0 0 0 0 0 0 0 0 0 0 0 0 0 0 0 0 0 0 0 0 0 0 0 0 0 0 0 0 0 0 0 0 0 0 0 0 0 0 0 0 0 0 0 0 0 0 0 0 0 0 0 0 0 0 0 0 0 0 0 0 0 0 0 0 0 0 0 0 0 0 0 0 0 0 0 0 0 0 0 0 0 0 0 0 0 0 0 0 0 0 0 0 0 0 0 0 0 0 0 0 0 0 0 0 0 0 0 0 0 0 0 0 0 0 0 0 0 0 0 0 0 0 0 0 0 0 0 0 0 0 0 0 0 0 0 0 0 0 0 0 0 0 0 0 0 0 0 0 0 0 0 0 0 0 0 0 0 0 0 0 0 0 0 0 0 0 0 0 0 0 0 0 0 0 0 0 0 0 0 0 0 0 0 0 0 0 0 0 0 0 0 0 0 0 0 0 0 0 0 0 0 0 0 0 0 0 0 0 0 0 0 0 0 0 0 0 0 0 0 0 0 0 0 0 0 0 0 0 0 0 0 0 0 0 0 0 0 0 0 0 0 0 0 0 0 0 0 0 0 0 0 0 0 0 0 0 0 0 0 0 0 0 0 0 0 0 0 0 0 0 0 0 0 0 0 0 0 0 0 0 0 0 0 0 0 0 0 0 0 0 0 0 0 0 0 0 0 0 0 0 0 0 0 0 0 0 0 0 0 0 0 0 0 0 0 0 0 0 0 0 0 0 0 0 0 0 0 0 0 0 0 0 0 0 0 0 0 0 0 0 0 0 0 0 0 0 0 0 0 0 0 0 0 0 0 0 0 0 0 0 0 0 0 0 0 0 0 0 0 0 0 0 0 0 0 0 0 0 0 0 0 0 0 0 0 0 0 0 0 0 0 0 0 0 0 0 0 0 0 0 0 0 0 0 0 0 0 0 0 0 0 0 0 0 0 0 0 0 0 0 0 0 0 0 0 0 0 0 0 0 0 0 0 0 0 0 0 0 0 0 0 0 0 0 0 0 0 0 0 0 0 0 0 0 0 0 0 0 0 0 0 0 0 0 0 0 0 0 0 0 0 0 0 0 0 0 0 0 0 0 0 0 0 0 0 0 0 0 0 0 0 0 0 0 0 0 0 0 0 0 0 0 0 0 0 0 0 0 0 0 0 0 0 0 0 0 0 0 0 0 0 0 0 0 0 0 0 0 0 0 0 0 0 0 0 0 0 0 0 0 0 0 0 0 0 0 0 0 0 0 0 0 0 0 0 0 0 0 0 0 0 0 0 0 0 0 0 0 0 0 0 0 0 0 0 0 0 0 0 0 0 0 0 0 0 0 0 0 0 0 0 0 0 0 0 0 0 0 0 0 0 0 0 0 0 0 0 0 0 0 0 0 0 0 0 0 0 0 0 0 0 0 0 0 0 0 0 0 0 0 0 0 0 0 0 0 0 0 0 0 0 0 0 0 0 0 0 0 0 0 0 0 0 0 0 0 0 0 0 0 0 0 0 0 0 0 0 0 0 0 0 0 0 0 0 0 0 0 0 0 0 0 0 0 0 0 0 0 0 0 0 0 0 0 0 0 0 0 0 0 0 0 0 0 0 0 0 0 0 0 0 0 0 0 0 0 0 0 0 0 0 0 0 0 0 0 0 0 0 0 0 0 0 0 0 0 0 0 0 0 0 0 0 0 0 0 0 0 0 0 0 0 0 0 0 0 0 0 0 0 0 0 0 0 0 0 0 0 0 0 0 0 0 0 0 0 0 0 0 0 0 0 0 0 0 0 0 0 0 0 0 0 0 0 0 0 0 0 0 0 0 0 0 0 0 0 0 0 0 0 0 0 0 0 0 0 0 0 0 0 0 0 0 0 0 0 0 0 0 0 0 0 0 0 0 0 0 0 0 0 0 0 0 0 0 0 0 0 0 0 0 0 0 0 0 0 0 0 0 0 0 0 0 0 0 0 0 0 0 0 0 0 0 0 0 0 0 0 0 0 0 0 0 0 0 0 0 0 0 0 0 0 0 0 0 0 0 0 0 0 0 0 0 0 0 0 0 0 0 0 0 0 0 0 0 0 0 0 0 0 0 0 0 0 0 0 0 0 0 0 0 0 0 0 0 0 0 0 0 0 0 0 0 0 0 0 0 0 0 0 0 0 0 0 0 0 0 0 0 0 0 0 0 0 0 0 0 0 0 0 0 0 0 0 0 0 0 0 0 0 0 0 0 0 0 0 0 0 0 0 0 0 0 0 0 0 0 0 0 0 0 0 0 0 0 0 0 0 0 0 0 0 0 0 0 0 0 0 0 0 0 0 0 0 0 0 0 0 0 0 0 0 0 0 0 0 0 0 0 0 0 0 0 0 0 0 0 0 0 0 0 0 0 0 0 0 0 0 0 0 0 0 0 0 0 0 0 0 0 0 0 0 0 0 0 0 0 0 0 0 0 0 0 0 0 0 0 0 0 0 0 0 0 0 0 0 0 0 0 0 0 0 0 0 0 0 0 0 0 0 0 0 0 0 0 0 0 0 0 0 0 0 0 0 0 0 0 0 0 0 0 0 0 0 0 0 0 0 0 0 0 0 0 0 0 0 0 0 0 0 0 0 0 0 0 0 0 0 0 0 0 0 0 0 0 0 0 0 0 0 0 0 0 0 0 0 0 0 0 0 0 0 0 0 0 0 0 0 0 0 0 0 0 0 0 0 0 0 0 0 0 0 0 0 0 0 0 0 0 0 0 0 0 0 0 0 0 0 0 0 0 0 0 0 0 0 0 0 0 0 0 0 0 0 0 0 0 0 0 0 0 0 0 0 0 0 0 0 0 0 0 0 0 0 0 0 0 0 0 0 0 0 0 0 0 0 0 0 0 0 0 0 0 0 0 0 0 0 0 0 0 0 0 0 0 0 0 0 0 0 0 0 0 0 0 0 0 0 0 0 0 0 0 0 0 0 0 0 0 0 0 0 0 0 0 0 0 0 0 0 0 0 0 0 0 0 0 0 0 0 0 0 0 0 0 0 0 0 0 0 0 0 0 0 0 0 0 0 0 0 0 0 0 0 0 0 0 0 0 0 0 0 0 0 0 0 0 0 0 0 0 0 0 0 0 0 0 0 0 0 0 0 0 0 0 0 0 0 0 0 0 0 0 0 0 0 0 0 0 0 0 0 0 0 0 0 0 0 0 0 0 0 0 0 0 0 0 0 0 0 0 0 0 0 0 0 0 0 0 0 0 0 0 0 0 0 0 0 0 0 0 0 0 0 0 0 0 0 0 0 0 0 0 0 0 0 0 0 0 0 0 0 0 0 0 0 0 0 0 0 0 0 0 0 0 0 0 0 0 0 0 0 0 0 0 0 0 0 0 0 0 0 0 0 0 0 0 0 0 0 0 0 0 0 0 0 0 0 0 0 0 0 0 0 0 0 0 0 0 0 0 0 0 0 0 0 0 0 0 0 0 0 0 0 0 0 0 0 0 0 0 0 0 0 0 0 0 0 0 0 0 0 0 0 0 0 0 0 0 0 0 0 0 0 0 0 0 0 0 0 0 0 0 0 0 0 0 0 0 0 0 0 0 0 0 0 0 0 0 0 0 0 0 0 0 0 0 0 0 0 0 0 0 0 0 0 0 0 0 0 0 0 0 0 0 0 0 0 0 0 0 0 0 0 0 0 0 0 0 0 0 0 0 0 0 0 0 0 0 0 0 0 0 0 0 0 0 0 0 0 0 0 0 0 0 0 0 0 0 0 0 0 0 0 0 0 0 0 0 0 0 0 0 0 0 0 0 0 0 0 0 0 0 0 0 0 0 0 0 0 0 0 0 0 0 0 0 0 0 0 0 0 0 0 0 0 0 0 0 0 0 0 0 0 0 0 0 0 0 0 0 0 0 0 0 0 0 0 0 0 0 0 0 0 0 0 0 0 0 0 0 0 0 0 0 0 0 0 0 0 0 0 0 0 0 0 0 0 0 0 0 0 0 0 0 0 0 0 0 0 0 0 0 0 0 0 0 0 0 0 0 0 0 0 0 0 0 0 0 0 0 0 0 0 0 0 0 0 0 0 0 0 0 0 0 0 0 0 0 0 0 0 0 0 0 0 0 0 0 0 0 0 0 0 0 0 0 0 0 0 0 0 0 0 0 0 0 0 0 0 0 0 0 0 0 0 0 0 0 0 0 0 0 0 0 0 0 0 0 0 0 0 0 0 0 0 0 0 0 0 0 0 0 0 0 0 0 0 0 0 0 0 0 0 0 0 0 0 0 0 0 0 0 0 0 0 0 0 0 0 0 0 0 0 0 0 0 0 0 0 0 0 0 0 0 0 0 0 0 0 0 0 0 0 0 0 0 0 0 0 0 0 0 0 0 0 0 0 0 0 0 0 0 0 0 0 0 0 0 0 0 0 0 0 0 0 0 0 0 0 0 0 0 0 0 0 0 0 0 0 0 0 0 0 0 0 0 0 0 0 0 0 0 0 0 0 0 0 0 0 0 0 0 0 0 0 0 0 0 0 0 0 0 0 0 0 0 0 0 0 0 0 0 0 0 0 0 0 0 0 0 0 0 0 0 0 0 0 0 0 0 0 0 0 0 0 0 0 0 0 0 0 0 0 0 0 0 0 0 0 0 0 0 0 0 0 0 0 0 0 0 0 0 0 0 0 0 0 0 0 0 0 0 0 0 0 0 0 0 0 0 0 0 0 0 0 0 0 0 0 0 0 0 0 0 0 0 0 0 0 0 0 0 0 0 0 0 0 0 0 0 0 0 0 0 0 0 0 0 0 0 0 0 0 0 0 0 0 0 0 0 0 0 0 0 0 0 0 0 0 0 0 0 0 0 0 0 0 0 0 0 0 0 0 0 0 0 0 0 0 0 0 0 0 0 0 0 0 0 0 0 0 0 0 0 0 0 0 0 0 0 0 0 0 0 0 0 0 0 0 0 0 0 0 0 0 0 0 0 0 0 0 0 0 0 0 0 0 0 0 0 0 0 0 0 0 0 0 0 0 0 0 0 0 0 0 0 0 0 0 0 0 0 0 0 0 0 0 0 0 0 0 0 0 0 0 0 0 0 0 0 0 0 0 0 0 0 0 0 0 0 0 0 0 0 0 0 0 0 0 0 0 0 0 0 0 0 0 0 0 0 0 0 0 0 0 0 0 0 0 0 0 0 0 0 0 0 0 0 0 0 0 0 0 0 0 0 0 0 0 0 0 0 0 0 0 0 0 0 0 0 0 0 0 0 0 0 0 0 0 0 0 0 0 0 0 0 0 0 0 0 0 0 0 0 0 0 0 0 0 0 0 0 0 0 0 0 0 0 0 0 0 0 0 0 0 0 0 0 0 0 0 0 0 0 0 0 0 0 0 0 0 0 0 0 0 0 0 0 0 0 0 0 0 0 0 0 0 0 0 0 0 0 0 0 0 0 0 0 0 0 0 0 0 0 0 0 0 0 0 0 0 0 0 0 0 0 0 0 0 0 0 0 0 0 0 0 0 0 0 0 0 0 0 0 0 0 0 0 0 0 0 0 0 0 0 0 0 0 0 0 0 0 0 0 0 0 0 0 0 0 0 0 0 0 0 0 0 0 0 0 0 0 0 0 0 0 0 0 0 0 0 0 0 0 0 0 0 0 0 0 0 0 0 0 0 0 0 0 0 0 0 0 0 0 0 0 0 0 0 0 0 0 0 0 0 0 0 0 0 0 0 0 0 0 0 0 0 0 0 0 0 0 0 0 0 0 0 0 0 0 0 0 0 0 0 0 0 0 0 0 0 0 0 0 0 0 0 0 0 0 0 0 0 0 0 0 0 0 0 0 0 0 0 0 0 0 0 0 0 0 0 0 0 0 0 0 0 0 0 0 0 0 0 0 0 0 0 0 0 0 0 0 0 0 0 0 0 0 0 0 0 0 0 0 0 0 0 0 0 0 0 0 0 0 0 0 0 0 0 0 0 0 0 0 0 0 0 0 0 0 0 0 0 0 0 0 0 0 0 0 0 0 0 0 0 0 0 0 0 0 0 0 0 0 0 0 0 0 0 0 0 0 0 0 0 0 0 0 0 0 0 0 0 0 0 0 0 0 0 0 0 0 0 0 0 0 0 0 0 0 0 0 0 0 0 0 0 0 0 0 0 0 0 0 0 0 0 0 0 0 0 0 0 0 0 0 0 0 0 0 0 0 0 0 0 0 0 0 0 0 0 0 0 0 0 0 0 0 0 0 0 0 0 0 0 0 0 0 0 0 0 0 0 0 0 0 0 0 0 0 0 0 0 0 0 0 0 0 0 0 0 0 0 0 0 0 0 0 0 0 0 0 0 0 0 0 0 0 0 0 0 0 0 0 0 0 0 0 0 0 0 0 0 0 0 0 0 0 0 0 0 0 0 0 0 0 0 0 0 0 0 0 0 0 0 0 0 0 0 0 0 0 0 0 0 0 0 0 0 0 0 0 0 0 0 0 0 0 0 0 0 0 0 0 0 0 0 0 0 0 0 0 0 0 0 0 0 0 0 0 0 0 0 0 0 0 0 0 0 0 0 0 0 0 0 0 0 0 0 0 0 0 0 0 0 0 0 0 0 0 0 0 0 0 0 0 0 0 0 0 0 0 0 0 0 0 0 0 0 0 0 0 0 0 0 0 0 0 0 0 0 0 0 0 0 0 0 0 0 0 0 0 0 0 0 0 0 0 0 0 0 0 0 0 0 0 0 0 0 0 0 0 0 0 0 0 0 0 0 0 0 0 0 0 0 0 0 0 0 0 0 0 0 0 0 0 0 0 0 0 0 0 0 0 0 0 0 0 0 0 0 0 0 0 0 0 0 