P2
147 129
255
0 0 0 0 0 0 0 0 0 0 0 0 0 0 0 0 0 0 0 0 0 0 0 0 0 0 0 0 0 0 0 0 0 0 0 0 0 0 0 0 0 0 0 0 0 0 0 0 0 0 0 0 0 0 0 0 0 0 0 0 0 0 0 0 0 0 0 0 0 0 0 0 0 0 0 0 0 0 0 0 0 0 0 0 0 0 0 0 0 0 0 0 0 0 0 0 0 0 0 0 0 0 0 0 0 0 0 0 0 0 0 0 0 0 0 0 0 0 0 0 0 0 0 0 0 0 0 0 0 0 0 0 0 0 0 0 0 0 0 0 0 0 0 0 0 0 0 0 0 0 0 0 0 0 0 0 0 0 0 0 0 0 0 0 0 0 0 0 0 0 0 0 0 0 0 0 0 0 0 0 0 0 0 0 0 0 0 0 0 0 0 0 0 0 0 0 0 0 0 0 0 0 0 0 0 0 0 0 0 0 0 0 0 0 0 0 0 0 0 0 0 0 0 0 0 0 0 0 0 0 0 0 0 0 0 0 0 0 0 0 0 0 0 0 0 0 0 0 0 0 0 0 0 0 0 0 0 0 0 0 0 0 0 0 0 0 0 0 0 0 0 0 0 0 0 0 0 0 0 0 0 0 0 0 0 0 0 0 0 0 0 0 0 0 118 96 63 82 115 98 97 86 118 82 59 82 107 115 74 84 157 137 105 135 172 167 189 178 156 162 183 173 150 187 174 157 199 163 180 211 167 200 220 182 210 221 180 210 216 150 193 195 188 173 202 215 194 210 231 203 199 233 196 170 231 170 170 225 120 184 241 152 181 244 186 228 244 220 255 227 242 243 220 249 218 242 233 213 229 198 219 213 225 206 224 229 207 232 214 231 209 224 219 202 197 185 183 171 120 142 180 118 150 135 166 124 101 101 120 142 126 90 113 171 166 162 128 60 127 102 135 98 138 57 96 77 89 129 128 88 126 89 113 87 119 87 85 58 91 78 107 114 106 77 77 112 92 59 95 122 108 49 96 110 100 24 98 189 161 143 122 197 170 202 219 187 213 219 191 211 221 200 222 226 192 213 231 205 194 241 216 197 239 219 207 238 224 210 223 228 199 203 236 212 218 250 224 217 251 230 211 246 229 192 226 209 161 243 209 188 240 204 221 233 211 248 234 243 236 217 244 233 243 231 227 221 210 202 209 212 215 212 220 199 227 193 225 206 212 220 185 186 157 165 147 118 141 171 146 111 83 165 128 72 121 162 140 113 124 131 178 152 151 95 87 142 114 129 144 122 23 113 93 97 108 111 110 126 70 106 83 112 96 97 56 79 107 89 75 91 67 58 91 88 60 87 92 90 74 64 104 57 68 100 200 195 172 176 207 196 208 246 219 212 243 206 228 246 227 219 242 213 205 238 220 199 245 222 156 241 229 194 238 208 197 221 207 201 204 228 208 110 243 214 202 248 222 215 240 217 206 214 195 177 235 199 183 225 172 223 168 182 224 208 230 190 184 204 171 217 191 217 179 217 171 211 183 210 164 207 80 208 135 198 138 171 183 145 163 116 131 133 143 157 142 146 102 92 103 123 103 105 168 152 138 83 121 162 152 135 127 108 141 97 109 146 109 100 129 102 76 90 62 104 114 96 115 105 117 82 88 77 79 111 19 47 68 69 58 70 72 59 33 38 13 76 22 71 27 69 72 200 189 170 187 201 185 206 222 207 192 225 159 197 217 207 162 221 187 201 223 187 199 232 190 188 233 209 178 228 205 185 217 202 174 203 216 196 201 228 196 201 233 210 196 222 207 190 184 177 170 219 187 203 222 178 205 211 190 210 185 213 211 158 211 179 197 183 193 171 196 174 196 188 175 173 182 174 170 152 162 101 138 82 141 122 109 125 127 136 132 147 83 130 90 126 90 115 73 161 128 143 112 84 118 156 114 128 108 122 68 105 136 105 80 115 98 89 105 103 96 116 113 125 119 110 79 36 86 99 73 47 12 46 48 61 72 66 55 56 47 28 62 43 11 55 44 23 188 147 158 159 183 134 195 176 163 202 189 188 204 178 147 177 199 168 190 206 155 197 209 163 181 209 194 116 206 200 171 180 188 164 154 183 182 167 193 179 179 195 189 180 192 185 170 140 160 106 173 167 181 179 162 175 179 158 142 159 174 167 166 167 153 156 156 139 152 143 142 161 145 146 131 133 135 109 113 98 95 50 97 89 75 71 94 76 76 64 123 80 109 97 114 98 68 47 138 117 119 75 65 92 112 89 94 68 81 59 96 111 84 92 64 5 81 88 96 90 110 94 103 108 67 84 49 92 80 53 60 42 3 37 44 67 24 84 77 36 27 64 48 56 43 65 42 166 143 123 145 160 95 174 185 141 128 159 172 158 162 145 156 158 169 136 154 170 82 154 155 98 147 156 85 153 145 115 127 95 101 133 65 118 141 81 87 107 109 11 68 52 75 125 72 69 131 68 75 122 63 97 98 62 123 115 70 130 68 103 68 120 74 78 73 75 11 76 60 71 85 46 56 61 76 72 42 61 47 46 37 56 29 36 11 12 71 61 61 61 46 74 49 34 42 103 88 98 54 79 42 69 69 72 57 67 38 68 47 27 54 9 48 78 52 17 39 66 19 43 90 55 1 61 68 60 46 38 37 39 45 14 44 35 66 75 18 13 38 54 45 61 55 56 137 120 83 99 107 77 151 141 101 147 111 126 132 124 107 138 109 114 136 119 114 104 108 41 97 113 22 74 103 14 94 75 47 71 83 55 56 103 89 59 102 113 81 90 97 77 52 61 54 76 62 65 88 97 9 83 58 92 96 63 125 64 54 63 72 75 75 84 70 69 22 57 33 56 19 42 42 50 21 38 3 35 5 52 45 49 38 24 2 57 48 57 40 6 29 43 18 15 71 71 77 20 54 28 76 33 51 11 62 15 44 13 56 26 34 30 53 31 26 49 20 25 41 59 54 49 37 36 21 20 53 37 42 35 25 15 48 35 39 35 18 15 49 39 31 36 45 83 26 30 31 48 20 116 58 7 110 63 37 99 50 42 91 69 40 74 64 47 93 44 43 80 51 43 72 65 19 33 50 12 23 74 29 36 68 55 63 75 88 53 74 56 31 53 55 18 53 21 64 59 74 6 43 29 55 86 27 102 2 36 5 44 29 42 32 18 40 28 18 2 43 35 34 9 30 1 1 2 21 9 16 17 17 10 25 0 34 35 51 16 39 8 22 9 11 26 34 39 28 23 16 49 28 26 6 29 21 39 21 1 8 31 7 21 15 16 23 8 18 48 33 22 23 21 13 18 14 41 28 21 9 0 17 38 16 22 35 21 6 17 22 14 13 25 37 48 30 35 25 40 88 54 31 93 55 42 86 34 5 64 68 47 64 60 33 3 49 29 39 43 49 37 7 29 11 49 19 4 44 31 30 46 33 15 44 63 46 49 28 12 26 10 10 47 4 37 32 51 16 33 3 42 64 14 70 38 20 21 38 4 5 16 12 4 20 19 5 3 13 6 8 0 33 2 4 9 3 16 15 22 0 12 0 33 1 33 8 33 7 9 5 18 25 13 25 31 19 8 32 19 17 4 11 19 27 25 7 18 29 22 2 12 17 10 11 19 32 6 21 21 16 0 2 9 28 6 7 8 14 3 6 20 47 0 2 7 19 21 7 12 19 48 28 33 17 14 31 74 77 25 79 33 34 78 52 11 58 70 51 76 61 38 53 71 45 50 64 26 24 47 10 2 52 27 5 46 10 0 23 66 43 39 61 29 28 39 32 24 30 15 23 35 13 47 40 26 14 1 35 40 4 70 2 30 21 13 17 14 14 7 2 14 24 7 5 22 0 19 30 16 2 10 18 15 15 7 29 8 5 2 24 3 23 0 25 12 10 8 10 21 3 24 2 15 17 27 1 22 21 21 21 28 23 11 25 19 12 36 31 18 9 4 12 2 17 21 18 17 7 15 20 26 7 4 22 17 23 1 4 51 12 20 8 28 28 37 20 26 37 30 40 20 2 42 42 65 32 61 11 45 30 54 68 74 45 50 80 26 52 69 60 55 33 29 23 17 45 6 33 30 18 12 46 24 12 30 63 27 40 61 7 13 24 19 29 3 22 18 10 40 51 23 27 11 4 10 60 22 70 34 32 10 17 11 2 26 4 4 0 12 9 11 21 14 1 24 29 13 15 13 21 1 8 33 16 2 3 16 6 21 19 11 15 14 1 19 19 8 13 28 13 1 0 15 17 23 40 20 22 9 21 23 9 9 38 32 4 15 3 20 6 4 14 1 22 23 11 7 11 14 14 18 25 28 6 2 31 8 22 8 1 5 13 27 27 12 32 31 24 33 8 69 25 36 86 28 60 64 60 61 80 52 38 78 27 61 28 45 29 61 46 18 35 32 28 33 26 34 28 42 19 2 48 46 24 33 41 14 6 40 1 26 28 0 34 20 28 29 33 15 13 13 38 59 32 51 6 28 6 10 7 3 8 5 5 0 13 3 28 12 17 17 7 13 13 22 6 22 4 7 18 20 1 10 4 4 17 27 9 5 5 4 2 10 18 6 30 33 12 6 33 7 5 22 9 6 5 5 22 19 8 21 18 5 22 3 24 4 4 19 28 11 4 7 8 19 1 20 3 5 6 1 2 6 3 9 19 22 37 18 22 11 34 39 58 11 81 41 118 114 103 95 101 72 102 101 91 73 90 59 70 91 46 83 90 83 68 68 30 47 61 58 36 69 37 28 40 44 41 65 55 43 22 41 5 19 67 38 27 20 22 28 8 16 36 54 37 46 61 57 43 51 13 40 34 36 35 37 44 41 29 36 28 30 9 29 5 18 6 20 24 10 13 17 12 2 19 2 14 2 15 2 1 19 13 13 2 3 4 4 0 15 8 5 26 9 5 30 17 1 2 19 2 5 5 11 13 14 10 10 4 10 12 3 8 6 16 30 13 7 13 11 21 10 30 15 2 2 9 2 2 15 12 29 16 28 18 23 0 75 52 75 63 107 68 139 149 93 110 136 62 85 124 103 121 119 59 89 108 65 97 107 106 79 104 75 62 98 78 62 97 67 29 55 55 36 76 86 49 75 85 25 70 82 63 43 67 18 49 38 17 71 28 63 66 80 81 78 73 47 51 10 57 60 77 42 73 61 65 52 56 44 36 54 27 34 3 40 43 11 21 18 3 17 22 2 7 9 13 0 15 4 7 5 14 9 4 11 3 18 7 10 18 8 19 0 7 6 7 18 30 22 7 7 24 12 16 11 10 11 17 18 10 3 31 10 20 10 16 7 5 35 15 3 2 26 10 21 18 21 38 22 23 29 2 20 79 42 68 72 106 74 144 133 106 142 122 105 101 94 83 115 98 87 60 81 72 92 57 85 91 99 79 75 104 39 70 92 40 31 47 21 11 95 84 35 97 101 51 26 98 60 72 83 32 80 71 65 76 73 80 55 55 57 60 46 51 23 48 27 37 67 39 65 59 67 49 68 56 21 71 52 44 12 46 45 12 18 30 12 16 13 5 5 19 5 10 6 10 6 5 21 15 8 7 5 3 17 15 26 11 9 0 1 8 10 13 20 20 0 6 20 7 20 13 31 17 18 4 9 7 1 13 26 25 6 10 13 13 13 1 16 15 12 14 4 16 25 9 23 32 22 20 59 52 54 47 94 52 143 86 109 139 92 108 123 81 98 107 77 100 110 84 94 89 100 97 49 93 62 57 86 70 68 62 38 18 52 31 32 88 70 33 75 86 69 75 100 37 27 63 39 80 101 79 93 100 93 82 24 50 38 43 66 17 56 13 49 37 28 52 28 61 47 70 40 33 53 29 21 40 37 21 3 23 13 11 10 14 0 12 10 34 22 26 9 13 26 30 11 24 20 24 13 26 24 3 8 3 2 25 14 15 33 18 30 25 28 0 2 12 19 11 5 10 0 20 20 13 25 20 34 5 13 23 2 15 0 25 0 8 15 23 19 12 13 12 17 21 18 67 30 48 39 131 61 152 153 112 128 130 98 111 113 90 108 111 88 92 114 87 67 115 41 74 105 23 57 88 64 52 80 67 22 41 21 55 87 88 81 83 112 61 78 115 55 31 72 42 84 85 57 114 79 82 94 42 32 94 48 82 38 61 35 31 64 38 69 25 76 82 81 59 44 64 77 56 55 47 32 35 41 28 19 18 18 17 18 17 57 66 18 28 42 68 43 60 70 64 29 29 4 20 48 51 49 10 40 64 38 58 71 48 65 14 53 19 23 3 34 23 12 10 21 7 11 44 25 9 10 5 23 4 4 3 19 9 12 17 27 14 27 31 23 21 17 26 85 21 80 52 153 82 152 188 134 153 154 111 122 137 85 109 139 89 72 140 102 104 149 138 99 122 89 66 110 101 93 86 88 26 37 24 65 97 142 117 76 142 108 67 148 125 93 100 9 78 136 108 124 127 90 86 73 36 117 56 95 71 66 47 58 75 28 70 21 67 91 66 64 41 72 68 66 44 52 54 56 51 54 37 23 2 38 46 15 74 106 97 49 48 83 60 70 104 78 3 26 67 41 63 70 84 45 53 93 83 92 104 81 58 79 73 73 52 28 31 16 15 56 21 12 23 57 11 17 29 3 9 12 35 11 7 15 3 10 9 9 26 35 32 32 15 19 88 66 64 89 152 121 137 189 118 148 155 109 103 143 85 97 140 85 108 142 88 90 141 146 106 118 89 48 113 125 104 70 86 38 52 37 61 104 145 107 84 142 120 81 145 126 85 91 39 85 138 102 99 132 95 85 64 47 116 72 97 89 54 76 21 75 41 75 61 37 61 29 39 3 36 17 49 37 33 42 36 31 49 27 13 7 31 50 15 46 108 107 69 11 92 91 77 98 71 44 50 68 66 50 81 91 51 65 91 99 107 99 70 73 97 92 97 57 41 57 55 49 77 20 13 33 52 18 17 33 18 6 18 34 35 19 5 13 14 1 2 8 22 47 25 7 12 71 80 21 64 126 122 131 157 114 88 128 97 109 117 46 89 108 54 96 118 88 80 92 102 96 87 50 33 95 95 84 44 64 31 12 31 38 76 107 64 80 109 85 50 106 80 32 56 40 72 105 51 78 89 59 71 38 51 79 56 78 72 36 56 41 55 49 54 66 33 34 20 0 8 17 21 29 15 23 15 5 10 0 7 3 5 17 23 22 15 74 69 49 18 75 72 57 64 25 48 44 17 45 39 63 59 31 59 43 69 77 56 38 78 79 73 67 37 12 50 56 31 71 23 7 1 28 17 4 6 14 13 27 12 21 0 17 21 3 7 9 24 16 21 3 0 22 36 52 42 54 48 74 101 91 39 87 62 76 66 32 46 70 22 5 45 32 53 30 18 71 64 5 35 7 37 10 18 23 17 25 17 7 3 57 6 19 65 4 44 12 1 20 36 17 20 53 33 15 63 18 13 40 23 27 26 0 52 30 33 9 7 23 20 20 34 40 12 35 16 17 17 24 23 22 40 19 8 13 6 8 7 7 2 6 18 5 10 9 14 14 31 9 33 17 24 21 12 39 0 2 23 18 32 15 33 10 1 37 2 37 23 6 21 46 12 24 33 1 38 23 2 19 20 1 9 3 2 0 14 15 13 5 21 19 13 2 13 35 5 15 2 14 31 27 24 39 10 59 18 74 70 54 60 69 51 9 12 44 45 9 32 50 33 32 31 62 75 40 36 25 16 49 42 30 49 25 24 15 18 5 37 19 23 34 72 56 30 47 35 19 26 19 14 40 28 18 26 19 36 37 43 35 21 46 5 26 15 2 12 4 27 23 0 18 26 16 11 23 26 15 10 28 12 4 19 2 1 4 14 2 14 5 13 5 5 10 7 36 30 24 32 12 17 30 38 15 8 23 18 23 23 28 21 41 33 3 2 7 15 24 36 1 18 22 4 1 19 11 3 3 12 2 10 6 8 11 36 13 16 19 20 23 1 14 26 19 8 13 30 13 24 28 12 29 11 7 54 44 53 52 47 36 35 10 11 33 22 45 21 6 37 8 56 42 42 18 10 2 43 46 51 43 25 10 15 18 25 0 9 17 20 56 43 20 22 23 1 23 26 47 6 21 32 49 11 18 18 9 13 21 30 23 16 11 9 0 8 12 12 1 20 13 17 17 7 3 7 3 1 10 0 13 3 2 14 18 1 11 1 13 2 9 10 0 39 36 26 29 16 30 32 29 19 7 20 13 18 36 22 26 48 10 14 17 33 3 29 14 3 4 24 4 5 19 18 10 6 20 6 2 12 10 19 27 2 22 14 18 24 8 15 18 23 29 3 16 20 51 59 34 45 44 19 9 57 47 45 29 34 46 27 52 29 30 61 47 40 49 6 30 33 40 21 24 28 36 43 58 3 32 29 7 11 46 25 37 39 35 3 24 21 30 4 28 5 0 46 15 5 40 47 0 23 1 14 6 10 5 11 6 1 16 4 0 14 5 5 8 0 8 17 3 3 19 3 1 10 5 5 1 0 19 16 2 12 6 10 11 5 11 1 27 29 19 8 27 33 26 32 4 9 4 16 45 49 8 22 27 7 12 46 33 32 1 6 12 2 36 11 1 26 10 9 4 27 0 6 3 6 24 11 9 15 2 17 19 16 21 11 8 40 6 19 22 51 64 48 58 59 27 60 77 36 29 0 65 57 38 71 12 33 70 70 47 62 17 45 47 54 55 18 35 39 52 62 30 37 36 39 2 47 31 41 42 54 23 24 34 47 25 32 28 17 17 13 14 47 37 8 18 6 28 15 5 17 1 8 10 22 6 2 17 8 0 0 18 21 4 3 4 25 2 0 3 7 4 1 6 21 13 0 17 12 0 4 1 8 5 14 15 19 6 27 22 15 25 7 27 0 27 44 41 33 29 42 41 17 67 30 30 19 31 13 11 40 32 1 24 21 22 8 28 20 9 13 21 34 19 5 27 3 2 7 23 21 29 16 32 9 12 9 44 51 77 78 54 38 68 66 45 0 37 73 31 31 59 17 25 66 64 39 60 59 9 34 40 55 36 37 23 53 29 40 15 24 50 29 32 37 44 25 28 34 9 28 58 27 27 38 27 38 21 21 41 27 14 0 25 14 5 3 10 8 17 15 15 6 9 12 8 12 14 18 18 8 6 4 22 2 7 5 12 3 0 21 8 10 1 7 18 7 19 3 2 9 25 4 9 29 21 13 0 7 8 38 1 31 11 47 58 34 53 60 30 73 38 26 49 40 29 18 31 39 27 32 12 24 10 34 40 20 19 28 32 35 23 34 6 28 6 25 3 19 14 19 21 14 3 43 34 62 39 36 34 61 23 38 25 9 55 41 42 31 38 0 36 7 18 36 41 38 0 16 44 21 27 7 44 0 32 12 18 26 29 8 24 34 33 13 34 12 38 54 10 2 28 1 27 30 29 10 18 9 15 41 14 11 16 15 18 17 14 18 0 7 11 11 11 21 10 2 2 14 17 15 2 7 15 20 7 6 15 0 5 4 3 12 20 19 11 11 1 25 4 16 28 20 8 12 7 12 37 8 23 22 38 47 33 56 58 21 53 33 13 30 8 36 10 17 21 42 33 1 17 2 30 30 16 30 14 8 38 29 15 4 15 23 29 16 21 23 10 23 20 7 32 25 27 43 6 18 56 4 41 41 34 47 35 23 40 53 29 40 27 23 36 8 19 4 26 51 23 2 11 36 22 21 33 37 12 13 2 12 28 19 16 27 9 28 37 16 15 0 15 2 39 21 17 16 27 2 34 18 5 21 8 2 21 10 9 5 25 37 4 7 21 27 2 24 20 14 8 12 4 12 9 9 4 1 0 12 2 0 4 19 17 4 0 16 23 3 11 8 14 3 23 36 22 30 3 4 24 38 20 14 23 40 15 19 8 16 25 14 25 1 19 6 22 2 6 5 9 8 5 30 12 0 7 22 26 1 5 4 17 33 12 24 22 12 11 5 9 5 14 12 21 19 23 33 10 7 13 36 39 24 10 27 39 11 17 14 23 36 18 19 16 13 35 21 4 5 23 33 21 18 9 1 0 14 7 24 7 10 22 3 16 7 9 4 9 6 0 26 32 5 9 5 19 20 7 8 12 2 6 4 13 6 9 7 36 3 17 14 38 1 32 10 1 22 12 7 4 2 12 3 5 12 3 5 11 14 0 19 14 7 23 6 0 10 2 12 14 16 49 2 37 6 1 33 41 36 22 17 35 15 37 13 7 14 12 19 3 3 0 14 19 4 5 5 7 8 20 13 10 17 5 17 13 1 2 8 31 14 27 7 7 3 0 5 4 12 19 8 15 0 7 16 21 8 32 15 20 7 25 21 9 5 11 6 29 27 33 18 10 6 1 5 4 4 14 34 11 15 11 17 27 9 15 21 11 30 7 12 15 10 2 9 8 10 9 20 27 6 23 13 4 15 18 18 0 0 17 10 17 12 34 12 2 2 22 34 15 11 0 9 18 8 3 1 7 8 12 6 29 5 14 13 28 8 34 16 28 7 11 11 23 15 22 24 8 54 24 20 37 5 50 33 28 24 48 12 54 48 26 59 46 26 25 4 19 21 12 8 27 17 14 22 12 0 28 10 18 7 28 26 6 11 20 20 13 29 0 1 5 1 2 22 41 32 12 21 8 26 25 39 10 31 30 18 17 15 39 13 34 31 14 19 8 24 3 11 14 5 27 18 3 4 33 23 4 13 14 21 0 12 4 26 42 5 23 30 19 18 8 10 25 19 16 31 10 25 15 14 21 14 37 17 10 6 27 7 24 40 7 11 24 30 29 19 9 17 12 23 4 19 4 7 1 14 10 34 16 14 24 33 43 64 22 50 27 41 45 36 36 37 24 22 56 28 58 46 22 23 35 22 35 66 27 65 61 31 50 77 29 39 30 24 25 8 27 49 38 27 27 11 5 17 7 5 11 40 13 1 21 22 36 25 27 1 7 6 28 24 30 40 47 7 34 30 54 37 42 42 10 9 41 4 20 22 5 29 39 17 3 7 7 13 23 28 2 20 35 7 2 11 11 15 21 6 4 19 8 15 5 39 0 27 36 23 8 1 9 31 2 16 16 20 13 8 19 30 23 30 32 11 8 26 2 17 0 35 0 37 22 29 33 30 34 32 22 3 11 7 5 0 5 4 26 25 10 30 27 46 70 43 16 32 54 33 25 54 59 23 16 41 29 88 0 20 62 51 31 0 80 71 80 58 45 42 79 39 40 35 4 24 13 34 52 48 13 6 5 11 21 17 15 24 16 18 10 17 28 48 22 20 18 2 14 31 24 12 35 37 44 31 25 54 29 27 27 37 45 41 20 36 20 5 1 41 27 14 28 13 27 25 30 44 24 22 0 13 4 19 24 8 2 27 19 7 13 33 12 10 34 22 23 11 14 25 32 21 19 13 11 16 21 7 29 7 24 15 17 0 7 11 30 8 62 19 36 12 30 40 43 35 39 4 4 0 9 8 7 0 7 17 20 4 26 6 34 54 29 8 1 46 22 51 31 67 28 38 29 40 94 30 39 65 89 73 54 53 96 92 38 45 73 70 69 47 34 30 44 9 24 37 30 37 8 18 18 12 12 1 0 20 27 11 20 38 34 4 6 14 24 1 20 10 7 36 16 60 9 12 37 16 16 30 15 29 33 21 1 41 9 13 42 44 33 34 28 35 27 11 43 24 10 9 9 20 19 12 13 3 27 31 2 28 18 18 7 19 14 15 10 6 30 33 22 13 9 4 28 23 15 37 12 19 7 26 21 9 18 35 25 60 6 38 26 41 38 39 48 45 16 23 14 7 12 23 8 5 30 19 9 9 17 16 27 15 10 40 53 49 63 39 68 4 9 55 32 83 42 42 33 88 62 66 81 32 70 67 27 84 62 64 56 58 62 31 50 39 16 8 43 28 29 9 1 19 16 2 18 29 16 20 39 23 12 9 8 25 3 13 13 16 9 38 35 29 10 22 27 14 41 12 12 42 22 43 21 9 28 40 15 31 25 28 34 33 3 16 18 24 22 31 41 7 13 32 14 28 33 2 25 15 30 21 2 19 12 15 20 11 10 17 27 31 17 10 41 0 22 23 24 12 15 22 19 9 6 31 32 16 26 10 36 34 39 49 58 17 8 13 1 12 37 1 23 25 26 6 0 20 21 16 28 33 42 50 63 69 44 50 35 49 58 50 65 63 59 32 67 59 70 84 85 46 83 33 79 47 20 53 60 53 10 56 39 8 25 40 38 11 3 9 8 10 8 0 23 0 18 31 26 21 17 24 27 13 11 23 20 10 36 18 33 13 31 32 12 41 17 14 38 27 35 10 13 26 24 7 12 9 28 32 32 30 22 31 18 7 23 39 11 9 14 37 27 24 6 6 20 25 18 10 14 12 3 0 37 1 14 38 28 32 15 50 24 2 29 24 8 3 0 1 4 2 5 23 18 12 1 23 15 6 6 51 24 18 7 6 26 28 13 14 18 22 0 1 8 11 2 32 25 25 23 45 48 7 26 32 61 23 38 26 27 56 7 37 52 48 46 81 53 54 61 62 7 14 35 35 8 2 38 9 20 14 13 33 19 11 25 18 18 6 5 13 6 25 6 25 28 10 24 33 16 21 28 18 5 40 17 27 21 43 12 17 27 26 19 34 20 14 18 1 22 20 20 25 15 22 17 23 22 36 20 5 22 10 22 13 11 9 39 29 31 23 18 18 15 0 9 3 16 3 13 36 14 38 30 19 22 19 23 20 10 22 14 3 10 9 8 1 3 2 30 4 11 2 21 1 9 4 11 20 19 28 1 18 13 7 10 27 8 4 8 0 31 3 7 21 31 29 13 37 20 33 27 60 29 15 42 31 39 19 42 55 63 11 82 47 24 50 60 15 20 21 31 28 17 0 8 20 18 12 35 14 21 29 42 30 13 8 14 0 27 37 34 37 7 6 38 35 31 36 3 2 43 18 14 26 36 14 28 6 42 38 37 40 18 16 45 35 28 21 19 42 3 10 29 32 34 43 33 25 32 25 5 30 23 18 38 32 31 40 6 31 7 12 14 14 25 24 17 15 42 27 6 3 38 31 12 22 4 17 17 18 8 1 20 8 10 27 20 19 1 7 17 17 28 12 17 2 34 13 5 15 0 1 26 4 21 17 13 21 20 11 41 41 37 40 38 16 47 0 54 61 48 52 39 46 38 64 82 86 64 85 67 26 31 56 42 21 40 20 54 52 29 9 24 8 16 14 23 23 16 43 16 20 30 19 8 39 30 37 39 34 15 39 40 9 37 13 34 30 44 9 17 14 5 34 4 47 42 9 46 23 41 54 17 3 35 20 36 36 21 17 62 1 49 19 19 25 25 5 38 36 25 32 23 29 49 15 39 22 30 40 23 53 27 27 28 18 3 25 7 48 47 19 34 15 6 36 7 28 0 28 12 17 15 5 15 14 18 1 0 34 21 23 1 26 20 21 13 12 20 14 12 13 8 5 11 8 13 43 24 36 43 20 23 43 43 42 55 33 12 58 31 25 57 78 68 55 59 65 50 19 23 34 24 38 5 39 56 35 25 41 20 8 36 22 23 12 27 1 24 10 7 18 23 36 34 23 31 28 10 25 49 25 19 21 28 34 39 8 42 13 10 26 37 39 16 30 16 21 35 15 34 10 22 27 42 0 17 52 30 33 27 29 14 10 23 24 28 29 30 23 28 42 15 36 28 27 29 15 49 34 28 0 14 4 31 6 42 24 42 26 12 13 33 22 21 6 42 14 12 5 6 2 27 15 8 6 12 8 36 3 15 18 16 12 15 14 8 3 6 15 21 33 8 9 26 31 9 38 14 26 27 35 33 44 19 43 34 22 23 24 42 2 34 11 9 25 7 14 13 33 16 36 25 28 22 16 36 23 0 21 10 9 3 1 20 0 23 11 13 22 25 17 16 3 36 15 27 49 15 33 30 5 11 43 38 44 28 29 27 28 40 14 31 35 2 16 23 39 9 31 13 20 36 20 33 23 22 28 32 25 28 31 38 7 2 39 25 29 22 10 39 23 20 20 24 16 33 16 5 8 13 24 1 36 14 31 7 27 1 28 24 19 25 29 20 11 7 19 4 18 10 6 6 13 15 30 9 5 0 3 9 6 5 21 0 16 14 8 23 2 7 4 24 14 37 15 18 12 28 21 37 7 33 1 23 17 9 9 0 23 5 26 10 3 4 14 24 9 35 26 15 16 9 25 10 9 16 13 5 32 4 38 40 21 35 28 10 15 24 15 13 19 30 5 23 0 44 37 28 24 6 34 20 39 41 23 6 40 6 54 34 16 6 1 26 29 42 22 13 12 6 16 32 36 8 42 18 10 29 46 28 8 27 30 7 22 29 40 23 16 11 23 8 25 42 4 12 18 10 12 12 16 4 0 14 8 15 8 24 14 6 11 11 7 10 6 0 13 0 3 28 2 6 14 6 11 20 16 17 8 12 2 14 7 0 9 5 5 8 11 19 33 23 11 7 44 8 19 3 12 6 22 16 22 34 0 6 9 14 22 25 29 5 0 19 18 25 15 29 21 15 8 1 16 5 30 25 19 60 58 23 26 2 18 2 36 3 21 53 46 22 25 11 10 63 16 51 46 55 25 34 37 0 17 21 20 53 38 53 35 3 38 53 31 48 47 50 8 15 23 43 20 37 28 22 27 36 10 47 46 21 10 31 43 35 30 19 30 10 32 7 37 33 19 15 12 6 20 19 24 26 30 34 16 21 32 8 23 25 10 13 1 25 32 30 30 18 37 29 0 12 31 10 22 29 10 24 9 25 27 11 1 5 25 19 17 7 4 21 25 7 20 24 25 13 11 20 30 15 25 37 59 18 22 29 14 14 24 53 20 32 0 23 38 33 33 1 33 3 19 24 26 39 38 27 67 43 41 29 53 43 3 46 14 8 62 45 16 36 44 52 64 22 75 72 43 6 8 38 18 44 14 34 37 53 65 61 37 49 48 3 62 59 53 13 23 29 34 45 67 54 21 23 45 15 52 78 30 54 17 51 47 36 23 17 17 37 21 30 39 24 24 23 30 40 41 23 45 31 33 19 22 37 5 44 35 15 20 12 43 41 47 59 44 35 38 22 39 21 33 11 17 13 43 26 51 30 14 0 21 42 49 25 12 40 24 17 23 42 24 6 23 29 41 31 38 47 21 73 27 36 31 32 14 8 47 27 16 22 41 46 25 41 12 55 31 25 34 19 25 46 26 53 57 49 2 71 48 39 52 20 36 56 29 0 23 37 66 29 14 68 53 24 71 50 45 50 41 26 59 20 67 54 26 47 37 35 57 66 49 10 26 12 13 70 25 68 59 20 32 62 16 32 76 48 62 19 38 51 34 28 39 39 15 40 63 6 44 57 1 19 34 36 15 30 54 37 18 45 31 0 15 28 18 34 31 49 45 12 54 37 28 47 13 43 20 5 34 19 8 49 8 54 15 26 4 14 24 52 12 25 30 22 38 41 27 23 28 7 48 54 14 25 50 23 82 45 58 41 56 53 34 49 46 38 8 42 35 3 37 11 59 34 14 52 28 34 6 36 47 74 10 64 87 44 49 74 55 61 73 42 57 53 34 74 53 38 55 37 46 76 76 56 61 18 17 65 49 81 16 1 21 37 54 52 72 52 34 36 8 36 65 77 72 56 28 26 80 56 67 76 38 70 41 38 72 49 46 44 54 13 63 87 57 49 21 62 34 56 51 19 48 48 55 26 33 45 17 38 28 28 2 57 53 50 46 56 6 8 54 42 63 4 0 10 18 12 60 36 69 52 44 19 38 28 50 29 28 8 56 32 54 14 52 40 45 57 71 30 35 61 59 84 69 70 54 43 50 62 63 36 57 42 54 43 33 1 57 74 35 46 61 34 53 33 29 76 97 69 80 91 50 78 75 81 91 43 69 87 50 51 75 28 83 77 42 88 30 67 51 16 54 48 65 62 84 67 29 41 26 67 72 84 85 37 20 30 29 37 77 64 72 60 5 86 78 70 68 41 78 70 13 85 12 39 40 35 45 64 84 92 65 65 83 75 59 84 68 33 59 72 52 16 56 31 44 47 37 37 56 68 55 64 60 0 52 38 11 69 47 37 56 25 36 36 40 73 19 25 1 39 49 44 36 29 14 62 60 47 55 70 23 62 80 69 54 58 67 71 79 60 77 8 24 38 67 72 14 59 35 66 52 51 18 65 81 64 75 7 56 72 69 49 68 103 35 36 72 49 91 79 74 87 36 68 63 84 20 72 68 83 58 74 83 29 1 2 67 78 56 51 73 83 79 3 46 29 61 91 83 95 60 29 36 34 49 66 43 90 80 36 76 47 48 31 74 60 74 12 77 25 27 50 5 13 47 47 58 87 65 58 70 11 86 76 48 73 48 54 63 65 39 37 56 20 35 12 69 50 57 61 38 65 11 37 64 60 49 57 40 60 27 34 57 50 21 23 27 28 30 29 35 8 55 34 59 51 62 58 64 72 45 27 65 61 76 91 77 68 54 47 76 36 57 45 35 35 50 62 42 23 1 86 65 54 60 69 60 49 64 59 86 64 28 30 70 19 74 30 86 38 24 63 65 53 76 74 28 61 64 50 18 33 9 88 59 39 69 78 61 74 26 14 51 69 63 70 82 26 54 61 74 76 60 57 81 67 30 69 3 74 59 70 48 62 43 65 24 24 3 53 70 39 42 51 68 71 13 25 6 80 67 33 44 41 24 57 61 32 56 35 52 50 1 44 31 47 66 29 63 26 30 56 61 42 50 22 65 37 0 10 26 12 18 59 67 39 52 23 42 65 27 49 24 28 49 57 45 20 40 39 57 74 97 70 10 61 53 78 27 22 60 38 33 27 66 13 27 37 90 61 23 64 54 57 46 46 44 53 44 53 43 72 54 62 59 54 44 43 63 72 70 81 64 48 68 71 43 42 46 63 70 67 67 82 72 48 62 29 33 67 70 28 67 47 11 63 75 90 64 26 59 65 67 30 63 19 48 47 62 39 54 45 65 23 40 72 68 83 70 67 26 32 52 43 52 15 62 37 42 73 25 44 45 53 43 55 17 46 49 22 17 25 68 35 32 59 59 40 28 53 34 30 38 34 57 14 47 24 12 11 52 54 41 63 43 59 67 51 34 35 57 41 38 33 56 37 46 59 62 89 49 59 63 50 78 29 36 46 60 28 60 64 18 28 59 67 36 40 69 30 52 9 8 48 38 63 63 13 51 51 32 55 54 33 56 57 58 72 71 60 16 34 82 51 42 58 71 68 69 29 60 52 68 42 36 53 42 41 34 45 34 58 51 66 70 22 10 44 65 68 54 52 61 51 47 52 56 52 50 67 29 31 71 55 73 65 44 28 43 53 52 48 17 26 63 27 77 14 13 55 47 45 30 9 34 16 11 23 7 72 54 31 3 56 41 24 40 12 26 48 53 35 16 52 8 43 19 36 54 41 47 29 47 31 38 28 36 55 51 72 42 38 27 28 41 43 82 51 61 70 42 72 45 42 23 69 50 38 69 24 14 21 21 13 29 64 49 58 39 2 62 25 43 70 13 37 62 46 34 57 62 55 53 28 17 56 60 4 69 63 52 26 59 56 47 22 57 9 44 60 29 48 31 54 21 55 18 37 58 58 33 36 41 32 38 27 26 52 68 74 71 63 31 52 31 48 62 31 27 44 6 51 51 40 15 45 71 55 47 17 60 59 45 52 33 23 43 43 26 3 16 29 12 30 44 28 35 45 13 36 46 38 28 16 23 40 2 37 14 18 45 50 27 13 20 54 9 9 11 23 13 10 39 47 21 44 70 60 34 20 12 36 48 78 54 55 66 27 22 21 15 37 66 56 36 59 32 23 35 8 33 0 24 63 48 25 2 39 43 38 55 31 23 60 54 35 33 53 27 30 37 44 49 56 7 32 47 42 20 46 32 23 16 43 21 22 43 37 45 32 42 30 42 17 11 48 54 18 35 41 21 2 26 10 26 59 48 49 35 25 54 27 32 42 32 20 38 28 29 39 40 39 32 32 56 41 11 48 22 14 11 22 26 15 43 6 12 11 11 30 28 35 12 13 6 11 38 44 30 20 20 8 9 27 28 3 17 43 42 26 2 1 35 5 16 11 31 33 26 41 46 29 23 32 47 74 12 35 30 55 64 22 24 60 16 1 21 7 18 35 52 36 34 31 8 40 29 39 19 12 33 12 42 22 3 21 36 22 32 4 25 28 23 35 24 14 19 25 38 16 38 4 43 4 20 45 37 2 30 0 23 25 20 16 33 23 29 30 26 17 30 16 44 29 2 21 25 23 1 3 18 38 1 14 11 16 0 32 15 26 18 3 20 36 14 21 18 17 24 14 15 46 9 10 27 35 13 18 16 7 13 13 26 9 9 0 16 0 10 9 0 17 14 27 20 17 0 24 7 0 2 11 12 11 15 15 24 15 4 1 10 2 33 30 40 37 30 34 47 37 0 35 86 30 45 8 54 7 49 36 43 13 15 28 5 18 10 39 4 10 26 8 24 16 13 20 4 2 8 34 11 6 7 13 10 2 30 9 26 6 26 14 3 15 18 16 12 7 8 44 17 25 31 14 13 25 15 22 15 25 17 23 3 16 23 4 23 8 0 10 1 17 7 1 5 28 12 12 34 16 11 11 9 3 16 18 15 21 10 18 5 13 14 6 17 8 8 17 28 19 15 27 17 1 16 16 10 3 2 16 17 11 0 17 6 9 11 19 8 23 23 1 12 3 14 17 5 7 7 17 13 7 4 19 3 2 5 5 21 46 27 41 34 11 35 35 37 14 43 80 31 39 21 32 44 39 32 31 25 16 17 15 17 7 31 21 4 23 10 1 14 20 0 10 12 15 2 34 27 11 24 10 10 26 12 14 11 8 3 0 7 11 30 15 15 18 32 19 27 7 5 12 6 23 33 12 10 13 12 3 18 10 11 26 6 15 12 12 19 20 17 18 38 1 14 11 11 10 24 10 20 9 21 18 35 18 6 10 6 2 19 10 18 9 18 9 19 11 27 16 5 14 1 14 11 9 7 4 3 13 8 13 8 2 12 23 11 16 18 0 6 13 15 7 1 1 12 2 8 1 8 0 21 7 13 8 41 24 25 23 11 21 16 30 20 23 47 38 14 8 9 52 35 9 8 13 25 0 27 18 2 14 6 11 17 1 16 33 18 4 13 22 11 17 40 43 15 27 4 3 8 11 34 33 9 31 0 7 9 34 33 29 5 16 21 29 5 6 18 31 1 32 23 0 2 30 12 24 27 27 6 2 4 20 30 10 19 22 7 33 2 26 40 29 43 1 13 16 25 14 15 31 20 18 13 0 11 19 26 31 8 10 13 18 6 30 22 13 12 14 9 0 21 10 1 1 19 12 4 2 1 2 26 19 3 7 8 3 20 13 7 2 3 19 12 22 0 12 4 25 12 14 10 33 3 23 19 18 8 8 28 20 6 1 0 5 6 9 38 15 12 32 12 34 16 18 19 11 2 4 17 6 5 3 31 0 15 8 6 17 31 28 36 18 7 14 0 17 4 24 31 12 28 8 9 6 8 32 27 7 14 26 13 19 19 20 37 18 31 27 10 0 28 6 11 9 14 16 9 21 16 27 13 10 4 18 18 10 3 41 1 37 35 8 24 19 9 23 9 17 13 11 0 9 5 17 25 28 19 27 21 5 17 17 9 8 17 10 16 15 1 5 3 11 10 1 2 3 1 23 6 9 9 4 1 14 7 13 6 6 22 10 7 11 12 0 3 11 14 16 17 12 43 33 6 1 9 27 20 22 19 14 12 11 29 0 9 17 35 37 19 24 2 4 12 3 1 29 1 7 13 8 7 4 19 1 26 32 11 8 8 8 1 2 19 1 28 14 4 1 10 5 10 11 26 35 11 11 14 1 22 25 18 13 15 21 24 23 27 17 15 27 24 4 14 40 31 4 23 15 15 8 5 8 15 22 0 0 2 16 20 25 6 9 20 1 17 10 3 8 0 25 2 18 14 15 20 6 11 13 23 13 10 15 8 26 16 8 13 1 6 12 5 0 10 3 1 14 9 12 6 3 3 3 13 5 5 12 6 16 19 15 7 16 2 2 12 7 11 43 28 9 8 27 16 12 12 21 3 3 3 10 9 9 12 1 21 5 18 10 8 7 17 5 31 9 5 14 1 10 3 25 23 11 12 2 24 31 27 4 2 4 28 52 26 7 19 18 2 32 18 7 26 25 22 10 11 2 23 19 0 0 23 8 11 36 5 13 7 13 7 11 39 16 12 19 22 38 31 15 3 22 41 27 5 14 27 29 7 14 7 5 3 42 48 33 17 3 18 7 34 12 23 8 3 13 26 23 16 5 12 2 31 22 29 7 2 6 14 11 8 21 4 10 33 3 3 10 11 12 7 10 1 2 23 9 22 16 25 12 21 15 3 23 7 7 35 26 24 8 31 12 16 12 0 8 0 13 15 9 1 23 9 23 15 16 0 12 12 29 27 30 15 1 13 8 8 2 12 30 14 9 7 18 19 19 0 3 2 15 43 18 12 7 14 10 24 0 8 16 26 20 19 10 9 18 6 3 4 15 3 21 8 12 18 20 9 9 15 16 8 19 9 11 36 17 17 3 16 23 19 5 6 21 26 12 14 10 8 2 46 36 31 9 7 18 16 29 7 16 3 5 7 30 3 14 12 0 1 25 15 25 0 1 18 21 6 8 15 9 18 17 19 20 6 8 7 0 8 2 3 14 18 7 1 21 4 20 15 10 15 6 12 14 15 16 7 22 16 9 25 14 0 4 12 6 14 12 7 2 12 26 1 3 12 4 9 10 21 22 12 15 15 6 4 6 10 12 17 4 6 5 4 3 2 9 1 10 7 3 7 4 0 1 4 9 9 14 1 8 1 3 7 3 1 0 1 0 9 6 11 7 12 10 7 20 34 8 4 0 1 17 2 0 1 8 6 6 8 14 2 16 13 10 12 5 0 20 6 8 4 12 9 3 12 8 11 1 3 3 21 1 6 4 5 2 8 3 2 0 0 8 8 2 2 4 6 19 0 11 6 6 2 0 0 5 5 4 16 10 2 10 9 3 5 5 3 1 0 9 4 2 0 2 5 6 2 8 8 6 4 5 5 15 9 2 6 10 10 12 1 9 6 0 2 0 10 4 1 2 1 1 3 5 1 6 0 6 6 0 3 1 6 7 5 11 0 1 13 4 2 5 11 7 10 6 2 2 3 7 2 6 1 4 1 4 2 1 0 1 1 1 8 25 13 3 4 2 8 5 3 3 3 19 1 0 4 9 1 0 1 5 6 2 0 8 0 1 12 0 1 6 13 3 0 4 1 10 1 3 0 1 0 0 1 5 1 1 6 2 0 0 0 4 15 0 0 2 0 0 1 1 1 2 5 4 0 2 5 5 0 2 0 0 1 8 3 13 1 4 2 0 4 6 1 3 10 8 6 12 19 1 0 2 13 3 8 9 0 1 3 1 1 3 1 2 1 1 2 0 2 3 0 0 7 4 1 1 1 1 2 6 5 0 1 3 3 2 5 4 4 10 1 1 2 3 3 3 3 2 5 3 3 0 0 1 1 0 0 4 5 11 1 6 4 2 1 4 6 4 14 10 1 4 0 0 0 0 1 1 0 1 3 1 0 4 0 0 3 8 2 4 2 1 1 2 2 0 0 0 0 2 2 0 1 4 2 0 2 0 0 10 1 0 3 0 0 1 1 1 0 0 7 1 3 2 3 0 0 0 0 0 11 4 6 7 1 2 0 6 9 5 13 3 3 0 1 23 15 14 7 4 4 3 8 8 1 7 1 0 0 1 3 2 2 0 0 0 7 0 0 3 1 1 0 0 0 0 5 1 0 2 0 2 0 1 0 2 5 0 0 1 1 0 6 1 5 1 1 0 0 0 0 0 0 2 0 1 3 0 1 3 0 0 0 2 5 2 3 0 2 2 0 0 0 4 1 0 1 0 3 0 0 5 1 2 3 1 5 0 0 0 0 2 0 0 0 0 0 0 0 0 0 0 0 2 0 0 2 2 0 1 0 0 0 1 0 0 1 4 0 1 1 2 0 0 1 0 0 7 2 0 11 1 1 0 1 2 8 13 1 0 3 0 15 14 13 5 2 3 2 2 4 3 1 4 0 0 0 0 1 0 0 2 1 5 0 3 0 0 1 2 0 1 1 2 2 4 0 4 0 1 0 0 0 2 0 1 0 1 0 3 2 1 1 3 0 2 0 1 0 3 1 1 1 3 0 0 1 1 2 0 0 1 1 0 0 0 0 0 1 1 1 1 0 1 0 1 0 0 4 0 2 0 0 0 1 0 0 0 1 0 1 0 0 0 0 0 0 0 0 0 0 0 0 0 0 0 0 1 0 0 2 0 0 0 2 0 0 0 1 0 2 1 0 0 1 1 1 3 1 3 0 0 1 1 5 0 2 2 0 6 0 2 0 1 2 0 0 0 0 0 4 1 0 0 0 1 0 0 1 0 2 0 1 0 0 0 2 0 0 2 1 0 2 0 2 1 0 0 0 1 3 1 2 0 1 0 0 1 0 0 0 1 1 1 3 0 4 0 0 2 2 0 1 0 0 1 0 0 1 0 0 0 0 0 0 1 0 0 0 0 1 1 0 0 0 2 0 2 0 0 0 0 0 0 0 0 0 1 0 0 0 0 0 0 0 0 0 0 0 0 0 0 1 0 0 0 0 0 0 0 0 1 0 1 0 0 0 2 0 0 0 0 0 0 1 0 2 1 0 0 2 3 0 1 1 0 0 2 3 0 0 3 0 0 0 0 0 1 0 0 0 0 0 0 0 0 0 0 0 0 0 0 0 0 0 0 0 0 0 1 0 0 0 0 0 1 0 2 0 2 0 1 0 0 1 0 0 0 0 0 0 0 3 1 0 0 1 0 1 2 0 0 0 0 0 0 0 0 0 0 0 0 0 0 0 0 0 0 0 0 0 0 1 0 0 1 0 0 0 0 0 0 0 0 0 0 0 0 0 0 0 0 0 0 0 0 0 0 0 0 0 0 0 0 0 0 0 0 0 0 0 0 0 0 0 0 0 0 0 0 0 0 0 0 0 0 0 0 2 0 0 1 0 0 1 0 0 0 0 0 0 0 0 0 0 0 0 0 0 0 0 0 0 0 0 0 0 0 0 0 0 0 0 0 0 0 2 0 0 0 1 0 1 1 1 1 0 0 0 0 0 0 1 0 0 0 0 1 0 0 0 0 1 0 0 1 0 0 0 0 0 0 0 0 0 0 0 0 0 0 0 0 0 0 0 0 0 0 0 0 0 0 0 0 0 0 0 0 0 0 0 0 0 0 0 0 0 0 0 0 0 0 0 0 0 0 0 0 0 0 0 0 0 0 0 0 0 0 0 0 0 0 0 0 0 0 0 0 0 0 0 0 0 0 0 0 0 0 0 1 0 0 0 0 0 0 0 0 0 0 0 0 0 0 0 0 0 0 0 0 0 0 0 0 0 0 0 0 0 0 0 0 0 0 0 0 0 0 0 1 1 1 1 0 0 0 0 0 1 0 0 0 0 0 1 0 0 0 0 0 0 0 0 0 0 0 0 0 0 0 0 0 0 0 0 0 0 0 0 0 0 0 0 0 0 0 0 0 0 0 0 0 0 0 0 0 0 0 0 0 0 0 0 0 0 0 0 0 0 0 0 0 0 0 0 0 0 0 0 0 0 0 0 0 0 0 0 0 0 0 0 0 0 0 0 0 0 0 0 0 0 0 0 0 0 0 1 0 0 0 0 0 0 0 0 0 0 0 0 0 0 0 0 0 0 0 0 0 0 0 1 0 0 2 0 0 1 0 1 0 0 0 0 0 0 0 0 2 3 1 0 0 0 0 0 0 0 0 0 0 1 1 0 0 0 0 0 0 0 0 0 0 1 0 0 0 0 0 1 0 0 0 0 0 1 0 0 0 0 0 0 0 0 0 0 0 0 0 0 0 0 0 0 0 0 0 0 0 0 0 0 0 0 0 0 0 0 0 0 0 0 0 0 0 0 0 0 0 0 0 0 0 0 0 0 0 0 0 0 0 0 0 0 0 0 0 0 0 0 0 0 0 0 1 0 0 0 0 0 0 0 0 0 0 0 0 0 0 0 0 0 0 0 0 0 0 0 0 0 0 1 0 0 0 0 0 0 0 0 0 0 0 0 0 1 2 1 0 0 0 0 0 0 0 0 0 0 1 0 0 0 0 0 0 0 0 0 0 0 0 0 0 0 0 0 1 0 0 0 0 0 0 0 0 0 0 0 0 0 0 0 0 0 0 0 0 0 0 0 0 0 0 0 0 0 0 0 0 0 0 0 0 0 0 0 0 0 0 0 0 0 0 0 0 0 0 0 0 0 0 0 0 0 0 0 0 0 0 0 0 0 0 0 0 0 0 0 0 0 0 1 0 0 0 0 0 0 0 0 0 0 0 0 0 0 0 0 0 0 0 0 0 1 0 0 0 0 0 0 0 0 0 0 0 0 0 0 0 0 0 0 0 0 0 0 0 0 0 0 0 0 0 0 0 0 0 0 0 0 0 0 0 0 0 0 0 0 0 0 0 0 0 0 0 0 0 0 0 0 0 0 0 0 0 0 0 0 0 0 0 0 0 0 0 0 0 0 0 0 0 0 0 0 0 0 0 0 0 0 0 0 0 0 0 0 0 0 0 0 0 0 0 0 0 0 0 0 0 0 0 0 0 0 0 0 0 0 0 0 0 0 0 0 0 0 0 0 0 0 0 0 0 0 0 0 0 0 0 0 0 0 0 0 0 0 0 0 0 0 0 0 0 0 0 0 0 0 0 0 0 0 0 0 0 0 0 0 0 0 0 0 0 0 0 0 0 0 0 0 0 0 0 0 0 0 0 0 0 0 0 0 0 0 0 0 0 0 0 0 0 0 0 0 0 0 0 0 0 0 0 0 0 0 0 0 0 0 0 0 0 0 0 0 0 0 0 0 0 0 0 0 0 0 0 0 0 0 0 0 0 0 0 0 0 0 0 0 0 0 0 0 0 0 0 0 0 0 0 0 0 0 0 0 0 0 0 0 0 0 0 0 0 0 0 0 0 0 0 0 0 0 0 0 0 0 0 0 0 0 0 0 0 0 0 0 0 0 0 0 0 0 0 0 0 0 0 0 0 0 0 0 0 0 0 0 0 0 0 0 0 0 0 0 0 0 0 0 0 0 0 0 0 0 0 0 0 0 0 0 0 0 0 0 0 0 0 0 0 0 0 0 0 0 0 0 0 0 0 0 0 0 0 0 0 0 0 0 0 0 0 0 0 0 0 0 0 0 0 0 0 0 0 0 0 0 0 0 0 0 0 0 0 0 0 0 0 0 0 0 0 0 0 0 0 0 0 0 0 0 0 0 0 0 0 0 0 0 0 0 0 0 0 0 0 0 0 0 0 0 0 0 0 0 0 0 0 0 0 0 0 0 0 0 0 0 0 0 0 0 0 0 0 0 0 0 0 0 0 0 0 0 0 0 0 0 0 0 0 0 0 0 0 0 0 0 0 0 0 0 0 0 0 0 0 0 0 0 0 0 0 0 0 0 0 0 0 0 0 0 0 0 0 0 0 0 0 0 0 0 0 0 0 0 0 0 0 0 0 0 0 0 0 0 0 0 0 0 0 0 0 0 0 0 0 0 0 0 0 0 0 0 0 0 0 0 0 0 0 0 0 0 0 0 0 0 0 0 0 0 0 0 0 0 0 0 0 0 0 0 0 0 0 0 0 0 0 0 0 0 0 0 0 0 0 0 0 0 0 0 0 0 0 0 0 0 0 0 0 0 0 0 0 0 0 0 0 0 0 0 0 0 0 0 0 0 0 0 0 0 0 0 0 0 0 0 0 0 0 0 0 0 0 0 0 0 0 0 0 0 0 0 0 0 0 0 0 0 0 0 0 0 0 0 0 0 0 0 0 0 0 0 0 0 0 0 0 0 0 0 0 0 0 0 0 0 0 0 0 0 0 0 0 0 0 0 0 0 0 0 0 0 0 0 0 0 0 0 0 0 0 0 0 0 0 0 0 0 0 0 0 0 0 0 0 0 0 0 0 0 0 0 0 0 0 0 0 0 0 0 0 0 0 0 0 0 0 0 0 0 0 0 0 0 0 0 0 0 0 0 0 0 0 0 0 0 0 0 0 0 0 0 0 0 0 0 0 0 0 0 0 0 0 0 0 0 0 0 0 0 0 0 0 0 0 0 0 0 0 0 0 0 0 0 0 0 0 0 0 0 0 0 0 0 0 0 0 0 0 0 0 0 0 0 0 0 0 0 0 0 0 0 0 0 0 0 0 0 0 0 0 0 0 0 0 0 0 0 0 0 0 0 0 0 0 0 0 0 0 0 0 0 0 0 0 0 0 0 0 0 0 0 0 0 0 0 0 0 0 0 0 0 0 0 0 0 0 0 0 0 0 0 0 0 0 0 0 0 0 0 0 0 0 0 0 0 0 0 0 0 0 0 0 0 0 0 0 0 0 0 0 0 0 0 0 0 0 0 0 0 0 0 0 0 0 0 0 0 0 0 0 0 0 0 0 0 0 0 0 0 0 0 0 0 0 0 0 0 0 0 0 0 0 0 0 0 0 0 0 0 0 0 0 0 0 0 0 0 0 0 0 0 0 0 0 0 0 0 0 0 0 0 0 0 0 0 0 0 0 0 0 0 0 0 0 0 0 0 0 0 0 0 0 0 0 0 0 0 0 0 0 0 0 0 0 0 0 0 0 0 0 0 0 0 0 0 0 0 0 0 0 0 0 0 0 0 0 0 0 0 0 0 0 0 0 0 0 0 0 0 0 0 0 0 0 0 0 0 0 0 0 0 0 0 0 0 0 0 0 0 0 0 0 0 0 0 0 0 0 0 0 0 0 0 0 0 0 0 0 0 0 0 0 0 0 0 0 0 0 0 0 0 0 0 0 0 0 0 0 0 0 0 0 0 0 0 0 0 0 0 0 0 0 0 0 0 0 0 0 0 0 0 0 0 0 0 0 0 0 0 0 0 0 0 0 0 0 0 0 0 0 0 0 0 0 0 0 0 0 0 0 0 0 0 0 0 0 0 0 0 0 0 0 0 0 0 0 0 0 0 0 0 0 0 0 0 0 0 0 0 0 0 0 0 0 0 0 0 0 0 0 0 0 0 0 0 0 0 0 0 0 0 0 0 0 0 0 0 0 0 0 0 0 0 0 0 0 0 0 0 0 0 0 0 0 0 0 0 0 0 0 0 0 0 0 0 0 0 0 0 0 0 0 0 0 0 0 0 0 0 0 0 0 0 0 0 0 0 0 0 0 0 0 0 0 0 0 0 0 0 0 0 0 0 0 0 0 0 0 0 0 0 0 0 0 0 0 0 0 0 0 0 0 0 0 0 0 0 0 0 0 0 0 0 0 0 0 0 0 0 0 0 0 0 0 0 0 0 0 0 0 0 0 0 0 0 0 0 0 0 0 0 0 0 0 0 0 0 0 0 0 0 0 0 0 0 0 0 0 0 0 0 0 0 0 0 0 0 0 0 0 0 0 0 0 0 0 0 0 0 0 0 0 0 0 0 0 0 0 0 0 0 0 0 0 0 0 0 0 0 0 0 0 0 0 0 0 0 0 0 0 0 0 0 0 0 0 0 0 0 0 0 0 0 0 0 0 0 0 0 0 0 0 0 0 0 0 0 0 0 0 0 0 0 0 0 0 0 0 0 0 0 0 0 0 0 0 0 0 0 0 0 0 0 0 0 0 0 0 0 0 0 0 0 0 0 0 0 0 0 0 0 0 0 0 0 0 0 0 0 0 0 0 0 0 0 0 0 0 0 0 0 0 0 0 0 0 0 0 0 0 0 0 0 0 0 0 0 0 0 0 0 0 0 0 0 0 0 0 0 0 0 0 0 0 0 0 0 0 0 0 0 0 0 0 0 0 0 0 0 0 0 0 0 0 0 0 0 0 0 0 0 0 0 0 0 0 0 0 0 0 0 0 0 0 0 0 0 0 0 0 0 0 0 0 0 0 0 0 0 0 0 0 0 0 0 0 0 0 0 0 0 0 0 0 0 0 0 0 0 0 0 0 0 0 0 0 0 0 0 0 0 0 0 0 0 0 0 0 0 0 0 0 0 0 0 0 0 0 0 0 0 0 0 0 0 0 0 0 0 0 0 0 0 0 0 0 0 0 0 0 0 0 0 0 0 0 0 0 0 0 0 0 0 0 0 0 0 0 0 0 0 0 0 0 0 0 0 0 0 0 0 0 0 0 0 0 0 0 0 0 0 0 0 0 0 0 0 0 0 0 0 0 0 0 0 0 0 0 0 0 0 0 0 0 0 0 0 0 0 0 0 0 0 0 0 0 0 0 0 0 0 0 0 0 0 0 0 0 0 0 0 0 0 0 0 0 0 0 0 0 0 0 0 0 0 0 0 0 0 0 0 0 0 0 0 0 0 0 0 0 0 0 0 0 0 0 0 0 0 0 0 0 0 0 0 0 0 0 0 0 0 0 0 0 0 0 0 0 0 0 0 0 0 0 0 0 0 0 0 0 0 0 0 0 0 0 0 0 0 0 0 0 0 0 0 0 0 0 0 0 0 0 0 0 0 0 0 0 0 0 0 0 0 0 0 0 0 0 0 0 0 0 0 0 0 0 0 0 0 0 0 0 0 0 0 0 0 0 0 0 0 0 0 0 0 0 0 0 0 0 0 0 0 0 0 0 0 0 0 0 0 0 0 0 0 0 0 0 0 0 0 0 0 0 0 0 0 0 0 0 0 0 0 0 0 0 0 0 0 0 0 0 0 0 0 0 0 0 0 0 0 0 0 0 0 0 0 0 0 0 0 0 0 0 0 0 0 0 0 0 0 0 0 0 0 0 0 0 0 0 0 0 0 0 0 0 0 0 0 0 0 0 0 0 0 0 0 0 0 0 0 0 0 0 0 0 0 0 0 0 0 0 0 0 0 0 0 0 0 0 0 0 0 0 0 0 0 0 0 0 0 0 0 0 0 0 0 0 0 0 0 0 0 0 0 0 0 0 0 0 0 0 0 0 0 0 0 0 0 0 0 0 0 0 0 0 0 0 0 0 0 0 0 0 0 0 0 0 0 0 0 0 0 0 0 0 0 0 0 0 0 0 0 0 0 0 0 0 0 0 0 0 0 0 0 0 0 0 0 0 0 0 0 0 0 0 0 0 0 0 0 0 0 0 0 0 0 0 0 0 0 0 0 0 0 0 0 0 0 0 0 0 0 0 0 0 0 0 0 0 0 0 0 0 0 0 0 0 0 0 0 0 0 0 0 0 0 0 0 0 0 0 0 0 0 0 0 0 0 0 0 0 0 0 0 0 0 0 0 0 0 0 0 0 0 0 0 0 0 0 0 0 0 0 0 0 0 0 0 0 0 0 0 0 0 0 0 0 0 0 0 0 0 0 0 0 0 0 0 0 0 0 0 0 0 0 0 0 0 0 0 0 0 0 0 0 0 0 0 0 0 0 0 0 0 0 0 0 0 0 0 0 0 0 0 0 0 0 0 0 0 0 0 0 0 0 0 0 0 0 0 0 0 0 0 0 0 0 0 0 0 0 0 0 0 0 0 0 0 0 0 0 0 0 0 0 0 0 0 0 0 0 0 0 0 0 0 0 0 0 0 0 0 0 0 0 0 0 0 0 0 0 0 0 0 0 0 0 0 0 0 0 0 0 0 0 0 0 0 0 0 0 0 0 0 0 0 0 0 0 0 0 0 0 0 0 0 0 0 0 0 0 0 0 0 0 0 0 0 0 0 0 0 0 0 0 0 0 0 0 0 0 0 0 0 0 0 0 0 0 0 0 0 0 0 0 0 0 0 0 0 0 0 0 0 0 0 0 0 0 0 0 0 0 0 0 0 0 0 0 0 0 0 0 0 0 0 0 0 0 0 0 0 0 0 0 0 0 0 0 0 0 0 0 0 0 0 0 0 0 0 0 0 0 0 0 0 0 0 0 0 0 0 0 0 0 0 0 0 0 0 0 0 0 0 0 0 0 0 0 0 0 0 0 0 0 0 0 0 0 0 0 0 0 0 0 0 0 0 0 0 0 0 0 0 0 0 0 0 0 0 0 0 0 0 0 0 0 0 0 0 0 0 0 0 0 0 0 0 0 0 0 0 0 0 0 0 0 0 0 0 0 0 0 0 0 0 0 0 0 0 0 0 0 0 0 0 0 0 0 0 0 0 0 0 0 0 0 0 0 0 0 0 0 0 0 0 0 0 0 0 0 0 0 0 0 0 0 0 0 0 0 0 0 0 0 0 0 0 0 0 0 0 0 0 0 0 0 0 0 0 0 0 0 0 0 0 0 0 0 0 0 0 0 0 0 0 0 0 0 0 0 0 0 0 0 0 0 0 0 0 0 0 0 0 0 0 0 0 0 0 0 0 0 0 0 0 0 0 0 0 0 0 0 0 0 0 0 0 0 0 0 0 0 0 0 0 0 0 0 0 0 0 0 0 0 0 0 0 0 0 0 0 0 0 0 0 0 0 0 0 0 0 0 0 0 0 0 0 0 0 0 0 0 0 0 0 0 0 0 0 0 0 0 0 0 0 0 0 0 0 0 0 0 0 0 0 0 0 0 0 0 0 0 0 0 0 0 0 0 0 0 0 0 0 0 0 0 0 0 0 0 0 0 0 0 0 0 0 0 0 0 0 0 0 0 0 0 0 0 0 0 0 0 0 0 0 0 0 0 0 0 0 0 0 0 0 0 0 0 0 0 0 0 0 0 0 0 0 0 0 0 0 0 0 0 0 0 0 0 0 0 0 0 0 0 0 0 0 0 0 0 0 0 0 0 0 0 0 0 0 0 0 0 0 0 0 0 0 0 0 0 0 0 0 0 0 0 0 0 0 0 0 0 0 0 0 0 0 0 0 0 0 0 0 0 0 0 0 0 0 0 0 0 0 0 0 0 0 0 0 0 0 0 0 0 0 0 0 0 0 0 0 0 0 0 0 0 0 0 0 0 0 0 0 0 0 0 0 0 0 0 0 0 0 0 0 0 0 0 0 0 0 0 0 0 0 0 0 0 0 0 0 0 0 0 0 0 0 0 0 0 0 0 0 0 0 0 0 0 0 0 0 0 0 0 0 0 0 0 0 0 0 0 0 0 0 0 0 0 0 0 0 0 0 0 0 0 0 0 0 0 0 0 0 0 0 0 0 0 0 0 0 0 0 0 0 0 0 0 0 0 0 0 0 0 0 0 0 0 0 0 0 0 0 0 0 0 0 0 0 0 0 0 0 0 0 0 0 0 0 0 0 0 0 0 0 0 0 0 0 0 0 0 0 0 0 0 0 0 0 0 0 0 0 0 0 0 0 0 0 0 0 0 0 0 0 0 0 0 0 0 0 0 0 0 0 0 0 0 0 0 0 0 0 0 0 0 0 0 0 0 0 0 0 0 0 0 0 0 0 0 0 0 0 0 0 0 0 0 0 0 0 0 0 0 0 0 0 0 0 0 0 0 0 0 0 0 0 0 0 0 0 0 0 0 0 0 0 0 0 0 0 0 0 0 0 0 0 0 0 0 0 0 0 0 0 0 0 0 0 0 0 0 0 0 0 0 0 0 0 0 0 0 0 0 0 0 0 0 0 0 0 0 0 0 0 0 0 0 0 0 0 0 0 0 0 0 0 0 0 0 0 0 0 0 0 0 0 0 0 0 0 0 0 0 0 0 0 0 0 0 0 0 0 0 0 0 0 0 0 0 0 0 0 0 0 0 0 0 0 0 0 0 0 0 0 0 0 0 0 0 0 0 0 0 0 0 0 0 0 0 0 0 0 0 0 0 0 0 0 0 0 0 0 0 0 0 0 0 0 0 0 0 0 0 0 0 0 0 0 0 0 0 0 0 0 0 0 0 0 0 0 0 0 0 0 0 0 0 0 0 0 0 0 0 0 0 0 0 0 0 0 0 0 0 0 0 0 0 0 0 0 0 0 0 0 0 0 0 0 0 0 0 0 0 0 0 0 0 0 0 0 0 0 0 0 0 0 0 0 0 0 0 0 0 0 0 0 0 0 0 0 0 0 0 0 0 0 0 0 0 0 0 0 0 0 0 0 0 0 0 0 0 0 0 0 0 0 0 0 0 0 0 0 0 0 0 0 0 0 0 0 0 0 0 0 0 0 0 0 0 0 0 0 0 0 0 0 0 0 0 0 0 0 0 0 0 0 0 0 0 0 0 0 0 0 0 0 0 0 0 0 0 0 0 0 0 0 0 0 0 0 0 0 0 0 0 0 0 0 0 0 0 0 0 0 0 0 0 0 0 0 0 0 0 0 0 0 0 0 0 0 0 0 0 0 0 0 0 0 0 0 0 0 0 0 0 0 0 0 0 0 0 0 0 0 0 0 0 0 0 0 0 0 0 0 0 0 0 0 0 0 0 0 0 0 0 0 0 0 0 0 0 0 0 0 0 0 0 0 0 0 0 0 0 0 0 0 0 0 0 0 0 0 0 0 0 0 0 0 0 0 0 0 0 0 0 0 0 0 0 0 0 0 0 0 0 0 0 0 0 0 0 0 0 0 0 0 0 0 0 0 0 0 0 0 0 0 0 0 0 0 0 0 0 0 0 0 0 0 0 0 0 0 0 0 0 0 0 0 0 0 0 0 0 0 0 0 0 0 0 0 0 0 0 0 0 0 0 0 0 0 0 0 0 0 0 0 0 0 0 0 0 0 0 0 0 0 0 0 0 0 0 0 0 0 0 0 0 0 0 0 0 0 0 0 0 0 0 0 0 0 0 0 0 0 0 0 0 0 0 0 0 0 0 0 0 0 0 0 0 0 0 0 0 0 0 0 0 0 0 0 0 0 0 0 0 0 0 0 0 0 0 0 0 0 0 0 0 0 0 0 0 0 0 0 0 0 0 0 0 0 0 0 0 0 0 0 0 0 0 0 0 0 0 0 0 0 0 0 0 0 0 0 0 0 0 0 0 0 0 0 0 0 0 0 0 0 0 0 0 0 0 0 0 0 0 0 0 0 0 0 0 0 0 0 0 0 0 0 0 0 0 0 0 0 0 0 0 0 0 0 0 0 0 0 0 0 0 0 0 0 0 0 0 0 0 0 0 0 0 0 0 0 0 0 0 0 0 0 0 0 0 0 0 0 0 0 0 0 0 0 0 0 0 0 0 0 0 0 0 0 0 0 0 0 0 0 0 0 0 0 0 0 0 0 0 0 0 0 0 0 0 0 0 0 0 0 0 0 0 0 0 0 0 0 0 0 0 0 0 0 0 0 0 0 0 0 0 0 0 0 0 0 0 0 0 0 0 0 0 0 0 0 0 0 0 0 0 0 0 0 0 0 0 0 0 0 0 0 0 0 0 0 0 0 0 0 0 0 0 0 0 0 0 0 0 0 0 0 0 0 0 0 0 0 0 0 0 0 0 0 0 0 0 0 0 0 0 0 0 0 0 0 0 0 0 0 0 0 0 0 0 0 0 0 0 0 0 0 0 0 0 0 0 0 0 0 0 0 0 0 0 0 0 0 0 0 0 0 0 0 0 0 0 0 0 0 0 0 0 0 0 0 0 0 0 0 0 0 0 0 0 0 0 0 0 0 0 0 0 0 0 0 0 0 0 0 0 0 0 0 0 0 0 0 0 0 0 0 0 0 0 0 0 0 0 0 0 0 0 0 0 0 0 0 0 0 0 0 0 0 0 0 0 0 0 0 0 0 0 0 0 0 0 0 0 0 0 0 0 0 0 0 0 0 0 0 0 0 0 0 0 0 0 0 0 0 0 0 0 0 0 0 0 0 0 0 0 0 0 0 0 0 0 0 0 0 0 0 0 0 0 0 0 0 0 0 0 0 0 0 0 0 0 0 0 0 0 0 0 0 0 0 0 0 0 0 0 0 0 0 0 0 0 0 0 0 0 0 0 0 0 0 0 0 0 0 0 0 0 0 0 0 0 0 0 0 0 0 0 0 0 0 0 0 0 0 0 0 0 0 0 0 0 0 0 0 0 0 0 0 0 0 0 0 0 0 0 0 0 0 0 0 0 0 0 0 0 0 0 0 0 0 0 0 0 0 0 0 0 0 0 0 0 0 0 0 0 0 0 0 0 0 0 0 0 0 0 0 0 0 0 0 0 0 0 0 0 0 0 0 0 0 0 0 0 0 0 0 0 0 0 0 0 0 0 0 0 0 0 0 0 0 0 0 0 0 0 0 0 0 0 0 0 0 0 0 0 0 0 0 0 0 0 0 0 0 0 0 0 0 0 0 0 0 0 0 0 0 0 0 0 0 0 0 0 0 0 0 0 0 0 0 0 0 0 0 0 0 0 0 0 0 0 0 0 0 0 0 0 0 0 0 0 0 0 0 0 0 0 0 0 0 0 0 0 0 0 0 0 0 0 0 0 0 0 0 0 0 0 0 0 0 0 0 0 0 0 0 0 0 0 0 0 0 0 0 0 0 0 0 0 0 0 0 0 0 0 0 0 0 0 0 0 0 0 0 0 0 0 0 0 0 0 0 0 0 0 0 0 0 0 0 0 0 0 0 0 0 0 0 0 0 0 0 0 0 0 0 0 0 0 0 0 0 0 0 0 0 0 0 0 0 0 0 0 0 0 0 0 0 0 0 0 0 0 0 0 0 0 0 0 0 0 0 0 0 0 0 0 0 0 0 0 0 0 0 0 0 0 0 0 0 0 0 0 0 0 0 0 0 0 0 0 0 0 0 0 0 0 0 0 0 0 0 0 0 0 0 0 0 0 0 0 0 0 0 0 0 0 0 0 0 0 0 0 0 0 0 0 0 0 0 0 0 0 0 0 0 0 0 0 0 0 0 0 0 0 0 0 0 0 0 0 0 0 0 0 0 0 0 0 0 0 0 0 0 0 0 0 0 0 0 0 0 0 0 0 0 0 0 0 0 0 0 0 0 0 0 0 0 0 0 0 0 0 0 0 0 0 0 0 0 0 0 0 0 0 0 0 0 0 0 0 0 0 0 0 0 0 0 0 0 0 0 0 0 0 0 0 0 0 0 0 0 0 0 0 0 0 0 0 0 0 0 0 0 0 0 0 0 0 0 0 0 0 0 0 0 0 0 0 0 0 0 0 0 0 0 0 0 0 0 0 0 0 0 0 0 0 0 0 0 0 0 0 0 0 0 0 0 0 0 0 0 0 0 0 0 0 0 0 0 0 0 0 0 0 0 0 0 0 0 0 0 0 0 0 0 0 0 0 0 0 0 0 0 0 0 0 0 0 0 0 0 0 0 0 0 0 0 0 0 0 0 0 0 0 0 0 0 0 0 0 0 0 0 0 0 0 0 0 0 0 0 0 0 0 0 0 0 0 0 0 0 0 0 0 0 0 0 0 0 0 0 0 0 0 0 0 0 0 0 0 0 0 0 0 0 0 0 0 0 0 0 0 0 0 0 0 0 0 0 0 0 0 0 0 0 0 0 0 0 0 0 0 0 0 0 0 0 0 0 0 0 0 0 0 0 0 0 0 0 0 0 0 0 0 0 0 0 0 0 0 0 0 0 0 0 0 0 0 0 0 0 0 0 0 0 0 0 0 0 0 0 0 0 0 0 0 0 0 0 0 0 0 0 0 0 0 0 0 0 0 0 0 0 0 0 0 0 0 0 0 0 0 0 0 0 0 0 0 0 0 0 0 0 0 0 0 0 0 0 0 0 0 0 0 0 0 0 0 0 0 0 0 0 0 0 0 0 0 0 0 0 0 0 0 0 0 0 0 0 0 0 0 0 0 0 0 0 0 0 0 0 0 0 0 0 0 0 0 0 0 0 0 0 0 0 0 0 0 0 0 0 0 0 0 0 0 0 0 0 0 0 0 0 0 0 0 0 0 0 0 0 0 0 0 0 0 0 0 0 0 0 0 0 0 0 0 0 0 0 0 0 0 0 0 0 0 0 0 0 0 0 0 0 0 0 0 0 0 0 0 0 0 0 0 0 0 0 0 0 0 0 0 0 0 0 0 0 0 0 0 0 0 0 0 0 0 0 0 0 0 0 0 0 0 0 0 0 0 0 0 0 0 0 0 0 0 0 0 0 0 0 0 0 0 0 0 0 0 0 0 0 0 0 0 0 0 0 0 0 0 0 0 0 0 0 0 0 0 0 0 0 0 0 0 0 0 0 0 0 0 0 0 0 0 0 0 0 0 0 0 0 0 0 0 0 0 0 0 0 0 0 0 0 0 0 0 0 0 0 0 0 0 0 0 0 0 0 0 0 0 0 0 0 0 0 0 0 0 0 0 0 0 0 0 0 0 0 0 0 0 0 0 0 0 0 0 0 0 0 0 0 0 0 0 0 0 0 0 0 0 0 0 0 0 0 0 0 0 0 0 0 0 0 0 0 0 0 0 0 0 0 0 0 0 0 0 0 0 0 0 0 0 0 0 0 0 0 0 0 0 0 0 0 0 0 0 0 0 0 0 0 0 0 0 0 0 0 0 0 0 0 0 0 0 0 0 0 0 0 0 0 0 0 0 0 0 0 0 0 0 0 0 0 0 0 0 0 0 0 0 0 0 0 0 0 0 0 0 0 0 0 0 0 0 0 0 0 0 0 0 0 0 0 0 0 0 0 0 0 0 0 0 0 0 0 0 0 0 0 0 0 0 0 0 0 0 0 0 0 0 0 0 0 0 0 0 0 0 0 0 0 0 0 0 0 0 0 0 0 0 0 0 0 0 0 0 0 0 0 0 0 0 0 0 0 0 0 0 0 0 0 0 0 0 0 0 0 0 0 0 0 0 0 0 0 0 0 0 0 0 0 0 0 0 0 0 0 0 0 0 0 0 0 0 0 0 0 0 0 0 0 0 0 0 0 0 0 0 0 0 0 0 0 0 0 0 0 0 0 0 0 0 0 0 0 0 0 0 0 0 0 0 0 0 0 0 0 0 0 0 0 0 0 0 0 0 0 0 0 0 0 0 0 0 0 0 0 0 0 0 0 0 0 0 0 0 0 0 0 0 0 0 0 0 0 0 0 0 0 0 0 0 0 0 0 0 0 0 0 0 0 0 0 0 0 0 0 0 0 0 0 0 0 0 0 0 0 0 0 0 0 0 0 0 0 0 0 0 0 0 0 0 0 0 0 0 0 0 0 0 0 0 0 0 0 0 0 0 0 0 0 0 0 0 0 0 0 0 0 0 0 0 0 0 0 0 0 0 0 0 0 0 0 0 0 0 0 0 0 0 0 0 0 0 0 0 0 0 0 0 0 0 0 0 0 0 0 0 0 0 0 0 0 0 0 0 0 0 0 0 0 0 0 0 0 0 0 0 0 0 0 0 0 0 0 0 0 0 0 0 0 0 0 0 0 0 0 0 0 0 0 0 0 0 0 0 0 0 0 0 0 0 0 0 0 0 0 0 0 0 0 0 0 0 0 0 0 0 0 0 0 0 0 0 0 0 0 0 0 0 0 0 0 0 0 0 0 0 0 0 0 0 0 0 0 0 0 0 0 0 0 0 0 0 0 0 0 0 0 0 0 0 0 0 0 0 0 0 0 0 0 0 0 0 0 0 0 0 0 0 0 0 0 0 0 0 0 0 0 0 0 0 0 0 0 0 0 0 0 0 0 0 0 0 0 0 0 0 0 0 0 0 0 0 0 0 0 0 0 0 0 0 0 0 0 0 0 0 0 0 0 0 0 0 0 0 0 0 0 0 0 0 0 0 0 0 0 0 0 0 0 0 0 0 0 0 0 0 0 0 0 0 0 0 0 0 0 0 0 0 0 0 0 0 0 0 0 0 0 0 0 0 0 0 0 0 0 0 0 0 0 0 0 0 0 0 0 0 0 0 0 0 0 0 0 0 0 0 0 0 0 0 0 0 0 0 0 0 0 0 0 0 0 0 0 0 0 0 0 0 0 0 0 0 0 0 0 0 0 0 0 0 0 0 0 0 0 0 0 0 0 0 0 0 0 0 0 0 0 0 0 0 0 0 0 0 0 0 0 0 0 0 0 0 0 0 0 0 0 0 0 0 0 0 0 0 0 0 0 0 0 0 0 0 0 0 0 0 0 0 0 0 0 0 0 0 0 0 0 0 0 0 0 0 0 0 0 0 0 0 0 0 0 0 0 0 0 0 0 0 0 0 0 0 0 0 0 0 0 0 0 0 0 0 0 0 0 0 0 0 0 0 0 0 0 0 0 0 0 0 0 0 0 0 0 0 0 0 0 0 0 0 0 0 0 0 0 0 0 0 0 0 0 0 0 0 0 0 0 0 0 0 0 0 0 0 0 0 0 0 0 0 0 0 0 0 0 0 0 0 0 0 0 0 0 0 0 0 0 0 0 0 0 0 0 0 0 0 0 0 0 0 0 0 0 0 0 0 0 0 0 0 0 0 0 0 0 0 0 0 0 0 0 0 0 0 0 0 0 0 0 0 0 0 0 0 0 0 0 0 0 0 0 0 0 0 0 0 0 0 0 0 0 0 0 0 0 0 0 0 0 0 0 0 0 0 0 0 0 0 0 0 0 0 0 0 0 0 0 0 0 0 0 0 0 0 0 0 0 0 0 0 0 0 0 0 0 0 0 0 0 0 0 0 0 0 0 0 0 0 0 0 0 0 0 0 0 0 0 0 0 0 0 0 0 0 0 0 0 0 0 0 0 0 0 0 0 0 0 0 0 0 0 0 0 0 0 0 0 0 0 0 0 0 0 0 0 0 0 0 0 0 0 0 0 0 0 0 0 0 0 0 0 0 0 0 0 0 0 0 0 0 0 0 0 0 0 0 0 0 0 0 0 0 0 0 0 0 0 0 0 0 0 0 0 0 0 0 0 0 0 0 0 0 0 0 0 0 0 0 0 0 0 0 0 0 0 0 0 0 0 0 0 0 0 0 0 0 0 0 0 0 0 0 0 0 0 0 0 0 0 0 0 0 0 0 0 0 0 0 0 0 0 0 0 0 0 0 0 0 0 0 0 0 0 0 0 0 0 0 0 0 0 0 0 0 0 0 0 0 0 0 0 0 0 0 0 0 0 0 0 0 0 0 0 0 0 0 0 0 0 0 0 0 0 0 0 0 0 0 0 0 0 0 0 0 0 0 0 0 0 0 0 0 0 0 0 0 0 0 0 0 0 0 0 0 0 0 0 0 0 0 0 0 0 0 0 0 0 0 0 0 0 0 0 0 0 0 0 0 0 0 0 0 0 0 0 0 0 0 0 0 0 0 0 0 0 0 0 0 0 0 0 0 0 0 0 0 0 0 0 0 0 0 0 0 0 0 0 0 0 0 0 0 0 0 0 0 0 0 0 0 0 0 0 0 0 0 0 0 0 0 0 0 0 0 0 0 0 0 0 0 0 0 0 0 0 0 0 0 0 0 0 0 0 0 0 0 0 0 0 0 0 0 0 0 0 0 0 0 0 0 0 0 0 0 0 0 0 0 0 0 0 0 0 0 0 0 0 0 0 0 0 0 0 0 0 0 0 0 0 0 0 0 0 0 0 0 0 0 0 0 0 0 0 0 0 0 0 0 0 0 0 0 0 0 0 0 0 0 0 0 0 0 0 0 0 0 0 0 0 0 0 0 0 0 0 0 0 0 0 0 0 0 0 0 0 0 0 0 0 0 0 0 0 0 0 0 0 0 0 0 0 0 0 0 0 0 0 0 0 0 0 0 0 0 0 0 0 0 0 0 0 0 0 0 0 0 0 0 0 0 0 0 0 0 0 0 0 0 0 0 0 0 0 0 0 0 0 0 0 0 0 0 0 0 0 0 0 0 0 0 0 0 0 0 0 0 0 0 0 0 0 0 0 0 0 0 0 0 0 0 0 0 0 0 0 0 0 0 0 0 0 0 0 0 0 0 0 0 0 0 0 0 0 0 0 0 0 0 0 0 0 0 0 0 0 0 0 0 0 0 0 0 0 0 0 0 0 0 0 0 0 0 0 0 0 0 0 0 0 0 0 0 0 0 0 0 0 0 0 0 0 0 0 0 0 0 0 0 0 0 0 0 0 0 0 0 0 0 0 0 0 0 0 0 0 0 0 0 0 0 0 0 0 0 0 0 0 0 0 0 0 0 0 0 0 0 0 0 0 0 0 0 0 0 0 0 0 0 0 0 0 0 0 0 0 0 0 0 0 0 0 0 0 0 0 0 0 0 0 0 0 0 0 0 0 0 0 0 0 0 0 0 0 0 0 0 0 0 0 0 0 0 0 0 0 0 0 0 0 0 0 0 0 0 0 0 0 0 0 0 0 0 0 0 0 0 0 0 0 0 0 0 0 0 0 0 0 0 0 0 0 0 0 0 0 0 0 0 0 0 0 0 0 0 0 0 0 0 0 0 0 0 0 0 0 0 0 0 0 0 0 0 0 0 0 0 0 0 0 0 0 0 0 0 0 0 0 0 0 0 0 0 0 0 0 0 0 0 0 0 0 0 0 0 0 0 0 0 0 0 0 0 0 0 0 0 0 0 0 0 0 0 0 0 0 0 0 0 0 0 0 0 0 0 0 0 0 0 0 0 0 0 0 0 0 0 0 0 0 0 0 0 0 0 0 0 0 0 0 0 0 0 0 0 0 0 0 0 0 0 0 0 0 0 0 0 0 0 0 0 0 0 0 0 0 0 0 0 0 0 0 0 0 0 0 0 0 0 0 0 0 0 0 0 0 0 0 0 0 0 0 0 0 0 0 0 0 0 0 0 0 0 0 0 0 0 0 0 0 0 0 0 0 0 0 0 0 0 0 0 0 0 0 0 0 0 0 0 0 0 0 0 0 0 0 0 0 0 0 0 0 0 0 0 0 0 0 0 0 0 0 0 0 0 0 0 0 0 0 0 0 0 0 0 0 0 0 0 0 0 0 0 0 0 0 0 0 0 0 0 0 0 0 0 0 0 0 0 0 0 0 0 0 0 0 0 0 0 0 0 0 0 0 0 0 0 0 0 0 0 0 0 0 0 0 0 0 0 0 0 0 0 0 0 0 0 0 0 0 0 0 0 0 0 0 0 0 0 0 0 0 0 0 0 0 0 0 0 0 0 0 0 0 0 0 0 0 0 0 0 0 0 0 0 0 0 0 0 0 0 0 0 0 0 0 0 0 0 0 0 0 0 0 0 0 0 0 0 0 0 0 0 0 0 0 0 0 0 0 0 0 0 0 0 0 0 0 0 0 0 0 0 0 0 0 0 0 0 0 0 0 0 0 0 0 0 0 0 0 0 0 0 0 0 0 0 0 0 0 0 0 0 0 0 0 0 0 0 0 0 0 0 0 0 0 0 0 0 0 0 0 0 0 0 0 0 0 0 0 0 0 0 0 0 0 0 0 0 0 0 0 0 0 0 0 0 0 0 0 0 0 0 0 0 0 0 0 0 0 0 0 0 0 0 0 0 0 0 0 0 0 0 0 0 0 0 0 0 0 0 0 0 0 0 0 0 0 0 0 0 0 0 0 0 0 0 0 0 0 0 0 0 0 0 0 0 0 0 0 0 0 0 0 0 0 0 0 0 0 0 0 0 0 0 0 0 0 0 0 0 0 0 0 0 0 0 0 0 0 0 0 0 0 0 0 0 0 0 0 0 0 0 0 0 0 0 0 0 0 0 0 0 0 0 0 0 0 0 0 0 0 0 0 0 0 0 0 0 0 0 0 0 0 0 0 0 0 0 0 0 0 0 0 0 0 0 0 0 0 0 0 0 0 0 0 0 0 0 0 0 0 0 0 0 0 0 0 0 0 0 0 0 0 0 0 0 0 0 0 0 0 0 0 0 0 0 0 0 0 0 0 0 0 0 0 0 0 0 0 0 0 0 0 0 0 0 0 0 0 0 0 0 0 0 0 0 0 0 0 0 0 0 0 0 0 0 0 0 0 0 0 0 0 0 0 0 0 0 0 0 0 0 0 0 0 0 0 0 0 0 0 0 0 0 0 0 0 0 0 0 0 0 0 0 0 0 0 0 0 0 0 0 0 0 0 0 0 0 0 0 0 0 0 0 0 0 0 0 0 0 0 0 0 0 0 0 0 0 0 0 0 0 0 0 0 0 0 0 0 0 0 0 0 0 0 0 0 0 0 0 0 0 0 0 0 0 0 0 0 0 0 0 0 0 0 0 0 0 0 0 0 0 0 0 0 0 0 0 0 0 0 0 0 0 0 0 0 0 0 0 0 0 0 0 0 0 0 0 0 0 0 0 0 0 0 0 0 0 0 0 0 0 0 0 0 0 0 0 0 0 0 0 0 0 0 0 0 0 0 0 0 0 0 0 0 0 0 0 0 0 0 0 0 0 0 0 0 0 0 0 0 0 0 0 0 0 0 0 0 0 0 0 0 0 0 0 0 0 0 0 0 0 0 0 0 0 0 0 0 0 0 0 0 0 0 0 0 0 0 0 0 0 0 0 0 0 0 0 0 0 0 0 0 0 0 0 0 0 0 0 0 0 0 0 0 0 0 0 0 0 0 0 0 0 0 0 0 0 0 0 0 0 0 0 0 0 0 0 0 0 0 0 0 0 0 0 0 0 0 0 0 0 0 0 0 0 0 0 0 0 0 0 0 0 0 0 0 0 0 0 0 0 0 0 0 0 0 0 0 0 0 0 0 0 0 0 0 0 0 0 0 0 0 0 0 0 0 0 0 0 0 0 0 0 0 0 0 0 0 0 0 