P2
148 129
255
0 0 0 0 0 0 0 0 0 0 0 0 0 0 0 0 0 0 0 0 0 0 0 0 0 0 0 0 0 0 0 0 0 0 0 0 0 0 0 0 0 0 0 0 0 0 0 0 0 0 0 0 0 0 0 0 0 0 0 0 0 0 0 0 0 0 0 0 0 0 0 0 0 0 0 0 0 0 0 0 0 0 0 0 0 0 0 0 0 0 0 0 0 0 0 0 0 0 0 0 0 0 0 0 0 0 0 0 0 0 0 0 0 0 0 0 0 0 0 0 0 0 0 0 0 0 0 0 0 0 0 0 0 0 0 0 0 0 0 0 0 0 0 0 0 0 0 0 0 0 0 0 0 0 0 0 0 0 0 0 0 0 0 0 0 0 0 0 0 0 0 0 0 0 0 0 0 0 0 0 0 0 0 0 0 0 0 0 0 0 0 0 0 0 0 0 0 0 0 0 0 0 0 0 0 0 0 0 0 0 0 0 0 0 0 0 0 0 0 0 0 0 0 0 0 0 0 0 0 0 0 0 0 0 0 0 0 0 0 0 0 0 0 0 0 0 0 0 0 0 0 0 0 0 0 0 0 0 0 0 0 0 0 0 0 0 0 0 0 0 0 0 0 0 0 0 0 0 0 0 0 0 0 0 0 0 0 0 0 0 0 0 0 0 0 0 21 90 95 105 84 95 114 111 78 37 91 93 82 57 95 125 80 86 143 175 175 176 130 147 189 164 158 198 178 163 197 184 182 199 190 192 199 187 200 194 171 192 182 151 166 195 179 166 199 195 145 189 191 187 186 195 209 176 196 207 187 181 213 219 184 201 218 173 199 240 187 207 238 194 199 235 182 210 233 205 243 188 226 229 212 231 183 217 181 211 179 205 183 182 160 181 171 152 102 158 127 160 149 118 119 91 112 129 143 141 109 139 140 118 138 141 161 132 99 134 99 81 125 68 85 85 95 24 85 83 86 83 103 124 66 117 71 98 122 92 47 101 87 90 55 69 104 76 116 88 65 101 116 109 74 116 117 83 98 96 111 87 80 113 92 91 173 161 160 200 190 179 216 204 213 223 215 218 216 193 216 221 151 207 214 200 192 217 214 183 188 209 166 164 215 177 205 228 198 187 202 210 190 184 237 190 212 230 188 192 176 228 196 204 225 207 204 250 232 193 251 242 184 240 231 199 220 206 246 211 240 216 213 224 213 198 168 195 180 169 153 198 132 181 152 167 136 127 156 166 122 108 142 135 141 145 153 133 133 118 139 85 125 153 126 99 94 105 91 58 124 81 100 93 102 70 94 25 92 86 98 130 94 97 125 137 74 78 93 108 111 65 100 100 55 88 97 68 30 57 108 84 66 92 95 70 85 53 98 85 77 83 83 6 201 180 169 223 225 207 248 235 234 255 247 234 242 231 225 234 187 224 226 218 202 219 223 152 208 218 146 179 226 206 213 243 196 210 228 200 198 223 245 179 228 242 197 220 231 229 184 223 232 207 218 238 223 233 246 239 234 246 233 146 207 218 237 218 247 218 204 223 219 173 187 203 210 194 181 207 187 208 191 187 145 112 144 141 111 90 154 83 154 147 164 147 120 108 136 125 87 131 164 116 119 82 70 91 108 52 111 113 98 53 80 75 91 96 51 124 109 24 70 162 96 114 88 63 94 80 101 93 100 86 49 9 35 48 51 38 24 63 63 26 48 61 27 65 28 48 14 67 204 186 176 212 214 153 239 212 205 239 225 221 231 211 221 225 168 218 227 208 212 210 189 180 204 185 178 129 213 204 190 229 148 204 202 195 182 188 233 147 214 223 213 207 217 223 164 227 228 172 193 214 194 204 222 214 226 234 198 209 214 180 211 204 223 225 213 215 170 179 124 198 179 183 147 184 169 195 176 168 103 91 113 92 92 103 130 110 127 140 161 151 154 152 159 145 89 117 157 89 131 88 89 110 101 83 111 102 100 64 90 93 111 93 82 115 118 87 102 172 129 141 96 76 44 67 108 67 110 110 26 18 39 41 23 76 45 58 35 52 9 41 51 52 42 55 32 75 186 158 151 188 173 161 201 167 206 178 172 202 201 117 204 201 136 167 216 195 202 168 182 149 179 182 136 174 186 182 160 183 169 167 167 168 156 162 190 173 166 181 182 180 137 176 179 183 183 160 156 174 160 153 170 169 168 156 157 177 165 129 140 128 165 159 139 150 140 111 141 139 140 120 134 118 122 125 34 82 70 68 72 48 78 76 77 34 58 109 132 132 150 139 145 119 64 113 105 113 99 46 73 99 74 94 93 66 77 81 87 51 114 28 104 76 105 102 107 159 113 137 103 62 75 55 96 73 82 91 44 48 28 22 18 84 73 32 40 36 8 32 50 46 50 47 16 31 177 163 148 190 178 155 205 180 197 204 184 148 176 136 170 169 150 164 183 176 173 141 166 144 143 116 137 145 113 118 118 104 123 108 99 76 8 130 4 88 76 113 76 100 139 23 110 120 98 55 128 73 99 100 117 85 138 138 82 103 101 92 85 62 125 78 113 82 61 18 71 60 76 58 89 31 75 36 72 62 43 63 39 25 49 62 59 72 58 97 38 80 94 100 82 74 61 69 90 59 75 80 65 66 57 68 41 52 2 71 67 56 73 92 83 78 68 87 57 116 90 106 76 57 55 62 68 49 59 8 33 51 28 19 17 66 61 26 56 44 10 25 51 40 44 18 29 72 164 146 147 166 161 162 178 160 100 168 157 137 118 133 153 113 144 131 112 104 84 90 101 72 81 79 106 68 36 83 45 48 50 68 62 83 57 95 68 67 87 105 20 56 94 55 46 85 65 54 92 105 40 103 108 38 119 126 42 91 8 82 72 59 104 53 88 36 56 35 54 26 51 37 60 30 30 8 2 1 29 31 50 9 16 52 15 48 58 41 67 31 37 95 33 77 49 39 74 49 48 74 61 33 62 44 42 21 3 48 48 5 35 72 56 60 74 50 51 65 54 61 25 52 36 24 1 53 44 10 5 10 28 47 38 25 14 17 47 38 32 7 54 21 31 6 27 66 119 82 101 114 13 123 118 98 132 105 107 97 77 74 90 81 92 100 89 76 79 78 75 77 30 13 54 55 41 51 50 18 11 16 49 53 51 26 43 19 14 64 36 6 79 33 2 78 50 59 77 69 66 59 84 59 79 105 17 71 6 51 61 22 56 43 69 10 34 10 54 19 36 24 38 13 12 20 5 15 31 3 22 9 1 4 31 1 33 2 26 32 26 65 49 36 52 49 45 15 25 35 33 17 33 22 18 29 20 23 18 16 5 31 37 25 49 40 51 50 35 14 5 14 30 33 30 26 17 1 1 19 13 33 1 39 9 8 14 7 33 14 38 2 30 4 5 22 36 17 50 78 65 83 40 25 77 38 38 76 49 31 58 42 76 67 30 44 27 34 43 8 44 28 29 25 29 31 2 5 29 20 33 25 14 24 27 25 15 50 21 4 49 3 2 70 20 26 60 25 2 49 56 8 44 94 6 54 18 9 27 38 58 21 31 33 23 4 18 7 4 9 27 4 17 9 15 15 8 6 24 5 2 3 11 5 22 12 1 18 1 27 4 1 34 1 32 15 17 7 13 17 18 9 16 20 3 21 8 11 28 32 20 14 36 25 14 13 9 16 9 17 29 24 17 11 19 6 16 12 10 2 25 24 45 16 7 19 26 15 5 28 46 4 12 22 17 23 38 66 38 60 61 72 81 53 52 28 4 6 45 58 28 44 11 43 41 25 13 38 33 50 1 11 15 9 17 9 13 6 2 25 37 6 16 1 34 29 23 31 48 17 18 50 8 21 65 55 26 23 64 7 19 77 16 55 29 7 13 13 70 23 9 27 5 2 1 3 9 13 29 13 6 5 3 10 2 17 33 14 9 3 1 9 20 3 23 21 1 27 13 3 18 28 51 14 16 0 13 13 11 23 7 5 2 15 12 8 32 6 37 24 37 15 3 4 7 21 42 21 32 16 12 0 22 24 9 6 15 20 14 3 47 33 20 27 22 16 25 36 55 22 13 37 10 31 24 38 27 52 21 77 67 16 57 39 18 37 52 17 39 46 10 35 46 19 21 27 10 38 20 18 25 23 23 26 22 28 13 16 28 5 4 37 39 37 44 17 38 22 5 17 14 7 27 6 31 65 60 23 47 65 17 55 17 10 4 24 64 17 10 39 1 0 9 5 7 11 26 10 6 9 9 18 7 21 22 10 4 8 2 19 2 5 24 21 0 12 8 14 1 16 36 18 18 0 8 7 7 20 16 8 2 0 1 5 22 25 28 20 26 24 1 3 1 23 44 3 28 21 1 13 23 32 11 3 20 23 5 16 26 41 43 19 14 9 25 24 41 10 11 12 36 9 48 51 35 56 58 56 62 61 10 31 7 48 64 3 23 8 23 20 32 13 22 24 41 22 24 24 52 19 45 15 51 48 24 14 23 13 8 32 11 42 24 23 45 17 19 42 31 10 21 41 2 67 53 28 67 65 29 49 14 25 16 0 45 7 2 18 3 8 7 26 5 2 20 1 11 11 8 24 17 9 5 4 9 11 9 18 4 0 14 20 2 0 15 1 3 12 5 16 16 0 9 10 4 20 4 9 3 0 12 1 2 23 27 11 21 21 13 3 7 9 16 6 26 24 12 5 23 21 7 1 18 22 4 30 9 8 27 18 19 26 25 25 23 22 17 33 26 30 52 79 45 63 52 63 67 50 58 48 19 22 38 4 49 29 13 10 38 51 46 18 36 32 17 50 50 11 21 29 41 43 8 32 15 10 10 13 28 17 3 23 31 22 8 38 43 25 59 72 26 50 74 28 78 76 73 90 73 71 48 42 46 36 20 17 15 27 8 31 5 7 16 3 18 24 1 17 10 3 1 2 8 7 8 6 0 7 6 15 6 8 0 3 7 18 3 16 10 3 9 5 0 10 1 3 1 5 19 5 0 22 28 0 12 6 15 5 4 7 12 19 12 26 1 8 22 19 1 5 11 24 3 30 12 7 3 39 13 25 31 36 12 35 28 17 32 44 23 94 43 76 99 71 79 95 70 59 87 45 85 92 70 44 66 44 54 99 69 56 80 44 50 19 67 35 29 73 50 37 42 7 68 9 15 4 42 44 17 1 51 24 52 62 55 8 62 71 31 41 72 51 76 88 92 96 100 99 99 74 85 70 62 67 39 34 17 34 21 6 31 0 13 25 8 18 21 7 3 10 25 21 4 6 5 15 2 15 0 16 18 5 10 31 15 17 4 14 1 4 0 1 0 2 13 9 14 15 5 16 24 16 10 3 32 3 6 6 15 15 0 8 14 6 2 19 21 20 16 35 23 11 8 5 1 46 22 32 41 32 17 23 10 37 68 56 29 106 96 76 136 110 72 124 96 78 120 67 94 112 86 103 106 80 44 120 101 30 110 89 73 57 88 67 66 109 82 31 58 75 97 60 32 39 45 83 61 12 87 97 44 89 93 69 74 98 67 48 23 63 57 41 59 39 71 67 97 68 84 60 62 70 17 18 20 34 47 4 45 33 5 9 7 21 38 10 2 11 18 16 0 11 5 14 14 11 11 2 11 13 9 41 11 10 2 8 17 0 9 20 3 0 7 20 7 20 8 3 4 27 4 4 31 22 14 7 25 8 7 2 10 17 10 18 33 34 23 26 7 1 0 0 10 29 19 53 40 15 23 25 26 5 70 60 52 106 95 104 128 113 68 113 94 86 109 69 42 86 65 96 104 69 6 124 103 46 108 87 59 57 78 46 40 112 80 43 59 50 86 72 51 67 35 95 66 33 108 97 86 61 105 97 71 133 95 55 120 46 72 42 80 72 62 60 61 5 76 30 33 27 28 19 20 27 35 10 41 44 20 5 2 12 15 6 13 27 15 28 14 33 2 32 6 18 42 19 21 16 15 49 30 13 2 5 31 5 30 45 8 14 1 28 10 33 16 41 13 35 44 40 26 28 2 6 19 18 21 16 11 13 17 8 13 46 2 4 17 1 8 1 11 10 17 62 39 0 25 21 26 15 71 61 42 111 58 84 127 97 111 124 75 96 107 95 27 94 94 59 56 21 36 114 93 30 94 67 32 33 12 19 7 95 53 48 43 47 60 64 56 67 12 96 35 33 117 88 82 91 103 87 99 154 103 101 156 80 108 135 110 117 122 81 54 51 75 18 41 24 24 8 25 6 18 33 46 24 33 15 27 21 6 23 1 3 32 50 51 45 16 47 28 40 55 62 37 27 33 81 79 39 39 37 47 22 53 54 44 22 32 36 14 44 56 66 9 35 58 50 19 70 17 12 17 8 27 24 11 28 18 2 14 43 14 15 29 13 12 22 9 27 8 69 22 9 2 12 30 42 78 65 18 112 7 84 140 60 120 133 45 85 123 83 81 80 98 34 84 53 15 64 89 54 97 85 19 61 62 54 55 86 65 32 81 87 99 59 77 65 52 101 38 36 111 125 94 67 129 73 105 166 96 101 166 95 88 156 92 129 143 83 100 56 78 38 29 41 24 23 28 11 16 40 45 38 51 40 37 28 2 37 15 19 58 50 75 35 32 64 77 46 70 58 32 45 77 90 91 40 65 42 35 44 22 25 52 61 56 50 20 11 44 54 37 21 24 23 52 87 31 39 38 24 3 11 12 22 5 11 1 28 28 13 11 35 9 19 19 20 11 62 34 36 28 4 24 48 86 75 46 102 41 93 132 68 90 131 92 89 113 78 74 77 84 35 94 74 70 91 80 90 51 85 49 46 74 58 56 92 87 61 75 100 93 57 81 61 48 86 58 33 102 123 82 88 121 78 39 156 110 68 154 106 87 144 82 108 130 43 109 50 82 39 35 39 32 30 29 22 32 25 15 30 33 17 4 24 3 21 20 19 54 38 79 76 84 95 94 68 98 57 48 40 91 69 91 71 19 50 70 70 50 7 24 85 13 49 27 38 13 44 24 21 45 25 7 102 70 64 35 47 37 7 28 8 6 5 6 10 29 22 4 39 24 13 0 19 21 40 27 9 38 14 20 18 71 59 36 80 41 70 125 97 87 106 88 32 85 60 22 54 50 54 89 52 68 96 93 61 64 60 21 41 43 23 33 75 50 27 72 49 59 30 68 47 2 45 51 25 82 75 3 80 78 18 81 117 78 80 120 67 95 104 23 90 86 68 88 62 66 42 36 9 16 19 24 8 5 15 2 0 3 8 6 7 3 5 9 11 35 40 54 41 74 84 64 77 87 76 38 9 74 94 73 63 56 80 66 40 56 30 12 81 34 19 48 23 39 64 47 39 64 65 61 95 67 58 31 22 39 1 25 7 4 1 10 12 10 19 12 21 20 36 2 28 16 39 8 6 15 5 7 40 22 21 14 46 38 52 98 82 81 14 58 62 11 25 44 18 36 75 58 5 34 81 29 38 43 22 20 26 19 21 16 48 15 1 36 6 37 23 33 17 8 12 16 23 27 33 19 33 43 22 45 64 27 44 77 3 78 60 27 67 41 28 39 25 18 26 8 4 0 5 34 7 19 10 3 2 8 11 6 8 3 9 2 8 6 32 7 12 24 41 1 40 12 36 6 7 39 63 26 23 33 61 20 18 30 45 1 64 29 22 39 4 38 32 43 11 41 46 39 65 4 14 28 10 8 12 11 1 10 0 7 14 15 5 6 1 5 27 18 9 21 30 19 16 31 12 33 10 6 26 32 31 37 59 34 11 3 26 40 44 0 15 10 22 28 37 5 21 26 52 20 31 28 20 2 22 5 15 0 31 10 0 22 15 34 20 13 17 1 4 19 20 10 17 17 38 6 19 34 18 11 47 46 4 43 45 22 28 24 4 12 5 2 16 5 1 1 8 27 1 28 16 0 4 6 3 10 9 2 1 11 0 14 9 11 5 13 26 1 12 15 1 17 10 32 20 28 25 16 5 14 8 9 39 31 38 22 22 20 7 8 3 14 24 24 27 0 25 14 3 5 17 14 25 12 5 7 2 5 25 16 11 18 1 1 24 5 4 2 26 13 14 30 3 25 7 1 30 29 7 30 56 43 6 6 6 32 19 6 14 7 11 7 29 30 5 4 46 3 3 12 30 15 13 28 5 1 31 6 16 20 1 12 31 23 27 2 3 7 30 29 17 20 26 4 30 22 32 10 31 32 11 1 48 6 7 10 7 21 11 0 16 2 6 1 5 5 7 24 0 3 10 7 2 0 0 2 2 4 5 16 12 12 4 6 17 2 10 5 1 17 13 28 6 10 0 18 17 8 3 9 42 15 19 17 3 11 5 5 5 5 14 25 30 10 4 28 9 14 5 14 14 10 7 11 2 4 25 6 27 16 1 24 12 20 15 32 13 14 24 25 14 3 15 24 26 5 3 46 38 27 34 23 25 13 2 2 14 12 22 29 38 33 26 4 34 10 0 8 20 41 13 20 10 18 20 12 36 1 11 11 15 7 36 6 4 3 27 20 6 13 14 21 18 1 25 17 2 26 36 7 27 0 1 4 6 8 4 9 8 4 4 3 7 0 2 16 15 19 9 9 10 2 2 6 4 11 4 7 1 6 0 1 10 6 11 13 10 14 29 30 13 2 7 8 29 7 31 20 52 36 27 5 19 9 16 1 18 7 9 29 34 23 11 36 12 1 6 15 8 1 2 11 5 10 15 10 37 18 6 32 14 16 16 25 42 35 26 20 32 13 29 55 70 31 44 50 31 39 33 43 18 11 22 28 26 14 5 24 21 49 40 7 28 16 2 23 28 48 20 11 24 18 4 28 12 19 26 23 13 18 35 3 21 13 29 10 26 7 8 14 15 25 40 42 3 37 18 26 41 7 0 3 3 3 17 12 6 1 4 5 0 9 1 15 11 22 1 5 21 3 5 12 7 4 8 10 3 2 2 17 13 11 7 21 10 1 40 34 29 40 18 0 28 12 41 13 53 19 44 23 17 10 9 6 21 18 24 44 18 16 19 42 12 6 4 4 3 8 16 1 7 23 4 11 31 17 30 18 23 24 1 30 17 20 5 0 35 3 20 69 73 44 67 50 45 48 24 49 41 28 41 34 26 26 51 49 34 32 21 23 51 13 7 35 22 39 18 14 22 30 40 44 36 35 7 29 20 32 27 3 39 16 25 22 27 28 20 10 17 30 41 40 37 66 17 7 51 31 20 2 3 2 18 19 19 10 5 0 4 25 17 19 2 17 0 9 20 4 17 4 12 5 0 5 17 16 15 22 36 38 19 32 56 42 39 0 17 53 13 41 31 36 36 13 53 57 59 47 7 30 48 24 14 46 68 78 70 71 81 61 23 23 10 3 0 11 8 2 6 17 5 13 12 21 39 45 35 20 20 20 2 18 4 5 18 2 3 63 47 71 43 47 48 36 57 65 54 39 41 24 29 2 56 51 28 19 31 20 52 34 14 19 15 20 23 5 16 23 38 45 36 40 9 15 22 18 40 5 52 7 29 4 28 32 4 5 12 18 21 4 43 64 11 32 31 16 36 7 6 0 2 25 3 14 2 11 3 22 19 25 3 6 5 4 22 4 12 19 23 6 0 11 21 22 22 0 41 34 13 29 71 65 5 26 27 37 44 37 42 26 11 48 50 59 56 40 15 20 52 44 6 45 74 66 56 61 92 68 16 4 26 5 9 29 20 4 7 6 14 21 25 13 10 30 26 1 30 12 17 17 20 10 11 7 4 50 26 57 34 10 21 9 52 51 49 36 9 15 39 15 30 54 29 18 43 21 36 26 8 7 1 21 24 6 8 21 20 48 7 21 9 33 17 2 42 11 44 18 41 0 17 31 3 11 9 12 14 4 9 39 15 8 8 3 19 3 4 3 3 16 6 5 6 7 9 10 4 15 6 1 12 7 18 5 2 2 8 6 7 26 13 5 9 25 35 14 42 4 56 43 25 0 3 16 33 13 46 2 48 62 31 39 48 13 5 19 26 45 38 38 43 30 15 26 49 48 10 0 17 10 19 19 20 2 4 16 14 13 13 6 17 8 13 4 16 35 20 10 17 6 14 5 6 34 6 29 9 29 18 8 19 1 54 47 22 30 27 1 31 32 38 26 32 13 18 8 17 18 4 12 16 7 15 12 0 25 20 13 3 17 2 0 32 21 14 0 21 2 19 11 20 23 4 12 19 5 10 14 9 31 15 14 10 1 3 9 1 13 9 11 9 10 14 3 6 6 13 11 0 9 19 1 3 13 0 1 5 27 0 8 8 19 17 24 38 5 20 1 7 29 13 5 14 30 26 2 55 49 46 48 56 1 0 21 9 47 36 35 37 28 22 29 23 25 6 9 7 10 12 3 21 9 16 17 0 24 0 2 15 22 4 15 21 28 23 21 2 2 24 12 13 17 14 2 32 25 7 21 6 14 59 28 2 20 18 5 19 4 9 13 19 0 15 0 8 13 15 6 14 3 15 1 12 5 8 22 14 4 12 3 30 13 14 5 14 32 7 5 33 26 5 13 33 16 20 18 9 38 15 9 1 4 1 9 3 12 4 14 1 25 16 2 11 7 1 13 6 1 20 1 10 13 5 1 1 24 6 26 7 23 13 36 10 3 14 12 12 32 10 11 19 28 18 24 55 22 58 36 50 6 9 19 33 50 29 28 43 29 9 6 16 29 16 9 3 9 4 7 12 2 7 3 6 10 36 29 4 7 28 13 30 20 38 9 2 0 28 11 13 17 17 9 40 14 19 23 15 31 56 38 3 13 17 4 23 15 1 2 12 7 20 14 1 14 6 2 28 24 9 3 9 2 13 19 16 9 4 12 41 6 24 4 36 17 27 8 25 29 14 32 27 25 12 17 2 41 14 10 2 5 0 1 5 8 8 12 1 14 8 3 2 1 11 20 8 9 24 13 7 5 14 5 6 15 4 27 12 39 17 17 26 11 30 23 4 19 11 21 23 20 25 47 24 36 40 26 29 23 9 9 41 60 39 18 15 24 14 1 6 32 10 12 1 11 3 1 5 23 1 2 17 33 37 35 22 14 18 0 23 3 36 4 11 17 26 11 19 36 31 4 7 27 20 26 27 28 50 48 2 32 20 6 17 13 16 7 5 15 6 23 11 15 0 6 19 3 16 9 14 5 28 21 22 6 14 26 41 1 21 12 24 9 4 35 10 38 6 28 21 13 20 9 5 37 17 14 7 5 1 2 0 14 13 10 3 4 7 0 4 6 7 16 5 6 32 14 3 1 14 16 2 1 0 19 4 34 35 5 26 1 41 11 24 31 5 17 27 22 11 33 26 41 10 26 18 17 1 0 22 45 10 20 5 40 1 27 20 18 3 18 18 13 4 9 10 6 8 6 25 41 29 29 21 27 1 17 3 20 13 17 13 34 4 7 36 44 41 18 21 25 2 27 28 14 57 57 28 31 42 2 7 5 32 18 13 19 12 26 33 3 8 1 16 20 1 13 30 14 38 0 33 30 27 26 30 1 14 39 27 6 12 26 23 36 17 20 11 17 26 3 10 30 5 8 4 3 2 3 10 17 5 12 14 2 8 5 1 8 2 10 0 11 24 9 5 16 2 10 15 0 8 3 8 26 37 5 6 17 21 16 40 44 15 8 28 32 6 15 30 48 38 6 16 2 7 0 8 10 15 35 28 46 40 33 34 20 0 6 22 15 14 8 0 8 16 26 5 32 18 10 13 11 7 13 0 0 17 21 23 26 8 1 38 30 43 5 28 2 19 13 23 19 40 46 18 37 44 7 11 10 15 24 15 18 34 20 32 4 4 13 32 14 8 13 34 12 25 8 42 26 17 6 26 4 3 32 8 23 3 4 17 16 16 22 0 40 6 21 10 11 3 1 13 13 6 3 11 9 10 19 20 19 25 5 12 8 1 13 1 17 8 6 16 15 2 13 18 15 7 1 14 9 9 10 23 23 7 15 15 9 31 6 18 17 3 14 16 34 2 20 6 10 10 3 2 10 9 23 31 32 34 11 25 34 9 1 4 16 19 7 8 7 11 33 13 12 3 14 32 20 39 29 12 14 19 21 15 14 11 7 22 20 25 37 41 5 13 1 18 31 29 10 24 27 31 14 0 12 19 29 12 39 21 10 38 1 12 36 39 6 1 28 18 16 13 13 22 41 25 23 30 31 23 16 20 24 19 12 3 24 22 14 10 49 16 35 3 21 23 4 17 15 21 10 3 10 22 19 20 30 10 6 29 2 8 3 1 26 4 9 18 3 8 5 2 14 27 9 5 10 9 15 35 23 27 39 24 23 28 5 15 4 16 1 15 17 46 28 41 27 18 20 10 10 6 13 26 24 1 27 43 20 8 4 2 30 4 20 2 7 7 18 23 13 27 0 24 24 47 33 21 22 19 14 14 11 19 12 18 11 0 46 14 20 14 6 3 34 40 7 36 6 29 31 18 27 25 16 1 45 10 7 38 19 1 55 27 11 32 10 21 9 22 4 14 36 31 30 46 42 33 36 32 23 4 9 27 44 12 29 37 32 29 41 11 37 30 7 18 2 9 17 1 4 12 5 29 26 8 21 33 13 10 11 2 24 18 27 3 19 28 0 16 24 39 21 19 9 24 2 18 3 46 58 51 37 8 26 26 24 29 39 32 26 36 81 56 29 49 20 24 28 30 2 46 61 57 56 60 42 25 26 2 13 24 4 12 2 1 23 8 22 27 32 15 26 47 32 36 14 3 4 34 13 13 10 17 12 6 35 30 17 26 28 17 22 43 48 11 2 41 5 9 27 11 26 3 33 18 15 22 35 12 52 5 33 44 9 2 13 16 2 36 21 13 41 44 25 16 21 19 4 9 19 35 43 3 7 32 10 34 10 15 16 15 18 6 0 22 37 1 3 0 8 23 8 1 21 29 2 19 3 6 18 50 5 29 33 22 10 18 23 15 35 8 36 38 11 14 38 63 50 57 56 30 23 34 59 44 42 52 57 33 81 64 57 32 43 46 50 57 11 55 84 62 67 37 36 34 36 1 7 5 22 13 9 5 36 6 8 32 33 29 26 35 56 40 7 23 34 30 21 3 21 53 16 9 45 13 14 34 30 10 3 31 53 25 28 42 26 35 18 5 18 24 27 4 20 23 30 10 51 1 36 5 23 35 16 32 14 42 45 9 54 52 22 30 40 47 43 38 9 20 29 25 39 3 29 4 30 27 5 18 24 8 13 14 39 1 15 0 2 6 2 0 7 17 20 28 2 24 26 44 43 21 4 4 27 11 28 0 29 40 41 29 20 39 44 48 18 39 41 63 46 9 63 38 39 58 72 52 13 47 56 29 16 44 5 68 37 29 80 40 32 52 51 45 33 1 13 13 21 0 25 4 42 31 5 37 20 25 6 40 51 23 17 18 54 14 21 16 25 64 35 3 60 40 3 37 10 14 27 15 48 38 43 22 26 50 0 7 2 28 27 4 16 17 23 29 44 26 50 12 38 36 18 35 33 39 38 42 44 38 29 47 34 33 40 32 13 32 28 32 29 4 42 14 30 55 33 14 8 1 9 16 9 12 9 18 6 5 14 6 8 18 16 25 13 13 18 12 36 39 12 13 26 5 46 21 17 20 28 19 21 24 7 21 7 7 42 49 41 46 22 32 48 52 55 10 34 5 43 29 21 3 50 47 28 31 59 40 31 63 63 34 22 5 13 4 21 9 19 9 25 26 18 28 41 11 17 33 24 5 19 20 22 29 22 18 41 48 43 4 51 40 17 30 24 15 23 40 34 36 28 14 12 24 14 24 23 34 21 7 7 27 15 24 26 35 48 16 37 26 11 6 45 12 23 34 13 27 19 40 9 25 16 18 16 22 24 4 23 23 22 4 9 49 27 2 5 13 17 17 18 26 11 17 13 9 11 9 8 13 8 12 6 0 6 2 12 18 22 6 10 8 36 33 8 0 32 27 30 10 25 33 4 4 43 15 24 27 38 31 48 38 41 7 35 16 33 11 5 20 34 6 29 51 4 20 32 23 10 13 24 31 33 36 32 17 4 15 39 19 22 39 42 25 46 17 22 12 15 6 35 50 5 26 45 13 35 20 16 32 16 27 17 5 36 50 8 20 9 37 28 28 30 48 26 44 5 6 7 33 8 5 0 26 39 9 37 3 8 10 47 1 27 17 18 18 28 31 17 15 1 21 16 6 18 23 25 41 35 34 33 12 18 7 1 21 16 6 18 7 21 12 3 6 11 10 5 19 9 9 10 3 5 0 0 2 15 4 7 5 15 17 10 2 40 43 20 21 21 38 19 21 42 26 30 10 38 53 22 45 59 6 43 43 10 26 14 29 14 25 53 35 15 40 28 23 20 30 12 37 38 35 8 9 11 16 42 31 30 45 40 11 40 19 13 31 4 19 51 23 17 20 1 33 36 29 22 0 23 24 24 9 43 37 20 5 14 27 5 48 4 40 39 26 14 20 26 36 16 12 0 5 37 5 22 17 23 2 43 13 32 32 23 28 29 22 10 1 4 30 2 5 20 25 32 19 4 26 10 10 14 5 4 15 5 2 14 0 11 4 6 7 12 13 0 16 18 2 1 17 10 0 5 1 16 7 5 5 1 14 6 20 29 42 6 25 6 42 28 31 38 32 24 22 39 28 16 22 60 3 41 58 38 17 36 32 6 26 37 14 4 35 11 2 13 10 15 26 36 15 12 17 11 1 63 44 15 55 58 23 10 18 48 36 21 45 37 25 4 26 62 37 47 29 18 49 49 15 32 34 56 72 62 40 45 47 41 39 20 43 50 15 43 17 16 43 40 2 2 1 37 15 22 44 40 16 51 30 44 20 30 39 28 23 21 24 12 16 25 17 45 42 26 21 40 16 45 29 6 1 6 1 12 27 31 15 18 23 4 10 18 5 2 15 24 6 28 17 3 7 18 0 15 1 18 3 12 36 17 31 34 32 10 44 36 27 36 44 2 27 33 5 9 36 31 48 47 26 41 49 39 35 23 1 17 19 43 14 34 2 11 34 36 2 25 24 44 11 22 24 29 11 85 54 42 44 66 44 55 21 60 21 39 72 54 23 0 51 81 64 58 14 53 63 54 23 27 43 70 78 59 65 69 54 15 12 41 40 61 54 62 47 52 56 34 5 6 32 64 46 57 73 39 53 72 36 22 48 58 53 51 50 51 25 16 25 32 31 65 48 26 46 50 58 50 7 35 22 19 37 27 35 27 15 20 33 23 35 43 13 1 1 30 27 47 0 19 17 32 5 22 10 38 17 16 45 3 8 47 47 26 64 57 37 46 57 41 40 39 29 37 48 22 63 59 65 51 42 33 45 13 28 41 38 44 43 22 26 4 22 46 30 34 18 37 1 50 49 47 20 90 17 32 37 54 41 64 55 66 57 35 71 65 58 59 39 84 45 54 62 60 78 63 1 11 4 50 76 80 54 80 30 60 37 39 6 54 54 49 12 43 56 44 44 18 52 81 47 65 85 51 59 69 46 47 65 50 29 50 51 34 46 37 62 66 9 75 50 29 61 71 75 17 54 46 39 24 40 0 18 58 27 18 24 38 48 31 0 23 8 3 36 34 38 31 32 56 0 22 42 51 0 27 29 17 40 25 51 22 66 33 50 35 25 32 36 42 44 53 42 32 44 40 65 49 36 28 43 23 53 45 27 20 26 46 44 26 47 14 50 54 22 38 14 58 5 64 30 93 59 21 48 47 57 53 7 50 67 50 70 60 76 76 59 78 44 61 58 25 71 86 52 24 64 75 89 80 48 84 47 69 60 35 47 66 45 63 61 46 72 66 66 48 38 85 46 81 92 81 73 80 28 72 72 32 55 7 58 50 81 23 78 53 51 81 59 36 48 77 72 33 59 40 42 43 34 45 44 69 35 30 30 58 58 21 18 14 39 15 35 16 37 11 43 69 38 32 64 34 35 44 13 31 58 2 35 14 28 46 42 23 64 57 63 52 43 55 57 56 61 33 49 79 29 40 53 55 61 24 32 34 23 49 23 25 45 19 43 62 27 49 36 72 65 74 35 87 78 41 56 59 45 76 77 79 76 67 40 62 79 72 82 46 16 49 50 74 25 93 66 47 96 59 99 66 88 62 82 28 4 64 78 4 85 38 67 51 79 87 63 73 68 78 80 79 98 80 65 86 32 78 80 67 73 47 80 77 80 62 88 84 60 83 71 75 65 50 92 70 78 46 49 49 41 55 71 60 17 71 60 60 70 25 14 28 47 43 36 59 35 23 48 55 43 57 52 9 38 73 4 39 46 5 67 41 64 37 64 64 56 80 74 35 61 50 55 36 68 61 81 86 57 34 60 60 42 62 55 77 65 43 31 32 42 9 34 70 17 47 27 83 78 74 33 54 84 57 77 58 66 54 67 88 89 36 77 78 91 91 56 63 61 57 12 88 46 95 66 53 100 74 87 74 97 71 59 82 54 44 75 11 82 60 65 32 74 81 39 83 56 73 75 50 74 64 43 64 20 70 67 47 44 27 84 60 57 70 88 80 43 66 55 95 88 53 90 21 62 74 50 49 49 54 63 37 22 72 35 33 49 4 7 52 47 50 33 61 58 4 23 36 18 42 29 34 20 68 41 60 30 22 69 45 63 51 58 55 50 55 50 62 53 67 27 36 55 65 72 53 69 37 32 35 26 84 41 83 67 57 50 65 61 29 32 60 75 30 13 62 36 75 18 74 88 44 76 76 81 59 65 77 82 14 95 68 69 65 65 58 77 48 53 76 58 93 41 57 91 83 76 72 55 74 4 72 30 26 70 16 52 85 50 60 55 67 44 69 61 35 78 8 50 69 42 66 59 22 17 57 55 53 64 35 31 50 62 53 52 50 43 86 46 39 64 39 46 52 41 23 60 66 50 57 16 57 34 34 20 26 5 59 59 53 38 29 66 25 33 51 28 24 16 27 2 45 31 54 61 18 56 47 32 56 46 49 17 3 35 49 38 44 68 37 34 46 22 28 69 39 44 43 15 79 69 51 79 29 20 80 31 16 56 10 84 11 29 61 62 26 52 79 87 34 25 60 80 52 74 69 75 47 74 86 73 80 75 56 65 61 55 49 44 82 47 52 57 53 63 44 57 53 39 42 10 78 74 74 39 86 41 51 41 62 40 51 80 80 82 36 37 51 47 84 66 56 72 80 56 49 21 42 73 43 36 57 37 77 63 50 71 67 20 20 52 68 78 39 65 69 17 65 26 40 22 36 53 50 40 49 64 44 45 48 69 35 37 47 27 27 40 38 27 40 29 44 66 41 45 36 41 29 34 53 58 28 44 33 52 44 73 58 55 12 58 30 70 41 6 49 60 63 52 12 65 80 50 74 59 75 67 30 68 31 26 61 34 34 66 73 78 50 75 56 48 35 59 67 74 26 42 82 29 72 66 34 57 45 50 56 35 65 55 64 46 37 36 74 32 72 48 42 17 88 72 82 29 62 36 65 16 60 40 25 67 75 78 60 42 49 45 74 39 31 66 74 58 56 32 34 68 46 9 45 35 63 49 62 64 81 1 46 39 43 66 45 67 57 11 35 15 22 30 44 60 30 57 51 49 12 30 42 33 44 17 55 25 34 57 24 48 26 39 54 34 54 24 33 33 19 34 40 67 59 48 54 34 55 61 56 44 26 41 49 69 6 41 19 53 32 38 33 71 95 67 58 46 73 48 12 14 46 27 60 15 9 54 78 56 38 60 39 64 48 75 65 48 56 35 65 54 36 56 62 45 26 33 60 37 54 16 28 46 18 45 85 68 71 66 50 32 62 74 64 33 21 23 59 28 67 9 54 55 77 47 62 66 65 10 28 55 29 34 67 65 51 48 7 73 52 30 6 34 29 44 44 32 77 51 57 44 61 12 34 66 26 19 14 17 5 19 36 43 43 36 25 9 16 20 22 0 17 29 52 21 52 48 24 29 9 23 30 15 46 23 28 6 47 30 19 56 55 28 46 39 29 31 44 29 9 35 24 51 36 23 37 35 12 40 32 68 68 30 37 27 35 39 35 25 34 46 43 24 30 6 71 64 36 39 46 55 23 66 2 1 26 39 51 37 53 70 37 54 31 38 47 49 16 46 6 6 14 42 75 60 52 40 55 42 32 57 36 10 9 8 31 18 54 56 53 56 56 21 46 64 42 0 41 54 1 7 41 47 45 47 42 57 54 11 14 15 17 54 29 6 57 50 40 5 49 18 7 39 34 8 12 27 17 14 26 6 40 12 1 16 16 17 20 5 0 28 19 12 39 34 23 19 17 0 12 0 15 4 15 2 37 8 4 33 17 34 6 26 5 9 1 55 45 44 46 31 6 50 34 20 16 23 26 33 23 1 47 45 35 47 32 7 22 48 36 40 1 19 47 50 6 23 18 21 30 29 34 2 6 35 12 15 7 50 40 13 35 35 10 22 13 49 0 24 42 54 61 52 36 4 12 52 24 8 18 15 18 4 8 38 5 32 22 40 44 19 9 41 32 13 42 18 28 1 7 30 26 34 28 31 21 6 27 16 26 24 28 22 20 27 28 11 18 5 18 1 26 8 5 10 7 1 8 3 1 3 9 6 5 13 9 0 0 7 3 10 22 6 2 20 1 15 26 5 2 4 11 23 3 4 3 10 22 34 11 9 0 31 7 51 28 1 66 59 53 48 42 35 36 23 46 57 54 39 26 24 16 25 7 19 11 26 4 22 3 7 9 31 3 5 6 9 30 20 20 23 5 11 5 4 29 44 34 28 6 34 25 22 3 46 3 37 36 48 70 26 22 21 3 31 20 11 35 19 24 28 26 18 23 8 12 27 38 32 11 4 4 30 25 4 14 10 14 32 0 25 14 22 11 4 11 28 27 10 8 9 12 6 25 17 8 15 15 11 3 0 6 5 11 8 1 0 10 5 3 6 9 1 3 3 3 1 1 8 15 0 9 16 1 25 14 31 8 6 30 28 29 1 15 8 6 25 8 25 19 34 17 31 28 27 73 64 61 52 32 33 7 21 43 67 59 27 39 5 0 8 3 19 1 18 1 14 23 5 27 7 22 3 1 9 31 29 15 26 18 5 19 3 30 50 32 24 12 18 26 30 20 32 28 35 10 16 52 6 2 30 0 28 36 22 30 24 15 28 13 7 10 16 24 34 6 29 3 5 8 21 16 5 16 0 12 21 17 13 10 31 0 7 9 19 16 12 19 15 15 10 31 25 4 31 8 19 6 3 9 19 10 4 1 13 11 6 0 2 9 3 0 5 2 1 0 10 19 0 16 17 14 22 10 30 1 5 23 35 31 4 4 2 3 15 6 17 14 10 27 27 10 23 40 41 36 42 6 16 16 7 22 26 21 8 28 15 6 9 13 19 4 18 10 9 24 7 34 31 31 4 5 18 22 34 7 15 25 19 33 17 27 38 26 16 5 24 34 28 37 19 17 41 0 36 44 9 8 33 6 44 47 11 0 11 11 17 2 24 33 0 31 21 12 14 8 13 18 22 20 6 26 4 18 34 16 7 2 38 4 9 23 28 18 16 18 38 18 14 33 15 15 35 0 5 8 4 21 36 14 7 7 8 16 5 1 7 3 11 6 6 4 10 3 14 18 2 4 2 28 10 26 26 19 2 2 37 9 9 4 8 0 4 14 5 7 0 22 27 4 29 14 5 13 13 10 1 21 16 35 11 11 5 5 15 6 32 20 11 1 20 8 5 14 10 0 29 18 13 28 21 18 28 2 2 8 42 24 4 32 6 25 10 2 26 22 22 33 0 15 29 26 1 32 3 10 24 2 35 37 7 11 0 20 19 8 12 15 0 20 4 36 7 4 26 11 6 9 18 27 6 21 44 19 13 15 19 18 17 39 24 4 1 27 46 37 1 24 11 0 19 1 1 7 1 22 23 15 7 5 2 13 10 3 5 2 4 10 7 11 16 0 11 7 0 3 19 17 8 9 12 26 24 5 19 16 12 10 15 1 5 24 2 14 15 17 18 8 4 4 5 23 3 3 12 5 4 24 0 5 2 6 6 12 16 16 1 8 5 17 5 10 5 20 21 14 21 33 15 24 21 13 5 10 44 27 18 2 19 17 13 18 16 23 10 17 25 24 1 32 9 5 2 22 12 20 40 20 1 9 14 12 21 17 5 1 26 13 9 36 16 25 8 21 27 6 25 7 8 38 50 10 4 13 0 16 13 30 1 4 19 11 24 28 23 26 14 8 0 5 2 8 4 11 6 4 0 1 8 4 10 5 9 4 0 6 4 11 7 5 8 3 3 7 9 4 6 5 11 4 11 2 16 11 25 3 16 0 0 23 5 16 11 17 11 0 10 9 1 23 1 5 13 2 9 4 8 18 2 10 16 31 7 17 2 8 13 19 19 17 15 10 11 36 32 23 2 21 15 27 10 21 39 20 16 26 36 15 15 36 48 15 25 18 36 20 32 39 10 13 15 34 27 17 33 24 1 18 27 15 34 35 18 18 34 0 33 1 13 39 36 28 40 26 35 7 22 32 44 13 14 24 3 6 22 32 17 0 32 29 26 27 32 30 2 0 5 8 1 8 1 5 8 13 6 6 7 4 5 17 13 9 3 2 6 12 0 6 3 3 17 5 8 0 3 15 18 11 0 7 37 19 17 17 4 11 5 15 11 20 15 1 22 7 22 8 9 30 9 1 11 12 9 4 15 22 13 13 19 34 19 24 5 3 19 15 16 4 26 22 6 33 16 1 7 7 4 22 5 25 25 0 3 17 20 22 7 29 48 0 26 24 19 30 28 39 9 0 28 18 17 0 8 18 8 9 21 15 24 28 18 31 17 2 28 23 18 16 25 12 16 14 24 12 4 3 22 23 14 17 14 7 32 27 16 4 21 34 32 21 25 19 1 0 9 10 10 4 0 3 6 7 10 6 3 9 10 3 0 5 6 2 3 5 3 5 0 6 10 17 13 3 0 6 20 1 0 16 34 26 4 15 5 28 9 3 7 2 3 10 17 5 17 11 8 19 10 7 2 17 0 10 10 20 11 2 14 26 16 21 7 0 13 2 0 17 24 20 8 6 1 2 14 1 1 7 4 15 17 7 1 6 7 9 7 5 13 2 14 9 0 15 1 25 1 15 18 6 8 2 1 9 3 0 7 9 4 5 8 16 2 9 7 5 8 7 15 4 0 2 4 2 1 2 15 1 6 1 4 6 24 4 6 0 11 3 9 9 3 12 7 1 9 2 6 4 0 0 3 1 2 1 6 2 5 0 2 0 1 1 0 0 3 3 1 4 1 8 3 4 0 1 10 1 1 23 3 11 0 2 4 17 5 0 0 2 1 0 6 1 6 3 2 5 0 2 6 7 5 18 1 6 0 2 0 11 4 5 6 0 3 5 0 8 6 11 2 2 0 5 10 0 1 5 2 9 17 6 1 1 8 4 8 4 3 10 9 3 1 10 3 9 0 7 3 1 0 14 7 10 9 11 0 5 2 3 10 10 12 4 0 2 3 5 12 0 1 6 9 3 1 14 8 5 1 1 0 0 7 0 7 1 10 0 0 8 3 9 4 2 5 0 0 4 0 2 4 1 0 3 0 2 1 0 0 0 1 0 0 0 2 1 0 2 0 1 0 4 0 0 2 3 1 13 1 0 1 1 1 1 7 0 2 9 1 2 1 0 5 3 0 4 0 4 5 3 0 12 1 1 5 0 6 1 3 0 2 1 0 8 3 0 1 2 2 2 0 4 0 0 1 4 2 2 11 1 1 5 5 3 9 0 0 2 0 3 1 6 2 5 0 6 5 0 1 10 1 4 11 7 0 1 7 2 3 6 16 1 2 2 2 1 8 2 2 5 6 1 0 16 0 3 1 0 0 2 0 1 4 0 8 0 0 5 4 6 0 0 4 1 0 1 0 6 7 1 1 3 0 2 2 2 0 0 3 0 0 1 2 0 0 0 0 1 1 2 0 1 1 1 0 2 10 0 1 3 0 1 10 0 1 10 10 3 0 0 3 4 4 4 0 4 2 3 0 2 1 1 3 5 0 6 2 0 0 0 0 6 0 1 0 0 2 1 0 1 5 0 0 1 3 2 11 1 1 5 2 0 1 0 0 0 3 2 2 2 0 1 0 3 5 1 0 1 2 3 2 2 0 1 7 0 2 2 10 1 2 1 0 0 0 7 1 1 1 0 1 6 5 1 0 0 0 0 1 0 1 0 1 0 0 0 2 1 0 1 2 0 1 0 0 5 1 0 0 0 0 1 1 2 0 0 0 0 0 0 2 0 0 0 0 1 0 1 0 1 1 1 0 0 7 0 2 1 6 3 5 0 0 4 10 0 0 0 5 6 7 0 0 1 0 1 0 1 1 0 0 1 1 3 2 0 0 0 0 1 0 0 1 0 3 2 2 0 4 1 1 0 3 4 5 1 2 2 0 5 5 0 0 0 2 2 0 0 1 1 3 2 5 1 0 0 3 4 0 0 0 4 0 1 0 4 6 0 1 0 3 4 0 4 1 0 0 0 0 3 4 0 1 0 0 0 3 0 4 0 0 4 1 1 1 0 0 2 1 0 0 0 0 1 0 0 0 0 0 1 0 1 0 0 0 0 0 0 0 0 0 0 0 0 0 0 0 0 0 2 2 1 2 0 2 0 2 0 1 0 0 0 6 0 0 0 4 4 3 2 0 0 0 0 0 1 1 0 0 0 1 0 1 2 0 0 0 0 0 1 0 0 1 0 0 0 2 0 2 0 0 3 0 0 1 1 0 3 2 1 0 0 0 0 0 1 0 0 2 1 2 1 0 0 1 1 0 0 0 3 0 3 0 2 3 0 0 0 3 3 0 0 0 0 1 1 0 1 2 0 1 0 0 2 3 0 1 1 1 3 0 0 0 0 0 0 0 0 0 0 0 0 0 0 0 0 0 0 0 0 0 0 0 0 0 0 0 0 0 0 0 0 0 0 0 0 0 1 1 0 1 1 0 0 0 0 0 0 0 0 2 0 0 0 0 2 0 0 2 0 0 0 0 1 0 0 0 0 0 0 0 1 0 0 0 0 0 1 2 0 0 0 0 0 0 0 0 0 0 2 0 0 0 1 0 0 0 0 0 0 0 0 0 0 0 0 0 0 0 0 0 0 0 0 0 1 0 0 0 1 0 0 0 0 0 0 0 0 0 0 0 0 0 0 0 1 0 0 0 0 0 1 0 0 0 0 0 1 0 0 0 0 0 0 0 0 0 0 0 0 0 0 0 0 0 0 0 0 0 0 0 0 0 0 0 0 0 0 0 0 0 0 0 0 0 1 0 0 0 0 0 0 0 0 0 0 0 0 0 0 0 0 0 0 0 0 1 0 0 0 0 0 0 0 0 0 1 0 0 0 0 0 0 0 0 0 1 0 0 0 0 0 0 0 0 0 0 0 0 0 0 0 0 0 0 0 0 0 0 1 0 0 0 0 0 0 0 0 0 0 0 0 0 0 0 0 0 0 1 0 0 0 1 0 1 0 0 0 0 0 0 0 1 0 0 0 0 0 0 0 0 0 0 0 0 2 0 0 0 0 0 0 0 0 0 0 0 0 0 0 0 0 0 0 0 0 0 0 0 0 0 0 0 0 0 0 0 0 0 0 0 0 0 0 0 2 0 0 0 0 0 0 0 0 0 0 0 0 0 0 0 0 0 0 0 0 0 0 0 0 0 0 0 0 1 0 0 0 0 0 0 0 0 0 0 0 0 0 0 0 0 0 0 0 0 0 0 0 0 0 0 0 0 0 0 0 0 0 0 0 0 0 0 0 0 0 0 0 0 0 0 0 0 0 1 0 0 0 0 0 0 0 0 0 0 0 0 0 0 0 0 1 0 0 0 0 0 0 0 0 0 0 0 0 0 0 0 0 0 0 0 0 0 0 0 0 0 0 0 0 0 0 0 0 0 0 0 0 0 0 0 0 0 0 0 0 0 0 0 0 0 0 0 1 0 0 0 0 0 0 0 0 0 0 0 0 0 0 0 0 0 0 0 0 0 0 0 0 0 0 0 0 0 0 0 0 0 0 0 0 0 0 0 0 0 0 0 0 0 0 0 0 0 0 0 1 0 0 0 0 1 1 1 0 0 1 1 0 0 0 0 0 0 0 0 0 0 1 0 0 0 0 0 0 0 0 0 0 0 0 0 0 0 0 0 0 0 0 0 0 0 0 0 0 0 0 0 0 0 0 0 0 0 0 0 0 0 0 0 0 0 0 0 0 0 0 0 0 0 0 0 0 0 0 0 0 0 0 0 0 0 0 0 0 0 0 0 0 0 0 1 0 0 0 0 0 0 0 0 0 0 0 0 0 0 0 0 0 0 0 0 0 0 0 0 0 0 0 0 0 0 0 0 0 0 0 0 0 0 0 0 0 1 0 0 0 0 0 0 0 0 1 1 0 0 0 0 0 1 0 2 0 1 0 0 0 0 0 0 0 2 0 0 0 0 1 0 0 0 0 0 0 1 0 1 0 0 0 0 0 0 0 0 0 0 0 0 1 0 0 0 0 0 0 0 0 0 0 0 0 0 0 0 0 0 0 0 0 0 0 0 0 0 0 0 0 0 0 0 0 0 0 0 0 0 0 0 0 0 0 0 0 0 0 0 0 0 0 0 0 0 0 0 0 0 0 0 0 0 0 0 1 0 0 0 0 0 0 0 0 0 0 0 0 0 0 0 0 0 0 0 0 0 0 0 0 0 0 0 0 0 0 0 0 0 0 0 0 0 1 1 0 0 0 0 0 0 0 0 0 0 0 0 0 0 0 0 0 0 0 0 0 0 0 0 0 0 0 0 0 0 0 0 0 0 0 0 0 0 0 0 0 0 0 0 0 0 0 0 0 0 0 0 0 0 0 0 0 0 0 0 0 0 0 0 0 0 0 0 0 0 0 0 0 0 0 0 0 0 0 0 0 0 0 0 0 0 0 0 0 0 0 0 0 0 0 0 0 0 0 0 0 0 0 0 0 0 0 0 0 0 0 0 0 0 0 0 0 0 0 0 0 0 0 0 0 0 0 0 0 0 0 0 0 0 0 0 0 0 0 0 0 0 0 0 0 0 0 0 0 0 0 0 0 0 0 0 0 0 0 0 0 0 0 0 0 0 0 0 0 0 0 0 0 0 0 0 0 0 0 0 0 0 0 0 0 0 0 0 0 0 0 0 0 0 0 0 0 0 0 0 0 0 0 0 0 0 0 0 0 0 0 0 0 0 0 0 0 0 0 0 0 0 0 0 0 0 0 0 0 0 0 0 0 0 0 0 0 0 0 0 0 0 0 0 0 0 0 0 0 0 0 0 0 0 0 0 0 0 0 0 0 0 0 0 0 0 0 0 0 0 0 0 0 0 0 0 0 0 0 0 0 0 0 0 0 0 0 0 0 0 0 0 0 0 0 0 0 0 0 0 0 0 0 0 0 0 0 0 0 0 0 0 0 0 0 0 0 0 0 0 0 0 0 0 0 0 0 0 0 0 0 0 0 0 0 0 0 0 0 0 0 0 0 0 0 0 0 0 0 0 0 0 0 0 0 0 0 0 0 0 0 0 0 0 0 0 0 0 0 0 0 0 0 0 0 0 0 0 0 0 0 0 0 0 0 0 0 0 0 0 0 0 0 0 0 0 0 0 0 0 0 0 0 0 0 0 0 0 0 0 0 0 0 0 0 0 0 0 0 0 0 0 0 0 0 0 0 0 0 0 0 0 0 0 0 0 0 0 0 0 0 0 0 0 0 0 0 0 0 0 0 0 0 0 0 0 0 0 0 0 0 0 0 0 0 0 0 0 0 0 0 0 0 0 0 0 0 0 0 0 0 0 0 0 0 0 0 0 0 0 0 0 0 0 0 0 0 0 0 0 0 0 0 0 0 0 0 0 0 0 0 0 0 0 0 0 0 0 0 0 0 0 0 0 0 0 0 0 0 0 0 0 0 0 0 0 0 0 0 0 0 0 0 0 0 0 0 0 0 0 0 0 0 0 0 0 0 0 0 0 0 0 0 0 0 0 0 0 0 0 0 0 0 0 0 0 0 0 0 0 0 0 0 0 0 0 0 0 0 0 0 0 0 0 0 0 0 0 0 0 0 0 0 0 0 0 0 0 0 0 0 0 0 0 0 0 0 0 0 0 0 0 0 0 0 0 0 0 0 0 0 0 0 0 0 0 0 0 0 0 0 0 0 0 0 0 0 0 0 0 0 0 0 0 0 0 0 0 0 0 0 0 0 0 0 0 0 0 0 0 0 0 0 0 0 0 0 0 0 0 0 0 0 0 0 0 0 0 0 0 0 0 0 0 0 0 0 0 0 0 0 0 0 0 0 0 0 0 0 0 0 0 0 0 0 0 0 0 0 0 0 0 0 0 0 0 0 0 0 0 0 0 0 0 0 0 0 0 0 0 0 0 0 0 0 0 0 0 0 0 0 0 0 0 0 0 0 0 0 0 0 0 0 0 0 0 0 0 0 0 0 0 0 0 0 0 0 0 0 0 0 0 0 0 0 0 0 0 0 0 0 0 0 0 0 0 0 0 0 0 0 0 0 0 0 0 0 0 0 0 0 0 0 0 0 0 0 0 0 0 0 0 0 0 0 0 0 0 0 0 0 0 0 0 0 0 0 0 0 0 0 0 0 0 0 0 0 0 0 0 0 0 0 0 0 0 0 0 0 0 0 0 0 0 0 0 0 0 0 0 0 0 0 0 0 0 0 0 0 0 0 0 0 0 0 0 0 0 0 0 0 0 0 0 0 0 0 0 0 0 0 0 0 0 0 0 0 0 0 0 0 0 0 0 0 0 0 0 0 0 0 0 0 0 0 0 0 0 0 0 0 0 0 0 0 0 0 0 0 0 0 0 0 0 0 0 0 0 0 0 0 0 0 0 0 0 0 0 0 0 0 0 0 0 0 0 0 0 0 0 0 0 0 0 0 0 0 0 0 0 0 0 0 0 0 0 0 0 0 0 0 0 0 0 0 0 0 0 0 0 0 0 0 0 0 0 0 0 0 0 0 0 0 0 0 0 0 0 0 0 0 0 0 0 0 0 0 0 0 0 0 0 0 0 0 0 0 0 0 0 0 0 0 0 0 0 0 0 0 0 0 0 0 0 0 0 0 0 0 0 0 0 0 0 0 0 0 0 0 0 0 0 0 0 0 0 0 0 0 0 0 0 0 0 0 0 0 0 0 0 0 0 0 0 0 0 0 0 0 0 0 0 0 0 0 0 0 0 0 0 0 0 0 0 0 0 0 0 0 0 0 0 0 0 0 0 0 0 0 0 0 0 0 0 0 0 0 0 0 0 0 0 0 0 0 0 0 0 0 0 0 0 0 0 0 0 0 0 0 0 0 0 0 0 0 0 0 0 0 0 0 0 0 0 0 0 0 0 0 0 0 0 0 0 0 0 0 0 0 0 0 0 0 0 0 0 0 0 0 0 0 0 0 0 0 0 0 0 0 0 0 0 0 0 0 0 0 0 0 0 0 0 0 0 0 0 0 0 0 0 0 0 0 0 0 0 0 0 0 0 0 0 0 0 0 0 0 0 0 0 0 0 0 0 0 0 0 0 0 0 0 0 0 0 0 0 0 0 0 0 0 0 0 0 0 0 0 0 0 0 0 0 0 0 0 0 0 0 0 0 0 0 0 0 0 0 0 0 0 0 0 0 0 0 0 0 0 0 0 0 0 0 0 0 0 0 0 0 0 0 0 0 0 0 0 0 0 0 0 0 0 0 0 0 0 0 0 0 0 0 0 0 0 0 0 0 0 0 0 0 0 0 0 0 0 0 0 0 0 0 0 0 0 0 0 0 0 0 0 0 0 0 0 0 0 0 0 0 0 0 0 0 0 0 0 0 0 0 0 0 0 0 0 0 0 0 0 0 0 0 0 0 0 0 0 0 0 0 0 0 0 0 0 0 0 0 0 0 0 0 0 0 0 0 0 0 0 0 0 0 0 0 0 0 0 0 0 0 0 0 0 0 0 0 0 0 0 0 0 0 0 0 0 0 0 0 0 0 0 0 0 0 0 0 0 0 0 0 0 0 0 0 0 0 0 0 0 0 0 0 0 0 0 0 0 0 0 0 0 0 0 0 0 0 0 0 0 0 0 0 0 0 0 0 0 0 0 0 0 0 0 0 0 0 0 0 0 0 0 0 0 0 0 0 0 0 0 0 0 0 0 0 0 0 0 0 0 0 0 0 0 0 0 0 0 0 0 0 0 0 0 0 0 0 0 0 0 0 0 0 0 0 0 0 0 0 0 0 0 0 0 0 0 0 0 0 0 0 0 0 0 0 0 0 0 0 0 0 0 0 0 0 0 0 0 0 0 0 0 0 0 0 0 0 0 0 0 0 0 0 0 0 0 0 0 0 0 0 0 0 0 0 0 0 0 0 0 0 0 0 0 0 0 0 0 0 0 0 0 0 0 0 0 0 0 0 0 0 0 0 0 0 0 0 0 0 0 0 0 0 0 0 0 0 0 0 0 0 0 0 0 0 0 0 0 0 0 0 0 0 0 0 0 0 0 0 0 0 0 0 0 0 0 0 0 0 0 0 0 0 0 0 0 0 0 0 0 0 0 0 0 0 0 0 0 0 0 0 0 0 0 0 0 0 0 0 0 0 0 0 0 0 0 0 0 0 0 0 0 0 0 0 0 0 0 0 0 0 0 0 0 0 0 0 0 0 0 0 0 0 0 0 0 0 0 0 0 0 0 0 0 0 0 0 0 0 0 0 0 0 0 0 0 0 0 0 0 0 0 0 0 0 0 0 0 0 0 0 0 0 0 0 0 0 0 0 0 0 0 0 0 0 0 0 0 0 0 0 0 0 0 0 0 0 0 0 0 0 0 0 0 0 0 0 0 0 0 0 0 0 0 0 0 0 0 0 0 0 0 0 0 0 0 0 0 0 0 0 0 0 0 0 0 0 0 0 0 0 0 0 0 0 0 0 0 0 0 0 0 0 0 0 0 0 0 0 0 0 0 0 0 0 0 0 0 0 0 0 0 0 0 0 0 0 0 0 0 0 0 0 0 0 0 0 0 0 0 0 0 0 0 0 0 0 0 0 0 0 0 0 0 0 0 0 0 0 0 0 0 0 0 0 0 0 0 0 0 0 0 0 0 0 0 0 0 0 0 0 0 0 0 0 0 0 0 0 0 0 0 0 0 0 0 0 0 0 0 0 0 0 0 0 0 0 0 0 0 0 0 0 0 0 0 0 0 0 0 0 0 0 0 0 0 0 0 0 0 0 0 0 0 0 0 0 0 0 0 0 0 0 0 0 0 0 0 0 0 0 0 0 0 0 0 0 0 0 0 0 0 0 0 0 0 0 0 0 0 0 0 0 0 0 0 0 0 0 0 0 0 0 0 0 0 0 0 0 0 0 0 0 0 0 0 0 0 0 0 0 0 0 0 0 0 0 0 0 0 0 0 0 0 0 0 0 0 0 0 0 0 0 0 0 0 0 0 0 0 0 0 0 0 0 0 0 0 0 0 0 0 0 0 0 0 0 0 0 0 0 0 0 0 0 0 0 0 0 0 0 0 0 0 0 0 0 0 0 0 0 0 0 0 0 0 0 0 0 0 0 0 0 0 0 0 0 0 0 0 0 0 0 0 0 0 0 0 0 0 0 0 0 0 0 0 0 0 0 0 0 0 0 0 0 0 0 0 0 0 0 0 0 0 0 0 0 0 0 0 0 0 0 0 0 0 0 0 0 0 0 0 0 0 0 0 0 0 0 0 0 0 0 0 0 0 0 0 0 0 0 0 0 0 0 0 0 0 0 0 0 0 0 0 0 0 0 0 0 0 0 0 0 0 0 0 0 0 0 0 0 0 0 0 0 0 0 0 0 0 0 0 0 0 0 0 0 0 0 0 0 0 0 0 0 0 0 0 0 0 0 0 0 0 0 0 0 0 0 0 0 0 0 0 0 0 0 0 0 0 0 0 0 0 0 0 0 0 0 0 0 0 0 0 0 0 0 0 0 0 0 0 0 0 0 0 0 0 0 0 0 0 0 0 0 0 0 0 0 0 0 0 0 0 0 0 0 0 0 0 0 0 0 0 0 0 0 0 0 0 0 0 0 0 0 0 0 0 0 0 0 0 0 0 0 0 0 0 0 0 0 0 0 0 0 0 0 0 0 0 0 0 0 0 0 0 0 0 0 0 0 0 0 0 0 0 0 0 0 0 0 0 0 0 0 0 0 0 0 0 0 0 0 0 0 0 0 0 0 0 0 0 0 0 0 0 0 0 0 0 0 0 0 0 0 0 0 0 0 0 0 0 0 0 0 0 0 0 0 0 0 0 0 0 0 0 0 0 0 0 0 0 0 0 0 0 0 0 0 0 0 0 0 0 0 0 0 0 0 0 0 0 0 0 0 0 0 0 0 0 0 0 0 0 0 0 0 0 0 0 0 0 0 0 0 0 0 0 0 0 0 0 0 0 0 0 0 0 0 0 0 0 0 0 0 0 0 0 0 0 0 0 0 0 0 0 0 0 0 0 0 0 0 0 0 0 0 0 0 0 0 0 0 0 0 0 0 0 0 0 0 0 0 0 0 0 0 0 0 0 0 0 0 0 0 0 0 0 0 0 0 0 0 0 0 0 0 0 0 0 0 0 0 0 0 0 0 0 0 0 0 0 0 0 0 0 0 0 0 0 0 0 0 0 0 0 0 0 0 0 0 0 0 0 0 0 0 0 0 0 0 0 0 0 0 0 0 0 0 0 0 0 0 0 0 0 0 0 0 0 0 0 0 0 0 0 0 0 0 0 0 0 0 0 0 0 0 0 0 0 0 0 0 0 0 0 0 0 0 0 0 0 0 0 0 0 0 0 0 0 0 0 0 0 0 0 0 0 0 0 0 0 0 0 0 0 0 0 0 0 0 0 0 0 0 0 0 0 0 0 0 0 0 0 0 0 0 0 0 0 0 0 0 0 0 0 0 0 0 0 0 0 0 0 0 0 0 0 0 0 0 0 0 0 0 0 0 0 0 0 0 0 0 0 0 0 0 0 0 0 0 0 0 0 0 0 0 0 0 0 0 0 0 0 0 0 0 0 0 0 0 0 0 0 0 0 0 0 0 0 0 0 0 0 0 0 0 0 0 0 0 0 0 0 0 0 0 0 0 0 0 0 0 0 0 0 0 0 0 0 0 0 0 0 0 0 0 0 0 0 0 0 0 0 0 0 0 0 0 0 0 0 0 0 0 0 0 0 0 0 0 0 0 0 0 0 0 0 0 0 0 0 0 0 0 0 0 0 0 0 0 0 0 0 0 0 0 0 0 0 0 0 0 0 0 0 0 0 0 0 0 0 0 0 0 0 0 0 0 0 0 0 0 0 0 0 0 0 0 0 0 0 0 0 0 0 0 0 0 0 0 0 0 0 0 0 0 0 0 0 0 0 0 0 0 0 0 0 0 0 0 0 0 0 0 0 0 0 0 0 0 0 0 0 0 0 0 0 0 0 0 0 0 0 0 0 0 0 0 0 0 0 0 0 0 0 0 0 0 0 0 0 0 0 0 0 0 0 0 0 0 0 0 0 0 0 0 0 0 0 0 0 0 0 0 0 0 0 0 0 0 0 0 0 0 0 0 0 0 0 0 0 0 0 0 0 0 0 0 0 0 0 0 0 0 0 0 0 0 0 0 0 0 0 0 0 0 0 0 0 0 0 0 0 0 0 0 0 0 0 0 0 0 0 0 0 0 0 0 0 0 0 0 0 0 0 0 0 0 0 0 0 0 0 0 0 0 0 0 0 0 0 0 0 0 0 0 0 0 0 0 0 0 0 0 0 0 0 0 0 0 0 0 0 0 0 0 0 0 0 0 0 0 0 0 0 0 0 0 0 0 0 0 0 0 0 0 0 0 0 0 0 0 0 0 0 0 0 0 0 0 0 0 0 0 0 0 0 0 0 0 0 0 0 0 0 0 0 0 0 0 0 0 0 0 0 0 0 0 0 0 0 0 0 0 0 0 0 0 0 0 0 0 0 0 0 0 0 0 0 0 0 0 0 0 0 0 0 0 0 0 0 0 0 0 0 0 0 0 0 0 0 0 0 0 0 0 0 0 0 0 0 0 0 0 0 0 0 0 0 0 0 0 0 0 0 0 0 0 0 0 0 0 0 0 0 0 0 0 0 0 0 0 0 0 0 0 0 0 0 0 0 0 0 0 0 0 0 0 0 0 0 0 0 0 0 0 0 0 0 0 0 0 0 0 0 0 0 0 0 0 0 0 0 0 0 0 0 0 0 0 0 0 0 0 0 0 0 0 0 0 0 0 0 0 0 0 0 0 0 0 0 0 0 0 0 0 0 0 0 0 0 0 0 0 0 0 0 0 0 0 0 0 0 0 0 0 0 0 0 0 0 0 0 0 0 0 0 0 0 0 0 0 0 0 0 0 0 0 0 0 0 0 0 0 0 0 0 0 0 0 0 0 0 0 0 0 0 0 0 0 0 0 0 0 0 0 0 0 0 0 0 0 0 0 0 0 0 0 0 0 0 0 0 0 0 0 0 0 0 0 0 0 0 0 0 0 0 0 0 0 0 0 0 0 0 0 0 0 0 0 0 0 0 0 0 0 0 0 0 0 0 0 0 0 0 0 0 0 0 0 0 0 0 0 0 0 0 0 0 0 0 0 0 0 0 0 0 0 0 0 0 0 0 0 0 0 0 0 0 0 0 0 0 0 0 0 0 0 0 0 0 0 0 0 0 0 0 0 0 0 0 0 0 0 0 0 0 0 0 0 0 0 0 0 0 0 0 0 0 0 0 0 0 0 0 0 0 0 0 0 0 0 0 0 0 0 0 0 0 0 0 0 0 0 0 0 0 0 0 0 0 0 0 0 0 0 0 0 0 0 0 0 0 0 0 0 0 0 0 0 0 0 0 0 0 0 0 0 0 0 0 0 0 0 0 0 0 0 0 0 0 0 0 0 0 0 0 0 0 0 0 0 0 0 0 0 0 0 0 0 0 0 0 0 0 0 0 0 0 0 0 0 0 0 0 0 0 0 0 0 0 0 0 0 0 0 0 0 0 0 0 0 0 0 0 0 0 0 0 0 0 0 0 0 0 0 0 0 0 0 0 0 0 0 0 0 0 0 0 0 0 0 0 0 0 0 0 0 0 0 0 0 0 0 0 0 0 0 0 0 0 0 0 0 0 0 0 0 0 0 0 0 0 0 0 0 0 0 0 0 0 0 0 0 0 0 0 0 0 0 0 0 0 0 0 0 0 0 0 0 0 0 0 0 0 0 0 0 0 0 0 0 0 0 0 0 0 0 0 0 0 0 0 0 0 0 0 0 0 0 0 0 0 0 0 0 0 0 0 0 0 0 0 0 0 0 0 0 0 0 0 0 0 0 0 0 0 0 0 0 0 0 0 0 0 0 0 0 0 0 0 0 0 0 0 0 0 0 0 0 0 0 0 0 0 0 0 0 0 0 0 0 0 0 0 0 0 0 0 0 0 0 0 0 0 0 0 0 0 0 0 0 0 0 0 0 0 0 0 0 0 0 0 0 0 0 0 0 0 0 0 0 0 0 0 0 0 0 0 0 0 0 0 0 0 0 0 0 0 0 0 0 0 0 0 0 0 0 0 0 0 0 0 0 0 0 0 0 0 0 0 0 0 0 0 0 0 0 0 0 0 0 0 0 0 0 0 0 0 0 0 0 0 0 0 0 0 0 0 0 0 0 0 0 0 0 0 0 0 0 0 0 0 0 0 0 0 0 0 0 0 0 0 0 0 0 0 0 0 0 0 0 0 0 0 0 0 0 0 0 0 0 0 0 0 0 0 0 0 0 0 0 0 0 0 0 0 0 0 0 0 0 0 0 0 0 0 0 0 0 0 0 0 0 0 0 0 0 0 0 0 0 0 0 0 0 0 0 0 0 0 0 0 0 0 0 0 0 0 0 0 0 0 0 0 0 0 0 0 0 0 0 0 0 0 0 0 0 0 0 0 0 0 0 0 0 0 0 0 0 0 0 0 0 0 0 0 0 0 0 0 0 0 0 0 0 0 0 0 0 0 0 0 0 0 0 0 0 0 0 0 0 0 0 0 0 0 0 0 0 0 0 0 0 0 0 0 0 0 0 0 0 0 0 0 0 0 0 0 0 0 0 0 0 0 0 0 0 0 0 0 0 0 0 0 0 0 0 0 0 0 0 0 0 0 0 0 0 0 0 0 0 0 0 0 0 0 0 0 0 0 0 0 0 0 0 0 0 0 0 0 0 0 0 0 0 0 0 0 0 0 0 0 0 0 0 0 0 0 0 0 0 0 0 0 0 0 0 0 0 0 0 0 0 0 0 0 0 0 0 0 0 0 0 0 0 0 0 0 0 0 0 0 0 0 0 0 0 0 0 0 0 0 0 0 0 0 0 0 0 0 0 0 0 0 0 0 0 0 0 0 0 0 0 0 0 0 0 0 0 0 0 0 0 0 0 0 0 0 0 0 0 0 0 0 0 0 0 0 0 0 0 0 0 0 0 0 0 0 0 0 0 0 0 0 0 0 0 0 0 0 0 0 0 0 0 0 0 0 0 0 0 0 0 0 0 0 0 0 0 0 0 0 0 0 0 0 0 0 0 0 0 0 0 0 0 0 0 0 0 0 0 0 0 0 0 0 0 0 0 0 0 0 0 0 0 0 0 0 0 0 0 0 0 0 0 0 0 0 0 0 0 0 0 0 0 0 0 0 0 0 0 0 0 0 0 0 0 0 0 0 0 0 0 0 0 0 0 0 0 0 0 0 0 0 0 0 0 0 0 0 0 0 0 0 0 0 0 0 0 0 0 0 0 0 0 0 0 0 0 0 0 0 0 0 0 0 0 0 0 0 0 0 0 0 0 0 0 0 0 0 0 0 0 0 0 0 0 0 0 0 0 0 0 0 0 0 0 0 0 0 0 0 0 0 0 0 0 0 0 0 0 0 0 0 0 0 0 0 0 0 0 0 0 0 0 0 0 0 0 0 0 0 0 0 0 0 0 0 0 0 0 0 0 0 0 0 0 0 0 0 0 0 0 0 0 0 0 0 0 0 0 0 0 0 0 0 0 0 0 0 0 0 0 0 0 0 0 0 0 0 0 0 0 0 0 0 0 0 0 0 0 0 0 0 0 0 0 0 0 0 0 0 0 0 0 0 0 0 0 0 0 0 0 0 0 0 0 0 0 0 0 0 0 0 0 0 0 0 0 0 0 0 0 0 0 0 0 0 0 0 0 0 0 0 0 0 0 0 0 0 0 0 0 0 0 0 0 0 0 0 0 0 0 0 0 0 0 0 0 0 0 0 0 0 0 0 0 0 0 0 0 0 0 0 0 0 0 0 0 0 0 0 0 0 0 0 0 0 0 0 0 0 0 0 0 0 0 0 0 0 0 0 0 0 0 0 0 0 0 0 0 0 0 0 0 0 0 0 0 0 0 0 0 0 0 0 0 0 0 0 0 0 0 0 0 0 0 0 0 0 0 0 0 0 0 0 0 0 0 0 0 0 0 0 0 0 0 0 0 0 0 0 0 0 0 0 0 0 0 0 0 0 0 0 0 0 0 0 0 0 0 0 0 0 0 0 0 0 0 0 0 0 0 0 0 0 0 0 0 0 0 0 0 0 0 0 0 0 0 0 0 0 0 0 0 0 0 0 0 0 0 0 0 0 0 0 0 0 0 0 0 0 0 0 0 0 0 0 0 0 0 0 0 0 0 0 0 0 0 0 0 0 0 0 0 0 0 0 0 0 0 0 0 0 0 0 0 0 0 0 0 0 0 0 0 0 0 0 0 0 0 0 0 0 0 0 0 0 0 0 0 0 0 0 0 0 0 0 0 0 0 0 0 0 0 0 0 0 0 0 0 0 0 0 0 0 0 0 0 0 0 0 0 0 0 0 0 0 0 0 0 0 0 0 0 0 0 0 0 0 0 0 0 0 0 0 0 0 0 0 0 0 0 0 0 0 0 0 0 0 0 0 0 0 0 0 0 0 0 0 0 0 0 0 0 0 0 0 0 0 0 0 0 0 0 0 0 0 0 0 0 0 0 0 0 0 0 0 0 0 0 0 0 0 0 0 0 0 0 0 0 0 0 0 0 0 0 0 0 0 0 0 0 0 0 0 0 0 0 0 0 0 0 0 0 0 0 0 0 0 0 0 0 0 0 0 0 0 0 0 0 0 0 0 0 0 0 0 0 0 0 0 0 0 0 0 0 0 0 0 0 0 0 0 0 0 0 0 0 0 0 0 0 0 0 0 0 0 0 0 0 0 0 0 0 0 0 0 0 0 0 0 0 0 0 0 0 0 0 0 0 0 0 0 0 0 0 0 0 0 0 0 0 0 0 0 0 0 0 0 0 0 0 0 0 0 0 0 0 0 0 0 0 0 0 0 0 0 0 0 0 0 0 0 0 0 0 0 0 0 0 0 0 0 0 0 0 0 0 0 0 0 0 0 0 0 0 0 0 0 0 0 0 0 0 0 0 0 0 0 0 0 0 0 0 0 0 0 0 0 0 0 0 0 0 0 0 0 0 0 0 0 0 0 0 0 0 0 0 0 0 0 0 0 0 0 0 0 0 0 0 0 0 0 0 0 0 0 0 0 0 0 0 0 0 0 0 0 0 0 0 0 0 0 0 0 0 0 0 0 0 0 0 0 0 0 0 0 0 0 0 0 0 0 0 0 0 0 0 0 0 0 0 0 0 0 0 0 0 0 0 0 0 0 0 0 0 0 0 0 0 0 0 0 0 0 0 0 0 0 0 0 0 0 0 0 0 0 0 0 0 0 0 0 0 0 0 0 0 0 0 0 0 0 0 0 0 0 0 0 0 0 0 0 0 0 0 0 0 0 0 0 0 0 0 0 0 0 0 0 0 0 0 0 0 0 0 0 0 0 0 0 0 0 0 0 0 0 0 0 0 0 0 0 0 0 0 0 0 0 0 0 0 0 0 0 0 0 0 0 0 0 0 0 0 0 0 0 0 0 0 0 0 0 0 0 0 0 0 0 0 0 0 0 0 0 0 0 0 0 0 0 0 0 0 0 0 0 0 0 0 0 0 0 0 0 0 0 0 0 0 0 0 0 0 0 0 0 0 0 0 0 0 0 0 0 0 0 0 0 0 0 0 0 0 0 0 0 0 0 0 0 0 0 0 0 0 0 0 0 0 0 0 0 0 0 0 0 0 0 0 0 0 0 0 0 0 0 0 0 0 0 0 0 0 0 0 0 0 0 0 0 0 0 0 0 0 0 0 0 0 0 0 0 0 0 0 0 0 0 0 0 0 0 0 0 0 0 0 0 0 0 0 0 0 0 0 0 0 0 0 0 0 0 0 0 0 0 0 0 0 0 0 0 0 0 0 0 0 0 0 0 0 0 0 0 0 0 0 0 0 0 0 0 0 0 0 0 0 0 0 0 0 0 0 0 0 0 0 0 0 0 0 0 0 0 0 0 0 0 0 0 0 0 0 0 0 0 0 0 0 0 0 0 0 0 0 0 0 0 0 0 0 0 0 0 0 0 0 0 0 0 0 0 0 0 0 0 0 0 0 0 0 0 0 0 0 0 0 0 0 0 0 0 0 0 0 0 0 0 0 0 0 0 0 0 0 0 0 0 0 0 0 0 0 0 0 0 0 0 0 0 0 0 0 0 0 0 0 0 0 0 0 0 0 0 0 0 0 0 0 0 0 0 0 0 0 0 0 0 0 0 0 0 0 0 0 0 0 0 0 0 0 0 0 0 0 0 0 0 0 0 0 0 0 0 0 0 0 0 0 0 0 0 0 0 0 0 0 0 0 0 0 0 0 0 0 0 0 0 0 0 0 0 0 0 0 0 0 0 0 0 0 0 0 0 0 0 0 0 0 0 0 0 0 0 0 0 0 0 0 0 0 0 0 0 0 0 0 0 0 0 0 0 0 0 0 0 0 0 0 0 0 0 0 0 0 0 0 0 0 0 0 0 0 0 0 0 0 0 0 0 0 0 0 0 0 0 0 0 0 0 0 0 0 0 0 0 0 0 0 0 0 0 0 0 0 0 0 0 0 0 0 0 0 0 0 0 0 0 0 0 0 0 0 0 0 0 0 0 0 0 0 0 0 0 0 0 0 0 0 0 0 0 0 0 0 0 0 0 0 0 0 0 0 0 0 0 0 0 0 0 0 0 0 0 0 0 0 0 0 0 0 0 0 0 0 0 0 0 0 0 0 0 0 0 0 0 0 0 0 0 0 0 0 0 0 0 0 0 0 0 0 0 0 0 0 0 0 0 0 0 0 0 0 0 0 0 0 0 0 0 0 0 0 0 0 0 0 0 0 0 0 0 0 0 0 0 0 0 0 0 0 0 0 0 0 0 0 0 0 0 0 0 0 0 0 0 0 0 0 0 0 0 0 0 0 0 0 0 0 0 0 0 0 0 0 0 0 0 0 0 0 0 0 0 0 0 0 0 0 0 0 0 0 0 0 0 0 0 0 0 0 0 0 0 0 0 0 0 0 0 0 0 0 0 0 0 0 0 0 0 0 0 0 0 0 0 0 0 0 0 0 0 0 0 0 0 0 0 0 0 0 0 0 0 0 0 0 0 0 0 0 0 0 0 0 0 0 0 0 0 0 0 0 0 0 0 0 0 0 0 0 0 0 0 0 0 0 0 0 0 0 0 0 0 0 0 0 0 0 0 0 0 0 0 0 0 0 0 0 0 0 0 0 0 0 0 0 0 0 0 0 0 0 0 0 0 0 0 0 0 0 0 0 0 0 0 0 0 0 0 0 0 0 0 0 0 0 0 0 0 0 0 0 0 0 0 0 0 0 0 0 0 0 0 0 0 0 0 0 0 0 0 0 0 0 0 0 0 0 0 0 0 0 0 0 0 0 0 0 0 0 0 0 0 0 0 0 0 0 0 0 0 0 0 0 0 0 0 0 0 0 0 0 0 0 0 0 0 0 0 0 0 0 0 0 0 0 0 0 0 0 0 0 0 0 0 0 0 0 0 0 0 0 0 0 0 0 0 0 0 0 0 0 0 0 0 0 0 0 0 0 0 0 0 0 0 0 0 0 0 0 0 0 0 0 0 0 0 0 0 0 0 0 0 0 0 0 0 0 0 0 0 0 0 0 0 0 0 0 0 0 0 0 0 0 0 0 0 0 0 0 0 0 0 0 0 0 0 0 0 0 0 0 0 0 0 0 0 0 0 0 0 0 0 0 0 0 0 0 0 0 0 0 0 0 0 0 0 0 0 0 0 0 0 0 0 0 0 0 0 0 0 0 0 0 0 0 0 0 0 0 0 0 0 0 0 0 0 0 0 0 0 0 0 0 0 0 0 0 0 0 0 0 0 0 0 0 0 0 0 0 0 0 0 0 0 0 0 0 0 0 0 0 0 0 0 0 0 0 0 0 0 0 0 0 0 0 0 0 0 0 0 0 0 0 0 0 0 0 0 0 0 0 0 0 0 0 0 0 0 0 0 0 0 0 0 0 0 0 0 0 0 0 0 0 0 0 0 0 0 0 0 0 0 0 0 0 0 0 0 0 0 0 0 0 0 0 0 0 0 0 0 0 0 0 0 0 0 0 0 0 0 0 0 0 0 0 0 0 0 0 0 0 0 0 0 0 0 0 0 0 0 0 0 0 0 0 0 0 0 0 0 0 0 0 0 0 0 0 0 0 0 0 0 0 0 0 0 0 0 0 0 0 0 0 0 0 0 0 0 0 0 0 0 0 0 0 0 0 0 0 0 0 0 0 0 0 0 0 0 0 0 0 0 0 0 0 0 0 0 0 0 0 0 0 0 0 0 0 0 0 0 0 0 0 0 0 0 0 0 0 0 0 0 0 0 0 0 0 0 0 0 0 0 0 0 0 0 0 0 0 0 0 0 0 0 0 0 0 0 0 0 0 0 0 0 0 0 0 0 0 0 0 0 0 0 0 0 0 0 0 0 0 0 0 0 0 0 0 0 0 0 0 0 0 0 0 0 0 0 0 0 0 0 0 0 0 0 0 0 0 0 0 0 0 0 0 0 0 0 0 0 0 0 0 0 0 0 0 0 0 0 0 0 0 0 0 0 0 0 0 0 0 0 0 0 0 0 0 0 0 0 0 0 0 0 0 0 0 0 0 0 0 0 0 0 0 0 0 0 0 0 0 0 0 0 0 0 0 0 0 0 0 0 0 0 0 0 0 0 0 0 0 0 0 0 0 0 0 0 0 0 0 0 0 0 0 0 0 0 0 0 0 0 0 0 0 0 0 0 0 0 0 0 0 0 0 0 0 0 0 0 0 0 0 0 0 0 0 0 0 0 0 0 0 0 0 0 0 0 0 0 0 0 0 0 0 0 0 0 0 0 0 0 0 0 0 0 0 0 0 0 0 0 0 0 0 0 0 0 0 0 0 0 0 0 0 0 0 0 0 0 0 0 0 0 0 0 0 0 0 0 0 0 0 0 0 0 0 0 0 0 0 0 0 0 0 0 0 0 0 0 0 0 0 0 0 0 0 0 0 0 0 0 0 0 0 0 0 0 0 0 0 0 0 0 0 0 0 0 0 0 0 0 0 0 0 0 0 0 0 0 0 0 0 0 0 0 0 0 0 0 0 0 0 0 0 0 0 0 0 0 0 0 0 0 0 0 0 0 0 0 0 0 0 0 0 0 0 0 0 0 0 0 0 0 0 0 0 0 0 0 0 0 0 0 0 0 0 0 0 0 0 0 0 0 0 0 0 0 0 0 0 0 0 0 0 0 0 0 0 0 0 0 0 0 0 0 0 0 0 0 0 0 0 0 0 0 0 0 0 0 0 0 0 0 0 0 0 0 0 0 0 0 0 0 0 0 0 0 0 0 0 0 0 0 0 0 0 0 0 0 0 0 0 0 0 0 0 0 0 0 0 0 0 0 0 0 0 0 0 0 0 0 0 0 0 0 0 0 0 0 0 0 0 0 0 0 0 0 0 0 0 0 0 0 0 0 0 0 0 0 0 0 0 0 0 0 0 0 0 0 0 0 0 0 0 0 0 0 0 0 0 0 0 0 0 0 0 0 0 0 0 0 0 0 0 0 0 0 0 0 0 0 0 0 0 0 0 0 0 0 0 0 0 0 0 0 0 0 0 0 0 0 0 0 0 0 0 0 0 0 0 0 0 0 0 0 0 0 0 0 0 0 0 0 0 0 0 0 0 0 0 0 0 0 0 0 0 0 0 0 0 0 0 0 0 0 0 0 0 0 0 0 0 0 0 0 0 0 0 0 0 0 0 0 0 0 0 0 0 0 0 0 0 0 0 0 0 0 0 0 0 0 0 0 0 0 0 0 0 0 0 0 0 0 0 0 0 0 0 0 0 0 0 0 0 0 0 0 0 0 0 0 0 0 0 0 0 0 0 0 0 0 0 0 0 0 0 0 0 0 0 0 0 0 0 0 0 0 0 0 0 0 0 0 0 0 0 0 0 0 0 0 0 0 0 0 0 0 0 0 0 0 0 0 0 0 0 0 0 0 0 0 0 0 0 0 0 0 0 0 0 0 0 0 0 0 0 0 0 0 0 0 0 0 0 0 0 0 0 0 0 0 0 0 0 0 0 0 0 0 0 0 0 0 0 0 0 0 0 0 0 0 0 0 0 0 0 0 0 0 0 0 0 0 0 0 0 0 0 0 0 0 0 0 0 0 0 0 0 0 0 0 0 0 0 0 0 0 0 0 0 0 0 0 0 0 0 0 0 0 0 0 0 0 0 0 0 0 0 0 0 0 0 0 0 0 0 0 0 0 0 0 0 0 0 0 0 0 0 0 0 0 0 0 0 0 0 0 0 0 0 0 0 0 0 0 0 0 0 0 0 0 0 0 0 0 0 0 0 0 0 0 0 0 0 0 0 0 0 0 0 0 0 0 0 0 0 0 0 0 0 0 0 0 0 0 0 0 0 0 0 0 0 0 0 0 0 0 0 0 0 0 0 0 0 0 0 0 0 0 0 0 0 0 0 0 0 0 0 0 0 0 0 0 0 0 0 0 0 0 0 0 0 0 0 0 0 0 0 0 0 0 0 0 0 0 0 0 0 0 0 0 0 0 0 0 0 0 0 0 0 0 0 0 0 0 0 0 0 0 0 0 0 0 0 0 0 0 0 0 0 0 0 0 0 0 0 0 0 0 0 0 0 0 0 0 0 0 0 0 0 0 0 0 0 0 0 0 0 0 0 0 0 0 0 0 0 0 0 0 0 0 0 0 0 0 0 0 0 0 0 0 0 0 0 0 0 0 0 0 0 0 0 0 0 0 0 0 0 0 0 0 0 0 0 0 0 0 0 0 0 0 0 0 0 0 0 0 0 0 0 0 0 0 0 0 0 0 0 0 0 0 0 0 0 0 0 0 0 0 0 0 0 0 0 0 0 0 0 0 0 0 0 0 0 0 0 0 0 0 0 0 0 0 0 0 0 0 0 0 0 0 0 0 0 0 0 0 0 0 0 0 0 0 0 0 0 0 0 0 0 0 0 0 0 0 0 0 0 0 0 0 0 0 0 0 0 0 0 0 0 0 0 0 0 0 0 0 0 0 0 0 0 0 0 0 0 0 0 0 0 0 0 0 0 0 0 0 0 0 0 0 0 0 0 0 0 0 0 0 0 0 0 0 0 0 0 0 0 0 0 0 0 0 0 0 0 0 0 0 0 0 0 0 0 0 0 0 0 0 0 0 0 0 0 0 0 0 0 0 0 0 0 0 0 0 0 0 0 0 0 0 0 0 0 0 0 0 0 0 0 0 0 0 0 0 0 0 0 0 0 0 0 0 0 0 0 0 0 0 0 0 0 0 0 0 0 0 0 0 0 0 0 0 0 0 0 0 0 0 0 0 0 0 0 0 0 0 0 0 0 0 0 0 0 0 0 0 0 0 0 0 0 0 0 0 0 0 0 0 0 0 0 0 0 0 0 0 0 0 0 0 0 0 0 0 0 0 0 0 0 0 0 0 0 0 0 0 0 0 0 0 0 0 0 0 0 0 0 0 0 0 0 0 0 