P2
144 129
255
0 0 0 0 0 0 0 0 0 0 0 0 0 0 0 0 0 0 0 0 0 0 0 0 0 0 0 0 0 0 0 0 0 0 0 0 0 0 0 0 0 0 0 0 0 0 0 0 0 0 0 0 0 0 0 0 0 0 0 0 0 0 0 0 0 0 0 0 0 0 0 0 0 0 0 0 0 0 0 0 0 0 0 0 0 0 0 0 0 0 0 0 0 0 0 0 0 0 0 0 0 0 0 0 0 0 0 0 0 0 0 0 0 0 0 0 0 0 0 0 0 0 0 0 0 0 0 0 0 0 0 0 0 0 0 0 0 0 0 0 0 0 0 0 0 0 0 0 0 0 0 0 0 0 0 0 0 0 0 0 0 0 0 0 0 0 0 0 0 0 0 0 0 0 0 0 0 0 0 0 0 0 0 0 0 0 0 0 0 0 0 0 0 0 0 0 0 0 0 0 0 0 0 0 0 0 0 0 0 0 0 0 0 0 0 0 0 0 0 0 0 0 0 0 0 0 0 0 0 0 0 0 0 0 0 0 0 0 0 0 0 0 0 0 0 0 0 0 0 0 0 0 0 0 0 0 0 0 0 0 0 0 0 0 0 0 0 0 0 0 0 0 0 0 0 0 0 0 0 0 0 0 0 0 0 0 0 0 115 119 121 134 97 130 132 115 130 159 146 118 140 152 145 128 133 155 128 118 93 114 112 186 201 174 168 192 176 161 194 181 162 212 157 178 191 169 171 193 197 159 162 198 176 178 180 187 92 158 203 173 169 188 190 114 171 203 188 151 191 174 141 79 194 166 158 175 165 109 138 179 170 168 165 178 160 141 190 170 168 147 177 184 169 185 194 194 196 206 206 210 206 205 216 205 205 210 195 202 172 173 175 169 185 167 175 163 159 154 162 155 147 147 143 149 157 170 158 125 148 118 134 141 149 121 47 136 148 127 84 74 103 115 78 104 123 136 125 97 112 105 108 69 94 93 78 129 100 95 110 100 70 108 97 112 5 106 128 145 76 129 113 105 101 105 140 183 187 179 148 180 155 159 184 183 195 221 192 193 224 192 164 206 223 186 202 240 209 179 224 210 164 202 237 199 203 234 200 177 217 232 198 209 228 171 195 205 203 167 201 183 193 182 172 206 178 185 185 196 170 182 213 182 180 175 183 167 167 166 157 173 192 185 189 204 181 177 188 155 146 168 108 171 127 137 145 122 158 95 155 125 128 148 135 138 130 115 106 111 87 96 40 102 145 120 78 101 119 97 101 116 121 87 104 96 115 87 83 120 106 94 91 98 120 79 100 125 78 50 64 85 85 52 53 102 55 67 84 67 91 63 90 133 105 109 96 94 107 72 139 137 86 150 142 163 126 172 140 190 176 221 191 191 225 220 190 223 247 220 227 255 237 222 239 245 231 226 249 235 237 239 239 234 237 249 235 244 209 217 225 228 205 156 228 190 218 189 196 214 182 197 148 214 165 190 212 180 196 192 175 148 155 118 140 141 184 150 170 188 155 173 161 142 133 128 127 148 81 63 138 127 121 122 124 119 112 122 114 68 111 85 61 77 103 72 48 52 106 110 108 102 60 96 82 40 92 92 87 66 102 85 35 113 68 72 89 62 110 77 41 117 77 55 56 53 83 83 53 77 66 61 42 66 80 74 99 82 108 109 85 100 101 19 131 93 119 98 81 135 102 138 109 173 171 186 187 150 203 189 195 174 229 212 203 237 213 216 205 219 232 205 233 216 228 194 217 235 206 233 218 233 194 207 224 212 208 169 222 201 212 184 191 204 179 183 181 198 176 173 191 164 181 144 81 145 148 147 91 142 150 120 80 147 95 117 130 138 124 107 106 137 93 95 106 128 114 99 100 60 106 84 73 80 72 64 78 71 85 79 49 74 78 55 83 60 27 83 1 49 66 85 28 50 57 93 57 80 53 41 58 46 70 67 45 84 71 21 48 71 46 75 68 36 77 52 29 63 9 71 108 38 59 46 39 71 61 72 117 110 102 92 85 105 78 86 101 130 166 150 155 94 184 149 157 180 163 157 94 198 157 169 192 146 182 153 187 180 177 200 168 196 183 177 180 161 197 176 190 156 180 152 181 164 173 160 138 166 136 139 131 143 136 110 141 99 137 144 122 122 92 137 129 90 115 117 84 111 118 111 119 116 81 88 92 107 79 95 95 113 90 90 63 41 83 19 79 43 60 62 42 68 55 51 43 24 24 27 60 70 32 54 52 51 63 53 54 75 63 70 48 42 73 28 47 1 62 53 46 56 18 72 63 84 30 53 56 32 80 73 44 64 60 24 100 77 14 87 89 60 56 45 103 89 96 83 85 93 49 84 95 77 148 158 134 134 159 137 110 158 180 141 144 202 168 113 190 189 137 141 198 127 153 193 183 113 125 191 170 164 165 149 69 140 159 123 154 170 107 106 119 134 101 115 125 86 71 98 75 42 114 117 87 46 100 64 59 123 83 83 108 80 77 9 80 69 84 62 62 65 56 76 92 95 72 75 25 55 42 35 89 51 50 47 24 56 68 60 75 83 8 15 69 63 45 49 79 8 78 23 63 47 69 76 66 70 53 22 60 10 63 58 78 22 50 70 50 67 22 49 45 30 76 61 60 56 38 74 49 72 72 73 82 50 65 56 105 136 128 141 134 130 70 112 124 103 128 183 167 178 124 157 151 166 196 172 165 208 196 177 200 207 182 172 208 188 174 202 201 188 188 213 192 191 135 151 160 153 186 133 177 172 158 158 161 153 123 158 137 108 133 124 127 100 111 110 114 117 77 90 93 57 43 66 78 48 78 95 53 76 65 42 77 24 2 28 57 98 66 21 26 27 4 67 70 62 53 21 52 39 53 74 62 72 34 25 51 20 19 63 52 52 52 46 52 7 52 71 64 71 52 5 46 48 41 58 63 59 21 33 38 0 43 22 58 19 47 5 3 17 17 80 84 57 24 30 40 39 58 49 98 143 122 149 115 126 99 118 127 108 125 166 153 172 149 133 156 152 160 164 155 186 169 180 182 174 173 152 182 166 171 183 167 187 165 191 171 188 183 142 162 169 185 100 182 188 184 178 183 167 166 172 152 157 153 157 159 120 130 129 153 100 125 128 88 134 96 74 117 104 56 121 100 59 118 93 23 91 52 50 110 79 64 49 17 20 28 67 16 22 27 19 57 4 57 62 54 51 12 27 41 43 2 54 26 48 1 23 28 46 16 30 12 13 40 0 17 35 50 34 44 66 17 18 48 37 31 13 47 25 37 9 21 41 23 41 44 64 52 30 30 24 56 17 65 123 101 123 57 70 91 96 107 58 130 100 64 117 123 94 127 127 103 96 84 134 101 144 134 84 104 109 131 97 139 154 128 147 121 112 73 146 165 131 144 92 157 121 161 154 166 147 159 150 162 143 91 150 138 157 165 125 155 168 161 129 129 139 86 145 114 89 140 145 113 109 107 96 138 110 113 106 57 47 124 83 32 30 62 34 22 63 35 5 44 48 42 23 68 45 44 47 21 35 37 47 14 45 42 44 28 31 3 42 24 8 19 24 28 21 11 14 33 32 33 36 20 23 47 17 12 7 17 28 41 37 34 20 15 16 61 26 37 39 29 10 31 20 95 49 54 89 40 40 42 69 58 85 111 73 121 117 107 79 104 131 92 132 106 129 118 121 135 25 119 100 115 115 120 142 96 137 86 113 115 118 147 89 140 40 125 124 145 126 26 130 102 136 112 130 128 111 145 135 158 44 155 152 129 139 134 133 110 146 124 117 125 141 119 67 86 92 127 58 110 80 70 73 107 37 67 56 42 60 19 59 56 4 45 26 31 46 68 36 28 22 37 30 35 39 34 35 2 29 24 23 20 18 26 29 25 32 26 25 19 35 4 35 23 37 6 2 40 2 3 10 17 25 40 2 46 32 51 16 54 32 50 14 12 15 18 37 91 82 36 63 65 62 0 52 103 120 140 124 92 96 107 52 79 129 127 86 82 146 121 111 136 116 88 96 136 118 103 144 101 101 36 130 104 90 151 120 126 98 136 104 127 136 92 117 92 137 98 124 94 118 115 93 144 100 132 129 110 98 108 129 51 97 126 83 112 107 77 86 92 44 58 0 72 69 48 36 86 54 36 4 26 36 41 13 60 17 17 21 26 40 39 27 43 7 12 2 28 33 40 6 42 36 10 14 27 27 28 22 2 14 18 28 34 35 0 41 42 32 18 26 27 3 2 28 8 25 45 12 22 33 33 25 35 8 67 14 18 30 33 68 67 91 42 56 51 58 40 96 135 141 134 143 124 117 107 87 60 130 143 108 101 148 111 98 127 125 78 63 131 89 57 138 121 87 100 128 89 30 144 126 102 113 136 90 108 128 113 105 82 126 94 103 99 127 91 117 117 111 115 125 140 103 118 143 127 124 139 113 81 115 78 21 92 35 82 60 21 30 58 9 80 52 2 49 21 4 21 3 41 19 0 27 25 14 3 32 49 2 17 13 24 27 27 19 31 20 12 5 25 35 24 3 35 39 0 20 30 14 2 26 31 20 25 20 16 12 7 17 20 8 34 30 1 8 33 38 61 48 45 10 6 41 37 33 64 94 76 66 17 35 33 77 116 115 53 108 103 100 84 42 18 107 84 83 60 124 111 96 91 55 87 58 108 105 78 119 78 79 64 119 98 77 121 85 90 98 102 99 53 97 53 76 63 90 87 60 74 85 82 76 96 100 84 105 100 88 70 114 107 103 110 98 66 103 73 62 78 25 77 59 31 26 48 16 80 56 17 55 17 10 5 0 25 9 2 14 29 15 12 49 22 4 14 37 41 4 15 7 20 17 27 0 18 19 21 0 16 34 10 7 2 18 1 4 35 4 18 27 34 30 19 4 22 17 32 31 1 29 61 59 86 85 46 3 48 56 30 54 65 65 64 54 41 32 7 8 39 33 84 75 85 74 59 82 67 87 71 112 83 60 135 133 95 111 120 112 101 131 117 84 135 123 100 118 135 120 108 93 112 65 29 104 112 103 92 85 43 43 82 76 70 39 76 59 70 67 75 58 49 60 46 57 73 15 20 36 60 54 38 45 41 23 46 38 7 45 19 25 70 39 17 42 22 6 6 2 17 13 0 2 28 13 6 39 2 3 4 31 27 13 10 8 30 36 14 15 31 16 38 8 0 6 6 35 12 9 1 19 26 34 27 27 37 19 27 0 18 36 13 15 6 9 49 80 77 84 63 17 53 70 47 53 48 44 75 54 37 22 23 40 55 25 69 96 108 98 91 73 95 95 96 124 107 123 136 141 112 116 136 103 120 135 120 100 123 138 78 126 144 127 110 105 125 82 85 112 116 95 101 109 35 29 75 95 81 73 95 70 85 61 87 63 36 87 65 41 77 28 40 8 74 13 31 14 19 31 27 50 48 19 10 27 67 4 28 2 18 16 6 14 9 5 6 11 1 0 1 10 7 3 5 22 20 18 10 8 20 43 4 17 30 5 46 9 2 22 22 43 38 15 0 25 7 39 22 15 13 10 22 10 11 32 25 22 22 4 12 82 62 24 30 55 23 56 47 37 56 87 35 71 41 40 53 60 76 42 79 87 69 86 115 12 89 85 73 86 72 130 105 115 60 34 106 92 118 91 92 107 84 108 80 110 109 102 88 73 96 41 91 87 89 78 40 88 41 46 46 77 56 76 76 77 91 33 75 72 83 69 20 81 61 59 69 58 67 60 12 47 25 38 28 30 41 16 11 41 57 21 27 22 45 4 25 8 16 5 5 30 13 4 5 28 5 3 11 20 14 34 17 18 25 38 16 9 7 8 37 18 4 42 16 23 8 16 0 29 5 41 37 4 26 10 16 34 17 19 34 39 17 57 59 80 79 61 80 65 15 6 68 21 70 106 74 86 19 27 57 67 94 73 46 105 70 66 120 34 89 96 116 51 59 130 106 93 90 91 52 61 124 87 19 109 105 46 49 128 94 75 87 50 56 49 107 57 72 79 17 45 29 47 31 58 74 92 5 61 94 43 45 92 74 51 54 96 31 50 73 76 55 71 58 42 51 37 15 35 28 47 42 35 66 42 12 32 44 16 35 21 40 10 16 49 16 29 23 34 22 43 37 12 20 44 41 48 5 13 21 6 13 16 42 20 7 45 14 3 28 10 0 19 21 42 45 17 38 3 23 35 42 5 23 48 56 70 45 55 73 6 88 59 26 56 67 20 90 77 53 67 78 72 59 49 104 77 55 89 64 37 105 62 85 59 117 76 77 113 85 51 85 69 44 38 104 86 54 92 91 75 81 124 88 53 86 69 65 46 113 74 75 54 64 60 23 70 71 75 74 103 66 46 96 71 46 81 88 66 19 87 43 43 63 73 1 54 45 44 58 67 69 58 46 56 45 8 64 64 2 22 34 24 29 32 25 15 9 49 0 40 50 16 28 46 44 18 26 35 55 45 9 30 17 7 24 32 50 21 4 33 10 8 47 17 4 22 40 22 34 12 28 5 11 5 15 19 9 31 39 15 81 76 88 85 98 69 49 64 42 25 91 109 57 70 74 86 31 30 93 42 60 71 53 21 70 63 41 56 94 70 52 65 51 44 40 25 40 13 47 31 32 49 35 56 5 88 56 26 58 72 51 50 95 69 64 65 58 57 15 65 77 72 48 87 64 53 87 50 46 49 82 52 31 69 42 49 37 68 36 54 45 40 57 70 76 41 47 46 15 9 42 40 7 0 15 9 20 9 24 1 5 28 19 28 48 11 8 33 27 22 7 8 17 4 6 21 30 9 11 11 19 25 22 9 5 15 43 21 10 23 31 8 26 12 14 3 17 4 13 22 17 29 24 62 85 47 98 110 94 72 59 31 24 51 67 89 57 65 27 65 25 50 61 7 44 33 50 33 4 15 29 13 33 42 4 40 39 41 53 20 28 54 31 14 22 34 30 35 31 27 10 7 44 47 44 57 56 16 19 38 23 46 23 41 21 35 58 36 46 16 44 24 11 31 39 37 28 46 16 43 29 67 44 55 50 54 60 63 57 34 40 35 16 16 33 18 3 14 6 3 21 3 26 26 5 13 38 21 39 27 2 22 19 14 1 8 21 8 15 34 24 16 4 21 8 24 36 1 9 2 5 10 8 46 29 13 14 7 4 9 36 13 12 27 21 10 8 65 63 82 65 104 46 28 78 42 48 77 44 12 52 49 11 44 31 45 22 30 38 5 31 20 31 9 12 21 26 33 8 44 43 63 52 26 35 53 30 11 11 41 32 42 34 29 35 24 49 16 28 31 30 58 24 14 5 6 32 12 28 31 13 10 58 12 38 28 27 42 16 32 14 8 22 25 9 39 13 44 24 2 35 43 21 29 33 5 8 4 5 17 26 25 1 11 11 13 1 28 32 36 8 18 3 3 4 7 27 12 15 2 20 7 35 27 23 6 12 20 5 3 32 12 3 33 30 2 5 50 16 25 6 17 1 16 41 2 12 9 27 11 2 49 70 62 61 55 23 25 64 39 50 69 52 30 32 4 17 43 48 46 15 44 43 0 25 5 41 15 28 5 20 10 8 21 45 49 41 39 31 21 32 25 24 36 13 19 26 5 30 9 18 2 3 9 44 32 30 12 8 35 1 30 26 31 8 26 55 5 41 26 26 23 17 24 8 39 13 33 9 20 4 36 12 20 1 21 30 10 18 28 16 3 5 24 36 22 22 10 1 21 2 2 33 6 24 32 7 8 1 16 16 7 9 1 16 17 37 13 21 17 25 1 16 5 15 10 21 48 21 1 6 13 15 29 3 15 10 22 43 11 14 4 36 0 32 42 78 24 40 69 44 31 63 8 54 44 62 22 24 36 15 1 1 33 21 34 43 4 33 34 42 34 32 10 16 37 13 21 39 18 45 30 19 9 26 48 32 8 19 0 15 30 5 11 12 6 4 17 50 24 34 4 30 32 17 39 10 27 23 25 45 9 28 17 15 10 23 24 9 35 12 38 20 21 1 12 23 21 17 17 32 30 13 18 11 23 36 39 29 3 33 0 3 29 5 6 18 11 6 23 10 0 12 5 6 15 1 4 17 11 11 7 5 4 18 16 11 15 13 17 22 35 11 2 23 24 21 12 15 2 9 11 32 21 11 11 27 31 28 63 73 59 31 78 45 33 62 29 44 55 48 32 29 42 33 33 32 30 0 2 22 4 23 16 22 17 24 17 8 34 19 20 27 9 38 30 0 15 8 54 20 24 26 14 33 40 32 14 14 7 22 43 46 20 32 18 15 15 12 47 4 23 28 17 27 4 17 22 5 30 10 7 9 5 31 13 37 12 17 0 24 9 20 13 11 12 13 2 31 22 60 59 18 4 28 6 7 29 5 21 12 7 23 18 18 4 5 6 5 16 6 19 12 10 3 17 2 6 13 7 35 16 17 30 2 13 1 1 16 20 36 2 20 3 14 11 12 25 22 2 15 19 18 62 62 51 43 66 42 67 34 55 33 46 29 44 11 47 22 18 45 20 11 14 13 14 26 29 33 22 24 30 6 24 27 4 8 19 31 20 13 4 1 36 37 29 16 10 28 34 30 32 17 0 24 45 0 13 38 30 2 6 14 46 22 11 21 2 3 12 22 29 5 31 5 6 23 4 22 2 38 8 31 8 22 1 8 17 9 11 7 3 18 18 63 78 20 7 17 8 21 15 18 39 21 10 27 5 9 2 0 11 2 14 14 15 14 4 9 16 17 11 7 9 35 27 1 22 14 4 10 2 5 1 25 6 17 15 22 17 10 17 28 7 21 17 26 33 61 57 80 32 85 66 29 13 53 7 48 46 22 24 40 33 40 30 20 28 25 28 23 8 31 12 14 16 14 27 25 6 19 18 22 6 13 15 12 18 23 37 27 11 13 20 3 4 10 4 25 20 20 22 38 38 39 18 34 46 26 13 21 10 27 15 39 31 7 6 26 2 27 11 22 17 36 19 20 18 16 9 7 22 3 28 21 0 18 36 77 79 7 32 14 19 20 8 18 31 37 26 2 1 3 6 8 21 0 36 8 8 28 3 0 5 17 3 2 24 36 30 12 5 15 7 27 1 13 9 17 22 13 19 19 4 27 5 9 6 18 16 9 40 32 42 98 93 94 57 36 50 64 36 72 31 41 5 49 38 9 17 26 35 16 26 13 22 6 8 17 8 44 30 8 3 28 32 14 4 9 6 16 8 30 24 16 26 21 17 8 29 24 12 19 42 44 7 27 23 46 51 31 42 4 14 35 9 31 7 39 36 10 32 31 0 11 6 9 9 31 23 1 5 16 16 20 9 17 36 28 1 13 29 76 65 0 19 20 15 21 5 3 16 8 15 22 12 15 8 27 23 27 48 9 5 18 12 12 24 10 12 4 19 19 23 27 10 2 7 31 7 30 14 2 29 14 16 18 16 37 7 1 0 7 6 6 29 19 51 74 95 40 2 43 23 64 43 78 7 34 15 30 24 38 15 33 16 13 36 20 23 0 24 28 35 67 18 6 38 33 40 1 12 7 10 18 24 17 6 38 15 45 17 8 24 27 39 30 6 36 52 37 18 20 44 41 0 4 3 38 25 30 7 39 21 31 14 14 6 19 7 7 26 18 23 4 11 15 2 22 13 7 24 28 17 15 13 63 43 2 3 2 23 19 23 3 25 23 19 4 13 27 24 27 21 32 25 12 0 1 10 13 11 35 13 4 4 6 14 9 18 12 20 24 7 21 29 14 3 22 9 19 14 14 6 1 1 5 12 4 13 18 51 56 64 46 45 21 30 46 32 86 61 18 20 8 44 29 23 33 18 38 46 13 40 51 55 8 50 76 62 21 67 73 61 58 35 15 26 55 70 60 48 50 49 51 41 8 11 42 56 30 12 43 61 8 29 3 16 38 22 24 8 23 49 7 14 43 11 24 8 9 11 21 7 4 18 8 4 9 13 13 7 28 33 2 12 12 23 19 13 29 13 6 2 9 26 25 16 16 35 19 15 11 7 34 18 17 16 16 26 10 1 6 15 29 15 30 28 0 5 12 21 2 2 8 14 25 29 10 29 16 9 48 19 9 5 11 17 4 10 3 20 5 30 23 35 64 21 18 46 28 0 30 38 81 77 23 35 12 43 18 16 39 10 38 39 8 40 58 54 4 45 71 46 57 60 71 41 64 33 8 45 73 62 53 60 24 64 43 39 8 24 29 47 21 0 47 55 22 48 33 25 34 7 18 8 15 40 26 6 46 27 18 2 20 23 1 4 18 8 33 22 6 3 11 25 19 17 9 39 13 0 16 19 16 27 9 6 3 17 17 1 28 17 10 7 9 16 27 4 7 10 1 39 22 13 4 17 30 1 10 27 0 3 7 8 3 6 9 10 5 37 12 11 17 14 48 16 0 17 25 28 2 27 11 18 18 33 19 20 17 47 19 50 27 7 36 47 51 61 49 55 18 27 35 38 22 28 29 36 10 38 47 44 10 22 49 20 57 55 52 14 34 16 30 43 24 21 7 32 17 49 37 34 9 20 26 38 40 48 33 53 25 42 70 24 24 15 7 12 17 5 17 11 44 52 20 6 21 24 18 13 42 27 38 27 2 6 27 32 2 0 21 43 14 23 19 22 14 13 0 1 3 12 17 18 9 16 14 26 30 27 17 5 12 8 20 41 23 25 14 12 26 23 13 22 22 12 7 1 6 4 16 1 8 40 17 12 11 22 16 7 3 14 30 37 2 40 25 11 26 10 0 45 28 54 5 36 25 1 17 40 58 6 18 69 44 31 15 31 20 58 43 50 15 26 40 51 33 13 38 32 49 66 43 54 1 7 28 32 44 11 51 42 12 36 39 15 19 32 36 26 45 59 29 50 26 49 70 51 63 51 33 14 36 41 17 12 27 46 1 35 28 26 12 48 52 22 13 17 0 15 40 26 0 4 27 37 14 37 9 56 13 6 19 20 15 22 32 27 26 35 25 35 28 21 15 2 33 11 40 45 23 27 5 5 7 35 22 42 43 9 1 14 27 7 21 28 2 40 5 0 15 35 44 22 1 1 38 22 15 36 32 30 27 21 13 52 17 43 17 15 30 12 23 37 60 67 48 79 23 50 38 57 84 40 63 53 57 58 27 67 28 58 67 13 34 82 65 75 8 62 15 42 38 11 67 57 46 49 39 3 29 5 32 43 74 38 36 43 49 64 30 48 67 52 36 8 32 43 3 29 43 14 28 35 25 42 54 46 42 18 13 0 16 3 21 31 9 25 31 25 15 39 33 62 10 29 18 31 9 24 28 22 38 29 21 39 8 10 6 3 41 13 53 44 28 35 5 18 21 22 7 29 34 4 17 45 39 34 41 48 7 26 6 1 37 6 34 16 8 2 19 25 13 8 0 9 4 24 18 40 22 44 22 13 37 13 34 4 2 64 61 64 50 53 25 78 94 74 44 21 49 70 22 60 49 63 74 63 57 78 46 71 52 67 31 66 39 39 58 34 48 57 33 19 31 13 40 30 43 40 11 11 63 47 11 46 44 7 28 11 9 27 14 27 48 9 18 34 29 28 60 30 11 13 47 16 13 31 9 20 2 26 32 30 22 29 17 18 17 38 23 9 5 15 27 11 20 26 4 32 10 42 7 22 40 30 37 10 18 26 0 26 23 3 16 19 20 1 33 21 21 36 38 42 30 8 35 14 24 23 20 27 15 24 13 25 6 4 22 17 16 15 33 53 63 24 34 35 56 23 35 13 51 49 83 17 74 11 14 69 62 69 5 5 17 39 22 25 66 56 39 66 38 52 51 36 42 18 48 38 21 18 17 46 35 36 38 33 14 10 25 14 0 30 38 17 38 41 15 15 8 1 18 31 2 17 54 6 15 5 2 27 31 2 42 33 11 32 48 14 6 11 6 9 4 6 24 24 21 23 21 35 29 31 8 27 21 20 30 4 15 35 17 8 12 48 30 25 24 21 9 9 15 27 15 20 5 14 10 16 18 9 38 24 24 15 10 23 20 31 47 52 1 38 5 45 26 7 46 6 30 13 27 25 19 43 44 54 29 43 56 58 62 46 13 40 38 81 85 63 75 30 5 24 13 37 11 17 30 33 29 20 56 5 47 19 32 41 28 34 36 27 14 26 61 12 7 55 18 22 29 42 4 20 5 38 46 9 62 55 10 42 15 40 19 26 35 26 43 12 51 48 30 10 32 6 32 28 53 40 4 37 33 13 24 17 1 6 8 15 2 11 23 1 41 23 0 16 42 22 31 22 24 23 16 33 20 15 25 36 30 31 24 4 14 14 8 25 30 6 1 16 5 19 20 18 26 21 18 11 6 7 23 29 38 52 25 34 18 29 33 35 43 35 3 15 37 16 6 58 24 35 6 26 70 63 44 31 36 51 75 89 46 57 63 28 13 19 28 16 11 5 30 46 14 36 14 38 25 14 17 38 19 31 48 22 52 22 56 4 24 49 19 33 5 30 22 38 17 39 52 29 60 59 31 31 44 50 32 44 32 41 37 30 19 32 34 19 36 11 45 18 57 49 33 19 20 23 17 19 17 23 8 51 7 25 27 16 35 15 2 21 55 33 25 27 23 34 5 25 22 23 25 25 10 24 16 17 31 15 8 10 12 24 24 8 15 1 40 4 24 35 16 18 21 9 21 17 19 17 25 13 31 18 15 47 8 29 50 50 51 7 29 39 22 39 20 37 64 57 30 32 65 43 75 69 26 11 55 48 14 30 35 2 6 22 14 28 17 53 34 33 31 31 28 14 32 21 28 13 43 59 13 12 39 39 32 31 17 14 41 29 16 41 30 27 42 51 49 21 49 30 26 32 46 46 51 31 23 6 4 32 22 29 39 11 36 39 30 7 33 48 22 10 53 29 22 62 11 0 9 10 39 25 14 39 47 36 22 34 6 44 24 31 18 13 36 5 17 21 2 37 26 35 32 10 22 28 18 9 4 15 49 6 33 27 41 22 29 28 3 14 6 13 12 18 8 27 7 21 28 11 33 66 40 25 46 6 2 16 33 33 22 53 56 27 58 32 71 41 28 34 30 60 21 13 15 12 22 28 4 7 15 42 49 41 36 38 26 27 29 29 1 17 44 55 30 15 27 37 49 18 34 5 33 2 17 36 45 37 13 18 17 37 48 6 19 5 50 52 36 21 33 37 21 27 16 20 30 14 10 31 35 0 19 46 20 35 44 22 5 55 18 19 0 3 40 21 44 34 26 28 16 9 20 28 37 30 1 6 38 14 39 16 5 31 7 38 33 24 36 1 25 7 8 27 28 13 29 4 38 12 28 34 7 26 10 25 23 30 36 21 16 11 12 23 30 41 24 17 47 20 36 37 52 35 25 41 73 43 9 50 41 54 14 54 4 63 17 23 9 4 22 22 46 31 38 11 27 42 46 48 41 51 10 9 22 14 48 38 38 4 18 45 49 0 35 15 7 32 25 19 40 25 4 18 21 31 44 23 19 18 12 10 17 41 7 25 39 18 32 12 29 14 9 13 25 28 1 3 3 27 12 12 21 41 24 16 3 38 32 4 33 8 10 20 22 5 2 3 44 7 32 14 36 29 22 7 28 6 6 49 17 17 18 15 20 19 17 34 8 15 32 12 10 7 19 40 9 45 10 46 18 19 36 47 27 4 27 51 22 32 39 5 52 31 54 35 29 21 31 44 41 53 27 69 62 58 36 41 21 63 50 44 18 13 32 20 51 47 15 8 27 47 47 40 46 45 22 22 42 51 41 42 39 17 40 52 42 13 26 19 7 43 18 18 37 30 21 17 28 46 57 63 28 29 28 1 34 44 41 11 7 0 54 11 35 7 3 10 27 28 16 41 31 28 39 19 5 41 9 24 37 52 26 23 29 21 15 19 28 27 36 32 38 8 36 21 33 46 22 26 20 27 32 29 17 22 8 21 45 18 5 36 6 14 39 29 14 8 19 36 38 50 10 55 17 29 49 29 32 20 43 39 37 59 31 4 33 2 47 23 24 43 61 45 41 47 24 55 53 55 69 60 49 40 47 46 0 23 48 18 16 22 20 29 33 53 36 31 45 35 30 35 34 40 1 39 25 17 36 59 50 47 19 33 32 39 17 48 38 51 9 27 31 29 56 51 42 46 31 1 42 39 37 41 15 55 50 24 47 20 25 26 5 42 37 49 43 37 40 35 25 24 11 9 32 53 45 27 43 23 22 6 10 41 33 46 30 17 15 12 29 44 3 50 3 0 5 13 31 50 28 3 0 32 3 39 44 2 22 32 41 16 23 28 59 32 14 49 14 9 62 12 45 63 34 20 48 63 59 12 35 23 37 32 48 64 75 81 81 55 23 66 90 67 73 70 33 38 7 49 37 29 54 17 42 22 8 42 24 65 45 30 13 19 37 19 61 15 39 58 41 19 25 45 60 48 9 44 44 32 38 33 70 48 35 18 48 30 23 41 21 72 34 47 37 33 48 57 14 67 38 27 51 10 51 31 55 50 31 28 62 54 41 50 42 25 22 48 56 63 46 47 26 28 21 27 41 62 28 41 67 42 55 34 19 22 23 48 51 47 25 32 45 68 58 52 44 66 1 55 66 9 55 17 54 40 41 30 62 27 40 41 17 1 57 50 57 54 44 41 25 60 78 45 61 33 58 40 51 55 57 77 74 61 55 54 89 60 60 25 20 50 20 73 41 57 22 45 41 39 30 39 36 60 47 42 35 50 44 27 75 30 38 67 61 40 49 28 55 14 38 7 51 22 37 14 62 47 46 37 56 48 44 47 37 65 47 26 46 12 69 63 50 40 74 40 51 32 59 22 69 42 10 45 35 47 44 40 39 40 42 64 59 47 14 36 23 49 15 61 58 74 32 55 80 39 53 24 36 34 37 23 68 37 32 37 56 68 81 61 24 72 31 57 66 47 83 50 53 41 52 38 43 66 21 50 7 19 45 76 41 8 71 35 25 48 78 40 81 78 53 3 36 55 29 38 42 46 73 71 87 70 56 54 22 65 46 81 44 51 35 28 31 51 35 51 55 49 58 51 66 52 38 35 87 63 35 73 73 48 59 26 8 23 63 35 62 43 55 15 43 88 52 32 63 72 47 75 46 15 13 50 31 28 48 47 40 67 79 48 61 24 56 7 51 78 46 61 48 32 41 41 50 39 51 20 59 33 9 42 26 60 54 70 63 71 58 64 83 47 48 29 48 41 18 30 55 35 31 57 58 40 91 35 48 77 49 34 25 16 78 10 55 63 30 69 61 77 43 50 45 0 34 78 53 55 67 37 52 67 77 37 87 83 65 22 25 49 67 74 85 73 52 7 90 77 46 40 61 50 57 62 63 41 58 37 60 57 50 56 47 61 61 86 63 45 53 43 70 65 46 59 87 68 70 60 45 63 65 68 86 14 80 67 74 86 67 82 80 81 59 76 52 62 33 41 68 29 45 56 27 47 75 55 52 52 54 1 21 91 66 61 58 73 36 53 63 43 76 46 75 53 11 62 19 30 66 80 88 34 72 34 88 58 36 34 39 13 35 23 35 48 54 62 19 12 106 49 41 85 23 53 30 60 81 41 74 64 38 71 68 80 42 57 44 12 43 85 26 38 85 24 41 68 88 65 100 89 81 38 51 32 73 75 88 67 76 88 93 75 70 85 37 57 46 6 51 61 61 55 80 63 47 71 42 68 34 99 90 43 67 55 53 32 50 104 61 70 60 59 59 73 72 56 97 9 81 70 72 68 61 96 85 58 79 45 82 80 70 61 70 40 53 77 37 53 91 35 48 61 76 33 64 58 40 71 49 74 20 60 70 65 91 77 86 68 29 48 35 63 6 48 103 99 70 56 95 85 29 49 77 52 53 30 57 58 72 60 51 78 89 97 63 100 45 73 65 73 87 70 74 73 41 69 79 72 50 90 29 57 17 84 32 56 97 59 67 5 93 61 82 102 61 72 80 78 94 63 94 65 12 103 101 44 72 107 70 93 89 77 77 42 36 53 97 53 34 76 55 62 49 93 85 58 65 49 76 38 67 111 80 83 81 70 45 72 85 72 84 66 63 69 71 84 74 70 84 60 87 83 83 89 62 72 17 64 26 73 17 88 111 53 70 67 90 29 90 85 69 82 57 34 22 63 69 76 81 65 66 76 14 16 40 65 34 25 90 102 90 97 103 85 66 23 73 40 64 72 85 79 66 77 35 80 68 91 62 96 81 72 70 62 78 90 77 95 87 70 94 68 40 105 48 87 83 59 69 53 72 44 54 39 73 23 48 60 55 76 55 80 65 82 78 34 78 96 87 87 20 93 61 103 75 88 49 58 51 42 97 65 65 75 74 71 35 81 75 59 57 51 65 74 76 91 76 87 82 60 35 76 66 70 53 68 46 83 48 76 70 40 58 58 98 76 60 89 63 15 65 55 60 68 63 89 97 78 57 35 77 23 76 78 29 84 40 49 43 78 13 55 76 74 40 63 30 61 24 7 51 32 69 82 80 107 96 38 76 26 55 36 55 59 91 89 67 52 11 42 86 26 49 41 82 67 70 61 60 82 83 75 88 66 80 45 39 97 53 83 88 80 69 34 54 28 28 39 34 39 62 56 75 56 41 53 14 26 48 76 65 67 32 86 53 81 22 90 76 80 20 48 75 62 71 52 29 54 76 65 30 59 57 65 56 45 61 66 56 61 67 78 48 33 42 77 56 46 16 35 39 75 63 24 54 39 35 41 75 74 43 52 27 61 54 57 31 74 65 55 60 26 80 64 65 38 46 41 59 73 3 64 46 58 35 19 67 44 55 12 21 74 54 46 71 50 48 53 34 69 45 41 68 20 58 60 50 46 54 67 62 63 26 11 63 50 74 5 59 69 56 55 44 46 66 64 63 39 35 71 46 67 30 46 88 89 23 40 71 52 59 32 49 56 28 31 59 38 62 40 62 43 28 59 54 0 11 76 21 78 26 55 83 67 43 26 80 59 42 64 47 60 53 62 12 55 22 69 68 33 81 40 76 47 64 84 52 27 43 77 49 45 21 50 45 54 35 21 50 52 40 60 27 41 59 2 49 18 71 64 27 56 50 50 65 44 67 55 81 56 60 61 47 62 6 58 47 16 11 5 19 42 62 24 33 46 41 79 67 56 31 39 39 4 60 57 46 28 54 61 10 58 30 58 16 71 57 18 38 72 52 8 65 70 36 39 31 40 80 48 42 38 38 76 13 59 58 45 62 65 36 56 37 48 53 67 47 67 55 66 45 9 19 78 15 83 56 51 9 70 48 50 46 51 45 49 93 48 55 43 73 15 44 61 61 49 27 79 48 68 23 67 66 61 78 43 58 56 63 74 51 78 13 60 33 33 47 66 56 46 18 31 18 68 71 76 35 56 45 42 29 66 41 43 12 21 39 72 64 22 67 70 81 30 49 67 37 43 38 62 63 59 35 55 63 53 63 12 31 62 65 81 79 57 30 44 37 24 47 13 20 13 48 46 21 54 27 63 74 34 56 34 6 60 50 24 76 55 37 49 47 48 62 30 26 62 52 43 53 73 55 70 30 45 47 38 44 43 32 63 52 38 48 69 52 45 27 80 70 70 55 25 44 77 38 64 43 51 67 64 89 65 37 25 33 39 40 54 39 23 34 57 29 53 47 37 23 63 57 45 19 22 44 21 52 68 43 41 48 16 23 67 61 48 15 61 62 66 60 62 55 57 33 48 55 48 22 42 23 26 30 40 60 27 69 57 57 38 41 42 12 15 53 72 59 54 53 52 58 42 52 46 42 34 35 34 56 49 9 28 51 23 31 31 32 23 25 21 14 42 21 28 67 71 29 42 13 46 37 48 65 9 42 42 45 19 34 17 12 63 69 41 68 46 16 60 3 17 33 10 12 36 12 51 51 12 34 45 48 40 18 60 65 60 36 5 55 60 13 64 39 35 34 37 31 15 45 21 22 21 48 43 17 51 34 8 34 34 23 0 38 36 13 30 6 32 6 18 46 8 0 49 44 25 6 34 37 23 34 39 35 23 41 10 51 29 41 23 50 42 11 22 8 3 50 24 36 31 43 17 43 38 13 23 41 12 34 52 27 40 26 19 26 26 48 48 11 46 33 26 21 11 14 21 42 7 12 23 25 13 17 12 38 14 14 42 41 39 22 24 5 18 10 31 42 14 22 5 44 15 10 4 16 38 46 44 39 61 20 45 2 38 8 17 27 33 7 31 26 18 22 23 36 43 49 41 48 59 0 33 53 13 15 57 12 35 17 36 25 37 44 14 18 28 40 2 32 43 20 41 35 23 24 28 34 13 55 19 9 46 34 1 12 22 9 53 11 21 5 13 23 15 46 43 19 23 39 11 42 20 30 16 29 26 10 13 16 10 34 52 9 12 20 27 40 12 35 8 18 24 2 16 3 31 37 27 36 4 35 34 32 42 10 33 27 25 7 33 25 15 28 17 22 1 10 23 38 13 2 41 30 26 29 10 10 21 12 13 6 9 9 2 55 4 28 0 34 6 5 40 38 68 9 43 32 35 20 16 26 19 11 21 19 30 42 28 32 58 37 42 32 44 38 19 15 15 37 48 12 11 7 15 48 16 43 41 34 6 39 20 34 25 27 60 47 18 52 43 7 24 58 38 9 32 37 18 34 15 14 23 28 11 16 25 29 23 22 31 31 37 35 14 27 30 25 16 5 0 6 11 6 36 25 57 35 11 2 38 1 29 27 45 36 23 7 3 5 11 3 13 34 47 20 26 28 20 4 41 30 39 2 25 29 36 27 10 33 6 2 28 23 16 4 1 36 29 37 12 26 5 10 36 18 10 28 30 46 15 35 19 50 31 4 36 35 45 9 38 43 0 18 6 26 1 15 35 30 9 22 29 33 55 20 23 8 30 51 23 44 9 25 44 4 8 44 38 50 34 22 36 16 33 48 23 37 17 17 43 8 43 58 17 22 15 43 27 17 3 30 5 33 0 22 21 1 10 7 10 45 16 26 23 31 29 49 21 32 12 3 25 23 7 20 26 1 55 38 54 26 24 15 22 24 34 28 42 52 14 15 7 4 4 10 14 8 43 20 29 12 30 8 39 0 43 12 21 10 44 24 14 51 28 5 32 12 5 23 27 36 18 39 10 30 11 32 40 1 31 33 17 40 34 13 15 40 39 18 36 47 9 10 31 32 10 21 2 40 11 9 4 5 14 3 16 24 35 18 8 16 22 48 13 37 8 7 27 8 30 29 40 29 32 12 15 43 54 39 33 22 11 21 36 24 34 31 24 28 8 29 6 24 14 27 33 10 27 23 0 24 9 15 18 38 14 16 18 22 5 21 14 30 19 16 17 32 11 21 8 18 61 17 42 1 24 19 20 11 20 21 0 26 14 7 10 2 4 31 18 6 14 28 35 7 47 28 41 22 31 9 5 10 9 20 15 38 37 5 11 25 16 6 26 38 12 31 6 33 23 45 5 9 24 39 12 18 34 11 4 14 27 9 45 41 6 3 7 25 11 36 28 15 8 1 21 28 0 16 33 35 21 20 40 2 26 41 20 21 27 29 32 27 47 8 23 22 21 26 15 18 35 24 24 19 11 9 51 29 14 11 21 7 9 23 36 18 41 28 34 5 19 40 11 16 29 20 24 32 37 19 13 21 35 1 7 10 31 4 13 18 21 32 20 22 51 38 8 18 18 31 10 15 2 27 20 1 3 9 9 13 16 25 2 5 7 26 23 14 34 20 49 40 4 23 19 1 20 23 1 29 24 19 13 44 13 31 34 35 31 10 19 27 8 28 3 35 15 35 2 5 14 11 13 25 21 36 31 5 2 4 4 23 0 0 27 5 16 15 49 35 14 18 30 40 51 12 42 1 35 30 37 15 15 47 47 8 37 7 41 20 12 37 16 20 9 22 9 28 31 10 44 21 9 15 2 16 34 12 39 21 50 39 1 20 26 39 7 14 53 4 8 27 47 38 31 37 40 10 22 16 29 5 3 19 13 42 48 7 22 36 9 27 36 34 21 23 1 32 13 4 15 15 11 19 28 4 7 13 15 47 4 22 17 28 50 46 23 25 27 8 32 33 36 41 8 29 14 47 11 45 21 9 25 15 28 6 2 39 27 49 39 22 30 24 32 20 28 35 6 50 42 27 2 12 12 15 18 28 24 3 14 17 41 6 5 8 34 41 42 22 28 18 37 15 26 4 2 25 28 17 23 6 26 3 20 25 9 20 13 11 16 36 27 3 14 20 27 2 2 19 31 5 17 13 49 34 26 22 31 24 9 19 47 22 30 22 38 17 9 19 35 17 24 16 24 15 5 15 15 42 52 19 29 0 1 25 35 47 34 25 7 22 0 8 14 6 21 22 27 7 8 8 0 51 29 10 46 28 24 31 11 8 23 10 18 30 33 31 23 13 15 43 7 22 8 29 1 11 14 11 3 38 11 28 25 2 25 10 30 15 14 40 13 37 22 19 2 9 27 17 10 14 15 3 4 12 10 14 0 9 22 32 13 17 13 22 27 9 6 3 10 17 10 0 2 10 3 11 18 4 14 13 27 6 22 20 8 1 15 4 14 6 1 8 4 3 4 5 30 13 13 2 24 30 8 6 10 8 15 15 8 3 25 15 8 15 13 5 2 3 5 4 0 15 27 1 9 16 2 17 5 19 3 5 1 4 4 8 4 3 16 5 15 11 6 1 6 21 20 7 32 0 1 10 5 1 13 11 4 4 1 19 11 3 3 19 11 0 4 24 0 6 3 2 14 13 1 7 1 5 3 0 6 11 2 18 10 12 8 9 1 3 17 0 10 7 4 0 0 9 1 4 2 4 6 15 1 3 4 6 4 5 4 0 7 19 10 2 0 1 1 1 11 2 0 6 25 0 14 2 2 7 3 4 2 3 1 7 7 4 3 0 8 7 4 5 10 3 4 3 3 0 0 2 0 1 21 4 0 8 0 0 4 7 3 1 0 0 1 0 1 18 0 11 0 1 9 9 3 0 8 2 2 0 5 0 3 2 2 0 1 2 5 2 4 4 0 4 3 0 1 0 15 1 2 0 4 0 4 3 1 0 8 1 2 5 1 0 5 1 0 7 0 1 6 0 1 1 0 3 10 1 3 7 2 5 2 5 5 10 1 3 0 5 3 1 1 2 1 12 0 3 5 6 2 6 3 3 4 6 6 2 0 0 1 0 6 1 3 3 14 2 7 0 0 4 1 5 2 0 3 1 0 2 7 1 3 1 3 6 2 7 4 2 3 2 1 0 0 3 7 5 0 3 0 1 0 3 0 3 0 3 1 0 0 12 3 2 2 2 0 4 2 1 8 0 1 0 2 1 0 0 2 5 0 8 2 3 4 5 0 3 1 0 0 0 8 0 2 3 4 3 1 4 0 2 9 1 0 9 0 0 0 3 2 5 4 0 7 0 0 0 0 4 0 1 4 6 0 2 10 3 0 6 1 2 0 3 2 1 0 2 1 5 2 4 2 3 1 2 4 3 1 0 2 1 0 0 1 0 1 4 1 0 4 0 2 0 0 1 3 2 1 0 3 1 8 2 1 3 5 2 0 0 2 3 2 2 3 3 0 4 3 5 1 5 2 0 0 0 2 3 1 1 1 0 0 0 2 7 3 0 2 1 0 0 0 0 1 1 0 0 0 0 0 1 1 2 0 2 4 0 12 2 0 2 0 0 1 2 2 0 1 2 0 2 1 1 1 0 3 0 0 7 0 1 0 3 2 0 6 5 2 0 3 0 0 0 1 0 4 11 3 0 7 2 0 1 1 1 0 1 1 0 1 2 1 1 0 3 0 2 4 2 2 2 1 1 0 0 0 1 0 1 7 1 2 0 0 2 0 0 1 0 3 0 3 0 2 1 6 3 1 4 2 4 0 2 2 0 1 0 2 1 0 3 1 2 1 1 2 0 4 1 3 1 2 0 0 0 0 3 3 1 1 0 0 1 0 2 0 2 1 0 1 0 0 0 0 2 1 1 2 0 2 0 6 0 3 1 0 0 0 3 1 0 0 0 0 0 1 1 5 2 6 4 1 1 3 0 0 0 2 0 1 1 1 1 5 2 1 1 0 1 1 4 1 1 2 1 0 1 0 0 0 0 0 0 0 2 1 0 0 1 0 2 2 1 0 1 1 1 0 0 0 0 1 3 4 0 0 0 0 0 0 0 0 0 0 0 1 0 0 1 0 4 0 2 1 5 1 3 2 1 0 0 1 0 0 0 0 0 0 0 1 0 2 0 0 0 1 0 0 0 0 1 0 0 1 0 0 1 0 2 0 1 1 0 0 0 0 0 0 1 2 0 1 1 1 0 2 0 4 2 0 0 2 1 2 1 1 1 0 0 1 1 2 0 2 4 2 0 0 1 0 0 0 0 0 0 0 0 2 2 1 1 0 1 1 0 0 0 0 0 0 1 0 0 0 0 0 0 1 1 1 0 0 0 0 0 0 0 0 0 0 0 0 0 0 0 0 0 0 0 0 0 1 0 0 0 0 0 0 0 0 0 0 0 0 1 0 0 0 2 1 0 1 1 0 0 0 0 0 0 0 0 1 0 1 0 0 0 0 0 0 0 0 0 0 0 0 0 0 0 0 0 1 0 0 0 0 0 0 0 0 0 0 0 0 0 0 0 0 0 1 0 0 1 1 0 0 0 0 0 0 0 0 0 1 0 0 0 0 0 1 0 0 0 0 0 0 0 0 0 0 0 1 0 0 0 0 0 0 0 0 0 0 0 0 0 0 0 0 0 0 0 0 0 1 0 0 0 0 0 1 0 1 0 0 0 0 0 0 0 0 0 0 0 0 0 0 0 0 0 0 0 0 0 0 0 0 0 0 0 0 0 0 0 0 0 1 0 0 0 0 0 0 1 0 0 0 0 0 0 0 0 0 0 0 0 0 0 0 0 0 1 0 0 0 0 1 0 0 0 0 0 0 0 0 0 0 0 0 0 0 0 0 0 0 0 0 0 0 0 0 0 0 0 0 0 0 0 0 0 0 0 0 0 0 0 0 0 0 0 0 0 0 0 0 1 0 0 0 0 0 0 0 0 0 0 0 0 0 0 0 0 0 0 0 0 0 0 0 0 0 0 0 0 0 0 0 0 1 0 0 0 0 0 0 0 0 0 0 0 0 0 0 0 0 1 0 0 0 0 0 0 0 0 0 0 0 0 0 0 1 0 0 0 0 0 0 0 0 0 0 0 0 0 0 0 0 0 0 0 0 0 0 0 0 0 0 0 0 1 0 0 0 0 0 0 0 0 0 0 0 0 0 0 0 0 0 0 0 0 0 0 0 0 0 0 0 0 0 0 0 0 0 0 0 0 0 0 0 0 0 0 0 0 0 0 0 0 0 1 0 0 0 0 0 0 0 0 0 0 0 0 0 0 0 0 0 0 0 0 0 0 0 0 0 0 0 0 0 0 0 0 0 0 0 0 0 0 0 0 0 0 0 0 0 0 0 0 0 0 0 0 0 0 0 0 0 0 0 0 0 0 0 0 0 0 0 0 0 0 0 0 0 0 0 0 0 0 0 0 0 0 0 0 0 0 0 0 0 0 0 0 0 0 0 0 0 0 0 0 0 0 0 0 0 0 0 0 0 0 0 0 2 1 0 0 0 0 0 0 0 0 0 0 0 0 0 0 0 0 0 0 0 0 0 0 0 0 0 0 0 0 0 0 0 0 0 0 0 0 0 0 0 0 0 0 0 0 0 0 0 0 0 0 0 0 1 0 0 0 0 0 1 0 0 0 0 0 0 0 0 0 0 0 1 0 0 0 1 0 0 0 0 0 0 0 0 0 0 0 0 1 0 0 0 0 0 0 0 0 0 0 0 0 0 0 0 0 0 0 0 0 0 0 0 0 0 0 0 0 0 0 0 0 0 0 1 0 0 0 0 0 0 0 0 0 0 0 0 0 0 0 0 0 0 0 1 1 0 0 0 0 0 0 0 0 0 0 0 0 0 0 0 0 0 0 0 0 0 0 0 0 0 0 0 1 0 0 0 0 0 0 0 0 0 0 0 0 0 0 0 0 0 0 0 0 0 0 0 0 0 0 0 0 0 0 0 0 0 0 0 0 0 0 0 0 0 0 0 0 0 0 0 0 0 0 0 0 0 0 0 0 0 0 0 0 0 0 0 0 0 0 0 0 0 0 0 0 0 0 0 0 0 0 0 0 0 0 0 0 0 0 0 0 0 0 0 0 0 0 1 0 0 0 0 0 0 0 0 0 0 0 0 0 0 0 0 0 0 0 0 0 0 0 0 0 0 0 0 0 0 0 0 0 0 0 0 0 0 0 0 0 0 0 0 0 0 0 0 0 0 0 0 0 0 0 0 0 0 0 0 0 0 0 0 0 0 0 0 0 0 0 0 0 0 0 0 0 0 0 0 0 0 0 0 0 0 0 0 0 0 0 0 0 0 0 0 0 0 0 0 0 0 0 0 0 0 0 0 0 0 0 0 0 0 0 0 0 0 0 0 0 0 0 0 0 0 0 0 0 0 0 0 0 0 0 0 0 0 0 0 0 0 0 0 0 0 0 0 0 0 0 0 0 0 0 0 0 0 0 0 0 0 0 0 0 0 0 0 0 0 0 0 0 0 0 0 0 0 0 0 0 0 0 0 0 0 0 0 0 0 0 0 0 0 0 0 0 0 0 0 0 0 0 0 0 0 0 0 0 0 0 0 0 0 0 0 0 0 0 0 0 0 0 0 0 0 0 0 0 0 0 0 0 0 0 0 0 0 0 0 0 0 0 0 0 0 0 0 0 0 0 0 0 0 0 0 0 0 0 0 0 0 0 0 0 0 0 0 0 0 0 0 0 0 0 0 0 0 0 0 0 0 0 0 0 0 0 0 0 0 0 0 0 0 0 0 0 0 0 0 0 0 0 0 0 0 0 0 0 0 0 0 0 0 0 0 0 0 0 0 0 0 0 0 0 0 0 0 0 0 0 0 0 0 0 0 0 0 0 0 0 0 0 0 0 0 0 0 0 0 0 0 0 0 0 0 0 0 0 0 0 0 0 0 0 0 0 0 0 0 0 0 0 0 0 0 0 0 0 0 0 0 0 0 0 0 0 0 0 0 0 0 0 0 0 0 0 0 0 0 0 0 0 0 0 0 0 0 0 0 0 0 0 0 0 0 0 0 0 0 0 0 0 0 0 0 0 0 0 0 0 0 0 0 0 0 0 0 0 0 0 0 0 0 0 0 0 0 0 0 0 0 0 0 0 0 0 0 0 0 0 0 0 0 0 0 0 0 0 0 0 0 0 0 0 0 0 0 0 0 0 0 0 0 0 0 0 0 0 0 0 0 0 0 0 0 0 0 0 0 0 0 0 0 0 0 0 0 0 0 0 0 0 0 0 0 0 0 0 0 0 0 0 0 0 0 0 0 0 0 0 0 0 0 0 0 0 0 0 0 0 0 0 0 0 0 0 0 0 0 0 0 0 0 0 0 0 0 0 0 0 0 0 0 0 0 0 0 0 0 0 0 0 0 0 0 0 0 0 0 0 0 0 0 0 0 0 0 0 0 0 0 0 0 0 0 0 0 0 0 0 0 0 0 0 0 0 0 0 0 0 0 0 0 0 0 0 0 0 0 0 0 0 0 0 0 0 0 0 0 0 0 0 0 0 0 0 0 0 0 0 0 0 0 0 0 0 0 0 0 0 0 0 0 0 0 0 0 0 0 0 0 0 0 0 0 0 0 0 0 0 0 0 0 0 0 0 0 0 0 0 0 0 0 0 0 0 0 0 0 0 0 0 0 0 0 0 0 0 0 0 0 0 0 0 0 0 0 0 0 0 0 0 0 0 0 0 0 0 0 0 0 0 0 0 0 0 0 0 0 0 0 0 0 0 0 0 0 0 0 0 0 0 0 0 0 0 0 0 0 0 0 0 0 0 0 0 0 0 0 0 0 0 0 0 0 0 0 0 0 0 0 0 0 0 0 0 0 0 0 0 0 0 0 0 0 0 0 0 0 0 0 0 0 0 0 0 0 0 0 0 0 0 0 0 0 0 0 0 0 0 0 0 0 0 0 0 0 0 0 0 0 0 0 0 0 0 0 0 0 0 0 0 0 0 0 0 0 0 0 0 0 0 0 0 0 0 0 0 0 0 0 0 0 0 0 0 0 0 0 0 0 0 0 0 0 0 0 0 0 0 0 0 0 0 0 0 0 0 0 0 0 0 0 0 0 0 0 0 0 0 0 0 0 0 0 0 0 0 0 0 0 0 0 0 0 0 0 0 0 0 0 0 0 0 0 0 0 0 0 0 0 0 0 0 0 0 0 0 0 0 0 0 0 0 0 0 0 0 0 0 0 0 0 0 0 0 0 0 0 0 0 0 0 0 0 0 0 0 0 0 0 0 0 0 0 0 0 0 0 0 0 0 0 0 0 0 0 0 0 0 0 0 0 0 0 0 0 0 0 0 0 0 0 0 0 0 0 0 0 0 0 0 0 0 0 0 0 0 0 0 0 0 0 0 0 0 0 0 0 0 0 0 0 0 0 0 0 0 0 0 0 0 0 0 0 0 0 0 0 0 0 0 0 0 0 0 0 0 0 0 0 0 0 0 0 0 0 0 0 0 0 0 0 0 0 0 0 0 0 0 0 0 0 0 0 0 0 0 0 0 0 0 0 0 0 0 0 0 0 0 0 0 0 0 0 0 0 0 0 0 0 0 0 0 0 0 0 0 0 0 0 0 0 0 0 0 0 0 0 0 0 0 0 0 0 0 0 0 0 0 0 0 0 0 0 0 0 0 0 0 0 0 0 0 0 0 0 0 0 0 0 0 0 0 0 0 0 0 0 0 0 0 0 0 0 0 0 0 0 0 0 0 0 0 0 0 0 0 0 0 0 0 0 0 0 0 0 0 0 0 0 0 0 0 0 0 0 0 0 0 0 0 0 0 0 0 0 0 0 0 0 0 0 0 0 0 0 0 0 0 0 0 0 0 0 0 0 0 0 0 0 0 0 0 0 0 0 0 0 0 0 0 0 0 0 0 0 0 0 0 0 0 0 0 0 0 0 0 0 0 0 0 0 0 0 0 0 0 0 0 0 0 0 0 0 0 0 0 0 0 0 0 0 0 0 0 0 0 0 0 0 0 0 0 0 0 0 0 0 0 0 0 0 0 0 0 0 0 0 0 0 0 0 0 0 0 0 0 0 0 0 0 0 0 0 0 0 0 0 0 0 0 0 0 0 0 0 0 0 0 0 0 0 0 0 0 0 0 0 0 0 0 0 0 0 0 0 0 0 0 0 0 0 0 0 0 0 0 0 0 0 0 0 0 0 0 0 0 0 0 0 0 0 0 0 0 0 0 0 0 0 0 0 0 0 0 0 0 0 0 0 0 0 0 0 0 0 0 0 0 0 0 0 0 0 0 0 0 0 0 0 0 0 0 0 0 0 0 0 0 0 0 0 0 0 0 0 0 0 0 0 0 0 0 0 0 0 0 0 0 0 0 0 0 0 0 0 0 0 0 0 0 0 0 0 0 0 0 0 0 0 0 0 0 0 0 0 0 0 0 0 0 0 0 0 0 0 0 0 0 0 0 0 0 0 0 0 0 0 0 0 0 0 0 0 0 0 0 0 0 0 0 0 0 0 0 0 0 0 0 0 0 0 0 0 0 0 0 0 0 0 0 0 0 0 0 0 0 0 0 0 0 0 0 0 0 0 0 0 0 0 0 0 0 0 0 0 0 0 0 0 0 0 0 0 0 0 0 0 0 0 0 0 0 0 0 0 0 0 0 0 0 0 0 0 0 0 0 0 0 0 0 0 0 0 0 0 0 0 0 0 0 0 0 0 0 0 0 0 0 0 0 0 0 0 0 0 0 0 0 0 0 0 0 0 0 0 0 0 0 0 0 0 0 0 0 0 0 0 0 0 0 0 0 0 0 0 0 0 0 0 0 0 0 0 0 0 0 0 0 0 0 0 0 0 0 0 0 0 0 0 0 0 0 0 0 0 0 0 0 0 0 0 0 0 0 0 0 0 0 0 0 0 0 0 0 0 0 0 0 0 0 0 0 0 0 0 0 0 0 0 0 0 0 0 0 0 0 0 0 0 0 0 0 0 0 0 0 0 0 0 0 0 0 0 0 0 0 0 0 0 0 0 0 0 0 0 0 0 0 0 0 0 0 0 0 0 0 0 0 0 0 0 0 0 0 0 0 0 0 0 0 0 0 0 0 0 0 0 0 0 0 0 0 0 0 0 0 0 0 0 0 0 0 0 0 0 0 0 0 0 0 0 0 0 0 0 0 0 0 0 0 0 0 0 0 0 0 0 0 0 0 0 0 0 0 0 0 0 0 0 0 0 0 0 0 0 0 0 0 0 0 0 0 0 0 0 0 0 0 0 0 0 0 0 0 0 0 0 0 0 0 0 0 0 0 0 0 0 0 0 0 0 0 0 0 0 0 0 0 0 0 0 0 0 0 0 0 0 0 0 0 0 0 0 0 0 0 0 0 0 0 0 0 0 0 0 0 0 0 0 0 0 0 0 0 0 0 0 0 0 0 0 0 0 0 0 0 0 0 0 0 0 0 0 0 0 0 0 0 0 0 0 0 0 0 0 0 0 0 0 0 0 0 0 0 0 0 0 0 0 0 0 0 0 0 0 0 0 0 0 0 0 0 0 0 0 0 0 0 0 0 0 0 0 0 0 0 0 0 0 0 0 0 0 0 0 0 0 0 0 0 0 0 0 0 0 0 0 0 0 0 0 0 0 0 0 0 0 0 0 0 0 0 0 0 0 0 0 0 0 0 0 0 0 0 0 0 0 0 0 0 0 0 0 0 0 0 0 0 0 0 0 0 0 0 0 0 0 0 0 0 0 0 0 0 0 0 0 0 0 0 0 0 0 0 0 0 0 0 0 0 0 0 0 0 0 0 0 0 0 0 0 0 0 0 0 0 0 0 0 0 0 0 0 0 0 0 0 0 0 0 0 0 0 0 0 0 0 0 0 0 0 0 0 0 0 0 0 0 0 0 0 0 0 0 0 0 0 0 0 0 0 0 0 0 0 0 0 0 0 0 0 0 0 0 0 0 0 0 0 0 0 0 0 0 0 0 0 0 0 0 0 0 0 0 0 0 0 0 0 0 0 0 0 0 0 0 0 0 0 0 0 0 0 0 0 0 0 0 0 0 0 0 0 0 0 0 0 0 0 0 0 0 0 0 0 0 0 0 0 0 0 0 0 0 0 0 0 0 0 0 0 0 0 0 0 0 0 0 0 0 0 0 0 0 0 0 0 0 0 0 0 0 0 0 0 0 0 0 0 0 0 0 0 0 0 0 0 0 0 0 0 0 0 0 0 0 0 0 0 0 0 0 0 0 0 0 0 0 0 0 0 0 0 0 0 0 0 0 0 0 0 0 0 0 0 0 0 0 0 0 0 0 0 0 0 0 0 0 0 0 0 0 0 0 0 0 0 0 0 0 0 0 0 0 0 0 0 0 0 0 0 0 0 0 0 0 0 0 0 0 0 0 0 0 0 0 0 0 0 0 0 0 0 0 0 0 0 0 0 0 0 0 0 0 0 0 0 0 0 0 0 0 0 0 0 0 0 0 0 0 0 0 0 0 0 0 0 0 0 0 0 0 0 0 0 0 0 0 0 0 0 0 0 0 0 0 0 0 0 0 0 0 0 0 0 0 0 0 0 0 0 0 0 0 0 0 0 0 0 0 0 0 0 0 0 0 0 0 0 0 0 0 0 0 0 0 0 0 0 0 0 0 0 0 0 0 0 0 0 0 0 0 0 0 0 0 0 0 0 0 0 0 0 0 0 0 0 0 0 0 0 0 0 0 0 0 0 0 0 0 0 0 0 0 0 0 0 0 0 0 0 0 0 0 0 0 0 0 0 0 0 0 0 0 0 0 0 0 0 0 0 0 0 0 0 0 0 0 0 0 0 0 0 0 0 0 0 0 0 0 0 0 0 0 0 0 0 0 0 0 0 0 0 0 0 0 0 0 0 0 0 0 0 0 0 0 0 0 0 0 0 0 0 0 0 0 0 0 0 0 0 0 0 0 0 0 0 0 0 0 0 0 0 0 0 0 0 0 0 0 0 0 0 0 0 0 0 0 0 0 0 0 0 0 0 0 0 0 0 0 0 0 0 0 0 0 0 0 0 0 0 0 0 0 0 0 0 0 0 0 0 0 0 0 0 0 0 0 0 0 0 0 0 0 0 0 0 0 0 0 0 0 0 0 0 0 0 0 0 0 0 0 0 0 0 0 0 0 0 0 0 0 0 0 0 0 0 0 0 0 0 0 0 0 0 0 0 0 0 0 0 0 0 0 0 0 0 0 0 0 0 0 0 0 0 0 0 0 0 0 0 0 0 0 0 0 0 0 0 0 0 0 0 0 0 0 0 0 0 0 0 0 0 0 0 0 0 0 0 0 0 0 0 0 0 0 0 0 0 0 0 0 0 0 0 0 0 0 0 0 0 0 0 0 0 0 0 0 0 0 0 0 0 0 0 0 0 0 0 0 0 0 0 0 0 0 0 0 0 0 0 0 0 0 0 0 0 0 0 0 0 0 0 0 0 0 0 0 0 0 0 0 0 0 0 0 0 0 0 0 0 0 0 0 0 0 0 0 0 0 0 0 0 0 0 0 0 0 0 0 0 0 0 0 0 0 0 0 0 0 0 0 0 0 0 0 0 0 0 0 0 0 0 0 0 0 0 0 0 0 0 0 0 0 0 0 0 0 0 0 0 0 0 0 0 0 0 0 0 0 0 0 0 0 0 0 0 0 0 0 0 0 0 0 0 0 0 0 0 0 0 0 0 0 0 0 0 0 0 0 0 0 0 0 0 0 0 0 0 0 0 0 0 0 0 0 0 0 0 0 0 0 0 0 0 0 0 0 0 0 0 0 0 0 0 0 0 0 0 0 0 0 0 0 0 0 0 0 0 0 0 0 0 0 0 0 0 0 0 0 0 0 0 0 0 0 0 0 0 0 0 0 0 0 0 0 0 0 0 0 0 0 0 0 0 0 0 0 0 0 0 0 0 0 0 0 0 0 0 0 0 0 0 0 0 0 0 0 0 0 0 0 0 0 0 0 0 0 0 0 0 0 0 0 0 0 0 0 0 0 0 0 0 0 0 0 0 0 0 0 0 0 0 0 0 0 0 0 0 0 0 0 0 0 0 0 0 0 0 0 0 0 0 0 0 0 0 0 0 0 0 0 0 0 0 0 0 0 0 0 0 0 0 0 0 0 0 0 0 0 0 0 0 0 0 0 0 0 0 0 0 0 0 0 0 0 0 0 0 0 0 0 0 0 0 0 0 0 0 0 0 0 0 0 0 0 0 0 0 0 0 0 0 0 0 0 0 0 0 0 0 0 0 0 0 0 0 0 0 0 0 0 0 0 0 0 0 0 0 0 0 0 0 0 0 0 0 0 0 0 0 0 0 0 0 0 0 0 0 0 0 0 0 0 0 0 0 0 0 0 0 0 0 0 0 0 0 0 0 0 0 0 0 0 0 0 0 0 0 0 0 0 0 0 0 0 0 0 0 0 0 0 0 0 0 0 0 0 0 0 0 0 0 0 0 0 0 0 0 0 0 0 0 0 0 0 0 0 0 0 0 0 0 0 0 0 0 0 0 0 0 0 0 0 0 0 0 0 0 0 0 0 0 0 0 0 0 0 0 0 0 0 0 0 0 0 0 0 0 0 0 0 0 0 0 0 0 0 0 0 0 0 0 0 0 0 0 0 0 0 0 0 0 0 0 0 0 0 0 0 0 0 0 0 0 0 0 0 0 0 0 0 0 0 0 0 0 0 0 0 0 0 0 0 0 0 0 0 0 0 0 0 0 0 0 0 0 0 0 0 0 0 0 0 0 0 0 0 0 0 0 0 0 0 0 0 0 0 0 0 0 0 0 0 0 0 0 0 0 0 0 0 0 0 0 0 0 0 0 0 0 0 0 0 0 0 0 0 0 0 0 0 0 0 0 0 0 0 0 0 0 0 0 0 0 0 0 0 0 0 0 0 0 0 0 0 0 0 0 0 0 0 0 0 0 0 0 0 0 0 0 0 0 0 0 0 0 0 0 0 0 0 0 0 0 0 0 0 0 0 0 0 0 0 0 0 0 0 0 0 0 0 0 0 0 0 0 0 0 0 0 0 0 0 0 0 0 0 0 0 0 0 0 0 0 0 0 0 0 0 0 0 0 0 0 0 0 0 0 0 0 0 0 0 0 0 0 0 0 0 0 0 0 0 0 0 0 0 0 0 0 0 0 0 0 0 0 0 0 0 0 0 0 0 0 0 0 0 0 0 0 0 0 0 0 0 0 0 0 0 0 0 0 0 0 0 0 0 0 0 0 0 0 0 0 0 0 0 0 0 0 0 0 0 0 0 0 0 0 0 0 0 0 0 0 0 0 0 0 0 0 0 0 0 0 0 0 0 0 0 0 0 0 0 0 0 0 0 0 0 0 0 0 0 0 0 0 0 0 0 0 0 0 0 0 0 0 0 0 0 0 0 0 0 0 0 0 0 0 0 0 0 0 0 0 0 0 0 0 0 0 0 0 0 0 0 0 0 0 0 0 0 0 0 0 0 0 0 0 0 0 0 0 0 0 0 0 0 0 0 0 0 0 0 0 0 0 0 0 0 0 0 0 0 0 0 0 0 0 0 0 0 0 0 0 0 0 0 0 0 0 0 0 0 0 0 0 0 0 0 0 0 0 0 0 0 0 0 0 0 0 0 0 0 0 0 0 0 0 0 0 0 0 0 0 0 0 0 0 0 0 0 0 0 0 0 0 0 0 0 0 0 0 0 0 0 0 0 0 0 0 0 0 0 0 0 0 0 0 0 0 0 0 0 0 0 0 0 0 0 0 0 0 0 0 0 0 0 0 0 0 0 0 0 0 0 0 0 0 0 0 0 0 0 0 0 0 0 0 0 0 0 0 0 0 0 0 0 0 0 0 0 0 0 0 0 0 0 0 0 0 0 0 0 0 0 0 0 0 0 0 0 0 0 0 0 0 0 0 0 0 0 0 0 0 0 0 0 0 0 0 0 0 0 0 0 0 0 0 0 0 0 0 0 0 0 0 0 0 0 0 0 0 0 0 0 0 0 0 0 0 0 0 0 0 0 0 0 0 0 0 0 0 0 0 0 0 0 0 0 0 0 0 0 0 0 0 0 0 0 0 0 0 0 0 0 0 0 0 0 0 0 0 0 0 0 0 0 0 0 0 0 0 0 0 0 0 0 0 0 0 0 0 0 0 0 0 0 0 0 0 0 0 0 0 0 0 0 0 0 0 0 0 0 0 0 0 0 0 0 0 0 0 0 0 0 0 0 0 0 0 0 0 0 0 0 0 0 0 0 0 0 0 0 0 0 0 0 0 0 0 0 0 0 0 0 0 0 0 0 0 0 0 0 0 0 0 0 0 0 0 0 0 0 0 0 0 0 0 0 0 0 0 0 0 0 0 0 0 0 0 0 0 0 0 0 0 0 0 0 0 0 0 0 0 0 0 0 0 0 0 0 0 0 0 0 0 0 0 0 0 0 0 0 0 0 0 0 0 0 0 0 0 0 0 0 0 0 0 0 0 0 0 0 0 0 0 0 0 0 0 0 0 0 0 0 0 0 0 0 0 0 0 0 0 0 0 0 0 0 0 0 0 0 0 0 0 0 0 0 0 0 0 0 0 0 0 0 0 0 0 0 0 0 0 0 0 0 0 0 0 0 0 0 0 0 0 0 0 0 0 0 0 0 0 0 0 0 0 0 0 0 0 0 0 0 0 0 0 0 0 0 0 0 0 0 0 0 0 0 0 0 0 0 0 0 0 0 0 0 0 0 0 0 0 0 0 0 0 0 0 0 0 0 0 0 0 0 0 0 0 0 0 0 0 0 0 0 0 0 0 0 0 0 0 0 0 0 0 0 0 0 0 0 0 0 0 0 0 0 0 0 0 0 0 0 0 0 0 0 0 0 0 0 0 0 0 0 0 0 0 0 0 0 0 0 0 0 0 0 0 0 0 0 0 0 0 0 0 0 0 0 0 0 0 0 0 0 0 0 0 0 0 0 0 0 0 0 0 0 0 0 0 0 0 0 0 0 0 0 0 0 0 0 0 0 0 0 0 0 0 0 0 0 0 0 0 0 0 0 0 0 0 0 0 0 0 0 0 0 0 0 0 0 0 0 0 0 0 0 0 0 0 0 0 0 0 0 0 0 0 0 0 0 0 0 0 0 0 0 0 0 0 0 0 0 0 0 0 0 0 0 0 0 0 0 0 0 0 0 0 0 0 0 0 0 0 0 0 0 0 0 0 0 0 0 0 0 0 0 0 0 0 0 0 0 0 0 0 0 0 0 0 0 0 0 0 0 0 0 0 0 0 0 0 0 0 0 0 0 0 0 0 0 0 0 0 0 0 0 0 0 0 0 0 0 0 0 0 0 0 0 0 0 0 0 0 0 0 0 0 0 0 0 0 0 0 0 0 0 0 0 0 0 0 0 0 0 0 0 0 0 0 0 0 0 0 0 0 0 0 0 0 0 0 0 0 0 0 0 0 0 0 0 0 0 0 0 0 0 0 0 0 0 0 0 0 0 0 0 0 0 0 0 0 0 0 0 0 0 0 0 0 0 0 0 0 0 0 0 0 0 0 0 0 0 0 0 0 0 0 0 0 0 0 0 0 0 0 0 0 0 0 0 0 0 0 0 0 0 0 0 0 0 0 0 0 0 0 0 0 0 0 0 0 0 0 0 0 0 0 0 0 0 0 0 0 0 0 0 0 0 0 0 0 0 0 0 0 0 0 0 0 0 0 0 0 0 0 0 0 0 0 0 0 0 0 0 0 0 0 0 0 0 0 0 0 0 0 0 0 0 0 0 0 0 0 0 0 0 0 0 0 0 0 0 0 0 0 0 0 0 0 0 0 0 0 0 0 0 0 0 0 0 0 0 0 0 0 0 0 0 0 0 0 0 0 0 0 0 0 0 0 0 0 0 0 0 0 0 0 0 0 0 0 0 0 0 0 0 0 0 0 0 0 0 0 0 0 0 0 0 0 0 0 0 0 0 0 0 0 0 0 0 0 0 0 0 0 0 0 0 0 0 0 0 0 0 0 0 0 0 0 0 0 0 0 0 0 0 0 0 0 0 0 0 0 0 0 0 0 0 0 0 0 0 0 0 0 0 0 0 0 0 0 0 0 0 0 0 0 0 0 0 0 0 0 0 0 0 0 0 0 0 0 0 0 0 0 0 0 0 0 0 0 0 0 0 0 0 0 0 0 0 0 0 0 0 0 0 0 0 0 0 0 0 0 0 0 0 0 0 0 0 0 0 0 0 0 0 0 0 0 0 0 0 0 0 0 0 0 0 0 0 0 0 0 0 0 0 0 0 0 0 0 0 0 0 0 0 0 0 0 0 0 0 0 0 0 0 0 0 0 0 0 0 0 0 0 0 0 0 0 0 0 0 0 0 0 0 0 0 0 0 0 0 0 0 0 0 0 0 0 0 0 0 0 0 0 0 0 0 0 0 0 0 0 0 0 0 0 0 0 0 0 0 0 0 0 0 0 0 0 0 0 0 0 0 0 0 0 0 0 0 0 0 0 0 0 0 0 0 0 0 0 0 0 0 0 0 0 0 0 0 0 0 0 0 0 0 0 0 0 0 0 0 0 0 0 0 0 0 0 0 0 0 0 0 0 0 0 0 0 0 0 0 0 0 0 0 0 0 0 0 0 0 0 0 0 0 0 0 0 0 0 0 0 0 0 0 0 0 0 0 0 0 0 0 0 0 0 0 0 0 0 0 0 0 0 0 0 0 0 0 0 0 0 0 0 0 0 0 0 0 0 0 0 0 0 0 0 0 0 0 0 0 0 0 0 0 0 0 0 0 0 0 0 0 0 0 0 0 0 0 0 0 0 0 0 0 0 0 0 0 0 0 0 0 0 0 0 0 0 0 0 0 0 0 0 0 0 0 0 0 0 0 0 0 0 0 0 0 0 0 0 0 0 0 0 0 0 0 0 0 0 0 0 0 0 0 0 0 0 0 0 0 0 0 0 0 0 0 0 0 0 0 0 0 0 0 0 0 0 0 0 0 0 0 0 0 0 0 0 0 0 0 0 0 0 0 0 0 0 0 0 0 0 0 0 0 0 0 0 0 0 0 0 0 0 0 0 0 0 0 0 0 0 0 0 0 0 0 0 0 0 0 0 0 0 0 0 0 0 0 0 0 0 0 0 0 0 0 0 0 0 0 0 0 0 0 0 0 0 0 0 0 0 0 0 0 0 0 0 0 0 0 0 0 0 0 0 0 0 0 0 0 0 0 0 0 0 0 0 0 0 0 0 0 0 0 0 0 0 0 0 0 0 0 0 0 0 0 0 0 0 0 0 0 0 0 0 0 0 0 0 0 0 0 0 0 0 0 0 0 0 0 0 0 0 0 0 0 0 0 0 0 0 0 0 0 0 0 0 0 0 0 0 0 0 0 0 0 0 0 0 0 0 0 0 0 0 0 0 0 0 0 0 0 0 0 0 0 0 0 0 0 0 0 0 0 0 0 0 0 0 0 0 0 0 0 0 0 0 0 0 0 0 0 0 0 0 0 0 0 0 0 0 0 0 0 0 0 0 0 0 0 0 0 0 0 0 0 0 0 0 0 0 0 0 0 0 0 0 0 0 0 0 0 0 0 0 0 0 0 0 0 0 0 0 0 0 0 0 0 0 0 0 0 0 0 0 0 0 0 0 0 0 0 0 0 0 0 0 0 0 0 0 0 0 0 0 0 0 0 0 0 0 0 0 0 0 0 0 0 0 0 0 0 0 0 0 0 0 0 0 0 0 0 0 0 0 0 0 0 0 0 0 0 0 0 0 0 0 0 0 0 0 0 0 0 0 0 0 0 0 0 0 0 0 0 0 0 0 0 0 0 0 0 0 0 0 0 0 0 0 0 0 0 0 0 0 0 0 0 0 0 0 0 0 0 0 0 0 0 0 0 0 0 0 0 0 0 0 0 0 0 0 0 0 0 0 0 0 0 0 0 0 0 0 0 0 0 0 0 0 0 0 0 0 0 0 0 0 0 0 0 0 0 0 0 0 0 0 0 0 0 0 0 0 0 0 0 0 0 0 0 0 0 0 0 0 0 0 0 0 0 0 0 0 0 0 0 0 0 0 0 0 0 0 0 0 0 0 0 0 0 0 0 0 0 0 0 0 0 0 0 0 0 0 0 0 0 0 0 0 0 0 0 0 0 0 0 0 0 0 0 0 0 0 0 0 0 0 0 0 0 0 0 0 0 0 0 0 0 0 0 0 0 0 0 0 0 0 0 0 0 0 0 0 0 0 0 0 0 0 0 0 0 0 0 0 0 0 0 0 0 0 0 0 0 0 0 0 0 0 0 0 0 0 0 0 0 0 0 0 0 0 0 0 0 0 0 0 0 0 0 0 0 0 0 0 0 0 0 0 0 0 0 0 0 0 0 0 0 0 0 0 0 0 0 0 0 0 0 0 0 0 0 0 0 0 0 0 0 0 0 0 0 0 0 0 0 0 0 0 0 0 0 0 0 0 0 0 0 0 0 0 0 0 0 0 0 0 0 0 0 0 0 0 0 0 0 0 0 0 0 0 0 0 0 0 0 0 0 0 0 0 0 0 0 0 0 0 0 0 0 0 0 0 0 0 0 0 0 0 0 0 0 0 0 0 0 0 0 0 0 0 0 0 0 0 0 0 0 0 0 0 0 0 0 0 0 0 0 0 0 0 0 0 0 0 0 0 0 0 0 0 0 0 0 0 0 0 0 0 0 0 0 0 0 0 0 0 0 0 0 0 0 0 0 0 0 0 0 0 0 0 0 0 0 0 0 0 0 0 0 0 0 0 0 0 0 0 0 0 0 0 0 0 0 0 0 0 0 0 0 0 0 0 0 0 0 0 0 0 0 0 0 0 0 0 0 0 0 0 0 0 0 0 0 0 0 0 0 0 0 0 0 0 0 0 0 0 0 0 0 0 0 0 0 0 0 0 0 0 0 0 0 0 0 0 0 0 0 0 0 0 0 0 0 0 0 0 0 0 0 0 0 0 0 0 0 0 0 0 0 0 0 0 0 0 0 0 0 0 0 0 0 0 0 0 0 0 0 0 0 0 0 0 0 0 0 0 0 0 0 0 0 0 0 0 0 0 0 0 0 0 0 0 0 0 0 0 0 0 0 0 0 0 0 0 0 0 0 0 0 0 0 0 0 0 0 0 0 0 0 0 0 0 0 0 0 0 0 0 0 0 0 0 0 0 0 0 0 0 0 0 0 0 0 0 0 0 0 0 0 0 0 0 0 0 0 0 0 0 0 0 0 0 0 0 0 0 0 0 0 0 0 0 0 0 0 0 0 0 0 0 0 0 0 0 0 0 0 0 0 0 0 0 0 0 0 0 0 0 0 0 0 0 0 0 0 0 0 0 0 0 0 0 0 0 0 0 0 0 0 0 0 0 0 0 0 0 0 0 0 0 0 0 0 0 0 0 0 0 0 0 0 0 0 0 0 0 0 0 0 0 0 0 0 0 0 0 0 0 0 0 0 0 0 0 0 0 0 0 0 0 0 0 0 0 0 0 0 0 0 0 0 0 0 0 0 0 0 0 0 0 0 0 0 0 0 0 0 0 0 0 0 0 0 0 0 0 0 0 0 0 0 0 0 0 0 0 0 0 0 0 0 0 0 0 0 0 0 0 0 0 0 0 0 0 0 0 0 0 0 0 0 0 0 0 0 0 0 0 0 0 0 0 0 0 0 0 0 0 0 0 0 0 0 0 0 0 0 0 0 0 0 0 0 0 0 0 0 0 0 0 0 0 0 0 0 0 0 0 0 0 0 0 0 0 0 0 0 0 0 0 0 0 0 0 0 0 0 0 0 0 0 0 0 0 0 0 0 0 0 0 0 0 0 0 0 0 0 0 0 0 0 0 0 0 0 0 0 0 0 0 0 0 0 0 0 0 0 0 0 0 0 0 0 0 0 0 0 0 0 0 0 0 0 0 0 0 0 0 0 0 0 0 0 0 0 0 0 0 0 0 0 0 0 0 0 0 0 0 0 0 0 0 0 0 0 0 0 0 0 0 0 0 0 0 0 0 0 0 0 0 0 0 0 0 0 0 0 0 0 0 0 0 0 0 0 0 0 0 0 0 0 0 0 0 0 0 0 0 0 0 0 0 0 0 0 0 0 0 0 0 0 0 0 0 0 0 0 0 0 0 0 0 0 0 0 0 0 0 0 0 0 0 0 0 0 0 0 0 0 0 0 0 0 0 0 0 0 0 0 0 0 0 0 0 0 0 0 0 0 0 0 0 0 0 0 0 0 0 0 0 0 0 0 0 0 0 0 0 0 0 0 0 0 0 0 0 0 0 0 0 0 0 0 0 0 0 0 0 0 0 0 0 0 0 0 0 0 0 0 0 0 0 0 0 0 0 0 0 0 0 0 0 0 0 0 0 0 0 0 0 0 0 0 0 0 0 0 0 0 0 0 0 0 0 0 0 0 0 0 0 0 0 0 0 0 0 0 0 0 0 0 0 0 0 0 0 0 0 0 0 0 0 0 0 0 0 0 0 0 0 0 0 0 0 0 0 0 0 0 0 0 0 0 0 0 0 0 0 0 0 0 0 0 0 0 0 0 0 0 0 0 0 0 0 0 0 0 0 0 0 0 0 0 0 0 0 0 0 0 0 0 0 0 0 0 0 0 0 0 0 0 0 0 0 0 0 0 0 0 0 0 0 0 0 0 0 0 0 0 0 0 0 0 0 0 0 0 0 0 0 0 0 0 0 0 0 0 0 0 0 0 0 0 0 0 0 0 0 0 0 0 0 0 0 0 0 0 0 0 0 0 0 0 0 0 0 0 0 0 0 0 0 0 0 0 0 0 0 0 0 0 0 0 0 0 0 0 0 0 0 0 0 0 0 0 0 0 0 0 0 0 0 0 0 0 0 0 0 0 0 0 0 0 0 0 0 0 0 0 0 0 0 0 0 0 0 0 0 0 0 0 0 0 0 0 0 0 0 0 0 0 0 0 0 0 0 0 0 0 0 0 0 0 0 0 0 0 0 0 0 0 0 0 0 0 0 0 0 0 0 0 0 0 0 0 0 0 0 0 0 0 0 0 0 0 0 0 0 0 0 0 0 0 0 0 0 0 0 0 0 0 0 0 0 0 0 0 0 0 0 0 0 0 0 0 0 0 0 0 0 0 0 0 0 0 0 0 0 0 0 0 0 0 0 0 0 0 0 0 0 0 0 0 0 0 0 0 0 0 0 0 0 0 0 0 0 0 0 0 0 0 0 0 0 0 0 0 0 0 0 0 0 0 0 0 0 0 0 0 0 0 0 0 0 0 0 0 0 0 0 0 0 0 0 0 0 0 0 0 0 0 0 0 0 0 0 0 0 0 0 0 0 0 0 0 0 0 0 0 0 0 0 0 0 0 0 0 0 0 0 0 0 0 0 0 0 0 0 0 0 0 0 0 0 0 0 0 0 0 0 0 0 0 0 0 0 0 0 0 0 0 0 0 0 0 0 0 0 0 0 0 0 0 0 0 0 0 0 0 0 0 0 0 0 0 0 0 0 0 0 0 0 0 0 0 0 0 0 0 0 0 0 0 0 0 0 0 0 0 0 0 0 0 0 0 0 0 0 0 0 0 0 0 0 0 0 0 0 0 0 0 0 0 0 0 0 0 0 0 0 0 0 0 0 0 0 0 0 0 0 0 0 0 0 0 0 0 0 0 0 0 0 0 0 0 0 0 0 0 0 0 0 0 0 0 0 0 0 0 0 0 0 0 0 0 0 0 0 0 0 0 0 0 0 0 0 0 0 0 0 0 0 0 0 0 0 0 0 0 0 0 0 0 0 0 0 0 0 0 0 0 0 0 0 0 0 0 0 0 0 0 0 0 0 0 0 0 0 0 0 0 0 0 0 0 0 0 0 0 0 0 0 0 0 0 0 0 0 0 0 0 0 0 0 0 0 0 0 0 0 0 0 0 0 0 0 0 0 0 0 0 0 0 0 0 0 0 0 0 0 0 0 0 0 0 0 0 0 0 0 0 0 0 0 0 0 0 0 0 0 0 0 0 0 0 0 0 0 0 0 0 0 0 0 0 0 0 0 0 0 0 0 0 0 0 0 0 0 0 0 0 0 0 0 0 0 0 0 0 0 0 0 0 0 0 0 0 0 0 0 0 0 0 0 0 0 0 0 0 0 0 0 0 0 0 0 0 0 0 0 0 0 0 0 0 0 0 0 0 0 0 0 0 0 0 0 0 0 0 0 0 0 0 0 0 0 0 0 0 0 0 0 0 0 0 0 0 0 0 0 0 0 0 0 0 0 0 0 0 0 0 0 0 0 0 0 0 0 0 0 0 0 0 0 0 0 0 0 0 0 0 0 0 0 0 0 0 0 0 0 0 0 0 0 0 0 0 0 0 0 0 0 0 0 0 0 0 0 0 0 0 0 0 0 0 0 0 0 0 0 0 0 0 0 0 0 0 0 0 0 0 0 0 0 0 0 0 0 0 0 0 0 0 0 0 0 0 0 0 0 0 0 0 0 0 0 0 0 0 0 0 0 0 0 0 0 0 0 0 0 0 0 0 0 0 0 0 0 0 0 0 0 0 0 0 0 0 0 0 0 0 0 0 0 0 0 0 0 0 0 0 0 0 0 0 0 0 0 0 0 0 0 0 0 0 0 0 0 0 0 0 0 0 0 0 0 0 0 0 0 0 0 0 0 0 0 0 0 0 0 0 0 0 0 0 0 0 0 0 0 0 0 0 0 0 0 0 0 