P2
148 129
255
0 0 0 0 0 0 0 0 0 0 0 0 0 0 0 0 0 0 0 0 0 0 0 0 0 0 0 0 0 0 0 0 0 0 0 0 0 0 0 0 0 0 0 0 0 0 0 0 0 0 0 0 0 0 0 0 0 0 0 0 0 0 0 0 0 0 0 0 0 0 0 0 0 0 0 0 0 0 0 0 0 0 0 0 0 0 0 0 0 0 0 0 0 0 0 0 0 0 0 0 0 0 0 0 0 0 0 0 0 0 0 0 0 0 0 0 0 0 0 0 0 0 0 0 0 0 0 0 0 0 0 0 0 0 0 0 0 0 0 0 0 0 0 0 0 0 0 0 0 0 0 0 0 0 0 0 0 0 0 0 0 0 0 0 0 0 0 0 0 0 0 0 0 0 0 0 0 0 0 0 0 0 0 0 0 0 0 0 0 0 0 0 0 0 0 0 0 0 0 0 0 0 0 0 0 0 0 0 0 0 0 0 0 0 0 0 0 0 0 0 0 0 0 0 0 0 0 0 0 0 0 0 0 0 0 0 0 0 0 0 0 0 0 0 0 0 0 0 0 0 0 0 0 0 0 0 0 0 0 0 0 0 0 0 0 0 0 0 0 0 0 0 0 0 0 0 0 0 0 0 0 0 0 0 0 0 0 0 0 0 0 0 0 0 0 0 63 76 107 81 96 67 116 100 86 67 112 98 94 67 86 141 173 196 191 243 255 253 250 250 249 251 248 245 243 242 242 242 244 236 212 188 169 188 190 194 195 187 175 167 169 166 138 130 131 134 128 123 125 86 122 134 131 128 121 167 210 207 215 228 225 191 211 168 204 175 191 204 165 203 175 204 143 180 127 165 187 174 178 148 180 136 117 181 161 184 135 132 195 121 150 176 156 175 105 101 169 135 98 156 140 115 156 131 136 131 111 113 97 99 83 97 71 72 53 35 64 68 102 90 84 29 51 82 77 60 97 81 71 93 91 102 33 42 64 59 22 22 60 71 34 41 53 77 52 91 108 99 77 79 114 100 62 102 105 106 59 88 117 152 169 172 195 235 252 245 241 239 237 239 235 228 228 231 231 232 234 225 186 171 163 177 182 185 185 174 165 152 157 153 140 128 121 125 112 104 105 48 117 120 122 140 154 145 212 212 237 247 234 235 226 229 234 221 219 231 223 233 229 224 217 197 201 191 214 135 207 185 165 218 149 215 155 207 208 119 212 163 182 208 143 184 187 24 178 173 160 182 157 134 156 135 117 160 142 126 119 109 74 113 45 92 53 99 96 100 109 101 112 86 102 103 102 83 95 72 111 40 99 94 65 95 51 36 90 41 34 28 86 76 38 87 71 90 66 68 79 55 94 93 79 99 48 95 75 60 116 145 174 150 148 205 187 191 205 205 200 198 190 195 197 206 208 209 207 203 177 113 125 145 145 143 130 89 91 120 123 133 136 133 120 99 119 125 117 107 44 74 49 121 138 78 204 225 213 236 177 239 235 231 232 205 226 233 238 241 240 224 236 182 220 189 220 193 225 214 209 233 195 228 207 209 227 177 207 196 179 211 185 151 199 170 173 200 175 184 191 163 173 162 146 183 157 151 154 65 107 125 103 124 96 124 119 94 104 97 118 98 106 72 94 81 64 56 114 89 104 100 77 104 81 73 100 39 70 65 90 93 43 81 56 70 39 18 83 52 58 89 57 58 29 59 79 62 61 127 168 151 109 160 174 190 197 193 189 191 203 210 205 203 204 200 193 188 159 117 82 132 134 139 110 115 119 122 122 132 124 125 121 120 124 128 115 108 69 81 54 125 110 125 181 176 154 208 224 220 213 157 153 207 213 216 221 220 222 193 222 196 197 181 190 190 211 207 204 213 155 209 207 174 203 159 183 189 149 179 175 158 169 165 176 186 147 158 181 152 166 157 130 166 125 153 154 117 121 121 87 118 106 117 116 59 85 59 98 84 76 43 62 53 58 81 73 72 80 76 86 74 85 53 67 50 67 45 42 81 60 45 59 37 57 51 74 63 21 92 39 7 59 59 73 26 51 109 145 125 110 26 133 171 182 186 197 198 191 191 182 169 172 159 139 141 124 136 106 107 109 104 76 68 54 30 58 92 62 30 82 90 82 74 29 69 60 48 74 102 129 123 149 177 189 210 220 212 200 211 208 162 198 187 181 186 187 177 195 179 173 151 176 161 167 178 165 185 128 155 179 173 169 89 153 161 101 146 140 153 155 119 146 132 96 108 125 37 127 111 126 89 89 132 123 85 108 105 80 93 12 79 88 19 54 20 55 6 61 49 30 29 34 47 33 27 54 11 13 50 64 21 19 52 39 42 31 56 38 15 79 68 84 25 78 37 29 82 79 46 67 59 61 13 71 82 110 104 111 96 106 169 182 193 201 198 171 161 165 151 150 141 126 117 124 130 99 69 90 89 80 64 68 31 80 82 88 60 55 41 44 32 48 60 66 75 76 43 104 93 112 117 150 170 187 194 191 183 187 161 184 178 155 170 176 165 182 168 158 164 182 162 149 155 153 177 145 155 128 149 170 145 139 142 125 164 139 145 146 71 125 114 97 139 108 93 120 95 64 73 93 112 89 60 84 91 80 93 85 67 60 25 40 31 4 36 65 45 34 31 11 20 37 37 44 29 43 52 40 25 31 39 28 48 21 38 36 8 79 74 68 53 50 39 29 65 49 67 52 7 8 39 62 112 116 51 96 106 100 141 135 139 145 140 108 97 116 107 111 104 82 78 94 90 63 24 28 34 36 40 49 40 14 15 57 22 30 14 34 47 14 29 31 24 36 77 93 24 89 86 107 135 98 98 127 89 122 137 131 138 117 120 136 137 135 124 121 125 126 112 111 103 128 133 57 56 61 94 120 99 106 87 125 116 99 122 115 62 89 94 94 99 100 46 81 59 72 47 75 78 55 31 62 50 47 55 52 41 32 16 19 40 14 53 51 20 30 6 5 22 20 37 4 1 24 27 29 23 8 3 36 32 7 11 15 16 61 23 11 13 17 16 8 37 46 50 42 55 36 39 59 122 119 72 71 29 91 97 107 108 91 51 78 79 64 93 83 53 56 60 47 11 32 29 21 6 28 28 17 34 5 28 37 21 14 30 1 29 21 36 25 35 22 90 110 52 88 69 79 121 100 89 90 105 93 75 83 96 49 116 62 69 58 110 53 70 83 61 76 57 77 43 68 85 45 72 16 51 83 42 87 64 21 88 50 74 49 27 49 52 33 57 38 11 34 27 18 60 64 47 22 11 5 29 42 36 1 21 16 12 10 57 33 5 14 10 16 27 28 22 2 17 27 9 33 42 3 9 15 21 13 6 6 5 41 27 8 40 47 32 1 40 44 32 41 60 36 28 63 104 110 56 11 102 72 68 65 56 62 48 36 58 67 46 59 56 39 72 71 17 0 29 24 7 33 20 0 14 24 24 21 3 15 17 9 19 37 37 2 9 21 87 87 45 71 68 59 105 68 63 69 92 72 99 46 96 23 107 21 79 7 81 37 65 62 18 68 5 79 42 40 71 37 74 26 48 78 15 55 47 43 65 39 19 37 35 45 53 22 44 12 20 22 0 6 59 54 27 13 22 18 12 30 24 8 6 26 4 6 51 15 7 3 7 9 7 20 2 11 9 31 5 6 36 0 6 11 15 8 30 5 18 23 11 23 12 56 11 30 45 14 24 33 40 39 20 47 97 90 61 28 90 79 50 35 25 35 56 35 29 17 24 38 7 32 57 42 10 7 15 24 0 29 16 1 11 4 14 7 17 22 9 6 20 32 39 4 20 19 77 60 38 38 67 43 90 9 56 10 84 54 69 57 50 43 70 13 54 20 70 52 59 13 19 25 36 64 36 45 30 22 65 31 28 41 30 36 50 11 57 23 0 23 17 40 31 15 25 5 10 33 5 4 6 30 15 7 12 1 6 10 3 8 12 23 0 20 26 17 4 0 2 3 6 15 13 24 1 16 0 1 19 3 22 13 8 3 26 3 24 40 9 35 25 35 26 24 1 18 44 35 16 24 12 62 84 69 45 11 74 80 65 39 48 63 64 38 43 16 11 35 18 21 40 26 25 8 4 17 10 26 7 8 26 10 8 6 25 24 1 13 14 13 36 4 16 18 87 70 29 35 61 42 96 22 49 51 66 28 75 16 74 2 28 29 50 26 53 28 59 28 32 54 9 61 18 27 46 4 56 14 7 51 7 41 38 19 57 7 11 34 5 22 4 6 18 14 10 35 10 21 21 16 8 2 6 15 1 6 1 19 26 24 14 9 11 15 19 4 0 9 1 5 9 24 4 6 5 5 19 16 27 15 2 1 20 10 23 15 33 37 39 33 19 2 35 23 57 13 19 7 18 73 104 94 40 56 84 57 105 95 94 91 84 73 75 64 55 12 10 36 23 46 15 32 19 16 17 22 10 15 29 12 0 14 10 8 12 20 9 10 24 20 1 3 89 73 2 59 35 61 94 63 42 70 63 44 89 55 95 29 65 46 77 18 72 0 59 53 25 78 0 74 42 37 66 31 66 34 16 70 4 47 49 18 59 21 18 47 20 35 41 10 25 5 8 30 7 3 22 32 14 4 13 25 6 5 1 10 35 10 14 6 7 1 20 12 21 2 8 1 10 1 13 0 2 24 17 10 11 10 2 0 27 3 14 16 34 5 28 51 17 42 52 38 56 10 16 0 20 61 64 63 89 75 87 89 102 107 98 79 73 76 64 61 59 12 16 9 19 31 40 28 28 22 7 16 16 18 18 3 0 14 20 7 6 10 18 0 13 31 16 7 81 69 31 63 17 32 95 75 48 86 86 55 92 64 94 55 80 68 85 30 74 7 49 57 8 80 55 80 45 58 59 37 70 48 28 66 37 45 50 40 75 32 29 46 38 16 46 36 0 6 23 30 5 7 27 34 17 20 1 10 0 14 14 15 24 7 6 8 2 2 8 27 24 12 18 13 18 19 17 4 25 21 11 13 28 0 4 1 25 7 16 37 25 17 32 51 44 56 62 39 35 0 0 23 31 53 40 108 117 91 78 83 85 98 93 93 72 77 80 63 68 71 52 60 65 33 33 4 18 24 7 11 12 15 13 4 5 12 22 6 6 4 8 26 15 29 17 22 69 56 19 59 30 43 90 62 24 80 90 73 82 84 71 63 81 81 89 62 77 70 73 55 57 88 86 58 37 62 60 51 80 81 70 60 70 44 65 60 90 71 13 51 52 52 71 54 46 31 46 10 16 6 23 33 18 8 20 21 0 8 12 16 0 8 8 14 4 2 5 15 19 6 3 21 11 2 14 2 25 3 5 23 22 9 6 6 14 4 17 20 29 14 22 30 38 46 48 8 12 25 23 26 24 48 74 130 107 92 68 70 83 90 95 97 94 84 90 80 76 79 74 68 64 37 15 10 0 16 10 9 8 3 20 0 0 1 14 8 7 0 1 32 18 23 3 12 57 57 19 37 34 31 70 52 64 45 85 60 76 81 51 66 71 78 86 67 81 70 14 31 75 89 86 58 59 31 63 60 81 83 77 56 77 76 72 74 79 68 25 57 50 55 73 60 53 51 40 32 12 14 30 19 34 3 13 29 1 5 1 2 8 8 4 2 3 1 12 8 9 2 7 12 2 11 4 3 12 0 0 0 10 1 4 10 6 0 5 18 5 10 39 19 17 36 27 20 39 7 35 9 21 50 89 135 106 30 62 46 76 77 75 91 89 74 79 74 58 25 36 28 25 14 20 21 13 2 18 12 14 6 12 9 10 6 3 10 6 4 1 20 3 18 0 3 64 34 2 37 29 17 40 63 52 47 73 21 36 31 27 34 63 60 55 25 74 25 61 40 17 59 63 65 37 39 63 47 72 18 44 53 62 53 37 41 62 36 25 55 34 30 32 37 37 27 7 29 7 6 22 11 29 7 4 22 9 6 2 1 0 0 7 0 12 0 12 5 3 1 2 13 2 11 1 12 3 1 0 12 4 2 0 12 2 8 0 20 22 9 48 4 6 18 20 28 33 14 25 10 36 47 70 138 89 40 71 83 111 116 113 105 97 79 89 79 78 56 57 42 41 50 34 31 31 9 23 12 15 9 14 25 16 0 5 6 2 13 0 4 18 14 17 2 71 56 11 64 21 51 31 86 80 85 81 85 55 73 71 66 78 65 49 62 84 70 69 55 31 63 54 70 56 38 50 14 70 46 22 37 12 33 39 5 70 21 20 62 11 3 40 21 19 0 1 20 10 11 14 4 1 0 0 13 5 5 2 1 1 4 3 9 13 8 5 2 5 7 0 8 2 14 2 15 1 1 1 8 17 3 3 9 1 11 6 33 16 25 27 24 8 16 5 22 17 19 18 37 35 37 90 134 71 57 77 90 97 91 101 88 74 57 61 2 51 46 60 52 67 45 3 8 27 21 19 20 23 4 13 17 28 2 9 4 2 15 3 4 21 14 11 15 69 38 14 68 72 65 61 106 81 109 93 85 109 64 104 49 104 66 95 49 95 84 83 90 18 100 28 89 64 42 86 5 75 71 29 74 55 55 47 19 79 26 17 78 22 43 44 14 0 0 1 8 6 10 17 9 12 11 5 11 2 14 14 11 8 7 1 5 2 17 0 0 9 15 5 6 2 15 4 6 1 9 4 2 14 7 16 2 1 11 13 23 10 7 19 36 20 1 18 3 3 11 25 20 19 64 85 121 103 48 79 71 60 59 75 77 67 76 57 72 44 15 65 65 70 31 21 1 16 31 2 2 19 5 8 0 20 4 18 11 0 3 3 1 7 3 1 17 60 8 32 58 59 72 79 106 98 120 106 121 117 119 119 94 127 95 109 97 114 110 81 98 73 121 52 110 80 65 112 62 93 18 45 102 60 71 87 57 92 65 56 90 45 60 62 1 32 18 17 7 8 6 24 31 13 17 11 9 19 4 2 6 10 4 2 0 1 9 4 2 5 8 16 14 2 12 4 0 1 19 2 11 3 1 17 5 6 2 2 1 25 22 6 35 25 5 2 44 14 3 27 22 15 57 116 146 128 77 61 35 19 61 24 62 58 60 51 49 39 12 49 42 34 26 16 2 12 19 7 7 10 0 6 6 10 8 19 17 9 7 3 2 1 3 7 11 53 3 18 42 47 56 71 83 98 114 56 130 126 141 135 131 132 133 130 134 128 141 104 122 106 126 102 107 112 69 130 106 99 117 82 116 105 51 114 80 100 117 79 90 84 39 66 3 46 31 19 26 9 7 37 52 30 14 14 1 20 29 27 0 8 1 5 1 5 7 7 0 1 2 10 15 5 1 19 17 0 14 1 14 3 2 2 13 1 2 6 3 33 16 13 20 17 15 4 47 19 16 3 28 7 47 59 142 104 56 78 52 24 37 44 25 17 46 24 22 15 24 23 5 5 2 2 0 2 3 4 10 0 1 4 1 9 9 5 3 8 10 7 3 3 4 5 9 47 9 11 12 15 28 35 62 58 87 80 103 114 123 117 121 91 123 115 127 84 133 104 117 95 116 106 99 119 72 128 108 78 124 77 111 109 77 109 69 93 119 82 71 91 42 46 14 33 15 14 32 3 4 23 43 15 5 11 2 6 14 27 6 4 0 8 2 4 7 11 7 4 6 2 30 1 3 8 13 11 9 3 11 5 3 4 8 6 2 12 2 29 4 10 2 8 21 15 25 17 12 5 29 7 62 98 96 14 86 85 48 9 25 10 23 11 25 19 31 19 28 14 8 4 6 0 6 2 0 2 5 12 8 4 0 3 4 2 3 4 3 11 1 6 5 6 10 50 25 23 4 0 29 11 0 22 32 43 29 45 50 49 50 67 65 52 68 63 85 19 74 45 87 72 80 84 39 97 70 77 90 39 87 76 48 64 12 61 80 39 55 59 5 11 6 9 4 5 18 3 0 0 9 2 0 3 1 1 7 0 11 2 0 5 6 4 2 2 4 0 5 3 35 5 1 9 2 10 16 1 13 2 3 5 3 0 0 13 10 11 10 13 12 16 13 10 6 18 5 0 14 7 67 119 123 86 88 79 59 44 43 66 55 25 2 14 36 25 5 12 1 6 6 7 5 0 2 5 10 18 21 4 4 2 3 4 4 1 2 12 1 8 4 4 9 56 44 34 0 28 22 2 23 38 28 53 30 39 21 31 25 32 18 23 20 9 16 41 9 20 20 21 18 18 33 22 18 25 9 21 26 22 13 4 14 15 16 2 6 4 11 4 2 1 0 2 3 5 1 0 3 0 1 1 1 1 6 0 3 1 0 2 8 11 4 0 1 0 3 0 46 21 8 4 2 8 8 0 14 0 4 1 0 1 0 5 29 19 31 2 29 15 14 12 11 20 17 10 14 21 48 130 146 77 83 65 69 66 66 71 66 11 9 9 39 37 39 11 6 1 1 12 4 1 0 5 14 17 25 3 3 6 3 2 12 1 1 3 1 1 4 2 4 55 32 28 24 56 4 48 40 48 67 72 4 54 8 50 2 48 6 46 16 36 40 36 24 30 37 44 22 28 10 25 16 13 10 16 1 9 26 25 9 19 16 19 5 23 7 18 18 4 1 13 0 3 1 4 1 1 1 0 1 1 5 5 6 7 2 7 2 14 6 2 7 4 1 1 54 33 8 6 2 12 3 10 5 1 7 1 4 0 10 3 19 23 34 1 33 2 15 11 19 27 29 14 30 36 53 79 134 81 51 53 69 64 34 54 45 45 37 30 38 24 40 22 28 7 7 6 18 0 4 0 4 13 17 4 0 12 20 3 11 3 1 2 9 3 14 9 0 56 19 26 27 57 53 80 81 70 90 60 81 73 55 80 56 54 24 58 51 62 8 31 43 3 54 55 26 27 28 44 19 36 13 33 38 2 35 43 18 27 10 24 40 29 0 35 45 15 25 35 10 19 13 10 0 15 1 1 1 9 4 12 8 5 0 9 1 0 4 0 5 0 8 3 50 24 4 7 15 2 6 17 6 8 0 3 7 1 12 0 29 7 11 34 33 40 21 1 15 40 4 30 30 27 59 87 95 82 41 78 69 65 75 86 85 61 62 58 50 35 27 34 25 3 11 13 22 0 7 0 1 0 10 14 12 7 23 1 0 14 2 8 3 2 16 8 0 63 20 28 19 28 58 70 86 53 100 86 95 75 72 86 59 51 3 51 54 46 31 32 55 34 65 45 42 19 16 54 17 38 42 20 59 14 28 54 8 37 53 7 36 4 6 42 39 33 28 34 28 16 19 38 24 18 9 4 2 19 4 8 0 0 5 9 3 11 1 0 4 0 16 2 40 11 23 6 9 2 14 23 9 14 14 6 9 9 6 0 40 17 33 51 36 48 32 18 12 28 27 28 4 47 48 70 79 59 63 76 50 42 71 48 44 24 43 41 44 37 21 30 10 7 16 7 13 2 3 0 5 11 5 23 23 14 0 12 14 21 2 9 4 4 13 4 10 62 20 32 10 22 22 16 58 70 78 73 77 61 68 70 52 59 41 60 32 38 15 23 40 34 54 9 19 37 0 38 7 43 39 10 45 22 7 37 7 35 55 23 9 19 8 30 18 31 26 17 6 0 0 41 42 1 10 8 1 25 10 1 5 2 9 15 2 6 12 1 2 7 15 0 21 22 25 12 8 3 19 28 2 16 25 6 10 17 5 8 2 29 43 51 8 29 17 26 28 53 19 33 42 54 63 90 85 33 65 72 34 50 53 50 55 67 58 44 41 46 21 12 23 25 34 30 8 2 2 3 20 15 7 15 0 0 21 0 22 23 14 0 14 3 15 2 9 56 23 35 34 27 34 31 35 20 0 54 27 52 44 26 30 67 43 48 23 54 24 12 49 36 31 1 15 43 7 25 13 35 31 9 41 18 14 22 2 36 41 3 19 15 18 19 28 12 11 13 20 1 5 18 25 10 3 10 11 9 12 2 10 4 1 11 3 4 14 1 3 4 4 4 0 15 13 4 4 6 27 21 6 0 5 1 8 11 6 16 12 21 36 44 3 19 0 22 28 47 16 30 33 25 3 74 42 53 37 40 22 58 55 39 12 21 48 44 47 50 3 0 3 14 20 31 16 6 7 6 9 2 1 11 15 11 18 5 16 9 20 3 12 2 13 12 5 35 23 19 37 24 7 20 37 27 35 57 27 60 15 63 22 76 31 47 10 59 19 22 49 33 39 19 29 27 29 56 17 29 21 18 69 1 9 51 3 37 37 19 52 13 18 12 20 17 19 9 8 8 4 13 0 2 3 13 7 0 3 12 15 1 5 5 5 1 5 7 9 0 9 0 1 6 2 2 2 6 19 11 10 19 8 11 18 3 16 22 14 9 17 27 7 37 12 17 11 30 2 20 24 2 46 56 113 92 17 61 61 75 81 46 64 76 62 55 53 52 24 39 24 3 8 21 5 7 21 8 8 1 30 26 23 8 0 4 23 18 11 2 0 10 19 22 8 13 13 8 18 18 5 30 45 34 57 50 62 76 31 63 43 75 34 40 48 60 42 28 52 38 46 50 28 33 4 56 16 40 41 12 70 25 10 50 15 33 45 32 56 24 1 9 20 19 21 13 0 11 5 13 9 1 4 12 7 0 4 20 25 13 15 3 10 20 1 12 17 0 25 8 15 0 1 0 2 2 22 12 8 10 3 1 26 12 10 25 6 29 13 22 26 46 3 7 12 23 25 15 31 17 48 43 128 116 47 51 80 55 97 35 51 81 72 47 61 39 22 45 14 22 16 34 18 7 26 8 29 19 34 24 20 4 6 12 25 3 35 22 11 0 11 21 5 33 4 36 30 21 29 52 60 33 73 4 88 82 67 51 40 42 27 43 47 16 62 42 33 42 29 51 15 36 27 46 19 31 39 11 47 17 9 39 6 37 19 0 31 17 8 32 9 23 10 0 1 20 6 15 7 2 5 19 6 1 19 28 24 10 18 8 9 17 9 15 16 10 27 9 5 9 4 3 10 20 39 26 13 3 18 7 13 23 2 8 16 29 5 30 46 37 19 19 29 17 27 33 43 17 20 27 113 122 72 51 63 78 65 74 27 73 66 45 58 15 19 41 17 40 22 32 17 21 22 5 23 16 8 1 6 11 10 13 13 17 22 26 17 2 2 4 3 26 44 33 20 23 33 29 50 54 62 55 89 71 72 72 75 40 47 62 63 44 55 51 28 22 28 28 17 5 5 30 16 23 25 17 20 8 12 34 10 0 21 24 8 3 16 25 0 25 12 2 1 16 10 10 0 7 0 8 3 13 21 17 15 0 2 2 6 3 5 8 5 4 20 6 6 11 0 9 9 20 23 21 6 7 12 3 8 14 8 6 21 19 30 12 47 11 17 27 37 26 10 36 33 1 44 58 131 138 52 62 62 90 63 79 37 56 66 56 47 34 45 40 22 38 1 11 4 23 22 9 3 13 9 11 0 19 16 11 3 12 13 9 11 6 11 0 3 34 40 21 0 24 3 12 21 37 22 41 64 66 26 38 34 26 9 57 13 10 11 34 39 4 38 16 17 23 26 45 9 20 24 13 46 3 29 33 3 47 29 6 11 4 16 14 2 18 19 6 9 1 10 10 1 6 1 0 2 21 13 10 11 4 10 8 8 1 2 2 4 14 8 5 8 16 1 5 15 6 3 22 0 9 6 5 0 4 0 11 31 23 50 1 19 11 21 25 34 26 14 13 5 0 31 83 152 169 112 69 87 88 91 94 45 69 66 53 43 38 54 42 24 44 25 16 5 6 20 10 16 3 2 9 1 16 5 12 1 1 4 14 20 5 5 5 7 43 28 14 15 27 13 18 21 25 33 30 38 71 35 64 11 77 19 83 18 59 58 2 40 11 36 6 35 2 15 79 39 59 69 5 64 36 27 71 31 61 70 21 13 12 13 17 7 12 30 9 4 3 3 0 0 8 3 5 12 15 2 15 18 6 13 13 10 1 0 0 4 9 4 4 2 25 3 3 16 1 6 7 8 9 1 10 2 16 13 0 27 19 55 17 4 13 21 6 10 21 19 22 8 2 24 57 142 170 133 96 86 106 117 109 66 91 94 92 63 34 59 49 2 50 14 5 19 2 14 12 10 11 12 5 5 4 1 1 15 15 5 6 0 2 1 7 18 30 41 34 18 28 4 43 54 47 73 63 54 74 65 57 67 87 56 80 61 49 67 15 27 24 17 2 49 42 22 92 73 67 87 53 78 66 22 83 58 60 80 55 24 12 5 22 19 21 36 26 0 23 14 10 9 1 7 16 19 10 2 3 13 2 12 7 13 5 0 0 2 0 13 4 3 23 4 9 7 6 1 13 5 6 0 14 6 18 30 12 23 14 39 1 24 9 0 16 33 22 15 12 23 14 39 36 92 127 114 80 2 97 100 97 30 62 67 72 17 40 35 24 10 26 22 4 8 4 10 3 7 0 10 1 4 10 0 4 16 16 10 30 4 4 8 12 4 23 37 47 1 5 0 35 58 24 78 71 51 83 21 48 42 60 58 83 45 66 39 24 23 54 14 15 28 45 42 75 68 37 71 63 64 60 44 67 53 51 50 47 8 1 12 8 12 35 4 36 4 26 19 12 20 18 4 18 11 5 1 1 2 2 5 3 3 4 5 0 10 5 22 1 7 13 1 10 5 4 4 19 4 7 1 2 11 8 26 5 35 25 9 9 22 8 14 31 18 0 5 2 27 12 42 2 86 72 65 73 56 74 23 63 43 25 53 43 53 42 8 25 19 29 46 29 20 17 10 1 23 0 10 10 9 15 3 13 15 11 12 24 8 9 13 15 6 8 21 45 9 18 5 18 35 34 45 61 35 83 55 79 52 40 69 84 19 54 14 21 37 49 23 30 8 35 8 15 50 40 6 21 30 15 30 17 39 13 9 3 2 10 16 5 1 13 9 27 5 9 8 1 25 20 4 11 3 0 1 1 1 2 1 5 1 4 5 3 12 1 18 9 0 8 2 0 9 3 6 16 3 1 10 5 11 15 1 3 40 19 12 16 39 36 39 29 23 29 3 7 13 12 46 49 53 49 27 52 41 25 30 6 59 27 35 17 44 26 9 24 25 4 36 15 12 13 1 13 14 7 9 21 18 16 11 24 1 20 23 14 2 6 15 3 12 5 30 18 4 11 16 14 21 4 15 62 23 63 25 54 9 29 42 54 12 29 19 34 7 21 18 23 2 17 17 18 46 18 5 2 12 16 18 21 41 1 15 33 23 3 6 0 2 8 11 9 14 6 2 0 13 7 9 8 1 2 3 0 4 4 10 1 0 18 13 8 10 16 2 9 0 8 4 5 3 0 6 21 4 3 12 17 13 30 1 15 32 16 37 7 30 54 43 29 29 21 27 15 25 31 43 70 47 25 19 28 36 51 13 45 60 21 2 20 43 11 18 1 1 6 13 25 7 5 6 25 13 13 6 4 14 13 20 19 21 17 22 9 6 8 12 10 21 26 38 13 30 27 19 27 35 25 19 48 29 46 58 35 32 17 12 22 32 4 11 17 9 10 4 6 8 19 10 4 23 29 0 3 2 23 8 28 30 15 23 19 13 2 4 0 4 20 17 10 17 5 5 2 3 1 14 1 0 0 7 4 11 2 2 6 6 12 15 6 22 18 3 5 22 17 7 2 4 1 9 20 7 1 10 13 29 17 13 27 0 28 24 24 21 43 38 33 38 41 28 14 38 18 25 57 50 33 39 31 3 45 42 33 58 10 11 14 36 24 14 2 12 17 3 14 25 20 19 16 18 7 17 4 0 13 16 9 21 10 11 0 7 11 6 3 37 22 27 15 32 19 20 17 35 24 39 49 14 43 36 52 22 11 24 21 10 12 4 11 8 14 14 1 8 4 10 19 6 36 15 1 13 24 2 26 12 16 22 0 10 8 2 6 5 6 8 9 13 6 0 16 0 2 11 4 6 0 9 13 4 0 1 8 5 2 1 5 18 16 7 0 28 21 4 5 17 14 19 9 5 0 12 2 14 3 14 17 19 28 13 41 22 27 26 16 37 33 15 29 35 23 23 36 66 46 46 34 16 46 16 6 53 33 24 8 3 20 30 4 8 20 16 21 14 14 21 7 14 10 18 6 0 3 6 2 20 2 8 5 18 8 4 12 31 0 15 13 22 9 2 1 25 17 41 33 24 38 11 48 32 12 13 1 13 2 5 22 1 1 15 2 2 9 9 23 7 33 12 1 10 4 12 11 11 1 16 4 11 12 2 15 9 11 9 9 14 7 7 21 6 8 10 0 6 1 4 4 2 0 7 6 5 5 8 5 5 10 10 5 3 14 6 10 26 12 21 6 5 0 14 1 11 11 2 6 12 48 0 29 20 13 38 33 34 42 11 19 6 23 29 20 46 64 9 16 10 39 22 30 46 28 13 9 15 20 31 4 2 16 22 29 10 0 12 7 7 4 5 7 6 10 2 3 11 1 15 3 13 3 7 9 13 5 26 5 4 13 9 6 11 5 18 28 25 0 15 35 27 19 0 13 11 0 2 12 2 2 6 2 2 3 10 16 3 12 8 7 5 10 6 6 5 7 7 4 3 4 0 12 12 10 9 8 3 7 9 21 4 1 0 9 2 2 1 9 4 3 5 4 5 8 6 0 1 5 15 8 12 19 3 7 18 1 11 8 1 5 6 6 0 5 2 0 41 35 27 30 42 7 21 47 7 51 13 23 40 43 52 22 36 37 42 19 31 20 28 55 37 8 45 21 21 19 0 17 0 3 10 24 12 12 1 8 18 8 0 3 22 10 2 8 16 0 17 11 6 0 0 6 34 0 35 9 22 26 7 15 4 4 2 21 22 22 4 25 10 15 13 13 16 2 7 1 18 1 6 8 1 21 3 29 5 14 3 2 15 22 7 37 21 4 5 17 14 13 1 3 12 15 6 20 4 10 16 18 13 7 24 19 5 7 2 10 0 3 5 11 2 0 11 2 3 4 23 8 18 16 4 2 5 19 3 9 8 2 2 24 2 5 16 15 59 12 23 50 63 31 13 37 16 13 51 24 52 70 55 64 33 54 47 44 26 17 52 42 46 39 52 39 4 19 36 18 0 5 2 26 8 22 14 29 20 29 3 13 25 6 11 18 26 2 8 15 0 1 15 32 46 13 56 9 31 2 7 27 10 7 14 27 39 15 11 30 18 6 23 13 16 11 1 0 37 1 0 6 24 31 23 31 25 28 25 19 10 28 6 58 24 17 28 30 33 27 8 14 20 10 22 31 30 21 35 29 7 6 39 3 18 21 6 3 16 16 28 19 7 5 19 17 14 3 16 18 8 18 11 5 21 36 16 5 18 2 6 32 17 7 19 38 47 32 64 64 58 9 8 43 75 72 62 28 36 75 48 67 81 92 43 80 40 48 74 34 73 45 33 16 18 28 42 24 1 25 26 26 17 32 14 44 16 26 14 24 2 4 44 11 25 3 14 42 24 14 4 10 42 20 68 17 5 29 27 37 5 11 23 35 17 38 29 41 14 19 18 31 0 34 29 19 46 3 31 31 37 38 34 48 27 41 36 7 36 19 0 59 6 27 38 33 36 42 20 23 35 7 35 11 36 2 34 18 29 5 26 41 15 18 11 18 17 22 9 1 20 12 20 0 17 14 9 16 0 28 17 20 7 32 15 3 21 2 0 36 27 7 4 36 70 45 87 70 36 49 12 60 64 81 68 17 29 75 74 45 102 78 69 103 29 83 88 37 91 13 38 51 37 48 32 17 10 34 34 9 23 24 21 46 4 43 20 15 28 11 51 31 17 9 24 59 39 43 48 22 53 52 58 28 40 9 2 43 38 16 26 35 6 44 20 48 6 36 25 40 2 41 23 20 40 13 45 28 13 23 23 31 25 30 16 30 27 27 24 33 30 17 6 42 10 37 34 45 39 26 28 13 37 20 43 37 40 24 29 43 1 20 2 30 14 33 8 28 24 26 19 16 7 29 10 7 13 10 38 18 27 54 26 2 6 29 18 61 41 8 27 33 64 42 79 68 76 21 63 91 62 57 33 52 39 66 44 40 116 71 71 109 31 94 87 79 85 37 24 25 59 30 23 24 35 17 27 50 39 33 13 29 28 41 20 19 34 13 29 43 13 28 31 56 26 28 62 26 60 62 33 19 47 20 31 63 50 16 57 53 38 60 16 42 17 45 25 43 22 46 19 5 41 20 27 1 16 3 2 13 5 26 31 22 31 15 44 10 34 22 43 30 15 29 47 51 52 53 24 27 42 4 37 36 9 8 50 18 14 10 10 22 11 20 8 18 19 42 44 14 39 23 4 2 28 11 35 22 47 53 21 5 19 19 43 56 59 22 35 57 67 49 80 36 80 61 59 82 39 92 55 77 41 51 56 76 128 95 81 93 46 91 81 70 68 29 11 69 23 19 4 18 32 31 26 65 35 39 27 28 18 24 6 32 36 29 44 44 26 22 15 23 32 25 62 15 44 59 39 7 4 18 33 80 51 34 79 72 83 65 74 64 25 27 18 38 7 52 22 0 47 22 8 11 26 9 24 36 31 28 35 18 19 9 44 52 34 47 43 39 2 47 31 16 51 36 5 38 18 32 1 39 47 31 32 26 17 15 14 12 0 13 21 5 11 37 63 16 40 13 10 4 14 5 35 22 38 51 17 19 45 0 64 15 46 24 47 59 84 75 80 13 66 69 39 14 74 89 37 86 47 76 44 86 113 115 37 94 85 83 82 58 53 46 27 66 60 19 5 8 12 48 10 55 24 22 28 39 10 5 13 32 32 44 62 41 21 13 32 40 30 22 30 12 34 66 1 13 38 34 66 80 7 56 76 60 86 82 90 68 36 33 39 24 10 36 1 18 42 14 22 10 30 5 39 25 8 20 26 31 3 18 31 49 19 53 29 26 21 43 23 26 40 5 1 35 6 44 14 44 47 33 32 36 29 38 19 4 3 3 32 28 8 29 65 13 29 23 3 6 14 10 42 4 14 51 21 21 40 4 55 37 4 27 51 44 72 51 50 19 79 74 81 47 59 66 8 73 64 64 54 54 76 90 87 87 83 31 50 35 41 14 23 29 71 29 43 59 44 59 8 36 0 21 12 34 10 31 32 29 10 8 54 45 17 31 23 58 47 39 41 26 9 39 57 24 48 44 44 55 9 37 14 42 70 72 77 42 24 34 18 28 0 15 4 13 21 1 9 9 43 12 24 2 5 5 19 30 4 0 22 7 24 39 51 30 22 20 4 39 24 15 5 23 19 38 17 29 24 41 54 32 30 40 20 12 34 17 39 38 9 40 53 25 23 8 20 18 26 44 20 28 29 39 6 24 10 14 38 25 37 2 38 16 48 59 50 18 74 54 81 65 45 49 3 14 65 40 68 66 87 47 83 29 63 55 9 35 51 35 29 39 80 29 70 68 65 63 26 30 8 7 29 33 32 29 39 35 27 26 34 38 16 35 17 47 38 6 44 19 26 24 56 30 35 59 65 37 23 74 58 36 65 53 47 21 29 31 0 9 4 28 19 28 25 30 27 18 52 35 25 10 17 39 19 18 30 25 10 32 41 19 24 42 23 16 6 39 24 14 27 2 13 19 14 30 40 13 45 4 10 20 16 19 44 5 3 23 20 30 26 32 17 27 27 20 27 44 21 8 2 14 1 1 13 17 20 23 41 23 42 18 72 44 64 40 28 9 62 24 60 47 15 47 38 50 46 67 89 36 27 55 66 86 35 33 59 52 5 81 19 84 53 73 32 49 32 20 10 5 3 1 36 10 16 8 12 8 37 15 23 26 17 24 7 4 39 6 8 13 58 27 30 55 62 67 59 73 51 54 48 57 23 40 23 60 38 14 36 41 49 19 60 44 30 4 52 23 45 33 26 49 31 17 40 30 33 37 38 7 6 17 23 8 24 27 1 25 35 15 8 13 7 24 41 5 13 19 18 9 5 15 28 13 27 2 12 19 18 25 3 26 16 2 34 19 28 22 1 17 10 5 11 15 9 10 29 14 32 12 52 37 59 43 8 18 15 10 44 49 28 30 13 55 12 39 84 56 53 12 77 95 24 52 62 44 47 79 102 89 48 84 6 35 11 19 25 28 7 9 21 20 17 1 22 32 8 2 17 14 14 14 0 13 23 14 22 19 48 12 34 14 42 67 50 51 35 23 21 71 37 44 39 65 48 0 53 26 55 19 59 22 23 39 52 10 26 30 13 42 31 13 37 32 40 31 19 24 25 11 13 3 27 26 17 26 15 14 12 22 8 29 13 0 0 11 2 18 11 5 22 10 20 6 0 6 16 17 15 3 5 1 28 5 12 11 10 8 19 0 5 8 9 4 21 8 2 6 16 41 36 32 16 13 21 9 7 40 25 5 0 37 37 74 90 55 71 37 56 73 41 56 41 3 57 19 102 54 53 78 43 40 22 10 18 21 3 3 7 17 4 7 7 25 7 4 15 6 2 9 2 4 5 17 11 34 37 24 26 16 35 40 51 46 33 56 53 88 59 53 34 50 52 45 49 3 43 23 51 52 9 42 44 4 23 46 5 24 23 13 25 17 30 18 0 25 11 12 22 5 1 16 3 16 0 1 6 16 6 5 6 1 2 6 0 5 8 4 20 12 8 9 2 4 2 6 1 7 10 2 8 11 7 3 5 0 18 8 4 6 2 8 5 6 6 5 6 33 21 4 10 16 13 13 6 17 12 8 10 12 28 71 102 72 78 37 8 4 47 53 39 40 54 31 56 59 40 58 58 11 25 4 4 7 9 5 4 10 7 4 9 8 10 15 9 3 3 9 14 5 13 10 0 46 53 9 14 10 28 35 54 59 64 53 86 77 92 73 20 20 52 54 33 5 32 15 31 20 14 18 29 7 16 39 7 9 26 0 18 7 22 3 6 27 12 1 31 3 6 5 6 1 3 0 2 9 0 0 6 1 1 1 2 0 6 1 9 2 5 10 0 2 4 4 2 5 6 5 8 21 12 3 1 4 10 1 3 3 4 8 2 3 2 2 4 11 27 4 10 9 21 31 15 16 16 3 15 36 17 59 101 73 75 10 36 15 2 28 45 31 35 15 40 52 34 36 48 28 23 0 9 0 5 2 10 5 13 6 10 3 2 15 5 3 3 0 9 2 1 1 0 40 42 15 17 1 3 56 26 45 42 84 74 77 72 56 36 23 45 55 24 1 26 0 33 5 15 3 16 2 0 33 13 10 9 8 26 15 18 0 1 1 16 2 34 2 3 16 6 0 11 4 3 11 11 7 2 4 1 1 6 0 3 0 3 0 3 10 1 1 9 4 2 2 0 3 13 8 2 0 3 3 0 0 5 3 10 0 0 6 1 3 21 2 10 0 22 20 27 33 27 40 33 6 31 22 10 59 68 77 45 21 26 5 7 14 21 27 11 0 19 22 8 4 29 25 17 4 16 6 2 7 15 1 2 11 12 2 8 7 5 3 1 0 3 4 3 9 0 27 25 19 17 29 34 49 44 18 13 60 43 62 11 46 9 27 17 52 23 1 23 13 36 6 16 6 13 15 10 30 0 10 16 0 38 6 8 10 8 20 14 1 20 0 5 16 3 1 9 6 0 9 17 12 5 4 1 0 5 0 1 2 8 2 4 11 2 4 9 1 4 9 2 6 12 2 0 0 3 0 2 1 9 0 6 6 9 4 2 0 23 22 11 1 24 2 22 26 12 22 31 27 15 27 25 13 71 44 16 20 3 2 5 3 1 12 1 1 8 2 8 3 1 5 2 3 15 4 0 3 10 1 0 9 4 4 5 7 2 7 8 2 8 1 0 6 1 20 0 7 15 9 15 19 10 7 22 31 29 24 22 31 8 6 2 34 11 5 17 16 23 3 11 1 18 4 4 8 1 20 3 5 29 0 2 19 3 13 9 2 2 0 3 12 2 5 1 4 0 7 8 1 4 5 6 1 0 1 2 1 6 7 0 7 1 7 7 1 0 4 0 6 2 3 0 1 3 3 0 0 7 2 1 1 3 3 1 3 15 28 25 22 30 9 33 2 10 8 27 41 14 0 2 0 70 36 13 20 8 2 3 11 4 0 1 2 8 3 5 3 0 3 0 1 10 1 10 4 9 0 0 7 1 1 7 5 1 10 10 5 3 4 0 1 5 18 3 2 0 16 5 24 3 2 5 16 0 9 5 7 8 0 0 21 0 4 9 5 8 0 5 0 11 0 3 0 2 4 4 1 9 2 6 3 9 5 3 4 9 2 0 5 2 7 1 1 0 0 2 0 1 3 11 1 0 3 1 0 2 6 1 7 3 2 2 3 0 2 1 0 3 4 3 2 5 3 0 0 7 1 4 4 5 3 2 8 28 32 30 43 36 35 30 32 0 4 8 50 10 21 21 25 56 20 31 11 1 4 0 8 11 2 2 9 1 6 0 1 7 11 5 1 9 4 17 1 15 1 1 0 4 2 4 7 5 6 12 11 1 7 3 7 8 9 1 11 16 8 22 15 9 4 5 0 1 5 7 0 7 0 1 4 2 6 3 2 8 1 1 1 1 4 3 0 1 4 2 1 3 0 6 0 12 5 0 10 12 2 0 0 5 7 10 1 2 1 7 3 3 0 7 1 2 10 4 2 5 3 4 10 8 2 4 0 5 7 11 5 4 7 1 1 6 3 0 1 11 11 3 11 16 0 5 12 31 23 17 33 13 27 4 21 4 6 34 48 1 10 24 32 26 6 18 34 0 1 0 3 11 3 1 7 6 1 2 2 7 20 12 0 10 4 11 12 6 2 5 0 3 3 0 5 5 4 10 5 1 1 4 5 5 1 4 12 15 9 17 7 10 8 1 1 0 4 5 0 2 0 2 1 0 3 1 0 2 2 0 1 3 4 1 1 0 2 1 0 4 1 1 2 2 1 2 6 1 1 1 0 3 8 7 1 1 0 6 0 3 1 1 2 5 9 1 7 0 0 3 2 1 1 6 1 12 8 14 4 0 7 1 0 7 2 1 2 13 16 0 9 11 1 0 7 11 3 0 6 2 16 3 1 2 3 34 26 3 3 1 17 2 20 9 15 4 1 0 2 5 0 0 3 2 3 1 0 0 7 8 1 3 1 4 7 0 0 6 0 0 0 0 2 3 5 3 0 1 3 2 0 1 1 0 2 2 5 7 2 2 2 2 0 0 2 1 1 1 0 1 0 0 0 0 0 0 1 0 0 1 0 0 2 1 0 0 0 1 0 0 0 0 1 0 1 0 0 1 0 4 0 0 1 0 0 0 0 1 0 0 1 1 2 0 3 1 0 2 1 0 0 1 1 2 2 8 0 0 1 1 1 2 0 0 0 2 4 0 3 2 0 0 1 9 9 2 1 5 8 4 0 0 0 23 10 3 5 1 19 11 8 3 3 1 1 1 1 0 1 2 3 0 0 1 0 0 0 2 2 0 0 1 1 1 0 1 2 0 0 0 1 0 2 2 0 1 1 1 0 0 0 0 0 0 2 1 0 0 0 0 0 0 0 0 0 2 0 0 0 0 0 0 0 0 0 0 0 0 0 0 0 1 1 0 0 0 0 0 0 0 0 0 0 1 0 0 0 1 0 2 0 0 1 1 0 0 0 0 0 0 0 0 0 0 0 2 3 0 0 0 0 0 0 3 0 1 1 0 2 0 1 0 0 1 1 0 1 0 0 0 0 8 4 1 1 4 6 1 3 1 6 11 1 0 2 2 5 14 7 3 1 0 0 0 1 1 0 1 1 0 0 1 0 0 0 1 1 0 0 0 0 1 0 0 2 0 1 1 1 0 0 4 0 1 0 1 0 1 0 0 0 0 1 0 0 0 0 0 0 0 0 0 0 0 0 0 0 0 0 0 0 0 0 0 0 0 0 1 0 0 2 0 0 0 0 0 0 0 0 0 1 0 0 0 0 0 0 2 0 0 1 0 0 0 0 0 0 0 0 0 0 0 0 0 2 0 0 1 0 0 0 0 0 0 1 0 0 0 0 0 0 1 0 0 0 0 0 1 0 2 0 1 1 3 3 0 0 0 2 1 2 2 0 0 1 11 8 2 3 1 1 0 1 1 0 0 0 0 1 0 0 0 0 0 0 0 0 0 0 0 0 1 0 0 0 1 0 0 0 2 0 0 0 0 0 0 0 0 0 0 0 0 0 1 0 0 0 0 0 0 0 0 0 0 0 0 0 0 0 0 0 0 0 0 0 0 0 0 1 0 0 0 0 0 0 0 0 0 0 0 0 0 0 0 0 0 0 0 0 0 0 0 0 0 0 0 0 0 0 0 0 0 0 0 0 0 0 0 0 0 0 0 0 0 0 0 0 0 0 0 0 0 0 0 0 1 0 1 1 1 1 0 0 0 1 0 3 0 1 1 0 0 1 2 1 0 7 0 0 0 1 1 0 0 0 0 1 0 0 0 0 0 0 0 0 0 0 0 0 0 0 0 0 0 0 0 0 0 0 0 0 0 0 0 1 0 0 0 0 0 0 0 0 0 0 0 0 0 0 0 0 0 0 0 0 0 0 0 0 0 0 0 0 0 0 0 0 0 0 0 0 0 0 0 0 0 0 0 0 0 0 0 0 0 0 0 0 0 0 0 0 0 0 0 0 0 0 0 0 0 0 0 0 0 0 0 0 0 0 0 0 0 0 0 0 0 0 0 0 0 1 0 0 0 1 1 2 2 2 0 0 0 2 0 1 0 0 0 0 0 0 2 0 0 4 0 0 0 0 0 0 0 0 0 0 0 0 0 0 0 0 0 0 0 0 0 0 0 0 0 0 0 0 0 0 0 0 0 0 0 0 1 1 0 0 0 0 0 0 0 0 0 0 0 0 0 0 0 0 0 0 0 0 0 0 0 0 0 0 0 0 0 0 0 0 0 0 0 0 0 0 0 0 0 0 0 0 0 0 0 0 0 0 0 0 0 0 0 0 0 0 0 0 0 0 0 0 0 0 0 0 0 0 0 0 0 0 0 0 0 0 0 0 0 0 0 0 0 0 0 0 0 0 0 1 0 1 0 0 0 0 0 0 0 0 0 1 0 0 0 0 0 1 0 0 0 0 0 0 0 0 0 0 0 0 0 0 0 0 0 0 0 0 0 0 0 0 0 0 0 0 0 0 0 0 0 0 0 0 0 0 0 0 0 0 0 0 0 0 0 0 0 0 0 0 0 0 0 0 0 0 0 0 0 0 0 0 0 0 0 0 0 0 0 0 0 0 0 0 0 0 0 0 0 0 0 0 0 0 0 0 0 0 0 0 0 0 0 0 0 0 0 0 0 0 0 0 0 0 0 0 0 0 0 0 0 0 0 0 0 0 0 0 0 0 0 0 0 0 0 0 0 0 0 0 0 0 0 0 0 0 0 1 0 0 0 0 0 0 0 1 0 0 0 0 0 0 0 0 0 0 0 0 0 0 0 0 0 0 0 0 0 0 0 0 0 0 0 0 0 0 0 0 0 0 0 0 0 0 0 0 0 0 0 0 0 0 0 0 0 0 0 0 0 0 0 0 0 0 0 0 0 0 0 0 0 0 0 0 0 0 0 0 0 0 0 0 0 0 0 0 0 0 0 0 0 0 0 0 0 0 0 0 0 0 0 0 0 0 0 0 0 0 0 0 0 0 0 0 0 0 0 0 0 0 0 0 0 0 0 0 0 0 0 0 0 0 0 0 0 0 0 0 0 0 0 0 0 0 0 1 0 0 0 0 0 0 0 1 0 0 0 0 0 0 0 0 0 0 0 0 0 0 0 0 0 0 0 0 0 0 0 0 0 0 0 0 0 0 0 0 0 0 0 0 0 0 0 0 0 0 0 0 0 0 0 0 0 0 0 0 0 0 0 0 0 0 0 0 0 0 0 0 0 0 0 0 0 0 0 0 0 0 0 0 0 0 0 0 0 0 0 0 0 0 0 0 0 0 0 0 0 0 0 0 0 0 0 0 0 0 0 0 0 0 0 0 0 0 0 0 0 0 0 0 0 0 0 0 0 0 0 0 0 0 0 0 0 0 0 0 0 1 0 0 1 0 0 2 0 0 0 1 0 0 0 1 1 0 0 0 0 0 0 0 0 0 0 0 0 0 0 0 0 0 0 0 0 0 0 0 0 0 0 0 0 0 0 0 0 0 0 0 0 0 0 0 0 0 0 0 0 0 0 0 0 0 0 0 0 0 0 0 0 0 0 0 0 0 0 0 0 0 0 0 0 0 0 0 0 0 0 0 0 0 0 0 0 0 0 0 0 0 0 0 0 0 0 0 0 0 0 0 0 0 0 0 0 0 0 0 0 0 0 0 0 0 0 0 0 0 0 0 0 0 0 0 0 0 0 0 0 0 0 0 0 0 0 0 0 0 1 0 1 0 0 2 0 0 0 0 0 0 0 0 0 0 0 0 0 0 0 0 0 0 0 0 0 0 0 0 0 0 0 0 0 0 0 0 0 0 0 0 0 0 0 0 0 0 0 0 0 0 0 0 0 0 0 0 0 0 0 0 0 0 0 0 0 0 0 0 0 0 0 0 0 0 0 0 0 0 0 0 0 0 0 0 0 0 0 0 0 0 0 0 0 0 0 0 0 0 0 0 0 0 0 0 0 0 0 0 0 0 0 0 0 0 0 0 0 0 0 0 0 0 0 0 0 0 0 0 0 0 0 0 0 0 0 0 0 0 0 0 0 0 0 0 0 0 0 0 0 0 0 1 0 0 0 0 0 0 0 0 0 0 0 0 0 0 0 0 0 0 0 0 0 0 0 0 0 0 0 0 0 0 0 0 0 0 0 0 0 0 0 0 0 0 0 0 0 0 0 0 0 0 0 0 0 0 0 0 0 0 0 0 0 0 0 0 0 0 0 0 0 0 0 0 0 0 0 0 0 0 0 0 0 0 0 0 0 0 0 0 0 0 0 0 0 0 0 0 0 0 0 0 0 0 0 0 0 0 0 0 0 0 0 0 0 0 0 0 0 0 0 0 0 0 0 0 0 0 0 0 0 0 0 0 0 0 0 0 0 0 0 0 0 0 0 0 0 0 0 0 0 0 0 0 0 0 0 0 0 0 0 0 0 0 0 0 0 0 0 0 0 0 0 0 0 0 0 0 0 0 0 0 0 0 0 0 0 0 0 0 0 0 0 0 0 0 0 0 0 0 0 0 0 0 0 0 0 0 0 0 0 0 0 0 0 0 0 0 0 0 0 0 0 0 0 0 0 0 0 0 0 0 0 0 0 0 0 0 0 0 0 0 0 0 0 0 0 0 0 0 0 0 0 0 0 0 0 0 0 0 0 0 0 0 0 0 0 0 0 0 0 0 0 0 0 0 0 0 0 0 0 0 0 0 0 0 0 0 0 0 0 0 0 0 0 0 0 0 0 0 0 0 0 0 0 0 0 0 0 0 0 0 0 0 0 0 0 0 0 0 0 0 0 0 0 0 0 0 0 0 0 0 0 0 0 0 0 0 0 0 0 0 0 0 0 0 0 0 0 0 0 0 0 0 0 0 0 0 0 0 0 0 0 0 0 0 0 0 0 0 0 0 0 0 0 0 0 0 0 0 0 0 0 0 0 0 0 0 0 0 0 0 0 0 0 0 0 0 0 0 0 0 0 0 0 0 0 0 0 0 0 0 0 0 0 0 0 0 0 0 0 0 0 0 0 0 0 0 0 0 0 0 0 0 0 0 0 0 0 0 0 0 0 0 0 0 0 0 0 0 0 0 0 0 0 0 0 0 0 0 0 0 0 0 0 0 0 0 0 0 0 0 0 0 0 0 0 0 0 0 0 0 0 0 0 0 0 0 0 0 0 0 0 0 0 0 0 0 0 0 0 0 0 0 0 0 0 0 0 0 0 0 0 0 0 0 0 0 0 0 0 0 0 0 0 0 0 0 0 0 0 0 0 0 0 0 0 0 0 0 0 0 0 0 0 0 0 0 0 0 0 0 0 0 0 0 0 0 0 0 0 0 0 0 0 0 0 0 0 0 0 0 0 0 0 0 0 0 0 0 0 0 0 0 0 0 0 0 0 0 0 0 0 0 0 0 0 0 0 0 0 0 0 0 0 0 0 0 0 0 0 0 0 0 0 0 0 0 0 0 0 0 0 0 0 0 0 0 0 0 0 0 0 0 0 0 0 0 0 0 0 0 0 0 0 0 0 0 0 0 0 0 0 0 0 0 0 0 0 0 0 0 0 0 0 0 0 0 0 0 0 0 0 0 0 0 0 0 0 0 0 0 0 0 0 0 0 0 0 0 0 0 0 0 0 0 0 0 0 0 0 0 0 0 0 0 0 0 0 0 0 0 0 0 0 0 0 0 0 0 0 0 0 0 0 0 0 0 0 0 0 0 0 0 0 0 0 0 0 0 0 0 0 0 0 0 0 0 0 0 0 0 0 0 0 0 0 0 0 0 0 0 0 0 0 0 0 0 0 0 0 0 0 0 0 0 0 0 0 0 0 0 0 0 0 0 0 0 0 0 0 0 0 0 0 0 0 0 0 0 0 0 0 0 0 0 0 0 0 0 0 0 0 0 0 0 0 0 0 0 0 0 0 0 0 0 0 0 0 0 0 0 0 0 0 0 0 0 0 0 0 0 0 0 0 0 0 0 0 0 0 0 0 0 0 0 0 0 0 0 0 0 0 0 0 0 0 0 0 0 0 0 0 0 0 0 0 0 0 0 0 0 0 0 0 0 0 0 0 0 0 0 0 0 0 0 0 0 0 0 0 0 0 0 0 0 0 0 0 0 0 0 0 0 0 0 0 0 0 0 0 0 0 0 0 0 0 0 0 0 0 0 0 0 0 0 0 0 0 0 0 0 0 0 0 0 0 0 0 0 0 0 0 0 0 0 0 0 0 0 0 0 0 0 0 0 0 0 0 0 0 0 0 0 0 0 0 0 0 0 0 0 0 0 0 0 0 0 0 0 0 0 0 0 0 0 0 0 0 0 0 0 0 0 0 0 0 0 0 0 0 0 0 0 0 0 0 0 0 0 0 0 0 0 0 0 0 0 0 0 0 0 0 0 0 0 0 0 0 0 0 0 0 0 0 0 0 0 0 0 0 0 0 0 0 0 0 0 0 0 0 0 0 0 0 0 0 0 0 0 0 0 0 0 0 0 0 0 0 0 0 0 0 0 0 0 0 0 0 0 0 0 0 0 0 0 0 0 0 0 0 0 0 0 0 0 0 0 0 0 0 0 0 0 0 0 0 0 0 0 0 0 0 0 0 0 0 0 0 0 0 0 0 0 0 0 0 0 0 0 0 0 0 0 0 0 0 0 0 0 0 0 0 0 0 0 0 0 0 0 0 0 0 0 0 0 0 0 0 0 0 0 0 0 0 0 0 0 0 0 0 0 0 0 0 0 0 0 0 0 0 0 0 0 0 0 0 0 0 0 0 0 0 0 0 0 0 0 0 0 0 0 0 0 0 0 0 0 0 0 0 0 0 0 0 0 0 0 0 0 0 0 0 0 0 0 0 0 0 0 0 0 0 0 0 0 0 0 0 0 0 0 0 0 0 0 0 0 0 0 0 0 0 0 0 0 0 0 0 0 0 0 0 0 0 0 0 0 0 0 0 0 0 0 0 0 0 0 0 0 0 0 0 0 0 0 0 0 0 0 0 0 0 0 0 0 0 0 0 0 0 0 0 0 0 0 0 0 0 0 0 0 0 0 0 0 0 0 0 0 0 0 0 0 0 0 0 0 0 0 0 0 0 0 0 0 0 0 0 0 0 0 0 0 0 0 0 0 0 0 0 0 0 0 0 0 0 0 0 0 0 0 0 0 0 0 0 0 0 0 0 0 0 0 0 0 0 0 0 0 0 0 0 0 0 0 0 0 0 0 0 0 0 0 0 0 0 0 0 0 0 0 0 0 0 0 0 0 0 0 0 0 0 0 0 0 0 0 0 0 0 0 0 0 0 0 0 0 0 0 0 0 0 0 0 0 0 0 0 0 0 0 0 0 0 0 0 0 0 0 0 0 0 0 0 0 0 0 0 0 0 0 0 0 0 0 0 0 0 0 0 0 0 0 0 0 0 0 0 0 0 0 0 0 0 0 0 0 0 0 0 0 0 0 0 0 0 0 0 0 0 0 0 0 0 0 0 0 0 0 0 0 0 0 0 0 0 0 0 0 0 0 0 0 0 0 0 0 0 0 0 0 0 0 0 0 0 0 0 0 0 0 0 0 0 0 0 0 0 0 0 0 0 0 0 0 0 0 0 0 0 0 0 0 0 0 0 0 0 0 0 0 0 0 0 0 0 0 0 0 0 0 0 0 0 0 0 0 0 0 0 0 0 0 0 0 0 0 0 0 0 0 0 0 0 0 0 0 0 0 0 0 0 0 0 0 0 0 0 0 0 0 0 0 0 0 0 0 0 0 0 0 0 0 0 0 0 0 0 0 0 0 0 0 0 0 0 0 0 0 0 0 0 0 0 0 0 0 0 0 0 0 0 0 0 0 0 0 0 0 0 0 0 0 0 0 0 0 0 0 0 0 0 0 0 0 0 0 0 0 0 0 0 0 0 0 0 0 0 0 0 0 0 0 0 0 0 0 0 0 0 0 0 0 0 0 0 0 0 0 0 0 0 0 0 0 0 0 0 0 0 0 0 0 0 0 0 0 0 0 0 0 0 0 0 0 0 0 0 0 0 0 0 0 0 0 0 0 0 0 0 0 0 0 0 0 0 0 0 0 0 0 0 0 0 0 0 0 0 0 0 0 0 0 0 0 0 0 0 0 0 0 0 0 0 0 0 0 0 0 0 0 0 0 0 0 0 0 0 0 0 0 0 0 0 0 0 0 0 0 0 0 0 0 0 0 0 0 0 0 0 0 0 0 0 0 0 0 0 0 0 0 0 0 0 0 0 0 0 0 0 0 0 0 0 0 0 0 0 0 0 0 0 0 0 0 0 0 0 0 0 0 0 0 0 0 0 0 0 0 0 0 0 0 0 0 0 0 0 0 0 0 0 0 0 0 0 0 0 0 0 0 0 0 0 0 0 0 0 0 0 0 0 0 0 0 0 0 0 0 0 0 0 0 0 0 0 0 0 0 0 0 0 0 0 0 0 0 0 0 0 0 0 0 0 0 0 0 0 0 0 0 0 0 0 0 0 0 0 0 0 0 0 0 0 0 0 0 0 0 0 0 0 0 0 0 0 0 0 0 0 0 0 0 0 0 0 0 0 0 0 0 0 0 0 0 0 0 0 0 0 0 0 0 0 0 0 0 0 0 0 0 0 0 0 0 0 0 0 0 0 0 0 0 0 0 0 0 0 0 0 0 0 0 0 0 0 0 0 0 0 0 0 0 0 0 0 0 0 0 0 0 0 0 0 0 0 0 0 0 0 0 0 0 0 0 0 0 0 0 0 0 0 0 0 0 0 0 0 0 0 0 0 0 0 0 0 0 0 0 0 0 0 0 0 0 0 0 0 0 0 0 0 0 0 0 0 0 0 0 0 0 0 0 0 0 0 0 0 0 0 0 0 0 0 0 0 0 0 0 0 0 0 0 0 0 0 0 0 0 0 0 0 0 0 0 0 0 0 0 0 0 0 0 0 0 0 0 0 0 0 0 0 0 0 0 0 0 0 0 0 0 0 0 0 0 0 0 0 0 0 0 0 0 0 0 0 0 0 0 0 0 0 0 0 0 0 0 0 0 0 0 0 0 0 0 0 0 0 0 0 0 0 0 0 0 0 0 0 0 0 0 0 0 0 0 0 0 0 0 0 0 0 0 0 0 0 0 0 0 0 0 0 0 0 0 0 0 0 0 0 0 0 0 0 0 0 0 0 0 0 0 0 0 0 0 0 0 0 0 0 0 0 0 0 0 0 0 0 0 0 0 0 0 0 0 0 0 0 0 0 0 0 0 0 0 0 0 0 0 0 0 0 0 0 0 0 0 0 0 0 0 0 0 0 0 0 0 0 0 0 0 0 0 0 0 0 0 0 0 0 0 0 0 0 0 0 0 0 0 0 0 0 0 0 0 0 0 0 0 0 0 0 0 0 0 0 0 0 0 0 0 0 0 0 0 0 0 0 0 0 0 0 0 0 0 0 0 0 0 0 0 0 0 0 0 0 0 0 0 0 0 0 0 0 0 0 0 0 0 0 0 0 0 0 0 0 0 0 0 0 0 0 0 0 0 0 0 0 0 0 0 0 0 0 0 0 0 0 0 0 0 0 0 0 0 0 0 0 0 0 0 0 0 0 0 0 0 0 0 0 0 0 0 0 0 0 0 0 0 0 0 0 0 0 0 0 0 0 0 0 0 0 0 0 0 0 0 0 0 0 0 0 0 0 0 0 0 0 0 0 0 0 0 0 0 0 0 0 0 0 0 0 0 0 0 0 0 0 0 0 0 0 0 0 0 0 0 0 0 0 0 0 0 0 0 0 0 0 0 0 0 0 0 0 0 0 0 0 0 0 0 0 0 0 0 0 0 0 0 0 0 0 0 0 0 0 0 0 0 0 0 0 0 0 0 0 0 0 0 0 0 0 0 0 0 0 0 0 0 0 0 0 0 0 0 0 0 0 0 0 0 0 0 0 0 0 0 0 0 0 0 0 0 0 0 0 0 0 0 0 0 0 0 0 0 0 0 0 0 0 0 0 0 0 0 0 0 0 0 0 0 0 0 0 0 0 0 0 0 0 0 0 0 0 0 0 0 0 0 0 0 0 0 0 0 0 0 0 0 0 0 0 0 0 0 0 0 0 0 0 0 0 0 0 0 0 0 0 0 0 0 0 0 0 0 0 0 0 0 0 0 0 0 0 0 0 0 0 0 0 0 0 0 0 0 0 0 0 0 0 0 0 0 0 0 0 0 0 0 0 0 0 0 0 0 0 0 0 0 0 0 0 0 0 0 0 0 0 0 0 0 0 0 0 0 0 0 0 0 0 0 0 0 0 0 0 0 0 0 0 0 0 0 0 0 0 0 0 0 0 0 0 0 0 0 0 0 0 0 0 0 0 0 0 0 0 0 0 0 0 0 0 0 0 0 0 0 0 0 0 0 0 0 0 0 0 0 0 0 0 0 0 0 0 0 0 0 0 0 0 0 0 0 0 0 0 0 0 0 0 0 0 0 0 0 0 0 0 0 0 0 0 0 0 0 0 0 0 0 0 0 0 0 0 0 0 0 0 0 0 0 0 0 0 0 0 0 0 0 0 0 0 0 0 0 0 0 0 0 0 0 0 0 0 0 0 0 0 0 0 0 0 0 0 0 0 0 0 0 0 0 0 0 0 0 0 0 0 0 0 0 0 0 0 0 0 0 0 0 0 0 0 0 0 0 0 0 0 0 0 0 0 0 0 0 0 0 0 0 0 0 0 0 0 0 0 0 0 0 0 0 0 0 0 0 0 0 0 0 0 0 0 0 0 0 0 0 0 0 0 0 0 0 0 0 0 0 0 0 0 0 0 0 0 0 0 0 0 0 0 0 0 0 0 0 0 0 0 0 0 0 0 0 0 0 0 0 0 0 0 0 0 0 0 0 0 0 0 0 0 0 0 0 0 0 0 0 0 0 0 0 0 0 0 0 0 0 0 0 0 0 0 0 0 0 0 0 0 0 0 0 0 0 0 0 0 0 0 0 0 0 0 0 0 0 0 0 0 0 0 0 0 0 0 0 0 0 0 0 0 0 0 0 0 0 0 0 0 0 0 0 0 0 0 0 0 0 0 0 0 0 0 0 0 0 0 0 0 0 0 0 0 0 0 0 0 0 0 0 0 0 0 0 0 0 0 0 0 0 0 0 0 0 0 0 0 0 0 0 0 0 0 0 0 0 0 0 0 0 0 0 0 0 0 0 0 0 0 0 0 0 0 0 0 0 0 0 0 0 0 0 0 0 0 0 0 0 0 0 0 0 0 0 0 0 0 0 0 0 0 0 0 0 0 0 0 0 0 0 0 0 0 0 0 0 0 0 0 0 0 0 0 0 0 0 0 0 0 0 0 0 0 0 0 0 0 0 0 0 0 0 0 0 0 0 0 0 0 0 0 0 0 0 0 0 0 0 0 0 0 0 0 0 0 0 0 0 0 0 0 0 0 0 0 0 0 0 0 0 0 0 0 0 0 0 0 0 0 0 0 0 0 0 0 0 0 0 0 0 0 0 0 0 0 0 0 0 0 0 0 0 0 0 0 0 0 0 0 0 0 0 0 0 0 0 0 0 0 0 0 0 0 0 0 0 0 0 0 0 0 0 0 0 0 0 0 0 0 0 0 0 0 0 0 0 0 0 0 0 0 0 0 0 0 0 0 0 0 0 0 0 0 0 0 0 0 0 0 0 0 0 0 0 0 0 0 0 0 0 0 0 0 0 0 0 0 0 0 0 0 0 0 0 0 0 0 0 0 0 0 0 0 0 0 0 0 0 0 0 0 0 0 0 0 0 0 0 0 0 0 0 0 0 0 0 0 0 0 0 0 0 0 0 0 0 0 0 0 0 0 0 0 0 0 0 0 0 0 0 0 0 0 0 0 0 0 0 0 0 0 0 0 0 0 0 0 0 0 0 0 0 0 0 0 0 0 0 0 0 0 0 0 0 0 0 0 0 0 0 0 0 0 0 0 0 0 0 0 0 0 0 0 0 0 0 0 0 0 0 0 0 0 0 0 0 0 0 0 0 0 0 0 0 0 0 0 0 0 0 0 0 0 0 0 0 0 0 0 0 0 0 0 0 0 0 0 0 0 0 0 0 0 0 0 0 0 0 0 0 0 0 0 0 0 0 0 0 0 0 0 0 0 0 0 0 0 0 0 0 0 0 0 0 0 0 0 0 0 0 0 0 0 0 0 0 0 0 0 0 0 0 0 0 0 0 0 0 0 0 0 0 0 0 0 0 0 0 0 0 0 0 0 0 0 0 0 0 0 0 0 0 0 0 0 0 0 0 0 0 0 0 0 0 0 0 0 0 0 0 0 0 0 0 0 0 0 0 0 0 0 0 0 0 0 0 0 0 0 0 0 0 0 0 0 0 0 0 0 0 0 0 0 0 0 0 0 0 0 0 0 0 0 0 0 0 0 0 0 0 0 0 0 0 0 0 0 0 0 0 0 0 0 0 0 0 0 0 0 0 0 0 0 0 0 0 0 0 0 0 0 0 0 0 0 0 0 0 0 0 0 0 0 0 0 0 0 0 0 0 0 0 0 0 0 0 0 0 0 0 0 0 0 0 0 0 0 0 0 0 0 0 0 0 0 0 0 0 0 0 0 0 0 0 0 0 0 0 0 0 0 0 0 0 0 0 0 0 0 0 0 0 0 0 0 0 0 0 0 0 0 0 0 0 0 0 0 0 0 0 0 0 0 0 0 0 0 0 0 0 0 0 0 0 0 0 0 0 0 0 0 0 0 0 0 0 0 0 0 0 0 0 0 0 0 0 0 0 0 0 0 0 0 0 0 0 0 0 0 0 0 0 0 0 0 0 0 0 0 0 0 0 0 0 0 0 0 0 0 0 0 0 0 0 0 0 0 0 0 0 0 0 0 0 0 0 0 0 0 0 0 0 0 0 0 0 0 0 0 0 0 0 0 0 0 0 0 0 0 0 0 0 0 0 0 0 0 0 0 0 0 0 0 0 0 0 0 0 0 0 0 0 0 0 0 0 0 0 0 0 0 0 0 0 0 0 0 0 0 0 0 0 0 0 0 0 0 0 0 0 0 0 0 0 0 0 0 0 0 0 0 0 0 0 0 0 0 0 0 0 0 0 0 0 0 0 0 0 0 0 0 0 0 0 0 0 0 0 0 0 0 0 0 0 0 0 0 0 0 0 0 0 0 0 0 0 0 0 0 0 0 0 0 0 0 0 0 0 0 0 0 0 0 0 0 0 0 0 0 0 0 0 0 0 0 0 0 0 0 0 0 0 0 0 0 0 0 0 0 0 0 0 0 0 0 0 0 0 0 0 0 0 0 0 0 0 0 0 0 0 0 0 0 0 0 0 0 0 0 0 0 0 0 0 0 0 0 0 0 0 0 0 0 0 0 0 0 0 0 0 0 0 0 0 0 0 0 0 0 0 0 0 0 0 0 0 0 0 0 0 0 0 0 0 0 0 0 0 0 0 0 0 0 0 0 0 0 0 0 0 0 0 0 0 0 0 0 0 0 0 0 0 0 0 0 0 0 0 0 0 0 0 0 0 0 0 0 0 0 0 0 0 0 0 0 0 0 0 0 0 0 0 0 0 0 0 0 0 0 0 0 0 0 0 0 0 0 0 0 0 0 0 0 0 0 0 0 0 0 0 0 0 0 0 0 0 0 0 0 0 0 0 0 0 0 0 0 0 0 0 0 0 0 0 0 0 0 0 0 0 0 0 0 0 0 0 0 0 0 0 0 0 0 0 0 0 0 0 0 0 0 0 0 0 0 0 0 0 0 0 0 0 0 0 0 0 0 0 0 0 0 0 0 0 0 0 0 0 0 0 0 0 0 0 0 0 0 0 0 0 0 0 0 0 0 0 0 0 0 0 0 0 0 0 0 0 0 0 0 0 0 0 0 0 0 0 0 0 0 0 0 0 0 0 0 0 0 0 0 0 0 0 0 0 0 0 0 0 0 0 0 0 0 0 0 0 0 0 0 0 0 0 0 0 0 0 0 0 0 0 0 0 0 0 0 0 0 0 0 0 0 0 0 0 0 0 0 0 0 0 0 0 0 0 0 0 0 0 0 0 0 0 0 0 0 0 0 0 0 0 0 0 0 0 0 0 0 0 0 0 0 0 0 0 0 0 0 0 0 0 0 0 0 0 0 0 0 0 0 0 0 0 0 0 0 0 0 0 0 0 0 0 0 0 0 0 0 0 0 0 0 0 0 0 0 0 0 0 0 0 0 0 0 0 0 0 0 0 0 0 0 0 0 0 0 0 0 0 0 0 0 0 0 0 0 0 0 0 0 0 0 0 0 0 0 0 0 0 0 0 0 0 0 0 0 0 0 0 0 0 0 0 0 0 0 0 0 0 0 0 0 0 0 0 0 0 0 0 0 0 0 0 0 0 0 0 0 0 0 0 0 0 0 0 0 0 0 0 0 0 0 0 0 0 0 0 0 0 0 0 0 0 0 0 0 0 0 0 0 0 0 0 0 0 0 0 0 0 0 0 0 0 0 0 0 0 0 0 0 0 0 0 0 0 0 0 0 0 0 0 0 0 0 0 0 0 0 0 0 0 0 0 0 0 0 0 0 0 0 0 0 0 0 0 0 0 0 0 0 0 0 0 0 0 0 0 0 0 0 0 0 0 0 0 0 0 0 0 0 0 0 0 0 0 0 0 0 0 0 0 0 0 0 0 0 0 0 0 0 0 0 0 0 0 0 0 0 0 0 0 0 0 0 0 0 0 0 0 0 0 0 0 0 0 0 0 0 0 0 0 0 0 0 0 0 0 0 0 0 0 0 0 0 0 0 0 0 0 0 0 0 0 0 0 0 0 0 0 0 0 0 0 0 0 0 0 0 0 0 0 0 0 0 0 0 0 0 0 0 0 0 0 0 0 0 0 0 0 0 0 0 0 0 0 0 0 0 0 0 0 0 0 0 0 0 0 0 0 0 0 0 0 0 0 0 0 0 0 0 0 0 0 0 0 0 0 0 0 0 0 0 0 0 0 0 0 0 0 0 0 0 0 0 0 0 0 0 0 0 0 0 0 0 0 0 0 0 0 0 0 0 0 0 0 0 0 0 0 0 0 0 0 0 0 0 0 0 0 0 0 0 0 0 0 0 0 0 0 0 0 0 0 0 0 0 0 0 0 0 0 0 0 0 0 0 0 0 0 0 0 0 0 0 0 0 0 0 0 0 0 0 0 0 0 0 0 0 0 0 0 0 0 0 0 0 0 0 0 0 0 0 0 0 0 0 0 0 0 0 0 0 0 0 0 0 0 0 0 0 0 0 0 0 0 0 0 0 0 0 0 0 0 0 0 0 0 0 0 0 0 0 0 0 0 0 0 0 0 0 0 0 0 0 0 0 0 0 0 0 0 0 0 0 0 0 0 0 0 0 0 0 0 0 0 0 0 0 0 0 0 0 0 0 0 0 0 0 0 0 0 0 0 0 0 0 0 0 0 0 0 0 0 0 0 0 0 0 0 0 0 0 0 0 0 0 0 0 0 0 0 0 0 0 0 0 0 0 0 0 0 0 0 0 0 0 0 0 0 0 0 0 0 0 0 0 0 0 0 0 0 0 0 0 0 0 0 0 0 0 0 0 0 0 0 0 0 0 0 0 0 0 0 0 0 0 0 0 0 0 0 0 0 0 0 0 0 0 0 0 0 0 0 0 0 0 0 0 0 0 0 0 0 0 0 0 0 0 0 0 0 0 0 0 0 0 0 0 0 0 0 0 0 0 0 0 0 0 0 0 0 0 0 0 0 0 0 0 0 0 0 0 0 0 0 0 0 0 0 0 0 0 0 0 0 0 0 0 0 0 0 0 0 0 0 0 0 0 0 0 0 0 0 0 0 0 0 0 0 0 0 0 0 0 0 0 0 0 0 0 0 0 0 0 0 0 0 0 0 0 0 0 0 0 0 0 0 0 0 0 0 0 0 0 0 0 0 0 0 0 0 0 0 0 0 0 0 0 0 0 0 0 0 0 0 0 0 0 0 0 0 0 0 0 0 0 0 0 0 0 0 0 0 0 0 0 0 0 0 0 0 0 0 0 0 0 0 0 0 0 0 0 0 0 0 0 0 0 0 0 0 0 0 0 0 0 0 0 0 0 0 0 0 0 0 0 0 0 0 0 0 0 0 0 0 0 0 0 0 0 0 0 0 0 0 0 0 0 0 0 0 0 0 0 0 0 0 0 0 0 0 0 0 0 0 0 0 0 0 0 0 0 0 0 0 0 0 0 0 0 0 0 0 0 0 0 0 0 0 0 0 0 0 0 0 0 0 0 0 0 0 0 0 0 0 0 0 0 0 0 0 0 0 0 0 0 0 0 0 0 0 0 0 0 0 0 0 0 0 0 0 0 0 0 0 0 0 0 0 0 0 0 0 0 0 0 0 0 0 0 0 0 0 0 0 0 0 0 0 0 0 0 0 0 0 0 0 0 0 0 0 0 0 0 0 0 0 0 0 0 0 0 0 0 0 0 0 0 0 0 0 0 0 0 0 0 0 0 0 0 0 0 0 0 0 0 0 0 0 0 0 0 0 0 0 0 0 0 0 0 0 0 0 0 0 0 0 0 0 0 0 0 0 0 0 0 0 0 0 0 0 0 0 0 0 0 0 0 0 0 0 0 0 0 0 0 0 0 0 0 0 0 0 0 0 0 0 0 0 0 0 0 0 0 0 0 0 0 0 0 0 0 0 0 0 0 0 0 0 0 0 0 0 0 0 0 0 0 0 0 0 0 0 0 0 0 0 0 0 0 0 0 0 0 0 0 0 0 0 0 0 0 0 0 0 0 0 0 0 0 0 0 0 0 0 0 0 0 0 0 0 0 0 0 0 0 0 0 0 0 0 0 0 0 0 0 0 0 0 0 0 0 0 0 0 0 0 0 0 0 0 0 0 0 0 0 0 0 0 0 0 0 0 0 0 0 0 0 0 0 0 0 0 0 0 0 0 0 0 0 0 0 0 0 0 0 0 0 0 0 0 0 0 0 0 0 0 0 0 0 0 0 0 0 0 0 0 0 0 0 0 0 0 0 0 0 0 0 0 0 0 0 0 0 0 0 0 0 0 0 0 0 0 0 0 0 0 0 0 0 0 0 0 0 0 0 0 0 0 0 0 0 0 0 0 0 0 0 0 0 0 0 0 0 0 0 0 0 0 0 0 0 0 0 0 0 0 0 0 0 0 0 0 0 0 0 0 0 0 0 0 0 0 0 0 0 0 0 0 0 0 0 0 0 0 0 0 0 0 0 0 0 0 0 0 0 0 0 0 0 0 0 0 0 0 0 0 0 0 0 0 0 0 0 0 0 0 0 0 0 0 0 0 0 0 0 0 0 0 0 0 0 0 0 0 0 0 0 0 0 0 0 0 0 0 0 0 0 0 0 0 0 0 0 0 0 0 0 0 0 0 0 0 0 0 0 0 0 0 0 0 0 0 0 0 0 0 0 0 0 0 0 0 0 0 0 0 0 0 0 0 0 0 0 0 0 0 0 0 0 0 0 0 0 0 0 0 0 0 0 0 0 0 0 0 0 0 0 0 0 0 0 0 0 0 0 0 0 0 0 0 0 0 0 0 0 0 0 0 0 0 0 0 0 0 0 0 0 0 0 0 0 0 0 0 0 0 0 0 0 0 0 0 0 0 0 0 0 0 0 0 0 0 0 0 0 0 0 0 0 0 0 0 0 0 0 0 0 0 0 0 0 0 0 0 0 0 0 0 0 0 0 0 0 0 0 0 0 0 0 0 0 0 0 0 0 0 0 0 0 0 0 0 0 0 0 0 0 0 0 0 0 0 0 0 0 0 0 0 0 0 0 0 0 0 0 0 0 0 0 0 0 0 0 0 0 0 0 0 0 0 0 0 0 0 0 0 0 0 0 0 0 0 0 0 0 0 0 0 0 0 0 0 0 0 0 0 0 0 0 0 0 0 0 0 0 0 0 0 0 0 0 0 0 0 0 0 0 0 0 0 0 0 0 0 0 0 0 0 0 0 0 0 0 0 0 0 0 0 0 0 0 0 0 0 0 0 0 0 0 0 0 0 0 0 0 0 0 0 0 0 0 0 0 0 0 0 0 0 0 0 0 0 0 0 0 0 0 0 0 0 0 0 0 0 0 0 0 0 0 0 0 0 0 0 0 0 0 0 0 0 0 0 0 0 0 0 0 0 0 0 0 0 0 0 0 0 0 0 0 0 0 0 0 0 0 0 0 0 0 0 0 0 0 0 0 0 0 0 0 0 0 0 0 0 0 0 0 0 0 0 0 0 0 0 0 0 0 0 0 0 0 0 0 0 0 0 0 0 0 0 0 0 0 0 0 0 0 0 0 0 0 0 0 0 0 0 0 0 0 0 0 0 0 0 0 0 0 0 0 0 0 0 0 0 0 0 0 0 0 0 0 0 0 0 0 0 0 0 0 0 0 0 0 0 0 0 0 0 0 0 0 0 0 0 0 0 0 0 0 0 0 0 0 0 0 0 0 0 0 0 0 0 0 0 0 0 0 0 0 0 0 0 0 0 0 0 0 0 0 0 0 0 0 0 0 0 0 0 0 0 0 0 0 0 0 0 0 0 0 0 0 0 0 0 0 0 0 0 0 0 0 0 0 0 0 0 0 0 0 0 0 0 0 0 0 0 0 0 0 0 0 0 0 0 0 0 0 0 0 0 0 0 0 0 0 0 0 0 0 0 0 0 0 0 0 0 0 0 0 0 0 0 0 0 0 0 0 0 0 0 0 0 0 0 0 0 0 0 0 0 0 0 0 0 0 0 0 0 0 0 0 0 0 0 0 0 0 0 0 0 0 0 0 0 0 0 0 0 0 0 0 0 0 0 0 0 0 0 0 0 0 0 0 0 0 0 0 0 0 0 0 0 0 0 0 0 0 0 0 0 0 0 0 0 0 0 0 0 0 0 0 0 0 0 0 0 0 0 0 0 0 0 0 0 0 0 0 0 0 0 0 0 0 0 0 0 0 0 0 0 0 0 0 0 0 0 0 0 0 0 0 0 0 0 0 0 0 0 0 0 0 0 0 0 0 0 0 0 0 0 0 0 0 0 0 0 0 0 0 0 0 0 0 0 0 0 0 0 0 0 0 0 0 0 0 0 0 0 0 0 0 0 0 0 0 0 0 0 0 0 0 0 0 0 0 0 0 0 0 0 0 0 0 0 0 0 0 0 0 0 0 0 0 0 0 0 0 0 0 0 0 0 0 0 0 0 0 0 0 0 0 0 0 0 0 0 0 0 0 0 0 0 0 0 0 0 0 0 0 0 0 0 0 0 0 0 0 0 0 0 0 0 0 0 0 0 0 0 0 0 0 0 0 0 0 0 0 0 0 0 0 0 0 0 0 0 0 0 0 0 0 0 0 0 0 0 0 0 0 0 0 0 0 0 0 0 0 0 0 0 0 0 0 0 0 0 0 0 0 0 0 0 0 0 0 0 0 0 0 0 0 0 0 0 0 0 0 0 0 0 0 0 0 0 0 0 0 0 0 0 0 0 0 0 0 0 0 0 0 0 0 0 0 0 0 0 0 0 0 0 0 0 0 0 0 0 0 0 0 0 0 0 0 0 0 0 0 0 0 0 0 0 0 0 0 0 0 0 0 0 0 0 0 0 0 0 0 0 0 0 0 0 0 0 0 0 0 0 0 0 0 0 0 0 0 0 0 0 0 0 0 0 0 0 0 0 0 0 0 0 0 0 0 0 0 0 0 0 0 0 0 0 0 0 0 0 0 0 0 0 0 0 0 0 0 0 0 0 0 0 0 0 0 0 0 0 0 0 0 0 0 0 0 0 0 0 0 0 0 0 0 0 0 0 0 0 0 0 0 0 0 0 0 0 0 0 0 0 0 0 0 0 0 0 0 0 0 0 0 0 0 0 0 0 0 0 0 0 0 0 0 0 0 0 0 0 0 0 0 0 0 0 0 0 0 0 0 0 0 0 0 0 0 0 0 0 0 0 0 0 0 0 0 0 0 0 0 0 0 0 0 0 0 0 0 0 0 0 0 0 0 0 0 0 0 0 0 0 0 0 0 0 0 0 0 0 0 0 0 0 0 0 0 0 0 0 0 0 0 0 0 0 0 0 0 0 0 0 0 0 0 0 0 0 0 0 0 0 0 0 0 0 0 0 0 0 0 0 0 0 0 0 0 0 0 0 0 0 0 0 0 0 0 0 0 0 0 0 0 0 0 0 0 0 0 0 0 0 0 0 0 0 0 0 0 0 0 0 0 0 0 0 0 0 0 0 0 0 0 0 0 0 0 0 0 0 0 0 0 0 0 0 0 0 0 0 0 0 0 0 0 0 0 0 0 0 0 0 0 0 0 0 0 0 0 0 0 0 0 0 0 0 0 0 0 0 0 0 0 0 0 0 0 0 0 0 0 0 0 0 0 0 0 0 0 0 0 0 0 0 0 0 0 0 0 0 0 0 0 0 0 0 0 0 0 0 0 0 0 0 0 0 0 0 0 0 0 0 0 0 0 0 0 0 0 0 0 0 0 0 0 0 0 0 0 0 0 0 0 0 0 0 0 0 0 0 0 0 0 0 0 0 0 0 0 0 0 0 0 0 0 0 0 0 0 0 0 0 0 0 0 0 0 0 0 0 0 0 0 0 0 0 0 0 0 0 0 0 0 0 0 0 0 0 0 0 0 0 0 0 0 0 0 0 0 0 0 0 0 0 0 0 0 0 0 0 0 0 0 0 0 0 0 0 0 0 0 0 0 0 0 0 0 0 0 0 0 0 0 0 0 0 0 0 0 0 0 0 0 0 0 0 0 0 0 0 0 0 0 0 0 0 0 0 0 0 0 0 0 0 0 0 0 0 0 0 0 0 0 0 0 0 0 0 0 0 0 0 0 0 0 0 0 0 0 0 0 0 0 0 0 0 0 0 0 0 0 0 0 0 0 0 0 0 0 0 0 0 0 0 0 0 0 0 0 0 0 0 0 0 0 0 0 0 0 0 0 0 0 0 0 0 0 0 0 0 0 0 0 0 0 0 0 0 0 0 0 0 0 0 0 0 0 0 0 0 0 0 0 0 0 0 0 0 0 0 0 0 0 0 0 0 0 0 0 0 0 0 0 0 0 0 0 0 0 0 0 0 0 0 0 0 0 0 0 0 0 0 0 0 0 0 0 0 0 0 0 0 0 0 0 0 0 0 0 0 0 0 0 0 0 0 0 0 0 0 0 0 0 0 0 0 0 0 0 0 0 0 0 0 0 0 0 0 0 0 0 0 0 0 0 0 0 0 0 0 0 0 0 0 0 0 0 0 0 0 0 0 0 0 0 0 0 0 0 0 0 0 0 0 0 0 0 0 0 0 0 0 0 0 0 0 0 0 0 0 0 0 0 0 0 0 0 0 0 0 0 0 0 0 0 0 0 0 0 0 0 0 0 0 0 0 0 0 0 0 0 0 0 0 0 0 0 0 0 0 0 0 0 0 0 0 0 0 0 0 0 0 0 0 0 0 0 0 0 0 0 0 0 0 0 0 0 0 0 0 0 0 0 0 0 0 0 0 0 0 0 0 0 0 0 0 0 0 0 0 0 0 0 0 0 0 0 0 0 0 0 0 0 0 0 0 0 0 0 0 0 0 0 0 0 0 0 0 0 0 0 0 0 0 0 0 0 0 0 0 0 0 0 0 0 0 0 0 0 0 0 0 0 0 0 0 0 0 0 0 0 0 0 0 0 0 0 0 0 0 0 0 0 0 0 0 0 0 0 0 0 0 0 0 0 0 0 0 0 0 0 0 0 0 0 0 0 0 0 0 0 0 0 0 0 0 0 0 0 0 0 0 0 0 0 0 0 0 0 0 0 0 0 0 0 0 0 0 0 0 0 0 0 0 0 0 0 0 0 0 0 0 0 0 0 0 0 0 0 0 0 0 0 0 0 0 0 0 0 0 0 0 0 0 0 0 0 0 0 0 0 0 0 0 0 0 0 0 0 0 0 0 0 0 0 0 0 0 0 0 0 0 0 0 0 0 0 0 0 0 0 0 0 0 0 0 0 0 0 0 0 0 0 0 0 0 0 0 0 0 0 0 0 0 0 0 0 0 0 0 0 0 0 0 0 0 0 0 0 0 0 0 0 0 0 0 0 0 0 0 0 0 0 0 0 0 0 0 0 0 0 0 0 0 0 0 0 0 0 0 0 0 0 0 0 0 0 0 0 0 0 0 0 0 0 0 0 0 0 0 0 0 0 0 0 0 0 0 0 0 0 0 0 0 0 0 0 0 0 0 0 0 0 0 0 0 0 0 0 0 0 0 0 0 0 0 0 0 0 0 0 0 0 0 0 0 0 0 0 0 0 0 0 0 0 0 0 0 0 0 0 0 0 0 