P2
149 129
255
0 0 0 0 0 0 0 0 0 0 0 0 0 0 0 0 0 0 0 0 0 0 0 0 0 0 0 0 0 0 0 0 0 0 0 0 0 0 0 0 0 0 0 0 0 0 0 0 0 0 0 0 0 0 0 0 0 0 0 0 0 0 0 0 0 0 0 0 0 0 0 0 0 0 0 0 0 0 0 0 0 0 0 0 0 0 0 0 0 0 0 0 0 0 0 0 0 0 0 0 0 0 0 0 0 0 0 0 0 0 0 0 0 0 0 0 0 0 0 0 0 0 0 0 0 0 0 0 0 0 0 0 0 0 0 0 0 0 0 0 0 0 0 0 0 0 0 0 0 0 0 0 0 0 0 0 0 0 0 0 0 0 0 0 0 0 0 0 0 0 0 0 0 0 0 0 0 0 0 0 0 0 0 0 0 0 0 0 0 0 0 0 0 0 0 0 0 0 0 0 0 0 0 0 0 0 0 0 0 0 0 0 0 0 0 0 0 0 0 0 0 0 0 0 0 0 0 0 0 0 0 0 0 0 0 0 0 0 0 0 0 0 0 0 0 0 0 0 0 0 0 0 0 0 0 0 0 0 0 0 0 0 0 0 0 0 0 0 0 0 0 0 0 0 0 0 0 0 0 0 0 0 0 0 0 0 0 0 0 0 0 0 0 0 0 0 0 0 44 116 99 72 35 120 98 92 38 112 98 93 67 113 106 107 80 104 106 93 84 114 109 138 104 110 93 96 94 176 174 210 199 205 215 154 232 220 206 240 213 232 243 205 243 242 211 250 238 225 253 232 235 252 222 241 250 213 247 246 219 251 239 226 253 233 239 255 225 249 250 207 253 227 239 246 198 252 213 228 228 227 224 229 237 215 240 226 238 223 232 190 208 165 153 175 173 181 120 164 127 114 156 124 153 108 127 141 146 133 106 143 139 122 132 37 92 83 104 133 107 86 100 125 118 102 106 129 119 57 49 96 112 96 89 121 109 88 67 104 114 88 58 111 107 106 83 82 93 91 108 114 81 84 117 99 82 87 114 112 58 104 114 103 64 83 114 112 57 117 111 37 107 116 125 91 75 104 153 166 176 176 190 184 183 203 198 204 212 203 214 216 199 225 215 210 228 216 217 229 218 221 230 209 226 227 199 228 226 198 230 222 211 230 219 228 232 218 234 230 221 232 215 229 226 218 234 214 219 207 203 204 222 227 186 222 198 219 204 200 197 155 166 173 128 143 141 118 135 147 135 133 92 145 97 90 144 99 109 64 120 141 116 112 97 115 116 107 108 117 54 109 119 112 96 91 124 119 69 85 103 98 63 63 127 103 48 120 118 120 83 95 118 106 64 107 104 112 71 50 109 80 79 98 85 36 68 92 101 55 102 87 77 83 42 106 89 66 97 62 86 63 66 114 35 77 105 91 108 54 102 146 90 157 72 94 151 72 110 137 112 109 145 128 125 131 129 156 124 138 168 131 114 163 136 137 149 138 151 136 144 154 89 157 172 120 91 158 154 172 133 136 177 147 186 147 160 156 156 155 156 185 166 182 157 175 153 169 139 143 131 146 119 107 59 92 35 117 91 125 106 56 114 92 101 97 91 73 54 66 118 87 87 89 82 105 111 85 108 91 83 90 80 47 88 101 88 73 94 87 45 66 63 107 84 82 106 95 107 64 74 103 67 42 96 80 109 40 47 81 59 39 76 53 38 30 55 77 33 73 63 22 80 56 80 15 66 9 71 60 68 40 60 66 47 77 28 45 48 67 76 68 100 65 89 28 62 75 65 87 113 102 95 122 105 66 103 67 101 116 93 109 69 105 105 100 89 125 107 87 117 112 92 72 88 123 111 96 117 107 140 109 105 112 97 141 112 86 83 93 117 101 128 115 132 110 118 87 69 50 68 25 92 54 63 73 61 77 70 95 81 62 76 81 67 53 37 36 83 60 64 69 27 81 84 98 34 74 51 72 71 70 87 84 50 41 82 95 71 27 72 60 40 74 62 59 60 77 52 42 75 81 75 67 59 71 60 52 34 68 23 71 36 5 58 25 30 52 37 64 54 59 73 65 50 85 19 67 63 39 86 48 86 48 75 19 32 70 82 82 56 69 58 78 71 71 65 100 91 97 59 98 65 69 78 89 82 77 91 79 97 80 69 101 58 73 77 29 97 115 87 33 81 90 92 94 69 96 67 88 75 77 113 90 88 87 67 103 75 89 109 106 85 106 84 109 63 99 12 62 67 85 69 81 69 62 60 40 61 38 51 1 51 49 32 26 40 58 9 67 68 33 71 54 73 41 84 57 58 66 78 87 78 48 57 56 80 64 8 41 45 63 78 54 44 68 38 41 59 56 88 65 66 20 74 50 51 32 72 46 51 27 4 54 16 31 68 54 53 53 51 57 65 70 52 41 27 49 52 69 40 93 19 72 34 49 48 57 66 74 84 24 43 70 68 74 81 86 54 63 54 22 42 52 58 63 63 38 63 70 80 78 83 74 57 60 45 65 82 30 60 98 72 52 89 41 75 64 72 52 64 41 36 48 73 88 99 91 64 92 87 55 86 91 85 106 74 69 69 54 62 64 76 72 40 66 46 51 27 42 43 49 21 61 50 42 49 56 68 42 8 57 64 59 66 71 48 76 54 70 83 28 22 72 44 38 78 19 47 57 77 67 80 10 36 28 35 45 45 87 50 51 37 55 25 51 27 23 72 39 55 21 36 21 43 13 1 47 32 17 55 64 113 75 42 65 53 65 45 79 70 38 54 53 42 22 37 56 67 50 68 31 83 61 59 89 52 76 77 74 78 72 48 49 76 61 79 40 52 102 47 77 85 34 88 84 1 73 69 81 85 39 80 96 33 69 77 53 89 29 70 76 51 104 53 107 71 75 102 87 26 92 64 89 104 46 92 46 63 25 44 49 56 22 62 47 38 36 42 48 24 23 26 49 17 12 31 14 28 23 57 86 77 66 49 20 73 0 49 88 44 56 56 2 82 39 50 30 51 57 68 65 60 52 39 30 20 46 69 51 36 22 69 33 37 57 35 10 32 46 15 37 29 33 53 55 13 14 48 69 77 113 84 48 61 68 51 64 48 59 11 24 29 47 61 61 43 30 99 22 73 106 37 88 85 15 86 75 77 98 48 19 106 69 41 97 43 87 108 51 83 63 61 106 71 22 115 61 86 117 57 93 98 47 104 63 101 98 2 110 69 97 90 95 114 37 105 94 118 87 119 96 120 81 107 81 59 61 7 25 8 5 40 36 36 57 39 45 57 30 26 41 45 61 25 30 44 37 27 58 74 61 68 27 31 77 55 57 86 87 46 43 24 63 57 85 64 28 72 60 49 74 53 55 57 27 29 47 13 29 61 67 26 22 39 36 46 43 13 50 21 12 37 36 29 27 13 52 61 84 68 66 44 6 63 44 61 21 64 45 14 18 48 65 6 35 59 102 59 60 106 57 84 78 74 107 83 22 108 61 47 112 47 54 101 36 105 104 89 104 80 58 130 83 60 123 64 42 117 58 117 92 86 117 58 101 98 76 125 64 115 79 95 111 97 127 86 143 75 133 98 132 93 126 96 48 61 47 50 33 48 22 46 46 42 15 17 45 13 39 37 73 50 13 41 10 56 28 55 60 72 56 7 47 94 74 80 95 102 25 69 52 77 97 85 38 61 80 47 24 67 25 62 52 30 10 27 57 22 59 29 1 18 0 38 17 39 39 38 3 3 35 19 39 23 20 42 23 80 65 25 30 22 64 24 33 56 4 67 52 31 76 62 54 66 51 126 117 16 129 113 92 119 108 132 128 106 140 143 102 150 148 113 143 138 90 151 150 141 131 119 162 149 129 154 152 118 142 147 142 127 125 146 136 138 140 140 147 145 156 152 155 130 139 154 113 163 106 147 94 127 106 114 99 41 76 33 69 37 63 53 50 68 41 37 2 37 3 52 42 55 19 32 24 37 39 11 68 71 68 36 28 65 94 68 53 88 94 18 66 46 66 83 49 31 57 58 50 0 46 8 29 5 7 29 22 65 31 36 7 6 25 5 15 54 17 25 16 31 30 43 18 21 28 19 38 1 61 35 58 43 41 59 52 5 32 36 74 74 50 128 120 112 134 102 151 164 99 166 145 70 170 141 138 178 137 162 178 132 177 176 147 176 166 154 191 178 158 176 154 166 186 165 181 184 153 176 175 134 174 146 172 170 136 171 159 174 170 172 179 159 153 158 164 137 160 145 146 108 111 87 5 81 4 73 62 51 53 69 4 52 55 51 45 14 28 15 43 21 26 14 41 32 17 1 6 76 78 58 44 38 59 50 64 55 63 55 53 37 43 20 19 44 37 57 21 48 11 4 2 19 12 32 14 12 61 6 20 8 16 7 46 13 43 40 24 35 26 37 33 5 13 3 6 27 6 52 13 33 42 54 97 73 20 49 63 50 74 73 144 143 124 151 135 173 172 129 179 142 130 181 144 157 180 139 169 168 131 186 147 135 182 146 116 190 166 102 173 145 167 162 154 182 167 133 182 165 144 167 132 179 152 140 168 141 181 151 130 145 155 146 127 153 120 144 123 138 100 102 58 47 72 37 16 17 22 42 55 34 59 11 32 37 15 11 38 2 5 28 51 31 1 8 6 4 68 38 48 33 34 61 64 52 43 75 31 66 29 44 25 41 59 34 54 1 53 18 30 12 49 45 39 17 25 54 26 23 33 48 42 43 42 11 44 54 42 32 22 29 14 5 9 3 14 14 54 14 23 15 46 116 90 42 28 75 52 67 60 145 107 103 133 119 175 128 110 179 97 136 169 119 153 157 113 166 120 98 185 107 91 179 109 115 169 125 142 154 115 174 133 113 174 103 111 171 124 148 149 113 175 115 120 165 122 180 109 150 141 93 160 83 163 99 161 83 150 74 122 92 69 17 50 44 40 42 17 18 47 43 43 47 49 16 12 39 24 41 56 57 16 27 36 18 36 82 83 71 35 20 64 55 31 50 63 21 40 13 33 2 52 33 14 47 19 41 32 28 39 41 34 31 15 12 45 52 32 11 43 56 5 13 9 27 49 21 29 25 14 26 20 30 10 8 1 58 42 19 14 7 126 109 76 61 23 53 28 35 134 62 99 107 56 171 94 67 175 134 110 158 120 161 153 85 166 123 64 186 132 82 182 129 87 169 107 150 162 94 174 139 62 179 102 104 168 111 152 160 99 170 105 122 184 123 184 144 151 169 127 178 120 176 139 178 141 153 118 146 129 82 75 68 56 47 32 20 11 6 41 23 18 57 6 13 30 32 33 26 19 12 4 26 2 38 75 31 75 19 58 39 34 81 76 46 59 21 46 33 3 53 65 0 56 42 31 32 35 30 14 11 15 24 26 9 61 31 19 23 37 13 16 2 18 29 4 11 14 4 26 17 37 22 7 20 35 35 17 21 67 120 115 74 52 36 33 14 36 124 64 61 104 8 163 132 88 172 119 57 159 89 155 171 92 166 156 80 186 150 118 182 126 117 173 72 150 178 57 163 165 96 179 137 101 164 118 148 172 107 170 140 122 185 116 177 164 125 173 87 178 138 175 150 173 149 152 127 143 131 90 63 36 35 35 15 28 50 46 62 36 26 32 30 13 7 8 19 35 19 3 22 2 18 17 67 42 61 51 86 73 44 84 86 88 91 53 70 55 29 62 85 65 70 52 44 22 59 14 2 3 5 35 9 19 45 16 25 34 10 29 4 7 32 12 2 10 7 5 25 1 38 20 11 27 14 25 3 16 31 115 104 71 68 20 31 15 8 113 71 76 87 61 152 136 80 156 104 107 141 82 141 152 64 155 139 87 177 154 112 163 127 101 155 101 143 159 113 150 153 110 165 141 95 146 115 122 146 68 162 143 124 160 78 156 143 140 147 111 151 88 147 102 142 120 132 95 106 90 37 36 57 43 2 29 0 52 15 35 32 10 5 19 15 6 3 18 18 11 6 32 15 4 25 68 55 64 32 75 82 31 42 61 83 93 66 61 48 29 62 79 72 44 17 20 51 56 29 34 4 3 36 26 35 3 6 15 27 26 25 12 12 41 8 0 15 29 10 24 15 43 4 30 4 36 7 7 20 49 87 57 59 57 23 30 3 22 89 56 11 52 62 139 104 76 127 88 62 102 46 137 67 58 149 97 68 158 125 97 136 103 108 121 88 139 83 68 136 95 97 147 120 81 116 91 119 94 88 140 111 81 105 65 137 102 122 49 101 89 70 113 61 73 83 81 66 54 58 30 6 27 37 7 36 15 20 13 16 14 17 10 2 23 10 1 12 29 17 3 21 29 5 35 62 7 8 36 55 65 12 16 15 63 62 41 26 21 11 37 42 38 22 22 30 20 41 44 39 1 9 29 35 26 1 26 20 9 36 5 2 13 38 9 28 7 29 0 26 25 22 16 37 8 40 6 11 22 45 79 43 20 6 32 27 22 9 68 32 7 50 47 132 84 23 123 9 78 119 85 126 127 53 139 103 48 143 79 66 130 46 111 142 97 131 127 67 98 116 95 139 102 61 114 68 97 129 70 126 81 95 117 85 130 85 85 116 67 115 69 110 28 121 56 74 57 75 31 62 26 19 9 25 32 21 23 42 26 30 32 2 11 13 19 15 5 41 32 15 17 6 19 48 64 37 32 51 60 36 18 21 7 48 29 36 41 8 8 7 14 55 29 31 36 0 48 27 20 20 17 20 32 18 15 47 27 16 10 14 7 0 35 21 26 14 18 15 16 11 6 21 16 29 30 8 8 24 37 58 17 32 26 12 27 23 0 69 58 47 70 23 125 98 18 113 69 63 105 84 109 118 51 127 97 58 127 34 52 109 47 83 132 98 89 111 23 99 69 89 125 81 76 105 66 95 117 71 110 34 78 95 79 117 68 108 112 69 105 42 98 56 122 93 104 93 76 37 52 5 28 30 36 21 15 31 45 28 40 26 0 16 0 33 2 33 31 26 4 31 26 3 44 63 26 15 58 52 63 43 22 20 55 25 42 63 47 35 49 33 47 36 32 25 16 46 7 3 25 22 16 10 2 21 48 12 22 25 4 6 20 31 25 17 1 13 31 7 6 5 25 11 33 32 34 13 9 25 51 51 40 29 10 25 13 16 68 54 29 27 45 107 98 36 90 61 69 52 59 98 89 51 110 91 47 105 85 60 55 18 66 81 67 102 97 25 95 82 60 102 66 60 80 30 75 81 45 89 73 53 38 57 102 82 88 82 81 50 78 60 88 85 91 97 89 18 37 38 6 20 23 2 16 34 4 30 22 26 11 0 16 11 17 28 9 21 20 18 8 17 14 22 72 55 30 41 27 68 29 36 52 69 7 28 37 46 32 48 39 20 8 9 22 26 32 3 18 36 34 6 9 0 2 14 33 4 18 15 5 26 17 20 18 2 16 26 4 16 19 38 18 22 31 31 5 12 30 45 41 17 20 21 20 22 12 59 33 44 55 39 90 85 56 85 75 65 68 57 99 87 80 105 91 72 98 94 63 80 76 92 95 80 98 97 76 102 96 67 91 85 56 65 32 54 38 50 84 77 83 83 82 94 85 92 76 16 68 61 66 84 71 85 57 66 56 47 20 6 4 6 19 2 39 15 24 21 8 5 10 10 11 10 18 2 7 14 4 19 3 15 9 69 37 17 46 41 32 41 66 65 66 3 21 33 23 5 19 6 3 13 5 26 22 9 15 24 15 40 5 14 3 23 2 30 8 12 7 9 18 10 22 21 12 16 8 15 28 19 32 38 6 21 18 22 1 23 56 44 33 5 12 22 7 15 44 14 37 14 3 91 89 68 87 83 62 56 41 83 64 62 103 93 84 112 102 81 91 88 49 93 77 93 64 39 100 87 65 99 83 79 39 33 62 38 23 81 81 76 62 61 82 84 94 62 28 77 99 96 103 90 89 60 61 57 33 7 12 10 16 32 31 14 1 18 12 19 15 11 1 3 15 7 19 16 12 3 15 12 22 1 63 57 79 53 72 68 75 59 73 38 48 38 41 34 5 14 28 7 36 24 14 24 11 21 21 27 18 1 26 17 18 36 9 8 24 15 0 26 0 22 16 13 8 5 10 24 19 16 40 7 4 28 28 2 23 78 47 42 8 34 20 18 4 37 54 57 49 55 89 108 95 110 112 90 99 98 99 124 112 115 126 110 117 129 110 101 113 103 134 129 115 128 125 110 114 98 113 111 83 85 91 51 63 55 84 97 72 89 88 70 96 73 104 84 102 84 101 92 87 76 58 28 48 40 8 21 18 13 42 40 24 10 23 20 28 4 15 2 7 10 20 34 18 14 8 1 12 18 14 76 93 76 52 98 95 105 92 123 45 85 54 66 76 42 54 31 19 33 10 25 35 8 6 5 26 4 19 33 10 7 44 20 3 17 40 38 36 3 22 21 24 13 5 12 5 12 22 44 19 4 35 23 11 58 101 64 36 39 40 13 44 1 12 53 37 34 54 73 106 85 97 106 62 97 86 73 125 102 100 128 94 87 130 91 79 115 92 136 127 64 135 127 116 132 99 101 115 86 95 88 65 87 43 77 94 74 96 81 76 74 24 97 70 98 83 100 86 79 73 76 18 36 32 12 20 7 36 42 41 27 8 32 35 17 11 18 23 21 13 41 3 25 21 13 3 7 4 13 94 81 121 80 83 3 114 100 123 47 55 77 57 90 24 60 39 22 44 36 32 9 21 17 6 1 9 12 24 4 12 22 12 12 7 15 49 24 4 18 23 24 19 20 1 20 17 37 30 23 24 35 10 24 51 112 84 48 42 24 19 62 40 22 48 12 29 17 46 65 27 40 59 13 77 4 35 91 47 59 86 15 60 86 46 60 69 56 104 78 44 104 92 53 102 67 52 80 45 70 40 41 81 29 47 43 42 92 58 64 60 69 106 74 111 91 124 97 109 107 76 78 58 35 27 16 12 36 32 48 25 8 13 18 23 17 21 24 38 7 43 27 24 23 4 16 5 8 37 99 130 147 69 106 109 127 101 100 131 86 91 51 98 74 60 87 79 64 38 20 13 23 29 12 23 33 9 22 2 13 1 5 23 19 22 32 20 28 28 17 1 29 27 3 32 29 24 14 16 36 22 6 26 36 105 80 67 50 68 13 56 28 40 52 48 35 2 42 30 4 46 25 3 36 41 18 35 33 45 2 31 62 17 62 58 15 58 85 35 47 66 39 67 40 40 85 21 36 79 6 33 78 38 84 60 56 104 14 84 83 95 118 82 124 54 128 86 117 109 62 83 78 37 19 44 28 30 26 48 39 17 16 29 21 27 19 27 43 5 20 4 0 7 20 19 10 10 30 98 89 145 109 132 117 139 139 133 139 93 88 69 101 106 101 88 87 51 60 46 1 2 32 14 16 23 4 22 15 26 4 19 9 30 33 6 33 28 33 39 37 42 36 4 2 5 22 2 19 42 15 19 11 37 89 66 53 67 50 43 19 12 48 28 38 23 8 65 57 21 61 19 17 36 50 53 48 43 86 42 36 82 45 47 84 44 58 103 16 94 75 54 63 55 68 100 22 38 96 57 79 81 61 91 47 82 104 27 108 66 90 89 56 115 47 113 20 107 59 80 36 58 30 37 52 45 7 6 36 47 21 23 22 19 40 29 30 40 29 7 11 10 22 47 24 15 26 8 100 98 113 114 112 121 127 141 105 102 62 73 64 94 76 82 38 58 52 49 32 25 1 35 22 39 9 8 0 23 9 10 24 23 19 15 35 35 19 23 49 41 37 36 24 17 0 37 8 43 60 7 13 35 51 54 7 45 15 51 48 23 11 65 3 47 47 15 89 84 49 92 18 62 84 26 42 70 19 91 56 47 96 33 52 98 59 72 112 60 102 96 77 87 82 67 97 53 39 107 52 65 73 48 104 43 0 95 11 116 50 89 82 58 94 39 106 12 98 55 60 23 14 24 41 23 40 46 35 30 45 10 13 0 21 34 51 10 53 47 28 22 49 16 43 41 16 44 14 69 76 70 92 91 87 90 112 61 90 30 59 34 52 55 38 13 40 43 8 8 29 16 15 30 27 30 32 26 15 17 3 23 35 44 12 34 14 12 26 23 8 16 43 10 22 3 21 8 51 62 13 9 50 37 93 67 43 23 53 46 16 37 75 50 54 76 13 102 91 68 110 74 57 100 54 52 92 40 86 75 51 96 65 66 97 65 77 119 77 101 103 83 89 83 50 80 4 37 107 47 71 82 38 113 58 65 107 62 118 86 82 96 63 118 91 118 80 109 91 95 67 52 49 58 25 30 53 22 27 3 29 27 13 14 24 18 25 43 33 44 8 49 41 32 33 10 37 0 67 80 99 87 83 70 125 116 112 112 81 24 26 43 64 53 31 41 31 12 4 22 27 24 1 7 39 20 17 27 27 32 30 11 32 18 23 3 24 30 9 37 40 46 22 20 8 32 32 43 47 28 33 39 46 91 63 41 44 35 33 26 16 66 55 33 76 48 98 48 63 111 78 57 96 34 68 75 73 98 7 50 83 62 34 94 63 54 121 74 89 89 78 81 71 35 60 5 46 101 66 69 80 62 110 43 28 113 76 105 69 104 97 62 116 84 117 75 112 78 87 54 78 47 68 47 32 21 53 38 38 41 27 8 21 49 45 27 21 9 55 0 37 34 24 34 22 18 39 51 78 92 31 78 101 129 106 110 84 77 55 35 61 75 17 31 23 19 31 15 19 18 13 14 36 20 38 14 25 2 25 10 18 15 16 9 14 17 32 4 41 41 50 14 28 39 52 34 43 26 28 27 51 24 79 46 43 10 24 22 20 50 42 19 38 78 57 77 87 77 107 85 68 94 46 63 103 90 103 86 62 33 84 29 89 77 72 124 94 109 107 90 107 87 28 75 69 62 96 75 73 88 66 91 74 49 120 86 84 104 88 116 86 112 101 99 100 103 80 82 81 64 38 70 56 41 41 58 39 36 51 11 1 37 38 39 16 30 19 63 17 34 46 53 61 23 19 25 49 60 64 8 39 96 91 60 69 13 31 55 43 46 52 12 36 12 49 41 33 26 7 30 0 56 17 39 8 33 32 26 7 41 24 25 5 14 12 23 12 14 15 38 44 6 40 30 3 33 23 23 9 45 40 46 39 36 2 51 22 32 47 3 26 43 63 50 34 94 74 85 76 73 78 54 7 101 87 79 71 70 72 84 13 70 77 77 105 89 100 93 86 94 86 45 47 71 48 84 65 50 66 63 48 65 70 102 86 88 99 90 104 91 76 85 99 99 71 77 81 80 21 31 57 49 53 32 58 29 39 29 21 12 38 23 23 34 34 23 51 30 14 40 50 53 0 15 44 46 54 21 63 50 61 67 77 39 35 23 34 12 24 3 23 26 30 48 18 26 17 18 29 6 55 9 18 7 27 27 27 0 22 38 21 15 11 17 27 37 22 26 12 22 22 8 15 6 19 17 39 33 2 19 25 33 25 4 56 29 24 8 15 18 59 52 23 38 63 36 51 40 60 67 38 24 77 59 54 58 3 31 24 43 72 18 65 89 59 91 56 28 76 79 25 65 20 8 72 10 47 54 48 61 20 40 52 48 57 2 36 72 4 66 61 99 48 63 56 50 52 57 32 49 25 46 13 47 12 33 14 19 18 38 35 31 8 47 5 22 36 2 18 33 35 13 26 35 6 46 65 54 41 68 70 67 19 22 30 56 48 41 11 36 1 36 28 28 33 17 26 7 32 44 27 15 23 5 34 23 13 23 37 21 13 22 15 26 41 0 20 18 6 34 9 16 5 3 24 42 27 3 27 36 56 4 26 59 16 11 2 38 15 32 52 12 60 54 4 79 32 68 67 22 48 65 41 31 49 56 74 55 39 77 34 42 91 31 67 38 9 81 42 63 78 28 49 68 32 57 67 49 51 14 26 43 50 76 25 58 81 52 86 10 95 30 71 48 36 53 56 27 71 12 44 13 21 24 14 32 28 17 11 24 11 6 22 28 9 10 12 18 41 15 14 41 18 37 60 88 20 55 70 82 88 75 36 65 56 41 31 34 22 9 36 24 40 50 21 32 21 34 15 47 24 24 3 43 17 29 16 25 22 23 5 34 0 38 24 0 21 15 28 14 22 18 0 27 24 5 25 31 56 60 7 49 50 21 2 3 38 23 5 39 11 76 14 40 71 39 65 62 27 58 61 24 60 62 47 70 3 16 68 12 22 91 18 55 41 23 75 59 52 68 28 35 73 2 3 60 35 55 43 10 52 34 72 34 65 84 51 91 45 86 35 77 2 45 49 61 26 79 35 50 28 13 15 4 10 18 26 20 20 27 3 6 16 9 11 29 27 45 4 22 22 14 56 27 78 30 35 61 71 69 83 57 75 66 58 25 28 16 23 35 15 9 38 31 8 13 30 22 46 23 4 1 31 8 21 11 30 11 17 17 16 3 13 26 0 10 15 17 37 42 13 11 15 19 21 28 13 54 24 20 22 19 35 5 15 15 47 0 28 10 73 46 20 54 17 7 28 44 48 56 51 54 32 20 32 46 8 27 44 25 72 45 64 32 17 68 53 29 81 22 52 56 30 46 7 17 70 34 35 53 37 63 43 47 71 31 82 26 70 31 63 40 35 20 46 43 61 8 49 49 18 21 10 15 15 11 13 37 39 32 31 5 6 12 13 20 43 11 23 4 24 46 38 32 50 55 41 5 62 60 59 77 40 81 42 5 30 29 28 10 22 40 17 28 4 26 30 17 16 35 14 8 7 21 2 39 26 17 9 11 10 8 13 3 1 23 13 48 44 20 2 17 31 9 20 5 36 10 37 19 41 49 5 25 15 56 17 37 28 39 37 44 58 45 27 27 57 34 42 45 42 40 17 35 11 54 17 49 74 14 77 74 53 51 55 39 29 74 37 71 53 31 60 46 30 56 32 47 54 40 45 30 65 62 61 76 22 60 51 35 38 47 14 40 33 22 30 22 54 2 24 15 34 3 12 27 41 35 52 10 29 3 4 5 23 41 19 3 16 1 30 33 34 48 61 19 56 69 16 57 60 31 70 37 33 39 24 14 17 22 45 27 31 6 13 10 10 38 35 16 9 18 22 27 10 41 35 29 16 30 19 2 13 14 4 43 32 51 25 5 37 7 30 9 14 3 45 48 30 45 49 32 13 31 64 36 47 56 49 74 36 78 71 35 66 56 62 76 38 32 61 21 67 59 58 48 49 57 75 87 64 29 37 58 66 8 65 59 48 64 20 47 24 26 42 48 19 71 45 16 70 58 62 73 31 58 13 46 50 25 31 0 24 10 25 16 11 46 27 12 41 33 3 16 52 33 20 34 5 21 20 25 26 36 34 39 39 25 23 14 46 53 26 66 44 77 60 3 33 25 33 49 33 48 43 15 23 41 15 30 36 46 32 14 3 16 17 16 38 13 37 25 45 28 15 23 36 24 26 34 31 5 38 21 39 43 48 24 16 30 39 28 3 9 25 47 44 36 26 33 51 24 35 61 46 23 47 70 62 10 82 67 65 78 53 83 83 29 33 61 42 77 59 48 73 21 48 72 83 63 35 33 57 63 27 40 58 18 29 47 33 26 12 60 27 43 61 56 55 60 41 46 41 20 47 36 32 51 41 22 26 45 19 15 14 24 36 43 6 28 8 31 14 46 24 42 20 12 4 3 34 32 51 17 26 59 56 20 16 47 70 59 56 44 66 30 10 16 18 34 33 37 48 37 1 21 50 20 22 47 71 10 8 22 18 6 31 37 17 48 22 25 30 15 13 39 36 32 55 34 30 24 12 15 44 37 39 0 19 40 9 8 30 45 32 23 13 43 29 36 39 2 17 30 33 12 80 22 21 60 56 71 71 52 75 48 41 56 62 33 65 40 34 47 56 28 5 54 60 26 41 36 25 19 19 56 32 37 47 28 31 21 53 30 33 26 37 68 37 21 37 30 6 34 25 28 49 19 44 12 41 29 0 0 28 10 40 18 4 21 42 41 19 18 36 9 30 16 15 32 33 55 41 38 45 30 26 29 51 39 44 62 41 49 38 55 36 30 45 22 37 49 9 27 0 41 13 17 16 59 44 11 21 3 6 49 12 29 44 32 13 22 30 18 5 35 33 47 14 39 10 12 18 7 20 37 6 26 37 17 9 36 22 2 18 28 23 43 14 31 20 41 45 17 33 78 37 15 40 36 56 58 32 37 34 34 43 51 1 51 17 10 41 42 40 50 16 21 42 24 53 43 39 11 43 11 52 22 1 21 24 43 34 7 2 49 67 9 30 15 35 33 29 7 36 49 1 39 9 18 28 15 24 17 8 37 6 2 18 14 43 27 35 2 45 29 3 18 17 26 48 18 49 44 13 24 20 48 51 50 56 29 50 48 74 35 35 41 20 29 34 9 34 0 18 10 11 3 2 49 10 4 32 44 33 11 18 38 15 9 17 25 28 28 18 7 29 21 20 10 36 44 0 23 4 18 13 39 29 19 11 1 29 7 8 15 22 0 22 26 42 42 6 22 58 14 29 49 36 5 57 20 41 44 20 3 52 20 46 18 14 31 3 41 60 40 26 48 41 21 38 43 6 15 38 21 16 51 32 32 37 11 28 31 25 29 45 34 32 10 48 18 11 41 18 12 26 10 13 37 34 13 2 22 31 4 14 12 1 27 1 3 14 23 17 16 25 10 14 18 12 13 38 4 21 43 5 33 41 47 54 36 24 43 41 11 14 23 32 10 18 19 15 2 5 12 6 23 14 6 12 26 41 15 15 9 8 13 31 37 11 20 2 28 35 39 0 29 44 42 54 34 12 17 32 19 38 51 14 4 30 57 47 5 37 22 23 55 32 47 14 34 36 70 51 67 18 19 47 31 27 58 35 15 7 61 15 41 36 41 38 34 45 60 36 60 58 52 58 25 27 52 8 34 57 14 56 6 42 56 28 59 44 36 65 43 55 16 10 66 20 50 62 20 47 3 14 26 57 14 35 39 17 35 3 16 15 14 24 48 40 36 24 19 13 24 18 25 10 12 41 17 29 31 9 45 54 27 56 49 53 37 0 24 32 46 34 34 14 2 27 12 22 35 37 26 26 13 33 23 17 19 30 29 24 1 3 65 35 18 11 57 53 35 42 35 55 45 22 45 28 26 23 48 46 11 62 39 11 64 64 57 63 66 53 47 73 75 81 17 59 61 110 82 67 92 39 60 82 69 93 79 30 78 76 35 97 82 41 65 63 35 107 62 88 90 26 89 17 51 39 66 35 94 68 21 42 23 99 85 20 81 39 81 58 68 56 68 90 45 70 70 52 61 58 49 67 72 30 56 57 43 28 20 19 2 8 3 43 38 16 59 14 33 47 19 35 19 21 53 46 49 54 26 42 61 73 47 64 59 52 65 60 71 51 38 52 51 25 32 44 47 38 42 51 36 17 46 33 41 14 37 25 46 4 5 58 40 42 26 55 70 34 29 33 57 56 39 79 79 44 44 38 60 67 9 63 49 82 66 20 80 53 48 50 67 77 76 47 53 41 120 87 88 120 59 84 119 37 70 118 73 100 90 52 112 52 67 101 44 74 128 89 77 113 68 90 44 0 82 83 48 106 45 46 67 15 113 36 94 109 27 100 75 84 80 89 88 61 100 12 48 41 63 18 81 83 39 55 40 43 20 53 35 24 7 44 28 32 15 64 49 5 69 9 21 24 48 49 67 68 87 30 52 28 83 74 73 71 82 90 47 89 74 62 84 60 50 34 47 49 54 41 55 10 20 55 12 41 36 18 34 26 20 13 69 32 29 56 72 83 55 24 66 41 59 37 60 99 56 61 16 40 48 51 32 77 72 72 60 71 44 48 86 86 100 63 56 68 78 120 131 30 118 79 95 132 67 107 136 60 79 123 74 125 105 82 110 84 72 136 99 107 135 79 77 15 60 99 72 77 104 84 41 69 63 105 90 59 119 44 109 83 69 87 87 75 69 108 45 75 54 35 55 76 92 32 68 26 51 61 66 54 49 10 60 35 16 67 56 56 61 67 36 19 26 31 58 72 46 91 31 43 35 84 90 96 60 88 100 45 82 86 44 76 53 50 51 34 33 70 6 49 63 68 80 20 22 55 0 31 24 52 39 61 31 30 52 40 91 76 60 47 69 66 20 76 90 79 68 52 59 78 48 74 39 57 67 90 77 52 70 96 102 98 81 71 88 89 109 133 77 121 109 92 114 103 118 120 93 112 125 106 117 99 12 78 98 53 111 110 130 127 81 90 66 55 86 91 76 56 75 52 93 90 43 58 96 95 49 89 118 75 47 79 76 91 88 63 47 20 42 54 51 96 43 65 7 49 85 84 54 58 31 59 65 67 60 76 55 68 22 51 11 26 24 73 61 31 81 70 51 90 99 73 89 81 91 101 43 56 80 14 32 62 30 68 14 39 63 61 64 71 84 80 11 6 38 4 10 37 57 36 69 63 28 59 76 77 69 83 33 73 61 40 99 63 76 72 1 32 97 29 59 76 91 50 88 63 73 53 85 90 78 90 84 93 84 113 115 70 106 85 99 88 102 96 80 101 109 96 65 93 79 45 20 74 41 95 105 123 93 55 82 63 70 90 93 80 60 62 58 106 48 95 30 96 87 83 55 115 82 82 90 100 90 68 62 69 64 60 52 23 92 43 58 40 50 79 25 68 55 34 56 65 78 17 83 21 38 65 53 31 11 36 64 60 29 85 57 64 88 94 83 85 99 97 80 66 47 77 42 37 62 37 75 6 65 73 83 82 68 41 10 63 48 23 21 61 59 43 30 77 59 60 21 96 7 71 68 35 63 40 42 73 70 68 49 23 62 62 72 49 29 103 66 81 61 87 87 51 44 77 92 82 76 62 112 65 99 102 61 70 113 89 81 89 67 112 56 36 108 66 63 57 11 62 109 83 75 95 74 36 41 71 112 61 57 85 45 45 100 58 102 81 83 82 41 63 85 81 90 83 108 68 82 80 89 13 56 51 60 93 48 33 24 61 32 67 55 62 22 43 59 30 55 48 40 61 79 18 45 28 22 20 72 58 92 29 73 71 3 99 96 112 104 47 74 45 85 59 54 67 23 70 42 69 77 74 79 53 41 43 73 56 27 5 65 25 63 62 61 77 77 50 71 61 79 15 52 79 44 37 64 61 42 41 33 71 68 48 62 40 105 86 85 79 82 57 59 53 85 69 66 48 48 117 84 71 103 86 94 115 50 94 113 62 109 92 51 119 75 63 80 48 74 108 66 95 107 10 33 62 56 111 78 51 104 50 75 96 48 98 69 33 17 67 93 59 77 58 45 102 55 71 74 103 72 53 61 91 87 49 42 44 68 61 45 74 39 11 7 51 43 38 64 60 61 65 10 23 46 36 48 55 66 93 76 28 90 68 85 79 130 111 48 84 83 102 31 87 81 19 75 14 50 31 71 60 63 48 52 69 58 44 29 38 72 86 73 7 69 57 21 39 48 49 68 45 69 70 55 75 33 41 59 53 55 58 29 16 37 85 82 46 47 60 37 62 22 88 40 59 86 26 122 107 10 97 72 54 115 64 100 109 68 114 103 31 109 79 15 73 64 75 102 72 82 107 20 58 79 36 90 90 41 102 62 79 85 45 96 66 67 46 58 70 75 86 71 38 86 68 67 74 75 23 49 46 90 55 37 27 51 66 68 64 65 27 45 34 42 41 52 53 60 44 54 2 37 54 27 9 20 37 73 74 80 95 41 36 36 116 90 53 78 85 87 58 71 74 28 65 39 62 25 65 63 52 65 57 61 43 50 24 22 52 69 14 30 51 24 5 44 10 40 73 56 22 61 60 64 16 29 55 27 52 12 8 56 66 77 53 72 22 30 61 64 46 86 87 66 67 63 118 102 11 89 36 77 39 42 64 63 32 114 99 53 86 74 48 74 59 63 61 84 88 89 55 72 68 40 93 97 17 78 69 26 41 61 99 90 73 51 47 49 73 76 59 68 65 54 70 79 66 71 64 60 74 74 62 33 56 36 14 33 34 22 56 22 49 61 51 44 48 16 58 20 54 35 2 2 41 9 59 55 51 41 72 60 50 93 120 114 97 98 68 44 45 26 55 15 46 65 19 36 63 6 61 68 64 15 0 13 6 14 26 31 22 23 1 44 38 25 38 50 24 56 53 50 42 19 49 7 14 30 54 10 35 59 87 83 51 62 77 60 68 47 101 91 72 99 66 126 124 94 96 98 12 135 105 100 132 93 87 119 16 88 94 84 105 29 86 111 96 61 122 79 98 103 85 116 101 45 114 69 85 101 80 105 102 94 98 71 75 103 89 123 89 124 98 119 114 103 101 89 52 108 95 82 68 45 7 40 43 30 9 41 17 26 44 42 39 8 23 43 49 32 12 21 18 9 51 34 52 12 72 96 95 77 107 111 109 111 108 76 70 59 37 55 44 35 64 31 30 39 22 24 56 57 25 26 16 9 24 10 14 15 10 19 47 40 21 20 9 25 29 9 26 17 23 33 25 6 17 51 5 30 11 68 68 15 37 74 23 47 33 104 61 34 102 98 120 138 119 96 96 96 145 125 117 146 125 102 124 59 101 108 90 114 91 86 113 69 90 132 101 81 122 106 100 103 74 119 108 72 113 94 118 119 61 113 92 101 122 16 132 106 130 76 123 112 112 110 68 24 111 54 75 64 11 17 42 47 37 33 29 34 19 10 41 22 9 5 0 29 12 15 32 9 1 41 0 38 49 81 68 71 96 94 12 70 108 113 60 64 37 47 51 31 21 53 20 32 12 28 6 27 33 20 4 32 27 15 14 20 34 3 12 35 30 2 15 4 2 8 8 26 11 23 13 11 3 4 17 15 28 10 74 60 12 40 50 16 5 23 89 37 33 66 83 112 99 107 98 46 78 124 100 96 121 111 104 106 68 101 70 76 106 69 76 97 57 63 108 88 86 92 90 63 64 69 106 92 66 98 90 111 93 74 102 96 112 103 75 101 90 115 26 110 92 95 79 87 24 103 49 62 25 39 7 14 30 42 30 10 37 26 0 28 13 11 5 8 9 23 9 27 0 13 8 0 39 23 85 74 74 94 48 66 92 66 94 83 42 47 33 38 30 26 35 4 8 10 16 0 23 18 27 5 29 14 25 6 14 21 6 22 33 17 16 26 6 2 19 4 23 1 26 15 7 2 1 6 10 19 46 95 71 30 41 20 31 14 29 57 23 23 61 42 102 74 66 79 10 9 97 47 84 106 57 98 54 57 85 20 49 95 30 13 62 62 82 67 18 67 51 64 74 5 30 81 21 55 62 69 88 31 26 69 77 95 58 64 86 47 83 71 90 84 61 27 81 43 81 14 38 8 18 5 1 2 26 8 3 0 28 15 13 2 8 8 5 20 17 14 16 0 13 15 3 32 21 66 64 89 66 47 16 96 26 56 58 25 42 20 7 23 17 16 5 2 11 7 4 13 7 20 23 1 7 27 4 17 23 4 20 40 19 12 32 2 0 18 1 16 21 31 18 10 7 5 13 8 8 27 92 55 25 31 0 34 15 6 32 30 36 52 38 88 81 13 67 8 31 74 27 66 89 16 85 77 39 66 37 45 87 28 19 61 53 54 83 21 60 61 44 74 53 16 55 27 33 84 36 53 30 0 60 43 59 64 19 63 31 52 42 56 49 26 13 54 47 40 44 28 1 38 23 0 11 9 1 10 28 29 23 14 10 3 10 14 28 17 33 8 1 16 25 16 10 26 45 52 63 85 60 31 66 60 0 28 42 21 30 23 36 20 21 5 23 31 13 11 2 6 18 25 13 20 9 10 24 16 13 13 27 11 1 20 7 6 4 3 15 10 15 12 28 14 8 4 19 5 31 60 45 10 19 13 17 17 25 19 8 19 28 12 44 58 17 36 34 10 43 27 42 63 21 55 57 23 46 34 38 62 36 10 49 31 4 65 33 47 52 40 54 54 9 21 29 52 67 30 27 28 22 20 11 24 34 34 28 34 25 4 12 32 17 23 32 15 22 39 27 3 32 17 3 24 3 6 21 28 8 31 11 14 16 14 13 23 13 37 3 1 14 35 22 17 24 43 28 42 73 37 20 28 38 38 12 42 29 24 16 24 4 31 11 9 20 13 6 14 13 16 17 15 19 1 5 24 4 7 12 5 20 7 21 0 3 5 25 3 0 5 3 23 0 16 15 16 12 20 14 22 13 8 22 0 6 17 3 4 17 21 7 12 36 27 11 17 13 16 25 4 14 10 15 21 9 8 4 14 19 35 7 26 30 9 24 13 35 9 19 19 29 10 8 25 30 16 8 10 28 23 5 16 4 20 4 14 7 2 9 4 33 32 27 22 21 15 28 14 16 22 22 7 14 8 5 12 15 3 27 10 10 25 27 5 1 29 18 6 7 13 39 13 3 31 42 12 41 54 7 7 23 7 44 16 33 28 19 7 28 4 24 2 17 6 11 12 19 8 28 3 1 9 1 3 17 10 11 11 2 25 0 30 0 5 16 30 22 3 16 18 5 28 0 32 4 5 10 21 46 17 17 22 0 19 2 18 10 27 2 1 16 5 4 20 28 30 19 21 11 9 16 25 29 28 21 4 12 4 29 10 3 47 10 16 17 42 11 21 5 11 7 10 17 17 27 51 32 39 26 30 27 20 30 7 33 22 19 23 37 16 30 15 30 18 1 33 10 10 33 13 33 15 3 9 28 25 10 18 7 10 35 12 4 19 16 24 22 21 24 41 5 27 26 47 13 53 58 52 45 56 40 39 31 29 25 6 1 25 13 15 18 34 0 16 24 16 0 28 27 23 27 0 5 31 2 2 8 6 25 18 11 9 9 11 4 23 7 2 21 10 26 19 29 6 10 17 53 35 15 11 22 10 17 17 16 25 11 5 2 20 7 11 20 35 23 26 11 6 18 16 20 19 12 13 2 4 19 20 16 19 46 9 24 36 30 25 21 6 12 0 15 2 16 39 45 24 28 20 37 25 22 15 7 32 19 20 24 29 9 10 19 36 2 11 17 3 20 25 3 34 6 4 4 25 16 5 10 6 7 30 9 16 17 14 22 13 12 22 24 2 8 38 52 16 47 60 69 64 21 45 19 29 28 21 0 1 1 15 4 11 23 13 5 25 6 6 4 13 8 18 11 3 30 6 10 8 4 22 24 2 14 2 1 3 5 10 4 11 8 5 4 8 5 5 2 52 1 4 8 24 4 4 13 5 12 5 0 2 12 2 2 19 16 3 8 3 9 10 5 11 3 0 0 0 16 4 1 15 22 17 17 5 28 5 4 6 14 9 7 9 1 11 26 11 10 8 11 25 20 5 9 5 32 10 12 7 1 9 26 14 20 3 9 7 14 6 7 4 16 2 1 1 12 5 5 1 1 8 5 8 8 3 2 0 2 1 5 3 0 13 23 41 18 40 61 55 32 51 29 9 36 13 6 6 13 10 13 3 1 4 4 4 8 10 14 4 3 0 0 14 1 4 0 2 0 5 6 10 1 6 5 1 2 1 2 6 7 3 4 2 6 2 4 4 31 0 0 0 9 4 7 4 7 4 1 2 9 11 4 2 2 0 1 3 4 3 0 4 4 3 4 3 6 6 0 0 9 8 2 7 0 6 0 3 1 9 8 6 5 5 0 29 6 16 3 0 11 2 14 4 15 27 1 12 7 3 0 20 0 3 2 3 11 5 0 1 1 4 0 1 0 2 2 2 2 1 7 0 0 9 5 1 1 2 3 4 6 1 12 2 14 15 50 41 12 0 48 14 20 29 3 8 2 19 5 6 6 1 3 6 0 3 4 6 5 4 0 1 9 4 0 0 4 6 2 0 0 1 5 10 2 2 1 0 4 7 1 4 0 7 2 9 0 8 1 1 4 1 4 1 2 5 6 3 0 6 3 5 1 0 2 1 5 4 0 5 4 0 0 5 6 1 1 0 1 2 6 12 5 0 8 7 2 0 5 10 3 2 7 1 16 6 7 0 3 4 0 14 0 8 8 2 1 8 0 1 8 3 2 2 0 9 2 3 2 0 0 1 2 0 0 0 0 0 0 1 0 1 4 1 4 0 0 0 2 6 1 0 1 0 5 10 9 0 4 20 15 5 5 2 2 0 5 0 3 1 0 1 2 0 6 1 0 5 2 0 3 2 10 1 0 2 7 0 1 0 1 2 8 0 2 4 0 2 6 0 0 0 0 5 4 0 0 0 2 2 1 2 3 1 0 1 1 0 1 1 1 0 0 0 3 4 4 1 1 0 0 0 1 0 0 0 1 3 2 2 4 6 1 8 2 1 1 3 7 0 0 0 3 3 0 2 2 4 1 1 4 0 1 5 0 0 2 0 1 5 2 1 0 0 2 4 1 2 5 2 2 0 0 0 2 0 0 2 1 0 0 5 0 1 0 0 2 5 2 1 0 2 0 3 0 0 1 0 1 3 1 1 0 0 1 0 1 0 0 0 0 0 0 3 2 0 0 0 1 1 0 7 3 0 2 3 0 3 0 0 0 2 1 2 3 1 0 1 0 0 0 0 4 0 0 1 0 1 0 3 1 2 0 0 0 0 0 0 0 1 0 1 0 1 1 3 0 0 2 0 0 2 1 1 2 1 0 2 1 2 4 1 2 0 0 1 3 1 0 0 1 0 1 2 1 5 2 2 1 0 0 0 3 0 1 0 1 0 2 2 1 0 0 0 2 1 1 5 1 0 1 0 0 2 0 0 2 1 0 3 2 0 0 0 0 0 2 3 1 0 0 1 2 1 3 2 1 0 2 0 2 1 0 1 0 3 0 0 0 0 1 0 0 1 0 1 1 0 0 0 0 4 0 2 0 0 0 0 1 0 0 0 0 0 1 0 0 0 0 0 0 2 0 1 0 0 1 0 2 0 0 0 0 0 1 0 0 1 0 0 1 0 0 0 0 0 1 1 0 0 2 0 0 0 0 0 0 1 0 1 0 1 0 0 0 3 0 0 0 0 0 0 1 0 1 0 0 0 0 0 0 2 1 1 1 1 0 1 2 0 0 0 1 1 0 0 0 0 0 1 0 0 0 0 0 1 0 0 0 0 0 0 0 1 0 0 2 1 0 0 4 3 1 5 3 1 1 0 0 2 0 0 1 0 2 0 1 0 0 0 0 0 0 1 0 3 0 0 0 0 2 0 0 0 0 0 0 1 0 0 0 0 0 0 0 0 0 0 0 0 0 0 0 0 1 0 0 0 0 0 0 0 0 0 0 0 0 0 0 1 0 0 0 0 0 0 0 0 0 0 0 0 0 0 1 0 0 0 0 0 0 0 0 0 1 0 0 0 0 0 0 0 0 0 0 0 1 0 0 0 2 0 0 0 0 0 0 1 0 0 0 0 0 0 1 0 0 0 0 0 0 0 0 0 0 0 0 0 1 0 0 0 0 0 0 0 0 0 0 3 1 3 0 1 1 1 0 0 0 0 0 0 0 0 0 0 0 0 0 0 0 0 1 0 1 0 1 0 0 0 0 0 0 0 0 0 0 0 0 0 0 0 0 0 0 0 0 0 0 0 0 0 1 0 0 0 0 0 0 0 0 0 0 0 0 0 0 0 0 0 0 0 0 0 0 0 0 0 0 0 0 0 0 0 0 0 0 0 0 0 0 0 0 0 0 0 0 0 0 0 0 0 0 0 0 1 0 0 1 0 0 0 0 0 0 0 0 0 0 0 0 0 0 0 0 0 0 0 0 0 1 0 0 0 0 0 0 0 0 0 0 0 0 0 0 0 0 0 1 1 1 1 0 1 0 0 0 0 0 0 0 0 0 0 0 0 0 0 0 0 0 0 0 0 0 1 0 0 0 0 0 1 0 0 0 0 0 0 0 0 0 0 0 0 0 0 0 0 0 0 0 1 0 0 0 0 0 0 0 0 0 0 0 0 0 0 0 0 0 0 1 0 0 0 0 0 0 0 0 0 0 0 0 0 0 0 0 0 0 0 0 0 0 0 0 0 0 0 0 0 0 0 0 0 0 0 0 0 0 1 0 0 0 0 0 0 0 0 0 0 0 1 0 0 0 0 0 0 0 1 0 0 0 0 0 1 0 0 0 0 0 0 0 0 0 0 0 0 1 0 4 0 1 0 0 0 0 0 0 0 0 0 0 0 0 0 0 0 0 0 0 0 0 0 1 0 0 0 0 0 0 0 0 0 0 0 0 0 0 0 0 0 0 0 0 0 0 0 0 0 0 0 0 0 0 0 0 0 0 0 0 0 0 0 0 0 0 0 0 1 0 0 0 0 0 0 0 1 0 0 0 0 0 0 0 0 0 0 0 0 0 0 0 0 0 0 0 0 0 0 0 0 0 0 0 0 0 0 0 0 0 0 0 0 0 0 0 0 0 0 1 0 0 0 0 0 0 0 0 0 0 0 0 0 0 0 0 0 0 0 0 0 0 0 0 0 0 3 1 3 0 0 0 0 0 0 1 0 0 0 0 0 0 0 0 0 0 0 0 0 0 0 0 0 0 0 0 0 0 0 0 0 0 0 0 0 0 0 0 0 0 0 0 0 0 0 0 0 0 1 0 0 0 0 0 0 0 0 1 0 0 0 0 0 0 1 0 0 0 0 0 0 0 0 0 0 0 0 0 1 0 0 0 0 0 0 0 0 1 0 0 0 0 0 0 0 0 0 0 0 0 0 0 0 0 0 0 0 0 0 0 0 0 0 0 0 0 0 0 0 0 0 0 0 0 0 0 0 0 0 0 0 0 0 0 0 0 0 0 0 0 0 0 0 0 0 5 2 0 1 0 0 0 0 0 0 0 0 0 0 0 0 0 0 0 0 1 0 0 0 0 0 0 0 0 0 0 0 0 0 0 0 0 0 0 0 0 0 0 0 0 0 0 0 0 0 0 0 0 0 0 0 0 0 0 0 0 0 0 0 0 0 0 0 0 0 0 0 0 0 0 0 0 0 0 0 0 0 0 0 0 0 0 0 0 0 0 0 0 0 0 0 0 0 0 0 0 0 0 0 0 0 0 0 0 0 0 0 0 0 0 0 0 0 0 0 0 0 0 0 0 0 0 0 0 0 0 0 0 0 0 0 0 0 0 0 0 0 0 0 0 0 0 0 0 1 0 0 0 1 0 0 0 0 0 0 0 0 0 0 0 0 0 0 0 0 0 0 0 0 0 0 0 0 0 0 0 0 0 0 0 0 0 0 0 0 0 0 0 0 0 0 0 0 0 0 0 0 0 0 0 0 0 0 0 0 0 0 0 0 0 0 0 0 0 0 0 0 0 0 0 0 0 0 0 0 0 0 0 0 0 0 0 0 0 0 0 0 0 0 0 0 0 0 0 0 0 0 0 0 0 0 0 0 0 0 0 0 0 0 0 0 0 0 0 0 0 0 0 0 0 0 0 0 0 0 0 0 0 0 0 0 0 0 0 0 0 0 0 0 0 0 0 0 0 0 0 0 0 0 0 0 0 0 0 0 0 0 0 0 0 0 0 0 0 0 0 0 0 0 0 0 0 0 0 0 0 0 0 0 0 0 0 0 0 0 0 0 0 0 0 0 0 0 0 0 0 0 0 0 0 0 0 0 0 0 0 0 0 0 0 0 0 0 0 0 0 0 0 0 0 0 0 0 0 0 0 0 0 0 0 0 0 0 0 0 0 0 0 0 0 0 0 0 0 0 0 0 0 0 0 0 0 0 0 0 0 0 0 0 0 0 0 0 0 0 0 0 0 0 0 0 0 0 0 0 0 0 0 0 0 0 0 0 0 0 0 0 0 0 0 0 0 0 0 0 0 0 0 0 0 0 0 0 0 0 0 0 0 0 0 0 0 0 0 0 0 0 0 0 0 0 0 0 0 0 0 0 0 0 0 0 0 0 0 0 0 0 0 0 0 0 0 0 0 0 0 0 0 0 0 0 0 0 0 0 0 0 0 0 0 0 0 0 0 0 0 0 0 0 0 0 0 0 0 0 0 0 0 0 0 0 0 0 0 0 0 0 0 0 0 0 0 0 0 0 0 0 0 0 0 0 0 0 0 0 0 0 0 0 0 0 0 0 0 0 0 0 0 0 0 0 0 0 0 0 0 0 0 0 0 0 0 0 0 0 0 0 0 0 0 0 0 0 0 0 0 0 0 0 0 0 0 0 0 0 0 0 0 0 0 0 0 0 0 0 0 0 0 0 0 0 0 0 0 0 0 0 0 0 0 0 0 0 0 0 0 0 0 0 0 0 0 0 0 0 0 0 0 0 0 0 0 0 0 0 0 0 0 0 0 0 0 0 0 0 0 0 0 0 0 0 0 0 0 0 0 0 0 0 0 0 0 0 0 0 0 0 0 0 0 0 0 0 0 0 0 0 0 0 0 0 0 0 0 0 0 0 0 0 0 0 0 0 0 0 0 0 0 0 0 0 0 0 0 0 0 0 0 0 0 0 0 0 0 0 0 0 0 0 0 0 0 0 0 0 0 0 0 0 0 0 0 0 0 0 0 0 0 0 0 0 0 0 0 0 0 0 0 0 0 0 0 0 0 0 0 0 0 0 0 0 0 0 0 0 0 0 0 0 0 0 0 0 0 0 0 0 0 0 0 0 0 0 0 0 0 0 0 0 0 0 0 0 0 0 0 0 0 0 0 0 0 0 0 0 0 0 0 0 0 0 0 0 0 0 0 0 0 0 0 0 0 0 0 0 0 0 0 0 0 0 0 0 0 0 0 0 0 0 0 0 0 0 0 0 0 0 0 0 0 0 0 0 0 0 0 0 0 0 0 0 0 0 0 0 0 0 0 0 0 0 0 0 0 0 0 0 0 0 0 0 0 0 0 0 0 0 0 0 0 0 0 0 0 0 0 0 0 0 0 0 0 0 0 0 0 0 0 0 0 0 0 0 0 0 0 0 0 0 0 0 0 0 0 0 0 0 0 0 0 0 0 0 0 0 0 0 0 0 0 0 0 0 0 0 0 0 0 0 0 0 0 0 0 0 0 0 0 0 0 0 0 0 0 0 0 0 0 0 0 0 0 0 0 0 0 0 0 0 0 0 0 0 0 0 0 0 0 0 0 0 0 0 0 0 0 0 0 0 0 0 0 0 0 0 0 0 0 0 0 0 0 0 0 0 0 0 0 0 0 0 0 0 0 0 0 0 0 0 0 0 0 0 0 0 0 0 0 0 0 0 0 0 0 0 0 0 0 0 0 0 0 0 0 0 0 0 0 0 0 0 0 0 0 0 0 0 0 0 0 0 0 0 0 0 0 0 0 0 0 0 0 0 0 0 0 0 0 0 0 0 0 0 0 0 0 0 0 0 0 0 0 0 0 0 0 0 0 0 0 0 0 0 0 0 0 0 0 0 0 0 0 0 0 0 0 0 0 0 0 0 0 0 0 0 0 0 0 0 0 0 0 0 0 0 0 0 0 0 0 0 0 0 0 0 0 0 0 0 0 0 0 0 0 0 0 0 0 0 0 0 0 0 0 0 0 0 0 0 0 0 0 0 0 0 0 0 0 0 0 0 0 0 0 0 0 0 0 0 0 0 0 0 0 0 0 0 0 0 0 0 0 0 0 0 0 0 0 0 0 0 0 0 0 0 0 0 0 0 0 0 0 0 0 0 0 0 0 0 0 0 0 0 0 0 0 0 0 0 0 0 0 0 0 0 0 0 0 0 0 0 0 0 0 0 0 0 0 0 0 0 0 0 0 0 0 0 0 0 0 0 0 0 0 0 0 0 0 0 0 0 0 0 0 0 0 0 0 0 0 0 0 0 0 0 0 0 0 0 0 0 0 0 0 0 0 0 0 0 0 0 0 0 0 0 0 0 0 0 0 0 0 0 0 0 0 0 0 0 0 0 0 0 0 0 0 0 0 0 0 0 0 0 0 0 0 0 0 0 0 0 0 0 0 0 0 0 0 0 0 0 0 0 0 0 0 0 0 0 0 0 0 0 0 0 0 0 0 0 0 0 0 0 0 0 0 0 0 0 0 0 0 0 0 0 0 0 0 0 0 0 0 0 0 0 0 0 0 0 0 0 0 0 0 0 0 0 0 0 0 0 0 0 0 0 0 0 0 0 0 0 0 0 0 0 0 0 0 0 0 0 0 0 0 0 0 0 0 0 0 0 0 0 0 0 0 0 0 0 0 0 0 0 0 0 0 0 0 0 0 0 0 0 0 0 0 0 0 0 0 0 0 0 0 0 0 0 0 0 0 0 0 0 0 0 0 0 0 0 0 0 0 0 0 0 0 0 0 0 0 0 0 0 0 0 0 0 0 0 0 0 0 0 0 0 0 0 0 0 0 0 0 0 0 0 0 0 0 0 0 0 0 0 0 0 0 0 0 0 0 0 0 0 0 0 0 0 0 0 0 0 0 0 0 0 0 0 0 0 0 0 0 0 0 0 0 0 0 0 0 0 0 0 0 0 0 0 0 0 0 0 0 0 0 0 0 0 0 0 0 0 0 0 0 0 0 0 0 0 0 0 0 0 0 0 0 0 0 0 0 0 0 0 0 0 0 0 0 0 0 0 0 0 0 0 0 0 0 0 0 0 0 0 0 0 0 0 0 0 0 0 0 0 0 0 0 0 0 0 0 0 0 0 0 0 0 0 0 0 0 0 0 0 0 0 0 0 0 0 0 0 0 0 0 0 0 0 0 0 0 0 0 0 0 0 0 0 0 0 0 0 0 0 0 0 0 0 0 0 0 0 0 0 0 0 0 0 0 0 0 0 0 0 0 0 0 0 0 0 0 0 0 0 0 0 0 0 0 0 0 0 0 0 0 0 0 0 0 0 0 0 0 0 0 0 0 0 0 0 0 0 0 0 0 0 0 0 0 0 0 0 0 0 0 0 0 0 0 0 0 0 0 0 0 0 0 0 0 0 0 0 0 0 0 0 0 0 0 0 0 0 0 0 0 0 0 0 0 0 0 0 0 0 0 0 0 0 0 0 0 0 0 0 0 0 0 0 0 0 0 0 0 0 0 0 0 0 0 0 0 0 0 0 0 0 0 0 0 0 0 0 0 0 0 0 0 0 0 0 0 0 0 0 0 0 0 0 0 0 0 0 0 0 0 0 0 0 0 0 0 0 0 0 0 0 0 0 0 0 0 0 0 0 0 0 0 0 0 0 0 0 0 0 0 0 0 0 0 0 0 0 0 0 0 0 0 0 0 0 0 0 0 0 0 0 0 0 0 0 0 0 0 0 0 0 0 0 0 0 0 0 0 0 0 0 0 0 0 0 0 0 0 0 0 0 0 0 0 0 0 0 0 0 0 0 0 0 0 0 0 0 0 0 0 0 0 0 0 0 0 0 0 0 0 0 0 0 0 0 0 0 0 0 0 0 0 0 0 0 0 0 0 0 0 0 0 0 0 0 0 0 0 0 0 0 0 0 0 0 0 0 0 0 0 0 0 0 0 0 0 0 0 0 0 0 0 0 0 0 0 0 0 0 0 0 0 0 0 0 0 0 0 0 0 0 0 0 0 0 0 0 0 0 0 0 0 0 0 0 0 0 0 0 0 0 0 0 0 0 0 0 0 0 0 0 0 0 0 0 0 0 0 0 0 0 0 0 0 0 0 0 0 0 0 0 0 0 0 0 0 0 0 0 0 0 0 0 0 0 0 0 0 0 0 0 0 0 0 0 0 0 0 0 0 0 0 0 0 0 0 0 0 0 0 0 0 0 0 0 0 0 0 0 0 0 0 0 0 0 0 0 0 0 0 0 0 0 0 0 0 0 0 0 0 0 0 0 0 0 0 0 0 0 0 0 0 0 0 0 0 0 0 0 0 0 0 0 0 0 0 0 0 0 0 0 0 0 0 0 0 0 0 0 0 0 0 0 0 0 0 0 0 0 0 0 0 0 0 0 0 0 0 0 0 0 0 0 0 0 0 0 0 0 0 0 0 0 0 0 0 0 0 0 0 0 0 0 0 0 0 0 0 0 0 0 0 0 0 0 0 0 0 0 0 0 0 0 0 0 0 0 0 0 0 0 0 0 0 0 0 0 0 0 0 0 0 0 0 0 0 0 0 0 0 0 0 0 0 0 0 0 0 0 0 0 0 0 0 0 0 0 0 0 0 0 0 0 0 0 0 0 0 0 0 0 0 0 0 0 0 0 0 0 0 0 0 0 0 0 0 0 0 0 0 0 0 0 0 0 0 0 0 0 0 0 0 0 0 0 0 0 0 0 0 0 0 0 0 0 0 0 0 0 0 0 0 0 0 0 0 0 0 0 0 0 0 0 0 0 0 0 0 0 0 0 0 0 0 0 0 0 0 0 0 0 0 0 0 0 0 0 0 0 0 0 0 0 0 0 0 0 0 0 0 0 0 0 0 0 0 0 0 0 0 0 0 0 0 0 0 0 0 0 0 0 0 0 0 0 0 0 0 0 0 0 0 0 0 0 0 0 0 0 0 0 0 0 0 0 0 0 0 0 0 0 0 0 0 0 0 0 0 0 0 0 0 0 0 0 0 0 0 0 0 0 0 0 0 0 0 0 0 0 0 0 0 0 0 0 0 0 0 0 0 0 0 0 0 0 0 0 0 0 0 0 0 0 0 0 0 0 0 0 0 0 0 0 0 0 0 0 0 0 0 0 0 0 0 0 0 0 0 0 0 0 0 0 0 0 0 0 0 0 0 0 0 0 0 0 0 0 0 0 0 0 0 0 0 0 0 0 0 0 0 0 0 0 0 0 0 0 0 0 0 0 0 0 0 0 0 0 0 0 0 0 0 0 0 0 0 0 0 0 0 0 0 0 0 0 0 0 0 0 0 0 0 0 0 0 0 0 0 0 0 0 0 0 0 0 0 0 0 0 0 0 0 0 0 0 0 0 0 0 0 0 0 0 0 0 0 0 0 0 0 0 0 0 0 0 0 0 0 0 0 0 0 0 0 0 0 0 0 0 0 0 0 0 0 0 0 0 0 0 0 0 0 0 0 0 0 0 0 0 0 0 0 0 0 0 0 0 0 0 0 0 0 0 0 0 0 0 0 0 0 0 0 0 0 0 0 0 0 0 0 0 0 0 0 0 0 0 0 0 0 0 0 0 0 0 0 0 0 0 0 0 0 0 0 0 0 0 0 0 0 0 0 0 0 0 0 0 0 0 0 0 0 0 0 0 0 0 0 0 0 0 0 0 0 0 0 0 0 0 0 0 0 0 0 0 0 0 0 0 0 0 0 0 0 0 0 0 0 0 0 0 0 0 0 0 0 0 0 0 0 0 0 0 0 0 0 0 0 0 0 0 0 0 0 0 0 0 0 0 0 0 0 0 0 0 0 0 0 0 0 0 0 0 0 0 0 0 0 0 0 0 0 0 0 0 0 0 0 0 0 0 0 0 0 0 0 0 0 0 0 0 0 0 0 0 0 0 0 0 0 0 0 0 0 0 0 0 0 0 0 0 0 0 0 0 0 0 0 0 0 0 0 0 0 0 0 0 0 0 0 0 0 0 0 0 0 0 0 0 0 0 0 0 0 0 0 0 0 0 0 0 0 0 0 0 0 0 0 0 0 0 0 0 0 0 0 0 0 0 0 0 0 0 0 0 0 0 0 0 0 0 0 0 0 0 0 0 0 0 0 0 0 0 0 0 0 0 0 0 0 0 0 0 0 0 0 0 0 0 0 0 0 0 0 0 0 0 0 0 0 0 0 0 0 0 0 0 0 0 0 0 0 0 0 0 0 0 0 0 0 0 0 0 0 0 0 0 0 0 0 0 0 0 0 0 0 0 0 0 0 0 0 0 0 0 0 0 0 0 0 0 0 0 0 0 0 0 0 0 0 0 0 0 0 0 0 0 0 0 0 0 0 0 0 0 0 0 0 0 0 0 0 0 0 0 0 0 0 0 0 0 0 0 0 0 0 0 0 0 0 0 0 0 0 0 0 0 0 0 0 0 0 0 0 0 0 0 0 0 0 0 0 0 0 0 0 0 0 0 0 0 0 0 0 0 0 0 0 0 0 0 0 0 0 0 0 0 0 0 0 0 0 0 0 0 0 0 0 0 0 0 0 0 0 0 0 0 0 0 0 0 0 0 0 0 0 0 0 0 0 0 0 0 0 0 0 0 0 0 0 0 0 0 0 0 0 0 0 0 0 0 0 0 0 0 0 0 0 0 0 0 0 0 0 0 0 0 0 0 0 0 0 0 0 0 0 0 0 0 0 0 0 0 0 0 0 0 0 0 0 0 0 0 0 0 0 0 0 0 0 0 0 0 0 0 0 0 0 0 0 0 0 0 0 0 0 0 0 0 0 0 0 0 0 0 0 0 0 0 0 0 0 0 0 0 0 0 0 0 0 0 0 0 0 0 0 0 0 0 0 0 0 0 0 0 0 0 0 0 0 0 0 0 0 0 0 0 0 0 0 0 0 0 0 0 0 0 0 0 0 0 0 0 0 0 0 0 0 0 0 0 0 0 0 0 0 0 0 0 0 0 0 0 0 0 0 0 0 0 0 0 0 0 0 0 0 0 0 0 0 0 0 0 0 0 0 0 0 0 0 0 0 0 0 0 0 0 0 0 0 0 0 0 0 0 0 0 0 0 0 0 0 0 0 0 0 0 0 0 0 0 0 0 0 0 0 0 0 0 0 0 0 0 0 0 0 0 0 0 0 0 0 0 0 0 0 0 0 0 0 0 0 0 0 0 0 0 0 0 0 0 0 0 0 0 0 0 0 0 0 0 0 0 0 0 0 0 0 0 0 0 0 0 0 0 0 0 0 0 0 0 0 0 0 0 0 0 0 0 0 0 0 0 0 0 0 0 0 0 0 0 0 0 0 0 0 0 0 0 0 0 0 0 0 0 0 0 0 0 0 0 0 0 0 0 0 0 0 0 0 0 0 0 0 0 0 0 0 0 0 0 0 0 0 0 0 0 0 0 0 0 0 0 0 0 0 0 0 0 0 0 0 0 0 0 0 0 0 0 0 0 0 0 0 0 0 0 0 0 0 0 0 0 0 0 0 0 0 0 0 0 0 0 0 0 0 0 0 0 0 0 0 0 0 0 0 0 0 0 0 0 0 0 0 0 0 0 0 0 0 0 0 0 0 0 0 0 0 0 0 0 0 0 0 0 0 0 0 0 0 0 0 0 0 0 0 0 0 0 0 0 0 0 0 0 0 0 0 0 0 0 0 0 0 0 0 0 0 0 0 0 0 0 0 0 0 0 0 0 0 0 0 0 0 0 0 0 0 0 0 0 0 0 0 0 0 0 0 0 0 0 0 0 0 0 0 0 0 0 0 0 0 0 0 0 0 0 0 0 0 0 0 0 0 0 0 0 0 0 0 0 0 0 0 0 0 0 0 0 0 0 0 0 0 0 0 0 0 0 0 0 0 0 0 0 0 0 0 0 0 0 0 0 0 0 0 0 0 0 0 0 0 0 0 0 0 0 0 0 0 0 0 0 0 0 0 0 0 0 0 0 0 0 0 0 0 0 0 0 0 0 0 0 0 0 0 0 0 0 0 0 0 0 0 0 0 0 0 0 0 0 0 0 0 0 0 0 0 0 0 0 0 0 0 0 0 0 0 0 0 0 0 0 0 0 0 0 0 0 0 0 0 0 0 0 0 0 0 0 0 0 0 0 0 0 0 0 0 0 0 0 0 0 0 0 0 0 0 0 0 0 0 0 0 0 0 0 0 0 0 0 0 0 0 0 0 0 0 0 0 0 0 0 0 0 0 0 0 0 0 0 0 0 0 0 0 0 0 0 0 0 0 0 0 0 0 0 0 0 0 0 0 0 0 0 0 0 0 0 0 0 0 0 0 0 0 0 0 0 0 0 0 0 0 0 0 0 0 0 0 0 0 0 0 0 0 0 0 0 0 0 0 0 0 0 0 0 0 0 0 0 0 0 0 0 0 0 0 0 0 0 0 0 0 0 0 0 0 0 0 0 0 0 0 0 0 0 0 0 0 0 0 0 0 0 0 0 0 0 0 0 0 0 0 0 0 0 0 0 0 0 0 0 0 0 0 0 0 0 0 0 0 0 0 0 0 0 0 0 0 0 0 0 0 0 0 0 0 0 0 0 0 0 0 0 0 0 0 0 0 0 0 0 0 0 0 0 0 0 0 0 0 0 0 0 0 0 0 0 0 0 0 0 0 0 0 0 0 0 0 0 0 0 0 0 0 0 0 0 0 0 0 0 0 0 0 0 0 0 0 0 0 0 0 0 0 0 0 0 0 0 0 0 0 0 0 0 0 0 0 0 0 0 0 0 0 0 0 0 0 0 0 0 0 0 0 0 0 0 0 0 0 0 0 0 0 0 0 0 0 0 0 0 0 0 0 0 0 0 0 0 0 0 0 0 0 0 0 0 0 0 0 0 0 0 0 0 0 0 0 0 0 0 0 0 0 0 0 0 0 0 0 0 0 0 0 0 0 0 0 0 0 0 0 0 0 0 0 0 0 0 0 0 0 0 0 0 0 0 0 0 0 0 0 0 0 0 0 0 0 0 0 0 0 0 0 0 0 0 0 0 0 0 0 0 0 0 0 0 0 0 0 0 0 0 0 0 0 0 0 0 0 0 0 0 0 0 0 0 0 0 0 0 0 0 0 0 0 0 0 0 0 0 0 0 0 0 0 0 0 0 0 0 0 0 0 0 0 0 0 0 0 0 0 0 0 0 0 0 0 0 0 0 0 0 0 0 0 0 0 0 0 0 0 0 0 0 0 0 0 0 0 0 0 0 0 0 0 0 0 0 0 0 0 0 0 0 0 0 0 0 0 0 0 0 0 0 0 0 0 0 0 0 0 0 0 0 0 0 0 0 0 0 0 0 0 0 0 0 0 0 0 0 0 0 0 0 0 0 0 0 0 0 0 0 0 0 0 0 0 0 0 0 0 0 0 0 0 0 0 0 0 0 0 0 0 0 0 0 0 0 0 0 0 0 0 0 0 0 0 0 0 0 0 0 0 0 0 0 0 0 0 0 0 0 0 0 0 0 0 0 0 0 0 0 0 0 0 0 0 0 0 0 0 0 0 0 0 0 0 0 0 0 0 0 0 0 0 0 0 0 0 0 0 0 0 0 0 0 0 0 0 0 0 0 0 0 0 0 0 0 0 0 0 0 0 0 0 0 0 0 0 0 0 0 0 0 0 0 0 0 0 0 0 0 0 0 0 0 0 0 0 0 0 0 0 0 0 0 0 0 0 0 0 0 0 0 0 0 0 0 0 0 0 0 0 0 0 0 0 0 0 0 0 0 0 0 0 0 0 0 0 0 0 0 0 0 0 0 0 0 0 0 0 0 0 0 0 0 0 0 0 0 0 0 0 0 0 0 0 0 0 0 0 0 0 0 0 0 0 0 0 0 0 0 0 0 0 0 0 0 0 0 0 0 0 0 0 0 0 0 0 0 0 0 0 0 0 0 0 0 0 0 0 0 0 0 0 0 0 0 0 0 0 0 0 0 0 0 0 0 0 0 0 0 0 0 0 0 0 0 0 0 0 0 0 0 0 0 0 0 0 0 0 0 0 0 0 0 0 0 0 0 0 0 0 0 0 0 0 0 0 0 0 0 0 0 0 0 0 0 0 0 0 0 0 0 0 0 0 0 0 0 0 0 0 0 0 0 0 0 0 0 0 0 0 0 0 0 0 0 0 0 0 0 0 0 0 0 0 0 0 0 0 0 0 0 0 0 0 0 0 0 0 0 0 0 0 0 0 0 0 0 0 0 0 0 0 0 0 0 0 0 0 0 0 0 0 0 0 0 0 0 0 0 0 0 0 0 0 0 0 0 0 0 0 0 0 0 0 0 0 0 0 0 0 0 0 0 0 0 0 0 0 0 0 0 0 0 0 0 0 0 0 0 0 0 0 0 0 0 0 0 0 0 0 0 0 0 0 0 0 0 0 0 0 0 0 0 0 0 0 0 0 0 0 0 0 0 0 0 0 0 0 0 0 0 0 0 0 0 0 0 0 0 0 0 0 0 0 0 0 0 0 0 0 0 0 0 0 0 0 0 0 0 0 0 0 0 0 0 0 0 0 0 0 0 0 0 0 0 0 0 0 0 0 0 0 0 0 0 0 0 0 0 0 0 0 0 0 0 0 0 0 0 0 0 0 0 0 0 0 0 0 0 0 0 0 0 0 0 0 0 0 0 0 0 0 0 0 0 0 0 0 0 0 0 0 0 0 0 0 0 0 0 0 0 0 0 0 0 0 0 0 0 0 0 0 0 0 0 0 0 0 0 0 0 0 0 0 0 0 0 0 0 0 0 0 0 0 0 0 0 0 0 0 0 0 0 0 0 0 0 0 0 0 0 0 0 0 0 0 0 0 0 0 0 0 0 0 0 0 0 0 0 0 0 0 0 0 0 0 0 0 0 0 0 0 0 0 0 0 0 0 0 0 0 0 0 0 0 0 0 0 0 0 0 0 0 0 0 0 0 0 0 0 0 0 0 0 0 0 0 0 0 0 0 0 0 0 0 0 0 0 0 0 0 0 0 0 0 0 0 0 0 0 0 0 0 0 0 0 0 0 0 0 0 0 0 0 0 0 0 0 0 0 0 0 0 0 0 0 0 0 0 0 0 0 0 0 0 0 0 0 0 0 0 0 0 0 0 0 0 0 0 0 0 0 0 0 0 0 0 0 0 0 0 0 0 0 0 0 0 0 0 0 0 0 0 0 0 0 0 0 0 0 0 0 0 0 0 0 0 0 0 0 0 0 0 0 0 0 0 0 0 0 0 0 0 0 0 0 0 0 0 0 0 0 0 0 0 0 0 0 0 0 0 0 0 0 0 0 0 0 0 0 0 0 0 0 0 0 0 0 0 0 0 0 0 0 0 0 0 0 0 0 0 0 0 0 0 0 0 0 0 0 0 0 0 0 0 0 0 0 0 0 0 0 0 0 0 0 0 0 0 0 0 0 0 0 0 0 0 0 0 0 0 0 0 0 0 0 0 0 0 0 0 0 0 0 0 0 0 0 0 0 0 0 0 0 0 0 0 0 0 0 0 0 0 0 0 0 0 0 0 0 0 0 0 0 0 0 0 0 0 0 0 0 0 0 0 0 0 0 0 0 0 0 0 0 0 0 0 0 0 0 0 0 0 0 0 0 0 0 0 0 0 0 0 0 0 0 0 0 0 0 0 0 0 0 0 0 0 0 0 0 0 0 0 0 0 0 0 0 0 0 0 0 0 0 0 0 0 0 0 0 0 0 0 0 0 0 0 0 0 0 0 0 0 0 0 0 0 0 0 0 0 0 0 0 0 0 0 0 0 0 0 0 0 0 0 0 0 0 0 0 0 0 0 0 0 0 0 0 0 0 0 0 0 0 0 0 0 0 0 0 0 0 0 0 0 0 0 0 0 0 0 0 0 0 0 0 0 0 0 0 0 0 0 0 0 0 0 0 0 0 0 0 0 0 0 0 0 0 0 0 0 0 0 0 0 0 0 0 0 0 0 0 0 0 0 0 0 0 0 0 0 0 0 0 0 0 0 0 0 0 0 0 0 0 0 0 0 0 0 0 0 0 0 0 0 0 0 0 0 0 0 0 0 0 0 0 0 0 0 0 0 0 0 0 0 0 0 0 0 0 0 0 0 0 0 0 0 0 0 0 0 0 0 0 0 0 0 0 0 0 0 0 0 0 0 0 0 0 0 0 0 0 0 0 0 0 0 0 0 0 0 0 0 0 0 0 0 0 0 0 0 0 0 0 0 0 0 0 0 0 0 0 0 0 0 0 0 0 0 0 0 0 0 0 0 0 0 0 0 0 0 0 0 0 0 0 0 0 0 0 0 0 0 0 0 0 0 0 0 0 0 0 0 0 0 0 0 0 0 0 0 0 0 0 0 0 0 0 0 0 0 0 0 0 0 0 0 0 0 0 0 0 0 0 0 0 0 0 0 0 0 0 0 0 0 0 0 0 0 0 0 0 0 0 0 0 0 0 0 0 0 0 0 0 0 0 0 0 0 0 0 0 0 0 0 0 0 0 0 0 0 0 0 0 0 0 0 0 0 0 0 0 0 0 0 0 0 0 0 0 0 0 0 0 0 0 0 0 0 0 0 0 0 0 0 0 0 0 0 0 0 0 0 0 0 0 0 0 0 0 0 0 0 0 0 0 0 0 0 0 0 0 0 0 0 0 0 0 0 0 0 0 0 0 0 0 0 0 0 0 0 0 0 0 0 0 0 0 0 0 0 0 0 0 0 0 0 0 0 0 0 0 0 0 0 0 0 0 0 0 0 0 0 0 0 0 0 0 0 0 0 0 0 0 0 0 0 0 0 0 0 0 0 0 0 0 0 0 0 0 0 0 0 0 0 0 0 0 0 0 0 0 0 0 0 0 0 0 0 0 0 0 0 0 0 0 0 0 0 0 0 0 0 0 0 0 0 0 0 0 0 0 0 0 0 0 0 0 0 0 0 0 0 0 0 0 0 0 0 0 0 0 0 0 0 0 0 0 0 0 0 0 0 0 0 0 0 0 0 0 0 0 0 0 0 0 0 0 0 0 0 0 0 0 0 0 0 0 0 0 0 0 0 0 0 0 0 0 0 0 0 0 0 0 0 0 0 0 0 0 0 0 0 0 0 0 0 0 0 0 0 0 0 0 0 0 0 0 0 0 0 0 0 0 0 0 0 0 0 0 0 0 0 0 0 0 0 0 0 0 0 0 0 0 0 0 0 0 0 0 0 0 0 0 0 0 0 0 0 0 0 0 0 0 0 0 0 0 0 0 0 0 0 0 0 0 0 0 0 0 0 0 0 0 0 0 0 0 0 0 0 0 0 0 0 0 0 0 0 0 0 0 0 0 0 0 0 0 0 0 0 0 0 0 0 0 0 0 0 0 0 0 0 0 0 0 0 0 0 0 0 0 0 0 0 0 0 0 0 0 0 0 0 0 0 0 0 0 0 0 0 0 0 0 0 0 0 0 0 0 0 0 0 0 0 0 0 0 0 0 0 0 0 0 0 0 0 0 0 0 0 0 0 0 0 0 0 0 0 0 0 0 0 0 0 0 0 0 0 0 0 0 0 0 0 0 0 0 0 0 0 0 0 0 0 0 0 0 0 0 0 0 0 0 0 0 0 0 0 0 0 0 0 0 0 0 0 0 0 0 0 0 0 0 0 0 0 0 0 0 0 0 0 0 0 0 0 0 0 0 0 0 0 0 0 0 0 0 0 0 0 0 0 0 0 0 0 0 0 0 0 0 0 0 0 0 0 0 0 0 0 0 0 0 0 0 0 0 0 0 0 0 0 0 0 0 0 0 0 0 0 0 0 0 0 0 0 0 0 0 0 0 0 0 0 0 0 0 0 0 0 0 0 0 0 0 0 0 0 0 0 0 0 0 0 0 0 0 0 0 0 0 0 0 0 0 0 0 0 0 0 0 0 0 0 0 0 0 0 0 0 0 0 0 0 0 0 0 0 0 0 0 0 0 0 0 0 0 0 0 0 0 0 0 0 0 0 0 0 0 0 0 0 0 0 0 0 0 0 0 0 0 0 0 0 0 0 0 0 0 0 0 0 0 0 0 0 0 0 0 0 0 0 0 0 0 0 0 0 0 0 0 0 0 0 0 0 0 0 0 0 0 0 0 0 0 0 0 0 0 0 0 0 0 0 0 0 0 0 0 0 0 0 0 0 0 0 0 0 0 0 0 0 0 0 0 0 0 0 0 0 0 0 0 0 0 0 0 0 0 0 0 0 0 0 0 0 0 0 0 0 0 0 0 0 0 0 0 0 0 0 0 0 0 0 0 0 0 0 0 0 0 0 0 0 0 0 0 0 0 0 0 0 0 0 0 0 0 0 0 0 0 0 0 0 0 0 0 0 0 0 0 0 0 0 0 0 0 0 0 0 0 0 0 0 0 0 0 0 0 0 0 0 0 0 0 0 0 0 0 0 0 0 0 0 0 0 0 0 0 0 0 0 0 0 0 0 0 0 0 0 0 0 0 0 0 0 0 0 0 0 0 0 0 0 0 0 0 0 0 0 0 0 0 0 0 0 0 0 0 0 0 0 0 0 0 0 0 0 0 0 0 0 0 0 0 0 0 0 0 0 0 0 0 0 0 0 0 0 0 0 0 0 0 0 0 0 0 0 0 0 0 0 0 0 0 0 0 0 0 0 0 0 0 0 0 0 0 0 0 0 0 0 0 0 0 0 0 0 0 0 0 0 0 0 0 0 0 0 0 0 0 0 0 0 0 0 0 0 0 0 0 0 0 0 0 0 0 0 0 0 0 0 0 0 0 0 0 0 0 0 0 0 0 0 0 0 0 0 0 0 0 0 0 0 0 0 0 0 0 0 0 0 0 0 0 0 0 0 0 0 0 0 0 0 0 0 0 0 0 0 0 0 0 0 0 0 0 0 0 0 0 0 0 0 0 0 0 0 0 0 0 0 0 0 0 0 0 0 0 0 0 0 0 0 0 0 0 0 0 0 0 0 0 0 0 0 0 0 0 0 0 0 0 0 0 0 0 0 0 0 0 0 0 0 0 0 0 0 0 0 0 0 0 0 0 0 0 0 0 0 0 0 0 0 0 0 0 0 0 0 0 0 0 0 0 0 0 0 0 0 0 0 0 0 0 0 0 0 0 0 0 0 0 0 0 0 0 0 0 0 0 0 0 0 0 0 0 0 0 0 0 0 0 0 0 0 0 0 0 0 0 0 0 0 0 0 0 0 0 0 0 0 0 0 0 0 0 0 0 0 0 0 0 0 0 0 0 0 0 0 0 0 0 0 0 0 0 0 0 0 0 0 0 0 0 0 0 0 0 0 0 0 0 0 0 0 0 0 0 0 0 0 0 0 0 0 0 0 0 0 0 0 0 0 0 0 0 0 0 0 0 0 0 0 0 0 0 0 0 0 0 0 0 0 0 0 0 0 0 0 0 0 0 0 0 0 0 0 0 0 0 0 0 0 0 0 0 0 0 0 0 0 0 0 0 0 0 0 0 0 0 0 0 0 0 0 0 0 0 0 0 0 0 0 0 0 0 0 0 0 0 0 0 0 0 0 0 0 0 0 0 0 0 0 0 0 0 0 0 0 0 0 0 0 0 0 0 0 0 0 0 0 0 0 0 0 0 0 0 0 0 0 0 0 0 0 0 0 0 0 0 0 0 0 0 0 0 0 0 0 0 0 0 0 0 0 0 0 0 0 0 0 0 0 0 0 0 0 0 0 0 0 0 0 0 0 0 0 0 0 0 0 0 0 0 0 0 0 0 0 0 0 0 0 0 0 0 0 0 0 0 0 0 0 0 0 0 0 0 0 0 0 0 0 0 0 0 0 0 0 0 0 0 0 0 0 0 0 0 0 0 0 0 0 0 0 0 0 0 0 0 0 0 0 0 0 0 0 0 0 0 0 0 0 0 0 0 0 0 0 0 0 0 0 0 0 0 0 0 0 0 0 0 0 0 0 0 0 0 0 0 0 0 0 0 0 0 0 0 0 0 0 0 0 0 0 0 0 0 0 0 0 0 0 0 0 0 0 0 0 0 0 0 0 0 0 0 0 0 0 0 0 0 0 0 0 0 0 0 0 0 0 0 0 0 0 0 0 0 0 0 0 0 0 0 0 0 0 0 0 0 0 0 0 0 0 0 0 0 0 0 0 0 0 0 0 0 0 0 0 0 0 0 0 0 0 0 0 0 0 0 0 0 0 0 0 0 0 0 0 0 0 0 0 0 0 0 0 0 0 0 0 0 0 0 0 0 0 0 0 0 0 0 0 0 0 0 0 0 0 0 0 0 0 0 0 0 0 0 0 0 0 0 0 0 0 0 0 0 0 0 0 0 0 0 0 0 0 0 0 0 0 0 0 0 0 0 0 0 0 0 0 0 0 0 0 0 0 0 0 0 0 0 0 0 0 0 0 0 0 0 0 0 0 0 0 0 0 0 0 0 0 0 0 0 0 0 0 0 0 0 0 0 0 0 0 0 0 0 0 0 0 0 0 0 0 0 0 0 0 0 0 0 0 0 0 0 0 0 0 0 0 0 0 0 0 0 0 0 0 0 0 0 0 0 0 0 0 0 0 0 0 0 0 0 0 0 0 0 0 0 0 0 0 0 0 0 0 0 0 0 0 0 0 0 0 0 0 0 0 0 0 0 0 0 0 0 0 0 0 0 0 0 0 0 0 0 0 0 0 0 0 0 0 0 0 0 0 0 0 0 0 0 0 0 0 0 0 0 0 0 0 0 0 0 0 0 0 0 0 0 0 0 0 0 0 0 0 0 0 0 0 0 0 0 0 0 0 0 0 0 0 0 0 0 0 0 0 0 0 0 0 0 0 0 0 0 0 0 0 0 0 0 0 0 0 0 0 0 0 0 0 0 0 0 0 0 0 0 0 0 0 0 0 0 0 0 0 0 0 0 0 0 0 0 0 0 0 0 0 0 0 0 0 0 0 0 0 0 0 0 0 0 0 0 0 0 0 0 0 0 0 0 0 0 0 0 0 0 0 0 0 0 0 0 0 0 0 0 0 0 0 0 0 0 0 0 0 0 0 0 0 0 0 0 0 0 0 0 0 0 0 0 0 0 0 0 0 0 0 0 0 0 0 0 0 0 0 0 0 0 0 0 0 0 0 0 0 0 0 0 0 0 0 0 0 0 0 0 0 0 0 0 0 0 0 0 0 0 0 0 0 0 0 0 0 0 0 0 0 0 0 0 0 0 0 0 0 0 0 0 0 0 0 0 0 0 0 0 0 0 0 0 0 0 0 0 0 0 0 0 0 0 0 0 0 0 0 0 0 0 0 0 0 0 0 0 0 0 0 0 0 0 0 0 0 0 0 0 0 0 0 0 0 0 0 0 0 0 0 0 0 0 0 0 0 0 0 0 0 0 0 0 0 0 0 0 0 0 0 0 0 0 0 0 0 0 0 0 0 0 0 0 0 0 0 0 0 0 0 0 0 0 0 0 0 0 0 0 0 0 0 0 0 0 0 0 0 0 0 0 0 0 0 0 0 0 0 0 0 0 0 0 0 0 0 0 0 0 0 0 0 0 0 0 0 0 0 0 0 0 0 0 0 0 0 0 0 0 0 0 0 0 0 0 0 0 0 0 0 0 0 0 0 0 0 0 0 0 0 0 0 0 0 0 0 0 0 0 0 0 0 0 0 0 0 0 0 0 0 0 0 0 0 0 0 0 0 0 0 0 0 0 0 0 0 0 0 0 0 0 0 0 0 0 0 0 0 0 0 0 0 0 0 0 0 0 0 0 0 0 0 0 0 0 0 0 0 0 0 0 0 0 0 0 0 0 0 0 0 0 0 0 0 0 0 0 0 0 