P2
159 129
255
0 0 0 0 0 0 0 0 0 0 0 0 0 0 0 0 0 0 0 0 0 0 0 0 0 0 0 0 0 0 0 0 0 0 0 0 0 0 0 0 0 0 0 0 0 0 0 0 0 0 0 0 0 0 0 0 0 0 0 0 0 0 0 0 0 0 0 0 0 0 0 0 0 0 0 0 0 0 0 0 0 0 0 0 0 0 0 0 0 0 0 0 0 0 0 0 0 0 0 0 0 0 0 0 0 0 0 0 0 0 0 0 0 0 0 0 0 0 0 0 0 0 0 0 0 0 0 0 0 0 0 0 0 0 0 0 0 0 0 0 0 0 0 0 0 0 0 0 0 0 0 0 0 0 0 0 0 0 0 0 0 0 0 0 0 0 0 0 0 0 0 0 0 0 0 0 0 0 0 0 0 0 0 0 0 0 0 0 0 0 0 0 0 0 0 0 0 0 0 0 0 0 0 0 0 0 0 0 0 0 0 0 0 0 0 0 0 0 0 0 0 0 0 0 0 0 0 0 0 0 0 0 0 0 0 0 0 0 0 0 0 0 0 0 0 0 0 0 0 0 0 0 0 0 0 0 0 0 0 0 0 0 0 0 0 0 0 0 0 0 0 0 0 0 0 0 0 0 0 0 0 0 0 0 0 0 0 0 0 0 0 0 0 0 0 0 0 0 0 0 0 0 0 0 0 0 0 0 0 0 0 0 0 0 0 0 0 0 84 90 84 91 71 64 65 85 94 73 139 153 176 107 195 162 193 176 106 203 180 204 134 178 208 194 212 166 200 210 190 206 198 198 194 198 185 196 172 195 184 200 158 195 182 206 194 205 201 198 201 181 200 195 206 193 192 170 178 182 169 192 154 203 183 201 225 236 252 250 253 253 252 255 248 249 242 233 234 209 209 222 199 214 218 184 220 215 190 219 192 194 206 171 191 207 140 206 197 198 209 186 216 206 213 211 211 203 215 213 222 206 208 200 209 209 201 188 203 205 190 216 203 208 213 141 199 183 133 189 167 150 168 172 161 149 180 161 120 165 137 146 127 145 122 123 123 133 119 126 114 113 88 108 88 94 97 110 92 89 82 81 97 28 100 93 86 5 91 104 179 170 107 195 179 198 206 153 231 204 216 218 191 230 187 211 191 189 183 160 188 195 171 168 179 170 177 174 118 190 177 144 166 180 168 180 183 180 189 175 183 176 185 185 185 167 171 157 169 159 170 169 177 178 196 213 235 243 249 245 248 248 248 247 245 240 235 229 217 215 217 208 217 212 206 217 208 205 215 188 196 190 174 193 170 197 184 189 203 171 210 201 207 213 193 216 139 215 197 217 196 185 179 186 198 184 88 163 161 166 185 193 196 187 169 181 163 126 168 120 152 154 158 155 128 158 137 130 150 101 131 117 113 69 114 120 110 123 79 120 110 63 88 92 40 77 99 85 84 100 76 95 140 126 134 123 79 129 131 183 218 188 219 222 220 241 218 243 224 233 236 170 228 168 185 163 132 149 173 166 180 133 150 154 132 144 136 150 168 143 121 136 121 111 129 127 107 129 102 118 120 110 122 103 107 115 100 126 116 110 103 97 71 148 135 183 170 193 168 183 183 181 187 184 175 185 177 133 169 180 129 179 178 147 184 159 169 187 149 172 156 156 173 149 177 155 163 180 165 187 176 178 184 172 186 179 184 172 182 168 166 92 152 164 162 153 114 121 164 139 156 155 132 113 122 99 129 128 104 129 133 130 128 112 120 117 99 95 73 106 69 6 66 89 85 90 98 88 95 100 32 92 81 44 74 52 70 97 108 106 107 157 151 150 142 114 146 156 165 218 179 222 217 183 231 205 225 198 227 210 203 188 145 150 142 125 134 144 148 152 120 84 82 131 93 133 109 137 109 120 80 122 62 106 99 107 86 90 76 108 113 111 124 84 84 29 79 96 56 103 101 103 121 62 130 128 122 74 145 163 150 158 166 116 113 162 158 146 133 141 113 156 88 120 153 133 140 148 114 86 133 126 123 129 124 113 129 131 125 126 115 125 116 120 124 114 87 103 98 105 102 97 115 103 107 40 86 108 58 75 100 85 112 49 87 73 75 68 60 79 77 76 51 27 88 34 48 42 77 52 40 64 56 7 36 64 80 8 62 24 59 24 45 38 51 55 101 94 102 111 137 134 121 120 81 126 145 160 176 71 202 162 186 175 125 174 161 185 98 166 159 128 135 148 121 87 83 91 108 103 89 72 89 99 114 116 97 105 102 82 98 89 23 32 88 63 83 71 91 71 31 97 66 79 66 57 87 25 100 29 76 96 94 137 122 158 124 162 166 165 184 167 80 138 168 113 142 112 126 120 85 122 83 112 88 106 107 83 85 67 38 50 80 48 83 82 81 48 83 83 25 53 54 64 25 65 66 64 9 40 47 25 36 59 52 53 54 39 51 60 32 49 54 45 52 67 37 50 45 7 58 33 11 59 22 70 55 46 27 30 55 27 29 59 38 64 43 31 13 5 55 60 2 57 28 12 82 90 71 97 83 96 105 58 65 61 151 152 92 183 153 185 153 157 169 99 170 143 145 145 85 124 118 118 94 69 78 85 67 91 77 88 71 26 73 69 98 73 85 57 70 64 9 66 63 27 69 59 85 21 78 34 65 79 79 87 77 107 104 122 99 129 131 139 158 144 149 151 116 158 131 115 124 131 106 108 79 87 73 70 63 66 84 82 58 90 78 43 65 14 66 32 45 35 58 38 29 6 59 66 62 13 64 42 72 19 72 22 5 19 43 52 43 43 36 18 35 12 56 53 46 55 61 55 47 38 8 41 19 50 39 51 37 50 64 35 29 53 38 66 26 49 48 48 23 66 54 44 37 61 51 41 42 49 84 65 78 34 62 86 102 115 106 58 99 146 156 140 169 154 169 170 165 171 142 178 147 162 169 148 163 134 130 98 91 100 117 109 125 104 111 94 94 88 109 103 93 93 47 63 62 99 118 125 112 123 118 134 125 136 126 132 100 122 80 110 114 124 128 136 131 115 133 135 114 116 101 118 95 83 57 39 69 44 63 69 43 70 30 13 23 28 32 68 43 41 36 18 12 49 36 33 45 43 5 35 0 34 43 54 8 9 20 47 24 59 34 23 6 34 15 10 5 18 43 53 49 42 9 31 64 66 56 22 47 34 38 32 49 41 58 49 19 40 25 33 55 42 61 12 41 13 47 49 56 48 41 45 51 22 32 49 46 74 75 35 63 92 88 87 78 96 88 94 131 99 126 148 110 101 142 153 161 112 155 165 165 175 162 172 136 126 53 111 101 108 125 131 117 122 108 91 119 128 125 110 111 106 87 107 120 135 132 128 133 132 144 143 148 142 142 131 124 105 99 87 97 79 133 91 126 98 94 41 77 73 51 42 65 37 56 65 44 55 55 25 55 17 18 20 34 38 33 24 26 31 14 20 8 17 23 40 25 29 11 3 6 25 51 20 25 33 43 21 31 23 13 9 9 18 24 20 11 17 43 20 31 29 33 34 24 0 25 33 35 28 17 18 27 26 28 17 28 26 25 34 13 42 27 26 19 24 20 20 10 0 35 40 7 42 23 21 39 49 5 69 80 68 30 59 55 59 57 103 94 63 120 107 134 102 105 141 116 138 137 124 139 121 141 113 115 68 92 80 65 101 104 90 108 80 99 96 111 111 102 102 107 97 99 89 104 89 85 85 89 112 104 117 99 103 105 81 80 47 48 25 42 104 90 88 84 61 49 40 55 52 46 38 21 47 8 29 34 37 14 32 9 1 5 14 15 5 8 22 8 1 30 15 3 22 20 32 34 3 22 20 20 5 11 18 23 23 5 32 1 5 9 15 9 10 12 15 19 12 4 15 35 3 9 2 10 3 10 10 6 19 0 15 15 18 13 22 24 12 6 19 24 19 16 18 18 5 7 29 0 19 28 11 31 23 27 19 34 32 7 40 31 37 37 35 32 34 77 36 56 98 61 129 94 105 128 86 120 65 100 75 121 86 85 97 78 43 36 25 55 61 23 76 60 72 45 49 44 58 35 61 39 29 3 11 67 50 70 64 53 33 14 40 36 25 18 56 40 42 54 19 92 59 41 35 17 51 10 50 26 34 26 14 29 15 12 16 13 17 25 1 13 20 5 4 5 14 24 2 25 39 4 19 5 0 22 33 9 6 23 1 12 6 20 9 14 13 26 20 4 25 17 0 6 3 11 1 1 5 1 21 9 12 17 1 7 7 11 15 25 16 10 15 8 8 14 15 10 0 8 11 7 5 13 6 2 27 32 20 3 22 10 38 13 2 36 47 38 35 30 45 36 26 25 34 20 70 34 63 95 31 120 66 93 120 56 116 73 102 79 96 84 91 74 64 44 35 49 26 61 42 64 37 69 60 50 53 47 47 33 11 57 54 38 31 38 55 27 59 19 32 54 19 37 43 61 47 52 49 42 75 7 68 34 43 43 34 58 57 41 16 8 9 3 24 1 10 2 0 5 4 14 7 1 5 1 9 9 9 7 1 35 12 0 13 15 7 0 9 16 25 4 9 4 3 10 28 19 7 24 3 4 0 8 5 21 3 0 25 23 14 20 12 10 8 6 14 14 25 22 24 5 9 7 13 18 4 9 2 16 1 6 2 9 21 18 9 24 4 34 15 29 26 17 61 64 34 67 69 55 45 39 18 32 46 42 19 27 91 52 104 93 76 117 83 118 107 103 106 17 119 96 98 62 47 43 72 39 40 43 74 66 54 46 52 42 33 54 34 26 29 35 58 34 50 28 5 47 22 41 52 27 34 40 64 52 55 17 33 49 16 64 19 58 65 44 36 50 8 27 34 24 23 32 11 15 8 8 2 8 2 6 10 3 19 6 11 8 1 20 25 3 9 7 4 13 5 0 19 26 1 9 6 3 8 24 13 14 4 9 14 1 0 16 31 19 13 18 21 23 10 7 5 7 23 17 9 14 17 16 4 5 14 8 20 3 26 18 16 22 22 24 20 6 6 14 11 3 43 16 10 27 25 63 63 41 66 68 69 68 58 34 49 45 57 67 71 104 99 39 46 63 101 96 106 109 95 52 97 127 64 102 94 76 69 67 62 6 55 58 59 60 5 52 64 12 55 49 52 14 27 50 23 15 29 31 22 67 65 79 46 13 33 41 43 68 50 45 45 72 102 79 88 68 45 42 29 71 67 39 75 33 25 55 32 36 24 3 19 14 13 17 17 2 20 10 11 8 19 9 7 14 23 24 13 13 21 1 0 2 16 0 9 12 10 29 8 11 32 2 16 4 11 23 20 9 1 33 8 8 5 14 16 28 3 0 1 3 9 11 7 14 15 9 7 18 7 28 26 28 7 1 16 8 20 0 5 34 1 10 17 5 46 37 35 61 17 61 51 36 44 62 58 74 96 79 124 121 119 124 101 116 94 70 37 106 110 103 120 91 110 101 97 92 6 56 35 70 25 9 66 61 71 63 29 49 78 54 55 48 56 45 34 34 70 86 105 110 90 38 60 67 33 42 67 56 70 45 100 117 114 102 68 49 33 57 84 85 85 94 79 69 78 54 69 57 27 24 10 24 32 14 30 25 11 13 14 23 22 37 44 24 28 26 12 22 6 23 26 12 3 4 18 11 36 8 30 47 25 18 8 20 1 22 10 21 44 15 34 12 10 28 7 1 9 5 4 17 24 9 13 21 12 5 6 4 14 24 16 2 24 27 6 22 9 5 11 12 15 14 7 41 15 47 58 66 49 36 23 47 58 52 57 81 30 122 108 120 115 44 122 88 66 81 84 107 87 88 86 84 70 84 72 45 49 74 45 4 11 16 60 42 2 20 44 77 66 67 78 39 79 75 41 67 83 96 106 70 46 56 65 52 28 47 50 61 40 83 92 100 81 10 10 36 1 54 67 69 69 72 61 66 60 56 59 23 19 12 11 21 17 35 21 11 0 20 11 12 36 39 20 33 37 15 7 20 5 56 20 12 17 5 33 32 3 29 16 19 12 28 1 10 11 5 25 15 1 35 15 7 29 9 6 11 7 12 12 10 10 6 5 11 14 16 25 0 13 0 13 10 24 3 6 13 6 8 15 6 27 14 60 43 28 42 64 22 20 3 28 58 21 64 20 49 102 67 108 71 69 110 52 58 106 83 90 27 77 59 36 22 49 57 54 33 72 40 61 49 25 19 35 34 47 4 63 52 40 72 78 58 77 51 10 51 49 65 32 29 35 41 28 20 12 35 12 50 15 4 8 47 47 43 20 27 34 31 17 19 11 12 16 30 13 32 26 10 18 29 9 35 36 30 2 18 27 18 20 23 7 26 22 40 5 7 14 24 54 41 13 7 14 26 39 26 17 17 25 0 18 17 3 5 15 22 11 4 18 25 20 6 2 2 0 10 7 10 9 16 0 9 7 17 1 24 10 11 3 11 11 23 8 4 0 7 16 10 3 6 1 70 32 47 25 50 8 24 32 29 50 4 58 45 43 100 52 74 69 46 104 48 100 95 80 88 23 89 52 41 49 32 54 41 23 43 18 64 27 37 33 0 20 13 23 48 0 20 11 54 21 57 48 28 21 18 3 33 33 28 38 24 30 38 20 21 54 36 44 32 54 19 20 35 3 32 38 29 33 45 2 38 12 28 43 28 43 40 24 35 3 45 36 25 21 33 17 37 22 26 27 5 30 27 19 16 0 29 27 9 25 21 6 35 40 21 15 31 26 13 5 3 7 14 17 16 10 22 7 11 1 15 7 15 12 6 12 13 16 11 4 23 9 8 21 13 20 0 8 26 17 22 29 14 29 7 25 25 14 13 58 52 49 45 11 11 27 46 54 20 34 45 57 42 103 31 59 98 51 99 50 89 81 63 65 23 81 64 2 16 38 15 47 44 14 36 68 35 11 44 49 46 41 19 14 26 13 29 13 16 39 53 0 10 21 3 20 21 22 24 30 6 47 11 33 60 34 52 7 66 9 46 40 22 54 37 59 39 65 44 55 60 65 68 65 64 56 59 65 39 53 49 45 27 42 23 35 24 36 19 20 28 39 33 2 18 27 6 10 36 28 5 21 25 18 18 4 26 21 7 12 2 5 17 34 17 19 31 16 22 17 10 14 22 6 4 16 12 23 21 32 7 11 9 7 15 2 3 20 16 24 41 17 32 27 35 36 20 31 37 37 46 58 35 8 16 35 51 29 40 59 63 33 93 54 81 100 40 85 62 79 55 53 31 37 80 45 18 14 19 3 57 31 41 63 82 48 44 57 65 58 35 15 35 27 38 26 43 14 27 63 48 34 16 19 26 5 6 3 36 19 46 23 46 53 21 42 45 65 44 68 38 51 57 46 74 65 51 49 29 57 55 44 62 53 29 49 55 26 33 47 23 9 26 19 12 17 14 9 17 9 10 11 0 10 33 4 3 21 15 16 10 5 1 6 13 3 17 19 5 12 8 0 30 6 11 15 16 25 11 20 1 10 15 15 6 12 12 19 28 12 2 10 2 1 1 15 5 14 9 20 13 22 29 19 25 9 30 10 1 37 22 6 15 29 17 38 43 11 27 68 44 77 38 70 82 27 52 37 75 42 64 49 3 71 45 27 14 4 30 43 1 60 42 76 20 73 53 69 60 19 1 63 42 63 35 65 33 36 70 58 65 46 36 50 26 33 22 43 46 51 19 43 34 33 51 52 57 41 56 31 41 39 24 60 61 5 31 35 18 28 8 22 21 23 3 25 10 17 24 4 19 11 24 0 10 17 10 7 6 14 7 10 6 42 18 3 10 3 18 7 1 4 3 17 5 12 10 0 17 5 12 16 12 27 20 5 13 15 27 11 7 9 27 0 10 1 14 18 10 21 16 7 1 5 18 12 13 0 3 17 10 15 1 24 11 14 15 8 13 11 12 0 22 22 23 31 1 29 31 29 56 37 23 42 37 19 13 61 11 52 50 5 29 58 45 25 28 38 45 17 47 40 72 55 70 39 70 45 36 44 49 41 51 39 59 23 44 56 43 63 35 18 46 3 30 29 31 52 40 28 41 33 25 55 39 48 47 43 24 19 49 17 24 42 16 15 15 4 4 11 7 13 11 26 12 8 5 7 7 8 14 16 3 7 12 10 4 10 18 2 9 14 25 14 4 8 0 16 8 5 11 5 10 4 5 3 1 14 1 2 2 10 11 27 13 0 11 8 21 7 0 25 6 1 2 2 4 0 18 11 6 3 16 10 13 19 7 5 10 6 2 1 30 2 3 7 25 7 5 8 11 13 22 12 20 7 5 30 3 44 24 16 8 19 12 19 37 26 1 42 13 16 30 21 2 24 16 28 2 18 19 60 47 48 57 55 41 48 43 35 72 48 40 31 10 47 19 32 36 2 2 23 6 9 26 7 46 12 6 36 18 2 37 29 20 2 33 18 10 39 18 0 21 2 13 12 8 4 15 22 5 12 10 6 5 5 5 10 12 10 12 5 8 0 10 13 10 10 5 2 5 1 6 1 3 4 13 5 5 12 12 2 7 0 4 6 4 4 8 2 16 19 12 17 9 5 25 10 10 6 9 15 15 9 8 15 1 16 2 0 11 21 4 3 23 6 13 0 0 5 4 18 17 1 1 19 12 7 1 27 30 25 10 15 6 18 34 3 35 21 15 0 23 5 13 16 3 27 21 17 12 20 13 15 0 13 11 23 14 15 14 19 3 25 17 9 12 12 39 45 32 6 13 20 36 10 7 3 10 21 16 8 0 29 12 29 8 11 3 16 1 1 4 16 8 15 7 10 17 3 0 19 3 12 5 9 4 4 11 18 18 11 4 0 5 0 2 10 6 11 6 13 7 0 19 22 0 5 3 2 4 1 2 4 4 6 10 8 14 13 21 16 6 12 11 9 9 4 0 25 21 2 12 22 14 24 0 8 11 1 9 14 23 8 27 2 5 8 3 12 15 2 8 11 5 24 3 1 15 9 14 20 7 24 7 13 7 20 24 17 9 21 25 5 13 14 10 9 20 3 0 18 4 22 12 3 12 12 8 5 22 7 13 13 8 3 21 0 3 0 9 13 7 10 7 6 14 22 5 0 0 4 17 23 4 3 10 16 20 21 6 12 17 29 6 27 0 32 3 4 27 8 6 15 9 0 12 8 9 7 0 3 8 12 7 5 11 3 17 9 12 15 4 8 14 7 9 5 16 1 3 0 16 17 2 3 4 9 12 2 4 6 3 2 10 2 4 10 9 31 17 11 2 9 22 2 3 0 19 4 1 1 19 13 9 3 8 6 2 10 3 16 7 17 2 3 6 15 8 15 2 8 4 7 12 2 12 14 13 7 12 5 37 6 2 9 24 34 7 5 7 16 11 14 17 15 6 20 20 16 13 2 23 1 7 13 1 0 15 0 3 8 28 3 1 6 7 3 0 2 14 6 10 19 13 16 4 3 9 3 6 12 28 15 7 9 37 18 17 29 12 7 26 16 27 5 37 14 15 39 26 37 41 34 4 14 33 38 35 23 21 4 30 8 17 21 27 21 3 2 17 1 28 21 2 17 1 18 8 19 12 15 8 12 4 4 5 22 3 1 1 1 10 12 4 11 4 5 31 6 7 1 12 19 8 9 8 1 0 0 2 11 17 8 9 7 4 3 0 4 15 13 14 8 0 1 23 9 22 2 3 10 16 2 8 5 15 0 0 9 13 35 12 10 1 12 25 14 6 11 6 2 14 43 9 14 16 21 0 7 11 8 1 8 27 7 20 39 20 11 1 31 11 27 14 10 1 4 1 18 7 17 17 11 4 6 21 34 13 2 31 28 9 1 18 36 3 27 29 22 15 9 6 10 24 30 29 11 36 6 34 44 39 7 4 32 34 36 24 17 3 23 26 15 30 18 20 8 9 20 9 15 20 7 4 8 4 3 23 16 0 7 7 1 0 5 17 20 13 7 1 9 10 9 16 5 9 23 4 25 5 19 8 8 2 13 6 10 1 1 17 21 13 10 9 9 0 6 5 9 12 22 8 5 5 20 4 18 6 9 6 6 16 2 12 24 21 12 7 0 28 6 6 7 25 23 17 14 15 11 3 11 40 17 15 10 16 7 11 32 3 15 14 5 13 25 33 32 23 4 30 25 42 24 17 8 10 9 31 5 38 14 1 11 20 28 63 14 37 32 39 14 26 16 23 19 24 18 11 1 15 16 8 36 15 28 26 18 9 7 32 34 5 5 9 10 20 11 17 5 2 3 7 34 9 14 10 10 27 27 15 33 16 19 0 1 3 10 26 3 8 6 0 1 14 10 17 8 20 9 5 4 12 14 0 4 7 14 10 17 7 10 2 0 14 14 22 5 12 22 5 12 9 17 10 15 18 14 5 8 14 7 0 15 16 1 8 13 10 3 8 23 17 24 32 27 23 15 0 22 2 6 8 24 19 18 13 8 15 6 20 23 20 28 31 11 5 3 24 16 41 36 5 55 27 56 49 51 43 68 44 70 53 38 53 17 34 24 38 35 33 12 24 23 22 70 39 61 27 62 36 32 44 5 35 14 31 2 10 4 2 2 23 7 20 24 24 29 23 23 26 15 19 10 6 24 6 16 0 14 12 1 24 9 0 24 16 16 17 16 23 0 16 2 8 10 5 19 8 0 3 2 4 3 4 17 3 17 5 2 3 0 7 3 4 5 11 7 1 0 3 10 0 16 11 11 8 19 13 6 1 19 2 23 18 11 4 0 8 4 11 15 12 7 9 6 12 5 4 9 23 8 11 14 5 16 19 3 20 7 3 3 31 26 24 2 30 17 22 11 43 3 43 53 21 23 12 13 9 46 0 50 62 47 76 52 61 51 79 75 73 78 75 70 50 58 61 78 79 76 55 39 66 64 69 16 85 46 79 24 28 46 14 51 5 42 5 11 8 26 12 11 7 38 10 43 42 52 32 26 25 50 31 29 27 3 1 6 15 10 3 9 10 2 20 13 0 13 0 8 13 8 0 2 0 10 5 8 7 0 4 15 4 10 13 4 6 2 1 10 16 1 6 9 3 19 14 3 0 1 20 7 2 12 0 13 11 1 14 4 18 3 26 15 3 5 10 13 0 0 26 3 6 4 7 12 3 16 12 25 3 5 3 9 1 11 2 16 2 22 32 18 20 17 11 34 3 23 5 38 18 64 37 0 11 3 35 17 27 36 55 41 30 61 31 57 40 78 65 62 65 70 60 49 32 77 65 89 59 50 22 63 62 75 24 89 59 74 42 55 31 46 52 16 39 19 9 18 28 13 14 31 38 30 66 66 62 28 42 13 53 47 46 0 34 25 5 15 9 9 24 9 6 10 1 1 5 10 16 12 14 5 11 3 8 4 8 11 2 4 19 7 18 5 0 3 0 2 1 16 2 9 11 10 17 23 1 1 14 12 14 9 4 1 10 3 3 19 0 19 9 19 2 9 0 16 6 4 6 25 1 11 0 11 5 6 13 11 15 2 5 12 11 4 9 1 12 10 14 29 6 2 2 25 22 8 7 21 5 17 56 3 26 14 7 35 17 10 28 47 31 21 24 2 54 32 66 31 53 14 2 51 33 20 59 54 54 13 12 25 34 37 67 61 66 43 46 19 25 39 49 36 18 32 19 16 36 25 19 25 24 44 34 69 70 69 38 49 41 39 44 21 13 30 40 24 11 23 19 2 13 15 13 3 8 3 11 26 4 9 18 9 7 1 7 6 13 5 9 16 12 11 9 1 4 0 4 16 10 1 14 9 2 16 40 23 23 14 1 12 18 13 6 4 4 37 8 0 6 10 5 12 2 0 9 3 0 0 23 5 13 7 0 27 14 1 17 5 14 7 9 9 16 18 15 4 29 9 17 0 25 30 38 46 0 16 2 17 19 19 34 8 16 27 29 15 22 33 16 8 33 3 9 45 31 55 21 27 3 28 22 39 44 45 54 42 26 28 36 47 4 64 55 53 60 51 15 52 43 39 48 33 44 14 41 38 48 22 47 24 75 33 63 47 62 40 19 23 24 17 14 13 19 10 22 3 29 2 21 20 7 18 11 25 16 1 8 18 4 19 9 14 3 1 22 7 2 21 5 26 10 4 9 9 1 10 5 33 12 10 15 0 10 48 27 20 9 11 9 11 17 7 10 21 38 33 9 3 16 16 15 12 5 5 28 12 13 31 8 12 6 12 41 20 11 5 17 17 19 9 4 6 9 26 12 25 22 30 11 25 46 16 42 22 21 25 7 9 21 56 22 4 19 13 32 34 31 18 33 49 46 16 32 17 52 18 22 21 37 9 30 42 50 32 23 12 17 47 45 24 35 65 25 27 27 47 57 51 37 58 47 47 27 28 36 49 39 50 47 65 51 65 40 66 2 0 29 15 6 12 12 36 37 15 17 27 1 26 2 28 3 20 27 9 18 17 34 23 30 31 7 10 11 17 2 23 1 28 26 26 0 16 10 2 13 12 28 7 28 5 15 4 43 37 18 26 5 4 13 20 1 29 21 9 38 29 8 19 11 10 21 8 8 22 4 0 28 22 21 6 19 30 10 13 1 30 26 31 8 5 1 14 2 0 20 31 36 16 20 50 17 5 11 7 20 34 16 25 42 21 14 6 3 23 9 25 17 34 28 48 20 36 30 48 32 18 16 45 17 36 27 32 1 4 1 10 26 41 12 29 54 60 6 57 35 55 49 33 58 63 51 4 19 7 44 29 49 45 49 56 67 61 80 40 38 38 5 3 22 12 22 28 16 20 14 12 43 6 19 31 30 34 26 9 33 30 30 26 27 12 7 16 10 1 33 18 26 8 18 14 27 10 23 19 25 8 0 34 9 27 10 27 20 16 21 3 5 14 3 7 23 15 7 13 19 2 13 4 9 30 10 3 3 7 9 20 36 25 22 6 12 0 7 8 27 1 13 34 9 1 9 17 8 31 28 27 28 0 34 5 34 20 14 23 23 45 36 49 30 26 18 21 20 11 31 17 16 6 31 9 35 35 24 43 25 26 31 12 35 4 3 8 40 39 26 24 40 7 40 11 52 65 72 47 84 68 61 58 74 37 39 39 27 51 21 55 45 46 69 53 69 75 81 37 21 38 23 41 2 11 3 10 11 1 42 50 30 37 45 56 53 37 29 35 32 16 5 6 2 8 13 13 17 36 30 19 1 11 28 31 14 29 10 16 5 16 18 13 12 21 22 21 9 9 9 1 3 5 11 23 20 12 3 1 21 4 6 15 32 22 14 19 1 0 4 34 21 26 23 22 3 8 12 14 16 13 36 0 2 11 19 11 28 1 18 30 11 2 4 23 25 14 2 19 49 8 53 4 12 24 17 20 33 19 27 9 8 20 0 12 17 10 19 5 20 13 15 33 8 23 12 40 55 47 8 3 35 32 35 38 70 55 26 81 57 72 70 68 25 54 49 21 25 19 38 50 11 50 38 54 60 86 64 57 46 46 32 3 21 18 16 17 20 37 36 22 30 25 43 49 19 5 24 25 19 5 10 14 5 20 8 18 20 9 6 3 4 4 23 15 3 16 12 4 31 17 17 0 8 6 18 8 3 17 12 17 9 25 27 18 31 9 13 22 11 12 13 23 24 35 24 21 22 10 29 21 12 5 38 6 6 11 0 2 16 6 25 14 5 6 22 15 13 33 30 18 11 10 23 19 2 30 25 14 4 33 1 36 33 18 25 30 15 25 1 22 2 4 7 10 23 9 26 22 31 27 33 2 36 18 34 27 22 13 17 23 21 32 20 59 23 40 42 36 30 43 46 8 42 46 22 5 18 28 20 2 21 32 33 50 66 49 79 19 43 27 18 13 37 8 14 21 0 28 1 5 20 0 34 9 16 1 30 11 5 2 14 19 19 23 2 2 1 5 1 8 19 22 24 9 6 20 12 13 21 14 12 2 12 2 2 19 37 3 24 4 9 3 2 25 11 16 9 6 5 18 25 3 36 1 13 29 6 24 29 19 4 24 6 13 10 15 10 33 14 21 21 6 10 20 5 21 33 22 7 25 0 41 11 26 46 2 21 27 28 22 37 39 36 16 1 38 19 15 32 10 22 4 37 39 23 29 23 23 23 46 8 30 35 40 17 23 31 9 26 22 40 7 27 29 25 1 13 32 34 23 13 15 30 22 23 22 43 28 15 11 31 40 36 25 51 68 34 47 33 4 37 29 18 12 24 19 18 24 29 23 24 15 4 5 33 26 14 17 10 5 21 0 4 2 14 6 11 13 2 15 9 42 15 5 29 37 27 13 7 19 4 12 10 7 30 38 9 8 13 20 20 3 13 11 8 34 20 13 17 2 16 19 12 18 23 12 4 12 7 15 12 22 10 6 34 10 26 19 2 31 20 27 15 8 18 33 11 28 13 15 32 23 34 52 19 13 31 26 17 6 31 36 10 23 31 29 14 23 32 13 1 31 17 11 11 14 19 16 45 36 8 12 31 22 32 20 0 26 28 38 1 21 32 16 5 4 21 25 4 29 28 33 27 18 23 48 23 39 29 46 13 33 2 27 31 6 38 29 19 6 26 13 36 0 6 18 26 31 15 24 15 16 12 39 7 31 7 18 1 25 13 1 0 19 12 0 30 23 7 15 27 5 8 20 30 36 13 16 11 0 0 18 31 35 17 25 13 5 30 8 12 27 1 13 31 31 13 5 26 17 3 6 37 18 34 26 15 1 39 13 4 20 21 25 0 18 22 1 15 10 12 15 4 15 33 18 8 17 12 27 6 45 43 9 26 15 36 20 3 19 43 12 34 8 5 24 21 15 35 18 5 5 6 4 24 28 16 42 45 10 13 11 0 23 4 28 1 30 31 22 22 19 12 16 19 2 10 9 18 20 21 28 12 20 36 19 35 31 35 1 22 5 10 14 16 11 11 4 12 4 25 21 12 19 7 11 13 23 12 16 29 18 22 13 21 26 11 20 5 28 11 2 7 10 24 20 8 26 32 22 6 30 24 0 14 17 24 5 13 12 28 38 19 9 23 24 18 13 0 12 36 11 6 16 18 15 15 28 34 2 15 26 23 26 22 17 8 34 19 2 18 6 17 17 13 12 8 9 15 20 1 3 12 27 33 10 38 22 20 10 34 35 14 33 32 14 27 35 33 58 43 54 54 1 58 2 17 55 20 11 1 2 26 10 18 16 5 23 6 14 17 7 35 0 41 15 52 50 37 25 9 7 45 38 28 12 16 17 30 33 5 30 18 33 27 7 21 1 6 12 0 4 9 14 16 12 25 4 2 29 2 34 15 0 18 4 18 25 5 28 11 4 17 20 41 26 27 14 20 29 15 7 6 22 24 19 24 28 13 34 35 36 27 17 12 24 17 24 29 21 21 17 28 6 16 31 22 2 6 26 8 18 8 4 12 9 14 34 9 12 4 6 21 21 33 29 20 16 2 11 7 31 21 14 4 17 21 13 26 9 11 12 33 31 4 21 33 31 46 6 35 9 28 25 11 11 35 23 62 33 44 50 36 49 52 27 35 31 5 13 6 30 6 21 9 19 3 35 28 17 10 24 38 27 17 46 45 13 11 6 3 36 16 37 20 25 34 23 39 8 34 17 8 27 9 16 17 5 11 17 14 11 10 23 12 15 0 12 22 11 32 20 3 34 2 9 36 3 26 4 8 32 10 34 42 0 10 15 17 13 20 21 15 24 32 28 25 10 30 17 28 34 27 5 17 23 28 35 23 9 0 35 30 7 16 21 10 4 14 30 15 7 5 6 19 28 16 10 0 7 14 18 31 26 27 24 18 7 3 12 17 17 28 3 34 25 19 7 5 20 17 35 33 35 22 23 35 67 53 54 31 2 19 4 41 28 35 28 32 49 42 37 13 54 47 24 8 7 24 0 23 36 41 9 35 1 43 1 8 22 14 45 28 44 18 42 13 28 28 7 0 13 30 30 25 45 13 16 30 33 7 19 48 23 37 42 17 29 38 24 16 6 0 4 1 19 13 10 18 38 32 3 41 14 12 22 20 34 22 34 23 9 9 39 25 19 10 2 19 17 34 10 17 34 23 25 23 27 8 25 38 24 31 37 9 37 29 11 12 38 4 27 2 25 10 35 30 29 22 20 28 14 22 31 32 19 25 10 23 16 15 10 6 40 48 26 11 13 26 8 19 40 21 37 25 30 37 5 6 26 25 58 38 51 25 30 36 53 61 30 44 0 17 42 44 56 41 20 41 52 13 47 51 51 22 9 30 32 8 53 32 41 7 59 18 11 53 15 22 36 14 26 23 20 49 15 11 41 7 32 26 32 25 20 51 15 14 25 55 22 9 44 28 56 52 45 41 27 5 27 26 12 28 9 30 25 1 34 41 31 2 32 20 12 23 32 28 10 43 23 28 26 37 21 22 7 4 17 25 40 15 24 41 6 8 15 37 26 25 38 30 42 20 38 16 17 24 16 44 29 12 21 34 13 37 19 10 28 19 16 32 32 44 21 24 22 17 22 4 41 37 25 34 41 31 9 24 24 21 23 34 42 2 36 25 42 10 25 38 18 43 46 53 32 15 57 20 48 23 19 38 25 32 43 50 51 58 15 43 36 64 58 59 44 8 35 37 40 55 46 2 32 69 1 44 69 38 32 34 14 19 30 11 57 24 34 40 5 40 63 56 1 22 63 26 21 23 73 34 9 36 1 47 34 33 18 9 26 14 21 23 53 23 23 44 16 32 20 11 2 8 26 16 33 18 5 29 49 54 15 38 31 15 13 13 11 9 22 33 38 38 49 39 14 15 38 25 31 33 44 35 26 53 7 26 28 36 25 29 44 0 12 21 4 0 2 8 13 35 34 4 36 26 10 30 16 31 24 36 9 35 0 28 35 6 8 6 13 22 33 29 29 42 5 35 8 20 28 51 45 52 70 26 38 52 56 15 6 47 29 36 37 37 28 65 67 44 70 63 65 53 68 58 40 46 58 34 7 53 37 43 31 59 37 67 51 39 50 42 48 41 37 64 43 39 36 39 49 62 73 31 20 74 24 19 5 83 49 26 25 29 41 23 47 32 38 27 10 12 52 67 42 30 59 43 15 22 24 24 25 19 39 57 41 25 25 15 49 52 53 18 49 14 33 32 11 16 53 58 37 48 66 30 44 38 4 24 6 58 22 59 51 55 40 54 18 28 57 41 43 1 26 48 39 53 61 23 48 50 18 37 36 53 40 5 56 20 17 31 29 8 29 47 22 23 45 64 37 47 48 59 51 16 47 25 46 13 58 40 45 70 61 36 69 41 37 29 60 42 55 64 13 50 67 69 19 76 58 17 68 71 61 35 53 58 12 20 67 47 58 76 57 55 56 54 46 50 11 35 12 66 62 20 25 45 53 66 60 66 43 36 77 39 33 58 59 45 61 48 53 50 66 76 53 44 33 41 26 68 59 17 55 73 40 23 17 17 51 39 32 23 76 41 46 6 70 75 28 74 62 43 34 8 39 38 46 76 48 41 49 71 55 35 29 45 40 48 63 24 73 11 45 72 72 36 48 59 4 49 21 24 56 58 69 67 9 70 66 25 69 41 62 32 50 46 21 49 56 63 36 74 10 24 38 68 74 66 40 84 17 75 24 39 33 60 29 40 19 74 64 59 61 82 59 36 58 37 35 48 49 49 37 38 51 53 38 43 41 72 53 62 14 60 36 54 22 66 40 58 80 42 46 67 56 43 42 57 17 37 72 73 34 27 53 40 73 90 56 49 40 64 36 58 86 39 62 60 75 59 64 42 81 27 30 47 57 37 37 32 37 34 59 14 28 35 28 44 69 20 32 72 38 55 24 75 81 11 79 72 40 50 39 22 42 40 59 55 32 59 35 34 16 49 53 60 46 69 54 45 44 14 79 35 54 23 44 59 43 41 16 50 41 41 21 22 77 50 20 67 72 23 36 58 39 28 59 57 84 37 81 46 2 44 74 49 62 59 87 38 75 56 77 56 39 39 40 37 73 60 42 60 64 56 67 53 49 21 32 19 43 51 33 45 69 13 30 31 62 22 29 22 59 3 53 43 33 33 36 50 23 11 66 27 29 28 52 18 55 36 75 7 26 53 7 58 64 59 35 36 42 25 57 77 51 38 39 70 48 58 69 26 29 54 32 45 32 27 41 41 34 20 21 26 51 51 17 59 40 30 58 44 29 38 33 47 34 73 73 48 37 21 23 30 44 17 41 24 60 29 27 24 55 28 45 39 56 29 46 42 14 59 50 49 2 44 63 16 40 15 52 41 25 37 19 47 18 31 41 72 45 38 11 63 13 61 20 77 49 46 59 3 41 77 28 69 12 72 39 56 57 79 30 44 35 42 24 29 65 22 41 38 38 50 57 64 21 33 22 1 54 37 56 56 50 32 14 41 14 34 34 45 49 13 29 19 42 6 14 19 5 46 34 30 12 33 49 59 45 49 28 33 47 33 19 40 72 55 16 0 20 29 14 46 29 57 58 51 49 59 62 39 47 21 20 47 5 35 30 2 34 41 2 19 17 39 42 35 24 40 19 24 28 23 7 13 42 49 16 19 23 27 12 48 30 20 34 45 15 18 30 40 37 40 52 47 28 35 62 51 41 45 22 1 2 15 25 23 19 50 43 56 39 15 14 22 37 2 36 34 41 39 47 15 49 25 59 22 59 64 13 37 71 70 50 24 46 28 20 41 50 37 40 33 34 33 55 48 23 18 51 41 30 29 48 9 66 44 0 50 51 42 55 63 1 0 13 40 2 6 24 35 37 18 17 34 3 43 34 35 14 30 22 2 11 44 37 42 26 25 35 44 37 19 49 60 44 9 16 31 5 4 28 25 60 58 50 40 39 46 31 45 25 22 28 16 41 26 4 39 20 36 21 15 23 40 28 18 16 26 40 15 49 42 12 19 32 18 5 41 23 14 25 42 9 43 12 16 32 23 14 33 45 42 39 26 9 17 36 35 29 8 19 41 42 35 7 12 48 14 53 25 6 1 30 32 22 29 31 7 27 22 18 31 13 55 6 22 47 24 27 21 60 20 52 30 34 17 10 32 35 24 18 17 31 46 15 35 31 65 47 39 36 45 10 68 22 33 22 32 37 56 70 14 8 44 64 52 28 53 7 57 46 2 14 17 55 34 46 31 10 28 23 12 14 39 49 13 31 55 61 37 28 32 28 24 4 4 51 37 37 57 48 47 48 53 10 25 14 19 46 31 17 34 30 40 15 37 33 14 23 22 5 18 31 32 17 13 31 45 22 56 45 30 34 31 26 32 28 47 4 21 32 11 40 16 26 45 16 4 32 42 32 38 9 16 41 37 28 35 11 33 33 38 30 21 15 50 48 53 28 12 33 37 46 42 38 21 35 6 19 40 3 37 51 27 47 68 35 44 6 2 16 53 16 31 43 46 31 21 23 28 1 7 43 25 33 20 38 21 33 33 44 51 36 44 30 25 34 27 33 52 23 13 16 57 60 24 42 15 61 44 15 27 25 56 9 19 28 12 7 34 13 27 50 52 26 5 53 37 27 7 19 16 19 6 7 36 50 32 40 58 44 27 46 2 44 22 41 16 3 9 11 19 28 19 44 28 3 26 36 22 2 3 7 17 4 35 16 6 42 27 22 27 13 12 24 21 40 22 19 15 19 7 4 31 31 13 7 19 22 4 24 9 17 36 48 41 25 24 8 13 36 17 19 29 46 60 58 21 2 43 39 36 33 21 34 12 36 14 36 5 29 22 6 48 42 16 34 21 13 7 46 3 28 35 36 10 31 25 32 14 0 23 11 17 14 1 13 26 5 45 42 29 33 1 6 35 22 4 17 22 25 7 38 33 7 7 14 39 36 34 24 7 50 0 9 9 9 21 19 24 16 34 25 15 6 27 9 22 2 17 35 8 18 10 18 32 14 8 44 30 12 28 15 42 40 35 3 20 4 7 6 17 9 28 6 7 7 22 1 3 14 5 10 9 16 28 28 25 23 13 22 6 16 14 37 39 12 1 1 21 11 19 12 2 2 5 5 5 6 20 2 7 17 26 25 19 19 1 20 25 2 8 30 22 43 21 29 4 35 29 24 13 19 23 1 28 12 17 2 6 3 1 14 27 16 24 0 9 16 6 10 31 9 14 25 29 32 25 20 8 14 0 14 28 7 20 24 3 25 28 36 17 2 0 11 5 6 31 3 10 17 30 0 2 16 6 13 56 7 31 14 38 16 12 4 27 22 10 24 8 10 12 4 16 9 19 25 6 26 23 20 0 10 30 18 4 23 12 2 20 30 14 38 34 10 23 33 10 21 25 6 1 6 10 7 9 4 16 8 31 16 14 0 6 26 16 19 26 6 28 3 14 10 32 38 22 20 24 18 4 8 14 4 9 26 19 13 9 22 0 7 2 12 19 15 30 9 21 21 6 3 19 20 6 23 28 7 9 14 29 25 14 14 14 0 9 2 22 0 13 0 7 34 7 1 23 19 36 21 19 5 9 7 0 18 13 29 31 7 21 14 39 32 21 23 23 19 14 26 40 17 20 18 22 16 23 38 9 20 11 19 5 12 27 16 41 38 13 15 19 21 30 4 8 21 14 31 25 30 4 7 0 30 2 11 5 9 37 1 33 22 15 25 21 9 11 16 1 27 23 29 21 10 3 36 33 21 25 28 3 2 18 14 2 12 2 20 8 24 21 7 8 8 22 9 18 29 12 23 0 12 20 15 9 38 35 28 14 10 3 9 9 21 22 16 1 2 33 3 12 6 1 14 24 30 9 17 23 1 1 17 18 14 13 29 3 5 9 40 10 18 5 8 4 5 7 39 11 29 9 9 26 12 23 18 32 20 23 36 14 3 30 1 19 14 9 38 28 17 13 43 34 29 27 19 18 2 28 18 0 26 12 19 34 20 29 5 18 0 15 6 15 22 20 39 12 1 15 11 1 33 11 1 29 12 38 32 37 13 3 10 32 7 18 16 17 35 16 14 15 12 25 18 26 13 11 10 24 6 28 21 22 3 24 24 26 18 18 12 4 31 10 2 16 1 12 2 9 26 15 12 3 13 14 14 24 0 5 21 2 11 15 22 26 24 10 14 13 6 2 16 25 9 6 3 5 31 8 0 19 8 6 22 4 17 12 27 6 7 8 17 24 11 23 0 3 21 40 1 24 6 4 0 9 2 31 23 24 13 1 26 23 32 20 4 18 29 27 15 14 19 18 0 19 7 20 24 12 16 36 28 26 31 21 14 5 34 4 0 8 10 10 31 1 30 1 12 2 16 10 13 12 12 7 17 1 11 20 13 31 9 1 25 1 25 16 29 23 4 12 18 2 5 21 0 8 32 1 8 6 16 18 28 11 13 12 11 4 23 1 25 22 4 1 21 16 3 12 26 27 5 0 16 8 0 19 4 21 22 10 14 11 10 4 21 13 13 28 10 2 6 12 6 0 14 7 17 11 20 21 4 1 18 21 31 16 3 11 30 6 5 20 19 16 10 29 3 8 14 26 20 23 16 1 12 25 22 7 11 14 11 3 16 4 16 12 7 4 9 19 8 19 33 36 23 18 0 6 6 9 22 8 16 10 9 16 26 19 27 20 35 15 25 7 14 26 3 18 25 9 18 16 2 24 9 4 7 22 5 24 10 5 7 7 0 9 15 5 10 14 1 21 8 3 16 23 26 16 22 1 13 11 16 26 5 13 9 0 12 3 17 4 22 5 1 7 14 25 16 10 29 10 12 0 14 1 1 11 3 11 0 7 10 10 21 16 18 17 13 18 21 17 6 5 20 4 15 21 0 16 5 3 24 3 2 9 4 24 20 24 6 9 21 28 22 7 4 10 1 7 17 18 9 3 20 7 11 5 16 20 15 17 1 22 14 2 9 0 10 12 4 15 6 4 9 1 0 16 7 2 1 24 36 25 8 22 15 2 9 30 3 13 10 8 28 37 15 32 33 28 8 28 17 2 27 0 11 17 11 24 16 19 14 16 1 5 15 3 19 15 11 19 4 10 18 1 2 20 18 2 18 30 9 20 28 23 29 16 8 35 8 17 33 9 21 37 2 18 3 11 4 28 22 22 7 19 16 27 12 29 26 24 17 7 2 0 26 19 12 3 7 28 0 8 18 15 7 18 15 15 2 8 10 13 5 10 29 11 6 15 2 30 23 9 7 3 6 37 38 11 7 13 26 8 5 8 5 1 8 14 16 12 17 0 2 17 20 12 32 41 29 1 16 19 9 21 7 4 6 13 0 21 6 8 3 2 6 18 2 8 17 34 25 6 19 12 2 0 36 5 1 9 19 27 14 23 16 22 17 13 13 26 37 31 10 9 6 12 10 7 27 26 1 0 3 10 4 14 9 4 19 3 10 9 12 0 10 2 5 3 33 17 10 27 25 20 17 13 32 8 13 31 19 30 40 5 13 8 13 11 0 43 24 4 14 12 30 19 12 2 19 24 12 5 9 25 14 2 2 3 17 17 8 8 5 3 8 1 3 12 5 2 11 6 3 22 10 7 7 3 19 26 1 1 1 7 11 21 18 0 7 28 8 9 8 8 1 11 10 13 6 20 6 3 16 26 32 33 11 37 0 17 13 7 19 6 3 1 16 9 11 8 3 12 1 5 27 15 2 5 13 19 19 1 10 2 1 19 2 1 0 21 8 6 7 4 3 2 8 2 5 23 8 7 0 1 7 1 4 10 8 1 2 2 7 2 2 0 4 10 8 5 8 7 0 4 3 3 0 12 9 0 4 16 3 5 10 13 6 1 11 6 3 15 6 3 9 9 6 11 26 12 1 1 11 12 14 3 4 2 5 3 1 7 1 1 1 1 1 6 9 2 2 1 2 0 0 0 4 0 6 6 2 0 8 1 0 0 2 9 6 3 4 3 1 0 6 12 0 0 19 3 8 0 10 1 9 4 5 0 6 2 0 1 3 24 18 8 23 1 10 6 7 3 3 2 0 6 2 1 2 4 7 3 9 12 14 1 7 2 2 8 2 5 0 3 4 1 1 1 5 3 8 2 3 1 2 1 0 2 2 2 1 6 2 2 0 3 2 4 2 1 2 1 0 1 0 0 4 2 4 1 1 0 11 3 0 0 0 1 0 2 9 1 1 2 2 0 2 0 0 5 0 0 1 6 2 3 1 7 7 0 2 10 0 7 0 0 0 6 0 0 0 0 1 0 1 1 2 1 1 0 0 2 0 3 0 0 0 7 1 3 1 3 0 0 0 2 3 1 2 0 0 5 1 6 3 0 2 6 1 1 0 6 0 3 4 3 2 0 3 0 0 1 4 0 2 1 0 1 0 3 1 0 0 1 2 0 0 0 1 1 3 1 0 5 6 7 1 2 4 2 0 1 0 3 3 3 0 1 3 4 5 0 0 1 0 0 1 1 0 2 2 0 0 0 0 3 5 1 1 0 2 0 0 2 1 2 1 1 0 0 0 5 0 0 0 2 3 0 0 5 1 0 0 3 0 0 0 0 4 0 0 0 2 0 1 0 7 2 0 0 1 0 3 0 0 2 1 1 0 0 0 0 0 2 0 0 1 0 0 0 0 0 1 0 1 0 0 0 3 1 2 1 0 0 0 0 0 1 1 0 2 1 2 0 0 1 2 0 0 1 2 0 1 1 2 0 0 2 0 0 0 1 0 1 2 0 2 0 0 1 0 0 0 0 1 0 0 0 1 0 0 3 6 5 3 2 0 1 0 1 2 1 1 2 2 0 1 0 1 0 0 0 0 0 2 0 0 2 2 0 0 0 0 0 0 1 1 1 0 0 0 0 2 1 0 0 0 0 0 0 0 0 0 0 1 2 0 1 1 0 0 0 1 0 0 0 0 0 0 0 1 0 0 0 0 0 0 0 0 0 0 0 1 0 1 0 0 0 0 1 0 0 1 0 0 1 0 0 0 0 0 0 0 0 0 0 0 0 0 1 0 0 0 0 0 0 0 0 0 0 1 0 0 0 0 1 0 0 2 0 0 1 0 0 0 0 0 0 0 0 0 0 1 1 0 1 0 0 0 0 0 0 0 0 0 0 0 0 0 0 2 1 2 0 4 0 1 0 0 0 2 2 2 1 0 0 0 1 0 0 0 2 0 0 2 0 0 1 0 0 0 0 1 0 0 0 1 0 0 1 0 1 0 0 1 0 1 0 0 0 0 0 0 1 1 0 2 0 0 0 0 0 0 0 0 1 0 1 0 1 0 0 0 0 1 3 1 0 0 0 0 0 0 0 0 0 0 0 0 0 0 0 0 0 0 0 0 0 0 0 1 0 0 0 0 1 0 1 0 0 0 0 0 0 0 0 0 0 0 1 2 0 0 0 0 0 0 0 0 0 0 0 0 0 0 0 0 0 0 0 0 2 0 0 0 1 1 0 0 0 0 0 0 0 1 0 0 0 0 1 0 0 0 1 0 0 0 0 1 1 0 2 0 0 0 0 0 1 0 0 2 0 1 2 1 0 0 0 0 0 0 1 0 0 0 0 0 0 0 0 0 0 0 0 0 0 0 0 0 0 0 0 0 0 0 2 0 0 0 0 0 0 0 0 0 0 1 0 0 0 0 1 0 0 2 2 0 0 0 0 0 0 0 1 0 0 0 0 1 0 0 0 0 0 0 0 0 0 0 1 0 0 0 0 2 2 2 1 0 0 0 0 0 1 0 0 0 0 0 1 0 0 0 0 1 0 0 0 0 0 0 0 0 0 0 0 0 1 0 0 0 0 0 0 2 2 0 0 0 0 1 0 0 0 0 0 0 0 0 0 0 0 0 0 0 0 0 1 0 0 1 0 0 0 0 0 0 1 0 0 0 0 0 0 0 0 0 0 0 0 0 0 0 0 0 0 0 0 0 0 0 0 0 0 0 0 0 0 0 0 0 0 0 0 0 0 0 0 0 0 0 0 0 0 0 0 0 0 0 0 0 0 0 0 0 0 0 0 0 0 0 0 0 0 0 0 0 0 0 0 0 0 0 0 0 0 0 0 0 0 0 0 0 0 0 0 0 0 0 0 0 0 0 0 0 0 0 0 0 0 0 0 0 0 0 0 0 0 0 0 0 0 0 0 0 0 0 0 0 0 0 0 0 1 1 0 0 0 0 0 0 0 0 0 0 0 0 0 0 0 0 0 0 0 0 0 1 0 0 0 0 0 0 0 0 0 1 0 0 0 0 0 0 0 0 0 0 0 0 0 0 0 0 0 0 0 0 0 0 0 0 0 0 0 0 0 0 0 0 0 0 0 0 0 0 0 0 0 0 0 0 0 0 0 0 0 0 0 0 0 0 0 0 0 0 0 0 0 0 0 0 0 0 0 0 0 0 0 0 0 0 0 0 0 0 0 0 0 0 0 0 0 0 0 0 0 0 0 0 0 0 0 0 0 0 0 0 0 0 0 0 0 0 0 0 0 0 0 0 0 0 0 0 0 0 0 0 0 0 0 0 0 0 0 0 0 0 0 0 0 0 0 0 0 0 0 0 0 0 0 0 0 0 0 0 0 0 0 0 0 0 0 0 0 1 0 0 0 0 0 0 0 0 0 0 0 0 0 0 0 0 0 0 0 0 0 0 0 0 0 0 0 0 0 0 0 0 0 0 0 0 0 0 0 0 0 0 0 0 0 0 0 0 0 0 0 0 0 0 0 0 0 0 0 0 0 0 0 0 0 0 0 0 0 0 0 0 0 0 0 0 0 0 0 0 0 0 0 0 0 0 0 0 0 0 0 0 0 0 0 0 0 0 0 0 0 0 0 0 0 0 0 0 0 0 0 0 0 0 0 0 0 0 0 0 0 0 0 0 0 0 0 0 0 0 0 0 0 0 0 0 0 0 0 0 0 0 0 0 0 0 0 0 0 0 0 0 0 0 0 0 0 0 1 0 0 0 0 0 0 0 0 0 0 0 0 0 0 0 0 0 0 0 0 0 0 0 0 0 0 0 0 0 0 0 0 0 0 0 0 0 0 0 0 0 0 0 0 0 0 0 0 0 0 0 0 0 0 0 0 0 0 0 0 0 0 0 0 0 0 0 0 0 0 0 0 0 0 0 0 0 0 0 0 0 0 0 0 0 0 0 0 0 0 0 0 0 0 0 0 0 0 0 0 0 0 0 0 0 0 0 0 0 0 0 0 0 0 0 0 0 0 0 0 0 0 0 0 0 0 0 0 0 0 0 0 0 0 0 0 0 0 0 0 0 0 0 0 0 0 0 0 0 0 0 0 0 0 0 0 0 0 0 2 0 0 0 0 0 0 0 0 0 0 0 0 0 0 0 0 0 0 0 0 0 0 0 0 0 0 0 0 0 0 0 0 0 0 0 0 0 0 0 0 0 1 0 0 0 0 0 1 0 0 1 0 0 0 0 0 0 0 0 0 0 0 0 0 0 0 0 0 0 0 0 0 0 0 0 0 0 0 0 0 0 0 0 0 0 0 0 0 0 0 0 0 0 0 0 0 0 0 0 0 0 0 0 0 0 0 0 0 0 0 0 0 0 0 0 0 0 0 0 0 0 0 0 0 0 0 0 0 0 0 0 0 0 0 0 0 0 0 0 0 0 0 0 0 0 0 0 0 0 0 0 0 0 0 0 0 0 0 1 0 0 0 0 0 1 0 0 0 0 0 0 0 0 0 0 0 0 0 0 0 0 0 0 0 0 0 0 0 0 0 0 0 0 0 0 0 0 0 0 0 0 0 0 0 0 0 0 0 0 0 0 0 0 0 0 0 0 0 0 0 0 0 0 0 0 0 0 0 0 0 0 0 0 0 0 0 0 0 0 0 0 0 0 0 0 0 0 0 0 0 0 0 0 0 0 0 0 0 0 0 0 0 0 0 0 0 0 0 0 0 0 0 0 0 0 0 0 0 0 0 0 0 0 0 0 0 0 0 0 0 0 0 0 0 0 0 0 0 0 0 0 0 0 0 0 0 0 0 0 0 0 0 0 0 0 0 0 0 0 0 0 0 0 0 0 0 0 0 0 0 0 0 0 0 0 0 0 0 0 0 0 0 0 0 0 0 0 0 0 0 0 0 0 0 0 0 0 0 0 0 0 0 0 0 0 0 0 0 0 0 0 0 0 0 0 0 0 0 0 0 0 0 0 0 0 0 0 0 0 0 0 0 0 0 0 0 0 0 0 0 0 0 0 0 0 0 0 0 0 0 0 0 0 0 0 0 0 0 0 0 0 0 0 0 0 0 0 0 0 0 0 0 0 0 0 0 0 0 0 0 0 0 0 0 0 0 0 0 0 0 0 0 0 0 0 0 0 0 0 0 0 0 0 0 0 0 0 0 0 0 0 0 0 0 0 0 0 0 0 0 0 0 0 0 0 0 0 0 0 0 0 0 0 0 0 0 0 0 0 0 0 0 0 0 0 0 0 0 0 0 0 0 0 0 0 0 0 0 0 0 0 0 0 0 0 0 0 0 0 0 0 0 0 0 0 0 0 0 0 0 0 0 0 0 0 0 0 0 0 0 0 0 0 0 0 0 0 0 0 0 0 0 0 0 0 0 0 0 0 0 0 0 0 0 0 0 0 0 0 0 0 0 0 0 0 0 0 0 0 0 0 0 0 0 0 0 0 0 0 0 0 0 0 0 0 0 0 0 0 0 0 0 0 0 0 0 0 0 0 0 0 0 0 0 0 0 0 0 0 0 0 0 0 0 0 0 0 0 0 0 0 0 0 0 0 0 0 0 0 0 0 0 0 0 0 0 0 0 0 0 0 0 0 0 0 0 0 0 0 0 0 0 0 0 0 0 0 0 0 0 0 0 0 0 0 0 0 0 0 0 0 0 0 0 0 0 0 0 0 0 0 0 0 0 0 0 0 0 0 0 0 0 0 0 0 0 0 0 0 0 0 0 0 0 0 0 0 0 0 0 0 0 0 0 0 0 0 0 0 0 0 0 0 0 0 0 0 0 0 0 0 0 0 0 0 0 0 0 0 0 0 0 0 0 0 0 0 0 0 0 0 0 0 0 0 0 0 0 0 0 0 0 0 0 0 0 0 0 0 0 0 0 0 0 0 0 0 0 0 0 0 0 0 0 0 0 0 0 0 0 0 0 0 0 0 0 0 0 0 0 0 0 0 0 0 0 0 0 0 0 0 0 0 0 0 0 0 0 0 0 0 0 0 0 0 0 0 0 0 0 0 0 0 0 0 0 0 0 0 0 0 0 0 0 0 0 0 0 0 0 0 0 0 0 0 0 0 0 0 0 0 0 0 0 0 0 0 0 0 0 0 0 0 0 0 0 0 0 0 0 0 0 0 0 0 0 0 0 0 0 0 0 0 0 0 0 0 0 0 0 0 0 0 0 0 0 0 0 0 0 0 0 0 0 0 0 0 0 0 0 0 0 0 0 0 0 0 0 0 0 0 0 0 0 0 0 0 0 0 0 0 0 0 0 0 0 0 0 0 0 0 0 0 0 0 0 0 0 0 0 0 0 0 0 0 0 0 0 0 0 0 0 0 0 0 0 0 0 0 0 0 0 0 0 0 0 0 0 0 0 0 0 0 0 0 0 0 0 0 0 0 0 0 0 0 0 0 0 0 0 0 0 0 0 0 0 0 0 0 0 0 0 0 0 0 0 0 0 0 0 0 0 0 0 0 0 0 0 0 0 0 0 0 0 0 0 0 0 0 0 0 0 0 0 0 0 0 0 0 0 0 0 0 0 0 0 0 0 0 0 0 0 0 0 0 0 0 0 0 0 0 0 0 0 0 0 0 0 0 0 0 0 0 0 0 0 0 0 0 0 0 0 0 0 0 0 0 0 0 0 0 0 0 0 0 0 0 0 0 0 0 0 0 0 0 0 0 0 0 0 0 0 0 0 0 0 0 0 0 0 0 0 0 0 0 0 0 0 0 0 0 0 0 0 0 0 0 0 0 0 0 0 0 0 0 0 0 0 0 0 0 0 0 0 0 0 0 0 0 0 0 0 0 0 0 0 0 0 0 0 0 0 0 0 0 0 0 0 0 0 0 0 0 0 0 0 0 0 0 0 0 0 0 0 0 0 0 0 0 0 0 0 0 0 0 0 0 0 0 0 0 0 0 0 0 0 0 0 0 0 0 0 0 0 0 0 0 0 0 0 0 0 0 0 0 0 0 0 0 0 0 0 0 0 0 0 0 0 0 0 0 0 0 0 0 0 0 0 0 0 0 0 0 0 0 0 0 0 0 0 0 0 0 0 0 0 0 0 0 0 0 0 0 0 0 0 0 0 0 0 0 0 0 0 0 0 0 0 0 0 0 0 0 0 0 0 0 0 0 0 0 0 0 0 0 0 0 0 0 0 0 0 0 0 0 0 0 0 0 0 0 0 0 0 0 0 0 0 0 0 0 0 0 0 0 0 0 0 0 0 0 0 0 0 0 0 0 0 0 0 0 0 0 0 0 0 0 0 0 0 0 0 0 0 0 0 0 0 0 0 0 0 0 0 0 0 0 0 0 0 0 0 0 0 0 0 0 0 0 0 0 0 0 0 0 0 0 0 0 0 0 0 0 0 0 0 0 0 0 0 0 0 0 0 0 0 0 0 0 0 0 0 0 0 0 0 0 0 0 0 0 0 0 0 0 0 0 0 0 0 0 0 0 0 0 0 0 0 0 0 0 0 0 0 0 0 0 0 0 0 0 0 0 0 0 0 0 0 0 0 0 0 0 0 0 0 0 0 0 0 0 0 0 0 0 0 0 0 0 0 0 0 0 0 0 0 0 0 0 0 0 0 0 0 0 0 0 0 0 0 0 0 0 0 0 0 0 0 0 0 0 0 0 0 0 0 0 0 0 0 0 0 0 0 0 0 0 0 0 0 0 0 0 0 0 0 0 0 0 0 0 0 0 0 0 0 0 0 0 0 0 0 0 0 0 0 0 0 0 0 0 0 0 0 0 0 0 0 0 0 0 0 0 0 0 0 0 0 0 0 0 0 0 0 0 0 0 0 0 0 0 0 0 0 0 0 0 0 0 0 0 0 0 0 0 0 0 0 0 0 0 0 0 0 0 0 0 0 0 0 0 0 0 0 0 0 0 0 0 0 0 0 0 0 0 0 0 0 0 0 0 0 0 0 0 0 0 0 0 0 0 0 0 0 0 0 0 0 0 0 0 0 0 0 0 0 0 0 0 0 0 0 0 0 0 0 0 0 0 0 0 0 0 0 0 0 0 0 0 0 0 0 0 0 0 0 0 0 0 0 0 0 0 0 0 0 0 0 0 0 0 0 0 0 0 0 0 0 0 0 0 0 0 0 0 0 0 0 0 0 0 0 0 0 0 0 0 0 0 0 0 0 0 0 0 0 0 0 0 0 0 0 0 0 0 0 0 0 0 0 0 0 0 0 0 0 0 0 0 0 0 0 0 0 0 0 0 0 0 0 0 0 0 0 0 0 0 0 0 0 0 0 0 0 0 0 0 0 0 0 0 0 0 0 0 0 0 0 0 0 0 0 0 0 0 0 0 0 0 0 0 0 0 0 0 0 0 0 0 0 0 0 0 0 0 0 0 0 0 0 0 0 0 0 0 0 0 0 0 0 0 0 0 0 0 0 0 0 0 0 0 0 0 0 0 0 0 0 0 0 0 0 0 0 0 0 0 0 0 0 0 0 0 0 0 0 0 0 0 0 0 0 0 0 0 0 0 0 0 0 0 0 0 0 0 0 0 0 0 0 0 0 0 0 0 0 0 0 0 0 0 0 0 0 0 0 0 0 0 0 0 0 0 0 0 0 0 0 0 0 0 0 0 0 0 0 0 0 0 0 0 0 0 0 0 0 0 0 0 0 0 0 0 0 0 0 0 0 0 0 0 0 0 0 0 0 0 0 0 0 0 0 0 0 0 0 0 0 0 0 0 0 0 0 0 0 0 0 0 0 0 0 0 0 0 0 0 0 0 0 0 0 0 0 0 0 0 0 0 0 0 0 0 0 0 0 0 0 0 0 0 0 0 0 0 0 0 0 0 0 0 0 0 0 0 0 0 0 0 0 0 0 0 0 0 0 0 0 0 0 0 0 0 0 0 0 0 0 0 0 0 0 0 0 0 0 0 0 0 0 0 0 0 0 0 0 0 0 0 0 0 0 0 0 0 0 0 0 0 0 0 0 0 0 0 0 0 0 0 0 0 0 0 0 0 0 0 0 0 0 0 0 0 0 0 0 0 0 0 0 0 0 0 0 0 0 0 0 0 0 0 0 0 0 0 0 0 0 0 0 0 0 0 0 0 0 0 0 0 0 0 0 0 0 0 0 0 0 0 0 0 0 0 0 0 0 0 0 0 0 0 0 0 0 0 0 0 0 0 0 0 0 0 0 0 0 0 0 0 0 0 0 0 0 0 0 0 0 0 0 0 0 0 0 0 0 0 0 0 0 0 0 0 0 0 0 0 0 0 0 0 0 0 0 0 0 0 0 0 0 0 0 0 0 0 0 0 0 0 0 0 0 0 0 0 0 0 0 0 0 0 0 0 0 0 0 0 0 0 0 0 0 0 0 0 0 0 0 0 0 0 0 0 0 0 0 0 0 0 0 0 0 0 0 0 0 0 0 0 0 0 0 0 0 0 0 0 0 0 0 0 0 0 0 0 0 0 0 0 0 0 0 0 0 0 0 0 0 0 0 0 0 0 0 0 0 0 0 0 0 0 0 0 0 0 0 0 0 0 0 0 0 0 0 0 0 0 0 0 0 0 0 0 0 0 0 0 0 0 0 0 0 0 0 0 0 0 0 0 0 0 0 0 0 0 0 0 0 0 0 0 0 0 0 0 0 0 0 0 0 0 0 0 0 0 0 0 0 0 0 0 0 0 0 0 0 0 0 0 0 0 0 0 0 0 0 0 0 0 0 0 0 0 0 0 0 0 0 0 0 0 0 0 0 0 0 0 0 0 0 0 0 0 0 0 0 0 0 0 0 0 0 0 0 0 0 0 0 0 0 0 0 0 0 0 0 0 0 0 0 0 0 0 0 0 0 0 0 0 0 0 0 0 0 0 0 0 0 0 0 0 0 0 0 0 0 0 0 0 0 0 0 0 0 0 0 0 0 0 0 0 0 0 0 0 0 0 0 0 0 0 0 0 0 0 0 0 0 0 0 0 0 0 0 0 0 0 0 0 0 0 0 0 0 0 0 0 0 0 0 0 0 0 0 0 0 0 0 0 0 0 0 0 0 0 0 0 0 0 0 0 0 0 0 0 0 0 0 0 0 0 0 0 0 0 0 0 0 0 0 0 0 0 0 0 0 0 0 0 0 0 0 0 0 0 0 0 0 0 0 0 0 0 0 0 0 0 0 0 0 0 0 0 0 0 0 0 0 0 0 0 0 0 0 0 0 0 0 0 0 0 0 0 0 0 0 0 0 0 0 0 0 0 0 0 0 0 0 0 0 0 0 0 0 0 0 0 0 0 0 0 0 0 0 0 0 0 0 0 0 0 0 0 0 0 0 0 0 0 0 0 0 0 0 0 0 0 0 0 0 0 0 0 0 0 0 0 0 0 0 0 0 0 0 0 0 0 0 0 0 0 0 0 0 0 0 0 0 0 0 0 0 0 0 0 0 0 0 0 0 0 0 0 0 0 0 0 0 0 0 0 0 0 0 0 0 0 0 0 0 0 0 0 0 0 0 0 0 0 0 0 0 0 0 0 0 0 0 0 0 0 0 0 0 0 0 0 0 0 0 0 0 0 0 0 0 0 0 0 0 0 0 0 0 0 0 0 0 0 0 0 0 0 0 0 0 0 0 0 0 0 0 0 0 0 0 0 0 0 0 0 0 0 0 0 0 0 0 0 0 0 0 0 0 0 0 0 0 0 0 0 0 0 0 0 0 0 0 0 0 0 0 0 0 0 0 0 0 0 0 0 0 0 0 0 0 0 0 0 0 0 0 0 0 0 0 0 0 0 0 0 0 0 0 0 0 0 0 0 0 0 0 0 0 0 0 0 0 0 0 0 0 0 0 0 0 0 0 0 0 0 0 0 0 0 0 0 0 0 0 0 0 0 0 0 0 0 0 0 0 0 0 0 0 0 0 0 0 0 0 0 0 0 0 0 0 0 0 0 0 0 0 0 0 0 0 0 0 0 0 0 0 0 0 0 0 0 0 0 0 0 0 0 0 0 0 0 0 0 0 0 0 0 0 0 0 0 0 0 0 0 0 0 0 0 0 0 0 0 0 0 0 0 0 0 0 0 0 0 0 0 0 0 0 0 0 0 0 0 0 0 0 0 0 0 0 0 0 0 0 0 0 0 0 0 0 0 0 0 0 0 0 0 0 0 0 0 0 0 0 0 0 0 0 0 0 0 0 0 0 0 0 0 0 0 0 0 0 0 0 0 0 0 0 0 0 0 0 0 0 0 0 0 0 0 0 0 0 0 0 0 0 0 0 0 0 0 0 0 0 0 0 0 0 0 0 0 0 0 0 0 0 0 0 0 0 0 0 0 0 0 0 0 0 0 0 0 0 0 0 0 0 0 0 0 0 0 0 0 0 0 0 0 0 0 0 0 0 0 0 0 0 0 0 0 0 0 0 0 0 0 0 0 0 0 0 0 0 0 0 0 0 0 0 0 0 0 0 0 0 0 0 0 0 0 0 0 0 0 0 0 0 0 0 0 0 0 0 0 0 0 0 0 0 0 0 0 0 0 0 0 0 0 0 0 0 0 0 0 0 0 0 0 0 0 0 0 0 0 0 0 0 0 0 0 0 0 0 0 0 0 0 0 0 0 0 0 0 0 0 0 0 0 0 0 0 0 0 0 0 0 0 0 0 0 0 0 0 0 0 0 0 0 0 0 0 0 0 0 0 0 0 0 0 0 0 0 0 0 0 0 0 0 0 0 0 0 0 0 0 0 0 0 0 0 0 0 0 0 0 0 0 0 0 0 0 0 0 0 0 0 0 0 0 0 0 0 0 0 0 0 0 0 0 0 0 0 0 0 0 0 0 0 0 0 0 0 0 0 0 0 0 0 0 0 0 0 0 0 0 0 0 0 0 0 0 0 0 0 0 0 0 0 0 0 0 0 0 0 0 0 0 0 0 0 0 0 0 0 0 0 0 0 0 0 0 0 0 0 0 0 0 0 0 0 0 0 0 0 0 0 0 0 0 0 0 0 0 0 0 0 0 0 0 0 0 0 0 0 0 0 0 0 0 0 0 0 0 0 0 0 0 0 0 0 0 0 0 0 0 0 0 0 0 0 0 0 0 0 0 0 0 0 0 0 0 0 0 0 0 0 0 0 0 0 0 0 0 0 0 0 0 0 0 0 0 0 0 0 0 0 0 0 0 0 0 0 0 0 0 0 0 0 0 0 0 0 0 0 0 0 0 0 0 0 0 0 0 0 0 0 0 0 0 0 0 0 0 0 0 0 0 0 0 0 0 0 0 0 0 0 0 0 0 0 0 0 0 0 0 0 0 0 0 0 0 0 0 0 0 0 0 0 0 0 0 0 0 0 0 0 0 0 0 0 0 0 0 0 0 0 0 0 0 0 0 0 0 0 0 0 0 0 0 0 0 0 0 0 0 0 0 0 0 0 0 0 0 0 0 0 0 0 0 0 0 0 0 0 0 0 0 0 0 0 0 0 0 0 0 0 0 0 0 0 0 0 0 0 0 0 0 0 0 0 0 0 0 0 0 0 0 0 0 0 0 0 0 0 0 0 0 0 0 0 0 0 0 0 0 0 0 0 0 0 0 0 0 0 0 0 0 0 0 0 0 0 0 0 0 0 0 0 0 0 0 0 0 0 0 0 0 0 0 0 0 0 0 0 0 0 0 0 0 0 0 0 0 0 0 0 0 0 0 0 0 0 0 0 0 0 0 0 0 0 0 0 0 0 0 0 0 0 0 0 0 0 0 0 0 0 0 0 0 0 0 0 0 0 0 0 0 0 0 0 0 0 0 0 0 0 0 0 0 0 0 0 0 0 0 0 0 0 0 0 0 0 0 0 0 0 0 0 0 0 0 0 0 0 0 0 0 0 0 0 0 0 0 0 0 0 0 0 0 0 0 0 0 0 0 0 0 0 0 0 0 0 0 0 0 0 0 0 0 0 0 0 0 0 0 0 0 0 0 0 0 0 0 0 0 0 0 0 0 0 0 0 0 0 0 0 0 0 0 0 0 0 0 0 0 0 0 0 0 0 0 0 0 0 0 0 0 0 0 0 0 0 0 0 0 0 0 0 0 0 0 0 0 0 0 0 0 0 0 0 0 0 0 0 0 0 0 0 0 0 0 0 0 0 0 0 0 0 0 0 0 0 0 0 0 0 0 0 0 0 0 0 0 0 0 0 0 0 0 0 0 0 0 0 0 0 0 0 0 0 0 0 0 0 0 0 0 0 0 0 0 0 0 0 0 0 0 0 0 0 0 0 0 0 0 0 0 0 0 0 0 0 0 0 0 0 0 0 0 0 0 0 0 0 0 0 0 0 0 0 0 0 0 0 0 0 0 0 0 0 0 0 0 0 0 0 0 0 0 0 0 0 0 0 0 0 0 0 0 0 0 0 0 0 0 0 0 0 0 0 0 0 0 0 0 0 0 0 0 0 0 0 0 0 0 0 0 0 0 0 0 0 0 0 0 0 0 0 0 0 0 0 0 0 0 0 0 0 0 0 0 0 0 0 0 0 0 0 0 0 0 0 0 0 0 0 0 0 0 0 0 0 0 0 0 0 0 0 0 0 0 0 0 0 0 0 0 0 0 0 0 0 0 0 0 0 0 0 0 0 0 0 0 0 0 0 0 0 0 0 0 0 0 0 0 0 0 0 0 0 0 0 0 0 0 0 0 0 0 0 0 0 0 0 0 0 0 0 0 0 0 0 0 0 0 0 0 0 0 0 0 0 0 0 0 0 0 0 0 0 0 0 0 0 0 0 0 0 0 0 0 0 0 0 0 0 0 0 0 0 0 0 0 0 0 0 0 0 0 0 0 0 0 0 0 0 0 0 0 0 0 0 0 0 0 0 0 0 0 0 0 0 0 0 0 0 0 0 0 0 0 0 0 0 0 0 0 0 0 0 0 0 0 0 0 0 0 0 0 0 0 0 0 0 0 0 0 0 0 0 0 0 0 0 0 0 0 0 0 0 0 0 0 0 0 0 0 0 0 0 0 0 0 0 0 0 0 0 0 0 0 0 0 0 0 0 0 0 0 0 0 0 0 0 0 0 0 0 0 0 0 0 0 0 0 0 0 0 0 0 0 0 0 0 0 0 0 0 0 0 0 0 0 0 0 0 0 0 0 0 0 0 0 0 0 0 0 0 0 0 0 0 0 0 0 0 0 0 0 0 0 0 0 0 0 0 0 0 0 0 0 0 0 0 0 0 0 0 0 0 0 0 0 0 0 0 0 0 0 0 0 0 0 0 0 0 0 0 0 0 0 0 0 0 0 0 0 0 0 0 0 0 0 0 0 0 0 0 0 0 0 0 0 0 0 0 0 0 0 0 0 0 0 0 0 0 0 0 0 0 0 0 0 0 0 0 0 0 0 0 0 0 0 0 0 0 0 0 0 0 0 0 0 0 0 0 0 0 0 0 0 0 0 0 0 0 0 0 0 0 0 0 0 0 0 0 0 0 0 0 0 0 0 0 0 0 0 0 0 0 0 0 0 0 0 0 0 0 0 0 0 0 0 0 0 0 0 0 0 0 0 0 0 0 0 0 0 0 0 0 0 0 0 0 0 0 0 0 0 0 0 0 0 0 0 0 0 0 0 0 0 0 0 0 0 0 0 0 0 0 0 0 0 0 0 0 0 0 0 0 0 0 0 0 0 0 0 0 0 0 0 0 0 0 0 0 0 0 0 0 0 0 0 0 0 0 0 0 0 0 0 0 0 0 0 0 0 0 0 0 0 0 0 0 0 0 0 0 0 0 0 0 0 0 0 0 0 0 0 0 0 0 0 0 0 0 0 0 0 0 0 0 0 0 0 0 0 0 0 0 0 0 0 0 0 0 0 0 0 0 0 0 0 0 0 0 0 0 0 0 0 0 0 0 0 0 0 0 0 0 0 0 0 0 0 0 0 0 0 0 0 0 0 0 0 0 0 0 0 0 0 0 0 0 0 0 0 0 0 0 0 0 0 0 0 0 0 0 0 0 0 0 0 0 0 0 0 0 0 0 0 0 0 0 0 0 0 0 0 0 0 0 0 0 0 0 0 0 0 0 0 0 0 0 0 0 0 0 0 0 0 0 0 0 0 0 0 0 0 0 0 0 0 0 0 0 0 0 0 0 0 0 0 0 0 0 0 0 0 0 0 0 0 0 0 0 0 0 0 0 0 0 0 0 0 0 0 0 0 0 0 0 0 0 0 0 0 0 0 0 0 0 0 0 0 0 0 0 0 0 0 0 0 0 0 0 0 0 0 0 0 0 0 0 0 0 0 0 0 0 0 0 0 0 0 0 0 0 0 0 0 0 0 0 0 0 0 0 0 0 0 0 0 0 0 0 0 0 0 0 0 0 0 0 0 0 0 0 0 0 0 0 0 0 0 0 0 0 0 0 0 0 0 0 0 0 0 0 0 0 0 0 0 0 0 0 0 0 0 0 0 0 0 0 0 0 0 0 0 0 0 0 0 0 0 0 0 0 0 0 0 0 0 0 0 0 0 0 0 0 0 0 0 0 0 0 0 0 0 0 0 0 0 0 0 0 0 0 0 0 0 0 0 0 0 0 0 0 0 0 0 0 0 0 0 0 0 0 0 0 0 0 0 0 0 0 0 0 0 0 0 0 0 0 0 0 0 0 0 0 0 0 0 0 0 0 0 0 0 0 0 0 0 0 0 0 0 0 0 0 0 0 0 0 0 0 0 0 0 0 0 0 0 0 0 0 0 0 0 0 0 0 0 0 0 0 0 0 0 0 0 0 0 0 0 0 0 0 0 0 0 0 0 0 0 0 0 0 0 0 0 0 0 0 0 0 0 0 0 0 0 0 0 0 0 0 0 0 0 0 0 0 0 0 0 0 0 0 0 0 0 0 0 0 0 0 0 0 0 0 0 0 0 0 0 0 0 0 0 0 0 0 0 0 0 0 0 0 0 0 0 0 0 0 0 0 0 0 0 0 0 0 0 0 0 0 0 0 0 0 0 0 0 0 0 0 0 0 0 0 0 0 0 0 0 0 0 0 0 0 0 0 0 0 0 0 0 0 0 0 0 0 0 0 0 0 0 0 0 0 0 0 0 0 0 0 0 0 0 0 0 0 0 0 0 0 0 0 0 0 0 0 0 0 0 0 0 0 0 0 0 0 0 0 0 0 0 0 0 0 0 0 0 0 0 0 0 0 0 0 0 0 0 0 0 0 0 0 0 0 0 0 0 0 0 0 0 0 0 0 0 0 0 0 0 0 0 0 0 0 0 0 0 0 0 0 0 0 0 0 0 0 0 0 0 0 0 0 0 0 0 0 0 0 0 0 0 0 0 0 0 0 0 0 0 0 0 0 0 0 0 0 0 0 0 0 0 0 0 0 0 0 0 0 0 0 0 0 0 0 0 0 0 0 0 0 0 0 0 0 0 0 0 0 0 0 0 0 0 0 0 0 0 0 0 0 0 0 0 0 0 0 0 0 0 0 0 0 0 0 0 0 0 0 0 0 0 0 0 0 0 0 0 0 0 0 0 0 0 0 0 0 0 0 0 0 0 0 0 0 0 0 0 0 0 0 0 0 0 0 0 0 0 0 0 0 0 0 0 0 0 0 0 0 0 0 0 0 0 0 0 0 0 0 0 0 0 0 0 0 0 0 0 0 0 0 0 0 0 0 0 0 0 0 0 0 0 0 0 0 0 0 0 0 0 0 0 0 0 0 0 0 0 0 0 0 0 0 0 0 0 0 0 0 0 0 0 0 0 0 0 0 0 0 0 0 0 0 0 0 0 0 0 0 0 0 0 0 0 0 0 0 0 0 0 0 0 0 0 0 0 0 0 0 0 0 0 0 0 0 0 0 0 0 0 0 0 0 0 0 0 0 0 0 0 0 0 0 0 0 0 0 0 0 0 0 0 0 0 0 0 0 0 0 0 0 0 0 0 0 0 0 0 0 0 0 0 0 0 0 0 0 0 0 0 0 0 0 0 0 0 0 0 0 0 0 0 0 0 0 0 0 0 0 0 0 0 0 0 0 0 0 0 0 0 0 0 0 0 0 0 0 0 0 0 0 0 0 0 0 0 0 0 0 0 0 0 0 0 0 0 0 0 0 0 0 0 0 0 0 0 0 0 0 0 0 0 0 0 0 0 0 0 0 0 0 0 0 0 0 0 0 0 0 0 0 0 0 0 0 0 0 0 0 0 0 0 0 0 0 0 0 0 0 0 0 0 0 0 0 0 0 0 0 0 0 0 0 0 0 0 0 0 0 0 0 0 0 0 0 0 0 0 0 0 0 0 0 0 0 0 0 0 0 0 0 0 0 0 0 0 0 0 0 0 0 0 0 0 0 0 0 0 0 0 0 0 0 0 0 0 0 0 0 0 0 0 0 0 0 0 0 0 0 0 0 0 0 0 0 0 0 0 0 0 0 0 0 0 0 0 0 0 0 0 0 0 0 0 0 0 0 0 0 0 0 0 0 0 0 0 0 0 0 0 0 0 0 0 0 0 0 0 0 0 0 0 0 0 0 0 0 0 0 0 0 0 0 0 0 0 0 0 0 0 0 0 0 0 0 0 0 0 0 0 0 0 0 0 0 0 0 0 0 0 0 0 0 0 0 0 0 0 0 0 0 0 0 0 0 0 0 0 0 0 0 0 0 0 0 0 0 0 0 0 0 0 0 0 0 0 0 0 0 0 0 0 0 0 0 0 0 0 0 0 0 0 0 0 0 0 0 0 0 0 0 0 0 0 0 0 0 0 0 0 0 0 0 0 0 0 0 0 0 0 0 0 0 0 0 0 0 0 0 0 0 0 0 0 0 0 0 0 0 0 0 0 0 0 0 0 0 0 0 0 0 0 0 0 0 0 0 0 0 0 0 0 0 0 0 0 0 0 0 0 0 0 0 0 0 0 0 0 0 0 0 0 0 0 0 0 0 0 0 0 0 0 0 0 0 0 0 0 0 0 0 0 0 0 0 0 0 0 0 0 0 0 0 0 0 0 0 0 0 0 0 0 0 0 0 0 0 0 0 0 0 0 0 0 0 0 0 0 0 0 0 0 0 0 0 0 0 0 0 0 0 0 0 0 0 0 0 0 0 0 0 0 0 0 0 0 0 0 0 0 0 0 0 0 0 0 0 0 0 0 0 0 0 0 0 0 0 0 0 0 0 0 0 0 0 0 0 0 0 0 0 0 0 0 0 0 0 0 0 0 0 0 0 0 0 0 0 0 0 0 0 0 0 0 0 0 0 0 0 0 0 0 0 0 0 0 0 0 0 0 0 0 0 0 0 0 0 0 0 0 0 0 0 0 0 0 0 0 0 0 0 0 0 0 0 0 0 0 0 0 0 0 0 0 0 0 0 0 0 0 0 0 0 0 0 0 0 0 0 0 0 0 0 0 0 0 0 0 0 0 0 0 0 0 0 0 0 0 0 0 0 0 0 0 0 0 0 0 0 0 0 0 0 0 0 0 0 0 0 0 0 0 0 0 0 0 0 0 0 0 0 0 0 0 0 0 0 0 0 0 0 0 0 0 0 0 0 0 0 0 0 0 0 0 0 0 0 0 0 0 0 0 0 0 0 0 0 0 0 0 0 0 0 0 0 0 0 0 0 0 0 0 0 0 0 0 0 0 0 0 0 0 0 0 0 0 0 0 0 0 0 0 0 0 0 0 0 0 0 0 0 0 0 0 0 0 0 0 0 0 0 0 0 0 0 0 0 0 0 0 0 0 0 0 0 0 0 0 0 0 0 0 0 0 0 0 0 0 0 0 0 0 0 0 0 0 0 0 0 0 0 0 0 0 0 0 0 0 0 0 0 0 0 0 0 0 0 0 0 0 0 0 0 0 0 0 0 0 0 0 0 0 0 0 0 0 0 0 0 0 0 0 0 0 0 0 0 0 0 0 0 0 0 0 0 0 0 0 0 0 0 0 0 0 0 0 0 0 0 0 0 0 0 0 0 0 0 0 0 0 0 0 0 0 0 0 0 0 0 0 0 0 0 0 0 0 0 0 0 0 0 0 0 0 0 0 0 0 0 0 0 0 0 0 0 0 0 0 0 0 0 0 0 0 0 0 0 0 0 0 0 0 0 0 0 0 0 0 0 0 0 0 0 0 0 0 0 0 0 0 0 0 0 0 0 0 0 0 0 0 0 0 0 0 0 0 0 0 0 0 0 0 0 0 0 0 0 0 0 0 0 0 0 0 0 0 0 0 0 0 0 0 0 0 0 0 0 0 0 0 0 0 0 0 0 0 0 0 0 0 0 0 0 0 0 0 0 0 0 0 0 0 0 0 0 0 0 0 0 0 0 0 0 0 0 0 0 0 0 0 0 0 0 0 0 0 0 0 0 0 0 0 0 0 0 0 0 0 0 0 0 0 0 0 0 0 0 0 0 0 0 0 0 0 0 0 0 0 0 0 0 0 0 0 0 0 0 0 0 0 0 0 0 0 0 0 0 0 0 0 0 0 0 0 0 0 0 0 0 0 0 0 0 0 0 0 0 0 0 0 0 0 0 0 0 0 0 0 0 0 0 0 0 0 0 0 0 0 0 0 0 0 0 0 0 0 0 0 0 0 0 0 0 0 0 0 0 0 0 0 0 0 0 0 0 0 0 0 0 0 0 0 0 0 0 0 0 0 0 0 0 0 0 0 0 0 0 0 0 0 0 0 0 0 0 0 0 0 0 0 0 0 0 0 0 0 0 0 0 0 0 0 0 0 0 0 0 0 0 0 0 0 0 0 0 0 0 0 0 0 0 0 0 0 0 0 0 0 0 0 0 0 0 0 0 0 0 0 0 0 0 0 0 0 0 0 0 0 0 0 0 0 0 0 0 0 0 0 0 0 0 0 0 0 0 0 0 0 0 0 0 0 0 0 0 0 0 0 0 0 0 0 0 0 0 0 0 0 0 0 0 0 0 0 0 0 0 0 0 0 0 0 0 0 0 0 0 0 0 0 0 0 0 0 0 0 0 0 0 0 0 0 0 0 0 0 0 0 0 0 0 0 0 0 0 0 0 0 0 0 0 0 0 0 0 0 0 0 0 0 0 0 0 0 0 0 0 0 0 0 0 0 0 0 0 0 0 0 0 0 0 0 0 0 0 0 0 0 0 0 0 0 0 0 0 0 0 0 0 0 0 0 0 0 0 0 0 0 0 0 0 0 0 0 0 0 0 0 0 0 0 0 0 0 0 0 0 0 0 0 0 0 0 0 0 0 0 0 0 0 0 0 0 0 0 0 0 0 0 0 0 0 0 0 0 0 0 0 0 0 0 0 0 0 0 0 0 0 0 0 0 0 0 0 0 0 0 0 0 0 0 0 0 0 0 0 0 0 0 0 0 0 0 0 0 0 0 0 0 0 0 0 0 0 0 0 0 0 0 0 0 0 0 0 0 0 0 0 0 0 0 0 0 0 0 0 0 0 0 0 0 0 0 0 0 0 0 0 0 0 0 0 0 0 0 0 0 0 0 0 0 0 0 0 0 0 0 0 0 0 0 0 0 0 0 0 0 0 0 0 0 0 0 0 0 0 0 0 0 0 0 0 0 0 0 0 0 0 0 0 0 0 0 0 0 0 0 0 0 0 0 0 0 0 0 0 0 0 0 0 0 0 0 0 0 0 0 0 0 0 0 0 0 0 0 0 0 0 0 0 0 0 0 0 0 0 0 0 0 0 0 0 0 0 0 0 0 0 0 0 0 0 0 0 0 0 0 0 0 0 0 0 0 0 0 0 0 0 0 0 0 0 0 0 0 0 0 0 0 0 0 0 0 0 0 0 0 0 0 0 0 0 0 0 0 0 0 0 0 0 0 0 0 0 0 0 0 0 0 0 0 0 0 0 0 0 0 0 0 0 0 0 0 0 0 0 0 0 0 0 0 0 0 0 0 0 0 0 0 0 0 0 0 0 0 0 0 0 0 0 0 0 0 0 0 0 0 0 0 0 0 0 0 0 0 0 0 0 0 0 0 0 0 0 0 0 0 0 0 0 0 0 0 0 0 0 0 0 0 0 0 0 0 0 0 0 0 0 0 0 0 0 0 0 0 0 0 0 0 0 0 0 0 0 0 0 0 0 0 0 0 0 0 0 0 0 0 0 0 0 0 0 0 0 0 0 0 0 0 0 0 0 0 0 0 0 0 0 0 0 0 0 0 0 0 0 0 0 0 0 0 0 0 0 0 0 0 0 0 0 0 0 0 0 0 0 0 0 0 0 0 0 0 0 0 0 0 0 0 0 0 0 0 0 0 0 0 0 0 0 0 0 0 0 0 0 0 0 0 0 0 0 0 0 0 0 0 0 0 0 0 0 0 0 0 0 0 0 0 0 0 0 0 0 0 0 0 0 0 0 0 0 0 0 0 0 0 0 0 0 0 0 0 0 0 0 0 0 0 0 0 0 0 0 0 0 0 0 0 0 0 0 0 0 0 0 0 0 0 0 0 0 0 0 0 0 0 0 0 0 0 0 0 0 0 0 0 0 0 0 0 0 0 0 0 0 0 0 0 0 0 0 0 0 0 0 0 0 0 0 0 0 0 0 0 0 0 0 0 0 0 0 0 0 0 0 0 0 0 0 0 0 0 0 0 0 0 0 0 0 0 0 0 0 0 0 0 0 0 0 0 0 0 0 0 0 0 0 0 0 0 0 0 0 0 0 0 0 0 0 0 0 0 0 0 0 0 0 0 0 0 0 0 0 0 0 0 0 0 0 0 0 0 0 0 0 0 0 0 0 0 0 0 0 0 0 0 0 0 0 0 0 0 0 0 0 0 0 0 0 0 0 0 0 0 0 0 0 0 0 0 0 0 0 0 0 0 0 0 0 0 0 0 0 0 0 0 0 0 0 0 0 0 0 0 0 0 0 0 0 0 0 0 0 0 0 0 0 0 0 0 0 0 0 0 0 0 0 0 0 0 0 0 0 0 0 0 0 0 0 0 0 0 0 0 0 0 0 0 0 0 0 0 0 0 0 0 0 0 0 0 0 0 0 0 0 0 0 0 0 0 0 0 0 0 0 0 0 0 0 0 0 0 0 0 0 0 0 0 0 0 0 0 0 0 0 0 0 0 0 0 0 0 0 0 0 0 0 0 0 0 0 0 0 0 0 0 0 0 0 0 0 0 0 0 0 0 0 0 0 0 0 0 0 0 0 0 0 0 0 0 0 0 0 0 0 0 0 0 0 0 0 0 0 0 0 0 0 0 0 0 0 0 0 0 0 0 0 0 0 0 0 0 0 0 0 0 0 0 0 0 0 0 0 0 0 0 0 0 0 0 0 0 0 0 0 0 0 0 0 0 0 0 0 0 0 0 0 0 0 0 0 0 0 0 0 0 0 0 0 0 0 0 0 0 0 0 0 0 0 0 0 0 0 0 0 0 0 0 0 0 0 0 0 0 0 0 0 0 0 0 0 0 0 0 0 0 0 0 0 0 0 0 0 0 0 0 0 0 0 0 0 0 0 0 0 0 0 0 0 0 0 0 0 0 0 0 0 0 0 0 0 0 0 0 0 0 0 0 0 0 0 0 0 0 0 0 0 0 0 0 0 0 0 0 0 0 0 0 0 0 0 0 0 0 0 0 0 0 0 0 0 0 0 0 0 0 0 0 0 0 0 0 0 0 0 0 0 0 0 0 0 0 0 0 0 0 0 0 0 0 0 0 0 0 0 0 0 0 0 0 0 0 0 0 0 0 0 0 0 0 0 0 0 0 0 0 0 0 0 0 0 0 0 0 0 0 0 0 0 0 0 0 0 0 0 0 0 0 0 0 0 0 0 0 0 0 0 0 0 0 0 0 0 0 0 0 0 0 0 0 0 0 0 0 0 0 0 0 0 0 0 0 0 0 0 0 0 0 0 0 0 0 0 0 0 0 0 0 0 0 0 0 0 0 0 0 0 0 0 0 0 0 0 0 0 0 0 0 0 0 0 0 0 0 0 0 0 0 0 0 0 0 0 0 0 0 0 0 0 0 0 0 0 0 0 0 0 0 0 0 0 0 0 0 0 0 0 0 0 0 0 0 0 0 0 0 0 0 0 0 0 0 0 0 0 0 0 0 0 0 0 0 0 0 0 0 0 0 0 0 0 0 0 0 0 0 0 0 0 0 0 0 0 0 0 0 0 0 0 0 0 0 0 0 0 0 0 0 0 0 0 0 0 0 0 0 0 0 0 0 0 0 0 0 0 0 0 0 0 0 0 0 0 0 0 0 0 0 0 0 0 0 0 0 0 0 0 0 0 0 0 0 0 0 0 0 0 0 0 0 0 0 0 0 0 0 0 0 0 0 0 0 0 0 0 0 0 0 0 0 0 0 0 0 0 0 0 0 0 0 0 0 0 0 0 0 0 0 0 0 0 0 0 0 0 0 0 0 0 0 0 0 0 0 0 0 0 0 0 0 0 0 0 0 0 0 0 0 0 0 0 0 0 0 0 0 0 0 0 0 0 0 0 0 0 0 0 0 0 0 0 0 0 0 0 0 0 0 0 0 0 0 0 0 0 0 0 0 0 0 0 0 0 0 0 0 0 0 0 0 0 0 0 0 0 0 0 0 0 0 0 0 0 0 0 0 0 0 0 0 0 0 0 0 0 0 0 0 0 0 0 0 0 0 0 0 0 0 0 0 0 0 0 0 0 0 0 0 0 0 0 0 0 0 0 0 0 0 0 0 0 0 0 0 0 0 0 0 0 0 0 0 0 0 0 0 0 0 0 0 0 0 0 0 0 0 0 0 0 0 0 0 0 0 0 0 0 0 0 0 0 0 0 0 0 0 0 0 0 0 0 0 0 0 0 0 0 0 0 0 0 0 0 0 0 0 0 0 0 0 0 0 0 0 0 0 0 0 0 0 0 0 0 0 0 0 0 0 0 0 0 0 0 0 0 0 0 0 0 0 0 0 0 0 0 0 0 0 0 0 0 0 0 0 0 0 0 0 0 0 0 0 0 0 0 0 0 0 0 0 0 0 0 0 0 0 0 0 0 0 0 0 0 0 0 0 0 0 0 0 0 0 0 0 0 0 0 0 0 0 0 0 0 0 0 0 0 0 0 0 0 0 0 0 0 0 0 0 0 0 0 0 0 0 0 0 0 0 0 0 0 0 0 0 0 0 0 0 0 0 0 0 0 0 0 0 0 0 0 0 0 0 0 0 0 