P2
149 129
255
0 0 0 0 0 0 0 0 0 0 0 0 0 0 0 0 0 0 0 0 0 0 0 0 0 0 0 0 0 0 0 0 0 0 0 0 0 0 0 0 0 0 0 0 0 0 0 0 0 0 0 0 0 0 0 0 0 0 0 0 0 0 0 0 0 0 0 0 0 0 0 0 0 0 0 0 0 0 0 0 0 0 0 0 0 0 0 0 0 0 0 0 0 0 0 0 0 0 0 0 0 0 0 0 0 0 0 0 0 0 0 0 0 0 0 0 0 0 0 0 0 0 0 0 0 0 0 0 0 0 0 0 0 0 0 0 0 0 0 0 0 0 0 0 0 0 0 0 0 0 0 0 0 0 0 0 0 0 0 0 0 0 0 0 0 0 0 0 0 0 0 0 0 0 0 0 0 0 0 0 0 0 0 0 0 0 0 0 0 0 0 0 0 0 0 0 0 0 0 0 0 0 0 0 0 0 0 0 0 0 0 0 0 0 0 0 0 0 0 0 0 0 0 0 0 0 0 0 0 0 0 0 0 0 0 0 0 0 0 0 0 0 0 0 0 0 0 0 0 0 0 0 0 0 0 0 0 0 0 0 0 0 0 0 0 0 0 0 0 0 0 0 0 0 0 0 0 0 0 0 0 0 0 0 0 0 0 0 0 0 0 0 0 0 0 0 0 0 52 96 102 95 72 101 100 81 92 74 82 72 100 89 77 101 143 167 187 217 137 234 232 214 249 211 242 242 208 250 213 245 245 214 255 212 248 249 212 253 222 243 249 198 247 235 206 237 210 208 211 175 198 162 153 146 147 129 174 122 162 160 154 130 135 149 141 139 136 122 132 114 74 104 115 133 110 61 100 126 96 93 98 88 98 67 76 119 115 89 106 102 99 111 10 102 73 97 94 88 73 112 87 67 52 95 103 104 96 49 109 74 70 45 94 84 53 99 113 93 78 67 108 81 116 59 110 114 117 106 112 107 95 78 110 79 78 57 94 94 93 6 65 90 96 96 103 103 106 101 106 105 76 76 108 83 43 101 103 94 40 95 92 64 81 146 156 149 196 185 221 220 218 233 218 233 227 222 232 219 232 227 225 232 220 231 227 218 227 213 218 222 191 216 206 178 206 194 187 191 165 161 122 123 102 148 126 153 114 130 110 115 115 88 119 107 110 104 85 104 106 59 69 99 120 79 83 65 115 101 62 102 100 94 61 101 109 102 51 72 102 108 67 110 99 98 87 97 106 95 46 108 117 90 67 74 85 66 80 104 103 13 90 110 111 98 86 107 106 61 93 98 70 107 89 109 93 91 83 116 106 74 106 112 91 38 81 109 103 46 102 106 91 84 75 103 73 39 84 89 88 23 21 95 75 59 77 85 79 61 47 94 30 61 109 59 124 114 137 167 151 167 154 150 178 152 186 145 154 171 153 193 120 163 153 153 187 108 159 104 134 169 96 136 143 118 78 79 93 96 92 120 107 102 105 106 65 113 99 102 85 102 102 63 60 9 102 36 75 46 3 53 65 84 103 43 97 75 77 84 87 92 72 80 103 79 83 5 17 91 98 27 95 75 83 53 32 101 80 74 82 95 88 43 55 79 51 84 79 85 91 95 80 91 92 78 74 97 77 85 3 89 89 91 90 79 95 49 110 90 62 102 84 90 71 69 102 89 75 87 88 70 65 61 88 88 60 48 34 67 56 34 54 64 38 32 50 15 65 61 55 69 52 60 84 113 75 94 125 92 143 91 122 139 108 133 83 141 134 84 126 108 145 133 96 130 81 132 124 83 98 101 99 94 95 116 65 102 112 56 62 41 74 59 107 58 72 75 77 71 54 71 57 51 81 29 88 85 50 55 69 61 61 81 72 58 56 59 56 56 75 52 64 76 59 59 40 9 45 57 59 61 45 64 25 60 56 43 58 69 34 44 54 37 14 27 64 57 41 65 77 69 40 68 63 67 74 77 75 86 64 89 78 19 84 90 40 82 47 46 85 38 46 51 63 61 76 77 45 35 17 45 50 7 59 62 32 50 57 45 54 51 60 49 47 11 48 43 45 24 79 28 54 25 100 60 87 87 57 98 93 94 95 53 116 67 104 93 67 121 51 90 98 79 116 32 84 94 78 124 45 118 61 64 86 76 74 20 81 45 61 68 36 70 68 49 68 75 31 41 0 49 83 40 67 16 65 47 31 47 81 51 65 27 28 53 18 58 78 41 61 44 19 49 29 53 64 27 26 14 58 32 49 35 58 43 51 13 70 32 35 29 63 8 57 7 6 26 70 65 53 29 46 34 46 49 48 76 67 88 37 61 12 76 53 53 6 37 67 64 44 60 35 75 38 62 35 50 42 31 32 50 22 61 38 29 33 43 10 52 38 19 66 55 34 61 23 42 12 81 48 82 40 78 49 49 48 46 109 58 84 21 52 90 77 99 76 75 94 67 91 71 77 92 52 100 71 81 115 44 114 106 71 87 55 61 27 80 66 67 62 49 54 74 55 56 79 80 61 60 64 78 45 67 74 61 50 55 57 80 42 41 83 40 27 37 47 64 44 71 55 51 52 11 25 62 27 29 58 27 54 44 45 40 43 59 48 49 7 40 41 58 35 73 59 65 37 71 45 37 48 51 46 16 32 59 20 3 58 84 44 49 72 57 31 33 24 74 54 65 47 42 47 16 57 64 39 47 50 13 30 18 71 53 12 6 32 48 27 26 47 55 55 33 37 37 10 31 70 57 77 42 75 47 55 94 64 106 19 34 97 54 107 21 74 98 48 116 38 98 98 45 111 19 108 91 59 130 35 82 113 44 107 92 64 20 77 77 18 88 52 22 58 55 56 47 82 45 53 64 59 53 75 71 38 61 36 69 61 38 32 76 31 5 40 37 46 34 67 51 51 46 16 3 30 41 45 45 39 57 36 22 36 0 52 24 24 36 30 44 20 37 57 40 60 34 69 4 25 31 27 57 32 35 46 37 27 51 70 62 42 58 50 18 33 42 52 83 72 66 43 22 31 53 45 51 51 46 40 48 14 64 52 23 1 28 36 20 29 44 17 25 14 14 41 28 37 47 33 42 26 98 50 72 102 64 119 71 63 95 88 122 89 89 82 80 128 102 97 66 78 129 93 101 88 71 138 95 82 73 46 84 86 83 45 56 55 36 63 63 53 49 52 33 11 10 38 48 49 53 8 11 45 46 50 52 65 18 43 15 23 36 31 46 12 11 6 47 19 23 40 6 10 37 49 44 20 27 45 25 25 49 27 25 5 36 35 26 12 32 17 29 34 11 27 51 17 12 28 48 46 20 25 9 54 45 30 48 36 43 29 26 42 37 38 46 87 93 87 58 40 40 53 29 40 37 36 28 37 41 36 27 33 13 17 13 13 26 33 8 22 20 33 13 18 13 11 13 69 74 103 124 108 142 133 125 129 125 143 138 148 146 129 151 140 149 147 139 141 143 142 131 113 127 124 143 147 114 110 96 92 112 127 95 98 62 71 86 99 86 76 57 72 57 71 62 51 22 73 21 62 71 11 41 47 35 29 44 24 20 63 26 35 19 28 18 5 15 20 42 15 19 26 10 30 30 6 20 20 31 12 22 35 20 20 15 17 18 37 15 18 41 8 17 30 2 1 5 25 54 33 40 16 38 32 18 18 47 48 25 29 43 0 6 25 62 87 61 44 38 20 23 39 20 3 11 20 26 33 1 28 38 12 4 21 2 24 18 29 22 0 32 3 12 6 26 5 81 88 103 133 132 145 148 55 139 139 145 152 146 151 140 152 155 143 152 136 138 154 129 135 115 129 131 117 154 125 114 112 70 120 126 75 83 62 61 92 81 68 67 14 67 63 60 50 22 67 51 34 50 47 38 11 45 29 22 2 5 10 66 14 30 9 25 14 21 28 36 34 30 18 23 12 25 29 29 11 13 19 19 19 46 32 30 18 4 31 29 5 3 33 10 1 8 30 10 0 30 47 27 45 24 2 21 20 39 39 17 32 31 16 5 44 17 54 45 13 29 16 7 20 26 40 27 27 24 19 3 11 34 32 2 4 29 12 14 20 41 37 18 23 30 13 3 34 39 57 74 71 86 95 99 123 95 102 93 82 127 98 104 82 93 135 100 119 81 71 123 89 105 93 97 105 98 122 96 81 101 24 85 79 38 15 49 48 44 53 30 45 12 31 6 22 53 63 39 31 53 17 41 37 7 18 40 26 19 31 36 61 3 33 37 3 22 25 21 24 20 36 19 23 22 24 3 41 16 30 16 3 2 35 33 45 10 6 30 2 25 27 41 2 8 8 28 32 4 45 31 33 34 28 7 0 33 45 44 19 24 25 23 7 53 23 63 35 30 37 40 4 6 13 55 25 20 20 15 20 23 45 20 6 1 20 20 1 12 34 44 21 6 37 30 0 13 11 23 28 76 85 78 72 56 91 104 95 95 43 111 94 117 95 81 114 94 111 97 48 116 96 61 98 82 57 99 97 58 69 49 31 4 58 44 14 47 49 63 36 68 40 54 39 1 63 36 5 56 50 21 30 19 5 17 50 43 27 29 40 52 21 20 21 5 5 39 43 10 17 25 10 10 24 24 26 32 21 35 3 30 3 19 34 18 5 11 17 7 22 26 35 3 15 6 26 9 39 45 27 30 4 7 19 35 27 42 18 10 34 14 52 18 45 41 46 29 21 42 41 25 10 22 46 21 21 16 38 33 25 32 22 3 6 13 3 19 12 15 15 7 10 30 26 10 12 14 78 46 100 127 85 142 127 83 135 120 147 124 153 134 142 156 133 149 117 118 144 121 94 136 135 157 122 143 126 125 106 91 86 37 62 59 39 54 78 25 84 89 87 101 53 56 49 53 34 72 89 65 69 56 46 55 49 45 15 12 10 43 39 47 48 22 9 6 39 45 34 16 7 26 1 15 30 36 17 23 11 15 41 23 0 19 15 15 5 10 20 5 41 25 18 12 15 9 42 28 33 26 29 22 6 29 64 62 63 15 63 0 26 62 59 72 65 40 32 18 55 29 36 26 10 39 4 22 19 35 32 21 25 14 13 30 17 8 29 16 24 5 16 23 26 12 28 28 9 85 62 107 136 128 156 148 128 148 136 149 150 155 154 145 165 159 135 139 133 156 158 161 167 166 180 166 169 163 139 129 121 117 92 88 98 96 77 92 66 93 108 126 120 92 111 89 80 78 92 102 92 88 38 35 70 51 26 38 45 43 57 54 47 43 50 30 11 31 46 49 20 17 48 0 16 22 36 21 32 2 2 44 2 6 22 7 27 9 26 25 1 46 53 37 28 33 34 53 46 60 27 15 50 6 48 82 58 65 41 83 38 56 42 81 97 66 49 42 38 38 42 28 27 14 47 1 26 10 33 39 1 39 0 18 7 44 0 15 19 5 1 27 15 11 7 25 13 14 67 34 95 100 92 131 124 135 121 115 114 126 111 121 103 131 134 82 115 133 131 141 160 153 145 159 155 149 150 134 117 101 109 91 89 90 92 61 76 89 70 101 119 106 92 108 87 90 79 57 84 71 79 23 51 56 44 36 11 38 6 52 34 56 26 41 35 18 12 17 42 24 3 42 18 18 11 15 39 21 13 4 34 26 8 20 11 34 0 41 20 9 13 53 13 43 30 27 51 48 48 17 2 49 27 29 64 29 45 37 64 49 56 60 58 79 48 32 10 13 6 22 9 42 10 46 9 35 21 21 41 22 40 2 0 33 42 23 13 1 12 24 11 43 22 0 20 11 25 47 11 85 25 10 76 64 109 40 79 98 73 120 58 94 105 80 121 81 118 82 97 121 84 95 75 107 101 37 39 68 49 61 40 80 60 51 50 86 93 67 77 98 83 74 69 88 74 77 68 32 68 69 50 24 55 48 57 44 8 33 4 1 68 54 1 12 40 60 27 36 7 21 10 28 43 12 7 25 25 15 13 11 15 27 8 6 32 30 27 0 9 18 28 6 27 40 34 40 19 57 32 20 25 22 17 27 55 40 24 50 50 57 44 1 41 45 5 43 42 25 30 37 39 17 32 17 27 10 15 35 16 38 9 3 38 13 36 9 23 0 33 8 29 33 29 27 32 9 26 1 90 64 76 74 86 114 52 34 110 97 131 70 105 115 90 129 95 99 116 93 123 96 108 108 83 106 69 79 81 62 29 22 68 66 67 79 86 86 99 85 91 94 65 49 100 80 77 78 67 78 75 64 65 23 30 63 56 47 64 21 37 66 66 41 6 18 71 28 38 3 49 37 29 47 8 12 3 28 20 19 11 10 35 8 1 9 32 10 13 17 21 12 7 7 47 22 14 35 10 51 34 5 13 30 39 43 64 50 54 50 56 47 24 51 16 0 51 61 22 24 18 22 13 20 28 25 26 39 39 11 47 19 16 24 17 18 16 36 10 32 16 13 30 26 15 24 9 70 60 102 124 92 142 131 135 146 128 157 151 145 128 121 136 121 121 99 32 136 125 154 113 130 109 92 102 41 70 75 30 17 8 45 88 58 69 50 60 110 77 103 98 91 65 93 108 19 51 78 14 40 20 61 79 72 89 54 46 65 45 39 38 76 50 73 53 41 1 47 32 25 25 37 27 31 19 22 24 31 15 25 26 21 4 6 2 20 31 9 21 20 7 1 25 54 37 43 31 38 38 14 45 26 30 32 39 59 68 54 59 71 67 28 68 57 43 29 33 30 40 14 26 23 42 47 30 47 37 34 17 37 26 13 11 14 9 5 25 10 10 3 17 17 12 19 17 20 101 73 116 158 114 164 147 148 176 139 178 167 112 154 122 155 140 138 140 137 168 154 170 155 128 138 130 122 96 55 94 47 72 33 51 93 35 103 41 92 110 70 92 63 82 101 110 102 68 73 69 81 54 60 67 103 89 92 64 15 33 66 58 44 69 53 79 7 23 27 50 59 41 17 37 21 40 29 14 27 21 22 17 35 6 2 6 2 12 31 6 13 17 7 19 21 48 23 33 37 33 47 41 58 66 27 47 46 28 29 50 41 75 64 65 41 78 67 19 37 29 21 22 15 16 35 41 37 31 17 13 11 20 14 6 14 1 8 31 13 14 0 8 6 5 12 11 18 31 102 25 120 160 86 161 129 127 164 112 176 139 138 130 113 151 128 142 114 123 166 136 155 146 133 154 118 137 115 111 109 46 108 78 63 56 65 101 48 96 116 87 91 61 61 88 101 60 89 64 25 88 71 67 102 23 88 64 84 39 47 75 53 55 54 33 43 9 44 34 37 48 20 26 38 27 45 31 5 26 13 22 18 21 6 2 17 5 8 24 9 19 2 26 32 5 40 29 34 44 31 51 43 19 76 39 72 5 47 42 63 39 63 38 30 64 66 66 14 45 31 27 34 9 11 17 17 30 15 7 25 17 5 8 5 12 4 6 30 20 27 7 16 1 13 1 1 6 12 78 71 108 141 78 142 120 116 117 86 150 75 123 118 77 135 113 125 97 109 136 81 116 101 100 144 119 119 131 126 123 86 117 92 76 68 92 89 28 66 109 82 81 64 60 51 79 62 96 91 69 87 102 81 115 103 99 103 69 70 33 62 61 56 63 72 25 39 53 34 29 46 3 19 20 12 25 26 21 24 33 18 23 9 18 7 25 9 13 3 14 18 21 30 20 4 41 24 48 46 16 9 45 26 59 22 65 55 43 50 55 60 57 66 34 40 20 52 22 23 8 39 37 16 3 9 10 7 10 4 29 13 23 7 3 8 11 9 9 2 24 11 15 8 31 8 1 4 7 48 44 88 89 53 95 69 62 47 37 108 68 101 83 77 104 79 106 75 77 99 46 77 54 67 110 101 116 95 88 111 52 92 64 84 50 64 65 59 77 102 42 73 57 78 93 64 88 56 91 82 79 109 67 93 69 95 113 88 100 55 52 86 82 65 86 72 56 47 20 46 34 17 24 12 19 21 6 30 12 24 27 19 3 19 11 14 3 13 17 24 11 21 14 20 27 54 33 41 46 51 45 34 26 9 32 28 56 45 46 28 44 55 51 9 32 8 38 29 5 23 28 30 23 34 24 3 1 1 19 7 9 32 0 2 22 2 17 10 10 13 13 18 26 16 21 6 19 26 37 14 55 20 19 37 47 45 33 25 53 24 58 28 54 65 35 45 5 40 24 12 49 33 65 53 43 64 37 38 71 61 28 11 69 30 56 62 87 81 104 24 54 62 66 95 96 79 80 87 105 85 100 68 56 75 94 96 92 97 26 53 62 84 24 78 65 52 33 16 49 0 10 17 28 22 30 18 33 23 21 16 14 12 0 0 23 36 11 17 19 12 13 19 32 40 41 28 18 51 34 13 34 33 8 4 10 20 40 33 14 7 28 38 0 27 9 28 24 15 23 6 28 14 28 18 22 24 4 28 2 17 8 8 2 39 23 12 7 15 0 16 7 26 0 14 28 6 24 10 19 29 5 30 2 25 20 32 21 29 22 25 24 2 28 36 6 32 14 12 4 14 33 5 9 6 28 35 17 26 14 44 8 71 54 70 78 78 92 102 89 77 98 86 49 59 63 51 85 111 72 93 26 40 96 107 59 21 29 70 76 82 80 50 68 44 29 31 16 54 3 26 19 22 12 21 39 13 6 10 9 19 16 22 2 22 49 20 17 4 11 9 22 28 38 30 32 63 46 14 31 25 44 43 36 51 9 32 38 50 34 3 39 11 35 16 3 25 26 12 31 36 8 18 20 25 36 12 21 10 16 24 0 15 32 27 12 2 23 16 3 5 20 2 2 26 32 19 10 11 4 7 4 1 17 19 21 38 33 32 19 11 22 25 32 11 15 5 10 9 9 24 14 6 35 30 42 14 26 19 72 53 71 98 68 119 94 119 132 118 94 102 87 53 99 96 82 93 95 87 90 117 88 104 126 107 78 57 83 79 92 30 46 66 62 47 12 44 31 19 27 24 30 13 19 34 4 16 19 13 6 27 16 15 18 38 22 17 17 11 16 15 31 43 20 35 57 66 42 43 79 53 58 69 68 82 87 86 93 110 81 60 59 25 10 43 39 47 37 47 31 23 30 20 10 34 24 11 27 2 10 8 16 3 12 23 9 4 28 9 16 13 6 9 10 33 0 3 16 14 27 23 7 15 30 27 40 22 14 41 19 12 5 13 10 15 17 5 5 1 21 33 28 14 50 40 43 62 31 75 60 98 107 81 130 113 131 136 119 120 115 107 106 105 117 106 109 74 89 91 139 118 104 139 130 111 121 128 113 107 74 82 105 95 33 68 12 28 44 26 57 59 17 41 51 17 13 21 22 20 27 11 29 12 17 19 21 33 12 32 49 49 50 78 45 69 94 83 77 105 30 95 99 84 101 98 84 123 134 108 80 82 56 20 46 49 65 16 29 11 3 29 24 16 11 30 37 43 24 6 0 14 12 13 22 19 16 36 10 17 13 6 23 9 7 18 8 3 2 16 20 34 30 33 46 47 25 17 43 20 10 21 9 3 31 41 45 37 31 41 51 50 51 73 47 34 82 57 46 65 93 73 77 118 103 101 85 102 136 125 131 126 84 88 121 129 86 105 119 120 89 99 121 132 121 127 116 93 116 84 106 116 85 69 82 62 43 61 56 56 35 45 29 61 38 17 21 29 4 26 38 21 9 2 13 9 35 28 39 59 61 59 81 77 78 92 3 104 104 68 92 109 74 90 38 101 117 121 104 91 76 77 43 34 61 52 39 17 11 23 31 28 39 19 10 23 35 26 4 7 17 10 14 0 1 9 16 1 12 11 27 10 1 4 20 8 2 16 8 0 36 14 17 31 31 41 33 50 8 41 46 8 58 29 51 77 59 60 44 49 83 69 90 77 72 98 79 94 64 34 106 91 108 104 113 96 133 135 132 128 117 114 99 144 126 140 104 144 95 89 101 123 120 121 129 36 28 104 97 114 105 105 97 82 59 53 40 71 46 71 27 1 59 26 22 22 46 2 20 40 23 4 5 13 11 5 25 23 24 41 37 73 82 94 85 115 90 79 58 75 109 52 97 92 92 80 108 118 82 103 95 73 57 3 35 45 27 28 40 29 28 39 18 6 9 21 12 13 13 11 3 1 22 18 1 13 3 0 23 28 15 2 12 24 32 7 46 14 13 39 26 57 37 47 75 59 64 70 67 40 15 89 50 68 91 79 67 47 80 72 78 103 46 66 107 74 94 75 94 108 72 120 131 130 76 150 153 80 140 144 100 113 126 139 144 135 149 131 146 136 140 60 140 84 85 73 114 98 117 108 90 89 103 65 99 40 62 57 88 50 41 66 20 19 5 53 31 18 21 34 15 5 27 32 27 19 27 13 33 74 89 93 110 130 82 104 38 80 71 87 76 88 125 70 84 116 107 123 79 97 81 30 62 31 11 28 35 37 25 19 24 20 18 19 16 5 22 14 19 4 8 24 15 13 14 9 5 25 11 9 15 5 13 56 40 56 71 59 64 55 79 70 70 102 68 85 97 58 45 25 99 96 57 106 73 29 47 77 85 62 110 68 98 116 90 43 77 79 66 75 120 124 123 138 155 165 122 171 152 143 121 135 171 155 150 152 161 156 154 156 103 146 127 128 136 142 123 146 126 94 56 129 62 112 47 71 70 77 52 70 62 43 22 12 44 43 27 15 20 35 39 50 19 25 20 17 29 33 72 86 104 105 131 118 80 115 47 104 62 97 93 131 60 89 78 73 104 85 73 70 26 47 32 32 9 35 23 19 11 7 31 33 8 3 13 5 1 26 3 15 31 6 3 19 5 4 23 2 9 26 8 19 50 44 31 74 69 67 50 54 68 72 92 52 85 87 65 55 42 88 89 79 89 44 88 74 87 85 55 94 64 65 112 98 53 75 58 110 60 128 129 135 116 145 151 149 174 171 160 139 148 170 151 160 143 152 135 154 159 128 136 102 148 153 152 131 153 149 130 108 123 108 116 54 81 92 84 58 79 40 50 49 13 41 1 43 31 8 27 19 28 7 5 29 38 58 61 69 58 94 88 123 111 71 120 112 114 90 94 95 113 52 65 83 65 42 73 39 48 37 37 36 21 20 21 4 14 2 15 21 41 19 22 10 26 15 21 9 30 36 25 30 35 9 20 26 12 13 26 4 21 22 29 17 40 32 32 36 15 37 28 13 41 64 41 59 4 20 29 27 48 27 23 76 39 52 12 34 4 59 67 67 68 78 54 62 73 98 116 124 130 58 121 108 149 136 142 122 126 88 132 94 145 118 122 135 135 138 132 135 91 34 94 126 96 102 114 103 122 93 97 114 50 85 73 92 9 41 36 62 9 58 29 14 25 17 38 2 21 23 8 21 9 38 26 63 59 61 79 59 99 17 79 94 95 41 48 57 99 45 41 81 83 65 53 31 47 55 50 30 1 38 36 4 20 35 36 9 2 29 23 23 20 32 8 8 10 33 19 2 27 18 11 30 0 31 16 18 1 16 19 38 38 33 41 62 36 57 37 36 24 35 54 29 22 33 17 49 52 27 54 21 48 56 60 56 69 71 24 64 44 2 94 54 85 100 88 116 120 130 128 97 157 123 111 143 131 151 141 107 124 116 114 102 150 143 133 133 136 138 162 107 132 82 124 146 147 133 137 93 131 100 111 48 98 72 69 61 75 63 74 52 41 8 26 48 26 40 49 20 37 54 49 81 64 53 85 42 90 106 110 127 100 84 95 105 77 94 86 88 79 95 83 52 8 55 64 39 52 7 23 39 6 32 25 37 10 4 19 35 37 23 16 3 9 3 21 22 3 3 6 9 34 43 28 12 8 16 29 42 47 67 44 45 72 25 80 46 59 39 1 74 53 35 42 46 91 39 44 69 66 80 60 87 100 97 108 53 90 77 54 111 48 65 117 92 128 97 142 144 122 160 138 154 135 97 174 145 92 136 112 139 139 148 105 137 160 122 108 171 150 146 109 133 170 165 116 158 129 128 116 137 87 98 10 66 70 77 55 49 65 26 38 20 27 42 40 52 35 52 71 57 98 76 105 113 87 119 134 140 119 64 113 106 97 107 98 94 115 96 124 105 83 61 52 66 33 46 22 30 10 33 29 35 10 14 2 11 28 36 22 26 1 4 14 20 37 24 1 14 2 13 36 2 15 5 15 25 52 39 88 66 53 74 25 67 21 46 68 46 74 33 63 78 81 112 87 100 105 96 95 71 17 112 97 124 64 96 117 75 118 93 103 105 41 108 87 145 144 143 140 97 158 144 124 165 146 161 119 127 134 147 156 72 126 176 145 168 155 148 148 132 141 167 177 135 168 132 116 125 149 115 39 33 80 69 76 39 85 16 39 56 28 46 72 37 41 43 26 69 46 92 84 114 105 83 112 146 154 85 105 126 108 89 121 122 96 112 78 118 85 90 76 25 49 51 30 20 14 36 21 34 33 10 10 8 8 16 3 20 34 11 13 29 2 20 32 30 12 20 29 18 14 0 6 4 23 45 19 77 72 52 57 44 44 48 36 64 44 37 32 55 83 70 102 96 90 106 86 86 44 87 104 79 116 80 79 121 19 108 87 103 105 78 96 116 133 146 158 86 113 149 115 161 111 164 174 134 143 45 148 151 76 144 177 153 169 145 153 159 131 149 126 162 157 150 138 113 148 130 104 99 79 77 69 58 78 81 45 58 62 36 52 65 49 46 48 24 55 1 93 97 75 100 103 59 139 154 95 116 120 115 96 105 136 113 105 100 73 81 81 69 31 39 54 15 8 21 37 29 26 24 23 12 30 35 10 24 14 20 10 3 8 23 16 19 27 34 17 17 9 23 9 3 13 21 36 21 29 14 32 46 25 44 34 22 17 1 43 34 43 58 27 33 32 43 65 3 35 20 72 77 57 87 89 27 93 78 82 27 30 111 79 116 135 70 143 140 132 90 154 94 142 122 154 165 132 119 136 134 125 118 123 170 120 144 129 141 154 121 160 147 93 151 92 122 107 114 65 115 55 84 85 27 70 69 59 19 47 68 52 45 34 62 11 48 20 34 71 63 93 84 109 123 108 113 131 123 96 88 95 83 46 123 62 96 88 30 66 80 42 54 48 7 1 6 15 45 37 15 16 33 28 21 42 27 25 21 26 5 10 29 41 12 40 45 18 2 4 34 41 6 20 34 28 49 45 58 43 40 76 51 58 30 52 61 31 59 45 40 64 51 58 51 38 1 32 59 10 40 29 37 43 73 58 36 43 53 2 8 95 81 124 144 106 114 140 138 71 146 123 97 112 152 125 136 142 146 103 118 110 73 145 148 152 149 130 112 134 163 151 136 143 109 93 78 95 100 100 52 66 74 46 74 63 54 38 43 56 57 29 37 47 36 64 40 57 77 48 62 74 83 114 115 74 99 123 102 88 84 75 37 85 70 93 72 34 90 62 33 40 38 40 32 2 21 16 7 33 15 34 13 2 12 29 16 19 21 4 3 28 49 3 35 48 24 0 13 23 43 6 26 28 36 52 34 68 31 37 55 31 69 37 66 41 5 55 40 68 44 42 56 10 56 8 29 52 42 27 17 51 59 52 51 12 36 39 10 62 37 43 111 106 69 115 132 112 88 113 107 118 97 115 96 114 130 125 126 127 100 124 117 143 133 141 128 102 121 161 137 108 118 114 66 30 85 88 114 87 91 71 47 64 53 41 40 20 25 21 52 33 31 35 48 41 47 54 61 37 26 69 89 112 72 59 113 85 105 81 75 18 70 8 36 64 77 93 65 55 25 47 15 37 14 9 25 33 50 22 28 32 20 45 11 12 11 2 2 16 27 45 14 19 29 28 10 13 7 10 31 7 38 33 51 2 55 11 59 90 62 50 18 37 45 33 33 30 70 51 12 56 32 3 33 15 52 19 48 41 29 60 62 40 43 52 51 34 83 71 49 105 125 68 101 144 90 128 129 112 97 124 112 129 118 146 104 145 103 66 120 132 127 121 139 147 119 122 161 131 122 88 117 117 101 62 105 81 86 82 63 38 51 44 26 18 43 61 47 50 29 20 41 19 30 6 46 59 41 53 60 86 124 112 78 87 53 108 70 99 73 69 85 95 97 23 58 41 17 26 36 53 29 20 13 28 10 55 3 34 53 37 36 37 22 4 1 1 11 27 34 26 11 34 22 25 4 32 30 41 23 21 37 25 23 43 33 62 95 37 22 5 46 50 0 53 20 66 54 24 53 33 43 22 3 65 50 55 61 23 64 62 31 48 45 54 43 89 90 52 130 140 90 132 153 132 137 151 154 120 145 89 136 144 144 129 130 136 116 123 133 123 113 144 144 115 134 148 115 121 122 124 119 90 86 98 101 76 57 72 33 21 53 26 52 12 39 28 30 24 14 55 30 34 33 65 62 55 49 66 101 118 124 113 60 84 111 42 102 91 87 98 90 83 93 79 78 54 19 46 49 24 22 29 20 30 41 1 35 56 28 10 27 22 4 20 0 2 36 16 35 26 13 28 20 11 35 12 18 40 14 20 23 18 27 23 64 38 33 54 33 52 3 14 67 28 51 24 40 59 20 49 31 23 64 59 40 11 28 56 35 20 71 52 54 54 78 73 38 120 125 52 131 132 128 136 155 140 60 126 108 109 153 128 123 101 107 118 91 83 128 107 115 97 73 111 146 114 108 121 96 116 95 87 62 100 90 22 50 24 44 49 1 54 8 29 16 41 24 47 43 36 4 35 58 59 32 22 77 86 98 107 123 94 87 82 86 69 96 99 66 61 34 82 81 60 61 31 54 39 44 44 8 8 48 23 1 20 51 36 7 21 7 36 18 19 5 53 31 23 42 19 40 20 10 10 8 15 18 37 33 30 9 43 49 26 62 40 81 56 50 50 54 75 37 49 62 51 48 62 64 53 66 65 73 63 75 38 56 31 38 79 68 37 58 75 83 62 103 121 109 124 108 109 120 128 139 151 157 131 149 145 121 103 83 117 138 100 114 101 121 147 153 106 126 142 106 144 125 125 132 109 94 101 118 112 85 74 45 72 11 37 45 28 37 40 60 45 43 12 41 6 34 36 71 48 49 77 87 100 124 117 108 92 61 91 16 88 93 37 72 7 17 84 57 5 41 54 36 56 8 2 22 50 22 27 35 31 47 10 7 22 39 30 7 25 56 11 19 31 64 47 39 44 59 47 33 26 35 56 50 4 35 50 32 61 55 76 63 43 63 21 44 40 41 52 10 45 83 74 60 82 52 67 72 63 51 54 33 42 59 47 38 53 79 54 37 81 114 105 110 100 95 110 112 124 152 145 119 138 128 99 105 89 132 119 81 129 106 130 105 143 124 151 155 101 139 113 123 107 87 99 115 114 104 108 61 76 75 41 55 9 56 36 81 70 34 20 20 64 45 28 66 56 51 62 4 109 89 112 96 93 88 74 96 21 80 81 78 91 64 56 92 66 57 31 28 10 39 22 40 47 39 32 40 56 44 53 12 40 14 23 8 10 26 15 58 62 45 66 50 9 53 62 58 42 43 49 36 42 52 42 22 59 26 43 83 77 50 38 36 72 18 56 64 29 77 81 57 75 74 9 61 65 30 49 90 55 56 73 65 32 38 88 97 76 81 107 45 135 139 131 109 120 61 124 98 102 125 113 71 132 39 143 102 158 104 126 160 164 110 155 141 151 121 97 152 104 139 128 114 106 83 55 85 79 54 54 58 93 79 78 21 84 43 33 45 73 55 62 45 68 20 63 67 72 128 101 121 51 118 113 105 118 71 98 97 71 115 110 97 83 70 53 28 46 7 22 43 59 35 59 10 1 35 42 35 18 56 28 36 25 22 42 61 35 67 59 30 64 25 21 65 68 58 39 34 48 47 56 55 24 24 23 58 96 41 77 72 74 60 61 59 88 39 98 85 70 78 69 56 74 30 82 93 98 73 85 114 62 98 84 54 102 71 72 104 75 142 95 148 140 125 151 149 133 109 139 50 92 135 132 164 131 179 141 124 155 191 143 172 157 123 107 158 174 175 158 131 136 96 118 102 95 107 85 93 53 76 69 73 57 70 59 22 46 95 33 74 41 35 51 85 86 114 129 70 130 142 140 110 102 141 113 55 111 65 105 115 91 54 85 39 50 67 15 50 61 73 46 49 60 26 68 53 17 28 54 45 50 49 27 20 69 79 57 47 11 67 36 63 51 72 74 29 56 50 61 64 42 41 43 69 68 90 58 33 51 65 92 22 64 100 59 104 72 100 78 86 73 36 94 93 104 95 80 80 115 75 117 109 95 67 94 63 112 82 144 148 150 148 157 164 167 162 128 148 138 157 154 142 161 149 171 136 117 150 192 174 169 166 134 115 166 133 172 151 119 160 128 133 114 105 107 114 92 77 75 42 72 35 81 53 63 41 93 71 76 40 70 94 58 88 130 113 108 124 148 125 121 89 140 97 79 107 71 101 88 87 74 76 34 81 75 17 33 82 66 42 76 48 8 80 55 10 53 57 46 26 63 29 33 74 86 70 69 58 72 22 83 63 51 63 35 73 34 67 76 18 4 35 74 58 82 56 90 71 62 106 40 46 96 83 109 76 100 57 96 100 46 95 46 73 108 64 60 85 53 103 62 72 109 104 107 136 135 93 155 137 140 119 149 172 166 148 136 140 164 159 128 169 144 136 52 135 155 154 156 145 141 141 106 139 141 122 142 135 151 114 123 44 89 65 102 70 84 89 46 37 18 81 39 30 50 59 37 40 65 53 90 86 99 111 98 114 94 145 106 137 82 134 93 96 106 96 116 91 104 65 53 78 93 73 52 55 37 61 43 87 38 14 78 57 25 75 53 29 31 42 45 31 76 75 62 66 90 58 21 80 73 38 35 26 76 14 77 63 64 65 64 67 56 66 58 89 70 66 91 77 77 93 89 106 95 74 90 74 111 58 46 78 33 97 88 57 17 58 73 95 73 118 80 115 124 129 124 157 144 156 137 126 160 125 113 134 139 130 125 137 177 163 171 132 150 156 129 147 148 119 142 118 120 120 168 162 124 91 129 128 111 88 84 89 93 65 65 78 56 59 63 68 53 66 67 46 36 54 46 0 86 95 98 19 80 97 153 117 105 133 141 122 99 136 128 101 81 93 79 70 62 82 70 25 67 66 56 53 81 40 20 75 47 39 68 34 33 20 54 34 47 74 67 55 6 87 66 9 65 67 33 39 45 67 38 71 33 62 62 59 73 56 24 61 86 61 65 60 63 33 64 82 101 90 65 22 81 105 47 93 69 24 86 76 16 65 73 70 70 86 76 71 118 77 116 71 175 173 142 144 120 158 135 95 133 102 113 132 162 168 163 172 160 152 155 148 152 142 151 137 157 122 133 155 165 136 112 129 130 114 106 47 105 70 83 92 44 68 70 41 88 78 79 57 29 55 21 1 41 65 91 125 100 105 114 151 122 100 144 138 127 106 123 125 81 82 28 82 19 67 92 58 73 87 56 49 4 89 51 36 62 40 68 66 21 54 31 60 25 36 47 65 60 21 58 48 56 48 62 33 47 51 37 44 13 12 65 14 27 72 56 68 44 79 58 58 50 25 69 43 62 97 67 70 64 59 91 78 84 78 49 84 47 75 84 75 81 47 103 75 89 101 76 131 124 183 184 124 154 166 174 158 113 139 109 147 151 163 153 157 158 128 170 166 178 131 140 161 169 155 177 146 112 144 149 152 139 124 92 110 70 101 89 73 79 59 64 72 60 94 103 75 45 30 54 78 70 70 70 112 135 125 100 157 151 73 87 145 110 139 129 111 118 110 80 72 107 94 75 92 72 77 84 33 71 33 72 66 69 33 65 75 52 29 42 43 53 41 30 17 67 48 27 24 23 47 18 51 46 49 54 43 53 57 38 87 59 57 66 63 91 39 43 65 48 25 41 29 84 19 102 7 40 40 43 73 63 3 27 44 84 67 89 62 63 97 70 88 94 84 57 108 115 155 155 162 146 162 132 157 156 112 124 139 142 147 148 118 153 156 138 182 141 190 165 172 162 156 145 170 157 138 117 139 144 139 121 80 96 57 99 95 52 74 77 31 68 71 70 82 37 58 52 29 82 48 76 73 103 107 107 110 156 134 107 100 130 126 100 114 125 108 111 70 85 106 88 58 69 81 62 68 60 72 66 30 74 58 2 60 57 47 57 15 36 63 41 26 9 36 7 2 10 31 9 42 22 36 26 38 47 18 50 57 89 77 46 99 30 99 75 47 55 37 63 42 17 100 48 105 74 72 67 53 70 55 55 48 7 98 70 64 62 56 84 57 35 113 53 82 123 88 150 132 138 127 158 157 160 117 135 46 155 108 138 148 109 132 142 154 168 156 152 123 166 142 27 130 121 138 148 135 115 104 119 105 67 94 63 100 88 59 57 69 0 55 57 37 64 36 19 35 20 50 17 61 60 88 90 110 111 136 121 86 128 57 123 94 97 113 60 95 31 81 62 50 68 73 64 35 39 59 53 52 37 50 29 27 64 17 17 57 30 37 52 8 22 10 10 23 13 26 28 8 25 7 7 6 9 30 24 12 33 56 74 33 107 61 96 101 52 58 31 69 64 49 104 52 94 102 83 103 56 56 81 13 73 9 105 75 30 80 6 59 27 79 109 59 86 121 89 119 108 114 113 103 134 153 49 143 139 125 135 127 135 106 146 141 143 143 145 159 142 126 147 77 135 155 98 137 146 111 102 51 104 84 106 93 88 67 16 59 41 42 37 43 37 51 33 21 35 23 26 29 43 21 48 82 88 85 120 122 104 100 20 110 77 97 76 55 75 52 70 77 64 63 73 44 37 21 52 32 19 25 45 43 19 53 21 33 33 29 12 38 11 10 14 10 8 14 28 20 5 14 25 6 7 13 18 23 1 17 34 59 19 97 29 85 82 26 60 33 47 38 24 93 15 90 86 89 108 67 78 72 39 77 2 90 75 30 65 34 11 29 59 73 58 109 98 92 93 103 91 131 120 127 125 11 120 133 116 105 132 112 101 129 116 123 127 137 150 93 130 113 109 88 124 112 125 122 124 88 80 101 63 91 71 48 66 58 73 44 38 22 53 51 3 40 12 40 18 48 33 44 45 77 4 61 75 97 95 98 99 95 97 62 71 81 70 62 49 70 45 61 36 57 34 46 26 38 22 13 43 42 23 12 13 9 21 16 19 3 29 11 4 16 16 9 20 17 21 2 5 37 8 2 4 21 16 0 4 61 10 13 72 40 59 11 41 43 7 33 18 26 69 28 85 80 37 98 65 65 67 2 60 6 49 58 14 23 12 8 7 10 38 33 84 79 82 78 102 55 112 106 108 97 54 63 95 95 111 103 116 121 117 72 123 93 79 113 107 103 111 87 120 104 32 93 100 105 63 104 98 56 58 38 36 69 54 60 39 32 25 42 49 9 22 32 29 10 52 55 47 20 58 42 66 26 59 25 42 59 53 56 80 34 60 47 56 21 29 32 41 32 37 24 43 9 1 29 26 39 19 4 0 23 1 8 18 28 10 4 0 27 20 23 21 33 5 5 14 7 33 8 4 19 19 13 14 1 49 36 33 51 36 42 24 45 31 8 9 48 27 45 33 56 65 52 61 41 56 51 38 1 18 28 11 3 39 16 27 24 26 63 5 63 44 56 98 91 67 102 72 88 115 88 86 97 69 102 40 107 129 117 106 122 74 60 109 84 103 111 94 123 86 3 91 105 93 85 88 101 35 50 37 26 40 29 17 25 38 34 45 29 5 16 24 1 34 33 73 46 12 28 72 62 28 53 69 47 34 58 6 60 37 3 35 54 38 48 37 45 26 37 23 43 29 17 33 16 24 13 19 15 31 6 0 16 20 8 0 10 26 14 6 2 24 12 21 3 36 12 2 8 27 12 17 24 3 46 17 29 18 21 14 31 36 8 30 23 28 23 26 18 7 43 28 25 13 32 44 26 28 14 32 23 21 30 3 24 19 18 53 31 47 49 38 94 67 24 96 75 75 107 104 91 91 46 68 88 108 120 112 121 105 90 82 84 73 74 108 98 118 77 86 48 95 112 93 67 42 57 75 43 67 34 53 19 10 36 26 33 4 7 20 19 16 42 24 53 23 14 55 62 74 21 51 12 68 25 67 46 41 31 49 8 48 16 50 24 25 34 23 9 37 16 36 9 13 14 10 8 7 21 5 0 16 0 24 0 23 14 10 21 27 11 6 17 2 21 34 1 10 35 19 12 26 13 25 14 32 11 27 10 32 20 4 25 29 7 20 1 12 28 15 3 17 4 35 24 34 9 11 2 18 12 10 5 11 26 15 10 28 17 64 2 86 66 40 77 90 94 83 91 90 81 42 62 81 104 68 96 108 97 117 92 89 77 83 93 99 112 52 81 104 92 100 91 51 73 86 68 38 94 12 74 33 48 4 32 1 21 11 26 18 38 33 31 40 32 40 63 57 68 47 80 89 44 56 50 67 22 38 22 32 49 23 42 23 24 6 4 13 8 17 40 9 15 5 12 19 2 18 6 7 11 25 12 18 11 37 34 40 36 24 9 20 15 9 51 19 10 29 24 3 26 17 15 13 52 26 25 21 39 25 21 0 27 26 12 23 11 29 4 20 24 5 33 2 40 13 29 37 40 36 5 3 9 16 1 41 23 62 63 46 96 57 41 82 94 56 67 94 65 96 49 65 66 101 56 51 76 21 127 104 124 89 88 48 117 94 118 98 104 70 46 78 86 88 68 22 38 104 34 65 64 33 24 31 12 38 4 30 0 50 32 19 53 25 39 48 48 90 64 103 86 80 85 1 72 59 53 69 76 47 30 25 42 8 20 8 4 9 23 21 5 11 26 32 37 3 9 6 21 2 33 26 27 4 27 24 21 30 19 13 9 18 6 48 14 4 0 7 5 17 24 10 17 32 26 0 11 40 13 35 13 12 22 23 24 10 27 6 10 23 3 25 9 31 11 26 38 32 34 2 1 9 10 26 53 23 52 54 62 98 89 49 85 79 69 80 101 88 106 59 68 92 94 62 88 74 109 98 117 128 102 86 93 116 92 113 117 51 47 94 93 74 101 67 38 57 95 43 36 50 5 27 10 18 39 20 22 3 40 36 3 42 30 42 15 56 99 88 95 84 51 64 57 45 65 51 88 67 52 29 18 43 8 15 6 8 6 6 6 10 1 31 20 29 16 4 14 18 3 16 12 5 8 14 7 1 26 0 0 4 2 14 23 2 8 9 4 7 11 15 10 1 1 6 12 11 18 3 28 14 1 14 17 23 4 21 4 2 19 5 19 3 15 3 5 18 13 17 1 3 3 16 12 34 21 22 29 37 76 86 66 34 93 19 60 55 74 94 58 80 79 55 51 82 109 105 33 99 83 50 59 105 68 77 91 98 90 84 78 82 45 75 74 63 83 69 37 33 7 8 18 3 8 24 25 10 0 18 20 10 22 36 25 45 50 76 66 75 92 31 10 46 40 25 16 69 24 56 27 25 33 19 5 6 7 3 10 12 7 0 17 5 12 4 10 11 3 1 6 1 9 1 4 1 3 18 3 2 9 1 5 0 4 1 2 5 3 1 2 6 5 5 17 4 0 0 2 18 7 5 13 9 15 1 7 7 6 9 0 3 2 4 16 6 2 7 5 14 6 4 3 1 19 24 34 20 15 59 83 15 31 69 52 67 44 64 65 49 73 67 82 42 57 99 62 72 100 88 56 81 90 89 99 92 67 52 84 70 57 58 66 62 24 62 22 14 23 12 6 12 5 5 1 4 3 2 7 13 7 3 24 10 29 30 38 44 74 69 46 17 34 25 19 25 16 37 25 23 23 18 7 6 5 5 2 11 4 1 2 1 2 0 2 9 5 1 3 7 4 0 2 8 1 1 7 1 2 2 0 2 0 0 2 6 5 1 4 0 5 2 1 4 5 9 3 0 11 5 7 3 3 5 1 1 0 1 1 1 11 9 3 25 11 2 1 7 24 9 1 2 10 12 0 30 20 10 60 87 30 40 0 62 53 50 46 66 82 85 71 49 49 70 56 33 79 62 66 76 83 71 77 99 92 50 85 77 84 16 22 67 34 33 27 14 10 4 14 7 4 0 6 7 14 3 5 3 10 2 0 21 12 10 30 45 59 60 44 47 15 10 11 6 9 25 14 3 3 12 12 2 6 4 2 0 7 0 0 0 1 6 2 0 2 3 3 1 5 3 2 1 3 1 0 2 1 1 0 0 0 0 0 3 3 3 1 6 0 6 4 3 5 4 6 1 0 10 7 4 0 0 2 2 0 0 0 0 0 9 3 1 14 1 0 0 2 6 2 0 5 11 2 1 3 3 15 33 79 35 44 24 31 7 45 36 65 85 66 69 8 40 30 60 0 66 57 73 68 55 57 84 87 83 75 90 72 48 31 26 62 13 9 29 18 6 2 6 2 2 3 8 0 25 0 2 1 3 0 0 12 14 17 16 21 28 53 13 9 14 32 21 7 12 7 3 12 17 3 6 5 1 1 3 1 2 0 0 2 1 3 0 1 2 0 0 2 0 0 1 0 4 0 0 2 0 0 0 0 0 0 0 0 1 0 1 3 1 2 7 4 6 3 2 0 0 14 4 0 2 0 1 0 0 0 0 0 2 1 0 1 1 0 1 0 1 0 1 1 4 6 0 1 11 21 2 29 59 35 30 54 22 21 29 26 35 60 17 37 40 31 36 60 18 38 16 67 25 45 40 64 50 47 25 61 38 25 33 43 43 29 17 15 1 0 2 0 5 1 1 4 6 14 2 0 0 0 1 3 1 5 19 23 27 33 52 11 12 15 15 21 11 1 6 9 1 21 2 1 0 2 3 1 2 1 1 0 2 0 0 0 0 0 1 0 0 1 1 0 0 4 0 0 1 1 0 0 0 1 0 0 0 0 2 4 0 3 0 3 0 4 2 0 0 3 8 0 3 0 0 0 0 0 0 0 0 2 0 0 0 0 0 1 0 1 0 1 3 0 1 0 0 9 12 3 2 18 19 19 40 16 14 4 16 32 39 24 7 47 23 15 19 11 24 33 51 24 26 21 3 21 23 23 30 4 18 34 31 14 17 21 4 6 2 3 5 3 3 0 2 6 0 0 0 0 0 0 2 2 1 3 0 23 5 25 4 17 11 2 2 1 0 4 2 0 8 4 0 0 1 4 1 0 2 2 0 0 0 0 0 1 0 0 0 0 1 0 0 0 1 0 0 0 1 0 0 0 0 0 0 0 0 0 0 0 1 2 2 3 2 0 0 0 1 2 0 2 2 1 0 0 0 0 0 1 0 0 0 0 0 0 1 0 1 0 0 0 1 0 0 0 2 0 3 0 0 0 5 3 1 4 4 10 5 1 15 14 26 14 0 4 23 11 19 22 10 5 20 14 5 5 2 11 0 14 13 25 4 13 10 1 10 5 0 10 3 1 0 0 1 0 1 0 0 0 0 0 2 0 0 1 2 3 1 5 4 1 0 0 0 0 0 0 0 0 0 0 0 0 0 1 0 1 1 0 0 0 0 0 1 0 0 0 0 0 0 0 0 0 0 0 0 0 0 0 0 0 0 0 0 0 0 0 0 0 1 1 0 2 0 0 0 0 0 0 1 1 0 0 0 0 0 0 1 0 0 0 0 0 0 0 0 1 1 0 0 1 0 0 0 0 0 4 2 2 4 6 4 0 4 0 0 2 2 14 13 7 14 0 8 3 7 6 2 27 31 35 15 2 12 4 5 15 6 18 18 7 14 9 1 9 6 10 8 3 1 4 0 0 0 0 0 0 0 0 1 1 0 0 1 0 3 5 4 3 1 0 0 0 0 0 0 1 0 0 0 0 0 0 0 0 0 0 1 0 0 0 0 0 0 0 0 0 0 0 0 0 0 0 0 0 0 0 0 0 0 0 0 1 0 0 0 0 0 0 0 0 0 0 0 0 0 0 0 1 0 0 0 0 0 0 0 0 0 0 0 0 0 0 0 0 0 1 0 0 1 0 0 0 0 0 3 0 0 7 6 13 8 6 0 2 5 1 5 16 2 16 3 5 10 16 11 1 2 14 33 6 18 12 5 4 8 9 22 9 4 0 9 1 12 8 10 0 0 7 6 0 0 0 0 0 0 0 0 0 0 1 1 1 1 3 5 4 1 0 1 2 0 0 0 0 1 0 0 0 0 0 0 0 0 0 0 0 0 0 0 0 0 0 0 0 0 0 0 0 0 0 0 0 0 0 0 0 0 0 0 0 1 1 0 1 0 1 0 0 0 0 0 0 0 0 0 0 0 0 0 0 0 0 0 0 1 0 1 0 0 0 0 0 0 0 1 0 0 0 0 0 0 2 2 0 6 3 6 6 11 8 1 0 6 5 3 1 16 2 7 4 5 1 3 22 10 21 16 17 25 24 2 3 5 12 3 12 0 0 1 9 1 14 19 1 3 0 8 2 0 0 0 0 0 0 0 0 0 0 0 1 3 2 3 0 10 0 0 1 1 1 0 0 0 1 0 0 0 0 0 0 0 0 0 0 0 0 0 0 0 0 0 0 0 0 0 0 0 0 1 0 0 0 0 0 0 0 0 0 0 0 1 0 0 0 2 0 0 0 0 0 0 0 0 0 0 0 0 0 0 0 0 0 0 2 0 0 1 0 0 0 0 2 0 0 0 0 0 0 0 0 3 5 0 6 3 1 7 9 4 1 0 4 7 0 1 5 2 0 1 6 19 5 12 8 17 27 0 25 15 5 9 7 19 3 0 4 0 0 2 1 3 7 1 3 1 3 0 0 0 0 0 0 0 0 0 1 0 0 1 1 0 3 3 6 0 0 0 0 0 0 0 0 1 0 0 0 0 0 0 0 0 0 0 0 0 0 0 0 0 0 0 0 0 0 0 0 0 0 0 0 0 0 0 0 0 0 0 0 0 0 0 0 0 0 0 0 0 0 0 0 0 0 0 0 0 0 0 0 0 0 0 0 0 0 0 0 0 0 0 0 1 0 0 0 0 0 0 0 0 0 2 0 0 1 0 3 6 1 7 3 0 2 0 1 0 2 1 2 0 7 0 2 1 1 11 4 4 14 8 5 0 5 6 1 1 0 1 0 0 0 0 0 0 0 0 0 0 0 0 0 0 0 0 0 0 0 0 0 0 1 0 1 0 0 0 0 0 0 0 0 0 0 0 0 0 0 0 0 0 0 0 0 0 0 0 0 0 0 0 0 0 0 0 0 0 0 0 0 0 0 0 0 0 0 0 0 0 0 0 0 0 0 0 0 0 0 0 0 0 0 0 0 0 0 0 0 0 0 0 0 0 0 0 0 0 0 0 0 0 0 0 0 0 0 0 0 0 0 0 0 0 0 0 0 2 2 3 4 0 2 1 0 0 0 2 2 0 7 4 1 1 0 0 3 0 2 5 2 0 0 1 0 1 0 0 0 0 0 0 0 0 0 0 0 0 0 0 0 0 0 0 0 0 0 0 0 0 0 0 0 0 0 0 0 0 0 0 0 0 0 0 0 0 0 0 0 0 0 0 0 0 0 0 0 0 0 0 0 0 0 0 0 0 0 0 0 0 0 0 0 0 0 0 0 0 0 0 0 0 0 0 0 0 0 0 0 0 0 0 0 0 0 0 0 0 0 0 0 0 0 0 0 0 0 0 0 0 0 0 0 0 0 0 0 0 0 0 0 0 0 0 0 0 1 0 2 2 0 1 1 1 0 0 3 0 0 4 7 1 1 0 0 5 0 2 1 0 0 2 0 1 2 0 0 0 0 0 0 0 0 0 0 0 0 0 0 0 0 0 0 0 0 0 0 0 0 0 0 0 0 0 0 0 0 0 0 0 0 0 0 0 0 0 0 0 0 0 0 0 0 0 0 0 0 0 0 0 0 0 0 0 0 0 0 0 0 0 0 0 0 0 0 0 0 0 0 0 0 0 0 0 0 0 0 0 0 0 0 0 0 0 0 0 0 0 0 0 0 0 0 0 0 0 0 0 0 0 0 0 0 0 0 0 0 0 0 0 0 0 0 0 0 0 0 0 0 0 0 0 1 1 1 3 0 0 0 0 0 1 1 0 1 0 1 0 0 0 1 0 1 0 0 0 0 0 0 0 0 0 0 0 0 0 0 0 0 0 0 0 0 0 0 0 0 0 0 0 0 0 0 0 0 0 0 0 0 0 0 0 0 0 0 0 0 0 0 0 0 0 0 0 0 0 0 0 0 0 0 0 0 0 0 0 0 0 0 0 0 0 0 0 0 0 0 0 0 0 0 0 0 0 0 0 0 0 0 0 0 0 0 0 0 0 0 0 0 0 0 0 0 0 0 0 0 0 0 0 0 0 0 0 0 0 0 0 0 0 0 0 0 0 0 0 0 0 0 0 0 0 0 0 0 0 0 0 0 0 0 0 0 0 0 0 0 0 0 0 0 0 0 0 0 0 0 0 0 0 0 0 0 0 0 0 0 0 0 0 0 0 0 0 0 0 0 0 0 0 0 0 0 0 0 0 0 0 0 0 0 0 0 0 0 0 0 0 0 0 0 0 0 0 0 0 0 0 0 0 0 0 0 0 0 0 0 0 0 0 0 0 0 0 0 0 0 0 0 0 0 0 0 0 0 0 0 0 0 0 0 0 0 0 0 0 0 0 0 0 0 0 0 0 0 0 0 0 0 0 0 0 0 0 0 0 0 0 0 0 0 0 0 0 0 0 0 0 0 0 0 0 0 0 0 0 0 0 0 0 0 0 0 0 0 0 0 0 0 0 0 0 0 0 0 0 0 0 0 0 0 0 0 0 0 0 0 0 0 0 0 0 0 0 0 0 0 0 0 0 0 0 0 0 0 0 0 0 0 0 0 0 0 0 0 0 0 0 0 0 0 0 0 0 0 0 0 0 0 0 0 0 0 0 0 0 0 0 0 0 0 0 0 0 0 0 0 0 0 0 0 0 0 0 0 0 0 0 0 0 0 0 0 0 0 0 0 0 0 0 0 0 0 0 0 0 0 0 0 0 0 0 0 0 0 0 0 0 0 0 0 0 0 0 0 0 0 0 0 0 0 0 0 0 0 0 0 0 0 0 0 0 0 0 0 0 0 0 0 0 0 0 0 0 0 0 0 0 0 0 0 0 0 0 0 0 0 0 0 0 0 0 0 0 0 0 0 0 0 0 0 0 0 0 0 0 0 0 0 0 0 0 0 0 0 0 0 0 0 0 0 0 0 0 0 0 0 0 0 0 0 0 0 0 0 0 0 0 0 0 0 0 0 0 0 0 0 0 0 0 0 0 0 0 0 0 0 0 0 0 0 0 0 0 0 0 0 0 0 0 0 0 0 0 0 0 0 0 0 0 0 0 0 0 0 0 0 0 0 0 0 0 0 0 0 0 0 0 0 0 0 0 0 0 0 0 0 0 0 0 0 0 0 0 0 0 0 0 0 0 0 0 0 0 0 0 0 0 0 0 0 0 0 0 0 0 0 0 0 0 0 0 0 0 0 0 0 0 0 0 0 0 0 0 0 0 0 0 0 0 0 0 0 0 0 0 0 0 0 0 0 0 0 0 0 0 0 0 0 0 0 0 0 0 0 0 0 0 0 0 0 0 0 0 0 0 0 0 0 0 0 0 0 0 0 0 0 0 0 0 0 0 0 0 0 0 0 0 0 0 0 0 0 0 0 0 0 0 0 0 0 0 0 0 0 0 0 0 0 0 0 0 0 0 0 0 0 0 0 0 0 0 0 0 0 0 0 0 0 0 0 0 0 0 0 0 0 0 0 0 0 0 0 0 0 0 0 0 0 0 0 0 0 0 0 0 0 0 0 0 0 0 0 0 0 0 0 0 0 0 0 0 0 0 0 0 0 0 0 0 0 0 0 0 0 0 0 0 0 0 0 0 0 0 0 0 0 0 0 0 0 0 0 0 0 0 0 0 0 0 0 0 0 0 0 0 0 0 0 0 0 0 0 0 0 0 0 0 0 0 0 0 0 0 0 0 0 0 0 0 0 0 0 0 0 0 0 0 0 0 0 0 0 0 0 0 0 0 0 0 0 0 0 0 0 0 0 0 0 0 0 0 0 0 0 0 0 0 0 0 0 0 0 0 0 0 0 0 0 0 0 0 0 0 0 0 0 0 0 0 0 0 0 0 0 0 0 0 0 0 0 0 0 0 0 0 0 0 0 0 0 0 0 0 0 0 0 0 0 0 0 0 0 0 0 0 0 0 0 0 0 0 0 0 0 0 0 0 0 0 0 0 0 0 0 0 0 0 0 0 0 0 0 0 0 0 0 0 0 0 0 0 0 0 0 0 0 0 0 0 0 0 0 0 0 0 0 0 0 0 0 0 0 0 0 0 0 0 0 0 0 0 0 0 0 0 0 0 0 0 0 0 0 0 0 0 0 0 0 0 0 0 0 0 0 0 0 0 0 0 0 0 0 0 0 0 0 0 0 0 0 0 0 0 0 0 0 0 0 0 0 0 0 0 0 0 0 0 0 0 0 0 0 0 0 0 0 0 0 0 0 0 0 0 0 0 0 0 0 0 0 0 0 0 0 0 0 0 0 0 0 0 0 0 0 0 0 0 0 0 0 0 0 0 0 0 0 0 0 0 0 0 0 0 0 0 0 0 0 0 0 0 0 0 0 0 0 0 0 0 0 0 0 0 0 0 0 0 0 0 0 0 0 0 0 0 0 0 0 0 0 0 0 0 0 0 0 0 0 0 0 0 0 0 0 0 0 0 0 0 0 0 0 0 0 0 0 0 0 0 0 0 0 0 0 0 0 0 0 0 0 0 0 0 0 0 0 0 0 0 0 0 0 0 0 0 0 0 0 0 0 0 0 0 0 0 0 0 0 0 0 0 0 0 0 0 0 0 0 0 0 0 0 0 0 0 0 0 0 0 0 0 0 0 0 0 0 0 0 0 0 0 0 0 0 0 0 0 0 0 0 0 0 0 0 0 0 0 0 0 0 0 0 0 0 0 0 0 0 0 0 0 0 0 0 0 0 0 0 0 0 0 0 0 0 0 0 0 0 0 0 0 0 0 0 0 0 0 0 0 0 0 0 0 0 0 0 0 0 0 0 0 0 0 0 0 0 0 0 0 0 0 0 0 0 0 0 0 0 0 0 0 0 0 0 0 0 0 0 0 0 0 0 0 0 0 0 0 0 0 0 0 0 0 0 0 0 0 0 0 0 0 0 0 0 0 0 0 0 0 0 0 0 0 0 0 0 0 0 0 0 0 0 0 0 0 0 0 0 0 0 0 0 0 0 0 0 0 0 0 0 0 0 0 0 0 0 0 0 0 0 0 0 0 0 0 0 0 0 0 0 0 0 0 0 0 0 0 0 0 0 0 0 0 0 0 0 0 0 0 0 0 0 0 0 0 0 0 0 0 0 0 0 0 0 0 0 0 0 0 0 0 0 0 0 0 0 0 0 0 0 0 0 0 0 0 0 0 0 0 0 0 0 0 0 0 0 0 0 0 0 0 0 0 0 0 0 0 0 0 0 0 0 0 0 0 0 0 0 0 0 0 0 0 0 0 0 0 0 0 0 0 0 0 0 0 0 0 0 0 0 0 0 0 0 0 0 0 0 0 0 0 0 0 0 0 0 0 0 0 0 0 0 0 0 0 0 0 0 0 0 0 0 0 0 0 0 0 0 0 0 0 0 0 0 0 0 0 0 0 0 0 0 0 0 0 0 0 0 0 0 0 0 0 0 0 0 0 0 0 0 0 0 0 0 0 0 0 0 0 0 0 0 0 0 0 0 0 0 0 0 0 0 0 0 0 0 0 0 0 0 0 0 0 0 0 0 0 0 0 0 0 0 0 0 0 0 0 0 0 0 0 0 0 0 0 0 0 0 0 0 0 0 0 0 0 0 0 0 0 0 0 0 0 0 0 0 0 0 0 0 0 0 0 0 0 0 0 0 0 0 0 0 0 0 0 0 0 0 0 0 0 0 0 0 0 0 0 0 0 0 0 0 0 0 0 0 0 0 0 0 0 0 0 0 0 0 0 0 0 0 0 0 0 0 0 0 0 0 0 0 0 0 0 0 0 0 0 0 0 0 0 0 0 0 0 0 0 0 0 0 0 0 0 0 0 0 0 0 0 0 0 0 0 0 0 0 0 0 0 0 0 0 0 0 0 0 0 0 0 0 0 0 0 0 0 0 0 0 0 0 0 0 0 0 0 0 0 0 0 0 0 0 0 0 0 0 0 0 0 0 0 0 0 0 0 0 0 0 0 0 0 0 0 0 0 0 0 0 0 0 0 0 0 0 0 0 0 0 0 0 0 0 0 0 0 0 0 0 0 0 0 0 0 0 0 0 0 0 0 0 0 0 0 0 0 0 0 0 0 0 0 0 0 0 0 0 0 0 0 0 0 0 0 0 0 0 0 0 0 0 0 0 0 0 0 0 0 0 0 0 0 0 0 0 0 0 0 0 0 0 0 0 0 0 0 0 0 0 0 0 0 0 0 0 0 0 0 0 0 0 0 0 0 0 0 0 0 0 0 0 0 0 0 0 0 0 0 0 0 0 0 0 0 0 0 0 0 0 0 0 0 0 0 0 0 0 0 0 0 0 0 0 0 0 0 0 0 0 0 0 0 0 0 0 0 0 0 0 0 0 0 0 0 0 0 0 0 0 0 0 0 0 0 0 0 0 0 0 0 0 0 0 0 0 0 0 0 0 0 0 0 0 0 0 0 0 0 0 0 0 0 0 0 0 0 0 0 0 0 0 0 0 0 0 0 0 0 0 0 0 0 0 0 0 0 0 0 0 0 0 0 0 0 0 0 0 0 0 0 0 0 0 0 0 0 0 0 0 0 0 0 0 0 0 0 0 0 0 0 0 0 0 0 0 0 0 0 0 0 0 0 0 0 0 0 0 0 0 0 0 0 0 0 0 0 0 0 0 0 0 0 0 0 0 0 0 0 0 0 0 0 0 0 0 0 0 0 0 0 0 0 0 0 0 0 0 0 0 0 0 0 0 0 0 0 0 0 0 0 0 0 0 0 0 0 0 0 0 0 0 0 0 0 0 0 0 0 0 0 0 0 0 0 0 0 0 0 0 0 0 0 0 0 0 0 0 0 0 0 0 0 0 0 0 0 0 0 0 0 0 0 0 0 0 0 0 0 0 0 0 0 0 0 0 0 0 0 0 0 0 0 0 0 0 0 0 0 0 0 0 0 0 0 0 0 0 0 0 0 0 0 0 0 0 0 0 0 0 0 0 0 0 0 0 0 0 0 0 0 0 0 0 0 0 0 0 0 0 0 0 0 0 0 0 0 0 0 0 0 0 0 0 0 0 0 0 0 0 0 0 0 0 0 0 0 0 0 0 0 0 0 0 0 0 0 0 0 0 0 0 0 0 0 0 0 0 0 0 0 0 0 0 0 0 0 0 0 0 0 0 0 0 0 0 0 0 0 0 0 0 0 0 0 0 0 0 0 0 0 0 0 0 0 0 0 0 0 0 0 0 0 0 0 0 0 0 0 0 0 0 0 0 0 0 0 0 0 0 0 0 0 0 0 0 0 0 0 0 0 0 0 0 0 0 0 0 0 0 0 0 0 0 0 0 0 0 0 0 0 0 0 0 0 0 0 0 0 0 0 0 0 0 0 0 0 0 0 0 0 0 0 0 0 0 0 0 0 0 0 0 0 0 0 0 0 0 0 0 0 0 0 0 0 0 0 0 0 0 0 0 0 0 0 0 0 0 0 0 0 0 0 0 0 0 0 0 0 0 0 0 0 0 0 0 0 0 0 0 0 0 0 0 0 0 0 0 0 0 0 0 0 0 0 0 0 0 0 0 0 0 0 0 0 0 0 0 0 0 0 0 0 0 0 0 0 0 0 0 0 0 0 0 0 0 0 0 0 0 0 0 0 0 0 0 0 0 0 0 0 0 0 0 0 0 0 0 0 0 0 0 0 0 0 0 0 0 0 0 0 0 0 0 0 0 0 0 0 0 0 0 0 0 0 0 0 0 0 0 0 0 0 0 0 0 0 0 0 0 0 0 0 0 0 0 0 0 0 0 0 0 0 0 0 0 0 0 0 0 0 0 0 0 0 0 0 0 0 0 0 0 0 0 0 0 0 0 0 0 0 0 0 0 0 0 0 0 0 0 0 0 0 0 0 0 0 0 0 0 0 0 0 0 0 0 0 0 0 0 0 0 0 0 0 0 0 0 0 0 0 0 0 0 0 0 0 0 0 0 0 0 0 0 0 0 0 0 0 0 0 0 0 0 0 0 0 0 0 0 0 0 0 0 0 0 0 0 0 0 0 0 0 0 0 0 0 0 0 0 0 0 0 0 0 0 0 0 0 0 0 0 0 0 0 0 0 0 0 0 0 0 0 0 0 0 0 0 0 0 0 0 0 0 0 0 0 0 0 0 0 0 0 0 0 0 0 0 0 0 0 0 0 0 0 0 0 0 0 0 0 0 0 0 0 0 0 0 0 0 0 0 0 0 0 0 0 0 0 0 0 0 0 0 0 0 0 0 0 0 0 0 0 0 0 0 0 0 0 0 0 0 0 0 0 0 0 0 0 0 0 0 0 0 0 0 0 0 0 0 0 0 0 0 0 0 0 0 0 0 0 0 0 0 0 0 0 0 0 0 0 0 0 0 0 0 0 0 0 0 0 0 0 0 0 0 0 0 0 0 0 0 0 0 0 0 0 0 0 0 0 0 0 0 0 0 0 0 0 0 0 0 0 0 0 0 0 0 0 0 0 0 0 0 0 0 0 0 0 0 0 0 0 0 0 0 0 0 0 0 0 0 0 0 0 0 0 0 0 0 0 0 0 0 0 0 0 0 0 0 0 0 0 0 0 0 0 0 0 0 0 0 0 0 0 0 0 0 0 0 0 0 0 0 0 0 0 0 0 0 0 0 0 0 0 0 0 0 0 0 0 0 0 0 0 0 0 0 0 0 0 0 0 0 0 0 0 0 0 0 0 0 0 0 0 0 0 0 0 0 0 0 0 0 0 0 0 0 0 0 0 0 0 0 0 0 0 0 0 0 0 0 0 0 0 0 0 0 0 0 0 0 0 0 0 0 0 0 0 0 0 0 0 0 0 0 0 0 0 0 0 0 0 0 0 0 0 0 0 0 0 0 0 0 0 0 0 0 0 0 0 0 0 0 0 0 0 0 0 0 0 0 0 0 0 0 0 0 0 0 0 0 0 0 0 0 0 0 0 0 0 0 0 0 0 0 0 0 0 0 0 0 0 0 0 0 0 0 0 0 0 0 0 0 0 0 0 0 0 0 0 0 0 0 0 0 0 0 0 0 0 0 0 0 0 0 0 0 0 0 0 0 0 0 0 0 0 0 0 0 0 0 0 0 0 0 0 0 0 0 0 0 0 0 0 0 0 0 0 0 0 0 0 0 0 0 0 0 0 0 0 0 0 0 0 0 0 0 0 0 0 0 0 0 0 0 0 0 0 0 0 0 0 0 0 0 0 0 0 0 0 0 0 0 0 0 0 0 0 0 0 0 0 0 0 0 0 0 0 0 0 0 0 0 0 0 0 0 0 0 0 0 0 0 0 0 0 0 0 0 0 0 0 0 0 0 0 0 0 0 0 0 0 0 0 0 0 0 0 0 0 0 0 0 0 0 0 0 0 0 0 0 0 0 0 0 0 0 0 0 0 0 0 0 0 0 0 0 0 0 0 0 0 0 0 0 0 0 0 0 0 0 0 0 0 0 0 0 0 0 0 0 0 0 0 0 0 0 0 0 0 0 0 0 0 0 0 0 0 0 0 0 0 0 0 0 0 0 0 0 0 0 0 0 0 0 0 0 0 0 0 0 0 0 0 0 0 0 0 0 0 0 0 0 0 0 0 0 0 0 0 0 0 0 0 0 0 0 0 0 0 0 0 0 0 0 0 0 0 0 0 0 0 0 0 0 0 0 0 0 0 0 0 0 0 0 0 0 0 0 0 0 0 0 0 0 0 0 0 0 0 0 0 0 0 0 0 0 0 0 0 0 0 0 0 0 0 0 0 0 0 0 0 0 0 0 0 0 0 0 0 0 0 0 0 0 0 0 0 0 0 0 0 0 0 0 0 0 0 0 0 0 0 0 0 0 0 0 0 0 0 0 0 0 0 0 0 0 0 0 0 0 0 0 0 0 0 0 0 0 0 0 0 0 0 0 0 0 0 0 0 0 0 0 0 0 0 0 0 0 0 0 0 0 0 0 0 0 0 0 0 0 0 0 0 0 0 0 0 0 0 0 0 0 0 0 0 0 0 0 0 0 0 0 0 0 0 0 0 0 0 0 0 0 0 0 0 0 0 0 0 0 0 0 0 0 0 0 0 0 0 0 0 0 0 0 0 0 0 0 0 0 0 0 0 0 0 0 0 0 0 0 0 0 0 0 0 0 0 0 0 0 0 0 0 0 0 0 0 0 0 0 0 0 0 0 0 0 0 0 0 0 0 0 0 0 0 0 0 0 0 0 0 0 0 0 0 0 0 0 0 0 0 0 0 0 0 0 0 0 0 0 0 0 0 0 0 0 0 0 0 0 0 0 0 0 0 0 0 0 0 0 0 0 0 0 0 0 0 0 0 0 0 0 0 0 0 0 0 0 0 0 0 0 0 0 0 0 0 0 0 0 0 0 0 0 0 0 0 0 0 0 0 0 0 0 0 0 0 0 0 0 0 0 0 0 0 0 0 0 0 0 0 0 0 0 0 0 0 0 0 0 0 0 0 0 0 0 0 0 0 0 0 0 0 0 0 0 0 0 0 0 0 0 0 0 0 0 0 0 0 0 0 0 0 0 0 0 0 0 0 0 0 0 0 0 0 0 0 0 0 0 0 0 0 0 0 0 0 0 0 0 0 0 0 0 0 0 0 0 0 0 0 0 0 0 0 0 0 0 0 0 0 0 0 0 0 0 0 0 0 0 0 0 0 0 0 0 0 0 0 0 0 0 0 0 0 0 0 0 0 0 0 0 0 0 0 0 0 0 0 0 0 0 0 0 0 0 0 0 0 0 0 0 0 0 0 0 0 0 0 0 0 0 0 0 0 0 0 0 0 0 0 0 0 0 0 0 0 0 0 0 0 0 0 0 0 0 0 0 0 0 0 0 0 0 0 0 0 0 0 0 0 0 0 0 0 0 0 0 0 0 0 0 0 0 0 0 0 0 0 0 0 0 0 0 0 0 0 0 0 0 0 0 0 0 0 0 0 0 0 0 0 0 0 0 0 0 0 0 0 0 0 0 0 0 0 0 0 0 0 0 0 0 0 0 0 0 0 0 0 0 0 0 0 0 0 0 0 0 0 0 0 0 0 0 0 0 0 0 0 0 0 0 0 0 0 0 0 0 0 0 0 0 0 0 0 0 0 0 0 0 0 0 0 0 0 0 0 0 0 0 0 0 0 0 0 0 0 0 0 0 0 0 0 0 0 0 0 0 0 0 0 0 0 0 0 0 0 0 0 0 0 0 0 0 0 0 0 0 0 0 0 0 0 0 0 0 0 0 0 0 0 0 0 0 0 0 0 0 0 0 0 0 0 0 0 0 0 0 0 0 0 0 0 0 0 0 0 0 0 0 0 0 0 0 0 0 0 0 0 0 0 0 0 0 0 0 0 0 0 0 0 0 0 0 0 0 0 0 0 0 0 0 0 0 0 0 0 0 0 0 0 0 0 0 0 0 0 0 0 0 0 0 0 0 0 0 0 0 0 0 0 0 0 0 0 0 0 0 0 0 0 0 0 0 0 0 0 0 0 0 0 0 0 0 0 0 0 0 0 0 0 0 0 0 0 0 0 0 0 0 0 0 0 0 0 0 0 0 0 0 0 0 0 0 0 0 0 0 0 0 0 0 0 0 0 0 0 0 0 0 0 0 0 0 0 0 0 0 0 0 0 0 0 0 0 0 0 0 0 0 0 0 0 0 0 0 0 0 0 0 0 0 0 0 0 0 0 0 0 0 0 0 0 0 0 0 0 0 0 0 0 0 0 0 0 0 0 0 0 0 0 0 0 0 0 0 0 0 0 0 0 0 0 0 0 0 0 0 0 0 0 0 0 0 0 0 0 0 0 0 0 0 0 0 0 0 0 0 0 0 0 0 0 0 0 0 0 0 0 0 0 0 0 0 0 0 0 0 0 0 0 0 0 0 0 0 0 0 0 0 0 0 0 0 0 0 0 0 0 0 0 0 0 0 0 0 0 0 0 0 0 0 0 0 0 0 0 0 0 0 0 0 0 0 0 0 0 0 0 0 0 0 0 0 0 0 0 0 0 0 0 0 0 0 0 0 0 0 0 0 0 0 0 0 0 0 0 0 0 0 0 0 0 0 0 0 0 0 0 0 0 0 0 0 0 0 0 0 0 0 0 0 0 0 0 0 0 0 0 0 0 0 0 0 0 0 0 0 0 0 0 0 0 0 0 0 0 0 0 0 0 0 0 0 0 0 0 0 0 0 0 0 0 0 0 0 0 0 0 0 0 0 0 0 0 0 0 0 0 0 0 0 0 0 0 0 0 0 0 0 0 0 0 0 0 0 0 0 0 0 0 0 0 0 0 0 0 0 0 0 0 0 0 0 0 0 0 0 0 0 0 0 0 0 0 0 0 0 0 0 0 0 0 0 0 0 0 0 0 0 0 0 0 0 0 0 0 0 0 0 0 0 0 0 0 0 0 0 0 0 0 0 0 0 0 0 0 0 0 0 0 0 0 0 0 0 0 0 0 0 0 0 0 0 0 0 0 0 0 0 0 0 0 0 0 0 0 0 0 0 0 0 0 0 0 0 0 0 0 0 0 0 0 0 0 0 0 0 0 0 0 0 0 0 0 0 0 0 0 0 0 0 0 0 0 0 0 0 0 0 0 0 0 0 0 0 0 0 0 0 0 0 0 0 0 0 0 0 0 0 0 0 0 0 0 0 0 0 0 0 0 0 0 0 0 0 0 0 0 0 0 0 0 0 0 0 0 0 0 0 0 0 0 0 0 0 0 0 0 0 0 0 0 0 0 0 0 0 0 0 0 0 0 0 0 0 0 0 0 0 0 0 0 0 0 0 0 0 0 0 0 0 0 0 0 0 0 0 0 0 0 0 0 0 0 0 0 0 0 0 0 0 0 0 0 0 0 0 0 0 0 0 0 0 0 0 0 0 0 0 0 0 0 0 0 0 0 0 0 0 0 0 0 0 0 0 0 0 0 0 0 0 0 0 0 0 0 0 0 0 0 0 0 0 0 0 0 0 0 0 0 0 0 0 0 0 0 0 0 0 0 0 0 0 0 0 0 0 0 0 0 0 0 0 0 0 0 0 0 0 0 0 0 0 0 0 0 0 0 0 0 0 0 0 0 0 0 0 0 0 0 0 0 0 0 0 0 0 0 0 0 0 0 0 0 0 0 0 0 0 0 0 0 0 0 0 0 0 0 0 0 0 0 0 0 0 0 0 0 0 0 0 0 0 0 0 0 0 0 0 0 0 0 0 0 0 0 0 0 0 0 0 0 0 0 0 0 0 0 0 0 0 0 0 0 0 0 0 0 0 0 0 0 0 0 0 0 0 0 0 0 0 0 0 0 0 0 0 0 0 0 0 0 0 0 0 0 0 0 0 0 0 0 0 0 0 0 0 0 0 0 0 0 0 0 0 0 0 0 0 0 0 0 0 0 0 0 0 0 0 0 0 0 0 0 0 0 0 0 0 0 0 0 0 0 0 0 0 0 0 0 0 0 0 0 0 0 0 0 0 0 0 0 0 0 0 0 0 0 0 0 0 0 0 0 0 0 0 0 0 0 0 0 0 0 0 0 0 0 0 0 0 0 0 0 0 0 0 0 0 0 0 0 0 0 0 0 0 0 0 0 0 0 0 0 0 0 0 0 0 0 0 0 0 0 0 0 0 0 0 0 0 0 0 0 0 0 0 0 0 0 0 0 0 0 0 0 0 0 0 0 0 0 0 0 0 0 0 0 0 0 0 0 0 0 0 0 0 0 0 0 0 0 0 0 0 0 0 0 0 0 0 0 0 0 0 0 0 0 0 0 0 0 0 0 0 0 0 0 0 0 0 0 0 0 0 0 0 0 0 0 0 0 0 0 0 0 0 0 0 0 0 0 0 0 0 0 0 0 0 0 0 0 0 0 0 0 0 0 0 0 0 0 0 0 0 0 0 0 0 0 0 0 0 0 0 0 0 0 0 0 0 0 0 0 0 0 0 0 0 0 0 0 0 0 0 0 0 0 0 0 0 0 0 0 0 0 0 0 0 0 0 0 0 0 0 0 0 0 0 0 0 0 0 0 0 0 0 0 0 0 0 0 0 0 0 0 0 0 0 0 0 0 0 0 0 0 0 0 0 0 0 0 0 0 0 0 0 0 0 0 0 0 0 0 0 0 0 0 0 0 0 0 0 0 0 0 0 0 0 0 0 0 0 0 0 0 0 0 0 0 0 0 0 0 0 0 0 0 0 0 0 0 0 0 0 0 0 0 0 0 0 0 0 0 0 0 0 0 0 0 0 0 0 0 0 0 0 0 0 0 0 0 0 0 0 0 0 0 0 0 0 0 0 0 0 0 0 0 0 0 0 0 0 0 0 0 0 0 0 0 0 0 0 0 0 0 0 0 0 0 0 0 0 0 0 0 0 0 0 0 0 0 0 0 0 0 0 0 0 0 0 0 0 0 0 0 0 0 0 0 0 0 0 0 0 0 0 0 0 0 0 0 0 0 0 0 0 0 0 0 0 0 0 0 0 0 0 0 0 0 0 0 0 0 0 0 0 0 0 0 0 0 0 0 0 0 0 0 0 0 0 0 0 0 0 0 0 0 0 0 0 0 0 0 0 0 0 0 0 0 0 0 0 0 0 0 0 0 0 0 0 0 0 0 0 0 0 0 0 0 0 0 0 0 0 0 0 0 0 0 0 0 0 0 0 0 0 0 0 0 0 0 0 0 0 0 0 0 0 0 0 0 0 0 0 0 0 0 0 0 0 0 0 0 0 0 0 0 0 0 0 0 0 0 0 0 0 0 0 0 0 0 0 0 0 0 0 0 0 0 0 0 0 0 0 0 0 0 0 0 0 0 0 0 0 0 0 0 0 0 0 0 0 0 0 0 0 0 0 0 0 0 0 0 0 0 0 0 0 0 0 0 0 0 0 0 0 0 0 0 0 0 0 0 0 0 0 0 0 0 0 0 0 0 0 0 0 0 0 0 0 0 0 0 0 0 0 0 0 0 0 0 0 0 0 0 0 0 0 0 0 0 0 0 0 0 0 0 0 0 0 0 0 0 0 0 0 0 0 0 0 0 0 0 0 0 0 0 0 0 0 0 0 0 0 0 0 0 0 0 0 0 0 0 0 0 0 0 0 0 0 0 0 0 0 0 0 0 0 0 0 0 0 0 0 0 0 0 0 0 0 0 0 0 0 0 0 0 0 0 0 0 0 0 0 0 0 0 0 0 0 0 0 0 0 0 0 0 0 0 0 0 0 0 0 0 0 0 0 0 0 0 0 0 0 0 0 0 0 0 0 0 0 0 0 0 0 0 0 0 0 0 0 0 0 0 0 0 0 0 0 0 0 0 0 0 0 0 0 0 0 0 0 0 0 0 0 0 0 0 0 0 0 0 0 0 0 0 0 0 0 0 0 0 0 0 0 0 0 0 0 0 0 0 0 0 0 0 0 0 0 0 0 0 0 0 0 0 0 0 0 0 0 0 0 0 0 0 0 0 0 0 0 0 0 0 0 0 0 0 0 0 0 0 0 0 0 0 0 0 0 0 0 0 0 0 0 0 0 0 0 0 0 0 0 0 0 0 0 0 0 0 0 0 0 0 0 0 0 0 0 0 0 0 0 0 0 0 0 0 0 0 0 0 0 0 0 0 0 0 0 0 0 0 0 0 0 0 0 0 0 0 0 0 0 0 0 0 0 0 0 0 0 0 0 0 0 0 0 0 0 0 0 0 0 0 0 0 0 0 0 0 0 0 0 0 0 0 0 0 0 0 0 0 0 0 0 0 0 0 0 0 0 0 0 0 0 0 0 0 0 0 0 0 0 0 0 0 0 0 0 0 0 0 0 0 0 0 0 0 0 0 0 0 0 0 0 0 0 0 0 0 0 0 0 0 0 0 0 0 0 0 0 0 0 0 0 0 0 0 0 0 0 0 0 0 0 0 0 0 0 0 0 0 0 0 0 0 0 0 0 0 0 0 0 0 0 0 0 0 0 0 0 0 0 0 0 0 0 0 0 0 0 0 0 0 0 0 0 0 0 0 0 0 0 0 0 0 0 0 0 0 0 0 0 0 0 0 0 0 0 0 0 0 0 0 0 0 0 0 0 0 0 0 0 0 0 0 0 0 0 0 0 0 0 0 0 0 0 0 0 0 0 0 0 0 0 0 0 0 0 0 0 0 0 0 0 0 0 0 0 0 0 0 0 0 0 0 0 0 0 0 0 0 0 0 0 0 0 0 0 0 0 0 0 0 0 0 0 0 0 0 0 0 0 0 0 0 0 0 0 0 0 0 0 0 0 0 0 0 0 0 0 0 0 0 0 0 0 0 0 0 0 0 0 0 0 0 0 0 0 0 0 0 0 0 0 0 0 0 0 0 0 0 0 0 0 0 0 0 0 0 0 0 0 0 0 0 0 0 0 0 0 0 0 0 0 0 0 0 0 0 0 0 0 0 0 0 0 0 0 0 0 0 0 0 0 0 0 0 0 0 0 0 0 0 0 0 0 0 0 0 0 0 0 0 0 0 0 0 0 0 0 0 0 0 0 0 0 0 0 0 0 0 0 0 0 0 0 0 0 0 0 0 0 0 0 0 0 0 0 0 0 0 0 0 0 0 0 0 0 0 0 0 0 0 0 0 0 0 0 0 0 0 0 0 0 0 0 0 0 0 0 0 0 0 0 0 0 0 0 0 0 0 0 0 0 0 0 0 0 0 0 0 0 0 0 0 0 0 0 0 0 0 0 0 0 0 0 0 0 0 0 0 0 0 0 0 0 0 0 0 0 0 0 0 0 0 0 0 0 0 0 0 0 0 0 0 0 0 0 0 0 0 0 0 0 0 0 0 0 0 0 0 0 0 0 0 0 0 0 0 0 0 0 0 0 0 0 0 0 0 0 0 0 0 0 0 0 0 0 0 0 0 0 0 0 0 0 0 0 0 0 0 0 0 0 0 0 0 0 0 0 0 0 0 0 0 0 0 0 0 0 0 0 0 0 0 0 0 0 0 0 0 0 0 0 0 0 0 0 0 0 0 0 0 0 0 0 0 0 0 0 0 0 0 0 0 0 0 0 0 0 0 0 0 0 0 0 0 0 0 0 0 0 0 0 0 0 0 0 0 0 0 0 0 0 0 0 0 0 0 0 0 0 0 0 0 0 0 0 0 0 0 0 0 0 0 0 0 0 0 0 0 0 0 0 0 0 0 0 0 0 0 0 0 0 0 0 0 0 0 0 0 0 0 0 0 0 0 0 0 0 0 0 0 0 0 0 0 0 0 0 0 0 0 0 0 0 0 0 0 0 0 0 0 0 0 0 0 0 0 0 0 0 0 0 0 0 0 0 0 0 0 0 0 0 0 0 0 0 0 0 0 0 0 0 0 0 0 0 0 0 0 0 0 0 0 0 0 0 0 0 0 0 0 0 0 0 0 0 0 0 0 0 0 0 0 0 0 0 0 0 0 0 0 0 0 0 0 0 0 0 0 0 0 0 0 0 0 0 0 0 0 0 0 0 0 0 0 0 0 0 0 0 0 0 0 0 0 0 0 0 0 0 0 0 0 0 0 0 0 0 0 0 0 0 0 0 0 0 0 0 0 0 0 0 0 0 0 0 0 0 0 0 0 0 0 0 0 0 0 0 0 0 0 0 0 0 0 0 0 0 0 0 0 0 0 0 0 0 0 0 0 0 0 0 0 0 0 0 0 0 0 0 0 0 0 0 0 0 0 0 0 0 0 0 0 0 0 0 0 0 0 0 0 0 0 0 0 0 0 0 0 0 0 0 0 0 0 0 0 0 0 0 0 0 0 0 0 0 0 0 0 0 0 0 0 0 0 0 0 0 0 0 0 0 0 0 0 0 0 0 0 0 0 0 0 0 0 0 0 0 0 0 0 0 0 0 0 0 0 0 0 0 0 0 0 0 0 0 0 0 0 0 0 0 0 0 0 0 0 0 0 0 0 0 0 0 0 0 0 0 0 0 0 0 0 0 0 0 0 0 0 0 0 0 0 0 0 0 0 0 0 0 0 0 0 0 0 0 0 0 0 0 0 0 0 0 0 0 0 0 0 0 0 0 0 0 0 0 0 0 0 0 0 0 0 0 0 0 0 0 0 0 0 0 0 0 0 0 0 0 0 0 0 0 0 0 0 0 0 0 0 0 0 0 0 0 0 0 0 0 0 0 0 0 0 0 0 0 0 0 0 0 0 0 0 0 0 0 0 0 0 0 0 0 0 0 0 0 0 0 0 0 0 0 0 0 0 0 0 0 0 0 0 0 0 0 0 0 0 0 0 0 0 0 0 0 0 0 0 0 0 0 0 0 0 0 0 0 0 0 0 0 0 0 0 0 0 0 0 0 0 0 0 0 0 0 0 0 0 0 0 0 0 0 0 0 0 0 0 0 0 0 0 0 0 0 0 0 0 0 0 0 0 0 0 0 0 0 0 0 0 0 0 0 0 0 0 0 0 0 0 0 0 0 0 0 0 0 0 0 0 0 0 0 0 0 0 0 0 0 0 0 0 0 0 0 0 0 0 0 0 0 0 0 0 0 0 0 0 0 0 0 0 0 0 0 0 0 0 0 0 0 0 0 0 0 0 0 0 0 0 0 0 0 0 0 0 0 0 0 0 0 0 0 0 0 0 0 0 0 0 0 0 0 0 0 0 0 0 0 0 0 0 0 0 0 0 0 0 0 0 0 0 0 0 0 0 0 0 0 0 0 0 0 0 0 0 0 0 0 0 0 0 0 0 0 0 0 0 0 0 0 0 0 0 0 0 0 0 0 0 0 0 0 0 0 0 0 0 0 0 0 0 0 0 0 0 0 0 0 0 0 0 0 0 0 0 0 0 0 0 0 0 0 0 0 0 0 0 0 0 0 0 0 0 0 0 0 0 0 0 0 0 0 0 0 0 0 0 0 0 0 0 0 0 0 0 0 0 0 0 0 0 0 0 0 0 0 0 0 0 0 0 0 0 0 0 0 0 0 0 0 0 0 0 0 0 0 0 0 0 0 0 0 0 0 0 0 0 0 0 0 0 0 0 0 0 0 0 0 0 0 0 0 0 0 0 0 0 0 0 0 0 0 0 0 0 0 0 