P2
109 129
255
0 0 0 0 0 0 0 0 0 0 0 0 0 0 0 0 0 0 0 0 0 0 0 0 0 0 0 0 0 0 0 0 0 0 0 0 0 0 0 0 0 0 0 0 0 0 0 0 0 0 0 0 0 0 0 0 0 0 0 0 0 0 0 0 0 0 0 0 0 0 0 0 0 0 0 0 0 0 0 0 0 0 0 0 0 0 0 0 0 0 0 0 0 0 0 0 0 0 0 0 0 0 0 0 0 0 0 0 0 0 0 0 0 0 0 0 0 0 0 0 0 0 0 0 0 0 0 0 0 0 0 0 0 0 0 0 0 0 0 0 0 0 0 0 0 0 0 0 0 0 0 0 0 0 0 0 0 0 0 0 0 0 0 0 0 0 0 0 0 0 0 0 0 0 0 0 0 0 0 0 0 0 0 0 0 0 0 0 0 0 0 0 0 0 0 0 0 0 0 0 0 0 0 0 0 0 0 0 0 0 0 0 0 0 0 0 0 0 111 63 72 104 122 64 85 83 102 106 84 116 117 98 30 104 103 114 102 127 203 194 210 235 178 252 231 232 255 207 248 249 157 238 211 208 232 195 202 188 167 184 147 174 183 170 146 187 159 138 158 118 84 134 124 88 152 146 92 105 115 123 139 122 94 125 97 113 112 58 49 97 105 84 105 73 106 99 85 119 98 105 112 94 102 78 86 84 100 94 139 55 132 119 102 109 86 119 108 81 80 75 124 103 98 91 129 82 56 98 91 15 100 102 103 74 74 79 89 81 99 105 110 60 75 96 91 89 167 179 140 191 217 183 237 217 228 231 214 230 225 199 210 192 195 199 185 177 165 147 144 110 156 170 152 142 165 117 126 109 112 104 111 101 69 130 69 69 101 101 90 105 87 59 128 119 126 100 47 75 98 99 67 49 91 99 77 70 118 76 83 106 102 100 87 74 83 30 131 107 92 126 104 87 82 74 108 111 104 50 87 132 124 116 70 110 91 62 58 92 41 84 9 99 60 96 86 110 68 71 68 99 60 44 100 85 66 158 117 134 167 153 98 181 135 193 145 145 151 157 157 109 116 129 117 102 74 94 86 110 109 107 107 102 91 110 108 101 30 110 94 28 24 96 79 106 82 89 81 61 84 85 62 92 103 104 84 48 68 72 86 49 81 83 61 63 61 112 55 42 62 63 47 63 56 87 59 137 104 85 116 70 47 90 66 55 82 99 59 77 116 110 86 19 56 92 80 70 78 68 58 42 90 2 92 52 105 80 32 61 37 46 21 98 92 45 127 101 134 132 110 119 131 132 147 112 153 124 131 127 89 115 109 100 121 108 84 93 109 104 90 36 99 89 77 102 103 96 32 44 47 64 107 54 85 87 8 30 18 79 84 67 67 67 81 66 48 42 48 53 71 72 77 81 73 65 99 11 33 41 66 37 49 68 67 24 113 49 86 106 49 40 36 50 12 51 74 72 56 85 57 68 37 48 59 86 86 40 60 18 36 78 42 76 41 66 77 33 70 62 33 58 81 74 24 95 22 119 110 53 110 108 97 129 88 96 118 100 108 44 108 90 89 67 85 82 73 100 85 86 71 90 80 69 89 87 77 48 66 9 51 95 56 12 49 84 68 32 49 46 42 73 22 43 35 64 57 27 62 16 60 36 61 72 63 76 58 23 35 53 47 58 58 41 74 54 54 57 88 77 78 61 57 49 59 36 69 53 86 35 68 52 60 41 20 58 43 77 66 63 93 62 79 37 61 71 65 15 46 17 75 60 41 50 58 78 103 108 45 92 54 51 101 95 106 47 99 48 67 87 95 100 42 88 92 43 75 68 83 79 76 86 46 81 26 64 70 60 48 20 83 62 42 46 57 66 29 32 72 23 66 53 44 51 67 22 16 51 60 61 36 56 72 37 42 67 54 58 38 63 60 18 20 76 74 79 65 36 80 59 37 79 65 73 25 63 66 59 46 74 69 69 62 38 18 31 57 57 74 84 70 84 25 66 41 68 62 41 44 63 37 55 67 86 109 98 132 86 100 109 116 128 87 121 98 105 106 105 65 117 61 95 82 67 34 84 82 78 40 72 92 38 72 61 74 66 60 42 64 68 73 32 41 18 40 16 36 67 68 66 46 35 53 34 24 15 49 49 65 38 24 32 65 45 59 47 49 52 24 17 35 36 74 63 38 75 27 7 55 76 75 55 64 49 61 44 24 65 52 72 64 51 7 43 49 17 15 39 9 46 72 39 14 26 18 34 50 37 18 28 53 55 107 105 117 144 136 136 138 123 143 108 122 105 121 131 87 127 132 53 110 79 46 104 51 88 61 56 36 73 54 41 64 68 25 89 4 54 47 46 52 24 49 56 50 57 56 61 51 61 24 26 35 15 29 20 22 44 16 36 51 60 17 8 13 47 14 9 6 11 22 29 84 84 98 64 89 90 71 37 34 38 49 61 26 16 66 40 26 21 21 10 28 17 30 27 47 36 18 54 46 17 23 44 32 34 21 0 38 39 30 111 111 109 159 167 159 154 130 149 131 87 118 116 142 142 135 128 92 117 112 97 125 114 105 78 100 82 59 51 80 88 82 61 100 56 43 50 46 65 52 81 53 68 73 63 40 27 83 45 12 34 26 16 16 4 7 30 25 35 29 26 1 18 45 25 21 15 43 38 54 73 64 91 39 96 75 63 17 48 38 4 51 20 20 40 17 22 11 16 11 21 24 6 30 30 36 30 44 31 2 24 50 24 16 8 16 26 12 11 105 122 95 163 157 140 128 116 138 131 74 105 106 142 143 105 56 101 112 110 97 117 93 117 36 102 91 75 63 104 65 100 84 94 88 59 43 57 61 22 70 80 51 72 41 42 52 80 34 28 19 30 13 23 11 32 39 19 15 6 18 14 46 13 15 29 10 42 41 53 38 51 53 39 87 60 41 45 37 44 38 18 24 34 24 19 7 19 12 31 26 15 11 19 46 35 17 30 9 25 11 33 32 16 9 5 21 16 37 97 100 95 153 133 106 144 115 137 90 124 100 105 115 96 111 91 88 95 87 49 96 63 62 68 73 78 57 68 104 86 90 79 66 97 49 61 62 68 44 27 86 58 66 33 62 36 63 8 37 16 14 34 23 30 40 31 7 23 8 12 15 35 20 7 4 6 23 46 61 69 69 30 16 65 48 31 55 49 33 30 15 19 26 21 21 21 31 31 15 17 18 8 27 32 31 33 26 37 17 33 13 50 36 1 26 17 10 59 105 82 97 152 143 136 150 102 154 125 119 121 90 122 106 110 80 59 74 55 17 82 82 91 42 80 111 104 45 103 93 72 63 23 89 87 63 69 59 67 62 54 56 64 32 62 55 30 8 8 29 22 22 20 27 29 13 0 17 12 2 25 34 7 14 3 27 25 25 47 70 41 16 40 37 50 38 30 47 24 23 18 1 2 20 25 7 6 11 28 2 24 11 28 30 12 73 16 61 41 37 25 49 39 32 32 18 19 41 115 122 113 156 176 166 143 108 146 147 111 127 36 137 140 104 96 88 90 93 73 90 91 100 45 79 98 109 29 101 74 99 59 60 34 83 71 83 56 67 45 57 43 58 22 64 34 44 4 32 2 23 9 23 23 10 28 1 20 2 10 0 42 40 14 2 13 34 29 10 39 44 41 24 48 57 27 22 53 43 30 5 14 4 36 5 16 1 32 26 14 16 11 39 36 58 79 52 58 52 58 19 34 11 44 0 1 11 12 104 111 85 144 148 147 113 114 87 132 93 105 82 128 138 100 97 95 110 72 63 105 95 72 55 53 33 88 45 84 63 101 61 50 61 30 68 84 54 63 85 82 24 54 29 45 42 57 13 42 12 2 2 35 1 26 32 6 13 28 26 18 25 44 20 4 6 40 41 8 32 25 37 2 54 48 1 15 24 46 7 7 31 10 21 3 26 7 33 1 7 17 1 31 27 52 55 50 34 27 51 1 5 18 30 35 15 21 35 55 58 15 112 81 87 70 73 78 73 44 43 75 90 92 57 58 48 95 74 91 84 58 61 63 53 73 73 65 52 86 66 36 47 50 42 39 66 3 43 67 64 22 50 5 18 17 52 30 33 11 13 11 30 10 13 13 4 8 34 21 2 16 19 25 5 1 48 26 3 51 4 46 10 36 23 28 35 14 5 21 13 31 7 22 37 12 16 1 18 14 23 24 23 50 43 58 60 54 9 29 2 14 31 40 53 29 47 14 3 1 37 91 60 90 48 68 30 36 72 32 32 37 47 37 66 51 51 54 42 28 61 63 72 25 86 21 58 58 82 79 55 48 53 5 22 5 55 56 50 51 47 60 52 33 64 34 26 18 20 21 26 24 15 2 6 23 30 34 16 3 4 10 25 9 12 38 15 26 56 27 55 15 21 23 19 24 3 15 34 40 39 4 13 31 24 9 11 15 45 14 2 33 38 23 69 36 23 11 20 4 11 58 38 57 42 36 20 45 61 27 106 81 63 81 33 47 44 36 43 54 44 63 26 50 71 35 33 71 74 55 58 62 26 97 83 61 53 22 92 43 52 54 47 54 59 68 20 54 40 63 75 59 62 87 45 27 20 24 31 26 8 20 4 14 28 34 30 38 26 27 19 28 17 35 37 29 48 28 24 46 26 16 29 19 15 8 6 4 54 47 38 33 14 14 22 6 26 45 33 31 13 14 54 79 62 59 22 32 24 29 50 58 37 26 11 25 66 75 55 119 99 75 124 26 38 40 44 56 64 92 78 12 11 58 67 76 40 69 71 67 60 34 102 78 80 71 25 77 91 79 74 64 63 73 80 65 55 38 64 94 50 62 97 32 53 16 35 31 38 5 28 19 29 27 31 11 42 34 34 31 17 29 42 11 28 45 29 41 45 39 41 7 33 48 13 6 25 40 27 57 14 26 14 35 33 37 31 8 33 24 39 56 78 37 79 40 46 18 55 45 58 34 5 14 21 62 50 74 122 123 100 138 73 11 86 23 36 55 104 35 62 54 57 89 65 76 82 94 101 93 50 85 105 95 102 58 38 92 90 80 58 67 46 72 53 36 61 39 94 3 37 95 52 67 46 32 19 40 21 25 10 32 8 18 12 9 3 28 24 11 0 22 27 54 51 64 60 34 22 44 46 28 61 9 13 9 24 7 38 24 7 16 18 34 29 23 13 12 43 57 57 100 79 78 9 9 33 46 50 50 23 34 25 16 46 60 43 117 112 102 133 98 90 84 58 34 52 85 25 52 69 62 69 45 89 98 88 105 102 89 77 107 105 97 85 80 42 69 59 9 52 49 55 14 46 69 32 79 19 56 67 75 59 27 39 24 19 27 1 1 3 3 32 3 17 8 11 18 5 20 17 3 36 17 75 56 26 40 27 57 45 55 10 30 27 33 35 33 8 31 33 7 27 3 18 8 31 34 63 61 100 75 65 52 23 48 58 1 32 22 38 24 22 18 17 35 87 78 114 111 75 92 56 60 45 49 51 49 68 37 43 26 7 73 72 32 78 70 92 47 75 60 74 67 67 56 60 51 63 39 61 60 30 76 58 65 71 20 5 62 77 44 37 39 24 3 36 27 17 23 25 19 8 17 12 10 17 0 26 1 15 2 23 59 30 47 32 6 54 31 30 27 17 10 15 25 21 6 33 17 27 18 4 10 15 14 21 46 50 81 76 58 61 29 20 49 31 30 9 32 18 18 7 44 36 79 56 97 86 70 71 44 43 29 54 55 50 49 13 42 34 8 46 53 48 29 65 97 39 61 51 40 41 56 64 13 51 84 33 56 84 18 73 0 78 78 50 14 43 58 63 11 38 5 5 16 31 5 1 27 6 28 0 10 19 13 10 16 9 20 19 44 14 29 64 35 44 34 24 20 31 3 9 6 13 24 17 10 3 12 0 3 2 35 18 1 29 67 54 69 47 40 28 49 23 12 8 35 13 0 0 4 19 44 70 43 70 32 16 47 40 26 28 37 52 39 13 22 16 16 15 39 53 57 50 63 101 71 42 43 61 70 71 61 64 59 81 80 87 93 46 62 76 89 63 65 52 16 66 52 35 39 19 17 3 30 14 19 24 25 28 5 5 21 34 17 14 3 35 32 40 25 42 49 51 57 22 28 22 31 27 15 9 0 20 1 18 20 18 6 3 14 24 23 25 51 35 1 43 25 8 11 53 6 11 19 20 6 17 16 20 27 11 23 23 47 24 20 11 11 22 23 14 27 38 20 10 21 9 21 57 56 53 65 65 95 95 65 78 83 97 75 92 59 89 50 91 70 82 77 50 81 95 27 37 60 53 72 49 63 14 21 30 9 11 31 23 5 24 29 15 2 9 42 2 18 13 34 24 31 45 72 19 72 32 30 29 26 31 34 2 30 3 10 21 28 5 17 0 4 18 2 23 11 62 23 47 56 36 18 14 62 31 1 0 20 20 3 18 23 16 32 35 6 59 18 7 29 7 42 30 21 45 26 10 29 9 23 52 84 47 67 95 112 110 97 108 130 121 99 36 85 97 109 113 115 106 50 86 46 92 105 71 71 60 88 46 59 64 36 55 28 3 23 3 42 29 0 9 8 25 26 42 5 13 13 19 14 32 73 91 88 51 40 34 57 31 38 28 7 26 27 7 29 8 1 2 1 16 6 12 10 19 52 44 24 73 44 20 44 62 44 19 17 14 27 2 13 19 27 57 37 38 71 57 10 49 1 49 58 32 58 36 4 51 20 67 70 109 108 42 124 146 161 105 128 142 139 97 105 93 89 86 141 128 111 99 106 99 104 87 93 86 104 102 101 47 55 33 66 28 28 22 26 51 28 5 22 23 37 40 33 5 11 24 58 43 66 83 67 109 58 58 68 59 39 32 23 19 26 17 7 33 19 20 0 2 22 0 12 2 25 42 58 28 69 21 26 57 40 29 32 28 22 7 18 17 33 39 65 71 57 40 52 12 68 26 45 41 37 33 38 36 65 42 81 78 114 120 93 137 142 177 122 138 126 116 93 123 87 17 99 139 140 104 119 89 124 58 94 100 108 129 96 104 36 58 32 67 41 45 24 30 48 10 11 21 21 14 20 12 15 14 27 63 72 76 68 53 90 27 60 67 22 14 9 39 8 12 14 9 14 42 28 3 11 17 9 23 6 19 19 66 60 71 47 20 47 20 14 17 27 23 24 33 17 47 39 58 43 11 32 51 51 78 13 50 33 20 46 25 58 56 48 71 48 80 104 96 141 105 164 115 64 133 108 130 120 84 95 142 93 145 141 95 109 108 120 92 85 102 120 83 74 44 56 47 55 50 47 27 4 28 14 13 8 21 20 19 16 10 20 0 58 78 82 38 84 53 81 16 35 39 17 19 28 20 23 12 9 31 27 16 7 4 2 10 23 6 3 7 56 49 65 55 19 31 33 17 11 20 22 21 15 17 51 44 41 35 25 7 48 46 74 5 38 42 22 72 57 35 45 40 28 68 85 139 125 136 103 129 150 158 161 139 129 117 122 99 158 121 148 146 115 152 88 127 103 66 67 129 142 130 73 66 56 60 33 5 19 48 45 36 35 32 5 17 23 0 14 1 18 54 81 83 71 63 60 83 64 3 22 46 31 13 6 29 10 21 40 3 15 11 6 1 4 18 7 2 13 24 42 26 9 33 23 29 12 5 29 11 0 3 32 27 32 43 47 45 71 38 30 70 51 34 36 54 78 66 39 77 71 81 64 101 122 103 126 82 110 107 144 150 145 123 134 109 103 147 132 123 97 139 172 72 122 136 102 48 110 126 134 5 67 96 55 47 69 24 61 67 27 59 43 23 26 40 33 41 35 4 26 102 99 71 54 72 56 52 24 38 59 42 31 17 5 15 18 20 0 12 16 5 15 30 26 12 10 43 57 45 47 15 7 12 16 21 11 21 18 2 11 14 21 31 53 34 75 78 72 72 64 68 42 62 74 71 101 41 94 77 92 83 113 107 55 93 88 134 143 150 137 127 165 92 143 119 98 108 136 115 168 171 138 140 159 130 143 141 130 86 109 101 105 25 47 71 40 68 62 44 55 16 51 38 45 46 22 34 16 74 110 104 103 94 109 96 71 59 59 75 47 33 12 20 4 1 19 1 16 24 7 37 34 41 12 27 30 27 33 26 13 2 4 2 29 28 2 14 19 21 20 36 22 30 67 64 59 43 80 55 48 57 41 65 74 103 77 85 64 84 102 105 117 91 130 143 132 126 158 140 153 170 165 151 154 59 145 139 171 173 123 141 172 152 146 143 150 148 91 110 97 89 20 56 27 65 64 72 52 38 1 52 29 15 47 43 21 29 73 101 51 106 125 134 105 112 81 63 80 40 20 0 43 2 18 45 9 13 29 2 41 18 48 37 19 6 13 34 36 28 13 4 12 39 33 8 13 32 32 28 25 24 10 53 12 56 14 63 49 14 32 63 55 74 60 74 11 67 50 91 101 38 71 145 122 102 145 144 126 133 137 171 140 160 127 132 123 179 109 144 132 164 128 148 142 151 157 108 53 95 61 24 83 57 60 5 58 38 26 38 14 46 45 53 56 13 48 37 58 112 118 86 130 98 111 49 36 52 54 36 51 32 29 2 39 5 22 7 19 15 0 14 33 16 20 20 3 7 17 34 16 29 13 15 21 0 25 34 30 15 15 2 27 57 62 32 8 36 0 5 69 33 31 38 57 29 45 80 37 63 86 48 135 107 112 141 110 105 81 130 148 149 140 132 92 126 157 129 114 138 127 119 93 13 145 148 86 116 116 23 52 65 65 60 55 49 4 40 46 35 49 47 33 41 20 25 51 74 96 116 84 85 90 65 48 43 26 49 50 61 16 26 46 21 22 21 23 9 7 33 22 3 13 24 13 4 57 15 42 7 3 13 39 28 21 9 36 19 32 37 36 65 57 28 52 35 45 2 13 59 54 22 15 48 29 80 53 24 33 69 67 100 84 25 107 83 107 116 119 117 128 91 128 122 63 116 116 94 128 105 108 86 126 106 126 83 77 114 80 56 69 20 62 8 48 16 71 65 45 21 28 29 30 36 33 27 61 25 63 21 39 41 46 77 67 16 10 42 4 29 7 49 28 52 8 36 21 14 32 24 3 16 13 2 35 64 64 1 38 31 4 34 16 21 25 32 11 21 73 66 92 80 81 55 69 60 35 27 39 52 63 62 66 67 88 38 73 65 64 48 78 127 116 117 116 116 84 110 113 133 129 85 142 124 121 151 144 136 121 136 110 129 99 142 137 135 124 93 29 97 68 72 81 91 75 81 74 52 56 59 33 34 27 53 20 39 5 14 71 90 74 72 83 69 46 61 18 43 18 32 24 16 58 30 34 9 9 10 23 13 15 6 27 35 19 53 35 28 17 18 48 36 24 24 36 6 45 86 67 94 66 90 59 65 33 50 42 65 74 86 53 72 82 74 48 38 55 81 94 90 117 129 102 128 138 111 139 134 104 97 135 129 138 127 153 158 103 136 158 100 135 110 133 154 120 131 97 54 96 73 94 77 98 94 42 65 41 68 61 54 22 30 45 15 58 73 72 77 112 69 57 28 63 39 70 6 46 21 34 0 10 32 27 13 13 10 3 24 14 18 16 40 34 46 4 32 17 19 0 53 43 29 11 37 15 63 87 42 71 65 78 32 10 37 33 18 85 62 94 89 33 79 39 43 64 70 107 75 127 95 135 70 129 153 151 157 99 127 116 136 124 131 142 136 138 126 96 162 132 135 132 128 140 95 112 113 57 80 77 75 62 65 77 53 44 31 56 12 68 27 33 24 10 77 79 91 96 123 61 50 80 54 62 71 31 63 23 9 49 45 18 24 10 14 13 2 36 1 15 29 12 11 54 9 51 15 25 26 24 14 28 4 19 33 40 53 23 62 27 35 6 47 53 41 33 71 35 75 93 20 52 83 60 86 74 91 98 116 112 124 73 113 135 152 147 110 144 108 114 143 126 155 120 123 91 106 148 145 114 145 134 119 97 95 94 103 52 84 64 53 43 63 38 72 34 65 47 43 52 23 53 51 51 90 94 98 112 40 70 72 45 56 60 57 62 49 16 55 35 44 32 21 22 17 22 36 18 15 31 7 31 37 11 49 11 12 21 8 17 13 23 2 16 34 53 32 71 61 71 53 51 35 62 43 79 69 92 95 63 107 70 84 111 76 60 100 118 124 107 54 92 110 139 99 113 121 124 110 136 137 129 91 145 127 122 118 117 115 129 135 112 57 30 95 88 68 84 73 60 45 62 21 68 30 66 49 39 42 27 22 52 28 70 67 100 92 56 79 42 37 14 37 53 43 50 33 0 3 59 23 26 6 5 25 18 28 17 35 11 19 4 28 32 14 11 12 23 20 32 34 8 4 67 70 58 105 90 77 53 64 88 91 80 92 80 105 112 85 130 125 107 117 37 76 101 98 137 116 86 125 156 139 139 124 128 145 129 128 158 132 120 163 159 166 135 144 116 109 144 117 113 121 115 44 59 75 69 84 48 59 26 42 39 34 20 14 10 27 27 5 75 93 97 111 101 64 105 78 57 55 15 22 40 26 2 47 13 56 28 5 38 45 19 3 19 0 38 26 16 34 27 12 23 15 8 33 32 48 13 1 24 82 76 42 112 47 74 62 85 39 27 94 78 94 94 105 39 112 129 101 113 68 102 89 121 135 129 133 55 166 148 167 154 103 142 136 143 153 114 135 169 156 170 147 160 121 133 170 135 96 120 106 73 90 54 64 88 58 61 37 14 22 40 22 14 10 33 25 28 91 108 92 108 95 79 118 81 34 63 36 40 0 27 26 43 9 32 31 38 39 34 41 29 24 23 19 33 12 33 8 0 6 5 11 46 33 44 4 2 24 73 83 58 88 92 58 82 66 93 82 68 108 126 129 92 69 49 120 98 103 96 90 127 144 121 143 163 135 150 171 183 196 176 161 157 170 152 105 156 143 153 150 169 164 148 149 168 136 71 99 69 98 94 34 31 62 33 58 27 34 20 58 50 53 54 43 42 53 61 73 101 132 82 80 113 93 57 48 48 36 13 29 12 27 23 19 42 33 43 19 39 36 31 25 2 29 17 13 34 4 14 3 22 46 7 15 14 4 14 12 78 61 93 75 77 82 56 95 58 96 97 118 94 105 66 38 88 76 78 67 104 122 139 143 95 165 160 151 180 135 192 146 157 148 177 153 131 158 149 151 142 177 164 154 119 135 134 102 77 89 92 70 82 67 64 66 71 27 55 47 61 69 58 75 68 65 55 54 83 79 126 64 83 80 85 73 41 69 42 52 20 20 12 31 56 30 34 59 56 15 37 28 10 27 36 47 11 28 32 27 38 16 28 4 16 15 37 27 12 55 71 96 56 76 73 71 76 71 64 87 104 95 70 85 72 43 93 95 86 81 42 103 123 114 133 152 109 156 153 136 134 45 120 151 126 121 149 131 146 115 166 155 147 77 133 138 97 114 73 59 68 78 64 49 70 66 24 67 72 52 72 37 68 41 33 67 51 80 42 108 54 63 80 31 50 38 66 24 54 59 51 28 40 57 37 36 21 67 42 63 42 24 5 28 56 71 40 41 14 56 14 32 43 22 37 56 14 59 47 65 97 85 94 51 65 67 46 67 56 109 100 116 110 37 63 111 106 86 113 93 115 90 100 104 73 143 114 132 143 142 140 142 129 156 92 147 94 162 88 157 153 143 130 131 109 122 111 83 65 77 61 92 62 51 43 39 83 69 41 70 27 41 24 51 36 65 23 55 95 102 74 95 3 56 46 67 60 50 71 47 50 48 38 43 49 50 77 27 73 40 45 39 46 45 87 45 38 38 57 44 50 46 22 54 62 38 44 94 25 94 56 79 77 68 59 43 95 77 109 11 117 112 44 73 88 119 71 112 95 117 127 137 137 103 124 55 134 144 144 138 134 68 162 136 140 130 155 104 170 144 145 140 119 142 135 90 78 83 93 75 101 63 68 68 42 85 59 20 70 53 55 39 40 87 76 60 67 88 99 41 88 64 74 73 60 37 26 87 53 68 44 77 69 48 50 76 63 61 55 44 40 72 3 78 23 28 52 42 68 51 46 43 62 76 63 46 108 49 74 84 77 74 79 89 60 103 2 82 101 117 102 115 116 86 125 101 104 131 123 141 159 150 115 114 126 171 154 148 162 172 109 142 165 163 129 151 139 169 131 175 93 67 130 95 100 126 66 88 83 89 53 57 63 65 86 69 40 50 36 63 17 78 101 82 68 100 47 88 75 92 87 64 82 66 37 76 89 45 57 19 60 53 69 28 80 60 37 57 26 21 65 64 70 12 13 37 13 63 23 41 42 50 84 63 52 106 53 67 97 77 82 58 100 64 103 126 103 127 104 64 119 118 96 113 110 130 116 136 140 159 162 150 141 168 186 169 153 172 176 107 136 154 190 186 181 93 137 185 169 135 160 104 142 153 122 106 102 58 86 75 34 70 36 73 83 66 43 12 75 47 69 66 62 86 98 76 95 78 100 78 65 76 54 62 63 71 48 56 29 50 71 50 53 85 44 17 45 40 26 49 56 68 31 38 22 10 49 13 17 1 37 72 65 45 87 30 97 77 60 76 44 99 39 83 130 89 109 89 100 84 90 30 87 103 124 101 132 155 139 166 159 131 179 171 73 166 159 169 144 127 146 189 206 178 134 143 201 122 182 166 150 124 158 105 121 123 97 93 78 69 91 44 32 76 50 30 41 67 58 22 66 98 86 44 75 53 95 61 29 68 72 33 25 48 38 42 55 61 58 54 16 50 60 11 11 26 30 21 19 15 48 49 37 31 15 28 5 15 26 21 42 50 26 50 36 82 28 42 60 26 64 11 73 86 69 83 100 65 69 64 77 42 89 96 110 141 171 145 154 160 146 141 130 162 102 177 121 144 130 164 179 171 161 169 175 192 135 186 167 160 119 131 117 85 122 88 114 92 36 64 53 63 54 42 68 65 60 60 53 63 84 35 77 57 61 96 48 61 59 64 60 19 28 47 56 55 48 54 22 2 10 8 21 29 43 29 31 36 31 34 46 26 9 29 3 0 12 11 27 47 22 47 11 36 27 83 59 79 66 70 43 76 88 43 74 70 62 27 58 48 27 56 86 56 120 154 140 121 122 99 130 142 158 129 141 130 122 138 159 141 137 172 160 175 149 120 147 173 112 146 114 114 74 90 27 110 42 101 74 50 72 44 57 36 57 63 42 60 68 21 45 62 93 89 97 40 36 37 59 76 14 56 72 58 58 19 19 15 27 25 21 39 20 43 31 15 49 50 24 27 18 34 5 13 7 15 26 55 72 32 43 36 65 47 85 70 90 81 68 58 14 60 77 64 85 53 38 35 68 17 55 86 83 18 105 116 118 146 110 137 147 127 107 101 134 107 148 119 122 119 164 149 138 140 114 106 148 138 160 124 106 67 91 79 74 79 102 83 56 67 43 40 56 34 32 39 53 75 79 88 58 106 95 90 19 42 72 38 64 51 31 68 3 3 41 27 18 19 44 45 7 9 20 29 9 19 14 13 14 6 37 10 21 9 3 46 46 62 33 23 2 36 11 67 23 72 40 42 43 41 44 52 41 77 0 48 42 70 37 39 45 83 72 123 51 128 130 150 165 146 160 140 145 127 128 146 141 152 151 148 150 105 152 160 172 146 142 146 136 113 115 109 78 68 98 102 80 69 70 35 22 12 56 8 39 52 47 59 83 53 105 6 77 17 35 70 45 47 51 7 50 29 31 36 35 11 14 43 45 4 17 0 23 18 16 16 38 3 10 9 6 14 18 17 35 26 6 13 2 32 26 12 43 31 53 30 31 29 28 55 15 29 69 11 34 39 55 60 57 81 71 102 135 88 118 163 163 167 160 181 150 145 143 126 127 109 175 142 113 139 116 155 165 186 159 142 154 149 124 122 103 74 70 90 76 70 68 68 14 18 45 35 10 24 18 67 74 71 106 103 77 73 21 28 33 35 40 3 19 41 18 12 13 19 22 18 32 37 14 17 16 4 6 28 10 43 6 5 27 10 11 13 16 2 21 35 20 10 47 19 4 27 37 40 23 0 27 16 21 47 32 61 32 37 13 52 61 52 75 28 95 127 52 107 146 131 145 103 182 88 120 150 72 133 145 162 147 159 124 145 132 152 171 135 126 147 129 60 83 48 33 67 49 40 16 42 46 14 31 49 64 44 41 48 48 61 85 97 81 73 63 63 48 23 42 33 39 5 30 10 37 30 28 31 20 13 15 47 32 11 26 11 18 3 38 12 16 39 25 17 9 28 28 18 50 24 4 30 12 2 24 52 34 4 5 14 7 10 41 37 58 38 51 33 64 36 43 42 65 71 105 105 77 106 37 120 141 154 131 113 129 77 109 129 137 139 146 105 135 76 120 150 85 91 78 89 50 65 38 41 54 45 41 14 38 29 15 33 28 60 53 32 31 46 25 55 71 57 53 36 63 47 38 38 12 46 0 0 15 23 5 38 9 19 18 15 43 38 21 20 6 11 21 18 25 31 25 21 2 14 12 32 10 43 31 9 10 27 7 37 50 5 7 14 4 18 24 25 24 65 41 43 32 32 32 7 40 46 32 75 90 0 97 71 75 113 82 71 133 77 87 103 83 109 72 89 104 89 98 90 119 82 81 88 101 48 70 52 7 41 26 38 13 33 36 11 28 26 28 26 16 19 7 20 27 58 53 67 36 48 1 37 34 17 31 18 18 16 39 32 24 23 23 23 12 10 25 15 18 10 17 46 25 16 27 23 25 10 25 9 20 10 18 27 5 23 36 13 28 24 22 11 20 10 15 18 46 17 61 53 17 2 31 37 7 39 31 20 31 48 21 69 85 76 66 75 85 96 51 98 94 77 92 24 69 88 66 115 76 88 71 60 35 109 70 60 54 23 3 26 23 13 34 33 3 39 49 50 21 21 9 30 20 13 36 60 55 26 34 36 22 26 27 35 30 32 7 45 27 19 10 25 9 5 2 11 11 31 9 16 53 29 8 22 36 14 12 26 18 20 19 0 34 6 33 18 23 45 40 24 9 22 16 23 43 58 44 56 60 0 8 34 38 15 29 40 39 39 61 38 27 83 60 77 84 71 77 63 89 69 69 77 59 98 96 94 112 76 115 90 81 74 101 62 52 52 18 46 25 34 20 49 20 6 46 48 24 12 30 13 30 31 9 46 17 16 11 7 28 20 12 25 36 27 37 17 52 43 47 41 13 25 1 3 0 10 19 8 15 42 10 6 21 21 25 2 2 9 6 16 2 40 12 23 2 17 31 18 5 6 5 13 16 55 12 29 42 37 5 6 21 42 5 34 30 33 29 32 38 56 38 71 51 62 37 62 70 79 42 24 35 84 105 69 69 102 94 115 96 70 83 80 18 38 38 1 40 25 20 19 35 12 2 29 4 37 18 13 5 10 35 15 32 25 16 25 17 19 20 13 12 11 5 24 14 41 37 42 27 12 33 0 5 7 4 1 2 3 12 3 1 9 0 3 6 3 4 4 23 0 28 18 7 3 6 13 0 2 6 2 7 2 20 25 19 17 7 1 11 5 36 19 11 10 2 3 1 58 2 30 66 23 49 53 42 59 33 47 51 23 78 76 18 47 52 76 81 64 47 9 69 16 17 18 4 14 8 3 4 6 3 0 0 15 13 5 2 19 3 14 7 19 32 19 13 31 17 9 13 7 0 12 2 9 13 2 4 0 11 17 11 1 8 0 0 0 0 3 2 1 9 8 4 4 2 2 1 15 0 13 2 8 4 2 15 0 3 6 0 3 0 7 0 1 0 0 1 6 17 14 7 11 18 17 9 9 39 22 30 65 28 44 47 48 50 42 1 63 26 52 25 44 59 31 9 52 3 41 42 67 1 5 7 6 4 2 3 13 10 5 1 5 3 9 6 3 7 4 3 27 5 26 2 0 25 11 6 3 2 1 0 1 12 1 7 3 0 1 6 10 3 2 1 4 1 1 0 0 1 8 3 0 1 1 1 0 7 3 8 3 6 4 4 4 1 1 1 2 5 1 7 5 3 3 2 7 2 11 8 2 6 18 9 1 31 14 38 15 43 21 10 26 38 37 54 10 54 8 57 21 29 68 20 53 47 33 45 35 54 16 15 12 2 1 2 0 6 5 5 1 2 3 6 3 4 0 2 3 19 3 11 5 10 18 4 5 0 0 0 1 4 10 12 2 2 0 1 4 3 1 0 0 2 0 1 0 0 0 4 2 0 1 5 0 1 3 5 1 4 1 2 0 3 4 0 0 0 5 0 1 1 1 1 0 3 5 1 2 1 2 15 1 8 26 20 15 7 21 27 18 26 19 15 33 7 27 17 41 25 6 35 35 33 5 42 38 16 30 19 13 7 4 0 4 2 0 0 2 1 1 1 6 0 1 0 0 9 2 4 6 3 7 9 2 1 0 2 1 1 1 0 6 3 2 1 0 1 0 0 0 0 0 1 0 1 0 0 0 2 0 1 2 0 0 3 0 1 0 1 0 0 2 2 0 0 0 1 1 4 0 0 2 4 4 3 1 0 0 0 8 3 1 5 17 2 13 8 26 13 29 5 13 14 7 10 5 17 6 0 6 3 7 7 24 10 28 12 20 9 1 1 1 1 1 2 1 2 0 0 1 3 0 0 2 0 8 5 7 1 4 2 3 2 0 1 1 3 0 1 3 1 4 0 5 0 1 2 2 0 0 0 0 0 0 1 0 0 1 0 0 0 0 0 1 3 0 0 0 0 0 1 2 0 1 1 0 1 2 0 0 1 1 4 0 2 0 0 3 1 1 0 6 18 8 4 9 6 19 11 16 10 11 3 9 17 21 1 28 11 12 16 2 8 2 37 34 23 5 3 0 1 0 1 2 0 2 0 0 0 2 0 0 2 2 1 2 3 3 6 1 1 3 0 1 0 1 0 0 2 1 1 1 2 0 0 2 0 0 0 0 0 0 0 0 0 0 0 0 0 0 0 0 0 1 0 0 0 0 0 2 1 0 1 0 0 0 2 0 0 0 0 0 1 0 0 0 2 0 0 1 4 8 3 1 10 5 12 12 12 4 4 5 5 23 15 8 25 31 14 22 0 9 0 20 42 13 8 5 0 0 0 0 0 0 3 0 0 0 1 0 0 0 0 0 0 0 6 7 0 1 1 0 3 0 0 1 0 0 0 0 2 0 0 0 0 0 0 0 0 0 0 0 0 0 0 0 0 0 0 0 0 0 0 1 0 0 0 0 0 0 0 0 0 0 0 0 0 0 0 0 0 0 0 0 0 0 0 0 0 3 0 0 0 5 0 1 4 4 4 3 0 12 15 3 7 7 22 1 18 0 0 4 1 29 1 13 6 1 0 0 0 0 0 2 0 0 0 0 0 0 0 0 1 0 0 1 3 0 2 1 0 1 0 0 0 0 0 0 0 1 0 0 0 0 0 0 0 0 0 0 0 0 0 0 0 0 0 0 0 0 0 0 0 0 0 0 0 0 0 0 0 0 0 0 0 0 0 0 0 0 0 0 0 0 0 0 0 0 0 0 0 0 2 0 0 1 0 3 1 0 3 8 1 2 1 13 5 2 6 6 2 2 2 1 8 4 0 0 0 0 0 0 0 1 0 0 0 0 0 0 0 0 0 0 0 0 0 1 0 0 0 0 0 0 0 0 0 0 0 0 0 1 0 0 0 0 0 0 0 0 0 0 0 0 0 0 0 0 0 0 0 0 0 0 0 0 0 0 0 0 0 0 0 0 0 0 0 0 0 0 0 1 0 0 0 0 1 0 0 0 0 1 0 0 0 0 1 1 0 0 2 0 0 3 3 3 0 6 11 0 3 1 0 4 1 0 0 1 1 0 0 0 0 0 0 1 0 0 0 0 0 0 0 1 0 0 0 0 0 0 0 0 0 0 0 1 0 0 0 0 1 1 0 0 0 0 0 0 0 0 0 0 0 0 0 0 0 0 0 0 0 0 0 0 0 0 0 0 0 0 0 0 0 0 0 1 0 0 0 0 1 0 0 0 0 0 0 0 0 1 1 0 0 0 0 0 0 0 3 1 0 0 3 1 0 2 3 6 2 1 1 0 2 0 0 0 1 1 0 0 0 0 0 0 0 1 0 0 0 0 0 1 0 0 0 0 0 0 0 0 0 0 0 0 0 0 0 0 0 0 1 0 0 0 0 0 0 0 0 0 0 0 0 0 0 0 0 0 0 0 0 0 0 0 0 0 0 0 0 0 0 0 0 0 1 0 0 0 0 0 0 0 0 0 0 0 0 1 0 0 0 1 0 0 1 0 0 3 0 0 1 1 5 0 0 5 4 0 0 0 0 0 0 0 0 0 0 0 0 0 0 0 0 0 0 0 0 0 0 0 0 0 0 0 0 0 0 0 0 0 0 0 0 0 0 0 0 0 0 0 0 0 0 0 0 0 0 0 0 0 0 0 0 0 0 0 0 0 0 0 0 0 0 0 0 0 0 0 0 0 0 0 0 0 0 0 0 0 0 0 0 0 0 0 0 0 1 0 0 0 0 0 0 0 0 0 0 0 0 0 1 2 0 0 2 1 0 0 0 0 0 0 0 0 0 0 0 0 0 0 0 0 0 0 0 0 0 0 0 0 0 0 0 0 0 0 0 0 0 0 0 0 0 0 0 0 0 0 0 0 0 0 0 0 0 0 0 0 0 0 0 0 0 0 0 0 0 0 0 0 0 0 0 0 0 0 0 0 0 0 0 0 0 0 0 0 0 0 0 0 0 0 0 0 0 0 0 0 0 0 0 0 0 0 0 0 0 0 0 0 0 0 0 0 0 0 0 0 0 0 0 0 0 0 0 0 0 0 0 0 0 0 0 0 0 0 0 0 0 0 0 0 0 0 0 0 0 0 0 0 0 0 0 0 0 0 0 0 0 0 0 0 0 0 0 0 0 0 0 0 0 0 0 0 0 0 0 0 0 0 0 0 0 0 0 0 0 0 0 0 0 0 0 0 0 0 0 0 0 0 0 0 0 0 0 1 0 0 0 0 0 0 0 0 0 0 0 0 0 0 0 0 0 0 0 0 0 0 0 0 0 0 0 0 0 0 0 0 0 0 0 0 0 0 0 0 0 0 0 0 0 0 0 0 0 0 0 0 0 0 0 0 0 0 0 0 0 0 0 0 0 0 0 0 0 0 0 0 0 0 0 0 0 0 0 0 0 0 0 0 0 0 0 0 0 0 0 0 0 0 0 0 0 0 0 0 0 0 0 0 0 0 0 0 0 0 0 0 0 0 0 0 0 0 0 0 0 0 0 0 0 0 0 0 0 0 0 0 0 0 0 0 0 0 0 0 0 0 0 0 0 0 0 0 0 0 0 0 0 0 0 0 0 0 0 0 0 0 0 0 0 0 0 0 0 0 0 0 0 0 0 0 0 0 0 0 0 0 0 0 0 0 0 0 0 0 0 0 0 0 0 0 0 0 0 0 0 0 0 0 0 0 0 0 0 0 0 0 0 0 0 0 0 0 0 0 0 0 0 0 0 0 0 0 0 0 0 0 0 0 0 0 0 0 0 0 0 0 0 0 0 0 0 0 0 0 0 0 0 0 0 0 0 0 0 0 0 0 0 0 0 0 0 0 0 0 0 0 0 0 0 0 0 0 0 0 0 0 0 0 0 0 0 0 0 0 0 0 0 0 0 0 0 0 0 0 0 0 0 0 0 0 0 0 0 0 0 0 0 0 0 0 0 0 0 0 0 0 0 0 0 0 0 0 0 0 0 0 0 0 0 0 0 0 0 0 0 0 0 0 0 0 0 0 0 0 0 0 0 0 0 0 0 0 0 0 0 0 0 0 0 0 0 0 0 0 0 0 0 0 0 0 0 0 0 0 0 0 0 0 0 0 0 0 0 0 0 0 0 0 0 0 0 0 0 0 0 0 0 0 0 0 0 0 0 0 0 0 0 0 0 0 0 0 0 0 0 0 0 0 0 0 0 0 0 0 0 0 0 0 0 0 0 0 0 0 0 0 0 0 0 0 0 0 0 0 0 0 0 0 0 0 0 0 0 0 0 0 0 0 0 0 0 0 0 0 0 0 0 0 0 0 0 0 0 0 0 0 0 0 0 0 0 0 0 0 0 0 0 0 0 0 0 0 0 0 0 0 0 0 0 0 0 0 0 0 0 0 0 0 0 0 0 0 0 0 0 0 0 0 0 0 0 0 0 0 0 0 0 0 0 0 0 0 0 0 0 0 0 0 0 0 0 0 0 0 0 0 0 0 0 0 0 0 0 0 0 0 0 0 0 0 0 0 0 0 0 0 0 0 0 0 0 0 0 0 0 0 0 0 0 0 0 0 0 0 0 0 0 0 0 0 0 0 0 0 0 0 0 0 0 0 0 0 0 0 0 0 0 0 0 0 0 0 0 0 0 0 0 0 0 0 0 0 0 0 0 0 0 0 0 0 0 0 0 0 0 0 0 0 0 0 0 0 0 0 0 0 0 0 0 0 0 0 0 0 0 0 0 0 0 0 0 0 0 0 0 0 0 0 0 0 0 0 0 0 0 0 0 0 0 0 0 0 0 0 0 0 0 0 0 0 0 0 0 0 0 0 0 0 0 0 0 0 0 0 0 0 0 0 0 0 0 0 0 0 0 0 0 0 0 0 0 0 0 0 0 0 0 0 0 0 0 0 0 0 0 0 0 0 0 0 0 0 0 0 0 0 0 0 0 0 0 0 0 0 0 0 0 0 0 0 0 0 0 0 0 0 0 0 0 0 0 0 0 0 0 0 0 0 0 0 0 0 0 0 0 0 0 0 0 0 0 0 0 0 0 0 0 0 0 0 0 0 0 0 0 0 0 0 0 0 0 0 0 0 0 0 0 0 0 0 0 0 0 0 0 0 0 0 0 0 0 0 0 0 0 0 0 0 0 0 0 0 0 0 0 0 0 0 0 0 0 0 0 0 0 0 0 0 0 0 0 0 0 0 0 0 0 0 0 0 0 0 0 0 0 0 0 0 0 0 0 0 0 0 0 0 0 0 0 0 0 0 0 0 0 0 0 0 0 0 0 0 0 0 0 0 0 0 0 0 0 0 0 0 0 0 0 0 0 0 0 0 0 0 0 0 0 0 0 0 0 0 0 0 0 0 0 0 0 0 0 0 0 0 0 0 0 0 0 0 0 0 0 0 0 0 0 0 0 0 0 0 0 0 0 0 0 0 0 0 0 0 0 0 0 0 0 0 0 0 0 0 0 0 0 0 0 0 0 0 0 0 0 0 0 0 0 0 0 0 0 0 0 0 0 0 0 0 0 0 0 0 0 0 0 0 0 0 0 0 0 0 0 0 0 0 0 0 0 0 0 0 0 0 0 0 0 0 0 0 0 0 0 0 0 0 0 0 0 0 0 0 0 0 0 0 0 0 0 0 0 0 0 0 0 0 0 0 0 0 0 0 0 0 0 0 0 0 0 0 0 0 0 0 0 0 0 0 0 0 0 0 0 0 0 0 0 0 0 0 0 0 0 0 0 0 0 0 0 0 0 0 0 0 0 0 0 0 0 0 0 0 0 0 0 0 0 0 0 0 0 0 0 0 0 0 0 0 0 0 0 0 0 0 0 0 0 0 0 0 0 0 0 0 0 0 0 0 0 0 0 0 0 0 0 0 0 0 0 0 0 0 0 0 0 0 0 0 0 0 0 0 0 0 0 0 0 0 0 0 0 0 0 0 0 0 0 0 0 0 0 0 0 0 0 0 0 0 0 0 0 0 0 0 0 0 0 0 0 0 0 0 0 0 0 0 0 0 0 0 0 0 0 0 0 0 0 0 0 0 0 0 0 0 0 0 0 0 0 0 0 0 0 0 0 0 0 0 0 0 0 0 0 0 0 0 0 0 0 0 0 0 0 0 0 0 0 0 0 0 0 0 0 0 0 0 0 0 0 0 0 0 0 0 0 0 0 0 0 0 0 0 0 0 0 0 0 0 0 0 0 0 0 0 0 0 0 0 0 0 0 0 0 0 0 0 0 0 0 0 0 0 0 0 0 0 0 0 0 0 0 0 0 0 0 0 0 0 0 0 0 0 0 0 0 0 0 0 0 0 0 0 0 0 0 0 0 0 0 0 0 0 0 0 0 0 0 0 0 0 0 0 0 0 0 0 0 0 0 0 0 0 0 0 0 0 0 0 0 0 0 0 0 0 0 0 0 0 0 0 0 0 0 0 0 0 0 0 0 0 0 0 0 0 0 0 0 0 0 0 0 0 0 0 0 0 0 0 0 0 0 0 0 0 0 0 0 0 0 0 0 0 0 0 0 0 0 0 0 0 0 0 0 0 0 0 0 0 0 0 0 0 0 0 0 0 0 0 0 0 0 0 0 0 0 0 0 0 0 0 0 0 0 0 0 0 0 0 0 0 0 0 0 0 0 0 0 0 0 0 0 0 0 0 0 0 0 0 0 0 0 0 0 0 0 0 0 0 0 0 0 0 0 0 0 0 0 0 0 0 0 0 0 0 0 0 0 0 0 0 0 0 0 0 0 0 0 0 0 0 0 0 0 0 0 0 0 0 0 0 0 0 0 0 0 0 0 0 0 0 0 0 0 0 0 0 0 0 0 0 0 0 0 0 0 0 0 0 0 0 0 0 0 0 0 0 0 0 0 0 0 0 0 0 0 0 0 0 0 0 0 0 0 0 0 0 0 0 0 0 0 0 0 0 0 0 0 0 0 0 0 0 0 0 0 0 0 0 0 0 0 0 0 0 0 0 0 0 0 0 0 0 0 0 0 0 0 0 0 0 0 0 0 0 0 0 0 0 0 0 0 0 0 0 0 0 0 0 0 0 0 0 0 0 0 0 0 0 0 0 0 0 0 0 0 0 0 0 0 0 0 0 0 0 0 0 0 0 0 0 0 0 0 0 0 0 0 0 0 0 0 0 0 0 0 0 0 0 0 0 0 0 0 0 0 0 0 0 0 0 0 0 0 0 0 0 0 0 0 0 0 0 0 0 0 0 0 0 0 0 0 0 0 0 0 0 0 0 0 0 0 0 0 0 0 0 0 0 0 0 0 0 0 0 0 0 0 0 0 0 0 0 0 0 0 0 0 0 0 0 0 0 0 0 0 0 0 0 0 0 0 0 0 0 0 0 0 0 0 0 0 0 0 0 0 0 0 0 0 0 0 0 0 0 0 0 0 0 0 0 0 0 0 0 0 0 0 0 0 0 0 0 0 0 0 0 0 0 0 0 0 0 0 0 0 0 0 0 0 0 0 0 0 0 0 0 0 0 0 0 0 0 0 0 0 0 0 0 0 0 0 0 0 0 0 0 0 0 0 0 0 0 0 0 0 0 0 0 0 0 0 0 0 0 0 0 0 0 0 0 0 0 0 0 0 0 0 0 0 0 0 0 0 0 0 0 0 0 0 0 0 0 0 0 0 0 0 0 0 0 0 0 0 0 0 0 0 0 0 0 0 0 0 0 0 0 0 0 0 0 0 0 0 0 0 0 0 0 0 0 0 0 0 0 0 0 0 0 0 0 0 0 0 0 0 0 0 0 0 0 0 0 0 0 0 0 0 0 0 0 0 0 0 0 0 0 0 0 0 0 0 0 0 0 0 0 0 0 0 0 0 0 0 0 0 0 0 0 0 0 0 0 0 0 0 0 0 0 0 0 0 0 0 0 0 0 0 0 0 0 0 0 0 0 0 0 0 0 0 0 0 0 0 0 0 0 0 0 0 0 0 0 0 0 0 0 0 0 0 0 0 0 0 0 0 0 0 0 0 0 0 0 0 0 0 0 0 0 0 0 0 0 0 0 0 0 0 0 0 0 0 0 0 0 0 0 0 0 0 0 0 0 0 0 0 0 0 0 0 0 0 0 0 0 0 0 0 0 0 0 0 0 0 0 0 0 0 0 0 0 0 0 0 0 0 0 0 0 0 0 0 0 0 0 0 0 0 0 0 0 0 0 0 0 0 0 0 0 0 0 0 0 0 0 0 0 0 0 0 0 0 0 0 0 0 0 0 0 0 0 0 0 0 0 0 0 0 0 0 0 0 0 0 0 0 0 0 0 0 0 0 0 0 0 0 0 0 0 0 0 0 0 0 0 0 0 0 0 0 0 0 0 0 0 0 0 0 0 0 0 0 0 0 0 0 0 0 0 0 0 0 0 0 0 0 0 0 0 0 0 0 0 0 0 0 0 0 0 0 0 0 0 0 0 0 0 0 0 0 0 0 0 0 0 0 0 0 0 0 0 0 0 0 0 0 0 0 0 0 0 0 0 0 0 0 0 0 0 0 0 0 0 0 0 0 0 0 0 0 0 0 0 0 0 0 0 0 0 0 0 0 0 0 0 0 0 0 0 0 0 0 0 0 0 0 0 0 0 0 0 0 0 0 0 0 0 0 0 0 0 0 0 0 0 0 0 0 0 0 0 0 0 0 0 0 0 0 0 0 0 0 0 0 0 0 0 0 0 0 0 0 0 0 0 0 0 0 0 0 0 0 0 0 0 0 0 0 0 0 0 0 0 0 0 0 0 0 0 0 0 0 0 0 0 0 0 0 0 0 0 0 0 0 0 0 0 0 0 0 0 0 0 0 0 0 0 0 0 0 0 0 0 0 0 0 0 0 0 0 0 0 0 0 0 0 0 0 0 0 0 0 0 0 0 0 0 0 0 0 0 0 0 0 0 0 0 0 0 0 0 0 0 0 0 0 0 0 0 0 0 0 0 0 0 0 0 0 0 0 0 0 0 0 0 0 0 0 0 0 0 0 0 0 0 0 0 0 0 0 0 0 0 0 0 0 0 0 0 0 0 0 0 0 0 0 0 0 0 0 0 0 0 0 0 0 0 0 0 0 0 0 0 0 0 0 0 0 0 0 0 0 0 0 0 0 0 0 0 0 0 0 0 0 0 0 0 0 0 0 0 0 0 0 0 0 0 0 0 0 0 0 0 0 0 0 0 0 0 0 0 0 0 0 0 0 0 0 0 0 0 0 0 0 0 0 0 0 0 0 0 0 0 0 0 0 0 0 0 0 0 0 0 0 0 0 0 0 0 0 0 0 0 0 0 0 0 0 0 0 0 0 0 0 0 0 0 0 0 0 0 0 0 0 0 0 0 0 0 0 0 0 0 0 0 0 0 0 0 0 0 0 0 0 0 0 0 0 0 0 0 0 0 0 0 0 0 0 0 0 0 0 0 0 0 0 0 0 0 0 0 0 0 0 0 0 0 0 0 0 0 0 0 0 0 0 0 0 0 0 0 0 0 0 0 0 0 0 0 0 0 0 0 0 0 0 0 0 0 0 0 0 0 0 0 0 0 0 0 0 0 0 0 0 0 0 0 0 0 0 0 0 0 0 0 0 0 0 0 0 0 0 0 0 0 0 0 0 0 0 0 0 0 0 0 0 0 0 0 0 0 0 0 0 0 0 0 0 0 0 0 0 0 0 0 0 0 0 0 0 0 0 0 0 0 0 0 0 0 0 0 0 0 0 0 0 0 0 0 0 0 0 0 0 0 0 0 0 0 0 0 0 0 0 0 0 0 0 0 0 0 0 0 0 0 0 0 0 0 0 0 0 0 0 0 0 0 0 0 0 0 0 0 0 0 0 0 0 0 0 0 0 0 0 0 0 0 0 0 0 0 0 0 0 0 0 0 0 0 0 0 0 0 0 0 0 0 0 0 0 0 0 0 0 0 0 0 0 0 0 0 0 0 0 0 0 0 0 0 0 0 0 0 0 0 0 0 0 0 0 0 0 0 0 0 0 0 0 0 0 0 0 0 0 0 0 0 0 0 0 0 0 0 0 0 0 0 0 0 0 0 0 0 0 0 0 0 0 0 0 0 0 0 0 0 0 0 0 0 0 0 0 0 0 0 0 0 0 0 0 0 0 0 0 0 0 0 0 0 0 0 0 0 0 0 0 0 0 0 0 0 0 0 0 0 0 0 0 0 0 0 0 0 0 0 0 0 0 0 0 0 0 0 0 0 0 0 0 0 0 0 0 0 0 0 0 0 0 0 0 0 0 0 0 0 0 0 0 0 0 0 0 0 0 0 0 0 0 0 0 0 0 0 0 0 0 0 0 0 0 0 0 0 0 0 0 0 0 0 0 0 0 0 0 0 0 0 0 0 0 0 0 0 0 0 0 0 0 0 0 0 0 0 0 0 0 0 0 0 0 0 0 0 0 0 0 0 0 0 0 0 0 0 0 0 0 0 0 0 0 0 0 0 0 0 0 0 0 0 0 0 0 0 0 0 0 0 0 0 0 0 0 0 0 0 0 0 0 0 0 0 0 0 0 0 0 0 0 0 0 0 0 0 0 0 0 0 0 0 0 0 0 0 0 0 0 0 0 0 0 0 0 0 0 0 0 0 0 0 0 0 0 0 0 0 0 0 0 0 0 0 0 0 0 0 0 0 0 0 0 0 0 0 0 0 0 0 0 0 0 0 0 0 0 0 0 0 0 0 0 0 0 0 0 0 0 0 0 0 0 0 0 0 0 0 0 0 0 0 0 0 0 0 0 0 0 0 0 0 0 0 0 0 0 0 0 0 0 0 0 0 0 0 0 0 0 0 0 0 0 0 0 0 0 0 0 0 0 0 0 0 0 0 0 0 0 0 0 0 0 0 0 0 0 0 0 0 0 0 0 0 0 0 0 0 0 0 0 0 0 0 0 0 0 0 0 0 0 0 0 0 0 0 0 0 0 0 0 0 0 0 0 0 0 0 0 0 0 0 0 0 0 0 0 0 0 0 0 0 0 0 0 0 0 0 0 0 0 0 0 0 0 0 0 0 0 0 0 0 0 0 0 0 0 0 0 0 0 0 0 0 0 0 0 0 0 0 0 0 0 0 0 0 0 0 0 0 0 0 0 0 0 0 0 0 0 0 0 0 0 0 0 0 0 0 0 0 0 0 0 0 0 0 0 0 0 0 0 0 0 0 0 0 0 0 0 0 0 0 0 0 0 0 0 0 0 0 0 0 0 0 0 0 0 0 0 0 0 0 0 0 0 0 0 0 0 0 0 0 0 0 0 0 0 0 0 0 0 0 0 0 0 0 0 0 0 0 0 0 0 0 0 0 0 0 0 0 0 0 0 0 0 0 0 0 0 0 0 0 0 0 0 0 0 0 0 0 0 0 0 0 0 0 0 0 0 0 0 0 0 0 0 0 0 0 0 0 0 0 0 0 0 0 0 0 0 0 0 0 0 0 0 0 0 0 0 0 0 0 0 0 0 0 0 0 0 0 0 0 0 0 0 0 0 0 0 0 0 0 0 0 0 0 0 0 0 0 0 0 0 0 0 0 0 0 0 0 0 0 0 0 0 0 0 0 0 0 0 0 0 0 0 0 0 0 0 0 0 0 0 0 0 0 0 0 0 0 0 0 0 0 0 0 0 0 0 0 0 0 0 0 0 0 0 0 0 0 0 0 0 0 0 0 0 0 0 0 0 0 0 0 0 0 0 0 0 0 0 0 0 0 0 0 0 0 0 0 0 0 0 0 0 0 0 0 0 0 0 0 0 0 0 0 0 0 0 0 0 0 0 0 0 0 0 0 0 0 0 0 0 0 0 0 0 0 0 0 0 0 0 0 0 0 0 0 0 0 0 0 0 0 0 0 0 0 0 0 0 0 0 0 0 0 0 0 0 0 0 0 0 0 0 0 0 0 0 0 0 0 0 0 0 0 0 0 0 0 0 0 0 0 0 0 0 0 0 0 0 0 0 0 0 0 0 0 0 0 0 0 0 0 0 0 0 0 0 0 0 0 0 0 0 0 0 0 0 0 0 0 0 0 0 0 0 0 0 0 0 0 0 0 0 0 0 0 0 0 0 0 0 0 0 0 0 0 0 0 0 0 0 0 0 0 0 0 0 0 0 0 0 0 0 0 0 0 0 0 0 0 0 0 0 0 0 0 0 0 0 0 0 0 0 0 0 0 0 0 0 0 0 0 0 0 0 0 0 0 0 0 0 0 0 0 0 0 0 0 0 0 0 0 0 0 0 0 0 0 0 0 0 0 0 0 0 0 0 0 0 0 0 0 0 0 0 0 0 0 0 0 0 0 0 0 0 0 0 0 0 0 0 0 0 0 0 0 0 0 0 0 0 0 0 0 0 0 0 0 0 0 0 0 0 0 0 0 0 0 0 0 0 0 0 0 0 0 0 0 0 0 0 0 0 0 0 0 0 0 0 0 0 0 0 0 0 0 0 0 0 0 0 0 0 0 0 0 0 0 0 0 0 0 0 0 0 0 0 0 0 0 0 0 0 0 0 0 0 0 0 0 0 0 0 0 0 0 0 0 0 0 0 0 0 0 0 0 0 0 0 0 0 0 0 0 0 0 0 0 0 0 0 0 0 0 0 0 0 0 0 0 0 0 0 0 0 0 0 0 0 0 0 0 0 0 0 0 0 0 0 0 0 0 0 0 0 0 0 0 0 0 0 0 0 0 0 0 0 0 0 0 0 0 0 0 0 0 0 0 0 0 0 0 0 0 0 0 0 0 0 0 0 0 0 0 0 0 0 0 0 0 0 0 0 0 0 0 0 0 0 0 0 0 0 0 0 0 0 0 0 0 0 0 0 0 0 0 0 0 0 0 0 0 0 0 0 0 0 0 0 0 0 0 0 0 0 0 0 0 0 0 0 0 0 0 0 0 0 0 0 0 0 0 0 0 0 0 0 0 0 0 0 0 0 0 0 0 0 0 0 0 0 0 0 0 0 0 0 0 0 0 0 0 0 0 0 0 0 0 0 0 0 0 0 0 0 0 0 0 0 0 0 0 0 0 0 0 0 0 0 0 0 0 0 0 0 0 0 0 0 0 0 0 0 0 0 0 0 0 0 0 0 0 0 0 0 0 0 0 0 0 0 0 0 0 0 0 0 0 0 0 0 0 0 0 0 0 0 0 0 0 0 0 0 0 0 0 0 0 0 0 0 0 0 0 0 0 0 0 0 0 0 0 0 0 0 0 0 0 0 0 0 0 0 0 0 0 0 0 0 0 0 0 0 0 0 0 0 0 0 0 0 0 0 0 0 0 0 0 0 0 0 0 0 0 0 0 0 0 0 0 0 0 0 0 0 0 0 0 0 0 0 0 0 0 0 0 0 0 0 0 0 0 0 0 0 0 0 0 0 0 0 0 0 0 0 0 0 0 0 0 0 0 0 0 0 0 0 0 0 0 0 0 0 0 0 0 0 0 0 0 0 0 0 0 0 0 0 0 0 0 0 0 0 0 0 0 0 0 0 0 0 0 0 0 0 0 0 0 0 0 0 0 0 0 0 0 0 0 0 0 0 0 0 0 0 0 0 0 0 0 0 0 0 0 0 0 0 0 0 0 0 0 0 0 0 0 0 0 0 0 0 0 0 0 0 0 0 0 0 0 0 0 0 0 0 0 0 0 0 0 0 0 0 0 0 0 0 0 0 0 0 0 0 0 0 0 0 0 0 0 0 0 0 0 0 0 0 0 0 0 0 0 0 0 0 0 0 0 0 0 0 0 0 0 0 0 0 0 0 0 0 0 0 0 0 0 0 0 0 0 0 0 0 0 0 0 0 0 0 0 0 0 0 0 0 0 0 0 0 0 0 0 0 0 0 0 0 0 0 0 0 0 0 0 0 0 0 0 0 0 0 0 0 0 0 0 0 0 0 0 0 0 0 0 0 0 0 0 0 0 0 0 0 0 0 0 0 0 0 0 0 0 0 0 0 0 0 0 0 0 0 0 0 0 0 0 0 0 0 0 0 0 0 0 0 0 0 0 0 0 0 0 0 0 0 0 0 0 0 0 0 0 0 0 0 0 0 0 0 0 0 0 0 0 0 0 0 0 0 0 0 0 0 0 0 0 0 0 0 0 0 0 0 0 0 0 0 0 0 0 0 0 0 0 0 0 0 0 0 0 0 0 0 0 0 0 0 0 0 0 0 0 0 0 0 0 0 0 0 0 0 0 0 0 0 0 0 0 0 0 0 0 0 0 0 0 0 0 0 0 0 0 0 0 0 0 0 0 0 0 0 0 0 0 0 0 0 0 0 0 0 0 0 0 0 0 0 0 0 0 0 0 0 0 0 0 0 0 0 0 0 0 0 0 0 0 0 0 0 0 0 0 0 0 0 0 0 0 0 0 0 0 0 0 0 0 0 0 0 0 0 0 0 0 0 0 0 0 0 0 0 0 0 0 0 0 0 0 0 0 0 0 0 0 0 0 0 0 0 0 0 0 0 0 0 0 0 0 0 0 0 0 0 0 0 0 0 0 0 0 0 0 0 0 0 0 0 0 0 0 0 0 0 0 0 0 0 0 0 0 0 0 0 0 0 0 0 0 0 0 0 0 0 0 0 0 0 0 0 0 0 0 0 0 0 0 0 0 0 0 0 0 0 0 0 0 0 0 0 0 0 0 0 0 0 0 0 0 0 0 0 0 0 0 0 0 0 0 0 0 0 0 0 0 0 0 0 0 0 0 0 0 0 0 0 0 0 0 0 0 0 0 0 0 0 0 0 0 0 0 0 0 0 0 0 0 0 0 0 0 0 0 0 0 0 0 0 0 0 0 0 0 0 0 0 0 0 0 0 0 0 0 0 0 0 0 0 0 0 0 0 0 0 0 0 0 0 0 0 0 0 0 0 0 0 0 0 0 0 0 0 0 0 0 0 0 0 0 0 0 0 0 0 0 0 0 0 0 0 0 0 0 0 0 0 0 0 0 0 0 0 0 0 0 0 0 0 0 0 0 0 0 0 0 0 0 0 0 0 0 0 0 0 0 0 0 0 0 0 0 0 0 0 0 0 0 0 0 0 0 0 0 0 0 0 0 0 0 0 0 0 0 0 0 0 0 0 0 0 0 0 0 0 0 0 0 0 0 0 0 0 0 0 0 0 0 0 0 0 0 0 0 0 0 0 0 0 0 0 0 0 0 0 0 0 0 0 0 0 0 0 0 0 0 0 0 0 0 0 0 0 0 0 0 0 0 0 0 0 0 0 0 0 0 0 0 0 0 0 0 0 0 0 0 0 0 0 0 0 0 0 0 0 0 0 0 0 0 0 0 0 0 0 0 0 0 0 0 0 0 0 0 0 0 0 0 0 0 0 0 0 0 0 0 0 0 0 0 0 0 0 0 0 0 0 0 0 0 0 0 0 0 0 0 0 0 0 0 0 0 0 0 0 0 0 0 0 0 0 0 0 0 0 0 0 0 0 0 0 0 0 0 0 0 0 0 0 0 0 0 0 0 0 0 0 0 0 0 0 0 0 0 0 0 0 0 0 0 0 0 0 0 0 0 0 0 0 0 0 0 0 0 0 0 0 0 0 0 0 0 0 0 0 0 0 0 0 0 0 0 0 0 0 0 0 0 0 0 0 0 0 0 0 0 0 0 0 0 0 0 0 0 0 0 0 0 0 0 0 0 0 0 0 0 0 0 0 0 0 0 0 0 0 0 0 0 0 0 0 0 0 0 0 0 0 0 0 0 0 0 0 0 0 0 0 0 0 0 0 0 0 0 0 0 0 0 0 0 0 0 0 0 0 0 0 0 0 0 0 0 0 0 0 0 0 0 0 0 0 0 0 0 0 0 0 0 0 0 0 0 0 0 0 0 0 0 0 0 0 0 0 0 0 0 0 0 0 0 0 0 0 0 0 0 0 0 