P2
137 129
255
0 0 0 0 0 0 0 0 0 0 0 0 0 0 0 0 0 0 0 0 0 0 0 0 0 0 0 0 0 0 0 0 0 0 0 0 0 0 0 0 0 0 0 0 0 0 0 0 0 0 0 0 0 0 0 0 0 0 0 0 0 0 0 0 0 0 0 0 0 0 0 0 0 0 0 0 0 0 0 0 0 0 0 0 0 0 0 0 0 0 0 0 0 0 0 0 0 0 0 0 0 0 0 0 0 0 0 0 0 0 0 0 0 0 0 0 0 0 0 0 0 0 0 0 0 0 0 0 0 0 0 0 0 0 0 0 0 0 0 0 0 0 0 0 0 0 0 0 0 0 0 0 0 0 0 0 0 0 0 0 0 0 0 0 0 0 0 0 0 0 0 0 0 0 0 0 0 0 0 0 0 0 0 0 0 0 0 0 0 0 0 0 0 0 0 0 0 0 0 0 0 0 0 0 0 0 0 0 0 0 0 0 0 0 0 0 0 0 0 0 0 0 0 0 0 0 0 0 0 0 0 0 0 0 0 0 0 0 0 0 0 0 0 0 0 0 0 0 0 0 0 0 0 0 0 0 0 0 0 0 0 0 0 0 0 0 0 0 0 0 0 0 0 0 103 99 131 125 95 100 147 126 110 72 118 126 137 180 188 189 204 201 239 219 230 237 205 228 220 193 221 209 189 224 190 200 227 195 200 230 202 209 233 189 231 236 160 234 226 160 230 215 182 221 196 193 219 192 203 218 169 208 221 182 217 228 192 220 229 194 229 229 188 227 227 169 234 225 182 242 224 233 245 228 251 243 250 249 240 250 250 250 247 243 241 227 234 231 248 226 255 230 243 210 210 183 194 183 183 194 134 142 146 120 152 117 153 132 139 147 135 154 122 128 117 147 136 97 152 106 131 49 124 112 88 131 131 75 111 89 107 113 91 130 139 64 106 133 134 95 93 124 116 39 154 135 172 162 170 193 156 193 198 131 190 170 65 179 126 144 171 176 154 189 157 156 191 169 187 187 162 200 185 176 191 167 194 186 172 188 174 172 178 174 165 171 176 142 170 179 111 178 181 121 189 176 153 201 167 154 199 159 162 199 158 184 195 185 194 196 127 209 177 208 193 191 210 194 210 190 217 184 205 194 208 202 212 214 206 199 188 149 164 92 90 127 151 106 97 156 110 122 24 142 118 112 131 96 137 65 98 135 118 61 111 129 126 79 80 129 119 85 133 135 92 85 114 129 111 49 110 121 90 104 73 125 55 88 108 107 67 115 92 67 122 132 111 112 137 136 114 126 91 73 122 117 138 130 129 133 74 12 124 103 75 129 94 81 129 102 91 81 119 160 111 81 143 123 116 111 118 113 108 114 112 103 117 65 121 94 134 118 109 129 130 105 140 90 134 104 89 123 163 90 118 125 48 160 46 100 108 134 106 69 153 95 131 119 122 119 128 80 118 124 66 130 125 89 102 98 110 77 98 114 75 64 102 100 88 86 103 108 63 117 76 119 92 63 128 108 72 98 97 132 68 55 104 106 87 96 112 70 46 87 102 85 83 89 48 95 105 88 99 54 61 51 31 55 10 74 87 58 76 87 114 85 100 100 89 65 86 79 32 115 79 72 75 32 110 95 27 87 86 81 82 107 92 113 57 79 88 55 85 73 98 70 89 66 98 100 42 65 83 73 92 89 30 102 100 53 67 64 66 129 86 107 77 77 36 113 90 60 110 108 98 32 101 94 94 100 79 70 104 54 41 52 123 112 45 95 82 41 108 48 11 54 79 94 92 14 63 59 81 63 97 31 57 91 56 96 102 8 88 69 81 102 99 35 52 70 113 88 57 64 42 3 69 77 60 59 27 83 66 100 49 27 84 97 84 77 74 75 96 75 61 77 47 82 59 73 74 111 46 44 91 50 81 38 10 75 88 79 106 72 57 110 61 83 103 46 92 78 82 68 72 9 75 72 83 67 31 109 65 74 64 74 41 67 84 102 90 92 81 66 38 76 69 92 86 39 95 71 102 68 98 82 110 58 24 78 82 83 65 61 51 115 107 47 81 74 16 68 86 92 92 88 95 48 91 53 67 74 20 91 37 116 80 95 75 77 67 55 72 69 107 79 50 83 21 83 39 92 57 102 34 31 67 54 83 60 84 50 58 44 43 69 91 92 99 53 65 60 48 101 87 30 89 61 72 66 97 45 89 27 78 63 81 53 63 94 11 81 73 80 66 43 66 58 75 98 49 61 69 46 71 92 40 78 74 14 1 29 38 65 68 87 31 71 92 34 82 62 18 76 16 82 89 82 66 72 22 17 39 71 79 49 76 54 50 86 62 64 95 86 9 20 74 69 72 47 29 88 116 21 76 68 70 58 47 84 51 74 81 68 54 70 38 94 75 31 74 10 98 69 55 81 74 88 25 83 81 75 22 75 88 22 74 40 63 45 77 49 53 82 37 54 37 94 48 86 59 23 11 87 85 68 56 16 42 66 98 24 12 88 50 31 45 85 18 81 30 46 78 68 75 15 32 48 25 66 65 85 73 74 15 19 101 69 43 65 62 67 79 47 82 50 48 53 62 73 79 77 77 45 66 80 8 68 54 56 80 18 43 55 31 57 60 75 0 54 54 33 65 70 25 51 20 46 59 68 76 45 37 76 53 28 63 64 75 105 37 73 68 66 53 23 21 65 67 79 38 67 68 57 77 42 66 42 50 31 44 51 34 57 83 57 37 38 49 60 87 92 3 69 69 61 42 40 11 48 74 67 42 74 67 75 62 71 71 24 37 23 45 56 30 53 75 78 38 38 45 26 48 54 60 16 65 50 53 73 64 86 58 53 47 28 52 32 84 93 48 80 70 95 99 13 82 51 74 66 68 61 12 26 57 62 70 54 17 39 54 64 64 37 16 17 31 61 34 30 27 69 69 12 62 43 67 47 12 71 37 38 37 24 52 23 60 60 20 21 81 72 49 53 20 65 74 40 45 51 40 60 51 78 59 50 60 5 70 55 30 16 53 57 50 54 36 59 73 83 61 62 61 52 26 46 63 55 58 43 65 72 77 76 42 32 50 70 65 29 25 52 68 8 53 85 6 15 57 84 69 21 28 63 27 42 62 45 44 43 61 35 38 59 50 49 71 67 73 51 65 40 48 30 35 75 66 59 77 87 82 99 57 83 77 61 75 58 41 52 19 48 59 32 17 39 26 55 54 35 31 9 44 43 47 44 55 53 63 38 35 45 52 13 60 19 60 38 27 32 8 44 3 46 38 46 46 42 55 58 60 18 28 30 36 24 48 38 60 52 99 43 22 43 25 49 35 62 54 16 14 53 29 54 15 65 70 46 62 9 68 32 5 45 44 40 23 9 38 51 64 11 8 25 68 36 51 56 48 66 30 17 68 13 8 31 70 50 56 0 26 38 46 57 31 44 12 61 30 55 51 29 4 69 72 46 45 74 18 14 31 30 50 16 41 67 77 13 88 60 57 125 68 90 104 91 19 68 23 80 57 29 52 30 36 81 22 12 59 67 67 22 49 52 72 64 63 71 34 32 8 23 40 40 51 51 18 10 60 69 12 95 62 48 59 26 79 62 57 54 64 88 38 68 33 59 64 93 14 57 55 49 73 59 57 53 27 5 65 34 63 25 12 60 66 53 53 35 24 29 1 57 66 25 18 28 36 38 16 6 9 48 34 37 37 17 60 53 15 26 24 38 29 28 59 58 45 7 76 49 48 50 51 29 53 0 67 48 36 83 54 58 67 41 85 52 44 66 55 69 52 36 65 74 76 81 52 39 135 93 72 136 122 100 119 91 93 103 54 79 72 49 95 73 34 92 73 18 87 62 33 97 13 46 96 73 53 67 49 60 73 79 68 82 33 93 109 64 116 96 71 110 91 109 112 77 113 99 115 80 97 112 76 103 91 121 102 122 92 132 94 121 62 63 48 68 55 54 16 22 82 73 12 56 58 13 16 24 37 61 24 28 16 49 31 47 22 10 8 47 4 27 1 46 45 37 7 21 25 30 0 56 20 37 36 75 43 29 58 2 28 33 5 71 37 79 87 70 67 70 61 80 76 33 55 60 66 63 66 55 102 40 100 83 56 120 58 45 142 121 108 100 88 72 96 68 93 82 59 101 75 44 98 48 2 99 0 1 97 71 57 97 76 56 84 47 56 97 80 22 79 71 103 104 94 116 100 103 120 86 123 119 36 124 112 120 101 101 126 97 107 66 134 44 141 51 148 103 150 100 99 33 39 57 45 33 71 58 41 87 83 26 25 62 39 66 46 38 60 35 31 24 50 12 24 21 63 8 24 11 32 39 18 10 22 8 21 22 46 32 38 30 44 30 17 17 41 51 44 22 48 67 72 42 28 53 40 56 54 25 35 0 19 60 78 68 31 92 75 71 67 71 87 94 77 137 117 69 112 36 95 64 51 81 59 75 89 66 60 86 11 36 91 44 28 70 66 48 71 64 48 49 31 61 56 31 64 57 67 96 63 81 107 49 65 71 10 103 77 67 85 57 95 91 96 92 24 78 71 90 108 124 71 115 129 143 62 86 75 25 48 57 46 79 70 82 102 87 69 18 81 44 60 52 56 84 25 25 3 11 33 8 41 63 42 26 36 34 35 18 11 43 34 34 11 41 52 41 20 16 59 14 15 11 23 28 7 16 34 35 0 3 26 39 33 33 31 41 8 59 38 65 43 15 44 61 33 30 57 33 55 54 104 104 91 131 83 115 71 54 94 43 65 70 57 55 80 28 66 69 51 71 80 53 9 47 57 55 57 44 90 62 52 98 58 44 84 65 59 95 34 75 59 65 92 59 59 64 65 77 63 93 33 70 25 46 46 72 27 89 104 107 102 34 59 50 50 21 70 15 55 83 22 85 77 87 59 81 24 23 65 46 83 19 16 16 7 46 27 30 44 64 31 39 15 21 32 15 36 43 43 10 11 32 21 22 18 58 26 29 14 14 12 13 4 0 43 23 38 7 39 31 23 32 11 18 52 7 43 30 25 42 21 32 44 24 45 7 29 60 54 96 102 60 125 93 49 125 91 89 104 72 24 67 51 60 80 35 39 86 26 68 72 57 54 45 25 81 68 36 92 47 33 84 60 68 108 82 55 105 3 95 53 24 102 53 91 57 104 69 42 67 66 82 72 105 115 135 57 132 56 97 58 52 29 83 49 80 72 77 90 93 64 86 84 50 56 68 19 51 34 28 11 3 17 34 7 35 52 10 49 25 28 27 22 21 13 24 19 36 20 12 7 23 33 17 38 23 27 5 25 0 2 51 45 39 13 32 47 17 20 7 42 27 22 3 38 12 45 40 25 12 32 43 11 19 81 39 78 82 8 118 117 33 128 116 99 113 102 52 87 34 26 101 58 30 107 69 115 102 67 76 91 68 79 96 52 67 80 52 65 68 71 129 104 91 133 81 122 110 102 133 105 116 82 86 93 53 64 75 87 4 109 93 137 19 140 107 103 81 54 12 76 33 74 65 96 103 62 16 70 75 40 23 52 14 16 28 53 28 15 1 12 18 33 16 11 56 11 21 28 23 22 3 19 28 7 23 40 11 52 14 22 35 21 23 3 30 11 29 25 38 32 38 19 22 4 19 7 36 38 24 14 20 11 33 13 34 33 19 41 25 51 80 53 67 56 66 101 59 74 80 88 72 110 58 23 104 55 65 114 83 57 110 86 108 101 22 83 93 41 38 91 65 56 93 68 80 87 47 137 27 109 133 74 126 81 88 119 81 113 81 34 84 74 14 89 13 83 32 63 115 91 118 80 77 77 59 4 47 32 37 17 44 65 53 51 49 51 35 33 34 51 28 11 49 22 27 9 14 7 10 10 19 44 25 14 31 16 12 15 24 36 27 22 43 37 43 20 30 7 12 13 12 11 34 52 24 18 46 9 25 19 1 45 32 4 49 13 7 43 19 18 21 31 49 36 59 26 59 68 53 55 72 79 78 77 38 43 30 35 95 72 18 98 56 78 109 78 48 91 76 72 84 47 68 77 24 16 81 46 69 76 62 88 37 95 112 65 47 114 48 95 81 31 92 32 92 65 74 86 78 55 84 10 49 77 47 107 81 108 60 58 62 26 44 48 48 19 53 50 8 55 53 48 48 47 49 20 48 11 44 7 22 16 37 26 24 5 26 29 21 48 29 8 12 21 40 21 28 37 10 19 25 28 6 29 4 5 3 14 6 17 42 31 19 24 33 5 16 16 37 9 4 30 19 6 48 19 18 20 11 18 10 53 0 21 25 39 30 26 66 50 55 38 31 46 48 41 48 22 64 71 26 80 50 33 41 26 5 66 56 52 63 34 59 51 27 63 53 39 64 51 71 64 67 58 67 4 58 50 26 56 34 52 51 65 81 33 66 57 49 28 64 64 79 77 86 69 62 21 36 34 56 46 1 19 6 22 37 7 35 30 34 31 41 34 14 39 30 17 7 31 16 12 5 15 50 11 26 34 38 2 1 18 6 20 37 7 5 18 8 1 15 3 12 17 30 7 13 33 10 2 5 34 32 7 27 10 9 0 9 42 30 35 2 6 16 24 2 11 25 9 6 10 26 10 33 12 19 2 18 37 31 37 25 7 24 15 31 18 37 18 11 19 26 33 18 38 49 22 16 29 12 35 36 17 28 50 21 25 47 13 16 11 40 23 24 5 12 28 22 8 40 40 25 27 6 36 18 32 42 1 32 9 33 49 17 36 1 9 39 41 63 29 26 34 5 59 4 22 19 47 16 16 28 24 8 19 25 19 20 25 12 40 7 16 48 52 5 47 34 15 2 45 25 12 15 8 11 10 12 23 9 14 33 20 28 18 1 0 14 21 2 34 7 13 12 17 22 23 13 5 12 16 13 5 6 14 25 13 12 17 1 13 28 39 11 32 28 13 1 24 3 25 39 6 62 28 13 19 33 22 14 21 30 63 1 30 45 18 19 58 13 0 49 1 12 3 45 56 35 42 9 23 2 18 29 35 39 23 17 14 1 6 27 29 25 20 16 42 21 19 44 20 38 47 57 50 51 72 0 45 31 13 52 21 10 23 32 20 7 23 4 8 20 20 36 26 18 15 34 26 5 29 37 21 38 9 2 3 21 43 18 19 1 7 26 18 33 5 8 27 22 8 15 8 3 1 16 20 13 1 7 29 10 9 27 6 1 23 7 1 12 15 22 27 32 18 0 10 18 34 25 22 38 11 22 15 25 10 19 21 21 64 0 18 38 40 42 17 12 53 23 50 17 31 43 0 58 38 8 47 1 0 3 7 44 15 14 23 24 8 24 32 5 49 29 21 30 22 11 3 14 34 10 29 38 0 3 39 23 41 49 33 41 36 59 52 23 19 21 27 15 3 9 16 18 10 11 25 5 0 7 11 14 28 10 20 19 8 15 8 12 1 37 1 6 21 35 29 29 5 0 39 9 42 7 14 10 23 16 19 4 4 6 9 30 5 0 30 24 3 18 49 0 26 44 44 37 19 12 13 62 22 16 0 7 22 32 23 13 40 43 15 52 30 40 45 5 36 54 12 21 49 41 45 59 20 56 70 59 47 58 27 19 45 18 27 44 8 31 19 23 6 9 5 32 22 42 4 28 18 35 30 10 34 12 22 14 2 37 30 47 4 34 27 18 20 46 40 51 64 42 7 46 42 14 24 2 22 6 32 14 10 40 3 16 7 15 18 1 20 32 22 7 8 6 4 7 13 2 46 14 15 9 12 29 22 10 9 51 27 54 5 14 12 16 25 17 6 17 15 1 19 4 6 8 13 0 18 48 11 43 22 26 40 12 6 6 48 6 1 19 1 18 42 73 37 76 40 11 79 23 15 59 37 50 87 18 17 53 36 24 69 26 40 79 42 48 75 35 30 63 21 37 34 31 57 70 15 7 23 11 40 45 47 32 23 20 25 28 14 2 2 19 26 13 29 19 32 20 51 26 8 31 46 70 71 66 25 74 85 83 49 52 49 24 31 1 43 34 67 32 21 13 20 8 10 30 29 32 32 25 1 2 15 24 6 5 22 9 21 37 26 6 27 13 49 14 66 27 37 19 8 30 9 0 28 24 1 15 14 19 21 12 1 13 41 19 36 12 14 18 30 8 0 3 49 14 31 18 3 51 89 51 88 71 27 80 54 52 74 59 9 115 76 53 16 62 24 69 9 42 76 8 42 36 59 24 87 8 37 20 62 68 79 50 24 20 26 38 21 33 34 37 3 16 40 31 53 28 27 22 47 30 25 46 27 66 29 2 56 36 77 113 71 21 98 108 100 33 69 49 40 72 37 8 21 75 19 43 44 13 28 42 33 31 0 35 32 5 3 24 11 9 32 36 26 33 39 12 27 36 9 38 34 58 36 43 17 22 4 7 19 9 16 10 1 16 8 23 8 29 24 23 48 25 15 10 7 34 20 6 31 56 22 36 28 2 4 70 68 69 67 44 49 82 69 113 58 20 108 74 59 33 42 57 55 34 57 45 53 28 84 21 65 80 27 15 45 56 59 18 72 67 31 48 21 2 42 36 58 6 72 53 4 73 65 27 67 39 47 46 59 66 70 1 42 70 35 33 118 111 78 107 102 103 105 98 55 2 86 60 68 38 73 1 24 34 25 47 42 38 42 28 28 44 16 34 49 10 18 24 10 50 34 19 18 14 47 18 56 28 8 6 23 22 44 20 39 23 21 13 25 23 11 3 28 24 42 18 25 44 13 7 15 26 25 23 18 35 49 38 9 26 41 29 47 62 61 75 23 25 109 81 128 125 92 41 16 45 54 50 45 78 57 45 101 86 68 123 44 43 15 31 36 15 30 48 83 29 77 20 59 15 42 34 66 41 53 86 53 43 64 33 57 66 60 70 6 27 40 77 54 47 73 49 88 70 104 98 73 72 92 95 76 89 26 82 63 72 68 39 18 10 33 16 50 19 31 18 9 15 58 38 36 26 13 10 20 30 48 23 1 11 5 44 30 52 18 29 18 5 36 38 11 55 18 30 20 45 36 23 22 31 35 42 2 31 11 26 28 13 26 37 1 34 25 21 16 17 21 51 6 63 43 49 76 55 62 111 75 102 129 83 80 73 70 87 42 55 86 81 41 109 94 80 122 63 27 51 31 51 16 66 38 98 12 71 8 43 33 43 29 62 18 75 60 74 46 37 42 45 52 6 63 62 73 23 58 55 13 51 0 53 62 58 95 81 44 75 70 20 79 37 61 45 62 67 42 19 25 6 50 58 37 3 27 2 9 58 45 7 10 0 8 10 14 5 16 11 3 20 33 8 38 17 32 22 2 35 22 18 21 36 27 40 35 25 28 24 27 28 33 5 14 17 29 36 8 16 10 11 27 32 40 27 19 2 44 32 63 53 46 41 19 70 77 1 43 98 44 71 62 69 77 32 62 59 70 37 61 78 34 82 58 4 44 46 34 55 35 9 89 36 59 10 14 17 12 5 44 36 61 1 58 32 14 20 3 46 44 29 31 66 5 23 9 5 31 57 23 35 78 71 65 73 66 38 14 57 17 14 46 51 53 18 32 25 30 58 45 49 4 39 12 29 5 14 14 4 19 5 33 11 1 3 26 15 33 33 5 24 55 28 12 18 3 0 10 38 9 49 51 15 34 29 9 31 10 16 30 48 36 22 25 4 46 13 12 0 34 43 30 19 3 53 19 41 7 44 19 15 35 47 47 60 3 27 8 56 34 58 35 55 56 41 47 70 76 42 25 17 53 40 66 29 47 21 47 48 32 57 12 58 20 11 7 59 42 35 42 3 22 51 68 37 14 14 80 56 23 13 38 23 41 13 40 23 35 60 18 35 62 42 27 43 36 42 2 22 13 30 18 18 31 34 42 28 34 40 13 33 49 24 24 59 48 43 10 18 23 31 5 33 19 27 37 0 19 66 51 4 49 20 17 28 39 31 50 30 13 43 21 21 29 33 37 32 52 20 29 30 19 50 28 20 10 26 34 32 2 10 48 7 19 17 38 10 28 21 37 54 76 88 76 54 33 25 67 69 53 84 20 63 86 89 57 26 9 48 41 74 52 37 48 52 33 29 56 33 66 26 29 14 43 39 0 68 68 35 41 58 36 34 62 91 42 38 21 49 44 29 14 18 54 12 41 50 50 47 59 44 37 28 59 30 32 44 45 41 22 14 39 11 39 13 29 23 8 26 37 12 60 44 44 38 22 23 38 6 30 5 16 15 18 36 44 46 10 39 12 34 32 19 36 32 22 9 26 20 27 9 56 49 14 32 11 12 48 26 15 45 15 34 36 5 37 13 4 16 12 11 6 39 32 25 42 29 1 61 67 50 47 3 41 62 61 45 87 43 47 70 72 68 28 1 32 5 37 13 33 52 28 46 22 50 30 54 36 25 26 18 33 15 45 45 54 37 18 9 50 57 55 27 19 48 52 24 44 0 3 60 33 13 47 36 45 51 30 7 56 48 27 4 55 18 1 24 9 32 25 36 16 6 21 15 20 19 34 23 13 27 25 33 4 15 20 12 25 46 5 33 46 31 26 38 35 28 52 19 11 9 15 21 26 15 25 29 13 49 48 10 26 7 23 45 45 11 36 26 43 35 11 33 17 9 48 13 2 53 39 24 31 14 35 31 51 45 29 30 28 21 44 19 43 56 48 16 48 38 63 37 1 40 36 29 17 44 45 35 44 41 29 5 37 36 6 3 23 25 4 29 21 49 47 7 2 34 12 13 24 16 44 61 11 51 23 25 20 50 15 44 23 37 1 38 20 36 0 13 9 39 39 37 7 9 20 31 11 14 34 19 13 22 23 10 2 31 34 11 10 0 6 40 4 44 47 3 42 38 22 56 20 32 22 53 22 28 29 10 12 36 44 16 8 11 25 56 27 35 3 28 40 34 15 22 34 10 4 14 27 1 9 54 3 37 63 1 8 11 38 31 7 11 55 50 36 43 6 39 7 47 41 30 38 61 43 24 12 28 36 31 33 30 31 43 34 16 32 3 22 20 45 6 4 22 5 13 35 7 23 44 39 3 16 18 23 31 26 19 53 23 20 15 12 13 49 24 38 3 35 27 19 28 35 26 26 18 9 32 21 4 14 25 21 12 21 43 2 23 3 29 10 25 34 34 14 1 8 32 42 15 41 33 41 34 38 44 18 28 9 25 30 17 26 21 12 28 53 40 0 1 5 23 45 33 28 8 12 44 22 17 24 23 24 20 1 36 14 12 35 29 14 32 35 38 51 40 40 13 42 13 48 26 35 10 27 12 9 39 43 3 42 21 18 40 17 12 14 27 22 10 20 17 12 2 7 42 22 41 16 20 5 17 15 7 33 24 51 53 9 23 31 5 3 17 22 27 43 19 25 20 32 44 44 22 40 38 16 11 4 29 28 25 21 37 4 7 14 3 7 11 36 11 29 34 44 36 37 11 35 41 26 14 12 27 25 31 45 34 9 45 9 4 8 19 18 8 21 29 11 20 12 13 38 46 44 16 28 1 25 1 11 8 3 10 32 43 28 28 18 34 23 26 33 26 11 12 21 13 15 13 51 33 2 19 4 30 2 45 46 7 12 19 15 28 41 21 7 11 31 14 38 9 39 16 27 32 39 8 8 37 11 12 16 34 27 22 28 26 44 26 14 60 48 30 33 27 7 49 23 24 2 2 47 54 63 37 11 29 24 56 18 34 13 25 28 24 19 25 14 42 9 19 0 6 19 7 13 29 25 6 31 37 45 43 29 11 50 6 29 36 10 25 9 29 12 11 42 29 13 27 26 21 29 32 22 5 6 6 11 12 16 60 28 40 49 46 13 11 30 6 20 15 30 36 8 28 34 26 40 13 37 22 12 4 25 25 7 28 34 6 15 23 17 24 8 25 15 0 18 36 7 7 23 29 23 8 18 9 29 22 5 31 27 23 4 41 39 14 22 17 10 16 37 25 3 35 8 10 61 27 30 19 28 45 61 34 33 39 20 13 43 74 37 22 44 27 26 25 28 1 19 22 47 30 20 4 45 35 6 11 9 12 22 24 25 31 7 1 48 8 56 21 25 40 2 35 44 0 24 46 48 26 35 31 24 29 34 40 52 12 14 25 31 25 22 2 7 19 71 55 33 72 46 13 2 40 5 31 46 38 2 31 41 28 43 60 51 9 36 3 8 5 24 31 33 4 29 38 17 17 33 24 37 38 15 40 13 61 47 40 52 55 20 41 17 57 39 44 38 39 33 35 38 46 24 17 15 25 1 54 50 37 10 24 31 15 18 66 41 29 49 79 55 15 61 43 63 1 60 51 39 36 22 37 15 33 12 21 18 61 45 25 17 26 32 14 23 5 8 30 38 29 25 16 8 16 44 50 11 14 28 9 43 48 7 35 34 38 48 44 27 33 41 29 23 46 35 1 46 49 26 25 5 24 33 61 64 45 62 20 11 29 41 29 44 24 52 46 42 53 38 51 54 55 37 7 33 6 3 12 62 61 33 13 52 22 32 8 18 44 55 29 58 24 56 53 29 37 54 3 41 23 64 43 25 73 23 43 22 20 5 55 12 5 42 2 54 48 8 21 31 25 37 21 64 4 49 19 54 1 29 70 10 72 14 50 22 0 16 45 53 17 1 34 29 9 47 33 39 26 13 35 47 42 19 2 30 37 42 36 2 42 16 38 6 45 14 35 0 54 49 9 56 5 7 44 24 29 41 50 7 21 31 49 1 54 47 51 9 2 41 24 48 26 19 50 13 44 22 5 36 42 36 68 40 42 49 39 30 23 34 23 36 48 26 33 5 56 55 26 12 47 16 37 31 21 35 63 35 63 6 44 28 4 6 31 25 46 12 56 62 60 61 6 27 36 7 46 60 34 11 52 6 19 2 24 4 28 23 34 49 33 35 50 40 12 29 2 74 38 47 11 50 40 63 16 17 46 14 4 35 43 22 23 28 43 40 25 16 56 44 12 27 11 10 10 54 5 54 17 17 22 40 40 35 20 36 25 10 50 1 7 25 30 1 17 36 30 23 28 26 16 50 34 33 30 37 38 11 19 18 14 34 34 50 49 44 0 5 27 48 29 7 11 27 7 33 41 9 29 17 23 54 27 38 37 10 6 34 7 49 34 19 30 70 11 37 22 23 36 27 16 29 42 56 27 29 57 28 13 26 45 52 7 50 12 19 13 51 21 28 12 15 18 20 37 38 48 11 30 30 21 48 32 11 55 0 53 42 32 28 54 37 9 48 35 31 46 50 45 16 7 53 57 31 15 22 29 9 46 4 25 39 43 18 49 31 15 5 32 35 23 53 13 7 21 51 35 3 17 27 10 23 38 35 24 6 18 3 3 4 0 31 44 22 18 31 18 29 14 32 33 47 48 15 2 8 46 57 23 29 30 5 18 27 3 24 29 38 46 34 21 10 2 16 39 30 45 44 49 30 52 2 20 27 15 29 31 34 42 33 51 65 50 30 40 4 8 40 35 1 44 18 42 44 42 30 24 22 24 11 30 16 53 33 27 24 49 39 42 11 27 44 14 66 54 30 16 17 50 22 53 39 48 42 35 44 16 13 32 40 0 29 10 15 37 33 9 21 28 32 28 32 34 23 6 24 29 12 38 8 38 40 61 58 43 8 25 23 58 39 42 26 49 21 43 9 25 30 13 15 43 38 48 42 46 30 44 39 35 50 18 51 3 12 70 49 56 40 16 21 62 18 38 5 33 15 61 7 2 20 41 80 5 52 63 65 15 50 6 28 0 48 45 36 54 28 21 44 63 52 36 52 63 30 82 28 20 31 56 36 35 51 56 8 24 43 28 72 14 58 32 70 35 44 41 31 16 53 56 39 73 48 50 31 49 48 26 37 17 43 40 33 36 40 47 0 13 2 52 20 45 67 28 38 4 12 7 36 53 20 58 12 1 5 31 21 44 69 58 50 70 62 33 46 47 67 73 67 61 39 27 70 6 43 46 27 22 59 16 69 62 37 70 42 37 56 35 6 53 61 53 83 56 55 25 25 11 65 61 8 31 31 40 83 42 18 53 11 90 47 73 44 42 38 55 57 53 45 65 47 61 70 19 58 73 61 45 59 85 86 47 72 57 56 62 77 74 68 59 57 43 23 24 12 81 6 45 51 81 90 84 50 34 46 30 71 5 78 33 71 64 43 36 2 44 30 56 48 63 28 28 61 53 54 30 70 12 68 92 80 55 18 37 57 60 65 55 70 32 47 35 68 59 38 72 68 14 58 87 50 31 71 14 92 40 95 61 18 68 45 51 65 46 43 44 35 87 12 42 91 67 66 88 40 67 13 81 49 95 65 30 6 12 26 20 91 76 65 39 58 98 81 22 53 59 87 0 65 27 39 83 30 76 66 76 77 10 71 90 26 62 82 35 71 14 77 89 29 78 44 37 42 6 54 25 53 16 48 33 57 15 69 21 6 38 82 74 84 60 61 22 36 50 73 84 56 51 58 50 30 28 58 47 53 49 101 46 37 60 55 62 45 72 51 52 71 77 59 27 55 80 75 44 64 83 41 85 17 73 65 47 83 72 57 50 103 1 28 61 43 90 16 77 67 52 58 62 70 47 44 79 58 78 94 81 77 93 99 63 101 63 62 38 70 64 97 73 34 44 21 55 78 85 93 72 62 41 100 95 42 37 79 69 69 30 37 19 92 59 53 60 89 86 42 73 87 42 55 93 68 85 49 86 102 38 91 85 50 89 86 38 48 82 45 56 31 61 57 34 21 57 27 68 77 78 75 83 66 48 67 31 58 83 34 43 58 36 18 18 40 91 81 115 47 45 46 73 81 6 73 66 47 74 63 73 12 51 92 66 17 61 74 42 75 40 75 64 73 87 76 5 70 90 7 49 65 77 92 34 69 37 64 75 67 67 32 76 55 89 77 111 109 97 114 95 82 91 82 69 86 54 69 84 48 81 68 25 72 89 87 26 89 56 56 95 90 84 53 94 64 105 86 52 67 79 66 58 55 82 91 77 82 51 65 36 97 92 71 100 99 99 60 114 98 68 105 84 50 68 78 43 53 54 47 78 9 55 75 38 45 75 78 64 67 75 78 83 85 62 83 34 59 74 30 72 68 86 102 91 93 87 68 44 63 100 82 79 67 73 84 81 81 13 88 73 78 47 47 11 102 10 73 27 6 104 84 95 81 99 78 26 41 75 56 62 50 95 78 75 91 78 45 69 82 74 101 64 84 88 76 119 65 103 70 66 90 77 71 88 88 70 98 36 52 46 76 117 106 113 51 104 57 82 95 49 100 114 89 107 56 78 84 71 26 60 58 83 84 44 48 72 64 80 86 86 94 43 75 71 108 64 53 93 69 86 92 29 55 79 60 91 64 60 75 87 72 67 52 12 85 77 24 67 66 95 61 81 53 47 66 66 89 13 95 91 73 80 76 91 84 34 87 98 92 74 85 81 90 50 55 91 80 100 70 79 85 108 35 45 64 66 108 68 87 79 85 101 57 56 63 58 58 62 97 89 55 95 85 32 67 75 26 56 92 0 66 76 94 76 56 114 72 82 95 53 99 83 39 50 73 42 8 95 114 94 98 68 104 72 85 78 44 70 116 77 99 15 75 69 84 51 57 96 41 90 82 55 66 99 42 86 96 79 74 84 84 78 18 71 44 77 78 82 30 83 73 40 97 55 82 53 82 62 96 45 64 95 84 20 61 65 79 48 87 74 31 74 68 69 91 67 62 101 20 70 82 93 75 84 89 75 75 85 74 1 57 17 65 95 96 67 88 96 51 84 57 77 61 84 71 102 86 90 105 58 84 78 14 76 63 79 77 71 80 69 60 30 10 36 19 60 39 33 8 66 90 96 101 57 72 80 53 89 87 70 81 89 21 65 88 62 58 62 62 76 55 86 76 56 72 86 37 96 44 73 54 91 65 65 67 62 58 76 77 43 107 51 60 83 79 68 71 83 113 77 67 45 49 30 68 70 85 52 62 73 57 90 27 67 74 92 70 91 91 63 79 78 74 77 107 73 64 50 63 59 54 77 61 58 94 84 78 50 91 87 78 68 1 48 101 50 7 58 72 68 84 76 63 79 49 54 76 53 71 20 13 83 111 37 88 93 47 82 78 38 36 79 74 80 67 45 67 41 57 55 35 47 15 13 25 4 69 82 76 23 21 79 56 57 70 28 68 76 94 57 54 54 46 71 49 51 82 22 81 64 4 100 62 56 60 19 70 33 82 65 12 23 58 41 24 72 42 77 53 30 72 50 45 51 77 102 60 47 53 44 62 75 58 60 36 58 57 79 79 46 54 57 69 78 71 37 35 93 72 51 38 99 36 29 45 45 49 36 18 70 78 80 42 45 27 74 75 65 34 58 52 97 69 86 78 66 65 89 52 38 62 17 6 44 42 58 43 32 50 86 42 51 72 26 65 68 63 46 64 55 34 14 12 53 13 41 53 27 55 54 44 68 58 57 40 74 25 41 70 28 59 62 63 94 38 66 44 26 36 69 63 29 44 74 48 46 33 55 83 70 18 45 46 68 68 75 44 35 36 63 60 22 69 65 54 46 25 34 17 58 56 70 59 51 69 52 47 4 38 1 64 36 62 34 75 60 12 51 63 75 48 57 20 57 64 66 43 57 64 16 49 41 19 25 31 55 49 71 54 38 9 24 28 60 32 38 58 56 58 67 97 54 44 76 78 35 17 53 35 34 45 40 35 50 41 30 40 32 5 48 25 37 42 50 41 43 10 22 24 4 42 56 24 33 37 42 58 23 61 54 47 35 73 24 14 49 13 11 52 48 82 61 20 19 22 26 72 42 34 24 32 10 9 35 10 19 32 44 38 57 36 51 35 30 64 28 48 63 46 64 52 38 8 57 59 29 38 1 18 37 65 66 60 45 17 46 11 62 22 41 45 65 47 63 43 49 65 38 6 41 64 50 82 51 29 52 21 54 8 52 11 10 75 40 39 6 26 3 38 6 38 27 50 25 46 37 40 69 2 24 21 55 30 1 47 48 15 50 35 1 24 38 25 34 13 7 39 37 5 26 30 25 22 24 30 32 1 1 29 5 39 17 34 27 13 32 36 31 28 57 0 29 9 14 16 64 2 58 60 27 16 20 52 34 13 39 8 55 6 12 37 7 22 28 15 18 46 42 24 51 43 46 50 19 64 45 12 52 14 44 56 89 17 45 4 67 47 48 14 9 16 3 24 31 29 50 11 43 53 51 57 70 42 59 52 35 44 48 55 69 49 50 20 47 43 36 49 24 2 59 55 13 0 14 39 21 19 21 13 36 26 9 5 29 36 19 4 26 25 18 16 49 41 5 52 11 9 22 7 20 23 5 3 35 26 15 27 37 25 37 34 43 36 17 13 17 24 33 2 13 19 11 16 28 32 32 13 31 32 7 36 37 28 35 21 36 14 23 8 39 7 38 32 37 22 17 24 32 9 27 30 5 17 40 38 31 41 45 25 25 20 37 38 13 27 46 57 16 86 37 26 29 51 6 38 40 19 14 20 4 26 8 53 1 28 24 18 14 29 13 33 32 9 12 16 37 23 40 17 24 36 7 2 2 6 15 14 23 13 6 11 47 21 30 13 22 35 15 38 40 14 5 23 7 22 7 3 14 35 26 27 48 22 0 18 17 32 31 2 4 18 11 4 31 33 8 14 23 5 15 22 0 15 2 16 24 5 8 20 13 25 20 17 13 18 26 7 30 32 21 35 37 6 21 30 7 19 8 20 38 34 6 13 22 10 14 11 18 25 13 33 2 9 45 13 24 17 21 11 38 9 8 23 33 32 65 15 30 30 22 18 11 28 14 25 6 12 24 16 36 23 26 14 8 6 19 27 30 39 37 27 21 7 22 21 4 30 22 9 1 24 13 27 0 46 7 8 10 33 31 24 12 28 25 30 14 24 3 9 12 31 15 10 21 22 14 23 28 41 25 15 14 2 6 5 10 19 31 2 9 18 13 25 34 13 34 2 6 7 0 20 21 45 32 3 20 15 20 14 29 3 32 28 16 8 21 6 0 26 17 7 14 6 18 21 10 16 27 12 9 26 22 26 24 12 9 29 34 0 29 41 30 4 15 27 0 36 3 41 10 25 40 18 31 35 1 4 17 12 18 5 36 18 38 37 11 30 15 15 7 19 22 7 25 43 10 25 5 16 37 5 14 7 32 5 15 35 9 1 21 9 47 23 22 30 6 21 2 16 21 14 28 25 1 26 3 5 21 26 3 38 22 3 12 4 31 29 26 9 8 13 3 28 35 24 1 4 2 8 38 36 1 20 10 16 13 16 15 14 35 40 13 11 22 23 14 25 30 27 25 28 1 9 0 5 5 28 25 16 14 20 27 24 19 44 31 22 23 0 23 33 4 3 42 40 1 12 7 36 30 11 26 14 29 25 48 19 26 36 28 11 2 25 12 1 15 2 0 29 0 27 20 28 28 5 6 4 10 4 12 20 45 8 27 21 11 45 26 8 1 11 10 1 24 5 1 10 4 29 34 4 35 9 9 8 13 10 20 14 15 0 31 7 15 11 28 22 19 5 12 15 1 22 24 9 5 28 20 11 18 23 1 6 24 12 11 43 14 23 11 17 9 5 23 9 11 11 34 19 9 19 2 6 28 4 3 6 23 15 14 12 8 18 8 39 7 19 7 20 42 17 39 13 29 7 29 3 20 2 4 27 21 5 17 22 18 31 28 20 22 24 25 18 19 16 10 53 9 1 20 31 12 2 5 8 15 29 22 7 11 13 14 19 2 3 30 22 15 34 20 45 0 28 54 32 6 3 20 30 12 4 5 10 3 20 13 20 8 8 0 4 3 21 13 19 8 30 35 5 10 10 10 7 27 17 4 15 29 14 29 17 7 4 34 17 16 16 18 1 23 21 20 15 47 35 28 8 21 2 9 30 4 2 3 31 19 35 11 30 25 48 34 17 38 24 36 27 6 26 24 41 36 8 48 38 9 39 6 25 20 29 28 37 26 40 23 5 13 11 15 18 34 16 23 23 12 19 26 7 8 39 11 51 57 16 15 27 49 24 2 13 22 15 39 33 0 10 18 45 33 12 4 29 32 4 15 51 34 23 44 69 34 21 35 23 54 14 11 39 37 10 29 16 32 20 32 19 19 2 29 13 5 28 60 28 21 25 13 2 7 23 32 8 7 38 51 50 28 12 26 34 20 8 13 21 12 22 12 1 23 30 4 24 0 36 6 18 31 17 1 15 20 6 34 9 35 28 29 29 14 36 47 19 22 1 16 29 33 34 10 42 28 0 20 24 11 21 12 18 17 29 36 21 23 28 16 7 13 23 13 9 15 6 14 20 3 2 39 21 45 40 27 42 30 20 19 4 7 21 9 25 16 15 14 36 45 24 23 4 5 20 27 39 44 3 17 38 55 20 23 34 0 54 20 10 45 44 12 16 24 32 18 30 3 14 4 24 32 35 30 56 6 8 9 20 23 9 14 31 2 3 15 43 46 26 28 45 36 19 10 1 9 4 7 4 0 5 4 7 9 1 20 16 6 10 17 3 3 9 1 18 1 14 7 4 2 5 9 18 6 4 7 8 15 1 19 1 4 3 0 11 10 2 5 6 1 18 4 9 6 13 11 9 1 8 4 11 4 12 12 18 4 1 15 18 4 14 23 12 34 13 2 1 0 5 5 3 2 13 26 16 10 15 10 10 0 2 13 7 14 15 4 10 2 8 3 2 10 7 20 3 5 17 8 0 8 6 13 2 6 9 9 1 5 8 14 2 19 13 5 6 2 21 2 6 12 13 1 8 3 9 8 16 28 20 13 5 5 13 2 0 4 3 3 4 2 2 1 1 9 0 1 2 1 1 1 10 2 1 7 5 5 3 6 6 1 5 2 8 1 4 1 0 0 2 5 4 5 10 4 2 8 0 6 5 1 4 2 7 11 6 1 2 13 1 6 6 10 6 8 17 0 1 5 2 4 2 2 2 8 2 11 0 0 0 3 11 2 9 1 7 3 1 3 12 3 1 0 1 6 2 6 8 0 1 4 0 3 2 5 6 7 2 11 0 1 0 1 3 2 1 0 2 16 3 4 0 3 10 10 0 5 6 4 2 3 3 4 2 5 7 2 1 5 1 8 0 0 8 4 0 0 6 1 3 0 5 0 0 2 0 0 1 14 4 0 5 0 0 0 4 1 1 6 2 3 2 3 0 3 0 1 4 9 4 2 12 1 13 3 0 8 10 8 1 7 2 1 0 2 8 0 5 0 1 3 6 1 4 0 5 9 0 1 1 5 9 2 3 0 1 1 1 4 1 1 3 0 1 0 2 8 1 5 0 0 1 0 2 1 2 4 10 1 1 6 5 2 7 2 5 0 2 3 0 1 2 1 3 0 6 8 1 1 6 7 4 0 7 6 0 1 0 0 3 0 1 10 9 2 0 0 1 0 0 1 0 4 0 2 0 0 0 5 0 0 1 3 0 0 7 1 1 3 1 2 2 3 0 0 1 0 0 0 1 0 2 0 0 0 1 2 0 5 1 7 0 0 1 2 4 1 0 2 1 1 1 1 0 4 2 1 1 3 0 0 0 4 4 1 0 5 1 5 1 0 0 2 1 0 2 0 0 8 0 1 0 1 3 0 0 0 0 0 0 0 3 0 1 6 1 1 3 0 2 4 3 0 6 0 3 2 3 1 0 2 2 0 4 1 3 1 0 1 2 5 1 1 1 0 2 0 0 1 1 1 3 0 0 0 0 0 0 0 4 0 2 1 0 1 4 0 0 0 1 4 4 0 1 2 3 2 0 0 1 0 0 1 1 1 1 0 0 1 0 0 1 3 2 1 2 3 0 1 0 0 0 0 0 4 0 0 2 4 1 0 2 1 2 0 4 0 0 1 2 2 0 0 5 0 1 2 0 1 4 0 2 0 1 1 4 0 1 1 0 2 0 1 0 1 3 0 1 2 0 0 4 0 0 2 0 2 3 2 1 4 1 2 1 1 2 0 0 1 0 2 0 0 3 1 1 0 0 3 0 1 0 0 1 0 3 2 0 1 0 1 1 1 1 1 0 2 0 1 1 0 1 1 0 0 1 0 0 3 1 2 0 1 1 0 0 0 1 0 1 2 3 1 0 1 1 0 0 1 1 0 3 0 3 1 0 1 0 1 0 1 3 0 0 1 1 3 0 0 1 2 0 1 0 1 0 3 2 1 0 1 0 0 1 2 0 2 0 2 1 0 1 0 1 0 1 0 0 0 1 0 0 2 2 3 1 0 0 2 2 0 2 0 1 3 1 1 0 2 1 0 0 1 0 1 0 0 2 0 0 0 0 0 0 0 1 0 0 0 0 0 0 4 2 0 1 0 3 0 2 0 0 0 0 0 0 0 0 0 0 0 1 0 0 0 0 0 0 0 0 0 0 0 1 1 0 0 0 1 0 0 0 0 0 0 0 0 2 0 0 0 1 0 1 0 0 0 0 0 0 0 0 0 0 0 0 0 1 0 0 0 0 0 1 0 1 0 0 0 0 0 0 0 0 1 0 0 0 0 0 0 0 0 0 0 0 0 0 0 0 0 1 1 0 0 0 1 1 0 0 0 1 0 0 0 0 0 0 0 0 0 0 0 0 1 0 0 0 0 0 0 0 0 0 0 0 0 0 0 1 0 0 0 0 0 0 0 0 0 0 0 0 0 0 0 0 0 0 0 0 0 0 0 0 0 2 0 0 0 0 0 0 0 0 0 0 0 1 0 0 0 0 0 0 1 0 0 0 0 0 0 1 0 0 0 0 0 0 0 0 0 0 0 0 0 0 0 0 0 0 0 0 0 0 0 0 0 0 0 0 0 0 0 0 0 0 0 0 0 0 0 0 0 0 2 0 0 0 0 1 0 0 0 1 0 1 0 0 0 0 0 0 0 0 0 0 0 0 0 0 0 0 0 0 0 0 0 0 0 0 0 0 0 0 0 0 0 0 0 0 0 0 0 0 0 0 0 0 0 0 0 0 0 0 0 0 0 0 0 0 0 0 2 0 0 0 0 0 0 0 0 0 0 0 0 0 0 0 0 0 0 0 0 0 0 0 0 0 0 0 0 0 0 0 0 0 0 0 0 0 0 0 0 0 0 0 0 0 0 0 0 0 0 0 0 0 0 0 0 0 0 0 0 0 0 0 0 0 0 0 0 1 0 0 0 0 0 0 0 0 0 0 1 0 0 0 0 0 0 0 0 0 0 0 0 0 0 0 0 0 0 0 0 0 0 0 0 0 0 0 0 0 0 0 0 0 0 0 0 0 0 0 0 0 1 1 0 0 0 0 0 0 0 0 0 0 0 0 0 1 0 0 0 0 0 0 0 0 0 0 0 0 0 0 0 0 0 0 0 0 0 0 0 0 0 0 1 0 0 0 0 0 0 0 0 0 0 0 0 0 0 0 0 0 0 0 0 0 0 0 1 0 0 0 0 0 0 0 0 0 0 0 0 0 0 0 0 0 2 0 0 0 0 0 0 0 0 0 0 0 0 0 0 0 0 0 0 0 0 0 0 0 0 0 0 0 0 0 0 0 0 0 0 0 0 0 0 0 0 0 0 0 0 0 0 0 0 0 0 0 0 2 0 0 0 0 0 0 0 0 0 0 0 0 0 0 1 0 0 0 0 0 0 0 0 0 0 0 0 0 0 0 0 0 0 0 0 0 1 0 0 0 0 2 0 0 0 0 0 0 0 0 0 0 0 0 0 0 0 0 0 0 1 0 0 0 0 1 0 0 0 0 0 0 0 0 0 0 0 0 0 0 0 0 0 1 0 0 1 1 0 0 0 1 0 0 0 0 0 0 0 0 0 0 0 0 0 0 0 0 1 0 1 0 0 0 0 0 0 0 0 0 0 0 0 0 0 0 0 0 0 0 0 0 0 0 0 0 1 0 0 0 0 0 0 0 0 0 0 0 0 0 0 0 0 0 0 0 0 0 0 0 0 0 0 0 0 0 0 0 0 0 0 0 0 0 0 0 0 0 0 0 0 0 0 0 0 0 0 0 0 0 0 0 0 0 0 0 0 0 0 0 0 0 0 0 0 0 0 0 0 0 0 0 0 0 0 0 0 0 0 0 0 0 0 0 0 0 0 0 0 0 0 0 0 0 0 0 0 0 0 0 0 0 0 0 0 0 0 0 0 0 0 0 0 0 0 0 0 0 0 0 0 0 0 0 0 0 0 0 0 0 0 0 0 0 0 0 0 0 0 0 0 0 0 0 0 0 0 0 0 0 0 0 0 0 0 0 0 0 0 0 0 0 0 0 0 0 0 0 0 0 0 0 0 0 0 0 0 0 0 0 0 0 0 0 0 0 0 0 0 0 0 0 0 0 0 0 0 0 0 0 0 0 0 0 0 0 0 0 0 0 0 0 0 0 0 0 0 0 0 0 0 0 0 0 0 0 0 0 0 0 0 0 0 0 0 0 0 0 0 0 0 0 0 0 0 0 0 0 0 0 0 0 0 0 0 0 0 0 0 0 0 0 0 0 0 0 0 0 0 0 0 0 0 0 0 0 0 0 0 0 0 0 0 0 0 0 0 0 0 0 0 0 0 0 0 0 0 0 0 0 0 0 0 0 0 0 0 0 0 0 0 0 0 0 0 0 0 0 0 0 0 0 0 0 0 0 0 0 0 0 0 0 0 0 0 0 0 0 0 0 0 0 0 0 0 0 0 0 0 0 0 0 0 0 0 0 0 0 0 0 0 0 0 0 0 0 0 0 0 0 0 0 0 0 0 0 0 0 0 0 0 0 0 0 0 0 0 0 0 0 0 0 0 0 0 0 0 0 0 0 0 0 0 0 0 0 0 0 0 0 0 0 0 0 0 0 0 0 0 0 0 0 0 0 0 0 0 0 0 0 0 0 0 0 0 0 0 0 0 0 0 0 0 0 0 0 0 0 0 0 0 0 0 0 0 0 0 0 0 0 0 0 0 0 0 0 0 0 0 0 0 0 0 0 0 0 0 0 0 0 0 0 0 0 0 0 0 0 0 0 0 0 0 0 0 0 0 0 0 0 0 0 0 0 0 0 0 0 0 0 0 0 0 0 0 0 0 0 0 0 0 0 0 0 0 0 0 0 0 0 0 0 0 0 0 0 0 0 0 0 0 0 0 0 0 0 0 0 0 0 0 0 0 0 0 0 0 0 0 0 0 0 0 0 0 0 0 0 0 0 0 0 0 0 0 0 0 0 0 0 0 0 0 0 0 0 0 0 0 0 0 0 0 0 0 0 0 0 0 0 0 0 0 0 0 0 0 0 0 0 0 0 0 0 0 0 0 0 0 0 0 0 0 0 0 0 0 0 0 0 0 0 0 0 0 0 0 0 0 0 0 0 0 0 0 0 0 0 0 0 0 0 0 0 0 0 0 0 0 0 0 0 0 0 0 0 0 0 0 0 0 0 0 0 0 0 0 0 0 0 0 0 0 0 0 0 0 0 0 0 0 0 0 0 0 0 0 0 0 0 0 0 0 0 0 0 0 0 0 0 0 0 0 0 0 0 0 0 0 0 0 0 0 0 0 0 0 0 0 0 0 0 0 0 0 0 0 0 0 0 0 0 0 0 0 0 0 0 0 0 0 0 0 0 0 0 0 0 0 0 0 0 0 0 0 0 0 0 0 0 0 0 0 0 0 0 0 0 0 0 0 0 0 0 0 0 0 0 0 0 0 0 0 0 0 0 0 0 0 0 0 0 0 0 0 0 0 0 0 0 0 0 0 0 0 0 0 0 0 0 0 0 0 0 0 0 0 0 0 0 0 0 0 0 0 0 0 0 0 0 0 0 0 0 0 0 0 0 0 0 0 0 0 0 0 0 0 0 0 0 0 0 0 0 0 0 0 0 0 0 0 0 0 0 0 0 0 0 0 0 0 0 0 0 0 0 0 0 0 0 0 0 0 0 0 0 0 0 0 0 0 0 0 0 0 0 0 0 0 0 0 0 0 0 0 0 0 0 0 0 0 0 0 0 0 0 0 0 0 0 0 0 0 0 0 0 0 0 0 0 0 0 0 0 0 0 0 0 0 0 0 0 0 0 0 0 0 0 0 0 0 0 0 0 0 0 0 0 0 0 0 0 0 0 0 0 0 0 0 0 0 0 0 0 0 0 0 0 0 0 0 0 0 0 0 0 0 0 0 0 0 0 0 0 0 0 0 0 0 0 0 0 0 0 0 0 0 0 0 0 0 0 0 0 0 0 0 0 0 0 0 0 0 0 0 0 0 0 0 0 0 0 0 0 0 0 0 0 0 0 0 0 0 0 0 0 0 0 0 0 0 0 0 0 0 0 0 0 0 0 0 0 0 0 0 0 0 0 0 0 0 0 0 0 0 0 0 0 0 0 0 0 0 0 0 0 0 0 0 0 0 0 0 0 0 0 0 0 0 0 0 0 0 0 0 0 0 0 0 0 0 0 0 0 0 0 0 0 0 0 0 0 0 0 0 0 0 0 0 0 0 0 0 0 0 0 0 0 0 0 0 0 0 0 0 0 0 0 0 0 0 0 0 0 0 0 0 0 0 0 0 0 0 0 0 0 0 0 0 0 0 0 0 0 0 0 0 0 0 0 0 0 0 0 0 0 0 0 0 0 0 0 0 0 0 0 0 0 0 0 0 0 0 0 0 0 0 0 0 0 0 0 0 0 0 0 0 0 0 0 0 0 0 0 0 0 0 0 0 0 0 0 0 0 0 0 0 0 0 0 0 0 0 0 0 0 0 0 0 0 0 0 0 0 0 0 0 0 0 0 0 0 0 0 0 0 0 0 0 0 0 0 0 0 0 0 0 0 0 0 0 0 0 0 0 0 0 0 0 0 0 0 0 0 0 0 0 0 0 0 0 0 0 0 0 0 0 0 0 0 0 0 0 0 0 0 0 0 0 0 0 0 0 0 0 0 0 0 0 0 0 0 0 0 0 0 0 0 0 0 0 0 0 0 0 0 0 0 0 0 0 0 0 0 0 0 0 0 0 0 0 0 0 0 0 0 0 0 0 0 0 0 0 0 0 0 0 0 0 0 0 0 0 0 0 0 0 0 0 0 0 0 0 0 0 0 0 0 0 0 0 0 0 0 0 0 0 0 0 0 0 0 0 0 0 0 0 0 0 0 0 0 0 0 0 0 0 0 0 0 0 0 0 0 0 0 0 0 0 0 0 0 0 0 0 0 0 0 0 0 0 0 0 0 0 0 0 0 0 0 0 0 0 0 0 0 0 0 0 0 0 0 0 0 0 0 0 0 0 0 0 0 0 0 0 0 0 0 0 0 0 0 0 0 0 0 0 0 0 0 0 0 0 0 0 0 0 0 0 0 0 0 0 0 0 0 0 0 0 0 0 0 0 0 0 0 0 0 0 0 0 0 0 0 0 0 0 0 0 0 0 0 0 0 0 0 0 0 0 0 0 0 0 0 0 0 0 0 0 0 0 0 0 0 0 0 0 0 0 0 0 0 0 0 0 0 0 0 0 0 0 0 0 0 0 0 0 0 0 0 0 0 0 0 0 0 0 0 0 0 0 0 0 0 0 0 0 0 0 0 0 0 0 0 0 0 0 0 0 0 0 0 0 0 0 0 0 0 0 0 0 0 0 0 0 0 0 0 0 0 0 0 0 0 0 0 0 0 0 0 0 0 0 0 0 0 0 0 0 0 0 0 0 0 0 0 0 0 0 0 0 0 0 0 0 0 0 0 0 0 0 0 0 0 0 0 0 0 0 0 0 0 0 0 0 0 0 0 0 0 0 0 0 0 0 0 0 0 0 0 0 0 0 0 0 0 0 0 0 0 0 0 0 0 0 0 0 0 0 0 0 0 0 0 0 0 0 0 0 0 0 0 0 0 0 0 0 0 0 0 0 0 0 0 0 0 0 0 0 0 0 0 0 0 0 0 0 0 0 0 0 0 0 0 0 0 0 0 0 0 0 0 0 0 0 0 0 0 0 0 0 0 0 0 0 0 0 0 0 0 0 0 0 0 0 0 0 0 0 0 0 0 0 0 0 0 0 0 0 0 0 0 0 0 0 0 0 0 0 0 0 0 0 0 0 0 0 0 0 0 0 0 0 0 0 0 0 0 0 0 0 0 0 0 0 0 0 0 0 0 0 0 0 0 0 0 0 0 0 0 0 0 0 0 0 0 0 0 0 0 0 0 0 0 0 0 0 0 0 0 0 0 0 0 0 0 0 0 0 0 0 0 0 0 0 0 0 0 0 0 0 0 0 0 0 0 0 0 0 0 0 0 0 0 0 0 0 0 0 0 0 0 0 0 0 0 0 0 0 0 0 0 0 0 0 0 0 0 0 0 0 0 0 0 0 0 0 0 0 0 0 0 0 0 0 0 0 0 0 0 0 0 0 0 0 0 0 0 0 0 0 0 0 0 0 0 0 0 0 0 0 0 0 0 0 0 0 0 0 0 0 0 0 0 0 0 0 0 0 0 0 0 0 0 0 0 0 0 0 0 0 0 0 0 0 0 0 0 0 0 0 0 0 0 0 0 0 0 0 0 0 0 0 0 0 0 0 0 0 0 0 0 0 0 0 0 0 0 0 0 0 0 0 0 0 0 0 0 0 0 0 0 0 0 0 0 0 0 0 0 0 0 0 0 0 0 0 0 0 0 0 0 0 0 0 0 0 0 0 0 0 0 0 0 0 0 0 0 0 0 0 0 0 0 0 0 0 0 0 0 0 0 0 0 0 0 0 0 0 0 0 0 0 0 0 0 0 0 0 0 0 0 0 0 0 0 0 0 0 0 0 0 0 0 0 0 0 0 0 0 0 0 0 0 0 0 0 0 0 0 0 0 0 0 0 0 0 0 0 0 0 0 0 0 0 0 0 0 0 0 0 0 0 0 0 0 0 0 0 0 0 0 0 0 0 0 0 0 0 0 0 0 0 0 0 0 0 0 0 0 0 0 0 0 0 0 0 0 0 0 0 0 0 0 0 0 0 0 0 0 0 0 0 0 0 0 0 0 0 0 0 0 0 0 0 0 0 0 0 0 0 0 0 0 0 0 0 0 0 0 0 0 0 0 0 0 0 0 0 0 0 0 0 0 0 0 0 0 0 0 0 0 0 0 0 0 0 0 0 0 0 0 0 0 0 0 0 0 0 0 0 0 0 0 0 0 0 0 0 0 0 0 0 0 0 0 0 0 0 0 0 0 0 0 0 0 0 0 0 0 0 0 0 0 0 0 0 0 0 0 0 0 0 0 0 0 0 0 0 0 0 0 0 0 0 0 0 0 0 0 0 0 0 0 0 0 0 0 0 0 0 0 0 0 0 0 0 0 0 0 0 0 0 0 0 0 0 0 0 0 0 0 0 0 0 0 0 0 0 0 0 0 0 0 0 0 0 0 0 0 0 0 0 0 0 0 0 0 0 0 0 0 0 0 0 0 0 0 0 0 0 0 0 0 0 0 0 0 0 0 0 0 0 0 0 0 0 0 0 0 0 0 0 0 0 0 0 0 0 0 0 0 0 0 0 0 0 0 0 0 0 0 0 0 0 0 0 0 0 0 0 0 0 0 0 0 0 0 0 0 0 0 0 0 0 0 0 0 0 0 0 0 0 0 0 0 0 0 0 0 0 0 0 0 0 0 0 0 0 0 0 0 0 0 0 0 0 0 0 0 0 0 0 0 0 0 0 0 0 0 0 0 0 0 0 0 0 0 0 0 0 0 0 0 0 0 0 0 0 0 0 0 0 0 0 0 0 0 0 0 0 0 0 0 0 0 0 0 0 0 0 0 0 0 0 0 0 0 0 0 0 0 0 0 0 0 0 0 0 0 0 0 0 0 0 0 0 0 0 0 0 0 0 0 0 0 0 0 0 0 0 0 0 0 0 0 0 0 0 0 0 0 0 0 0 0 0 0 0 0 0 0 0 0 0 0 0 0 0 0 0 0 0 0 0 0 0 0 0 0 0 0 0 0 0 0 0 0 0 0 0 0 0 0 0 0 0 0 0 0 0 0 0 0 0 0 0 0 0 0 0 0 0 0 0 0 0 0 0 0 0 0 0 0 0 0 0 0 0 0 0 0 0 0 0 0 0 0 0 0 0 0 0 0 0 0 0 0 0 0 0 0 0 0 0 0 0 0 0 0 0 0 0 0 0 0 0 0 0 0 0 0 0 0 0 0 0 0 0 0 0 0 0 0 0 0 0 0 0 0 0 0 0 0 0 0 0 0 0 0 0 0 0 0 0 0 0 0 0 0 0 0 0 0 0 0 0 0 0 0 0 0 0 0 0 0 0 0 0 0 0 0 0 0 0 0 0 0 0 0 0 0 0 0 0 0 0 0 0 0 0 0 0 0 0 0 0 0 0 0 0 0 0 0 0 0 0 0 0 0 0 0 0 0 0 0 0 0 0 0 0 0 0 0 0 0 0 0 0 0 0 0 0 0 0 0 0 0 0 0 0 0 0 0 0 0 0 0 0 0 0 0 0 0 0 0 0 0 0 0 0 0 0 0 0 0 0 0 0 0 0 0 0 0 0 0 0 0 0 0 0 0 0 0 0 0 0 0 0 0 0 0 0 0 0 0 0 0 0 0 0 0 0 0 0 0 0 0 0 0 0 0 0 0 0 0 0 0 0 0 0 0 0 0 0 0 0 0 0 0 0 0 0 0 0 0 0 0 0 0 0 0 0 0 0 0 0 0 0 0 0 0 0 0 0 0 0 0 0 0 0 0 0 0 0 0 0 0 0 0 0 0 0 0 0 0 0 0 0 0 0 0 0 0 0 0 0 0 0 0 0 0 0 0 0 0 0 0 0 0 0 0 0 0 0 0 0 0 0 0 0 0 0 0 0 0 0 0 0 0 0 0 0 0 0 0 0 0 0 0 0 0 0 0 0 0 0 0 0 0 0 0 0 0 0 0 0 0 0 0 0 0 0 0 0 0 0 0 0 0 0 0 0 0 0 0 0 0 0 0 0 0 0 0 0 0 0 0 0 0 0 0 0 0 0 0 0 0 0 0 0 0 0 0 0 0 0 0 0 0 0 0 0 0 0 0 0 0 0 0 0 0 0 0 0 0 0 0 0 0 0 0 0 0 0 0 0 0 0 0 0 0 0 0 0 0 0 0 0 0 0 0 0 0 0 0 0 0 0 0 0 0 0 0 0 0 0 0 0 0 0 0 0 0 0 0 0 0 0 0 0 0 0 0 0 0 0 0 0 0 0 0 0 0 0 0 0 0 0 0 0 0 0 0 0 0 0 0 0 0 0 0 0 0 0 0 0 0 0 0 0 0 0 0 0 0 0 0 0 0 0 0 0 0 0 0 0 0 0 0 0 0 0 0 0 0 0 0 0 0 0 0 0 0 0 0 0 0 0 0 0 0 0 0 0 0 0 0 0 0 0 0 0 0 0 0 0 0 0 0 0 0 0 0 0 0 0 0 0 0 0 0 0 0 0 0 0 0 0 0 0 0 0 0 0 0 0 0 0 0 0 0 0 0 0 0 0 0 0 0 0 0 0 0 0 0 0 0 0 0 0 0 0 0 0 0 0 0 0 0 0 0 0 0 0 0 0 0 0 0 0 0 0 0 0 0 0 0 0 0 0 0 0 0 0 0 0 0 0 0 0 0 0 0 0 0 0 0 0 0 0 0 0 0 0 0 0 0 0 0 0 0 0 0 0 0 0 0 0 0 0 0 0 0 0 0 0 0 0 0 0 0 0 0 0 0 0 0 0 0 0 0 0 0 0 0 0 0 0 0 0 0 0 0 0 0 0 0 0 0 0 0 0 0 0 0 0 0 0 0 0 0 0 0 0 0 0 0 0 0 0 0 0 0 0 0 0 0 0 0 0 0 0 0 0 0 0 0 0 0 0 0 0 0 0 0 0 0 0 0 0 0 0 0 0 0 0 0 0 0 0 0 0 0 0 0 0 0 0 0 0 0 0 0 0 0 0 0 0 0 0 0 0 0 0 0 0 0 0 0 0 0 0 0 0 0 0 0 0 0 0 0 0 0 0 0 0 0 0 0 0 0 0 0 0 0 0 0 0 0 0 0 0 0 0 0 0 0 0 0 0 0 0 0 0 0 0 0 0 0 0 0 0 0 0 0 0 0 0 0 0 0 0 0 0 0 0 0 0 0 0 0 0 0 0 0 0 0 0 0 0 0 0 0 0 0 0 0 0 0 0 0 0 0 0 0 0 0 0 0 0 0 0 0 0 0 0 0 0 0 0 0 0 0 0 0 0 0 0 0 0 0 0 0 0 0 0 0 0 0 0 0 0 0 0 0 0 0 0 0 0 0 0 0 0 0 0 0 0 0 0 0 0 0 0 0 0 0 0 0 0 0 0 0 0 0 0 0 0 0 0 0 0 0 0 0 0 0 0 0 0 0 0 0 0 0 0 0 0 0 0 0 0 0 0 0 0 0 0 0 0 0 0 0 0 0 0 0 0 0 0 0 0 0 0 0 0 0 0 0 0 0 0 0 0 0 0 0 0 0 0 0 0 0 0 0 0 0 0 0 0 0 0 0 0 0 0 0 0 0 0 0 0 0 0 0 0 0 0 0 0 0 0 0 0 0 0 0 0 0 0 0 0 0 0 0 0 0 0 0 0 0 0 0 0 0 0 0 0 0 0 0 0 0 0 0 0 0 0 0 0 0 0 0 0 0 0 0 0 0 0 0 0 0 0 0 0 0 0 0 0 0 0 0 0 0 0 0 0 0 0 0 0 0 0 0 0 0 0 0 0 0 0 0 0 0 0 0 0 0 0 0 0 0 0 0 0 0 0 0 0 0 0 0 0 0 0 0 0 0 0 0 0 0 0 0 0 0 0 0 0 0 0 0 0 0 0 0 0 0 0 0 0 0 0 0 0 0 0 0 0 0 0 0 0 0 0 0 0 0 0 0 0 0 0 0 0 0 0 0 0 0 0 0 0 0 0 0 0 0 0 0 0 0 0 0 0 0 0 0 0 0 0 0 0 0 0 0 0 0 0 0 0 0 0 0 0 0 0 0 0 0 0 0 0 0 0 0 0 0 0 0 0 0 0 0 0 0 0 0 0 0 0 0 0 0 0 0 0 0 0 0 0 0 0 0 0 0 0 0 0 0 0 0 0 0 0 0 0 0 0 0 0 0 0 0 0 0 0 0 0 0 0 0 0 0 0 0 0 0 0 0 0 0 0 0 0 0 0 0 0 0 0 0 0 0 0 0 0 0 0 0 0 0 0 0 0 0 0 0 0 0 0 0 0 0 0 0 0 0 0 0 0 0 0 0 0 0 0 0 0 0 0 0 0 0 0 0 0 0 0 0 0 0 0 0 0 0 0 0 0 0 0 0 0 0 0 0 0 0 0 0 0 0 0 0 0 0 0 0 0 0 0 0 0 0 0 0 0 0 0 0 0 0 0 0 0 0 0 0 0 0 0 0 0 0 0 0 0 0 0 0 0 0 0 0 0 0 0 0 0 0 0 0 0 0 0 0 0 0 0 0 0 0 0 0 0 0 0 0 0 0 0 0 0 0 0 0 0 0 0 0 0 0 0 0 0 0 0 0 0 0 0 0 0 0 0 0 0 0 0 0 0 0 0 0 0 0 0 0 0 0 0 0 0 0 0 0 0 0 0 0 0 0 0 0 0 0 0 0 0 0 0 0 0 0 0 0 0 0 0 0 0 0 0 0 0 0 0 0 0 0 0 0 0 0 0 0 0 0 0 0 0 0 0 0 0 0 0 0 0 0 0 0 0 0 0 0 0 0 0 0 0 0 0 0 0 0 0 0 0 0 0 0 0 0 0 0 0 0 0 0 0 0 0 0 0 0 0 0 0 0 0 0 0 0 0 0 0 0 0 0 0 0 0 0 0 0 0 0 0 0 0 0 0 0 0 0 0 0 0 0 0 0 0 0 0 0 0 0 0 0 0 0 0 0 0 0 0 0 0 0 0 0 0 0 0 0 0 0 0 0 0 0 0 0 0 0 0 0 0 0 0 0 0 0 0 0 0 0 0 0 0 0 0 0 0 0 0 0 0 0 0 0 0 0 0 0 0 0 0 0 0 0 0 0 0 0 0 0 0 0 0 0 0 0 0 0 0 0 0 0 0 0 0 0 0 0 0 0 0 0 0 0 0 0 0 0 0 0 0 0 0 0 0 0 0 0 0 0 0 0 0 0 0 0 0 0 0 0 0 0 0 0 0 0 0 0 0 0 0 0 0 0 0 0 0 0 0 0 0 0 0 0 0 0 0 0 0 0 0 0 0 0 0 0 0 0 0 0 0 0 0 0 0 0 0 0 0 0 0 0 0 0 0 0 0 0 0 0 0 0 0 0 0 0 0 0 0 0 0 0 0 0 0 0 0 0 0 0 0 0 0 0 0 0 0 0 0 0 0 0 0 0 0 0 0 0 0 0 0 0 0 0 0 0 0 0 0 0 0 0 0 0 0 0 0 0 0 0 0 0 0 0 0 0 0 0 0 0 0 0 0 0 0 0 0 0 0 0 0 0 0 0 0 0 0 0 0 0 0 0 0 0 0 0 0 0 0 0 0 0 0 0 0 0 0 0 0 0 0 0 0 0 0 0 0 0 0 0 0 0 0 0 0 0 0 0 0 0 0 0 0 0 0 0 0 0 0 0 0 0 0 0 0 0 0 0 0 0 0 0 0 0 0 0 0 0 0 0 0 0 0 0 0 0 0 0 0 0 0 0 0 0 0 0 0 0 0 0 0 0 0 0 0 0 0 0 0 0 0 0 0 0 0 0 0 0 0 0 0 0 0 0 0 0 0 0 0 0 0 0 0 0 0 0 0 0 0 0 0 0 0 0 0 0 0 0 0 0 0 0 0 0 0 0 0 0 0 0 0 0 0 0 0 0 0 0 0 0 0 0 0 0 0 0 0 0 0 0 0 0 0 0 0 0 0 0 0 0 0 0 0 0 0 0 0 0 0 0 0 0 0 0 0 0 0 0 0 0 0 0 0 0 0 0 0 0 0 0 0 0 0 0 0 0 0 0 0 0 0 0 0 0 0 0 0 0 0 0 0 0 0 0 0 0 0 0 0 0 0 0 0 0 0 0 0 0 0 0 0 0 0 0 0 0 0 0 0 0 0 0 0 0 0 0 0 0 0 0 0 0 0 0 0 0 0 0 0 0 0 0 0 0 0 0 0 0 0 0 0 0 0 0 0 0 0 0 0 0 0 0 0 0 0 0 0 0 0 0 0 0 0 0 0 0 0 0 0 0 0 0 0 0 0 0 0 0 0 0 0 0 0 0 0 0 0 0 0 0 0 0 0 0 0 0 0 0 0 0 0 0 0 0 0 0 0 0 0 0 0 0 0 0 0 0 0 0 0 0 0 0 0 0 0 0 0 0 0 0 0 0 0 0 0 0 0 0 0 0 0 0 0 0 0 0 0 0 0 0 0 0 0 0 0 0 0 0 0 0 0 0 0 0 0 0 0 0 0 0 0 0 0 0 0 0 0 0 0 0 0 0 0 0 0 0 0 0 0 0 0 0 0 0 0 0 0 0 0 0 0 0 0 0 0 0 0 0 0 0 0 0 0 0 0 0 0 0 0 0 0 0 0 0 0 0 0 0 0 0 0 0 0 0 0 0 0 0 0 0 0 0 0 0 0 0 0 0 0 0 0 0 0 0 0 0 0 0 0 0 0 0 0 0 0 0 0 0 0 0 0 0 0 0 0 0 0 0 0 0 0 0 0 0 0 0 0 0 0 0 0 0 0 0 0 0 0 0 0 0 0 0 0 0 0 0 0 0 0 0 0 0 0 0 0 0 0 0 0 0 0 0 0 0 0 0 0 0 0 0 0 0 0 0 0 0 0 0 0 0 0 0 0 0 0 0 0 0 0 0 0 0 0 0 0 0 0 0 0 0 0 0 0 0 0 0 0 0 0 0 0 0 0 0 0 0 0 0 0 0 0 0 0 0 0 0 0 0 0 0 0 0 0 0 0 0 0 0 0 0 0 0 0 0 0 0 0 0 0 0 0 0 0 0 0 0 0 0 0 0 0 0 0 0 0 0 0 0 0 0 0 0 0 0 0 0 0 0 0 0 0 0 0 0 0 0 0 0 0 0 0 0 0 0 0 0 0 0 0 0 0 0 0 0 0 0 0 0 0 0 0 0 0 0 0 0 0 0 0 0 0 0 0 0 0 0 0 0 0 0 0 0 0 0 0 0 0 0 0 0 0 0 0 0 0 0 0 0 0 0 0 0 0 0 0 0 0 0 0 0 0 0 0 0 0 0 0 0 0 0 0 0 0 0 0 0 0 0 0 0 0 0 0 0 0 0 0 0 0 0 0 0 0 0 0 0 0 0 0 0 0 0 0 0 0 0 0 0 0 0 0 0 0 0 0 0 0 0 0 0 0 0 0 0 0 0 0 0 0 0 0 0 0 0 0 0 0 0 0 0 0 0 0 0 0 0 0 0 0 0 0 0 0 0 0 0 0 0 0 0 0 0 0 0 0 0 0 0 0 0 0 0 0 0 0 0 0 0 0 0 0 0 0 0 0 0 0 0 0 0 0 0 0 0 0 0 0 0 0 0 0 0 0 0 0 0 0 0 0 0 0 0 0 0 0 0 0 0 0 0 0 0 0 0 0 0 0 0 0 0 0 0 0 0 0 0 0 0 0 0 0 0 0 0 0 0 0 0 0 0 0 0 0 0 0 0 0 0 0 0 0 0 0 0 0 0 0 0 0 0 0 0 0 0 0 0 0 0 0 0 0 0 0 0 0 0 0 0 0 0 0 0 0 0 0 0 0 0 0 0 0 0 0 0 0 0 0 0 0 0 0 0 0 0 0 0 0 0 0 0 0 0 0 0 0 0 0 0 0 0 0 0 0 0 0 0 0 0 0 0 0 0 0 0 0 0 0 0 0 0 0 0 0 0 0 0 0 0 0 0 0 0 0 0 0 0 0 0 0 0 0 0 0 0 0 0 0 0 0 0 0 0 0 0 0 0 0 0 0 0 0 0 0 0 0 0 0 0 0 0 0 0 0 0 0 0 0 0 0 0 0 0 0 0 0 0 0 0 0 0 0 0 0 0 0 0 0 0 0 0 0 0 0 0 0 0 0 0 0 0 0 0 0 0 0 0 0 0 0 0 0 0 0 0 0 0 0 0 0 0 0 0 0 0 0 0 0 0 0 0 0 0 0 0 0 0 0 0 0 0 0 0 0 0 0 0 0 0 0 0 0 0 0 0 0 0 0 0 0 0 0 0 0 0 0 0 0 0 0 0 0 0 0 0 0 0 0 0 0 0 0 0 0 0 0 0 0 0 0 0 0 0 0 0 0 0 0 0 0 0 0 0 0 0 0 0 0 0 0 0 0 0 0 0 0 0 0 0 0 0 0 0 0 0 0 0 0 0 0 0 0 0 0 0 0 0 0 0 0 0 0 0 0 0 0 0 0 0 0 0 0 0 0 0 0 0 0 0 0 0 0 0 0 0 0 0 0 0 0 0 0 0 0 0 0 0 0 0 0 0 0 0 0 0 0 0 0 0 0 0 0 0 0 0 0 0 0 0 0 0 0 0 0 0 0 0 0 0 0 0 0 0 0 0 0 0 0 0 0 0 0 0 0 0 0 0 0 0 0 0 0 0 0 0 0 0 0 0 0 0 0 0 0 0 0 0 0 0 0 0 0 0 0 0 0 0 0 0 0 0 0 0 0 0 0 0 0 0 0 0 0 0 0 0 0 0 0 0 0 0 0 0 0 0 0 0 0 0 0 0 0 0 0 0 0 0 0 0 0 0 0 0 0 0 0 0 0 0 0 0 0 0 0 0 0 0 0 0 0 0 0 0 0 0 0 0 0 0 0 0 0 0 0 0 0 0 0 0 0 0 0 0 0 0 0 0 0 0 0 0 0 0 0 0 0 0 0 0 0 0 0 0 0 0 0 0 0 0 0 0 0 0 0 0 0 0 0 0 0 0 0 0 0 0 0 0 0 0 0 0 0 0 0 0 0 0 0 0 0 0 0 0 0 0 0 0 0 0 0 0 0 0 0 0 0 0 0 0 0 0 0 0 0 0 0 0 0 0 0 0 0 0 0 0 0 0 0 0 0 0 0 0 0 0 0 0 0 0 0 0 0 0 0 0 0 0 0 0 0 0 0 0 0 0 0 0 0 0 0 0 0 0 0 0 0 0 0 0 0 0 0 0 0 0 0 0 0 0 0 0 0 0 0 0 0 0 0 0 0 0 0 0 0 0 0 0 0 0 0 0 0 0 0 0 0 0 0 0 0 0 0 0 0 0 0 0 0 0 0 0 0 0 0 0 0 0 0 0 0 0 0 0 0 0 0 0 0 0 0 0 0 0 0 0 0 0 0 0 0 0 0 0 0 0 0 0 0 0 0 0 0 0 0 0 0 0 0 0 0 0 0 0 0 0 0 0 0 0 0 0 0 0 0 0 0 0 0 0 0 0 0 0 0 0 0 0 0 0 0 0 0 0 0 0 0 0 0 0 0 0 0 0 0 0 0 0 0 0 0 0 0 0 0 0 0 0 0 0 0 0 0 0 0 0 0 0 0 0 0 0 0 0 0 0 0 0 0 0 0 0 0 0 0 0 0 0 0 0 0 0 0 0 0 0 0 0 0 0 0 0 0 0 0 0 0 0 0 0 0 0 0 0 0 0 0 0 0 0 0 0 0 0 0 0 0 0 0 0 0 0 0 0 0 0 0 0 0 0 0 0 0 0 0 0 0 0 0 0 0 0 0 0 0 0 0 0 0 0 0 0 0 0 0 0 0 0 0 0 0 0 0 0 0 0 0 0 0 0 0 0 0 0 0 0 0 0 0 0 0 0 0 0 0 0 0 0 0 0 0 0 0 0 0 0 0 0 0 0 0 0 0 0 0 0 0 0 0 0 0 0 0 0 0 0 0 0 0 0 0 0 0 0 0 0 0 0 0 0 0 0 0 0 0 0 0 0 0 0 0 0 0 0 0 0 0 0 0 0 0 0 0 0 0 0 0 0 0 0 0 0 0 0 0 0 0 0 0 0 0 0 0 0 0 0 0 0 0 0 0 0 0 0 0 0 0 0 0 0 0 0 0 0 0 0 0 0 0 0 0 0 0 0 0 0 0 0 0 0 0 0 0 0 0 0 0 0 0 0 0 0 0 0 0 0 0 0 0 0 0 0 0 0 0 0 0 0 0 0 0 0 0 0 0 0 0 0 0 0 0 0 0 0 0 0 0 0 0 0 0 0 0 0 0 0 0 0 0 0 0 0 0 0 0 0 0 0 0 0 0 0 0 0 0 0 0 0 0 0 0 0 0 0 0 0 0 0 0 0 0 0 0 0 0 0 0 0 0 0 0 0 0 0 0 0 0 0 0 0 0 0 0 0 0 0 0 0 0 0 0 0 0 0 0 0 0 0 0 0 0 0 0 0 0 0 0 0 0 0 0 0 0 0 0 0 0 0 0 0 0 0 0 0 0 0 0 0 0 0 0 0 0 0 0 0 0 0 0 0 0 0 0 0 0 0 0 0 0 0 0 0 0 0 0 0 0 0 0 0 0 0 0 0 0 0 0 0 0 0 0 0 0 0 0 0 0 0 0 0 0 0 0 0 0 0 0 0 0 0 0 0 0 0 0 0 0 0 0 0 0 0 0 0 0 0 0 0 0 0 0 0 0 0 0 0 0 0 0 0 0 0 0 0 0 0 0 0 0 0 0 0 0 0 0 0 0 0 0 0 0 0 0 0 0 0 0 0 0 0 0 0 0 0 0 0 0 0 0 0 0 0 0 0 0 0 0 0 0 0 0 0 0 0 0 0 0 0 0 0 0 0 0 0 0 0 0 0 0 0 0 0 0 0 0 0 0 0 0 0 0 0 0 0 0 0 0 0 0 0 0 0 0 0 0 0 0 0 0 0 0 0 0 0 0 0 0 0 0 0 0 0 0 0 0 0 0 0 0 0 0 0 0 0 0 0 0 0 0 0 0 0 0 0 0 0 0 0 0 0 0 0 0 0 0 0 0 0 0 0 0 0 0 0 0 0 0 0 0 0 0 0 0 0 0 0 0 0 0 0 0 0 0 0 0 0 0 0 0 0 0 0 0 0 0 0 0 0 0 0 0 0 0 0 0 0 0 0 0 0 0 0 0 0 0 0 0 0 0 0 0 0 0 0 0 0 0 0 0 0 0 0 0 0 0 0 0 0 0 0 0 0 0 0 0 0 0 0 0 0 0 0 0 0 0 0 0 0 0 0 0 0 0 0 0 0 0 0 0 0 0 0 0 0 0 0 0 0 0 0 0 0 0 0 0 0 0 0 0 0 0 0 0 0 0 0 0 0 0 0 0 0 0 0 0 0 0 0 0 0 0 0 0 0 0 0 0 0 0 0 0 0 0 0 0 0 0 0 0 0 0 0 0 0 0 0 0 0 0 0 0 0 0 0 0 0 0 0 0 0 0 0 0 0 0 0 0 0 0 0 0 0 0 0 0 0 0 0 0 0 0 0 0 0 0 0 0 0 0 0 0 0 0 0 0 0 0 0 0 0 0 0 0 0 0 0 0 0 0 0 0 0 0 0 0 0 0 0 0 0 0 0 0 0 0 0 0 0 0 0 0 0 0 0 0 0 0 0 0 0 0 0 0 0 0 0 0 0 0 0 0 0 0 0 0 0 0 0 0 0 0 0 0 0 0 0 0 0 0 0 0 0 0 0 0 0 0 0 0 0 0 0 0 0 0 0 0 0 0 0 0 0 0 0 0 0 0 0 0 0 0 0 0 0 0 0 0 0 0 0 0 0 0 0 0 0 0 0 0 0 0 0 0 0 0 0 0 0 0 0 0 0 0 0 0 0 0 0 